<?xml version="1.0" encoding="UTF-8" standalone="no"?>
<!DOCTYPE svg PUBLIC "-//W3C//DTD SVG 1.1//EN"
 "http://www.w3.org/Graphics/SVG/1.1/DTD/svg11.dtd">
<!-- Generated by graphviz version 2.43.0 (0)
 -->
<!-- Title: m_data_output::s_write_parallel_data_files Pages: 1 -->
<svg width="714pt" height="477pt"
 viewBox="0.00 0.00 714.00 476.50" xmlns="http://www.w3.org/2000/svg" xmlns:xlink="http://www.w3.org/1999/xlink">
<g id="graph0" class="graph" transform="scale(1 1) rotate(0) translate(4 472.5)">
<title>m_data_output::s_write_parallel_data_files</title>
<!-- Node1 -->
<g id="Node000001" class="node">
<title>Node1</title>
<g id="a_Node000001"><a xlink:title="Writes grid and initial condition data files in parallel to the &quot;0&quot; time&#45;step directory in the local ...">
<polygon fill="#999999" stroke="#666666" points="131,-350.5 0,-350.5 0,-320.5 131,-320.5 131,-350.5"/>
<text text-anchor="start" x="8" y="-338.5" font-family="Helvetica,sans-Serif" font-size="10.00">m_data_output::s_write</text>
<text text-anchor="middle" x="65.5" y="-327.5" font-family="Helvetica,sans-Serif" font-size="10.00">_parallel_data_files</text>
</a>
</g>
</g>
<!-- Node2 -->
<g id="Node000002" class="node">
<title>Node2</title>
<g id="a_Node000002"><a xlink:href="namespacem__delay__file__access.html#a9b90086a2cf6bbb569047c955d2e67fe" target="_top" xlink:title=" ">
<polygon fill="white" stroke="#666666" points="309.5,-468.5 192.5,-468.5 192.5,-438.5 309.5,-438.5 309.5,-468.5"/>
<text text-anchor="start" x="200.5" y="-456.5" font-family="Helvetica,sans-Serif" font-size="10.00">m_delay_file_access</text>
<text text-anchor="middle" x="251" y="-445.5" font-family="Helvetica,sans-Serif" font-size="10.00">::delayfileaccess</text>
</a>
</g>
</g>
<!-- Node1&#45;&gt;Node2 -->
<g id="edge1_Node000001_Node000002" class="edge">
<title>Node1&#45;&gt;Node2</title>
<g id="a_edge1_Node000001_Node000002"><a xlink:title=" ">
<path fill="none" stroke="#63b8ff" d="M78.51,-350.51C95.88,-371.25 130.03,-408.49 167,-429.5 172.01,-432.35 177.39,-434.88 182.91,-437.13"/>
<polygon fill="#63b8ff" stroke="#63b8ff" points="181.71,-440.42 192.3,-440.66 184.17,-433.87 181.71,-440.42"/>
</a>
</g>
</g>
<!-- Node3 -->
<g id="Node000003" class="node">
<title>Node3</title>
<g id="a_Node000003"><a xlink:href="namespacem__compile__specific.html#a9cf8c029e502931415929734c03f340d" target="_top" xlink:title="Inquires on the existence of a directory.">
<polygon fill="white" stroke="#666666" points="307.5,-420.5 194.5,-420.5 194.5,-390.5 307.5,-390.5 307.5,-420.5"/>
<text text-anchor="start" x="202.5" y="-408.5" font-family="Helvetica,sans-Serif" font-size="10.00">m_compile_specific</text>
<text text-anchor="middle" x="251" y="-397.5" font-family="Helvetica,sans-Serif" font-size="10.00">::my_inquire</text>
</a>
</g>
</g>
<!-- Node1&#45;&gt;Node3 -->
<g id="edge2_Node000001_Node000003" class="edge">
<title>Node1&#45;&gt;Node3</title>
<g id="a_edge2_Node000001_Node000003"><a xlink:title=" ">
<path fill="none" stroke="#63b8ff" d="M96.36,-350.57C116.09,-360.19 142.71,-372.49 167,-381.5 172.59,-383.57 178.44,-385.58 184.33,-387.49"/>
<polygon fill="#63b8ff" stroke="#63b8ff" points="183.68,-390.96 194.27,-390.62 185.78,-384.28 183.68,-390.96"/>
</a>
</g>
</g>
<!-- Node4 -->
<g id="Node000004" class="node">
<title>Node4</title>
<g id="a_Node000004"><a xlink:href="namespacem__compile__specific.html#aa1b4e12a20e09147a215c3b5018484b0" target="_top" xlink:title="Creates a directory and all its parents if it does not exist.">
<polygon fill="white" stroke="#666666" points="307.5,-372.5 194.5,-372.5 194.5,-342.5 307.5,-342.5 307.5,-372.5"/>
<text text-anchor="start" x="202.5" y="-360.5" font-family="Helvetica,sans-Serif" font-size="10.00">m_compile_specific</text>
<text text-anchor="middle" x="251" y="-349.5" font-family="Helvetica,sans-Serif" font-size="10.00">::s_create_directory</text>
</a>
</g>
</g>
<!-- Node1&#45;&gt;Node4 -->
<g id="edge3_Node000001_Node000004" class="edge">
<title>Node1&#45;&gt;Node4</title>
<g id="a_edge3_Node000001_Node000004"><a xlink:title=" ">
<path fill="none" stroke="#63b8ff" d="M131.2,-343.26C148.45,-345.32 167.1,-347.56 184.4,-349.63"/>
<polygon fill="#63b8ff" stroke="#63b8ff" points="184.06,-353.12 194.41,-350.83 184.89,-346.17 184.06,-353.12"/>
</a>
</g>
</g>
<!-- Node5 -->
<g id="Node000005" class="node">
<title>Node5</title>
<g id="a_Node000005"><a xlink:href="namespacem__helper.html#adf827c606652ea511bd0befcc9164c03" target="_top" xlink:title=" ">
<polygon fill="white" stroke="#666666" points="335,-324 167,-324 167,-305 335,-305 335,-324"/>
<text text-anchor="middle" x="251" y="-312" font-family="Helvetica,sans-Serif" font-size="10.00">m_helper::s_downsample_data</text>
</a>
</g>
</g>
<!-- Node1&#45;&gt;Node5 -->
<g id="edge4_Node000001_Node000005" class="edge">
<title>Node1&#45;&gt;Node5</title>
<g id="a_edge4_Node000001_Node000005"><a xlink:title=" ">
<path fill="none" stroke="#63b8ff" d="M131.2,-328.1C139.5,-327.15 148.13,-326.16 156.78,-325.17"/>
<polygon fill="#63b8ff" stroke="#63b8ff" points="157.39,-328.62 166.92,-324.01 156.59,-321.67 157.39,-328.62"/>
</a>
</g>
</g>
<!-- Node6 -->
<g id="Node000006" class="node">
<title>Node6</title>
<g id="a_Node000006"><a xlink:href="namespacem__boundary__common.html#a759354204f31b7b1ecce6258ffec6a5c" target="_top" xlink:title="The purpose of this procedure is to populate the buffers of the primitive variables,...">
<polygon fill="white" stroke="#666666" points="316.5,-287 185.5,-287 185.5,-246 316.5,-246 316.5,-287"/>
<text text-anchor="start" x="193.5" y="-275" font-family="Helvetica,sans-Serif" font-size="10.00">m_boundary_common::</text>
<text text-anchor="start" x="193.5" y="-264" font-family="Helvetica,sans-Serif" font-size="10.00">s_populate_variables</text>
<text text-anchor="middle" x="251" y="-253" font-family="Helvetica,sans-Serif" font-size="10.00">_buffers</text>
</a>
</g>
</g>
<!-- Node1&#45;&gt;Node6 -->
<g id="edge5_Node000001_Node000006" class="edge">
<title>Node1&#45;&gt;Node6</title>
<g id="a_edge5_Node000001_Node000006"><a xlink:title=" ">
<path fill="none" stroke="#63b8ff" d="M103.11,-320.49C122.1,-312.82 145.71,-303.45 167,-295.5 171.41,-293.85 175.97,-292.18 180.57,-290.51"/>
<polygon fill="#63b8ff" stroke="#63b8ff" points="181.82,-293.78 190.05,-287.11 179.45,-287.19 181.82,-293.78"/>
</a>
</g>
</g>
<!-- Node15 -->
<g id="Node000015" class="node">
<title>Node15</title>
<g id="a_Node000015"><a xlink:href="namespacem__boundary__common.html#a2aefea0840d9c981126f0fa7f5087d8f" target="_top" xlink:title=" ">
<polygon fill="white" stroke="#666666" points="323.5,-95 178.5,-95 178.5,-54 323.5,-54 323.5,-95"/>
<text text-anchor="start" x="186.5" y="-83" font-family="Helvetica,sans-Serif" font-size="10.00">m_boundary_common::</text>
<text text-anchor="start" x="186.5" y="-72" font-family="Helvetica,sans-Serif" font-size="10.00">s_write_parallel_boundary</text>
<text text-anchor="middle" x="251" y="-61" font-family="Helvetica,sans-Serif" font-size="10.00">_condition_files</text>
</a>
</g>
</g>
<!-- Node1&#45;&gt;Node15 -->
<g id="edge15_Node000001_Node000015" class="edge">
<title>Node1&#45;&gt;Node15</title>
<g id="a_edge15_Node000001_Node000015"><a xlink:title=" ">
<path fill="none" stroke="#63b8ff" d="M77.16,-320.34C106.78,-278.2 190.48,-159.15 229.5,-103.65"/>
<polygon fill="#63b8ff" stroke="#63b8ff" points="232.48,-105.51 235.37,-95.31 226.75,-101.48 232.48,-105.51"/>
</a>
</g>
</g>
<!-- Node7 -->
<g id="Node000007" class="node">
<title>Node7</title>
<g id="a_Node000007"><a xlink:href="namespacem__boundary__common.html#a2fe3d0adef0faf65f6410f293d32bb42" target="_top" xlink:title=" ">
<polygon fill="white" stroke="#666666" points="512.5,-463.5 381.5,-463.5 381.5,-433.5 512.5,-433.5 512.5,-463.5"/>
<text text-anchor="start" x="389.5" y="-451.5" font-family="Helvetica,sans-Serif" font-size="10.00">m_boundary_common::</text>
<text text-anchor="middle" x="447" y="-440.5" font-family="Helvetica,sans-Serif" font-size="10.00">s_axis</text>
</a>
</g>
</g>
<!-- Node6&#45;&gt;Node7 -->
<g id="edge6_Node000006_Node000007" class="edge">
<title>Node6&#45;&gt;Node7</title>
<g id="a_edge6_Node000006_Node000007"><a xlink:title=" ">
<path fill="none" stroke="#63b8ff" d="M316.6,-281.8C323.43,-285.44 329.78,-289.93 335,-295.5 375.72,-338.91 329.71,-381.63 371,-424.5 371.93,-425.47 372.91,-426.4 373.91,-427.29"/>
<polygon fill="#63b8ff" stroke="#63b8ff" points="372.12,-430.32 382.24,-433.43 376.27,-424.68 372.12,-430.32"/>
</a>
</g>
</g>
<!-- Node8 -->
<g id="Node000008" class="node">
<title>Node8</title>
<g id="a_Node000008"><a xlink:href="namespacem__boundary__common.html#a868f1a4cb136b1e10ff0266614eae5b8" target="_top" xlink:title=" ">
<polygon fill="white" stroke="#666666" points="512.5,-415.5 381.5,-415.5 381.5,-385.5 512.5,-385.5 512.5,-415.5"/>
<text text-anchor="start" x="389.5" y="-403.5" font-family="Helvetica,sans-Serif" font-size="10.00">m_boundary_common::</text>
<text text-anchor="middle" x="447" y="-392.5" font-family="Helvetica,sans-Serif" font-size="10.00">s_dirichlet</text>
</a>
</g>
</g>
<!-- Node6&#45;&gt;Node8 -->
<g id="edge7_Node000006_Node000008" class="edge">
<title>Node6&#45;&gt;Node8</title>
<g id="a_edge7_Node000006_Node000008"><a xlink:title=" ">
<path fill="none" stroke="#63b8ff" d="M316.55,-283.12C323.23,-286.52 329.55,-290.6 335,-295.5 362.79,-320.49 343.62,-346.06 371,-371.5 374.58,-374.83 378.59,-377.79 382.84,-380.42"/>
<polygon fill="#63b8ff" stroke="#63b8ff" points="381.39,-383.62 391.83,-385.37 384.76,-377.48 381.39,-383.62"/>
</a>
</g>
</g>
<!-- Node9 -->
<g id="Node000009" class="node">
<title>Node9</title>
<g id="a_Node000009"><a xlink:href="namespacem__boundary__common.html#a8aaafb76d038c4e6c8ae6272efa774ad" target="_top" xlink:title=" ">
<polygon fill="white" stroke="#666666" points="706,-393.5 559,-393.5 559,-363.5 706,-363.5 706,-393.5"/>
<text text-anchor="start" x="567" y="-381.5" font-family="Helvetica,sans-Serif" font-size="10.00">m_boundary_common::</text>
<text text-anchor="middle" x="632.5" y="-370.5" font-family="Helvetica,sans-Serif" font-size="10.00">s_ghost_cell_extrapolation</text>
</a>
</g>
</g>
<!-- Node6&#45;&gt;Node9 -->
<g id="edge9_Node000006_Node000009" class="edge">
<title>Node6&#45;&gt;Node9</title>
<g id="a_edge9_Node000006_Node000009"><a xlink:title=" ">
<path fill="none" stroke="#63b8ff" d="M316.69,-285.17C323.12,-288.16 329.35,-291.59 335,-295.5 355.5,-309.68 349.28,-326.27 371,-338.5 400.7,-355.24 484.1,-366.04 548.62,-372.15"/>
<polygon fill="#63b8ff" stroke="#63b8ff" points="548.52,-375.66 558.8,-373.09 549.16,-368.69 548.52,-375.66"/>
</a>
</g>
</g>
<!-- Node10 -->
<g id="Node000010" class="node">
<title>Node10</title>
<g id="a_Node000010"><a xlink:href="namespacem__boundary__common.html#ac94c00d60da5c8365f14f1b035566c21" target="_top" xlink:title=" ">
<polygon fill="white" stroke="#666666" points="512.5,-329.5 381.5,-329.5 381.5,-299.5 512.5,-299.5 512.5,-329.5"/>
<text text-anchor="start" x="389.5" y="-317.5" font-family="Helvetica,sans-Serif" font-size="10.00">m_boundary_common::</text>
<text text-anchor="middle" x="447" y="-306.5" font-family="Helvetica,sans-Serif" font-size="10.00">s_no_slip_wall</text>
</a>
</g>
</g>
<!-- Node6&#45;&gt;Node10 -->
<g id="edge10_Node000006_Node000010" class="edge">
<title>Node6&#45;&gt;Node10</title>
<g id="a_edge10_Node000006_Node000010"><a xlink:title=" ">
<path fill="none" stroke="#63b8ff" d="M316.6,-282.48C335.47,-287.15 356.18,-292.28 375.4,-297.03"/>
<polygon fill="#63b8ff" stroke="#63b8ff" points="374.74,-300.48 385.29,-299.48 376.43,-293.68 374.74,-300.48"/>
</a>
</g>
</g>
<!-- Node11 -->
<g id="Node000011" class="node">
<title>Node11</title>
<g id="a_Node000011"><a xlink:href="namespacem__boundary__common.html#a4d160d849a7ea4ce6a8cac2c478e5b9c" target="_top" xlink:title=" ">
<polygon fill="white" stroke="#666666" points="512.5,-281.5 381.5,-281.5 381.5,-251.5 512.5,-251.5 512.5,-281.5"/>
<text text-anchor="start" x="389.5" y="-269.5" font-family="Helvetica,sans-Serif" font-size="10.00">m_boundary_common::</text>
<text text-anchor="middle" x="447" y="-258.5" font-family="Helvetica,sans-Serif" font-size="10.00">s_periodic</text>
</a>
</g>
</g>
<!-- Node6&#45;&gt;Node11 -->
<g id="edge11_Node000006_Node000011" class="edge">
<title>Node6&#45;&gt;Node11</title>
<g id="a_edge11_Node000006_Node000011"><a xlink:title=" ">
<path fill="none" stroke="#63b8ff" d="M316.6,-266.5C334.1,-266.5 353.18,-266.5 371.19,-266.5"/>
<polygon fill="#63b8ff" stroke="#63b8ff" points="371.35,-270 381.35,-266.5 371.35,-263 371.35,-270"/>
</a>
</g>
</g>
<!-- Node12 -->
<g id="Node000012" class="node">
<title>Node12</title>
<g id="a_Node000012"><a xlink:href="namespacem__boundary__common.html#ac55853dffb7e074e8f645ff0a63e7e38" target="_top" xlink:title=" ">
<polygon fill="white" stroke="#666666" points="512.5,-233.5 381.5,-233.5 381.5,-203.5 512.5,-203.5 512.5,-233.5"/>
<text text-anchor="start" x="389.5" y="-221.5" font-family="Helvetica,sans-Serif" font-size="10.00">m_boundary_common::</text>
<text text-anchor="middle" x="447" y="-210.5" font-family="Helvetica,sans-Serif" font-size="10.00">s_qbmm_extrapolation</text>
</a>
</g>
</g>
<!-- Node6&#45;&gt;Node12 -->
<g id="edge12_Node000006_Node000012" class="edge">
<title>Node6&#45;&gt;Node12</title>
<g id="a_edge12_Node000006_Node000012"><a xlink:title=" ">
<path fill="none" stroke="#63b8ff" d="M316.6,-250.52C335.47,-245.85 356.18,-240.72 375.4,-235.97"/>
<polygon fill="#63b8ff" stroke="#63b8ff" points="376.43,-239.32 385.29,-233.52 374.74,-232.52 376.43,-239.32"/>
</a>
</g>
</g>
<!-- Node13 -->
<g id="Node000013" class="node">
<title>Node13</title>
<g id="a_Node000013"><a xlink:href="namespacem__boundary__common.html#aafa9626b0837c3fc44bec98866283f1d" target="_top" xlink:title=" ">
<polygon fill="white" stroke="#666666" points="512.5,-185.5 381.5,-185.5 381.5,-155.5 512.5,-155.5 512.5,-185.5"/>
<text text-anchor="start" x="389.5" y="-173.5" font-family="Helvetica,sans-Serif" font-size="10.00">m_boundary_common::</text>
<text text-anchor="middle" x="447" y="-162.5" font-family="Helvetica,sans-Serif" font-size="10.00">s_slip_wall</text>
</a>
</g>
</g>
<!-- Node6&#45;&gt;Node13 -->
<g id="edge13_Node000006_Node000013" class="edge">
<title>Node6&#45;&gt;Node13</title>
<g id="a_edge13_Node000006_Node000013"><a xlink:title=" ">
<path fill="none" stroke="#63b8ff" d="M281.74,-245.81C305.19,-230.17 339.13,-209 371,-194.5 375.1,-192.63 379.39,-190.85 383.75,-189.16"/>
<polygon fill="#63b8ff" stroke="#63b8ff" points="385.19,-192.36 393.36,-185.61 382.76,-185.79 385.19,-192.36"/>
</a>
</g>
</g>
<!-- Node14 -->
<g id="Node000014" class="node">
<title>Node14</title>
<g id="a_Node000014"><a xlink:href="namespacem__boundary__common.html#a117fa18d768baf2b0edd4e8887a923d5" target="_top" xlink:title=" ">
<polygon fill="white" stroke="#666666" points="512.5,-137.5 381.5,-137.5 381.5,-107.5 512.5,-107.5 512.5,-137.5"/>
<text text-anchor="start" x="389.5" y="-125.5" font-family="Helvetica,sans-Serif" font-size="10.00">m_boundary_common::</text>
<text text-anchor="middle" x="447" y="-114.5" font-family="Helvetica,sans-Serif" font-size="10.00">s_symmetry</text>
</a>
</g>
</g>
<!-- Node6&#45;&gt;Node14 -->
<g id="edge14_Node000006_Node000014" class="edge">
<title>Node6&#45;&gt;Node14</title>
<g id="a_edge14_Node000006_Node000014"><a xlink:title=" ">
<path fill="none" stroke="#63b8ff" d="M267.41,-245.66C288.14,-219.02 327.47,-173.17 371,-146.5 373.65,-144.87 376.43,-143.35 379.28,-141.92"/>
<polygon fill="#63b8ff" stroke="#63b8ff" points="380.97,-144.99 388.61,-137.66 378.06,-138.63 380.97,-144.99"/>
</a>
</g>
</g>
<!-- Node8&#45;&gt;Node9 -->
<g id="edge8_Node000008_Node000009" class="edge">
<title>Node8&#45;&gt;Node9</title>
<g id="a_edge8_Node000008_Node000009"><a xlink:title=" ">
<path fill="none" stroke="#63b8ff" d="M512.7,-392.74C524.38,-391.34 536.72,-389.86 548.84,-388.41"/>
<polygon fill="#63b8ff" stroke="#63b8ff" points="549.43,-391.86 558.95,-387.2 548.6,-384.91 549.43,-391.86"/>
</a>
</g>
</g>
<!-- Node16 -->
<g id="Node000016" class="node">
<title>Node16</title>
<g id="a_Node000016"><a xlink:href="namespacem__boundary__common.html#ab5d422a797dcdf7a95587c937dbdf74c" target="_top" xlink:title=" ">
<polygon fill="white" stroke="#666666" points="512.5,-89.5 381.5,-89.5 381.5,-59.5 512.5,-59.5 512.5,-89.5"/>
<text text-anchor="start" x="389.5" y="-77.5" font-family="Helvetica,sans-Serif" font-size="10.00">m_boundary_common::</text>
<text text-anchor="middle" x="447" y="-66.5" font-family="Helvetica,sans-Serif" font-size="10.00">s_create_mpi_types</text>
</a>
</g>
</g>
<!-- Node15&#45;&gt;Node16 -->
<g id="edge16_Node000015_Node000016" class="edge">
<title>Node15&#45;&gt;Node16</title>
<g id="a_edge16_Node000015_Node000016"><a xlink:title=" ">
<path fill="none" stroke="#63b8ff" d="M323.69,-74.5C339.18,-74.5 355.6,-74.5 371.21,-74.5"/>
<polygon fill="#63b8ff" stroke="#63b8ff" points="371.34,-78 381.34,-74.5 371.34,-71 371.34,-78"/>
</a>
</g>
</g>
<!-- Node17 -->
<g id="Node000017" class="node">
<title>Node17</title>
<g id="a_Node000017"><a xlink:href="namespacem__boundary__common.html#a2e01dd2beffea80860bb348cf62d4cb3" target="_top" xlink:title=" ">
<polygon fill="white" stroke="#666666" points="523,-41 371,-41 371,0 523,0 523,-41"/>
<text text-anchor="start" x="379" y="-29" font-family="Helvetica,sans-Serif" font-size="10.00">m_boundary_common::</text>
<text text-anchor="start" x="379" y="-18" font-family="Helvetica,sans-Serif" font-size="10.00">s_pack_boundary_condition</text>
<text text-anchor="middle" x="447" y="-7" font-family="Helvetica,sans-Serif" font-size="10.00">_buffers</text>
</a>
</g>
</g>
<!-- Node15&#45;&gt;Node17 -->
<g id="edge17_Node000015_Node000017" class="edge">
<title>Node15&#45;&gt;Node17</title>
<g id="a_edge17_Node000015_Node000017"><a xlink:title=" ">
<path fill="none" stroke="#63b8ff" d="M323.69,-54.55C336.33,-51.03 349.59,-47.34 362.53,-43.74"/>
<polygon fill="#63b8ff" stroke="#63b8ff" points="363.64,-47.06 372.34,-41 361.76,-40.31 363.64,-47.06"/>
</a>
</g>
</g>
</g>
</svg>
