<?xml version="1.0" encoding="UTF-8" standalone="no"?>
<!DOCTYPE svg PUBLIC "-//W3C//DTD SVG 1.1//EN"
 "http://www.w3.org/Graphics/SVG/1.1/DTD/svg11.dtd">
<!-- Generated by graphviz version 2.43.0 (0)
 -->
<!-- Title: m_variables_conversion::s_compute_pressure Pages: 1 -->
<svg width="757pt" height="112pt"
 viewBox="0.00 0.00 757.00 112.26" xmlns="http://www.w3.org/2000/svg" xmlns:xlink="http://www.w3.org/1999/xlink">
<g id="graph0" class="graph" transform="scale(1 1) rotate(0) translate(4 108.26)">
<title>m_variables_conversion::s_compute_pressure</title>
<!-- Node1 -->
<g id="Node000001" class="node">
<title>Node1</title>
<g id="a_Node000001"><a xlink:title="This procedure conditionally calculates the appropriate pressure.">
<polygon fill="#999999" stroke="#666666" points="749,-71.76 614,-71.76 614,-41.76 749,-41.76 749,-71.76"/>
<text text-anchor="start" x="622" y="-59.76" font-family="Helvetica,sans-Serif" font-size="10.00">m_variables_conversion</text>
<text text-anchor="middle" x="681.5" y="-48.76" font-family="Helvetica,sans-Serif" font-size="10.00">::s_compute_pressure</text>
</a>
</g>
</g>
<!-- Node2 -->
<g id="Node000002" class="node">
<title>Node2</title>
<g id="a_Node000002"><a xlink:href="namespacem__variables__conversion.html#a7d567315b057c0da0cb37f89ef298031" target="_top" xlink:title="The following procedure handles the conversion between the conservative variables and the primitive v...">
<polygon fill="white" stroke="#666666" points="578,-104.26 440,-104.26 440,-63.26 578,-63.26 578,-104.26"/>
<text text-anchor="start" x="448" y="-92.26" font-family="Helvetica,sans-Serif" font-size="10.00">m_variables_conversion</text>
<text text-anchor="start" x="448" y="-81.26" font-family="Helvetica,sans-Serif" font-size="10.00">::s_convert_conservative</text>
<text text-anchor="middle" x="509" y="-70.26" font-family="Helvetica,sans-Serif" font-size="10.00">_to_primitive_variables</text>
</a>
</g>
</g>
<!-- Node1&#45;&gt;Node2 -->
<g id="edge1_Node000001_Node000002" class="edge">
<title>Node1&#45;&gt;Node2</title>
<g id="a_edge1_Node000001_Node000002"><a xlink:title=" ">
<path fill="none" stroke="#63b8ff" d="M603.67,-68.93C595.15,-70.28 586.51,-71.65 578.1,-72.98"/>
<polygon fill="#63b8ff" stroke="#63b8ff" points="604.27,-72.38 613.6,-67.36 603.18,-65.46 604.27,-72.38"/>
</a>
</g>
</g>
<!-- Node6 -->
<g id="Node000006" class="node">
<title>Node6</title>
<g id="a_Node000006"><a xlink:href="namespacem__data__output.html#a3592c85a5b5a76ff5035209211ad7cf7" target="_top" xlink:title="Writes grid and initial condition data files to the &quot;0&quot; time&#45;step directory in the local processor ra...">
<polygon fill="white" stroke="#666666" points="574.5,-44.76 443.5,-44.76 443.5,-14.76 574.5,-14.76 574.5,-44.76"/>
<text text-anchor="start" x="451.5" y="-32.76" font-family="Helvetica,sans-Serif" font-size="10.00">m_data_output::s_write</text>
<text text-anchor="middle" x="509" y="-21.76" font-family="Helvetica,sans-Serif" font-size="10.00">_serial_data_files</text>
</a>
</g>
</g>
<!-- Node1&#45;&gt;Node6 -->
<g id="edge5_Node000001_Node000006" class="edge">
<title>Node1&#45;&gt;Node6</title>
<g id="a_edge5_Node000001_Node000006"><a xlink:title=" ">
<path fill="none" stroke="#63b8ff" d="M603.62,-44.59C593.98,-43.06 584.19,-41.51 574.75,-40.02"/>
<polygon fill="#63b8ff" stroke="#63b8ff" points="603.18,-48.06 613.6,-46.17 604.27,-41.15 603.18,-48.06"/>
</a>
</g>
</g>
<!-- Node3 -->
<g id="Node000003" class="node">
<title>Node3</title>
<g id="a_Node000003"><a xlink:href="namespacem__initial__condition.html#ae5ca036f43a2eebe1e2cc84fc9c61d28" target="_top" xlink:title="This subroutine peruses the patches and depending on the type of geometry associated with a particula...">
<polygon fill="white" stroke="#666666" points="384.5,-104.26 274.5,-104.26 274.5,-63.26 384.5,-63.26 384.5,-104.26"/>
<text text-anchor="start" x="282.5" y="-92.26" font-family="Helvetica,sans-Serif" font-size="10.00">m_initial_condition</text>
<text text-anchor="start" x="282.5" y="-81.26" font-family="Helvetica,sans-Serif" font-size="10.00">::s_generate_initial</text>
<text text-anchor="middle" x="329.5" y="-70.26" font-family="Helvetica,sans-Serif" font-size="10.00">_condition</text>
</a>
</g>
</g>
<!-- Node2&#45;&gt;Node3 -->
<g id="edge2_Node000002_Node000003" class="edge">
<title>Node2&#45;&gt;Node3</title>
<g id="a_edge2_Node000002_Node000003"><a xlink:title=" ">
<path fill="none" stroke="#63b8ff" d="M429.49,-83.76C414.35,-83.76 398.82,-83.76 384.67,-83.76"/>
<polygon fill="#63b8ff" stroke="#63b8ff" points="429.88,-87.26 439.88,-83.76 429.88,-80.26 429.88,-87.26"/>
</a>
</g>
</g>
<!-- Node4 -->
<g id="Node000004" class="node">
<title>Node4</title>
<g id="a_Node000004"><a xlink:href="namespacem__start__up.html#a513ef24d6c8beafb8b94c015db266100" target="_top" xlink:title=" ">
<polygon fill="white" stroke="#666666" points="211.5,-95.76 96.5,-95.76 96.5,-65.76 211.5,-65.76 211.5,-95.76"/>
<text text-anchor="start" x="104.5" y="-83.76" font-family="Helvetica,sans-Serif" font-size="10.00">m_start_up::s_apply</text>
<text text-anchor="middle" x="154" y="-72.76" font-family="Helvetica,sans-Serif" font-size="10.00">_initial_condition</text>
</a>
</g>
</g>
<!-- Node3&#45;&gt;Node4 -->
<g id="edge3_Node000003_Node000004" class="edge">
<title>Node3&#45;&gt;Node4</title>
<g id="a_edge3_Node000003_Node000004"><a xlink:title=" ">
<path fill="none" stroke="#63b8ff" d="M263.62,-82.64C246.54,-82.35 228.24,-82.03 211.62,-81.74"/>
<polygon fill="#63b8ff" stroke="#63b8ff" points="264.02,-86.15 274.08,-82.82 264.14,-79.15 264.02,-86.15"/>
</a>
</g>
</g>
<!-- Node5 -->
<g id="Node000005" class="node">
<title>Node5</title>
<g id="a_Node000005"><a xlink:href="p__main_8f90.html#aeec10ee8e2940c953967da3e374e1579" target="_top" xlink:title="This program takes care of setting up the initial condition and grid data for the multicomponent flow...">
<polygon fill="white" stroke="#666666" points="53,-63.26 0,-63.26 0,-44.26 53,-44.26 53,-63.26"/>
<text text-anchor="middle" x="26.5" y="-51.26" font-family="Helvetica,sans-Serif" font-size="10.00">p_main</text>
</a>
</g>
</g>
<!-- Node4&#45;&gt;Node5 -->
<g id="edge4_Node000004_Node000005" class="edge">
<title>Node4&#45;&gt;Node5</title>
<g id="a_edge4_Node000004_Node000005"><a xlink:title=" ">
<path fill="none" stroke="#63b8ff" d="M86.55,-66.47C74.73,-63.92 63.08,-61.42 53.29,-59.31"/>
<polygon fill="#63b8ff" stroke="#63b8ff" points="85.98,-69.93 96.49,-68.61 87.45,-63.08 85.98,-69.93"/>
</a>
</g>
</g>
<!-- Node7 -->
<g id="Node000007" class="node">
<title>Node7</title>
<g id="a_Node000007"><a xlink:href="namespacem__data__output.html#a795efa6dc563a04a903c13a960089a58" target="_top" xlink:title="Computation of parameters, allocation procedures, and/or any other tasks needed to properly setup the...">
<polygon fill="white" stroke="#666666" points="404,-44.76 255,-44.76 255,-14.76 404,-14.76 404,-44.76"/>
<text text-anchor="start" x="263" y="-32.76" font-family="Helvetica,sans-Serif" font-size="10.00">m_data_output::s_initialize</text>
<text text-anchor="middle" x="329.5" y="-21.76" font-family="Helvetica,sans-Serif" font-size="10.00">_data_output_module</text>
</a>
</g>
</g>
<!-- Node6&#45;&gt;Node7 -->
<g id="edge6_Node000006_Node000007" class="edge">
<title>Node6&#45;&gt;Node7</title>
<g id="a_edge6_Node000006_Node000007"><a xlink:title=" ">
<path fill="none" stroke="#63b8ff" d="M433.4,-29.76C423.69,-29.76 413.75,-29.76 404.06,-29.76"/>
<polygon fill="#63b8ff" stroke="#63b8ff" points="433.42,-33.26 443.42,-29.76 433.42,-26.26 433.42,-33.26"/>
</a>
</g>
</g>
<!-- Node8 -->
<g id="Node000008" class="node">
<title>Node8</title>
<g id="a_Node000008"><a xlink:href="namespacem__start__up.html#a1fb7a3f9d412acd2a9cbcfe8b45006dd" target="_top" xlink:title=" ">
<polygon fill="white" stroke="#666666" points="219,-44.76 89,-44.76 89,-14.76 219,-14.76 219,-44.76"/>
<text text-anchor="start" x="97" y="-32.76" font-family="Helvetica,sans-Serif" font-size="10.00">m_start_up::s_initialize</text>
<text text-anchor="middle" x="154" y="-21.76" font-family="Helvetica,sans-Serif" font-size="10.00">_modules</text>
</a>
</g>
</g>
<!-- Node6&#45;&gt;Node8 -->
<g id="edge9_Node000006_Node000008" class="edge">
<title>Node6&#45;&gt;Node8</title>
<g id="a_edge9_Node000006_Node000008"><a xlink:title=" ">
<path fill="none" stroke="#63b8ff" d="M443.55,-12.51C430.55,-9.7 416.91,-7.23 404,-5.76 338.2,1.73 320.76,2.02 255,-5.76 239.4,-7.61 222.7,-11.02 207.52,-14.71"/>
<polygon fill="#63b8ff" stroke="#63b8ff" points="442.83,-15.93 453.35,-14.71 444.36,-9.1 442.83,-15.93"/>
</a>
</g>
</g>
<!-- Node7&#45;&gt;Node8 -->
<g id="edge7_Node000007_Node000008" class="edge">
<title>Node7&#45;&gt;Node8</title>
<g id="a_edge7_Node000007_Node000008"><a xlink:title=" ">
<path fill="none" stroke="#63b8ff" d="M244.81,-29.76C236.16,-29.76 227.47,-29.76 219.09,-29.76"/>
<polygon fill="#63b8ff" stroke="#63b8ff" points="244.92,-33.26 254.92,-29.76 244.92,-26.26 244.92,-33.26"/>
</a>
</g>
</g>
<!-- Node8&#45;&gt;Node5 -->
<g id="edge8_Node000008_Node000005" class="edge">
<title>Node8&#45;&gt;Node5</title>
<g id="a_edge8_Node000008_Node000005"><a xlink:title=" ">
<path fill="none" stroke="#63b8ff" d="M78.74,-43.96C69.58,-45.72 60.76,-47.4 53.09,-48.87"/>
<polygon fill="#63b8ff" stroke="#63b8ff" points="79.61,-47.36 88.78,-42.05 78.3,-40.49 79.61,-47.36"/>
</a>
</g>
</g>
</g>
</svg>
