<?xml version="1.0" encoding="UTF-8" standalone="no"?>
<!DOCTYPE svg PUBLIC "-//W3C//DTD SVG 1.1//EN"
 "http://www.w3.org/Graphics/SVG/1.1/DTD/svg11.dtd">
<!-- Generated by graphviz version 2.43.0 (0)
 -->
<!-- Title: m_compile_specific::s_create_directory Pages: 1 -->
<!--zoomable 241 -->

<svg id="main" version="1.1" xmlns="http://www.w3.org/2000/svg" xmlns:xlink="http://www.w3.org/1999/xlink" xml:space="preserve" onload="init(evt)">

<style type="text/css"><![CDATA[
.node, .edge {opacity: 0.7;}
.node.selected, .edge.selected {opacity: 1;}
.edge:hover path { stroke: red; }
.edge:hover polygon { stroke: red; fill: red; }
]]></style>

<defs>
  <circle id="rim" cx="0" cy="0" r="7"/>
  <circle id="rim2" cx="0" cy="0" r="3.5"/>
  <g id="zoomPlus">
    <use xlink:href="#rim" fill="#404040"><set attributeName="fill" to="#808080" begin="zoomplus.mouseover" end="zoomplus.mouseout"/></use>
    <path d="M-4,0h8M0,-4v8" fill="none" stroke="white" stroke-width="1.5" pointer-events="none"/>
  </g>
  <g id="zoomMin">
    <use xlink:href="#rim" fill="#404040"><set attributeName="fill" to="#808080" begin="zoomminus.mouseover" end="zoomminus.mouseout"/></use>
    <path d="M-4,0h8" fill="none" stroke="white" stroke-width="1.5" pointer-events="none"/>
  </g>
  <g id="arrowUp" transform="translate(30 24)">
    <use xlink:href="#rim"/>
    <path pointer-events="none" fill="none" stroke="white" stroke-width="1.5" d="M0,-3.0v7 M-2.5,-0.5L0,-3.0L2.5,-0.5"/>
  </g>
  <g id="arrowRight" transform="rotate(90) translate(36 -43)">
    <use xlink:href="#rim"/>
    <path pointer-events="none" fill="none" stroke="white" stroke-width="1.5" d="M0,-3.0v7 M-2.5,-0.5L0,-3.0L2.5,-0.5"/>
  </g>
  <g id="arrowDown" transform="rotate(180) translate(-30 -48)">
    <use xlink:href="#rim"/>
    <path pointer-events="none" fill="none" stroke="white" stroke-width="1.5" d="M0,-3.0v7 M-2.5,-0.5L0,-3.0L2.5,-0.5"/>
  </g>
  <g id="arrowLeft" transform="rotate(270) translate(-36 17)">
    <use xlink:href="#rim"/>
    <path pointer-events="none" fill="none" stroke="white" stroke-width="1.5" d="M0,-3.0v7 M-2.5,-0.5L0,-3.0L2.5,-0.5"/>
  </g>
  <g id="resetDef">
    <use xlink:href="#rim2" fill="#404040"><set attributeName="fill" to="#808080" begin="reset.mouseover" end="reset.mouseout"/></use>
  </g>
</defs>
<script type="application/ecmascript">
var viewWidth = 728;
var viewHeight = 241;
var sectionId = 'dynsection-1';
</script>
<script type="application/ecmascript" xlink:href="svg.min.js"/>
<svg id="graph" class="graph">
<g id="viewport">
<title>m_compile_specific::s_create_directory</title>
<!-- Node1 -->
<g id="Node000001" class="node">
<title>Node1</title>
<g id="a_Node000001"><a xlink:title="Creates a directory and all its parents if it does not exist.">
<polygon fill="#999999" stroke="#666666" points="720,-137 607,-137 607,-107 720,-107 720,-137"/>
<text text-anchor="start" x="615" y="-125" font-family="Helvetica,sans-Serif" font-size="10.00">m_compile_specific</text>
<text text-anchor="middle" x="663.5" y="-114" font-family="Helvetica,sans-Serif" font-size="10.00">::s_create_directory</text>
</a>
</g>
</g>
<!-- Node2 -->
<g id="Node000002" class="node">
<title>Node2</title>
<g id="a_Node000002"><a xlink:href="namespacem__data__output.html#a795efa6dc563a04a903c13a960089a58" target="_top" xlink:title="Computation of parameters, allocation procedures, and/or any other tasks needed to properly setup the...">
<polygon fill="white" stroke="#666666" points="404,-73 255,-73 255,-43 404,-43 404,-73"/>
<text text-anchor="start" x="263" y="-61" font-family="Helvetica,sans-Serif" font-size="10.00">m_data_output::s_initialize</text>
<text text-anchor="middle" x="329.5" y="-50" font-family="Helvetica,sans-Serif" font-size="10.00">_data_output_module</text>
</a>
</g>
</g>
<!-- Node1&#45;&gt;Node2 -->
<g id="edge1_Node000001_Node000002" class="edge">
<title>Node1&#45;&gt;Node2</title>
<g id="a_edge1_Node000001_Node000002"><a xlink:title=" ">
<path fill="none" stroke="#63b8ff" d="M629.37,-101.92C612.5,-92.69 591.31,-82.58 571,-77 516.37,-62 452.34,-57.55 404.08,-56.68"/>
<polygon fill="#63b8ff" stroke="#63b8ff" points="627.84,-105.07 638.27,-106.92 631.27,-98.96 627.84,-105.07"/>
</a>
</g>
</g>
<!-- Node3 -->
<g id="Node000003" class="node">
<title>Node3</title>
<g id="a_Node000003"><a xlink:href="namespacem__start__up.html#a1fb7a3f9d412acd2a9cbcfe8b45006dd" target="_top" xlink:title=" ">
<polygon fill="white" stroke="#666666" points="219,-137 89,-137 89,-107 219,-107 219,-137"/>
<text text-anchor="start" x="97" y="-125" font-family="Helvetica,sans-Serif" font-size="10.00">m_start_up::s_initialize</text>
<text text-anchor="middle" x="154" y="-114" font-family="Helvetica,sans-Serif" font-size="10.00">_modules</text>
</a>
</g>
</g>
<!-- Node1&#45;&gt;Node3 -->
<g id="edge4_Node000001_Node000003" class="edge">
<title>Node1&#45;&gt;Node3</title>
<g id="a_edge4_Node000001_Node000003"><a xlink:title=" ">
<path fill="none" stroke="#63b8ff" d="M629.92,-142.38C559.51,-183.67 388.72,-268.98 255,-216 214.68,-200.03 181.15,-159.25 165.13,-137.02"/>
<polygon fill="#63b8ff" stroke="#63b8ff" points="631.98,-145.22 638.78,-137.1 628.4,-139.21 631.98,-145.22"/>
</a>
</g>
</g>
<!-- Node5 -->
<g id="Node000005" class="node">
<title>Node5</title>
<g id="a_Node000005"><a xlink:href="namespacem__start__up.html#a6a43c0e78ce8e3a0c1b636affd6ee2a0" target="_top" xlink:title="The goal of this subroutine is to read in any preexisting grid data as well as based on the imported ...">
<polygon fill="white" stroke="#666666" points="392,-207 267,-207 267,-177 392,-177 392,-207"/>
<text text-anchor="start" x="275" y="-195" font-family="Helvetica,sans-Serif" font-size="10.00">m_start_up::s_read</text>
<text text-anchor="middle" x="329.5" y="-184" font-family="Helvetica,sans-Serif" font-size="10.00">_serial_grid_data_files</text>
</a>
</g>
</g>
<!-- Node1&#45;&gt;Node5 -->
<g id="edge5_Node000001_Node000005" class="edge">
<title>Node1&#45;&gt;Node5</title>
<g id="a_edge5_Node000001_Node000005"><a xlink:title=" ">
<path fill="none" stroke="#63b8ff" d="M597.54,-139.62C588.64,-141.86 579.61,-144.05 571,-146 510.47,-159.71 440.76,-172.74 392.02,-181.41"/>
<polygon fill="#63b8ff" stroke="#63b8ff" points="598.67,-142.94 607.49,-137.07 596.93,-136.16 598.67,-142.94"/>
</a>
</g>
</g>
<!-- Node6 -->
<g id="Node000006" class="node">
<title>Node6</title>
<g id="a_Node000006"><a xlink:href="namespacem__start__up.html#a281fc9103a900ed7b036d08899a16e69" target="_top" xlink:title="The goal of this subroutine is to read in any preexisting initial condition data files so that they m...">
<polygon fill="white" stroke="#666666" points="387,-159 272,-159 272,-129 387,-129 387,-159"/>
<text text-anchor="start" x="280" y="-147" font-family="Helvetica,sans-Serif" font-size="10.00">m_start_up::s_read</text>
<text text-anchor="middle" x="329.5" y="-136" font-family="Helvetica,sans-Serif" font-size="10.00">_serial_ic_data_files</text>
</a>
</g>
</g>
<!-- Node1&#45;&gt;Node6 -->
<g id="edge7_Node000001_Node000006" class="edge">
<title>Node1&#45;&gt;Node6</title>
<g id="a_edge7_Node000001_Node000006"><a xlink:title=" ">
<path fill="none" stroke="#63b8ff" d="M596.61,-126.37C535.37,-130.42 445.14,-136.4 387.08,-140.25"/>
<polygon fill="#63b8ff" stroke="#63b8ff" points="597.18,-129.84 606.93,-125.68 596.72,-122.85 597.18,-129.84"/>
</a>
</g>
</g>
<!-- Node7 -->
<g id="Node000007" class="node">
<title>Node7</title>
<g id="a_Node000007"><a xlink:href="namespacem__data__output.html#a5553a586765788ee6dcce99679a82f35" target="_top" xlink:title="Writes grid and initial condition data files in parallel to the &quot;0&quot; time&#45;step directory in the local ...">
<polygon fill="white" stroke="#666666" points="571,-116 440,-116 440,-86 571,-86 571,-116"/>
<text text-anchor="start" x="448" y="-104" font-family="Helvetica,sans-Serif" font-size="10.00">m_data_output::s_write</text>
<text text-anchor="middle" x="505.5" y="-93" font-family="Helvetica,sans-Serif" font-size="10.00">_parallel_data_files</text>
</a>
</g>
</g>
<!-- Node1&#45;&gt;Node7 -->
<g id="edge9_Node000001_Node000007" class="edge">
<title>Node1&#45;&gt;Node7</title>
<g id="a_edge9_Node000001_Node000007"><a xlink:title=" ">
<path fill="none" stroke="#63b8ff" d="M596.46,-113.11C588.04,-111.98 579.42,-110.82 571.02,-109.69"/>
<polygon fill="#63b8ff" stroke="#63b8ff" points="596.24,-116.61 606.62,-114.48 597.18,-109.67 596.24,-116.61"/>
</a>
</g>
</g>
<!-- Node8 -->
<g id="Node000008" class="node">
<title>Node8</title>
<g id="a_Node000008"><a xlink:href="namespacem__data__output.html#a3592c85a5b5a76ff5035209211ad7cf7" target="_top" xlink:title="Writes grid and initial condition data files to the &quot;0&quot; time&#45;step directory in the local processor ra...">
<polygon fill="white" stroke="#666666" points="571,-30 440,-30 440,0 571,0 571,-30"/>
<text text-anchor="start" x="448" y="-18" font-family="Helvetica,sans-Serif" font-size="10.00">m_data_output::s_write</text>
<text text-anchor="middle" x="505.5" y="-7" font-family="Helvetica,sans-Serif" font-size="10.00">_serial_data_files</text>
</a>
</g>
</g>
<!-- Node1&#45;&gt;Node8 -->
<g id="edge12_Node000001_Node000008" class="edge">
<title>Node1&#45;&gt;Node8</title>
<g id="a_edge12_Node000001_Node000008"><a xlink:title=" ">
<path fill="none" stroke="#63b8ff" d="M639.85,-99.49C622.16,-82.73 596.39,-60.07 571,-44 562.91,-38.88 553.76,-34.19 544.95,-30.14"/>
<polygon fill="#63b8ff" stroke="#63b8ff" points="637.75,-102.32 647.38,-106.73 642.6,-97.27 637.75,-102.32"/>
</a>
</g>
</g>
<!-- Node2&#45;&gt;Node3 -->
<g id="edge2_Node000002_Node000003" class="edge">
<title>Node2&#45;&gt;Node3</title>
<g id="a_edge2_Node000002_Node000003"><a xlink:title=" ">
<path fill="none" stroke="#63b8ff" d="M278.42,-76.47C252.18,-86.15 220.44,-97.86 195.72,-106.98"/>
<polygon fill="#63b8ff" stroke="#63b8ff" points="279.65,-79.75 287.82,-73.01 277.23,-73.18 279.65,-79.75"/>
</a>
</g>
</g>
<!-- Node4 -->
<g id="Node000004" class="node">
<title>Node4</title>
<g id="a_Node000004"><a xlink:href="p__main_8f90.html#aeec10ee8e2940c953967da3e374e1579" target="_top" xlink:title="This program takes care of setting up the initial condition and grid data for the multicomponent flow...">
<polygon fill="white" stroke="#666666" points="53,-131.5 0,-131.5 0,-112.5 53,-112.5 53,-131.5"/>
<text text-anchor="middle" x="26.5" y="-119.5" font-family="Helvetica,sans-Serif" font-size="10.00">p_main</text>
</a>
</g>
</g>
<!-- Node3&#45;&gt;Node4 -->
<g id="edge3_Node000003_Node000004" class="edge">
<title>Node3&#45;&gt;Node4</title>
<g id="a_edge3_Node000003_Node000004"><a xlink:title=" ">
<path fill="none" stroke="#63b8ff" d="M78.74,-122C69.58,-122 60.76,-122 53.09,-122"/>
<polygon fill="#63b8ff" stroke="#63b8ff" points="78.78,-125.5 88.78,-122 78.78,-118.5 78.78,-125.5"/>
</a>
</g>
</g>
<!-- Node5&#45;&gt;Node3 -->
<g id="edge6_Node000005_Node000003" class="edge">
<title>Node5&#45;&gt;Node3</title>
<g id="a_edge6_Node000005_Node000003"><a xlink:title=" ">
<path fill="none" stroke="#63b8ff" d="M269.86,-173.53C264.81,-171.74 259.8,-169.88 255,-168 231.16,-158.66 204.88,-146.49 185.24,-137.02"/>
<polygon fill="#63b8ff" stroke="#63b8ff" points="268.99,-176.93 279.59,-176.9 271.29,-170.32 268.99,-176.93"/>
</a>
</g>
</g>
<!-- Node6&#45;&gt;Node3 -->
<g id="edge8_Node000006_Node000003" class="edge">
<title>Node6&#45;&gt;Node3</title>
<g id="a_edge8_Node000006_Node000003"><a xlink:title=" ">
<path fill="none" stroke="#63b8ff" d="M261.67,-135.53C247.71,-133.76 233.02,-131.89 219.15,-130.13"/>
<polygon fill="#63b8ff" stroke="#63b8ff" points="261.33,-139.01 271.69,-136.8 262.21,-132.07 261.33,-139.01"/>
</a>
</g>
</g>
<!-- Node7&#45;&gt;Node2 -->
<g id="edge10_Node000007_Node000002" class="edge">
<title>Node7&#45;&gt;Node2</title>
<g id="a_edge10_Node000007_Node000002"><a xlink:title=" ">
<path fill="none" stroke="#63b8ff" d="M433.56,-83.47C419.55,-80.01 404.96,-76.4 391.32,-73.03"/>
<polygon fill="#63b8ff" stroke="#63b8ff" points="433.1,-86.96 443.64,-85.96 434.77,-80.16 433.1,-86.96"/>
</a>
</g>
</g>
<!-- Node7&#45;&gt;Node3 -->
<g id="edge11_Node000007_Node000003" class="edge">
<title>Node7&#45;&gt;Node3</title>
<g id="a_edge11_Node000007_Node000003"><a xlink:title=" ">
<path fill="none" stroke="#63b8ff" d="M429.78,-105.49C367.13,-109.25 278.61,-114.57 219.13,-118.15"/>
<polygon fill="#63b8ff" stroke="#63b8ff" points="430.22,-108.97 439.99,-104.88 429.8,-101.98 430.22,-108.97"/>
</a>
</g>
</g>
<!-- Node8&#45;&gt;Node2 -->
<g id="edge13_Node000008_Node000002" class="edge">
<title>Node8&#45;&gt;Node2</title>
<g id="a_edge13_Node000008_Node000002"><a xlink:title=" ">
<path fill="none" stroke="#63b8ff" d="M433.56,-32.53C419.55,-35.99 404.96,-39.6 391.32,-42.97"/>
<polygon fill="#63b8ff" stroke="#63b8ff" points="434.77,-35.84 443.64,-30.04 433.1,-29.04 434.77,-35.84"/>
</a>
</g>
</g>
<!-- Node8&#45;&gt;Node3 -->
<g id="edge14_Node000008_Node000003" class="edge">
<title>Node8&#45;&gt;Node3</title>
<g id="a_edge14_Node000008_Node000003"><a xlink:title=" ">
<path fill="none" stroke="#63b8ff" d="M429.86,-8.56C378.71,-7 310.36,-10.67 255,-34 217.07,-49.99 183.54,-86.29 166.63,-106.92"/>
<polygon fill="#63b8ff" stroke="#63b8ff" points="429.73,-12.06 439.86,-8.94 430,-5.06 429.73,-12.06"/>
</a>
</g>
</g>
</g>
</svg>

<g id="navigator" transform="translate(0 0)" fill="#404254">
  <rect fill="#f2f5e9" fill-opacity="0.5" stroke="#606060" stroke-width=".5" x="0" y="0" width="60" height="60"/>
  <use id="zoomplus" xlink:href="#zoomPlus" x="17" y="9" onmousedown="handleZoom(evt,'in')"/>
  <use id="zoomminus" xlink:href="#zoomMin" x="42" y="9" onmousedown="handleZoom(evt,'out')"/>
  <use id="reset" xlink:href="#resetDef" x="30" y="36" onmousedown="handleReset()"/>
   <use id="arrowup" xlink:href="#arrowUp" x="0" y="0" onmousedown="handlePan(0,-1)"/>
  <use id="arrowright" xlink:href="#arrowRight" x="0" y="0" onmousedown="handlePan(1,0)"/>
  <use id="arrowdown" xlink:href="#arrowDown" x="0" y="0" onmousedown="handlePan(0,1)"/>
  <use id="arrowleft" xlink:href="#arrowLeft" x="0" y="0" onmousedown="handlePan(-1,0)"/>
</g>
<svg viewBox="0 0 15 15" width="100%" height="30px" preserveAspectRatio="xMaxYMin meet">
 <g id="arrow_out" transform="scale(0.3 0.3)">
  <a xlink:href="namespacem__compile__specific_aa1b4e12a20e09147a215c3b5018484b0_icgraph_org.svg" target="_base">
   <rect id="button" ry="5" rx="5" y="6" x="6" height="38" width="38"
        fill="#f2f5e9" fill-opacity="0.5" stroke="#606060" stroke-width="1.0"/>
   <path id="arrow"
     d="M 11.500037,31.436501 C 11.940474,20.09759 22.043105,11.32322 32.158766,21.979434 L 37.068811,17.246167 C 37.068811,17.246167 37.088388,32 37.088388,32 L 22.160133,31.978069 C 22.160133,31.978069 26.997745,27.140456 26.997745,27.140456 C 18.528582,18.264221 13.291696,25.230495 11.500037,31.436501 z"
     style="fill:#404040;"/>
  </a>
 </g>
</svg>

<style type='text/css'>
<![CDATA[
[data-mouse-over-selected='false'] { opacity: 0.7; }
[data-mouse-over-selected='true']  { opacity: 1.0; }
]]>
</style>
<script type="application/ecmascript"><![CDATA[
document.addEventListener('DOMContentLoaded', (event) => {
  highlightEdges();
  highlightAdjacentNodes();
});
]]></script>
</svg>
