<?xml version="1.0" encoding="UTF-8" standalone="no"?>
<!DOCTYPE svg PUBLIC "-//W3C//DTD SVG 1.1//EN"
 "http://www.w3.org/Graphics/SVG/1.1/DTD/svg11.dtd">
<!-- Generated by graphviz version 2.43.0 (0)
 -->
<!-- Title: m_start_up::s_finalize_modules Pages: 1 -->
<!--zoomable 469 -->

<svg id="main" version="1.1" xmlns="http://www.w3.org/2000/svg" xmlns:xlink="http://www.w3.org/1999/xlink" xml:space="preserve" onload="init(evt)">

<style type="text/css"><![CDATA[
.node, .edge {opacity: 0.7;}
.node.selected, .edge.selected {opacity: 1;}
.edge:hover path { stroke: red; }
.edge:hover polygon { stroke: red; fill: red; }
]]></style>

<defs>
  <circle id="rim" cx="0" cy="0" r="7"/>
  <circle id="rim2" cx="0" cy="0" r="3.5"/>
  <g id="zoomPlus">
    <use xlink:href="#rim" fill="#404040"><set attributeName="fill" to="#808080" begin="zoomplus.mouseover" end="zoomplus.mouseout"/></use>
    <path d="M-4,0h8M0,-4v8" fill="none" stroke="white" stroke-width="1.5" pointer-events="none"/>
  </g>
  <g id="zoomMin">
    <use xlink:href="#rim" fill="#404040"><set attributeName="fill" to="#808080" begin="zoomminus.mouseover" end="zoomminus.mouseout"/></use>
    <path d="M-4,0h8" fill="none" stroke="white" stroke-width="1.5" pointer-events="none"/>
  </g>
  <g id="arrowUp" transform="translate(30 24)">
    <use xlink:href="#rim"/>
    <path pointer-events="none" fill="none" stroke="white" stroke-width="1.5" d="M0,-3.0v7 M-2.5,-0.5L0,-3.0L2.5,-0.5"/>
  </g>
  <g id="arrowRight" transform="rotate(90) translate(36 -43)">
    <use xlink:href="#rim"/>
    <path pointer-events="none" fill="none" stroke="white" stroke-width="1.5" d="M0,-3.0v7 M-2.5,-0.5L0,-3.0L2.5,-0.5"/>
  </g>
  <g id="arrowDown" transform="rotate(180) translate(-30 -48)">
    <use xlink:href="#rim"/>
    <path pointer-events="none" fill="none" stroke="white" stroke-width="1.5" d="M0,-3.0v7 M-2.5,-0.5L0,-3.0L2.5,-0.5"/>
  </g>
  <g id="arrowLeft" transform="rotate(270) translate(-36 17)">
    <use xlink:href="#rim"/>
    <path pointer-events="none" fill="none" stroke="white" stroke-width="1.5" d="M0,-3.0v7 M-2.5,-0.5L0,-3.0L2.5,-0.5"/>
  </g>
  <g id="resetDef">
    <use xlink:href="#rim2" fill="#404040"><set attributeName="fill" to="#808080" begin="reset.mouseover" end="reset.mouseout"/></use>
  </g>
</defs>
<script type="application/ecmascript">
var viewWidth = 320;
var viewHeight = 469;
var sectionId = 'dynsection-6';
</script>
<script type="application/ecmascript" xlink:href="svg.min.js"/>
<svg id="graph" class="graph">
<g id="viewport">
<title>m_start_up::s_finalize_modules</title>
<!-- Node1 -->
<g id="Node000001" class="node">
<title>Node1</title>
<g id="a_Node000001"><a xlink:title=" ">
<polygon fill="#999999" stroke="#666666" points="123,-234 0,-234 0,-204 123,-204 123,-234"/>
<text text-anchor="start" x="8" y="-222" font-family="Helvetica,sans-Serif" font-size="10.00">m_start_up::s_finalize</text>
<text text-anchor="middle" x="61.5" y="-211" font-family="Helvetica,sans-Serif" font-size="10.00">_modules</text>
</a>
</g>
</g>
<!-- Node2 -->
<g id="Node000002" class="node">
<title>Node2</title>
<g id="a_Node000002"><a xlink:href="namespacem__assign__variables.html#aa9c8aba5d1e49f2b453f8050c0d46b43" target="_top" xlink:title=" ">
<polygon fill="white" stroke="#666666" points="292,-460.5 179,-460.5 179,-419.5 292,-419.5 292,-460.5"/>
<text text-anchor="start" x="187" y="-448.5" font-family="Helvetica,sans-Serif" font-size="10.00">m_assign_variables</text>
<text text-anchor="start" x="187" y="-437.5" font-family="Helvetica,sans-Serif" font-size="10.00">::s_finalize_assign</text>
<text text-anchor="middle" x="235.5" y="-426.5" font-family="Helvetica,sans-Serif" font-size="10.00">_variables_module</text>
</a>
</g>
</g>
<!-- Node1&#45;&gt;Node2 -->
<g id="edge1_Node000001_Node000002" class="edge">
<title>Node1&#45;&gt;Node2</title>
<g id="a_edge1_Node000001_Node000002"><a xlink:title=" ">
<path fill="none" stroke="#63b8ff" d="M66.05,-234.01C75.21,-269.67 103,-360.29 159,-411 162.37,-414.05 166.09,-416.79 170.03,-419.26"/>
<polygon fill="#63b8ff" stroke="#63b8ff" points="168.49,-422.41 178.93,-424.22 171.9,-416.29 168.49,-422.41"/>
</a>
</g>
</g>
<!-- Node3 -->
<g id="Node000003" class="node">
<title>Node3</title>
<g id="a_Node000003"><a xlink:href="namespacem__boundary__common.html#a69dbc2d02c7be259c30ea62e603f9f4b" target="_top" xlink:title=" ">
<polygon fill="white" stroke="#666666" points="301,-401.5 170,-401.5 170,-360.5 301,-360.5 301,-401.5"/>
<text text-anchor="start" x="178" y="-389.5" font-family="Helvetica,sans-Serif" font-size="10.00">m_boundary_common::</text>
<text text-anchor="start" x="178" y="-378.5" font-family="Helvetica,sans-Serif" font-size="10.00">s_finalize_boundary</text>
<text text-anchor="middle" x="235.5" y="-367.5" font-family="Helvetica,sans-Serif" font-size="10.00">_common_module</text>
</a>
</g>
</g>
<!-- Node1&#45;&gt;Node3 -->
<g id="edge2_Node000001_Node000003" class="edge">
<title>Node1&#45;&gt;Node3</title>
<g id="a_edge2_Node000001_Node000003"><a xlink:title=" ">
<path fill="none" stroke="#63b8ff" d="M69.93,-234.21C83.85,-261.26 116.35,-317.98 159,-351 160.81,-352.4 162.7,-353.75 164.64,-355.04"/>
<polygon fill="#63b8ff" stroke="#63b8ff" points="163.11,-358.2 173.48,-360.35 166.71,-352.2 163.11,-358.2"/>
</a>
</g>
</g>
<!-- Node4 -->
<g id="Node000004" class="node">
<title>Node4</title>
<g id="a_Node000004"><a xlink:href="namespacem__data__output.html#a81d3138233e0f1a797c930dbf9543d71" target="_top" xlink:title="Resets s_write_data_files pointer.">
<polygon fill="white" stroke="#666666" points="306.5,-342 164.5,-342 164.5,-312 306.5,-312 306.5,-342"/>
<text text-anchor="start" x="172.5" y="-330" font-family="Helvetica,sans-Serif" font-size="10.00">m_data_output::s_finalize</text>
<text text-anchor="middle" x="235.5" y="-319" font-family="Helvetica,sans-Serif" font-size="10.00">_data_output_module</text>
</a>
</g>
</g>
<!-- Node1&#45;&gt;Node4 -->
<g id="edge3_Node000001_Node000004" class="edge">
<title>Node1&#45;&gt;Node4</title>
<g id="a_edge3_Node000001_Node000004"><a xlink:title=" ">
<path fill="none" stroke="#63b8ff" d="M76.09,-234.15C93.58,-252.8 125.7,-284.28 159,-303 162.18,-304.79 165.52,-306.47 168.94,-308.03"/>
<polygon fill="#63b8ff" stroke="#63b8ff" points="167.59,-311.26 178.16,-311.93 170.32,-304.81 167.59,-311.26"/>
</a>
</g>
</g>
<!-- Node5 -->
<g id="Node000005" class="node">
<title>Node5</title>
<g id="a_Node000005"><a xlink:href="namespacem__global__parameters.html#a16ad4c64940e4b092652f3c1c6df76c7" target="_top" xlink:title=" ">
<polygon fill="white" stroke="#666666" points="297,-293.5 174,-293.5 174,-252.5 297,-252.5 297,-293.5"/>
<text text-anchor="start" x="182" y="-281.5" font-family="Helvetica,sans-Serif" font-size="10.00">m_global_parameters</text>
<text text-anchor="start" x="182" y="-270.5" font-family="Helvetica,sans-Serif" font-size="10.00">::s_finalize_global</text>
<text text-anchor="middle" x="235.5" y="-259.5" font-family="Helvetica,sans-Serif" font-size="10.00">_parameters_module</text>
</a>
</g>
</g>
<!-- Node1&#45;&gt;Node5 -->
<g id="edge4_Node000001_Node000005" class="edge">
<title>Node1&#45;&gt;Node5</title>
<g id="a_edge4_Node000001_Node000005"><a xlink:title=" ">
<path fill="none" stroke="#63b8ff" d="M110.41,-234.04C127.09,-239.28 146.17,-245.27 164.29,-250.96"/>
<polygon fill="#63b8ff" stroke="#63b8ff" points="163.35,-254.33 173.94,-253.99 165.45,-247.65 163.35,-254.33"/>
</a>
</g>
</g>
<!-- Node6 -->
<g id="Node000006" class="node">
<title>Node6</title>
<g id="a_Node000006"><a xlink:href="namespacem__grid.html#ac394c807c3d16efb7f06b0e14d3d6329" target="_top" xlink:title="Deallocation procedures for the module.">
<polygon fill="white" stroke="#666666" points="286.5,-234 184.5,-234 184.5,-204 286.5,-204 286.5,-234"/>
<text text-anchor="start" x="192.5" y="-222" font-family="Helvetica,sans-Serif" font-size="10.00">m_grid::s_finalize</text>
<text text-anchor="middle" x="235.5" y="-211" font-family="Helvetica,sans-Serif" font-size="10.00">_grid_module</text>
</a>
</g>
</g>
<!-- Node1&#45;&gt;Node6 -->
<g id="edge5_Node000001_Node000006" class="edge">
<title>Node1&#45;&gt;Node6</title>
<g id="a_edge5_Node000001_Node000006"><a xlink:title=" ">
<path fill="none" stroke="#63b8ff" d="M123.14,-219C139.72,-219 157.68,-219 174.24,-219"/>
<polygon fill="#63b8ff" stroke="#63b8ff" points="174.34,-222.5 184.34,-219 174.34,-215.5 174.34,-222.5"/>
</a>
</g>
</g>
<!-- Node7 -->
<g id="Node000007" class="node">
<title>Node7</title>
<g id="a_Node000007"><a xlink:href="namespacem__mpi__common.html#ab9e557649b1fca986ee793073abae4d4" target="_top" xlink:title="Module deallocation and/or disassociation procedures.">
<polygon fill="white" stroke="#666666" points="310.5,-186 160.5,-186 160.5,-156 310.5,-156 310.5,-186"/>
<text text-anchor="start" x="168.5" y="-174" font-family="Helvetica,sans-Serif" font-size="10.00">m_mpi_common::s_finalize</text>
<text text-anchor="middle" x="235.5" y="-163" font-family="Helvetica,sans-Serif" font-size="10.00">_mpi_common_module</text>
</a>
</g>
</g>
<!-- Node1&#45;&gt;Node7 -->
<g id="edge6_Node000001_Node000007" class="edge">
<title>Node1&#45;&gt;Node7</title>
<g id="a_edge6_Node000001_Node000007"><a xlink:title=" ">
<path fill="none" stroke="#63b8ff" d="M116.45,-203.94C133.74,-199.12 153.05,-193.73 170.96,-188.73"/>
<polygon fill="#63b8ff" stroke="#63b8ff" points="172.05,-192.06 180.74,-186 170.17,-185.32 172.05,-192.06"/>
</a>
</g>
</g>
<!-- Node8 -->
<g id="Node000008" class="node">
<title>Node8</title>
<g id="a_Node000008"><a xlink:href="namespacem__phase__change.html#a14dd0bb1de0c3205491af730be9405f9" target="_top" xlink:title="This subroutine finalizes the phase change module.">
<polygon fill="white" stroke="#666666" points="312,-138 159,-138 159,-108 312,-108 312,-138"/>
<text text-anchor="start" x="167" y="-126" font-family="Helvetica,sans-Serif" font-size="10.00">m_phase_change::s_finalize</text>
<text text-anchor="middle" x="235.5" y="-115" font-family="Helvetica,sans-Serif" font-size="10.00">_relaxation_solver_module</text>
</a>
</g>
</g>
<!-- Node1&#45;&gt;Node8 -->
<g id="edge7_Node000001_Node000008" class="edge">
<title>Node1&#45;&gt;Node8</title>
<g id="a_edge7_Node000001_Node000008"><a xlink:title=" ">
<path fill="none" stroke="#63b8ff" d="M79.12,-203.85C97.48,-187.8 128.5,-162.66 159,-147 162.55,-145.18 166.26,-143.46 170.05,-141.85"/>
<polygon fill="#63b8ff" stroke="#63b8ff" points="171.6,-145 179.6,-138.06 169.02,-138.5 171.6,-145"/>
</a>
</g>
</g>
<!-- Node9 -->
<g id="Node000009" class="node">
<title>Node9</title>
<g id="a_Node000009"><a xlink:href="namespacem__variables__conversion.html#aceaf9a1f34881d42e50dca63cbde506b" target="_top" xlink:title=" ">
<polygon fill="white" stroke="#666666" points="303,-89.5 168,-89.5 168,-48.5 303,-48.5 303,-89.5"/>
<text text-anchor="start" x="176" y="-77.5" font-family="Helvetica,sans-Serif" font-size="10.00">m_variables_conversion</text>
<text text-anchor="start" x="176" y="-66.5" font-family="Helvetica,sans-Serif" font-size="10.00">::s_finalize_variables</text>
<text text-anchor="middle" x="235.5" y="-55.5" font-family="Helvetica,sans-Serif" font-size="10.00">_conversion_module</text>
</a>
</g>
</g>
<!-- Node1&#45;&gt;Node9 -->
<g id="edge8_Node000001_Node000009" class="edge">
<title>Node1&#45;&gt;Node9</title>
<g id="a_edge8_Node000001_Node000009"><a xlink:title=" ">
<path fill="none" stroke="#63b8ff" d="M71.23,-203.61C86.18,-178.5 118.99,-128.53 159,-99 161.04,-97.5 163.16,-96.06 165.34,-94.68"/>
<polygon fill="#63b8ff" stroke="#63b8ff" points="167.12,-97.7 174.03,-89.67 163.62,-91.63 167.12,-97.7"/>
</a>
</g>
</g>
<!-- Node10 -->
<g id="Node000010" class="node">
<title>Node10</title>
<g id="a_Node000010"><a xlink:href="namespacem__mpi__common.html#a50d271a607262a2f55d7a00f7e692e38" target="_top" xlink:title="The subroutine finalizes the MPI execution environment.">
<polygon fill="white" stroke="#666666" points="302.5,-30 168.5,-30 168.5,0 302.5,0 302.5,-30"/>
<text text-anchor="start" x="176.5" y="-18" font-family="Helvetica,sans-Serif" font-size="10.00">m_mpi_common::s_mpi</text>
<text text-anchor="middle" x="235.5" y="-7" font-family="Helvetica,sans-Serif" font-size="10.00">_finalize</text>
</a>
</g>
</g>
<!-- Node1&#45;&gt;Node10 -->
<g id="edge9_Node000001_Node000010" class="edge">
<title>Node1&#45;&gt;Node10</title>
<g id="a_edge9_Node000001_Node000010"><a xlink:title=" ">
<path fill="none" stroke="#63b8ff" d="M66.49,-203.82C76.29,-169.53 104.77,-85.5 159,-40 161.04,-38.29 163.19,-36.7 165.44,-35.21"/>
<polygon fill="#63b8ff" stroke="#63b8ff" points="167.58,-38.02 174.5,-30 164.09,-31.96 167.58,-38.02"/>
</a>
</g>
</g>
</g>
</svg>

<g id="navigator" transform="translate(0 0)" fill="#404254">
  <rect fill="#f2f5e9" fill-opacity="0.5" stroke="#606060" stroke-width=".5" x="0" y="0" width="60" height="60"/>
  <use id="zoomplus" xlink:href="#zoomPlus" x="17" y="9" onmousedown="handleZoom(evt,'in')"/>
  <use id="zoomminus" xlink:href="#zoomMin" x="42" y="9" onmousedown="handleZoom(evt,'out')"/>
  <use id="reset" xlink:href="#resetDef" x="30" y="36" onmousedown="handleReset()"/>
   <use id="arrowup" xlink:href="#arrowUp" x="0" y="0" onmousedown="handlePan(0,-1)"/>
  <use id="arrowright" xlink:href="#arrowRight" x="0" y="0" onmousedown="handlePan(1,0)"/>
  <use id="arrowdown" xlink:href="#arrowDown" x="0" y="0" onmousedown="handlePan(0,1)"/>
  <use id="arrowleft" xlink:href="#arrowLeft" x="0" y="0" onmousedown="handlePan(-1,0)"/>
</g>
<svg viewBox="0 0 15 15" width="100%" height="30px" preserveAspectRatio="xMaxYMin meet">
 <g id="arrow_out" transform="scale(0.3 0.3)">
  <a xlink:href="namespacem__start__up_aca13f477717fbe9c77304a91bc9d8cc9_cgraph_org.svg" target="_base">
   <rect id="button" ry="5" rx="5" y="6" x="6" height="38" width="38"
        fill="#f2f5e9" fill-opacity="0.5" stroke="#606060" stroke-width="1.0"/>
   <path id="arrow"
     d="M 11.500037,31.436501 C 11.940474,20.09759 22.043105,11.32322 32.158766,21.979434 L 37.068811,17.246167 C 37.068811,17.246167 37.088388,32 37.088388,32 L 22.160133,31.978069 C 22.160133,31.978069 26.997745,27.140456 26.997745,27.140456 C 18.528582,18.264221 13.291696,25.230495 11.500037,31.436501 z"
     style="fill:#404040;"/>
  </a>
 </g>
</svg>

<style type='text/css'>
<![CDATA[
[data-mouse-over-selected='false'] { opacity: 0.7; }
[data-mouse-over-selected='true']  { opacity: 1.0; }
]]>
</style>
<script type="application/ecmascript"><![CDATA[
document.addEventListener('DOMContentLoaded', (event) => {
  highlightEdges();
  highlightAdjacentNodes();
});
]]></script>
</svg>
