<?xml version="1.0" encoding="UTF-8" standalone="no"?>
<!DOCTYPE svg PUBLIC "-//W3C//DTD SVG 1.1//EN"
 "http://www.w3.org/Graphics/SVG/1.1/DTD/svg11.dtd">
<!-- Generated by graphviz version 2.43.0 (0)
 -->
<!-- Title: m_icpp_patches::s_apply_icpp_patches Pages: 1 -->
<svg width="521pt" height="844pt"
 viewBox="0.00 0.00 521.00 844.00" xmlns="http://www.w3.org/2000/svg" xmlns:xlink="http://www.w3.org/1999/xlink">
<g id="graph0" class="graph" transform="scale(1 1) rotate(0) translate(4 840)">
<title>m_icpp_patches::s_apply_icpp_patches</title>
<!-- Node1 -->
<g id="Node000001" class="node">
<title>Node1</title>
<g id="a_Node000001"><a xlink:title=" ">
<polygon fill="#999999" stroke="#666666" points="139,-438 0,-438 0,-408 139,-408 139,-438"/>
<text text-anchor="start" x="8" y="-426" font-family="Helvetica,sans-Serif" font-size="10.00">m_icpp_patches::s_apply</text>
<text text-anchor="middle" x="69.5" y="-415" font-family="Helvetica,sans-Serif" font-size="10.00">_icpp_patches</text>
</a>
</g>
</g>
<!-- Node2 -->
<g id="Node000002" class="node">
<title>Node2</title>
<g id="a_Node000002"><a xlink:href="namespacem__icpp__patches.html#aaa7ffb3b7e118f6c3fbb38bfd6b14296" target="_top" xlink:title=" ">
<polygon fill="white" stroke="#666666" points="307,-836 175,-836 175,-806 307,-806 307,-836"/>
<text text-anchor="start" x="183" y="-824" font-family="Helvetica,sans-Serif" font-size="10.00">m_icpp_patches::s_icpp</text>
<text text-anchor="middle" x="241" y="-813" font-family="Helvetica,sans-Serif" font-size="10.00">_1d_bubble_pulse</text>
</a>
</g>
</g>
<!-- Node1&#45;&gt;Node2 -->
<g id="edge1_Node000001_Node000002" class="edge">
<title>Node1&#45;&gt;Node2</title>
<g id="a_edge1_Node000001_Node000002"><a xlink:title=" ">
<path fill="none" stroke="#63b8ff" d="M70.14,-438.13C69.65,-493.71 75.38,-688.94 175,-797 175.89,-797.97 176.83,-798.9 177.81,-799.79"/>
<polygon fill="#63b8ff" stroke="#63b8ff" points="175.83,-802.69 185.92,-805.94 180.06,-797.11 175.83,-802.69"/>
</a>
</g>
</g>
<!-- Node3 -->
<g id="Node000003" class="node">
<title>Node3</title>
<g id="a_Node000003"><a xlink:href="namespacem__icpp__patches.html#a1a97d6ab755b0e7491fa635da8b493d6" target="_top" xlink:title="The Taylor Green vortex is 2D decaying vortex that may be used, for example, to verify the effects of...">
<polygon fill="white" stroke="#666666" points="307,-788 175,-788 175,-758 307,-758 307,-788"/>
<text text-anchor="start" x="183" y="-776" font-family="Helvetica,sans-Serif" font-size="10.00">m_icpp_patches::s_icpp</text>
<text text-anchor="middle" x="241" y="-765" font-family="Helvetica,sans-Serif" font-size="10.00">_2d_taylorgreen_vortex</text>
</a>
</g>
</g>
<!-- Node1&#45;&gt;Node3 -->
<g id="edge2_Node000001_Node000003" class="edge">
<title>Node1&#45;&gt;Node3</title>
<g id="a_edge2_Node000001_Node000003"><a xlink:title=" ">
<path fill="none" stroke="#63b8ff" d="M70.88,-438.3C72.99,-489.5 86.63,-656.7 175,-749 176.04,-750.09 177.13,-751.12 178.27,-752.11"/>
<polygon fill="#63b8ff" stroke="#63b8ff" points="176.22,-754.95 186.37,-758 180.34,-749.29 176.22,-754.95"/>
</a>
</g>
</g>
<!-- Node4 -->
<g id="Node000004" class="node">
<title>Node4</title>
<g id="a_Node000004"><a xlink:href="namespacem__icpp__patches.html#affc80bcf7e9f974eba2f2097f0d027a7" target="_top" xlink:title=" ">
<polygon fill="white" stroke="#666666" points="307,-740 175,-740 175,-710 307,-710 307,-740"/>
<text text-anchor="start" x="183" y="-728" font-family="Helvetica,sans-Serif" font-size="10.00">m_icpp_patches::s_icpp</text>
<text text-anchor="middle" x="241" y="-717" font-family="Helvetica,sans-Serif" font-size="10.00">_3dvarcircle</text>
</a>
</g>
</g>
<!-- Node1&#45;&gt;Node4 -->
<g id="edge3_Node000001_Node000004" class="edge">
<title>Node1&#45;&gt;Node4</title>
<g id="a_edge3_Node000001_Node000004"><a xlink:title=" ">
<path fill="none" stroke="#63b8ff" d="M71.86,-438.31C76.79,-484.52 97.66,-624.11 175,-701 176.07,-702.06 177.18,-703.07 178.34,-704.04"/>
<polygon fill="#63b8ff" stroke="#63b8ff" points="176.36,-706.93 186.55,-709.82 180.39,-701.2 176.36,-706.93"/>
</a>
</g>
</g>
<!-- Node5 -->
<g id="Node000005" class="node">
<title>Node5</title>
<g id="a_Node000005"><a xlink:href="namespacem__icpp__patches.html#a1109370d29f470970f43982e0cdbb6be" target="_top" xlink:title="The circular patch is a 2D geometry that may be used, for example, in creating a bubble or a droplet....">
<polygon fill="white" stroke="#666666" points="307,-692 175,-692 175,-662 307,-662 307,-692"/>
<text text-anchor="start" x="183" y="-680" font-family="Helvetica,sans-Serif" font-size="10.00">m_icpp_patches::s_icpp</text>
<text text-anchor="middle" x="241" y="-669" font-family="Helvetica,sans-Serif" font-size="10.00">_circle</text>
</a>
</g>
</g>
<!-- Node1&#45;&gt;Node5 -->
<g id="edge4_Node000001_Node000005" class="edge">
<title>Node1&#45;&gt;Node5</title>
<g id="a_edge4_Node000001_Node000005"><a xlink:title=" ">
<path fill="none" stroke="#63b8ff" d="M73.21,-438.26C81.22,-478.96 108.51,-591.18 175,-653 176.27,-654.18 177.61,-655.31 178.99,-656.38"/>
<polygon fill="#63b8ff" stroke="#63b8ff" points="177.16,-659.36 187.43,-661.94 181.01,-653.51 177.16,-659.36"/>
</a>
</g>
</g>
<!-- Node6 -->
<g id="Node000006" class="node">
<title>Node6</title>
<g id="a_Node000006"><a xlink:href="namespacem__icpp__patches.html#a1bb54e3c82001cdc6943aa5d8bce7f7d" target="_top" xlink:title="The cuboidal patch is a 3D geometry that may be used, for example, in creating a solid boundary,...">
<polygon fill="white" stroke="#666666" points="307,-270 175,-270 175,-240 307,-240 307,-270"/>
<text text-anchor="start" x="183" y="-258" font-family="Helvetica,sans-Serif" font-size="10.00">m_icpp_patches::s_icpp</text>
<text text-anchor="middle" x="241" y="-247" font-family="Helvetica,sans-Serif" font-size="10.00">_cuboid</text>
</a>
</g>
</g>
<!-- Node1&#45;&gt;Node6 -->
<g id="edge5_Node000001_Node000006" class="edge">
<title>Node1&#45;&gt;Node6</title>
<g id="a_edge5_Node000001_Node000006"><a xlink:title=" ">
<path fill="none" stroke="#63b8ff" d="M77.74,-407.67C92.22,-378.57 127.48,-315 175,-279 176.83,-277.61 178.75,-276.3 180.73,-275.06"/>
<polygon fill="#63b8ff" stroke="#63b8ff" points="182.73,-277.95 189.78,-270.04 179.34,-271.83 182.73,-277.95"/>
</a>
</g>
</g>
<!-- Node8 -->
<g id="Node000008" class="node">
<title>Node8</title>
<g id="a_Node000008"><a xlink:href="namespacem__icpp__patches.html#af1e99b6704fe65498ce665fdf36a834a" target="_top" xlink:title="The cylindrical patch is a 3D geometry that may be used, for example, in setting up a cylindrical sol...">
<polygon fill="white" stroke="#666666" points="307,-222 175,-222 175,-192 307,-192 307,-222"/>
<text text-anchor="start" x="183" y="-210" font-family="Helvetica,sans-Serif" font-size="10.00">m_icpp_patches::s_icpp</text>
<text text-anchor="middle" x="241" y="-199" font-family="Helvetica,sans-Serif" font-size="10.00">_cylinder</text>
</a>
</g>
</g>
<!-- Node1&#45;&gt;Node8 -->
<g id="edge7_Node000001_Node000008" class="edge">
<title>Node1&#45;&gt;Node8</title>
<g id="a_edge7_Node000001_Node000008"><a xlink:title=" ">
<path fill="none" stroke="#63b8ff" d="M74.67,-407.93C85.32,-372.15 116.87,-281.27 175,-231 176.34,-229.84 177.75,-228.73 179.21,-227.67"/>
<polygon fill="#63b8ff" stroke="#63b8ff" points="181.39,-230.44 188.01,-222.17 177.68,-224.5 181.39,-230.44"/>
</a>
</g>
</g>
<!-- Node9 -->
<g id="Node000009" class="node">
<title>Node9</title>
<g id="a_Node000009"><a xlink:href="namespacem__icpp__patches.html#a01056cfdeab121aac3b51d6a633b52a5" target="_top" xlink:title="The elliptical patch is a 2D geometry. The geometry of the patch is well&#45;defined when its centroid an...">
<polygon fill="white" stroke="#666666" points="307,-558 175,-558 175,-528 307,-528 307,-558"/>
<text text-anchor="start" x="183" y="-546" font-family="Helvetica,sans-Serif" font-size="10.00">m_icpp_patches::s_icpp</text>
<text text-anchor="middle" x="241" y="-535" font-family="Helvetica,sans-Serif" font-size="10.00">_ellipse</text>
</a>
</g>
</g>
<!-- Node1&#45;&gt;Node9 -->
<g id="edge9_Node000001_Node000009" class="edge">
<title>Node1&#45;&gt;Node9</title>
<g id="a_edge9_Node000001_Node000009"><a xlink:title=" ">
<path fill="none" stroke="#63b8ff" d="M83.58,-438.29C102.08,-459.08 137.79,-496.27 175,-519 177.64,-520.61 180.4,-522.14 183.23,-523.59"/>
<polygon fill="#63b8ff" stroke="#63b8ff" points="181.93,-526.84 192.47,-527.93 184.91,-520.51 181.93,-526.84"/>
</a>
</g>
</g>
<!-- Node10 -->
<g id="Node000010" class="node">
<title>Node10</title>
<g id="a_Node000010"><a xlink:href="namespacem__icpp__patches.html#aef854f1f7799c14bee24208ac0d4df61" target="_top" xlink:title="The ellipsoidal patch is a 3D geometry. The geometry of the patch is well&#45;defined when its centroid a...">
<polygon fill="white" stroke="#666666" points="307,-414 175,-414 175,-384 307,-384 307,-414"/>
<text text-anchor="start" x="183" y="-402" font-family="Helvetica,sans-Serif" font-size="10.00">m_icpp_patches::s_icpp</text>
<text text-anchor="middle" x="241" y="-391" font-family="Helvetica,sans-Serif" font-size="10.00">_ellipsoid</text>
</a>
</g>
</g>
<!-- Node1&#45;&gt;Node10 -->
<g id="edge10_Node000001_Node000010" class="edge">
<title>Node1&#45;&gt;Node10</title>
<g id="a_edge10_Node000001_Node000010"><a xlink:title=" ">
<path fill="none" stroke="#63b8ff" d="M139.44,-413.24C147.87,-412.04 156.52,-410.82 165.04,-409.61"/>
<polygon fill="#63b8ff" stroke="#63b8ff" points="165.54,-413.08 174.95,-408.21 164.56,-406.15 165.54,-413.08"/>
</a>
</g>
</g>
<!-- Node11 -->
<g id="Node000011" class="node">
<title>Node11</title>
<g id="a_Node000011"><a xlink:href="namespacem__icpp__patches.html#a8a05e2e8a5cfe33a3879051bda81f45a" target="_top" xlink:title="The line segment patch is a 1D geometry that may be used, for example, in creating a Riemann problem....">
<polygon fill="white" stroke="#666666" points="307,-644 175,-644 175,-614 307,-614 307,-644"/>
<text text-anchor="start" x="183" y="-632" font-family="Helvetica,sans-Serif" font-size="10.00">m_icpp_patches::s_icpp</text>
<text text-anchor="middle" x="241" y="-621" font-family="Helvetica,sans-Serif" font-size="10.00">_line_segment</text>
</a>
</g>
</g>
<!-- Node1&#45;&gt;Node11 -->
<g id="edge12_Node000001_Node000011" class="edge">
<title>Node1&#45;&gt;Node11</title>
<g id="a_edge12_Node000001_Node000011"><a xlink:title=" ">
<path fill="none" stroke="#63b8ff" d="M75.76,-438.13C88.09,-471.58 121.88,-552.6 175,-600 178.67,-603.27 182.77,-606.23 187.07,-608.89"/>
<polygon fill="#63b8ff" stroke="#63b8ff" points="185.69,-612.12 196.13,-613.93 189.09,-606.01 185.69,-612.12"/>
</a>
</g>
</g>
<!-- Node12 -->
<g id="Node000012" class="node">
<title>Node12</title>
<g id="a_Node000012"><a xlink:href="namespacem__mpi__common.html#a04cfc0bdb377a0ce2f9fd478e4bb3807" target="_top" xlink:title="The subroutine terminates the MPI execution environment.">
<polygon fill="white" stroke="#666666" points="495,-622 361,-622 361,-592 495,-592 495,-622"/>
<text text-anchor="start" x="369" y="-610" font-family="Helvetica,sans-Serif" font-size="10.00">m_mpi_common::s_mpi</text>
<text text-anchor="middle" x="428" y="-599" font-family="Helvetica,sans-Serif" font-size="10.00">_abort</text>
</a>
</g>
</g>
<!-- Node1&#45;&gt;Node12 -->
<g id="edge28_Node000001_Node000012" class="edge">
<title>Node1&#45;&gt;Node12</title>
<g id="a_edge28_Node000001_Node000012"><a xlink:title=" ">
<path fill="none" stroke="#63b8ff" d="M76.73,-438.27C89.9,-468.44 123.66,-535.5 175,-567 203.75,-584.63 287.46,-595.44 350.57,-601.31"/>
<polygon fill="#63b8ff" stroke="#63b8ff" points="350.63,-604.83 360.91,-602.24 351.26,-597.85 350.63,-604.83"/>
</a>
</g>
</g>
<!-- Node13 -->
<g id="Node000013" class="node">
<title>Node13</title>
<g id="a_Node000013"><a xlink:href="namespacem__icpp__patches.html#abf6a302b6c436582ea020112542e9e89" target="_top" xlink:title="The STL patch is a 2/3D geometry that is imported from an STL file.">
<polygon fill="white" stroke="#666666" points="307,-174 175,-174 175,-144 307,-144 307,-174"/>
<text text-anchor="start" x="183" y="-162" font-family="Helvetica,sans-Serif" font-size="10.00">m_icpp_patches::s_icpp</text>
<text text-anchor="middle" x="241" y="-151" font-family="Helvetica,sans-Serif" font-size="10.00">_model</text>
</a>
</g>
</g>
<!-- Node1&#45;&gt;Node13 -->
<g id="edge14_Node000001_Node000013" class="edge">
<title>Node1&#45;&gt;Node13</title>
<g id="a_edge14_Node000001_Node000013"><a xlink:title=" ">
<path fill="none" stroke="#63b8ff" d="M72.84,-408C80.12,-366.35 106.12,-248.07 175,-183 176.26,-181.81 177.59,-180.67 178.97,-179.59"/>
<polygon fill="#63b8ff" stroke="#63b8ff" points="180.99,-182.45 187.37,-174 177.11,-176.63 180.99,-182.45"/>
</a>
</g>
</g>
<!-- Node15 -->
<g id="Node000015" class="node">
<title>Node15</title>
<g id="a_Node000015"><a xlink:href="namespacem__icpp__patches.html#a6e2f8dfbfbb86d1905d1e54c852606d0" target="_top" xlink:title="The rectangular patch is a 2D geometry that may be used, for example, in creating a solid boundary,...">
<polygon fill="white" stroke="#666666" points="307,-318 175,-318 175,-288 307,-288 307,-318"/>
<text text-anchor="start" x="183" y="-306" font-family="Helvetica,sans-Serif" font-size="10.00">m_icpp_patches::s_icpp</text>
<text text-anchor="middle" x="241" y="-295" font-family="Helvetica,sans-Serif" font-size="10.00">_rectangle</text>
</a>
</g>
</g>
<!-- Node1&#45;&gt;Node15 -->
<g id="edge16_Node000001_Node000015" class="edge">
<title>Node1&#45;&gt;Node15</title>
<g id="a_edge16_Node000001_Node000015"><a xlink:title=" ">
<path fill="none" stroke="#63b8ff" d="M83.58,-407.71C102.08,-386.92 137.79,-349.73 175,-327 177.64,-325.39 180.4,-323.86 183.23,-322.41"/>
<polygon fill="#63b8ff" stroke="#63b8ff" points="184.91,-325.49 192.47,-318.07 181.93,-319.16 184.91,-325.49"/>
</a>
</g>
</g>
<!-- Node16 -->
<g id="Node000016" class="node">
<title>Node16</title>
<g id="a_Node000016"><a xlink:href="namespacem__icpp__patches.html#a982126e272a8b93c8e82c92e86939916" target="_top" xlink:title="The spherical patch is a 3D geometry that may be used, for example, in creating a bubble or a droplet...">
<polygon fill="white" stroke="#666666" points="307,-366 175,-366 175,-336 307,-336 307,-366"/>
<text text-anchor="start" x="183" y="-354" font-family="Helvetica,sans-Serif" font-size="10.00">m_icpp_patches::s_icpp</text>
<text text-anchor="middle" x="241" y="-343" font-family="Helvetica,sans-Serif" font-size="10.00">_sphere</text>
</a>
</g>
</g>
<!-- Node1&#45;&gt;Node16 -->
<g id="edge17_Node000001_Node000016" class="edge">
<title>Node1&#45;&gt;Node16</title>
<g id="a_edge17_Node000001_Node000016"><a xlink:title=" ">
<path fill="none" stroke="#63b8ff" d="M101.78,-407.87C122.4,-398.09 150.09,-385.3 175,-375 179.36,-373.2 183.9,-371.39 188.48,-369.61"/>
<polygon fill="#63b8ff" stroke="#63b8ff" points="189.77,-372.86 197.86,-366.02 187.27,-366.32 189.77,-372.86"/>
</a>
</g>
</g>
<!-- Node17 -->
<g id="Node000017" class="node">
<title>Node17</title>
<g id="a_Node000017"><a xlink:href="namespacem__icpp__patches.html#aee2500756fcdad2edd2f49936944ab90" target="_top" xlink:title="This patch generates the shape of the spherical harmonics as a perturbation to a perfect sphere.">
<polygon fill="white" stroke="#666666" points="307,-510 175,-510 175,-480 307,-480 307,-510"/>
<text text-anchor="start" x="183" y="-498" font-family="Helvetica,sans-Serif" font-size="10.00">m_icpp_patches::s_icpp</text>
<text text-anchor="middle" x="241" y="-487" font-family="Helvetica,sans-Serif" font-size="10.00">_spherical_harmonic</text>
</a>
</g>
</g>
<!-- Node1&#45;&gt;Node17 -->
<g id="edge19_Node000001_Node000017" class="edge">
<title>Node1&#45;&gt;Node17</title>
<g id="a_edge19_Node000001_Node000017"><a xlink:title=" ">
<path fill="none" stroke="#63b8ff" d="M101.78,-438.13C122.4,-447.91 150.09,-460.7 175,-471 179.36,-472.8 183.9,-474.61 188.48,-476.39"/>
<polygon fill="#63b8ff" stroke="#63b8ff" points="187.27,-479.68 197.86,-479.98 189.77,-473.14 187.27,-479.68"/>
</a>
</g>
</g>
<!-- Node18 -->
<g id="Node000018" class="node">
<title>Node18</title>
<g id="a_Node000018"><a xlink:href="namespacem__icpp__patches.html#afd09ff4ea85695989a63550c93ecdd1c" target="_top" xlink:title="The spiral patch is a 2D geometry that may be used, The geometry of the patch is well&#45;defined when it...">
<polygon fill="white" stroke="#666666" points="307,-78 175,-78 175,-48 307,-48 307,-78"/>
<text text-anchor="start" x="183" y="-66" font-family="Helvetica,sans-Serif" font-size="10.00">m_icpp_patches::s_icpp</text>
<text text-anchor="middle" x="241" y="-55" font-family="Helvetica,sans-Serif" font-size="10.00">_spiral</text>
</a>
</g>
</g>
<!-- Node1&#45;&gt;Node18 -->
<g id="edge21_Node000001_Node000018" class="edge">
<title>Node1&#45;&gt;Node18</title>
<g id="a_edge21_Node000001_Node000018"><a xlink:title=" ">
<path fill="none" stroke="#63b8ff" d="M70.7,-407.96C72.22,-356.11 84.16,-182.71 175,-87 175.91,-86.04 176.86,-85.12 177.84,-84.24"/>
<polygon fill="#63b8ff" stroke="#63b8ff" points="180.09,-86.94 186.03,-78.16 175.91,-81.32 180.09,-86.94"/>
</a>
</g>
</g>
<!-- Node20 -->
<g id="Node000020" class="node">
<title>Node20</title>
<g id="a_Node000020"><a xlink:href="namespacem__icpp__patches.html#ae751aaef358b3ef180f8e582fc3a87a0" target="_top" xlink:title="The swept line patch is a 2D geometry that may be used, for example, in creating a solid boundary,...">
<polygon fill="white" stroke="#666666" points="307,-126 175,-126 175,-96 307,-96 307,-126"/>
<text text-anchor="start" x="183" y="-114" font-family="Helvetica,sans-Serif" font-size="10.00">m_icpp_patches::s_icpp</text>
<text text-anchor="middle" x="241" y="-103" font-family="Helvetica,sans-Serif" font-size="10.00">_sweep_line</text>
</a>
</g>
</g>
<!-- Node1&#45;&gt;Node20 -->
<g id="edge24_Node000001_Node000020" class="edge">
<title>Node1&#45;&gt;Node20</title>
<g id="a_edge24_Node000001_Node000020"><a xlink:title=" ">
<path fill="none" stroke="#63b8ff" d="M71.62,-407.82C75.91,-360.68 95.3,-215.15 175,-135 176.06,-133.93 177.17,-132.91 178.33,-131.94"/>
<polygon fill="#63b8ff" stroke="#63b8ff" points="180.38,-134.78 186.51,-126.14 176.33,-129.07 180.38,-134.78"/>
</a>
</g>
</g>
<!-- Node21 -->
<g id="Node000021" class="node">
<title>Node21</title>
<g id="a_Node000021"><a xlink:href="namespacem__icpp__patches.html#a498a6ea03b8e45c0ae423471a3eecd93" target="_top" xlink:title="The swept plane patch is a 3D geometry that may be used, for example, in creating a solid boundary,...">
<polygon fill="white" stroke="#666666" points="307,-462 175,-462 175,-432 307,-432 307,-462"/>
<text text-anchor="start" x="183" y="-450" font-family="Helvetica,sans-Serif" font-size="10.00">m_icpp_patches::s_icpp</text>
<text text-anchor="middle" x="241" y="-439" font-family="Helvetica,sans-Serif" font-size="10.00">_sweep_plane</text>
</a>
</g>
</g>
<!-- Node1&#45;&gt;Node21 -->
<g id="edge25_Node000001_Node000021" class="edge">
<title>Node1&#45;&gt;Node21</title>
<g id="a_edge25_Node000001_Node000021"><a xlink:title=" ">
<path fill="none" stroke="#63b8ff" d="M139.44,-432.76C147.87,-433.96 156.52,-435.18 165.04,-436.39"/>
<polygon fill="#63b8ff" stroke="#63b8ff" points="164.56,-439.85 174.95,-437.79 165.54,-432.92 164.56,-439.85"/>
</a>
</g>
</g>
<!-- Node22 -->
<g id="Node000022" class="node">
<title>Node22</title>
<g id="a_Node000022"><a xlink:href="namespacem__icpp__patches.html#a2867d59aa26df1bc028d4fd19843e46f" target="_top" xlink:title="The varcircle patch is a 2D geometry that may be used . It generatres an annulus.">
<polygon fill="white" stroke="#666666" points="307,-30 175,-30 175,0 307,0 307,-30"/>
<text text-anchor="start" x="183" y="-18" font-family="Helvetica,sans-Serif" font-size="10.00">m_icpp_patches::s_icpp</text>
<text text-anchor="middle" x="241" y="-7" font-family="Helvetica,sans-Serif" font-size="10.00">_varcircle</text>
</a>
</g>
</g>
<!-- Node1&#45;&gt;Node22 -->
<g id="edge27_Node000001_Node000022" class="edge">
<title>Node1&#45;&gt;Node22</title>
<g id="a_edge27_Node000001_Node000022"><a xlink:title=" ">
<path fill="none" stroke="#63b8ff" d="M70.01,-407.86C69.01,-351.36 73.05,-150.34 175,-39 175.89,-38.03 176.83,-37.09 177.8,-36.2"/>
<polygon fill="#63b8ff" stroke="#63b8ff" points="180.05,-38.88 185.9,-30.04 175.82,-33.31 180.05,-38.88"/>
</a>
</g>
</g>
<!-- Node7 -->
<g id="Node000007" class="node">
<title>Node7</title>
<g id="a_Node000007"><a xlink:href="namespacem__icpp__patches.html#acbe8a03d5a5b6d11880bb904f91e9e0b" target="_top" xlink:title=" ">
<polygon fill="white" stroke="#666666" points="513,-390 343,-390 343,-360 513,-360 513,-390"/>
<text text-anchor="start" x="351" y="-378" font-family="Helvetica,sans-Serif" font-size="10.00">m_icpp_patches::s_convert</text>
<text text-anchor="middle" x="428" y="-367" font-family="Helvetica,sans-Serif" font-size="10.00">_cylindrical_to_cartesian_coord</text>
</a>
</g>
</g>
<!-- Node6&#45;&gt;Node7 -->
<g id="edge6_Node000006_Node000007" class="edge">
<title>Node6&#45;&gt;Node7</title>
<g id="a_edge6_Node000006_Node000007"><a xlink:title=" ">
<path fill="none" stroke="#63b8ff" d="M288.63,-270.13C294.95,-272.78 301.24,-275.75 307,-279 343.78,-299.78 380.97,-331.58 403.99,-352.82"/>
<polygon fill="#63b8ff" stroke="#63b8ff" points="401.82,-355.58 411.52,-359.85 406.6,-350.47 401.82,-355.58"/>
</a>
</g>
</g>
<!-- Node8&#45;&gt;Node7 -->
<g id="edge8_Node000008_Node000007" class="edge">
<title>Node8&#45;&gt;Node7</title>
<g id="a_edge8_Node000008_Node000007"><a xlink:title=" ">
<path fill="none" stroke="#63b8ff" d="M291.32,-222.03C296.83,-224.62 302.19,-227.6 307,-231 353.69,-263.98 392.81,-319.5 412.76,-351.1"/>
<polygon fill="#63b8ff" stroke="#63b8ff" points="409.85,-353.05 418.1,-359.71 415.8,-349.37 409.85,-353.05"/>
</a>
</g>
</g>
<!-- Node10&#45;&gt;Node7 -->
<g id="edge11_Node000010_Node000007" class="edge">
<title>Node10&#45;&gt;Node7</title>
<g id="a_edge11_Node000010_Node000007"><a xlink:title=" ">
<path fill="none" stroke="#63b8ff" d="M307.22,-390.54C315.52,-389.46 324.14,-388.34 332.79,-387.22"/>
<polygon fill="#63b8ff" stroke="#63b8ff" points="333.45,-390.67 342.92,-385.91 332.55,-383.72 333.45,-390.67"/>
</a>
</g>
</g>
<!-- Node11&#45;&gt;Node12 -->
<g id="edge13_Node000011_Node000012" class="edge">
<title>Node11&#45;&gt;Node12</title>
<g id="a_edge13_Node000011_Node000012"><a xlink:title=" ">
<path fill="none" stroke="#63b8ff" d="M307.22,-621.24C321.2,-619.58 336.1,-617.81 350.46,-616.1"/>
<polygon fill="#63b8ff" stroke="#63b8ff" points="351.29,-619.53 360.8,-614.87 350.46,-612.58 351.29,-619.53"/>
</a>
</g>
</g>
<!-- Node14 -->
<g id="Node000014" class="node">
<title>Node14</title>
<g id="a_Node000014"><a xlink:href="namespacem__icpp__patches.html#a0c902f53d362fec05b33ac8314a8d9c9" target="_top" xlink:title=" ">
<polygon fill="white" stroke="#666666" points="501.5,-174 354.5,-174 354.5,-144 501.5,-144 501.5,-174"/>
<text text-anchor="start" x="362.5" y="-162" font-family="Helvetica,sans-Serif" font-size="10.00">m_icpp_patches::f_convert</text>
<text text-anchor="middle" x="428" y="-151" font-family="Helvetica,sans-Serif" font-size="10.00">_cyl_to_cart</text>
</a>
</g>
</g>
<!-- Node13&#45;&gt;Node14 -->
<g id="edge15_Node000013_Node000014" class="edge">
<title>Node13&#45;&gt;Node14</title>
<g id="a_edge15_Node000013_Node000014"><a xlink:title=" ">
<path fill="none" stroke="#63b8ff" d="M307.22,-159C319.17,-159 331.78,-159 344.17,-159"/>
<polygon fill="#63b8ff" stroke="#63b8ff" points="344.49,-162.5 354.49,-159 344.49,-155.5 344.49,-162.5"/>
</a>
</g>
</g>
<!-- Node16&#45;&gt;Node7 -->
<g id="edge18_Node000016_Node000007" class="edge">
<title>Node16&#45;&gt;Node7</title>
<g id="a_edge18_Node000016_Node000007"><a xlink:title=" ">
<path fill="none" stroke="#63b8ff" d="M307.22,-359.46C315.52,-360.54 324.14,-361.66 332.79,-362.78"/>
<polygon fill="#63b8ff" stroke="#63b8ff" points="332.55,-366.28 342.92,-364.09 333.45,-359.33 332.55,-366.28"/>
</a>
</g>
</g>
<!-- Node17&#45;&gt;Node7 -->
<g id="edge20_Node000017_Node000007" class="edge">
<title>Node17&#45;&gt;Node7</title>
<g id="a_edge20_Node000017_Node000007"><a xlink:title=" ">
<path fill="none" stroke="#63b8ff" d="M288.63,-479.87C294.95,-477.22 301.24,-474.25 307,-471 343.78,-450.22 380.97,-418.42 403.99,-397.18"/>
<polygon fill="#63b8ff" stroke="#63b8ff" points="406.6,-399.53 411.52,-390.15 401.82,-394.42 406.6,-399.53"/>
</a>
</g>
</g>
<!-- Node19 -->
<g id="Node000019" class="node">
<title>Node19</title>
<g id="a_Node000019"><a xlink:href="namespacem__icpp__patches.html#acc0affb72127287df0765f4c4535fc77" target="_top" xlink:title="Archimedes spiral function.">
<polygon fill="white" stroke="#666666" points="485,-72.5 371,-72.5 371,-53.5 485,-53.5 485,-72.5"/>
<text text-anchor="middle" x="428" y="-60.5" font-family="Helvetica,sans-Serif" font-size="10.00">m_icpp_patches::f_r</text>
</a>
</g>
</g>
<!-- Node18&#45;&gt;Node19 -->
<g id="edge22_Node000018_Node000019" class="edge">
<title>Node18&#45;&gt;Node19</title>
<g id="a_edge22_Node000018_Node000019"><a xlink:title=" ">
<path fill="none" stroke="#63b8ff" d="M307.22,-63C324.62,-63 343.42,-63 360.86,-63"/>
<polygon fill="#63b8ff" stroke="#63b8ff" points="360.95,-66.5 370.95,-63 360.95,-59.5 360.95,-66.5"/>
</a>
</g>
</g>
<!-- Node19&#45;&gt;Node19 -->
<g id="edge23_Node000019_Node000019" class="edge">
<title>Node19&#45;&gt;Node19</title>
<g id="a_edge23_Node000019_Node000019"><a xlink:title=" ">
<path fill="none" stroke="#63b8ff" d="M399.33,-72.58C385.39,-81.23 394.94,-90.5 428,-90.5 450.73,-90.5 462.35,-86.12 462.86,-80.57"/>
<polygon fill="#63b8ff" stroke="#63b8ff" points="465.56,-78.34 456.67,-72.58 460.03,-82.63 465.56,-78.34"/>
</a>
</g>
</g>
<!-- Node21&#45;&gt;Node7 -->
<g id="edge26_Node000021_Node000007" class="edge">
<title>Node21&#45;&gt;Node7</title>
<g id="a_edge26_Node000021_Node000007"><a xlink:title=" ">
<path fill="none" stroke="#63b8ff" d="M283.33,-431.93C291.2,-429.01 299.37,-425.94 307,-423 331.35,-413.63 358.35,-402.87 380.55,-393.92"/>
<polygon fill="#63b8ff" stroke="#63b8ff" points="382.11,-397.06 390.07,-390.07 379.49,-390.57 382.11,-397.06"/>
</a>
</g>
</g>
</g>
</svg>
