<?xml version="1.0" encoding="UTF-8" standalone="no"?>
<!DOCTYPE svg PUBLIC "-//W3C//DTD SVG 1.1//EN"
 "http://www.w3.org/Graphics/SVG/1.1/DTD/svg11.dtd">
<!-- Generated by graphviz version 2.43.0 (0)
 -->
<!-- Title: m_data_output::s_initialize_data_output_module Pages: 1 -->
<svg width="901pt" height="649pt"
 viewBox="0.00 0.00 901.00 648.50" xmlns="http://www.w3.org/2000/svg" xmlns:xlink="http://www.w3.org/1999/xlink">
<g id="graph0" class="graph" transform="scale(1 1) rotate(0) translate(4 644.5)">
<title>m_data_output::s_initialize_data_output_module</title>
<!-- Node1 -->
<g id="Node000001" class="node">
<title>Node1</title>
<g id="a_Node000001"><a xlink:title="Computation of parameters, allocation procedures, and/or any other tasks needed to properly setup the...">
<polygon fill="#999999" stroke="#666666" points="149,-384.5 0,-384.5 0,-354.5 149,-354.5 149,-384.5"/>
<text text-anchor="start" x="8" y="-372.5" font-family="Helvetica,sans-Serif" font-size="10.00">m_data_output::s_initialize</text>
<text text-anchor="middle" x="74.5" y="-361.5" font-family="Helvetica,sans-Serif" font-size="10.00">_data_output_module</text>
</a>
</g>
</g>
<!-- Node2 -->
<g id="Node000002" class="node">
<title>Node2</title>
<g id="a_Node000002"><a xlink:href="namespacem__compile__specific.html#a9cf8c029e502931415929734c03f340d" target="_top" xlink:title="Inquires on the existence of a directory.">
<polygon fill="white" stroke="#666666" points="492.5,-582.5 379.5,-582.5 379.5,-552.5 492.5,-552.5 492.5,-582.5"/>
<text text-anchor="start" x="387.5" y="-570.5" font-family="Helvetica,sans-Serif" font-size="10.00">m_compile_specific</text>
<text text-anchor="middle" x="436" y="-559.5" font-family="Helvetica,sans-Serif" font-size="10.00">::my_inquire</text>
</a>
</g>
</g>
<!-- Node1&#45;&gt;Node2 -->
<g id="edge1_Node000001_Node000002" class="edge">
<title>Node1&#45;&gt;Node2</title>
<g id="a_edge1_Node000001_Node000002"><a xlink:title=" ">
<path fill="none" stroke="#63b8ff" d="M93.87,-384.78C115.14,-402.14 151.54,-430.88 185,-452.5 255.99,-498.38 273.83,-511.35 352,-543.5 357.51,-545.77 363.31,-547.91 369.17,-549.91"/>
<polygon fill="#63b8ff" stroke="#63b8ff" points="368.47,-553.36 379.07,-553.14 370.64,-546.71 368.47,-553.36"/>
</a>
</g>
</g>
<!-- Node3 -->
<g id="Node000003" class="node">
<title>Node3</title>
<g id="a_Node000003"><a xlink:href="namespacem__compile__specific.html#aa1b4e12a20e09147a215c3b5018484b0" target="_top" xlink:title="Creates a directory and all its parents if it does not exist.">
<polygon fill="white" stroke="#666666" points="492.5,-330.5 379.5,-330.5 379.5,-300.5 492.5,-300.5 492.5,-330.5"/>
<text text-anchor="start" x="387.5" y="-318.5" font-family="Helvetica,sans-Serif" font-size="10.00">m_compile_specific</text>
<text text-anchor="middle" x="436" y="-307.5" font-family="Helvetica,sans-Serif" font-size="10.00">::s_create_directory</text>
</a>
</g>
</g>
<!-- Node1&#45;&gt;Node3 -->
<g id="edge2_Node000001_Node000003" class="edge">
<title>Node1&#45;&gt;Node3</title>
<g id="a_edge2_Node000001_Node000003"><a xlink:title=" ">
<path fill="none" stroke="#63b8ff" d="M138.99,-354.5C154.02,-351.25 170.03,-348.03 185,-345.5 247.1,-334.99 318.48,-326.81 369.03,-321.66"/>
<polygon fill="#63b8ff" stroke="#63b8ff" points="369.58,-325.13 379.17,-320.64 368.87,-318.16 369.58,-325.13"/>
</a>
</g>
</g>
<!-- Node4 -->
<g id="Node000004" class="node">
<title>Node4</title>
<g id="a_Node000004"><a xlink:href="namespacem__compile__specific.html#a60af946dc5a6e9ece1327c7cb756c4a2" target="_top" xlink:title=" ">
<polygon fill="white" stroke="#666666" points="307,-384.5 194,-384.5 194,-354.5 307,-354.5 307,-384.5"/>
<text text-anchor="start" x="202" y="-372.5" font-family="Helvetica,sans-Serif" font-size="10.00">m_compile_specific</text>
<text text-anchor="middle" x="250.5" y="-361.5" font-family="Helvetica,sans-Serif" font-size="10.00">::s_delete_directory</text>
</a>
</g>
</g>
<!-- Node1&#45;&gt;Node4 -->
<g id="edge3_Node000001_Node000004" class="edge">
<title>Node1&#45;&gt;Node4</title>
<g id="a_edge3_Node000001_Node000004"><a xlink:title=" ">
<path fill="none" stroke="#63b8ff" d="M149.04,-369.5C160.54,-369.5 172.37,-369.5 183.69,-369.5"/>
<polygon fill="#63b8ff" stroke="#63b8ff" points="183.91,-373 193.91,-369.5 183.91,-366 183.91,-373"/>
</a>
</g>
</g>
<!-- Node5 -->
<g id="Node000005" class="node">
<title>Node5</title>
<g id="a_Node000005"><a xlink:href="namespacem__data__output.html#a5553a586765788ee6dcce99679a82f35" target="_top" xlink:title="Writes grid and initial condition data files in parallel to the &quot;0&quot; time&#45;step directory in the local ...">
<polygon fill="white" stroke="#666666" points="316,-443.5 185,-443.5 185,-413.5 316,-413.5 316,-443.5"/>
<text text-anchor="start" x="193" y="-431.5" font-family="Helvetica,sans-Serif" font-size="10.00">m_data_output::s_write</text>
<text text-anchor="middle" x="250.5" y="-420.5" font-family="Helvetica,sans-Serif" font-size="10.00">_parallel_data_files</text>
</a>
</g>
</g>
<!-- Node1&#45;&gt;Node5 -->
<g id="edge4_Node000001_Node000005" class="edge">
<title>Node1&#45;&gt;Node5</title>
<g id="a_edge4_Node000001_Node000005"><a xlink:title=" ">
<path fill="none" stroke="#63b8ff" d="M119.86,-384.54C142.87,-392.34 171.16,-401.94 195.44,-410.17"/>
<polygon fill="#63b8ff" stroke="#63b8ff" points="194.63,-413.59 205.22,-413.49 196.88,-406.96 194.63,-413.59"/>
</a>
</g>
</g>
<!-- Node20 -->
<g id="Node000020" class="node">
<title>Node20</title>
<g id="a_Node000020"><a xlink:href="namespacem__data__output.html#a3592c85a5b5a76ff5035209211ad7cf7" target="_top" xlink:title="Writes grid and initial condition data files to the &quot;0&quot; time&#45;step directory in the local processor ra...">
<polygon fill="white" stroke="#666666" points="316,-258.5 185,-258.5 185,-228.5 316,-228.5 316,-258.5"/>
<text text-anchor="start" x="193" y="-246.5" font-family="Helvetica,sans-Serif" font-size="10.00">m_data_output::s_write</text>
<text text-anchor="middle" x="250.5" y="-235.5" font-family="Helvetica,sans-Serif" font-size="10.00">_serial_data_files</text>
</a>
</g>
</g>
<!-- Node1&#45;&gt;Node20 -->
<g id="edge22_Node000001_Node000020" class="edge">
<title>Node1&#45;&gt;Node20</title>
<g id="a_edge22_Node000001_Node000020"><a xlink:title=" ">
<path fill="none" stroke="#63b8ff" d="M96.49,-354.3C127.4,-331.92 185.29,-289.99 220.32,-264.63"/>
<polygon fill="#63b8ff" stroke="#63b8ff" points="222.66,-267.26 228.71,-258.56 218.56,-261.59 222.66,-267.26"/>
</a>
</g>
</g>
<!-- Node5&#45;&gt;Node2 -->
<g id="edge6_Node000005_Node000002" class="edge">
<title>Node5&#45;&gt;Node2</title>
<g id="a_edge6_Node000005_Node000002"><a xlink:title=" ">
<path fill="none" stroke="#63b8ff" d="M264.04,-443.79C288.49,-473.47 341.1,-536.56 352,-543.5 357.4,-546.94 363.3,-549.89 369.39,-552.44"/>
<polygon fill="#63b8ff" stroke="#63b8ff" points="368.48,-555.83 379.07,-556.1 370.96,-549.29 368.48,-555.83"/>
</a>
</g>
</g>
<!-- Node5&#45;&gt;Node3 -->
<g id="edge7_Node000005_Node000003" class="edge">
<title>Node5&#45;&gt;Node3</title>
<g id="a_edge7_Node000005_Node000003"><a xlink:title=" ">
<path fill="none" stroke="#63b8ff" d="M286.67,-413.37C296.81,-408 307.44,-401.32 316,-393.5 337.3,-374.05 328.73,-356.54 352,-339.5 357.45,-335.51 363.55,-332.18 369.9,-329.4"/>
<polygon fill="#63b8ff" stroke="#63b8ff" points="371.3,-332.62 379.34,-325.72 368.75,-326.1 371.3,-332.62"/>
</a>
</g>
</g>
<!-- Node6 -->
<g id="Node000006" class="node">
<title>Node6</title>
<g id="a_Node000006"><a xlink:href="namespacem__delay__file__access.html#a9b90086a2cf6bbb569047c955d2e67fe" target="_top" xlink:title=" ">
<polygon fill="white" stroke="#666666" points="494.5,-534.5 377.5,-534.5 377.5,-504.5 494.5,-504.5 494.5,-534.5"/>
<text text-anchor="start" x="385.5" y="-522.5" font-family="Helvetica,sans-Serif" font-size="10.00">m_delay_file_access</text>
<text text-anchor="middle" x="436" y="-511.5" font-family="Helvetica,sans-Serif" font-size="10.00">::delayfileaccess</text>
</a>
</g>
</g>
<!-- Node5&#45;&gt;Node6 -->
<g id="edge5_Node000005_Node000006" class="edge">
<title>Node5&#45;&gt;Node6</title>
<g id="a_edge5_Node000005_Node000006"><a xlink:title=" ">
<path fill="none" stroke="#63b8ff" d="M270.46,-443.74C289.92,-458.73 321.57,-481.37 352,-495.5 357.02,-497.83 362.31,-499.99 367.7,-501.97"/>
<polygon fill="#63b8ff" stroke="#63b8ff" points="366.86,-505.38 377.45,-505.36 369.15,-498.77 366.86,-505.38"/>
</a>
</g>
</g>
<!-- Node7 -->
<g id="Node000007" class="node">
<title>Node7</title>
<g id="a_Node000007"><a xlink:href="namespacem__helper.html#adf827c606652ea511bd0befcc9164c03" target="_top" xlink:title=" ">
<polygon fill="white" stroke="#666666" points="520,-486 352,-486 352,-467 520,-467 520,-486"/>
<text text-anchor="middle" x="436" y="-474" font-family="Helvetica,sans-Serif" font-size="10.00">m_helper::s_downsample_data</text>
</a>
</g>
</g>
<!-- Node5&#45;&gt;Node7 -->
<g id="edge8_Node000005_Node000007" class="edge">
<title>Node5&#45;&gt;Node7</title>
<g id="a_edge8_Node000005_Node000007"><a xlink:title=" ">
<path fill="none" stroke="#63b8ff" d="M299.09,-443.52C315.75,-448.56 334.63,-454.03 352,-458.5 360.4,-460.66 369.33,-462.78 378.09,-464.76"/>
<polygon fill="#63b8ff" stroke="#63b8ff" points="377.36,-468.19 387.88,-466.94 378.88,-461.35 377.36,-468.19"/>
</a>
</g>
</g>
<!-- Node8 -->
<g id="Node000008" class="node">
<title>Node8</title>
<g id="a_Node000008"><a xlink:href="namespacem__boundary__common.html#a759354204f31b7b1ecce6258ffec6a5c" target="_top" xlink:title="The purpose of this procedure is to populate the buffers of the primitive variables,...">
<polygon fill="white" stroke="#666666" points="501.5,-449 370.5,-449 370.5,-408 501.5,-408 501.5,-449"/>
<text text-anchor="start" x="378.5" y="-437" font-family="Helvetica,sans-Serif" font-size="10.00">m_boundary_common::</text>
<text text-anchor="start" x="378.5" y="-426" font-family="Helvetica,sans-Serif" font-size="10.00">s_populate_variables</text>
<text text-anchor="middle" x="436" y="-415" font-family="Helvetica,sans-Serif" font-size="10.00">_buffers</text>
</a>
</g>
</g>
<!-- Node5&#45;&gt;Node8 -->
<g id="edge9_Node000005_Node000008" class="edge">
<title>Node5&#45;&gt;Node8</title>
<g id="a_edge9_Node000005_Node000008"><a xlink:title=" ">
<path fill="none" stroke="#63b8ff" d="M316.2,-428.5C330.45,-428.5 345.66,-428.5 360.27,-428.5"/>
<polygon fill="#63b8ff" stroke="#63b8ff" points="360.27,-432 370.27,-428.5 360.27,-425 360.27,-432"/>
</a>
</g>
</g>
<!-- Node17 -->
<g id="Node000017" class="node">
<title>Node17</title>
<g id="a_Node000017"><a xlink:href="namespacem__boundary__common.html#a2aefea0840d9c981126f0fa7f5087d8f" target="_top" xlink:title=" ">
<polygon fill="white" stroke="#666666" points="508.5,-390 363.5,-390 363.5,-349 508.5,-349 508.5,-390"/>
<text text-anchor="start" x="371.5" y="-378" font-family="Helvetica,sans-Serif" font-size="10.00">m_boundary_common::</text>
<text text-anchor="start" x="371.5" y="-367" font-family="Helvetica,sans-Serif" font-size="10.00">s_write_parallel_boundary</text>
<text text-anchor="middle" x="436" y="-356" font-family="Helvetica,sans-Serif" font-size="10.00">_condition_files</text>
</a>
</g>
</g>
<!-- Node5&#45;&gt;Node17 -->
<g id="edge19_Node000005_Node000017" class="edge">
<title>Node5&#45;&gt;Node17</title>
<g id="a_edge19_Node000005_Node000017"><a xlink:title=" ">
<path fill="none" stroke="#63b8ff" d="M298.28,-413.46C317.43,-407.3 340.06,-400.03 361.33,-393.19"/>
<polygon fill="#63b8ff" stroke="#63b8ff" points="362.55,-396.47 371,-390.08 360.41,-389.81 362.55,-396.47"/>
</a>
</g>
</g>
<!-- Node9 -->
<g id="Node000009" class="node">
<title>Node9</title>
<g id="a_Node000009"><a xlink:href="namespacem__boundary__common.html#a9b74149e76bd88834b76c187501a4e8b" target="_top" xlink:title=" ">
<polygon fill="white" stroke="#666666" points="698.5,-544.5 567.5,-544.5 567.5,-514.5 698.5,-514.5 698.5,-544.5"/>
<text text-anchor="start" x="575.5" y="-532.5" font-family="Helvetica,sans-Serif" font-size="10.00">m_boundary_common::</text>
<text text-anchor="middle" x="633" y="-521.5" font-family="Helvetica,sans-Serif" font-size="10.00">s_axis</text>
</a>
</g>
</g>
<!-- Node8&#45;&gt;Node9 -->
<g id="edge10_Node000008_Node000009" class="edge">
<title>Node8&#45;&gt;Node9</title>
<g id="a_edge10_Node000008_Node000009"><a xlink:title=" ">
<path fill="none" stroke="#63b8ff" d="M501.87,-447.74C508.26,-450.86 514.44,-454.43 520,-458.5 541.23,-474.04 534.46,-490.39 556,-505.5 558.13,-506.99 560.36,-508.4 562.66,-509.72"/>
<polygon fill="#63b8ff" stroke="#63b8ff" points="561.33,-512.97 571.83,-514.4 564.51,-506.73 561.33,-512.97"/>
</a>
</g>
</g>
<!-- Node10 -->
<g id="Node000010" class="node">
<title>Node10</title>
<g id="a_Node000010"><a xlink:href="namespacem__boundary__common.html#abc80bead9c10f8e16f4743c3ce212049" target="_top" xlink:title=" ">
<polygon fill="white" stroke="#666666" points="698.5,-496.5 567.5,-496.5 567.5,-466.5 698.5,-466.5 698.5,-496.5"/>
<text text-anchor="start" x="575.5" y="-484.5" font-family="Helvetica,sans-Serif" font-size="10.00">m_boundary_common::</text>
<text text-anchor="middle" x="633" y="-473.5" font-family="Helvetica,sans-Serif" font-size="10.00">s_dirichlet</text>
</a>
</g>
</g>
<!-- Node8&#45;&gt;Node10 -->
<g id="edge11_Node000008_Node000010" class="edge">
<title>Node8&#45;&gt;Node10</title>
<g id="a_edge11_Node000008_Node000010"><a xlink:title=" ">
<path fill="none" stroke="#63b8ff" d="M501.66,-446.07C522.62,-451.77 545.87,-458.09 566.87,-463.8"/>
<polygon fill="#63b8ff" stroke="#63b8ff" points="566.09,-467.21 576.65,-466.46 567.92,-460.46 566.09,-467.21"/>
</a>
</g>
</g>
<!-- Node11 -->
<g id="Node000011" class="node">
<title>Node11</title>
<g id="a_Node000011"><a xlink:href="namespacem__boundary__common.html#a9cdab2f7fce344328a88551ae040c278" target="_top" xlink:title=" ">
<polygon fill="white" stroke="#666666" points="893,-474.5 746,-474.5 746,-444.5 893,-444.5 893,-474.5"/>
<text text-anchor="start" x="754" y="-462.5" font-family="Helvetica,sans-Serif" font-size="10.00">m_boundary_common::</text>
<text text-anchor="middle" x="819.5" y="-451.5" font-family="Helvetica,sans-Serif" font-size="10.00">s_ghost_cell_extrapolation</text>
</a>
</g>
</g>
<!-- Node8&#45;&gt;Node11 -->
<g id="edge13_Node000008_Node000011" class="edge">
<title>Node8&#45;&gt;Node11</title>
<g id="a_edge13_Node000008_Node000011"><a xlink:title=" ">
<path fill="none" stroke="#63b8ff" d="M501.72,-433.76C566.25,-439 665.62,-447.08 735.83,-452.78"/>
<polygon fill="#63b8ff" stroke="#63b8ff" points="735.72,-456.29 745.97,-453.61 736.29,-449.31 735.72,-456.29"/>
</a>
</g>
</g>
<!-- Node12 -->
<g id="Node000012" class="node">
<title>Node12</title>
<g id="a_Node000012"><a xlink:href="namespacem__boundary__common.html#a505e465e72df1ebdee385da3f52e128c" target="_top" xlink:title=" ">
<polygon fill="white" stroke="#666666" points="698.5,-410.5 567.5,-410.5 567.5,-380.5 698.5,-380.5 698.5,-410.5"/>
<text text-anchor="start" x="575.5" y="-398.5" font-family="Helvetica,sans-Serif" font-size="10.00">m_boundary_common::</text>
<text text-anchor="middle" x="633" y="-387.5" font-family="Helvetica,sans-Serif" font-size="10.00">s_no_slip_wall</text>
</a>
</g>
</g>
<!-- Node8&#45;&gt;Node12 -->
<g id="edge14_Node000008_Node000012" class="edge">
<title>Node8&#45;&gt;Node12</title>
<g id="a_edge14_Node000008_Node000012"><a xlink:title=" ">
<path fill="none" stroke="#63b8ff" d="M501.66,-417.56C519.43,-414.55 538.86,-411.26 557.15,-408.17"/>
<polygon fill="#63b8ff" stroke="#63b8ff" points="557.91,-411.59 567.18,-406.47 556.74,-404.69 557.91,-411.59"/>
</a>
</g>
</g>
<!-- Node13 -->
<g id="Node000013" class="node">
<title>Node13</title>
<g id="a_Node000013"><a xlink:href="namespacem__boundary__common.html#a66500df566e213f303e7e337de5665fc" target="_top" xlink:title=" ">
<polygon fill="white" stroke="#666666" points="698.5,-362.5 567.5,-362.5 567.5,-332.5 698.5,-332.5 698.5,-362.5"/>
<text text-anchor="start" x="575.5" y="-350.5" font-family="Helvetica,sans-Serif" font-size="10.00">m_boundary_common::</text>
<text text-anchor="middle" x="633" y="-339.5" font-family="Helvetica,sans-Serif" font-size="10.00">s_periodic</text>
</a>
</g>
</g>
<!-- Node8&#45;&gt;Node13 -->
<g id="edge15_Node000008_Node000013" class="edge">
<title>Node8&#45;&gt;Node13</title>
<g id="a_edge15_Node000008_Node000013"><a xlink:title=" ">
<path fill="none" stroke="#63b8ff" d="M501.79,-408.2C508.07,-405.54 514.24,-402.64 520,-399.5 537.8,-389.81 538.05,-380.92 556,-371.5 559.48,-369.67 563.13,-367.95 566.86,-366.34"/>
<polygon fill="#63b8ff" stroke="#63b8ff" points="568.3,-369.54 576.27,-362.56 565.69,-363.04 568.3,-369.54"/>
</a>
</g>
</g>
<!-- Node14 -->
<g id="Node000014" class="node">
<title>Node14</title>
<g id="a_Node000014"><a xlink:href="namespacem__boundary__common.html#ab3c9ab4474426f2bbdf90454dbf7711d" target="_top" xlink:title=" ">
<polygon fill="white" stroke="#666666" points="698.5,-314.5 567.5,-314.5 567.5,-284.5 698.5,-284.5 698.5,-314.5"/>
<text text-anchor="start" x="575.5" y="-302.5" font-family="Helvetica,sans-Serif" font-size="10.00">m_boundary_common::</text>
<text text-anchor="middle" x="633" y="-291.5" font-family="Helvetica,sans-Serif" font-size="10.00">s_qbmm_extrapolation</text>
</a>
</g>
</g>
<!-- Node8&#45;&gt;Node14 -->
<g id="edge16_Node000008_Node000014" class="edge">
<title>Node8&#45;&gt;Node14</title>
<g id="a_edge16_Node000008_Node000014"><a xlink:title=" ">
<path fill="none" stroke="#63b8ff" d="M501.55,-411.88C508.23,-408.48 514.55,-404.4 520,-399.5 547.79,-374.51 527.83,-348.06 556,-323.5 557.36,-322.31 558.78,-321.18 560.25,-320.11"/>
<polygon fill="#63b8ff" stroke="#63b8ff" points="562.52,-322.82 569.15,-314.55 558.81,-316.88 562.52,-322.82"/>
</a>
</g>
</g>
<!-- Node15 -->
<g id="Node000015" class="node">
<title>Node15</title>
<g id="a_Node000015"><a xlink:href="namespacem__boundary__common.html#a956b34bbd7704ada90409ea5714690dc" target="_top" xlink:title=" ">
<polygon fill="white" stroke="#666666" points="698.5,-640.5 567.5,-640.5 567.5,-610.5 698.5,-610.5 698.5,-640.5"/>
<text text-anchor="start" x="575.5" y="-628.5" font-family="Helvetica,sans-Serif" font-size="10.00">m_boundary_common::</text>
<text text-anchor="middle" x="633" y="-617.5" font-family="Helvetica,sans-Serif" font-size="10.00">s_slip_wall</text>
</a>
</g>
</g>
<!-- Node8&#45;&gt;Node15 -->
<g id="edge17_Node000008_Node000015" class="edge">
<title>Node8&#45;&gt;Node15</title>
<g id="a_edge17_Node000008_Node000015"><a xlink:title=" ">
<path fill="none" stroke="#63b8ff" d="M501.76,-444.48C508.56,-448.21 514.86,-452.82 520,-458.5 563.96,-507.11 511.05,-553.8 556,-601.5 557.04,-602.6 558.13,-603.65 559.26,-604.66"/>
<polygon fill="#63b8ff" stroke="#63b8ff" points="557.18,-607.47 567.3,-610.6 561.34,-601.84 557.18,-607.47"/>
</a>
</g>
</g>
<!-- Node16 -->
<g id="Node000016" class="node">
<title>Node16</title>
<g id="a_Node000016"><a xlink:href="namespacem__boundary__common.html#a5aa960eb27f5b03cd4dc33e583c69e67" target="_top" xlink:title=" ">
<polygon fill="white" stroke="#666666" points="698.5,-592.5 567.5,-592.5 567.5,-562.5 698.5,-562.5 698.5,-592.5"/>
<text text-anchor="start" x="575.5" y="-580.5" font-family="Helvetica,sans-Serif" font-size="10.00">m_boundary_common::</text>
<text text-anchor="middle" x="633" y="-569.5" font-family="Helvetica,sans-Serif" font-size="10.00">s_symmetry</text>
</a>
</g>
</g>
<!-- Node8&#45;&gt;Node16 -->
<g id="edge18_Node000008_Node000016" class="edge">
<title>Node8&#45;&gt;Node16</title>
<g id="a_edge18_Node000008_Node000016"><a xlink:title=" ">
<path fill="none" stroke="#63b8ff" d="M501.55,-445.29C508.31,-448.88 514.65,-453.23 520,-458.5 552.17,-490.18 523.19,-522.48 556,-553.5 557.13,-554.57 558.31,-555.59 559.53,-556.57"/>
<polygon fill="#63b8ff" stroke="#63b8ff" points="557.86,-559.67 568.11,-562.37 561.79,-553.87 557.86,-559.67"/>
</a>
</g>
</g>
<!-- Node10&#45;&gt;Node11 -->
<g id="edge12_Node000010_Node000011" class="edge">
<title>Node10&#45;&gt;Node11</title>
<g id="a_edge12_Node000010_Node000011"><a xlink:title=" ">
<path fill="none" stroke="#63b8ff" d="M698.53,-473.81C710.58,-472.37 723.33,-470.85 735.84,-469.36"/>
<polygon fill="#63b8ff" stroke="#63b8ff" points="736.29,-472.83 745.81,-468.17 735.46,-465.88 736.29,-472.83"/>
</a>
</g>
</g>
<!-- Node18 -->
<g id="Node000018" class="node">
<title>Node18</title>
<g id="a_Node000018"><a xlink:href="namespacem__boundary__common.html#ab5d422a797dcdf7a95587c937dbdf74c" target="_top" xlink:title=" ">
<polygon fill="white" stroke="#666666" points="698.5,-266.5 567.5,-266.5 567.5,-236.5 698.5,-236.5 698.5,-266.5"/>
<text text-anchor="start" x="575.5" y="-254.5" font-family="Helvetica,sans-Serif" font-size="10.00">m_boundary_common::</text>
<text text-anchor="middle" x="633" y="-243.5" font-family="Helvetica,sans-Serif" font-size="10.00">s_create_mpi_types</text>
</a>
</g>
</g>
<!-- Node17&#45;&gt;Node18 -->
<g id="edge20_Node000017_Node000018" class="edge">
<title>Node17&#45;&gt;Node18</title>
<g id="a_edge20_Node000017_Node000018"><a xlink:title=" ">
<path fill="none" stroke="#63b8ff" d="M506.62,-348.78C511.38,-346.04 515.91,-342.97 520,-339.5 544.91,-318.41 530.67,-296.08 556,-275.5 557.57,-274.22 559.21,-273.02 560.91,-271.87"/>
<polygon fill="#63b8ff" stroke="#63b8ff" points="562.93,-274.74 569.78,-266.67 559.39,-268.7 562.93,-274.74"/>
</a>
</g>
</g>
<!-- Node19 -->
<g id="Node000019" class="node">
<title>Node19</title>
<g id="a_Node000019"><a xlink:href="namespacem__boundary__common.html#a2e01dd2beffea80860bb348cf62d4cb3" target="_top" xlink:title=" ">
<polygon fill="white" stroke="#666666" points="709,-218 557,-218 557,-177 709,-177 709,-218"/>
<text text-anchor="start" x="565" y="-206" font-family="Helvetica,sans-Serif" font-size="10.00">m_boundary_common::</text>
<text text-anchor="start" x="565" y="-195" font-family="Helvetica,sans-Serif" font-size="10.00">s_pack_boundary_condition</text>
<text text-anchor="middle" x="633" y="-184" font-family="Helvetica,sans-Serif" font-size="10.00">_buffers</text>
</a>
</g>
</g>
<!-- Node17&#45;&gt;Node19 -->
<g id="edge21_Node000017_Node000019" class="edge">
<title>Node17&#45;&gt;Node19</title>
<g id="a_edge21_Node000017_Node000019"><a xlink:title=" ">
<path fill="none" stroke="#63b8ff" d="M508.61,-348.89C512.75,-346.14 516.6,-343.03 520,-339.5 556.3,-301.87 520.25,-265.65 556,-227.5 557.03,-226.4 558.11,-225.34 559.22,-224.32"/>
<polygon fill="#63b8ff" stroke="#63b8ff" points="561.41,-227.05 567.11,-218.11 557.08,-221.55 561.41,-227.05"/>
</a>
</g>
</g>
<!-- Node20&#45;&gt;Node3 -->
<g id="edge29_Node000020_Node000003" class="edge">
<title>Node20&#45;&gt;Node3</title>
<g id="a_edge29_Node000020_Node000003"><a xlink:title=" ">
<path fill="none" stroke="#63b8ff" d="M279.98,-258.65C299.8,-268.81 327.06,-282.01 352,-291.5 357.57,-293.62 363.41,-295.66 369.3,-297.59"/>
<polygon fill="#63b8ff" stroke="#63b8ff" points="368.63,-301.05 379.22,-300.74 370.75,-294.38 368.63,-301.05"/>
</a>
</g>
</g>
<!-- Node21 -->
<g id="Node000021" class="node">
<title>Node21</title>
<g id="a_Node000021"><a xlink:href="namespacem__helper.html#a0a36e69f1a89adce98dd4011e60809a3" target="_top" xlink:title=" ">
<polygon fill="white" stroke="#666666" points="494.5,-282.5 377.5,-282.5 377.5,-252.5 494.5,-252.5 494.5,-282.5"/>
<text text-anchor="start" x="385.5" y="-270.5" font-family="Helvetica,sans-Serif" font-size="10.00">m_helper::s_comp_n</text>
<text text-anchor="middle" x="436" y="-259.5" font-family="Helvetica,sans-Serif" font-size="10.00">_from_cons</text>
</a>
</g>
</g>
<!-- Node20&#45;&gt;Node21 -->
<g id="edge23_Node000020_Node000021" class="edge">
<title>Node20&#45;&gt;Node21</title>
<g id="a_edge23_Node000020_Node000021"><a xlink:title=" ">
<path fill="none" stroke="#63b8ff" d="M316.2,-251.96C332.69,-254.12 350.46,-256.44 367.11,-258.62"/>
<polygon fill="#63b8ff" stroke="#63b8ff" points="366.93,-262.13 377.3,-259.95 367.84,-255.19 366.93,-262.13"/>
</a>
</g>
</g>
<!-- Node22 -->
<g id="Node000022" class="node">
<title>Node22</title>
<g id="a_Node000022"><a xlink:href="namespacem__variables__conversion.html#a58c19a9ba2767016cd7c916cd52b8d0e" target="_top" xlink:title="This procedure conditionally calculates the appropriate pressure.">
<polygon fill="white" stroke="#666666" points="503.5,-234.5 368.5,-234.5 368.5,-204.5 503.5,-204.5 503.5,-234.5"/>
<text text-anchor="start" x="376.5" y="-222.5" font-family="Helvetica,sans-Serif" font-size="10.00">m_variables_conversion</text>
<text text-anchor="middle" x="436" y="-211.5" font-family="Helvetica,sans-Serif" font-size="10.00">::s_compute_pressure</text>
</a>
</g>
</g>
<!-- Node20&#45;&gt;Node22 -->
<g id="edge24_Node000020_Node000022" class="edge">
<title>Node20&#45;&gt;Node22</title>
<g id="a_edge24_Node000020_Node000022"><a xlink:title=" ">
<path fill="none" stroke="#63b8ff" d="M316.2,-235.04C329.81,-233.26 344.3,-231.36 358.31,-229.53"/>
<polygon fill="#63b8ff" stroke="#63b8ff" points="358.95,-232.98 368.41,-228.21 358.04,-226.04 358.95,-232.98"/>
</a>
</g>
</g>
<!-- Node23 -->
<g id="Node000023" class="node">
<title>Node23</title>
<g id="a_Node000023"><a xlink:href="namespacem__variables__conversion.html#ad79dc943a9108e838d80bb2b264fba8e" target="_top" xlink:title="Dispatch to the s_convert_mixture_to_mixture_variables and s_convert_species_to_mixture_variables sub...">
<polygon fill="white" stroke="#666666" points="503.5,-118 368.5,-118 368.5,-77 503.5,-77 503.5,-118"/>
<text text-anchor="start" x="376.5" y="-106" font-family="Helvetica,sans-Serif" font-size="10.00">m_variables_conversion</text>
<text text-anchor="start" x="376.5" y="-95" font-family="Helvetica,sans-Serif" font-size="10.00">::s_convert_to_mixture</text>
<text text-anchor="middle" x="436" y="-84" font-family="Helvetica,sans-Serif" font-size="10.00">_variables</text>
</a>
</g>
</g>
<!-- Node20&#45;&gt;Node23 -->
<g id="edge25_Node000020_Node000023" class="edge">
<title>Node20&#45;&gt;Node23</title>
<g id="a_edge25_Node000020_Node000023"><a xlink:title=" ">
<path fill="none" stroke="#63b8ff" d="M262.36,-228.48C279.35,-205.86 314.21,-162.79 352,-135.5 358.41,-130.87 365.48,-126.6 372.71,-122.72"/>
<polygon fill="#63b8ff" stroke="#63b8ff" points="374.59,-125.7 381.9,-118.03 371.41,-119.46 374.59,-125.7"/>
</a>
</g>
</g>
<!-- Node27 -->
<g id="Node000027" class="node">
<title>Node27</title>
<g id="a_Node000027"><a xlink:href="namespacem__boundary__common.html#a04bb55ffb9504d0ae722e1152874288b" target="_top" xlink:title=" ">
<polygon fill="white" stroke="#666666" points="503.5,-186 368.5,-186 368.5,-145 503.5,-145 503.5,-186"/>
<text text-anchor="start" x="376.5" y="-174" font-family="Helvetica,sans-Serif" font-size="10.00">m_boundary_common::</text>
<text text-anchor="start" x="376.5" y="-163" font-family="Helvetica,sans-Serif" font-size="10.00">s_write_serial_boundary</text>
<text text-anchor="middle" x="436" y="-152" font-family="Helvetica,sans-Serif" font-size="10.00">_condition_files</text>
</a>
</g>
</g>
<!-- Node20&#45;&gt;Node27 -->
<g id="edge30_Node000020_Node000027" class="edge">
<title>Node20&#45;&gt;Node27</title>
<g id="a_edge30_Node000020_Node000027"><a xlink:title=" ">
<path fill="none" stroke="#63b8ff" d="M281.05,-228.44C300.89,-218.56 327.74,-205.65 352,-195.5 356.65,-193.55 361.48,-191.61 366.36,-189.71"/>
<polygon fill="#63b8ff" stroke="#63b8ff" points="367.7,-192.94 375.78,-186.09 365.19,-186.41 367.7,-192.94"/>
</a>
</g>
</g>
<!-- Node24 -->
<g id="Node000024" class="node">
<title>Node24</title>
<g id="a_Node000024"><a xlink:href="namespacem__variables__conversion.html#a8b30b668d9de48d0bf0d53fa56116847" target="_top" xlink:title="This subroutine is designed for the gamma/pi_inf model and provided a set of either conservative or p...">
<polygon fill="white" stroke="#666666" points="700.5,-41 565.5,-41 565.5,0 700.5,0 700.5,-41"/>
<text text-anchor="start" x="573.5" y="-29" font-family="Helvetica,sans-Serif" font-size="10.00">m_variables_conversion</text>
<text text-anchor="start" x="573.5" y="-18" font-family="Helvetica,sans-Serif" font-size="10.00">::s_convert_mixture_to</text>
<text text-anchor="middle" x="633" y="-7" font-family="Helvetica,sans-Serif" font-size="10.00">_mixture_variables</text>
</a>
</g>
</g>
<!-- Node23&#45;&gt;Node24 -->
<g id="edge26_Node000023_Node000024" class="edge">
<title>Node23&#45;&gt;Node24</title>
<g id="a_edge26_Node000023_Node000024"><a xlink:title=" ">
<path fill="none" stroke="#63b8ff" d="M487.29,-76.97C508.47,-68.39 533.4,-58.37 556,-49.5 559.92,-47.96 563.96,-46.39 568.03,-44.81"/>
<polygon fill="#63b8ff" stroke="#63b8ff" points="569.5,-47.99 577.57,-41.13 566.98,-41.46 569.5,-47.99"/>
</a>
</g>
</g>
<!-- Node25 -->
<g id="Node000025" class="node">
<title>Node25</title>
<g id="a_Node000025"><a xlink:href="namespacem__variables__conversion.html#a7f3bffa0ba13432f79f095a78fcf6e5a" target="_top" xlink:title="This subroutine is designed for the volume fraction model and provided a set of either conservative o...">
<polygon fill="white" stroke="#666666" points="700.5,-159 565.5,-159 565.5,-118 700.5,-118 700.5,-159"/>
<text text-anchor="start" x="573.5" y="-147" font-family="Helvetica,sans-Serif" font-size="10.00">m_variables_conversion</text>
<text text-anchor="start" x="573.5" y="-136" font-family="Helvetica,sans-Serif" font-size="10.00">::s_convert_species_to</text>
<text text-anchor="middle" x="633" y="-125" font-family="Helvetica,sans-Serif" font-size="10.00">_mixture_variables</text>
</a>
</g>
</g>
<!-- Node23&#45;&gt;Node25 -->
<g id="edge27_Node000023_Node000025" class="edge">
<title>Node23&#45;&gt;Node25</title>
<g id="a_edge27_Node000023_Node000025"><a xlink:title=" ">
<path fill="none" stroke="#63b8ff" d="M503.56,-111.5C520.26,-115.01 538.3,-118.8 555.44,-122.4"/>
<polygon fill="#63b8ff" stroke="#63b8ff" points="554.9,-125.87 565.41,-124.5 556.34,-119.02 554.9,-125.87"/>
</a>
</g>
</g>
<!-- Node26 -->
<g id="Node000026" class="node">
<title>Node26</title>
<g id="a_Node000026"><a xlink:href="namespacem__variables__conversion.html#a57f893a44db2368e82339b2993a05ff4" target="_top" xlink:title="This procedure is used alongside with the gamma/pi_inf model to transfer the density,...">
<polygon fill="white" stroke="#666666" points="710,-100 556,-100 556,-59 710,-59 710,-100"/>
<text text-anchor="start" x="564" y="-88" font-family="Helvetica,sans-Serif" font-size="10.00">m_variables_conversion</text>
<text text-anchor="start" x="564" y="-77" font-family="Helvetica,sans-Serif" font-size="10.00">::s_convert_species_to</text>
<text text-anchor="middle" x="633" y="-66" font-family="Helvetica,sans-Serif" font-size="10.00">_mixture_variables_bubbles</text>
</a>
</g>
</g>
<!-- Node23&#45;&gt;Node26 -->
<g id="edge28_Node000023_Node000026" class="edge">
<title>Node23&#45;&gt;Node26</title>
<g id="a_edge28_Node000023_Node000026"><a xlink:title=" ">
<path fill="none" stroke="#63b8ff" d="M503.56,-91.36C517.06,-90.11 531.43,-88.78 545.5,-87.48"/>
<polygon fill="#63b8ff" stroke="#63b8ff" points="546.04,-90.95 555.67,-86.55 545.39,-83.98 546.04,-90.95"/>
</a>
</g>
</g>
<!-- Node27&#45;&gt;Node19 -->
<g id="edge31_Node000027_Node000019" class="edge">
<title>Node27&#45;&gt;Node19</title>
<g id="a_edge31_Node000027_Node000019"><a xlink:title=" ">
<path fill="none" stroke="#63b8ff" d="M503.56,-176.42C517.46,-178.7 532.29,-181.14 546.75,-183.51"/>
<polygon fill="#63b8ff" stroke="#63b8ff" points="546.26,-186.98 556.69,-185.14 547.39,-180.07 546.26,-186.98"/>
</a>
</g>
</g>
</g>
</svg>
