<?xml version="1.0" encoding="UTF-8" standalone="no"?>
<!DOCTYPE svg PUBLIC "-//W3C//DTD SVG 1.1//EN"
 "http://www.w3.org/Graphics/SVG/1.1/DTD/svg11.dtd">
<!-- Generated by graphviz version 2.43.0 (0)
 -->
<!-- Title: m_perturbation::modmul Pages: 1 -->
<svg width="1065pt" height="57pt"
 viewBox="0.00 0.00 1065.00 57.00" xmlns="http://www.w3.org/2000/svg" xmlns:xlink="http://www.w3.org/1999/xlink">
<g id="graph0" class="graph" transform="scale(1 1) rotate(0) translate(4 53)">
<title>m_perturbation::modmul</title>
<!-- Node1 -->
<g id="Node000001" class="node">
<title>Node1</title>
<g id="a_Node000001"><a xlink:title=" ">
<polygon fill="#999999" stroke="#666666" points="1057,-38 919,-38 919,-19 1057,-19 1057,-38"/>
<text text-anchor="middle" x="988" y="-26" font-family="Helvetica,sans-Serif" font-size="10.00">m_perturbation::modmul</text>
</a>
</g>
</g>
<!-- Node2 -->
<g id="Node000002" class="node">
<title>Node2</title>
<g id="a_Node000002"><a xlink:href="namespacem__perturbation.html#a49336011b98f1698ccd754d19a70db20" target="_top" xlink:title=" ">
<polygon fill="white" stroke="#666666" points="717,-43.5 565,-43.5 565,-13.5 717,-13.5 717,-43.5"/>
<text text-anchor="start" x="573" y="-31.5" font-family="Helvetica,sans-Serif" font-size="10.00">m_perturbation::s_generate</text>
<text text-anchor="middle" x="641" y="-20.5" font-family="Helvetica,sans-Serif" font-size="10.00">_random_perturbation</text>
</a>
</g>
</g>
<!-- Node1&#45;&gt;Node2 -->
<g id="edge1_Node000001_Node000002" class="edge">
<title>Node1&#45;&gt;Node2</title>
<g id="a_edge1_Node000001_Node000002"><a xlink:title=" ">
<path fill="none" stroke="#63b8ff" d="M908.73,-28.5C851.33,-28.5 773.87,-28.5 717.21,-28.5"/>
<polygon fill="#63b8ff" stroke="#63b8ff" points="908.84,-32 918.84,-28.5 908.84,-25 908.84,-32"/>
</a>
</g>
</g>
<!-- Node7 -->
<g id="Node000007" class="node">
<title>Node7</title>
<g id="a_Node000007"><a xlink:href="namespacem__perturbation.html#a54bbfa24f96c984b26015bddcfb59ee4" target="_top" xlink:title="This function generates a pseudo&#45;random number between 0 and 1 based on linear congruential generator...">
<polygon fill="white" stroke="#666666" points="883,-19 753,-19 753,0 883,0 883,-19"/>
<text text-anchor="middle" x="818" y="-7" font-family="Helvetica,sans-Serif" font-size="10.00">m_perturbation::s_prng</text>
</a>
</g>
</g>
<!-- Node1&#45;&gt;Node7 -->
<g id="edge6_Node000001_Node000007" class="edge">
<title>Node1&#45;&gt;Node7</title>
<g id="a_edge6_Node000001_Node000007"><a xlink:title=" ">
<path fill="none" stroke="#63b8ff" d="M908.7,-19.64C900.16,-18.68 891.54,-17.7 883.2,-16.76"/>
<polygon fill="#63b8ff" stroke="#63b8ff" points="908.34,-23.13 918.67,-20.77 909.12,-16.17 908.34,-23.13"/>
</a>
</g>
</g>
<!-- Node3 -->
<g id="Node000003" class="node">
<title>Node3</title>
<g id="a_Node000003"><a xlink:href="namespacem__perturbation.html#afa02cfb00a8406637b02037a5d8a05ae" target="_top" xlink:title="This subroutine computes velocity perturbations for a temporal mixing layer with a hyperbolic tangent...">
<polygon fill="white" stroke="#666666" points="529,-43.5 386,-43.5 386,-13.5 529,-13.5 529,-43.5"/>
<text text-anchor="start" x="394" y="-31.5" font-family="Helvetica,sans-Serif" font-size="10.00">m_perturbation::s_perturb</text>
<text text-anchor="middle" x="457.5" y="-20.5" font-family="Helvetica,sans-Serif" font-size="10.00">_mixlayer</text>
</a>
</g>
</g>
<!-- Node2&#45;&gt;Node3 -->
<g id="edge2_Node000002_Node000003" class="edge">
<title>Node2&#45;&gt;Node3</title>
<g id="a_edge2_Node000002_Node000003"><a xlink:title=" ">
<path fill="none" stroke="#63b8ff" d="M554.84,-28.5C546.26,-28.5 537.61,-28.5 529.21,-28.5"/>
<polygon fill="#63b8ff" stroke="#63b8ff" points="554.87,-32 564.87,-28.5 554.87,-25 554.87,-32"/>
</a>
</g>
</g>
<!-- Node4 -->
<g id="Node000004" class="node">
<title>Node4</title>
<g id="a_Node000004"><a xlink:href="namespacem__initial__condition.html#ae5ca036f43a2eebe1e2cc84fc9c61d28" target="_top" xlink:title="This subroutine peruses the patches and depending on the type of geometry associated with a particula...">
<polygon fill="white" stroke="#666666" points="350,-49 240,-49 240,-8 350,-8 350,-49"/>
<text text-anchor="start" x="248" y="-37" font-family="Helvetica,sans-Serif" font-size="10.00">m_initial_condition</text>
<text text-anchor="start" x="248" y="-26" font-family="Helvetica,sans-Serif" font-size="10.00">::s_generate_initial</text>
<text text-anchor="middle" x="295" y="-15" font-family="Helvetica,sans-Serif" font-size="10.00">_condition</text>
</a>
</g>
</g>
<!-- Node3&#45;&gt;Node4 -->
<g id="edge3_Node000003_Node000004" class="edge">
<title>Node3&#45;&gt;Node4</title>
<g id="a_edge3_Node000003_Node000004"><a xlink:title=" ">
<path fill="none" stroke="#63b8ff" d="M375.53,-28.5C366.91,-28.5 358.3,-28.5 350.09,-28.5"/>
<polygon fill="#63b8ff" stroke="#63b8ff" points="375.64,-32 385.64,-28.5 375.64,-25 375.64,-32"/>
</a>
</g>
</g>
<!-- Node5 -->
<g id="Node000005" class="node">
<title>Node5</title>
<g id="a_Node000005"><a xlink:href="namespacem__start__up.html#a513ef24d6c8beafb8b94c015db266100" target="_top" xlink:title=" ">
<polygon fill="white" stroke="#666666" points="204,-43.5 89,-43.5 89,-13.5 204,-13.5 204,-43.5"/>
<text text-anchor="start" x="97" y="-31.5" font-family="Helvetica,sans-Serif" font-size="10.00">m_start_up::s_apply</text>
<text text-anchor="middle" x="146.5" y="-20.5" font-family="Helvetica,sans-Serif" font-size="10.00">_initial_condition</text>
</a>
</g>
</g>
<!-- Node4&#45;&gt;Node5 -->
<g id="edge4_Node000004_Node000005" class="edge">
<title>Node4&#45;&gt;Node5</title>
<g id="a_edge4_Node000004_Node000005"><a xlink:title=" ">
<path fill="none" stroke="#63b8ff" d="M229.69,-28.5C221.25,-28.5 212.66,-28.5 204.36,-28.5"/>
<polygon fill="#63b8ff" stroke="#63b8ff" points="229.87,-32 239.87,-28.5 229.87,-25 229.87,-32"/>
</a>
</g>
</g>
<!-- Node6 -->
<g id="Node000006" class="node">
<title>Node6</title>
<g id="a_Node000006"><a xlink:href="p__main_8f90.html#aeec10ee8e2940c953967da3e374e1579" target="_top" xlink:title="This program takes care of setting up the initial condition and grid data for the multicomponent flow...">
<polygon fill="white" stroke="#666666" points="53,-38 0,-38 0,-19 53,-19 53,-38"/>
<text text-anchor="middle" x="26.5" y="-26" font-family="Helvetica,sans-Serif" font-size="10.00">p_main</text>
</a>
</g>
</g>
<!-- Node5&#45;&gt;Node6 -->
<g id="edge5_Node000005_Node000006" class="edge">
<title>Node5&#45;&gt;Node6</title>
<g id="a_edge5_Node000005_Node000006"><a xlink:title=" ">
<path fill="none" stroke="#63b8ff" d="M78.65,-28.5C69.6,-28.5 60.81,-28.5 53.13,-28.5"/>
<polygon fill="#63b8ff" stroke="#63b8ff" points="78.92,-32 88.92,-28.5 78.92,-25 78.92,-32"/>
</a>
</g>
</g>
<!-- Node7&#45;&gt;Node2 -->
<g id="edge7_Node000007_Node000002" class="edge">
<title>Node7&#45;&gt;Node2</title>
<g id="a_edge7_Node000007_Node000002"><a xlink:title=" ">
<path fill="none" stroke="#63b8ff" d="M742.64,-17.57C734.2,-18.49 725.59,-19.42 717.13,-20.34"/>
<polygon fill="#63b8ff" stroke="#63b8ff" points="743.27,-21.03 752.83,-16.47 742.51,-14.07 743.27,-21.03"/>
</a>
</g>
</g>
</g>
</svg>
