<?xml version="1.0" encoding="UTF-8" standalone="no"?>
<!DOCTYPE svg PUBLIC "-//W3C//DTD SVG 1.1//EN"
 "http://www.w3.org/Graphics/SVG/1.1/DTD/svg11.dtd">
<!-- Generated by graphviz version 2.43.0 (0)
 -->
<!-- Title: m_checker_common::s_check_inputs_surface_tension Pages: 1 -->
<svg width="466pt" height="65pt"
 viewBox="0.00 0.00 466.00 64.50" xmlns="http://www.w3.org/2000/svg" xmlns:xlink="http://www.w3.org/1999/xlink">
<g id="graph0" class="graph" transform="scale(1 1) rotate(0) translate(4 60.5)">
<title>m_checker_common::s_check_inputs_surface_tension</title>
<!-- Node1 -->
<g id="Node000001" class="node">
<title>Node1</title>
<g id="a_Node000001"><a xlink:title="Checks constraints on the surface tension parameters. Called by s_check_inputs_common for all three s...">
<polygon fill="#999999" stroke="#666666" points="128,-56.5 0,-56.5 0,-15.5 128,-15.5 128,-56.5"/>
<text text-anchor="start" x="8" y="-44.5" font-family="Helvetica,sans-Serif" font-size="10.00">m_checker_common::s</text>
<text text-anchor="start" x="8" y="-33.5" font-family="Helvetica,sans-Serif" font-size="10.00">_check_inputs_surface</text>
<text text-anchor="middle" x="64" y="-22.5" font-family="Helvetica,sans-Serif" font-size="10.00">_tension</text>
</a>
</g>
</g>
<!-- Node2 -->
<g id="Node000002" class="node">
<title>Node2</title>
<g id="a_Node000002"><a xlink:href="namespacem__helper__basic.html#a58590a12d49b9b884256a839f2be8610" target="_top" xlink:title="This procedure checks if two floating point numbers of wp are within tolerance.">
<polygon fill="white" stroke="#666666" points="458,-51 316,-51 316,-21 458,-21 458,-51"/>
<text text-anchor="start" x="324" y="-39" font-family="Helvetica,sans-Serif" font-size="10.00">m_helper_basic::f_approx</text>
<text text-anchor="middle" x="387" y="-28" font-family="Helvetica,sans-Serif" font-size="10.00">_equal</text>
</a>
</g>
</g>
<!-- Node1&#45;&gt;Node2 -->
<g id="edge1_Node000001_Node000002" class="edge">
<title>Node1&#45;&gt;Node2</title>
<g id="a_edge1_Node000001_Node000002"><a xlink:title=" ">
<path fill="none" stroke="#63b8ff" d="M128.1,-38.2C140.03,-38.53 152.39,-38.82 164,-39 215.55,-39.78 228.45,-39.73 280,-39 288.34,-38.88 297.04,-38.71 305.72,-38.51"/>
<polygon fill="#63b8ff" stroke="#63b8ff" points="305.96,-42.01 315.87,-38.26 305.79,-35.01 305.96,-42.01"/>
</a>
</g>
</g>
<!-- Node3 -->
<g id="Node000003" class="node">
<title>Node3</title>
<g id="a_Node000003"><a xlink:href="namespacem__helper__basic.html#a345e205ced0b0674a22f59a2c1549eb4" target="_top" xlink:title="Checks if a real(wp) variable is of default value.">
<polygon fill="white" stroke="#666666" points="280,-30 164,-30 164,0 280,0 280,-30"/>
<text text-anchor="start" x="172" y="-18" font-family="Helvetica,sans-Serif" font-size="10.00">m_helper_basic::f_is</text>
<text text-anchor="middle" x="222" y="-7" font-family="Helvetica,sans-Serif" font-size="10.00">_default</text>
</a>
</g>
</g>
<!-- Node1&#45;&gt;Node3 -->
<g id="edge2_Node000001_Node000003" class="edge">
<title>Node1&#45;&gt;Node3</title>
<g id="a_edge2_Node000001_Node000003"><a xlink:title=" ">
<path fill="none" stroke="#63b8ff" d="M128,-27.52C136.51,-26.37 145.27,-25.19 153.85,-24.04"/>
<polygon fill="#63b8ff" stroke="#63b8ff" points="154.36,-27.5 163.81,-22.7 153.43,-20.56 154.36,-27.5"/>
</a>
</g>
</g>
<!-- Node3&#45;&gt;Node2 -->
<g id="edge3_Node000003_Node000002" class="edge">
<title>Node3&#45;&gt;Node2</title>
<g id="a_edge3_Node000003_Node000002"><a xlink:title=" ">
<path fill="none" stroke="#63b8ff" d="M280.01,-22.34C288.32,-23.42 297.01,-24.54 305.68,-25.65"/>
<polygon fill="#63b8ff" stroke="#63b8ff" points="305.47,-29.15 315.83,-26.96 306.36,-22.21 305.47,-29.15"/>
</a>
</g>
</g>
</g>
</svg>
