<?xml version="1.0" encoding="UTF-8" standalone="no"?>
<!DOCTYPE svg PUBLIC "-//W3C//DTD SVG 1.1//EN"
 "http://www.w3.org/Graphics/SVG/1.1/DTD/svg11.dtd">
<!-- Generated by graphviz version 2.43.0 (0)
 -->
<!-- Title: m_mpi_common::s_mpi_reduce_min Pages: 1 -->
<svg width="568pt" height="86pt"
 viewBox="0.00 0.00 568.00 86.00" xmlns="http://www.w3.org/2000/svg" xmlns:xlink="http://www.w3.org/1999/xlink">
<g id="graph0" class="graph" transform="scale(1 1) rotate(0) translate(4 82)">
<title>m_mpi_common::s_mpi_reduce_min</title>
<!-- Node1 -->
<g id="Node000001" class="node">
<title>Node1</title>
<g id="a_Node000001"><a xlink:title="The following subroutine takes the inputted variable and determines its minimum value on the entire c...">
<polygon fill="#999999" stroke="#666666" points="560,-54 426,-54 426,-24 560,-24 560,-54"/>
<text text-anchor="start" x="434" y="-42" font-family="Helvetica,sans-Serif" font-size="10.00">m_mpi_common::s_mpi</text>
<text text-anchor="middle" x="493" y="-31" font-family="Helvetica,sans-Serif" font-size="10.00">_reduce_min</text>
</a>
</g>
</g>
<!-- Node2 -->
<g id="Node000002" class="node">
<title>Node2</title>
<g id="a_Node000002"><a xlink:href="namespacem__start__up.html#af83f003fb19a86e776744613acfd74e7" target="_top" xlink:title="Cell&#45;boundary data are checked for consistency by looking at the (non&#45;)uniform cell&#45;width distributio...">
<polygon fill="white" stroke="#666666" points="390,-78 255,-78 255,-48 390,-48 390,-78"/>
<text text-anchor="start" x="263" y="-66" font-family="Helvetica,sans-Serif" font-size="10.00">m_start_up::s_read</text>
<text text-anchor="middle" x="322.5" y="-55" font-family="Helvetica,sans-Serif" font-size="10.00">_parallel_grid_data_files</text>
</a>
</g>
</g>
<!-- Node1&#45;&gt;Node2 -->
<g id="edge1_Node000001_Node000002" class="edge">
<title>Node1&#45;&gt;Node2</title>
<g id="a_edge1_Node000001_Node000002"><a xlink:title=" ">
<path fill="none" stroke="#63b8ff" d="M415.91,-49.84C407.35,-51.06 398.68,-52.29 390.25,-53.49"/>
<polygon fill="#63b8ff" stroke="#63b8ff" points="416.48,-53.29 425.89,-48.42 415.49,-46.36 416.48,-53.29"/>
</a>
</g>
</g>
<!-- Node5 -->
<g id="Node000005" class="node">
<title>Node5</title>
<g id="a_Node000005"><a xlink:href="namespacem__start__up.html#a6a43c0e78ce8e3a0c1b636affd6ee2a0" target="_top" xlink:title="The goal of this subroutine is to read in any preexisting grid data as well as based on the imported ...">
<polygon fill="white" stroke="#666666" points="385,-30 260,-30 260,0 385,0 385,-30"/>
<text text-anchor="start" x="268" y="-18" font-family="Helvetica,sans-Serif" font-size="10.00">m_start_up::s_read</text>
<text text-anchor="middle" x="322.5" y="-7" font-family="Helvetica,sans-Serif" font-size="10.00">_serial_grid_data_files</text>
</a>
</g>
</g>
<!-- Node1&#45;&gt;Node5 -->
<g id="edge4_Node000001_Node000005" class="edge">
<title>Node1&#45;&gt;Node5</title>
<g id="a_edge4_Node000001_Node000005"><a xlink:title=" ">
<path fill="none" stroke="#63b8ff" d="M415.69,-28.13C405.42,-26.67 394.99,-25.18 385.02,-23.76"/>
<polygon fill="#63b8ff" stroke="#63b8ff" points="415.49,-31.64 425.89,-29.58 416.48,-24.71 415.49,-31.64"/>
</a>
</g>
</g>
<!-- Node3 -->
<g id="Node000003" class="node">
<title>Node3</title>
<g id="a_Node000003"><a xlink:href="namespacem__start__up.html#a1fb7a3f9d412acd2a9cbcfe8b45006dd" target="_top" xlink:title=" ">
<polygon fill="white" stroke="#666666" points="219,-54 89,-54 89,-24 219,-24 219,-54"/>
<text text-anchor="start" x="97" y="-42" font-family="Helvetica,sans-Serif" font-size="10.00">m_start_up::s_initialize</text>
<text text-anchor="middle" x="154" y="-31" font-family="Helvetica,sans-Serif" font-size="10.00">_modules</text>
</a>
</g>
</g>
<!-- Node2&#45;&gt;Node3 -->
<g id="edge2_Node000002_Node000003" class="edge">
<title>Node2&#45;&gt;Node3</title>
<g id="a_edge2_Node000002_Node000003"><a xlink:title=" ">
<path fill="none" stroke="#63b8ff" d="M244.73,-51.93C236.15,-50.7 227.47,-49.45 219.07,-48.24"/>
<polygon fill="#63b8ff" stroke="#63b8ff" points="244.34,-55.41 254.74,-53.38 245.34,-48.49 244.34,-55.41"/>
</a>
</g>
</g>
<!-- Node4 -->
<g id="Node000004" class="node">
<title>Node4</title>
<g id="a_Node000004"><a xlink:href="p__main_8f90.html#aeec10ee8e2940c953967da3e374e1579" target="_top" xlink:title="This program takes care of setting up the initial condition and grid data for the multicomponent flow...">
<polygon fill="white" stroke="#666666" points="53,-48.5 0,-48.5 0,-29.5 53,-29.5 53,-48.5"/>
<text text-anchor="middle" x="26.5" y="-36.5" font-family="Helvetica,sans-Serif" font-size="10.00">p_main</text>
</a>
</g>
</g>
<!-- Node3&#45;&gt;Node4 -->
<g id="edge3_Node000003_Node000004" class="edge">
<title>Node3&#45;&gt;Node4</title>
<g id="a_edge3_Node000003_Node000004"><a xlink:title=" ">
<path fill="none" stroke="#63b8ff" d="M78.74,-39C69.58,-39 60.76,-39 53.09,-39"/>
<polygon fill="#63b8ff" stroke="#63b8ff" points="78.78,-42.5 88.78,-39 78.78,-35.5 78.78,-42.5"/>
</a>
</g>
</g>
<!-- Node5&#45;&gt;Node3 -->
<g id="edge5_Node000005_Node000003" class="edge">
<title>Node5&#45;&gt;Node3</title>
<g id="a_edge5_Node000005_Node000003"><a xlink:title=" ">
<path fill="none" stroke="#63b8ff" d="M249.84,-25.33C239.61,-26.8 229.14,-28.31 219.06,-29.77"/>
<polygon fill="#63b8ff" stroke="#63b8ff" points="250.58,-28.76 259.97,-23.87 249.58,-21.83 250.58,-28.76"/>
</a>
</g>
</g>
</g>
</svg>
