<?xml version="1.0" encoding="UTF-8" standalone="no"?>
<!DOCTYPE svg PUBLIC "-//W3C//DTD SVG 1.1//EN"
 "http://www.w3.org/Graphics/SVG/1.1/DTD/svg11.dtd">
<!-- Generated by graphviz version 2.43.0 (0)
 -->
<!-- Title: m_check_ib_patches::s_check_ib_patches Pages: 1 -->
<!--zoomable 560 -->

<svg id="main" version="1.1" xmlns="http://www.w3.org/2000/svg" xmlns:xlink="http://www.w3.org/1999/xlink" xml:space="preserve" onload="init(evt)">

<style type="text/css"><![CDATA[
.node, .edge {opacity: 0.7;}
.node.selected, .edge.selected {opacity: 1;}
.edge:hover path { stroke: red; }
.edge:hover polygon { stroke: red; fill: red; }
]]></style>

<defs>
  <circle id="rim" cx="0" cy="0" r="7"/>
  <circle id="rim2" cx="0" cy="0" r="3.5"/>
  <g id="zoomPlus">
    <use xlink:href="#rim" fill="#404040"><set attributeName="fill" to="#808080" begin="zoomplus.mouseover" end="zoomplus.mouseout"/></use>
    <path d="M-4,0h8M0,-4v8" fill="none" stroke="white" stroke-width="1.5" pointer-events="none"/>
  </g>
  <g id="zoomMin">
    <use xlink:href="#rim" fill="#404040"><set attributeName="fill" to="#808080" begin="zoomminus.mouseover" end="zoomminus.mouseout"/></use>
    <path d="M-4,0h8" fill="none" stroke="white" stroke-width="1.5" pointer-events="none"/>
  </g>
  <g id="arrowUp" transform="translate(30 24)">
    <use xlink:href="#rim"/>
    <path pointer-events="none" fill="none" stroke="white" stroke-width="1.5" d="M0,-3.0v7 M-2.5,-0.5L0,-3.0L2.5,-0.5"/>
  </g>
  <g id="arrowRight" transform="rotate(90) translate(36 -43)">
    <use xlink:href="#rim"/>
    <path pointer-events="none" fill="none" stroke="white" stroke-width="1.5" d="M0,-3.0v7 M-2.5,-0.5L0,-3.0L2.5,-0.5"/>
  </g>
  <g id="arrowDown" transform="rotate(180) translate(-30 -48)">
    <use xlink:href="#rim"/>
    <path pointer-events="none" fill="none" stroke="white" stroke-width="1.5" d="M0,-3.0v7 M-2.5,-0.5L0,-3.0L2.5,-0.5"/>
  </g>
  <g id="arrowLeft" transform="rotate(270) translate(-36 17)">
    <use xlink:href="#rim"/>
    <path pointer-events="none" fill="none" stroke="white" stroke-width="1.5" d="M0,-3.0v7 M-2.5,-0.5L0,-3.0L2.5,-0.5"/>
  </g>
  <g id="resetDef">
    <use xlink:href="#rim2" fill="#404040"><set attributeName="fill" to="#808080" begin="reset.mouseover" end="reset.mouseout"/></use>
  </g>
</defs>
<script type="application/ecmascript">
var viewWidth = 646;
var viewHeight = 560;
var sectionId = 'dynsection-10';
</script>
<script type="application/ecmascript" xlink:href="svg.min.js"/>
<svg id="graph" class="graph">
<g id="viewport">
<title>m_check_ib_patches::s_check_ib_patches</title>
<!-- Node1 -->
<g id="Node000001" class="node">
<title>Node1</title>
<g id="a_Node000001"><a xlink:title=" ">
<polygon fill="#999999" stroke="#666666" points="119,-280.5 0,-280.5 0,-250.5 119,-250.5 119,-280.5"/>
<text text-anchor="start" x="8" y="-268.5" font-family="Helvetica,sans-Serif" font-size="10.00">m_check_ib_patches</text>
<text text-anchor="middle" x="59.5" y="-257.5" font-family="Helvetica,sans-Serif" font-size="10.00">::s_check_ib_patches</text>
</a>
</g>
</g>
<!-- Node2 -->
<g id="Node000002" class="node">
<title>Node2</title>
<g id="a_Node000002"><a xlink:href="namespacem__check__ib__patches.html#a9563f0aed8f72097bb44f8f832e1ee84" target="_top" xlink:title="This subroutine verifies that the geometric parameters of the 3d airfoil patch have consistently been...">
<polygon fill="white" stroke="#666666" points="286,-316 168,-316 168,-275 286,-275 286,-316"/>
<text text-anchor="start" x="176" y="-304" font-family="Helvetica,sans-Serif" font-size="10.00">m_check_ib_patches</text>
<text text-anchor="start" x="176" y="-293" font-family="Helvetica,sans-Serif" font-size="10.00">::s_check_3d_airfoil</text>
<text text-anchor="middle" x="227" y="-282" font-family="Helvetica,sans-Serif" font-size="10.00">_ib_patch_geometry</text>
</a>
</g>
</g>
<!-- Node1&#45;&gt;Node2 -->
<g id="edge1_Node000001_Node000002" class="edge">
<title>Node1&#45;&gt;Node2</title>
<g id="a_edge1_Node000001_Node000002"><a xlink:title=" ">
<path fill="none" stroke="#63b8ff" d="M119.32,-276.16C131.78,-278.42 145.03,-280.82 157.81,-283.14"/>
<polygon fill="#63b8ff" stroke="#63b8ff" points="157.47,-286.63 167.93,-284.97 158.72,-279.75 157.47,-286.63"/>
</a>
</g>
</g>
<!-- Node5 -->
<g id="Node000005" class="node">
<title>Node5</title>
<g id="a_Node000005"><a xlink:href="namespacem__helper.html#a6b74248bdd19bc6b0b43f757a3212275" target="_top" xlink:title=" ">
<polygon fill="white" stroke="#666666" points="460,-279 335,-279 335,-260 460,-260 460,-279"/>
<text text-anchor="middle" x="397.5" y="-267" font-family="Helvetica,sans-Serif" font-size="10.00">m_helper::s_int_to_str</text>
</a>
</g>
</g>
<!-- Node1&#45;&gt;Node5 -->
<g id="edge28_Node000001_Node000005" class="edge">
<title>Node1&#45;&gt;Node5</title>
<g id="a_edge28_Node000001_Node000005"><a xlink:title=" ">
<path fill="none" stroke="#63b8ff" d="M63.23,-250.29C70.59,-214.41 94.5,-124.78 155,-88.5 209.89,-55.58 244.05,-55.69 299,-88.5 358.81,-124.22 384.1,-210.69 392.73,-249.76"/>
<polygon fill="#63b8ff" stroke="#63b8ff" points="389.33,-250.56 394.78,-259.65 396.18,-249.14 389.33,-250.56"/>
</a>
</g>
</g>
<!-- Node6 -->
<g id="Node000006" class="node">
<title>Node6</title>
<g id="a_Node000006"><a xlink:href="namespacem__check__ib__patches.html#a699434ee0cdc606f4ba1bdecff8c8d9a" target="_top" xlink:title="This subroutine verifies that the geometric parameters of the airfoil patch have consistently been in...">
<polygon fill="white" stroke="#666666" points="286,-257 168,-257 168,-216 286,-216 286,-257"/>
<text text-anchor="start" x="176" y="-245" font-family="Helvetica,sans-Serif" font-size="10.00">m_check_ib_patches</text>
<text text-anchor="start" x="176" y="-234" font-family="Helvetica,sans-Serif" font-size="10.00">::s_check_airfoil_ib</text>
<text text-anchor="middle" x="227" y="-223" font-family="Helvetica,sans-Serif" font-size="10.00">_patch_geometry</text>
</a>
</g>
</g>
<!-- Node1&#45;&gt;Node6 -->
<g id="edge5_Node000001_Node000006" class="edge">
<title>Node1&#45;&gt;Node6</title>
<g id="a_edge5_Node000001_Node000006"><a xlink:title=" ">
<path fill="none" stroke="#63b8ff" d="M119.32,-255.19C131.78,-253.01 145.03,-250.69 157.81,-248.45"/>
<polygon fill="#63b8ff" stroke="#63b8ff" points="158.69,-251.85 167.93,-246.68 157.48,-244.95 158.69,-251.85"/>
</a>
</g>
</g>
<!-- Node7 -->
<g id="Node000007" class="node">
<title>Node7</title>
<g id="a_Node000007"><a xlink:href="namespacem__check__ib__patches.html#a0648432b33326c1444f255d05ae0fea1" target="_top" xlink:title="This subroutine verifies that the geometric parameters of the circle patch have consistently been inp...">
<polygon fill="white" stroke="#666666" points="286,-198 168,-198 168,-157 286,-157 286,-198"/>
<text text-anchor="start" x="176" y="-186" font-family="Helvetica,sans-Serif" font-size="10.00">m_check_ib_patches</text>
<text text-anchor="start" x="176" y="-175" font-family="Helvetica,sans-Serif" font-size="10.00">::s_check_circle_ib</text>
<text text-anchor="middle" x="227" y="-164" font-family="Helvetica,sans-Serif" font-size="10.00">_patch_geometry</text>
</a>
</g>
</g>
<!-- Node1&#45;&gt;Node7 -->
<g id="edge8_Node000001_Node000007" class="edge">
<title>Node1&#45;&gt;Node7</title>
<g id="a_edge8_Node000001_Node000007"><a xlink:title=" ">
<path fill="none" stroke="#63b8ff" d="M82.4,-250.33C101.17,-237.7 129.17,-219.72 155,-206.5 157.76,-205.09 160.6,-203.7 163.48,-202.33"/>
<polygon fill="#63b8ff" stroke="#63b8ff" points="165.18,-205.4 172.82,-198.06 162.27,-199.04 165.18,-205.4"/>
</a>
</g>
</g>
<!-- Node8 -->
<g id="Node000008" class="node">
<title>Node8</title>
<g id="a_Node000008"><a xlink:href="namespacem__check__ib__patches.html#a9ff8acf607daae3aa26dd6fae770e363" target="_top" xlink:title="This subroutine verifies that the geometric parameters of the cuboid patch have consistently been inp...">
<polygon fill="white" stroke="#666666" points="286,-139 168,-139 168,-98 286,-98 286,-139"/>
<text text-anchor="start" x="176" y="-127" font-family="Helvetica,sans-Serif" font-size="10.00">m_check_ib_patches</text>
<text text-anchor="start" x="176" y="-116" font-family="Helvetica,sans-Serif" font-size="10.00">::s_check_cuboid_ib</text>
<text text-anchor="middle" x="227" y="-105" font-family="Helvetica,sans-Serif" font-size="10.00">_patch_geometry</text>
</a>
</g>
</g>
<!-- Node1&#45;&gt;Node8 -->
<g id="edge11_Node000001_Node000008" class="edge">
<title>Node1&#45;&gt;Node8</title>
<g id="a_edge11_Node000001_Node000008"><a xlink:title=" ">
<path fill="none" stroke="#63b8ff" d="M69.06,-250.41C83.73,-225.77 115.89,-176.72 155,-147.5 156.39,-146.46 157.83,-145.45 159.3,-144.47"/>
<polygon fill="#63b8ff" stroke="#63b8ff" points="161.3,-147.35 168.05,-139.18 157.68,-141.36 161.3,-147.35"/>
</a>
</g>
</g>
<!-- Node9 -->
<g id="Node000009" class="node">
<title>Node9</title>
<g id="a_Node000009"><a xlink:href="namespacem__check__ib__patches.html#a6038072031a3bbd109bd7d08cee7d3d2" target="_top" xlink:title="This subroutine verifies that the geometric parameters of the cylinder patch have consistently been i...">
<polygon fill="white" stroke="#666666" points="287,-552 167,-552 167,-511 287,-511 287,-552"/>
<text text-anchor="start" x="175" y="-540" font-family="Helvetica,sans-Serif" font-size="10.00">m_check_ib_patches</text>
<text text-anchor="start" x="175" y="-529" font-family="Helvetica,sans-Serif" font-size="10.00">::s_check_cylinder_ib</text>
<text text-anchor="middle" x="227" y="-518" font-family="Helvetica,sans-Serif" font-size="10.00">_patch_geometry</text>
</a>
</g>
</g>
<!-- Node1&#45;&gt;Node9 -->
<g id="edge14_Node000001_Node000009" class="edge">
<title>Node1&#45;&gt;Node9</title>
<g id="a_edge14_Node000001_Node000009"><a xlink:title=" ">
<path fill="none" stroke="#63b8ff" d="M62.42,-280.77C68.39,-322.07 90.28,-437.24 155,-502.5 156.22,-503.73 157.51,-504.92 158.84,-506.06"/>
<polygon fill="#63b8ff" stroke="#63b8ff" points="156.85,-508.93 166.98,-512.04 161,-503.3 156.85,-508.93"/>
</a>
</g>
</g>
<!-- Node10 -->
<g id="Node000010" class="node">
<title>Node10</title>
<g id="a_Node000010"><a xlink:href="namespacem__check__ib__patches.html#a7866e42dc0bbc949c68c2a7377ae17af" target="_top" xlink:title=" ">
<polygon fill="white" stroke="#666666" points="287,-493 167,-493 167,-452 287,-452 287,-493"/>
<text text-anchor="start" x="175" y="-481" font-family="Helvetica,sans-Serif" font-size="10.00">m_check_ib_patches</text>
<text text-anchor="start" x="175" y="-470" font-family="Helvetica,sans-Serif" font-size="10.00">::s_check_inactive_ib</text>
<text text-anchor="middle" x="227" y="-459" font-family="Helvetica,sans-Serif" font-size="10.00">_patch_geometry</text>
</a>
</g>
</g>
<!-- Node1&#45;&gt;Node10 -->
<g id="edge17_Node000001_Node000010" class="edge">
<title>Node1&#45;&gt;Node10</title>
<g id="a_edge17_Node000001_Node000010"><a xlink:title=" ">
<path fill="none" stroke="#63b8ff" d="M64.64,-280.59C74.62,-314.32 103.1,-396.56 155,-443.5 156.11,-444.5 157.26,-445.48 158.45,-446.42"/>
<polygon fill="#63b8ff" stroke="#63b8ff" points="156.49,-449.32 166.69,-452.18 160.5,-443.59 156.49,-449.32"/>
</a>
</g>
</g>
<!-- Node11 -->
<g id="Node000011" class="node">
<title>Node11</title>
<g id="a_Node000011"><a xlink:href="namespacem__check__ib__patches.html#a68b73efb723ebd9ef26004a95c1497fe" target="_top" xlink:title="This subroutine verifies that the geometric parameters of the model patch have consistently been inpu...">
<polygon fill="white" stroke="#666666" points="299,-41 155,-41 155,0 299,0 299,-41"/>
<text text-anchor="start" x="163" y="-29" font-family="Helvetica,sans-Serif" font-size="10.00">m_check_ib_patches</text>
<text text-anchor="start" x="163" y="-18" font-family="Helvetica,sans-Serif" font-size="10.00">::s_check_model_ib_patch</text>
<text text-anchor="middle" x="227" y="-7" font-family="Helvetica,sans-Serif" font-size="10.00">_geometry</text>
</a>
</g>
</g>
<!-- Node1&#45;&gt;Node11 -->
<g id="edge20_Node000001_Node000011" class="edge">
<title>Node1&#45;&gt;Node11</title>
<g id="a_edge20_Node000001_Node000011"><a xlink:title=" ">
<path fill="none" stroke="#63b8ff" d="M63.6,-250.29C71.98,-212.69 98.35,-114.18 155,-55.5 158.01,-52.39 161.35,-49.51 164.9,-46.86"/>
<polygon fill="#63b8ff" stroke="#63b8ff" points="167.15,-49.56 173.49,-41.07 163.24,-43.75 167.15,-49.56"/>
</a>
</g>
</g>
<!-- Node12 -->
<g id="Node000012" class="node">
<title>Node12</title>
<g id="a_Node000012"><a xlink:href="namespacem__check__ib__patches.html#a08c4ecb8dc46870193c4de1cac8a390f" target="_top" xlink:title="This subroutine verifies that the geometric parameters of the rectangle patch have consistently been ...">
<polygon fill="white" stroke="#666666" points="286,-434 168,-434 168,-393 286,-393 286,-434"/>
<text text-anchor="start" x="176" y="-422" font-family="Helvetica,sans-Serif" font-size="10.00">m_check_ib_patches</text>
<text text-anchor="start" x="176" y="-411" font-family="Helvetica,sans-Serif" font-size="10.00">::s_check_rectangle</text>
<text text-anchor="middle" x="227" y="-400" font-family="Helvetica,sans-Serif" font-size="10.00">_ib_patch_geometry</text>
</a>
</g>
</g>
<!-- Node1&#45;&gt;Node12 -->
<g id="edge22_Node000001_Node000012" class="edge">
<title>Node1&#45;&gt;Node12</title>
<g id="a_edge22_Node000001_Node000012"><a xlink:title=" ">
<path fill="none" stroke="#63b8ff" d="M69.03,-280.72C83.65,-305.58 115.75,-355.05 155,-384.5 156.39,-385.54 157.83,-386.56 159.29,-387.54"/>
<polygon fill="#63b8ff" stroke="#63b8ff" points="157.67,-390.65 168.03,-392.83 161.29,-384.66 157.67,-390.65"/>
</a>
</g>
</g>
<!-- Node13 -->
<g id="Node000013" class="node">
<title>Node13</title>
<g id="a_Node000013"><a xlink:href="namespacem__check__ib__patches.html#a1a036f6485c8a49bd26695bd104005fb" target="_top" xlink:title="This subroutine verifies that the geometric parameters of the sphere patch have consistently been inp...">
<polygon fill="white" stroke="#666666" points="286,-375 168,-375 168,-334 286,-334 286,-375"/>
<text text-anchor="start" x="176" y="-363" font-family="Helvetica,sans-Serif" font-size="10.00">m_check_ib_patches</text>
<text text-anchor="start" x="176" y="-352" font-family="Helvetica,sans-Serif" font-size="10.00">::s_check_sphere_ib</text>
<text text-anchor="middle" x="227" y="-341" font-family="Helvetica,sans-Serif" font-size="10.00">_patch_geometry</text>
</a>
</g>
</g>
<!-- Node1&#45;&gt;Node13 -->
<g id="edge25_Node000001_Node000013" class="edge">
<title>Node1&#45;&gt;Node13</title>
<g id="a_edge25_Node000001_Node000013"><a xlink:title=" ">
<path fill="none" stroke="#63b8ff" d="M81.99,-280.71C100.73,-293.58 128.93,-312.03 155,-325.5 157.75,-326.92 160.59,-328.32 163.47,-329.7"/>
<polygon fill="#63b8ff" stroke="#63b8ff" points="162.25,-332.99 172.8,-333.98 165.17,-326.63 162.25,-332.99"/>
</a>
</g>
</g>
<!-- Node3 -->
<g id="Node000003" class="node">
<title>Node3</title>
<g id="a_Node000003"><a xlink:href="namespacem__helper__basic.html#a345e205ced0b0674a22f59a2c1549eb4" target="_top" xlink:title="Checks if a real(wp) variable is of default value.">
<polygon fill="white" stroke="#666666" points="455.5,-335.5 339.5,-335.5 339.5,-305.5 455.5,-305.5 455.5,-335.5"/>
<text text-anchor="start" x="347.5" y="-323.5" font-family="Helvetica,sans-Serif" font-size="10.00">m_helper_basic::f_is</text>
<text text-anchor="middle" x="397.5" y="-312.5" font-family="Helvetica,sans-Serif" font-size="10.00">_default</text>
</a>
</g>
</g>
<!-- Node2&#45;&gt;Node3 -->
<g id="edge2_Node000002_Node000003" class="edge">
<title>Node2&#45;&gt;Node3</title>
<g id="a_edge2_Node000002_Node000003"><a xlink:title=" ">
<path fill="none" stroke="#63b8ff" d="M286.46,-304.17C300.23,-306.22 315.01,-308.41 329.14,-310.51"/>
<polygon fill="#63b8ff" stroke="#63b8ff" points="328.88,-314 339.28,-312.01 329.9,-307.08 328.88,-314"/>
</a>
</g>
</g>
<!-- Node2&#45;&gt;Node5 -->
<g id="edge4_Node000002_Node000005" class="edge">
<title>Node2&#45;&gt;Node5</title>
<g id="a_edge4_Node000002_Node000005"><a xlink:title=" ">
<path fill="none" stroke="#63b8ff" d="M286.46,-286.48C298.84,-284.57 312.03,-282.53 324.83,-280.56"/>
<polygon fill="#63b8ff" stroke="#63b8ff" points="325.64,-283.98 334.99,-278.99 324.57,-277.06 325.64,-283.98"/>
</a>
</g>
</g>
<!-- Node4 -->
<g id="Node000004" class="node">
<title>Node4</title>
<g id="a_Node000004"><a xlink:href="namespacem__helper__basic.html#a58590a12d49b9b884256a839f2be8610" target="_top" xlink:title="This procedure checks if two floating point numbers of wp are within tolerance.">
<polygon fill="white" stroke="#666666" points="638,-335.5 496,-335.5 496,-305.5 638,-305.5 638,-335.5"/>
<text text-anchor="start" x="504" y="-323.5" font-family="Helvetica,sans-Serif" font-size="10.00">m_helper_basic::f_approx</text>
<text text-anchor="middle" x="567" y="-312.5" font-family="Helvetica,sans-Serif" font-size="10.00">_equal</text>
</a>
</g>
</g>
<!-- Node3&#45;&gt;Node4 -->
<g id="edge3_Node000003_Node000004" class="edge">
<title>Node3&#45;&gt;Node4</title>
<g id="a_edge3_Node000003_Node000004"><a xlink:title=" ">
<path fill="none" stroke="#63b8ff" d="M455.68,-320.5C465.34,-320.5 475.54,-320.5 485.66,-320.5"/>
<polygon fill="#63b8ff" stroke="#63b8ff" points="485.75,-324 495.75,-320.5 485.75,-317 485.75,-324"/>
</a>
</g>
</g>
<!-- Node6&#45;&gt;Node3 -->
<g id="edge6_Node000006_Node000003" class="edge">
<title>Node6&#45;&gt;Node3</title>
<g id="a_edge6_Node000006_Node000003"><a xlink:title=" ">
<path fill="none" stroke="#63b8ff" d="M281.15,-257.11C287.24,-259.79 293.3,-262.62 299,-265.5 315.73,-273.96 318.73,-278.17 335,-287.5 342.56,-291.83 350.72,-296.33 358.55,-300.57"/>
<polygon fill="#63b8ff" stroke="#63b8ff" points="357.07,-303.74 367.53,-305.39 360.37,-297.57 357.07,-303.74"/>
</a>
</g>
</g>
<!-- Node6&#45;&gt;Node5 -->
<g id="edge7_Node000006_Node000005" class="edge">
<title>Node6&#45;&gt;Node5</title>
<g id="a_edge7_Node000006_Node000005"><a xlink:title=" ">
<path fill="none" stroke="#63b8ff" d="M286.46,-247.95C303.07,-251.2 321.16,-254.74 337.78,-258"/>
<polygon fill="#63b8ff" stroke="#63b8ff" points="337.43,-261.5 347.92,-259.99 338.78,-254.63 337.43,-261.5"/>
</a>
</g>
</g>
<!-- Node7&#45;&gt;Node3 -->
<g id="edge9_Node000007_Node000003" class="edge">
<title>Node7&#45;&gt;Node3</title>
<g id="a_edge9_Node000007_Node000003"><a xlink:title=" ">
<path fill="none" stroke="#63b8ff" d="M286.18,-196.68C290.82,-199.53 295.18,-202.79 299,-206.5 327.28,-233.93 308.2,-258.63 335,-287.5 339.38,-292.22 344.6,-296.4 350.11,-300.07"/>
<polygon fill="#63b8ff" stroke="#63b8ff" points="348.57,-303.23 358.94,-305.4 352.19,-297.24 348.57,-303.23"/>
</a>
</g>
</g>
<!-- Node7&#45;&gt;Node5 -->
<g id="edge10_Node000007_Node000005" class="edge">
<title>Node7&#45;&gt;Node5</title>
<g id="a_edge10_Node000007_Node000005"><a xlink:title=" ">
<path fill="none" stroke="#63b8ff" d="M281.6,-198.14C287.55,-200.8 293.45,-203.61 299,-206.5 326.3,-220.74 355.75,-240.43 375.05,-253.98"/>
<polygon fill="#63b8ff" stroke="#63b8ff" points="373.23,-256.98 383.41,-259.92 377.28,-251.27 373.23,-256.98"/>
</a>
</g>
</g>
<!-- Node8&#45;&gt;Node3 -->
<g id="edge12_Node000008_Node000003" class="edge">
<title>Node8&#45;&gt;Node3</title>
<g id="a_edge12_Node000008_Node000003"><a xlink:title=" ">
<path fill="none" stroke="#63b8ff" d="M286.19,-136.58C290.94,-139.67 295.32,-143.29 299,-147.5 341.24,-195.91 295.36,-236.94 335,-287.5 338.69,-292.2 343.24,-296.32 348.18,-299.9"/>
<polygon fill="#63b8ff" stroke="#63b8ff" points="346.48,-302.97 356.79,-305.43 350.27,-297.08 346.48,-302.97"/>
</a>
</g>
</g>
<!-- Node8&#45;&gt;Node5 -->
<g id="edge13_Node000008_Node000005" class="edge">
<title>Node8&#45;&gt;Node5</title>
<g id="a_edge13_Node000008_Node000005"><a xlink:title=" ">
<path fill="none" stroke="#63b8ff" d="M285.96,-139.18C290.53,-141.7 294.95,-144.47 299,-147.5 337.89,-176.59 370.09,-224.7 385.92,-250.97"/>
<polygon fill="#63b8ff" stroke="#63b8ff" points="383.08,-253.04 391.17,-259.88 389.11,-249.49 383.08,-253.04"/>
</a>
</g>
</g>
<!-- Node9&#45;&gt;Node3 -->
<g id="edge15_Node000009_Node000003" class="edge">
<title>Node9&#45;&gt;Node3</title>
<g id="a_edge15_Node000009_Node000003"><a xlink:title=" ">
<path fill="none" stroke="#63b8ff" d="M287.29,-511.17C291.48,-508.59 295.44,-505.71 299,-502.5 347.81,-458.53 376.7,-384.24 389.18,-345.58"/>
<polygon fill="#63b8ff" stroke="#63b8ff" points="392.63,-346.26 392.27,-335.67 385.95,-344.18 392.63,-346.26"/>
</a>
</g>
</g>
<!-- Node9&#45;&gt;Node5 -->
<g id="edge16_Node000009_Node000005" class="edge">
<title>Node9&#45;&gt;Node5</title>
<g id="a_edge16_Node000009_Node000005"><a xlink:title=" ">
<path fill="none" stroke="#63b8ff" d="M287.21,-513.26C291.63,-510.21 295.66,-506.65 299,-502.5 357.3,-430.11 277.64,-369.64 335,-296.5 339.01,-291.38 344.2,-287.21 349.85,-283.82"/>
<polygon fill="#63b8ff" stroke="#63b8ff" points="351.73,-286.79 359.03,-279.11 348.53,-280.56 351.73,-286.79"/>
</a>
</g>
</g>
<!-- Node10&#45;&gt;Node3 -->
<g id="edge18_Node000010_Node000003" class="edge">
<title>Node10&#45;&gt;Node3</title>
<g id="a_edge18_Node000010_Node000003"><a xlink:title=" ">
<path fill="none" stroke="#63b8ff" d="M285.97,-451.84C290.55,-449.31 294.95,-446.54 299,-443.5 335.45,-416.13 365.89,-372.01 382.62,-344.72"/>
<polygon fill="#63b8ff" stroke="#63b8ff" points="385.81,-346.2 387.95,-335.82 379.81,-342.6 385.81,-346.2"/>
</a>
</g>
</g>
<!-- Node10&#45;&gt;Node5 -->
<g id="edge19_Node000010_Node000005" class="edge">
<title>Node10&#45;&gt;Node5</title>
<g id="a_edge19_Node000010_Node000005"><a xlink:title=" ">
<path fill="none" stroke="#63b8ff" d="M287.25,-453.79C291.6,-450.84 295.61,-447.43 299,-443.5 342.93,-392.56 291.74,-348.01 335,-296.5 339.38,-291.28 344.97,-287.04 350.99,-283.6"/>
<polygon fill="#63b8ff" stroke="#63b8ff" points="352.62,-286.69 360.01,-279.11 349.5,-280.43 352.62,-286.69"/>
</a>
</g>
</g>
<!-- Node11&#45;&gt;Node5 -->
<g id="edge21_Node000011_Node000005" class="edge">
<title>Node11&#45;&gt;Node5</title>
<g id="a_edge21_Node000011_Node000005"><a xlink:title=" ">
<path fill="none" stroke="#63b8ff" d="M280.48,-41.09C287.23,-45.19 293.64,-49.98 299,-55.5 354.98,-113.22 382.53,-208.78 392.27,-249.8"/>
<polygon fill="#63b8ff" stroke="#63b8ff" points="388.87,-250.66 394.5,-259.64 395.7,-249.11 388.87,-250.66"/>
</a>
</g>
</g>
<!-- Node12&#45;&gt;Node3 -->
<g id="edge23_Node000012_Node000003" class="edge">
<title>Node12&#45;&gt;Node3</title>
<g id="a_edge23_Node000012_Node000003"><a xlink:title=" ">
<path fill="none" stroke="#63b8ff" d="M281.63,-392.9C287.56,-390.24 293.46,-387.41 299,-384.5 323.09,-371.83 348.76,-354.82 367.71,-341.52"/>
<polygon fill="#63b8ff" stroke="#63b8ff" points="369.78,-344.34 375.92,-335.7 365.73,-338.63 369.78,-344.34"/>
</a>
</g>
</g>
<!-- Node12&#45;&gt;Node5 -->
<g id="edge24_Node000012_Node000005" class="edge">
<title>Node12&#45;&gt;Node5</title>
<g id="a_edge24_Node000012_Node000005"><a xlink:title=" ">
<path fill="none" stroke="#63b8ff" d="M286.3,-394.44C290.91,-391.56 295.23,-388.27 299,-384.5 328.89,-354.63 305.5,-326.76 335,-296.5 340.15,-291.22 346.51,-286.9 353.16,-283.39"/>
<polygon fill="#63b8ff" stroke="#63b8ff" points="354.77,-286.5 362.34,-279.09 351.8,-280.16 354.77,-286.5"/>
</a>
</g>
</g>
<!-- Node13&#45;&gt;Node3 -->
<g id="edge26_Node000013_Node000003" class="edge">
<title>Node13&#45;&gt;Node3</title>
<g id="a_edge26_Node000013_Node000003"><a xlink:title=" ">
<path fill="none" stroke="#63b8ff" d="M286.46,-342.7C300.23,-339.93 315.01,-336.94 329.14,-334.09"/>
<polygon fill="#63b8ff" stroke="#63b8ff" points="330.17,-337.45 339.28,-332.05 328.79,-330.59 330.17,-337.45"/>
</a>
</g>
</g>
<!-- Node13&#45;&gt;Node5 -->
<g id="edge27_Node000013_Node000005" class="edge">
<title>Node13&#45;&gt;Node5</title>
<g id="a_edge27_Node000013_Node000005"><a xlink:title=" ">
<path fill="none" stroke="#63b8ff" d="M283.05,-333.9C288.55,-331.29 293.95,-328.48 299,-325.5 316.7,-315.06 317.44,-307.17 335,-296.5 343.2,-291.52 352.48,-286.95 361.29,-283.05"/>
<polygon fill="#63b8ff" stroke="#63b8ff" points="362.78,-286.22 370.61,-279.08 360.04,-279.78 362.78,-286.22"/>
</a>
</g>
</g>
</g>
</svg>

<g id="navigator" transform="translate(0 0)" fill="#404254">
  <rect fill="#f2f5e9" fill-opacity="0.5" stroke="#606060" stroke-width=".5" x="0" y="0" width="60" height="60"/>
  <use id="zoomplus" xlink:href="#zoomPlus" x="17" y="9" onmousedown="handleZoom(evt,'in')"/>
  <use id="zoomminus" xlink:href="#zoomMin" x="42" y="9" onmousedown="handleZoom(evt,'out')"/>
  <use id="reset" xlink:href="#resetDef" x="30" y="36" onmousedown="handleReset()"/>
   <use id="arrowup" xlink:href="#arrowUp" x="0" y="0" onmousedown="handlePan(0,-1)"/>
  <use id="arrowright" xlink:href="#arrowRight" x="0" y="0" onmousedown="handlePan(1,0)"/>
  <use id="arrowdown" xlink:href="#arrowDown" x="0" y="0" onmousedown="handlePan(0,1)"/>
  <use id="arrowleft" xlink:href="#arrowLeft" x="0" y="0" onmousedown="handlePan(-1,0)"/>
</g>
<svg viewBox="0 0 15 15" width="100%" height="30px" preserveAspectRatio="xMaxYMin meet">
 <g id="arrow_out" transform="scale(0.3 0.3)">
  <a xlink:href="namespacem__check__ib__patches_a189c38a75fdc3b1991f07898544e40b4_cgraph_org.svg" target="_base">
   <rect id="button" ry="5" rx="5" y="6" x="6" height="38" width="38"
        fill="#f2f5e9" fill-opacity="0.5" stroke="#606060" stroke-width="1.0"/>
   <path id="arrow"
     d="M 11.500037,31.436501 C 11.940474,20.09759 22.043105,11.32322 32.158766,21.979434 L 37.068811,17.246167 C 37.068811,17.246167 37.088388,32 37.088388,32 L 22.160133,31.978069 C 22.160133,31.978069 26.997745,27.140456 26.997745,27.140456 C 18.528582,18.264221 13.291696,25.230495 11.500037,31.436501 z"
     style="fill:#404040;"/>
  </a>
 </g>
</svg>

<style type='text/css'>
<![CDATA[
[data-mouse-over-selected='false'] { opacity: 0.7; }
[data-mouse-over-selected='true']  { opacity: 1.0; }
]]>
</style>
<script type="application/ecmascript"><![CDATA[
document.addEventListener('DOMContentLoaded', (event) => {
  highlightEdges();
  highlightAdjacentNodes();
});
]]></script>
</svg>
