<?xml version="1.0" encoding="UTF-8" standalone="no"?>
<!DOCTYPE svg PUBLIC "-//W3C//DTD SVG 1.1//EN"
 "http://www.w3.org/Graphics/SVG/1.1/DTD/svg11.dtd">
<!-- Generated by graphviz version 2.43.0 (0)
 -->
<!-- Title: m_checker::s_check_inputs Pages: 1 -->
<svg width="833pt" height="344pt"
 viewBox="0.00 0.00 833.00 344.00" xmlns="http://www.w3.org/2000/svg" xmlns:xlink="http://www.w3.org/1999/xlink">
<g id="graph0" class="graph" transform="scale(1 1) rotate(0) translate(4 340)">
<title>m_checker::s_check_inputs</title>
<!-- Node1 -->
<g id="Node000001" class="node">
<title>Node1</title>
<g id="a_Node000001"><a xlink:title="Checks compatibility of parameters in the input file. Used by the pre_process stage.">
<polygon fill="#999999" stroke="#666666" points="114,-180 0,-180 0,-150 114,-150 114,-180"/>
<text text-anchor="start" x="8" y="-168" font-family="Helvetica,sans-Serif" font-size="10.00">m_checker::s_check</text>
<text text-anchor="middle" x="57" y="-157" font-family="Helvetica,sans-Serif" font-size="10.00">_inputs</text>
</a>
</g>
</g>
<!-- Node2 -->
<g id="Node000002" class="node">
<title>Node2</title>
<g id="a_Node000002"><a xlink:href="namespacem__checker.html#a63168ef3e343ea521febf45ddc7bbddf" target="_top" xlink:title=" ">
<polygon fill="white" stroke="#666666" points="305,-239.5 174,-239.5 174,-220.5 305,-220.5 305,-239.5"/>
<text text-anchor="middle" x="239.5" y="-227.5" font-family="Helvetica,sans-Serif" font-size="10.00">m_checker::s_check_bc</text>
</a>
</g>
</g>
<!-- Node1&#45;&gt;Node2 -->
<g id="edge1_Node000001_Node000002" class="edge">
<title>Node1&#45;&gt;Node2</title>
<g id="a_edge1_Node000001_Node000002"><a xlink:title=" ">
<path fill="none" stroke="#63b8ff" d="M83.8,-180.11C101.83,-190.11 126.75,-202.84 150,-211 157.59,-213.66 165.68,-216.02 173.77,-218.09"/>
<polygon fill="#63b8ff" stroke="#63b8ff" points="173.07,-221.52 183.61,-220.47 174.71,-214.72 173.07,-221.52"/>
</a>
</g>
</g>
<!-- Node6 -->
<g id="Node000006" class="node">
<title>Node6</title>
<g id="a_Node000006"><a xlink:href="namespacem__checker.html#a2a33b4431d5d4088e2bf85d1b71f94ef" target="_top" xlink:title=" ">
<polygon fill="white" stroke="#666666" points="296.5,-288 182.5,-288 182.5,-258 296.5,-258 296.5,-288"/>
<text text-anchor="start" x="190.5" y="-276" font-family="Helvetica,sans-Serif" font-size="10.00">m_checker::s_check</text>
<text text-anchor="middle" x="239.5" y="-265" font-family="Helvetica,sans-Serif" font-size="10.00">_inputs_chemistry</text>
</a>
</g>
</g>
<!-- Node1&#45;&gt;Node6 -->
<g id="edge5_Node000001_Node000006" class="edge">
<title>Node1&#45;&gt;Node6</title>
<g id="a_edge5_Node000001_Node000006"><a xlink:title=" ">
<path fill="none" stroke="#63b8ff" d="M70.75,-180.17C87.22,-198.79 117.61,-230.11 150,-248 157.05,-251.9 164.77,-255.23 172.61,-258.07"/>
<polygon fill="#63b8ff" stroke="#63b8ff" points="171.6,-261.42 182.19,-261.29 173.83,-254.79 171.6,-261.42"/>
</a>
</g>
</g>
<!-- Node7 -->
<g id="Node000007" class="node">
<title>Node7</title>
<g id="a_Node000007"><a xlink:href="namespacem__checker.html#a4dd10cb18aa3eb09245bbfca274d1f6b" target="_top" xlink:title="Checks constraints on grid stretching parameters (loops_x[y,z], stretch_x[y,z], etc....">
<polygon fill="white" stroke="#666666" points="495,-169 365,-169 365,-139 495,-139 495,-169"/>
<text text-anchor="start" x="373" y="-157" font-family="Helvetica,sans-Serif" font-size="10.00">m_checker::s_check</text>
<text text-anchor="middle" x="430" y="-146" font-family="Helvetica,sans-Serif" font-size="10.00">_inputs_grid_stretching</text>
</a>
</g>
</g>
<!-- Node1&#45;&gt;Node7 -->
<g id="edge6_Node000001_Node000007" class="edge">
<title>Node1&#45;&gt;Node7</title>
<g id="a_edge6_Node000001_Node000007"><a xlink:title=" ">
<path fill="none" stroke="#63b8ff" d="M114.35,-163.33C178.59,-161.42 283.85,-158.3 354.75,-156.2"/>
<polygon fill="#63b8ff" stroke="#63b8ff" points="355.06,-159.69 364.95,-155.9 354.85,-152.7 355.06,-159.69"/>
</a>
</g>
</g>
<!-- Node8 -->
<g id="Node000008" class="node">
<title>Node8</title>
<g id="a_Node000008"><a xlink:href="namespacem__checker.html#a4a14987dcf7b3ff20915136de95cb2f6" target="_top" xlink:title="Checks miscellaneous constraints (mixlayer_vel_profile and mixlayer_perturb)">
<polygon fill="white" stroke="#666666" points="296.5,-202 182.5,-202 182.5,-172 296.5,-172 296.5,-202"/>
<text text-anchor="start" x="190.5" y="-190" font-family="Helvetica,sans-Serif" font-size="10.00">m_checker::s_check</text>
<text text-anchor="middle" x="239.5" y="-179" font-family="Helvetica,sans-Serif" font-size="10.00">_inputs_misc</text>
</a>
</g>
</g>
<!-- Node1&#45;&gt;Node8 -->
<g id="edge8_Node000001_Node000008" class="edge">
<title>Node1&#45;&gt;Node8</title>
<g id="a_edge8_Node000001_Node000008"><a xlink:title=" ">
<path fill="none" stroke="#63b8ff" d="M114.12,-171.84C132.54,-174.09 153.19,-176.6 172.29,-178.93"/>
<polygon fill="#63b8ff" stroke="#63b8ff" points="172.06,-182.43 182.41,-180.16 172.91,-175.48 172.06,-182.43"/>
</a>
</g>
</g>
<!-- Node9 -->
<g id="Node000009" class="node">
<title>Node9</title>
<g id="a_Node000009"><a xlink:href="namespacem__checker.html#abf992eb946fb0344c8a52f5272263e49" target="_top" xlink:title="Checks constraints on initial partial density perturbation (perturb_flow, perturb_flow_fluid,...">
<polygon fill="white" stroke="#666666" points="306.5,-336 172.5,-336 172.5,-306 306.5,-306 306.5,-336"/>
<text text-anchor="start" x="180.5" y="-324" font-family="Helvetica,sans-Serif" font-size="10.00">m_checker::s_check</text>
<text text-anchor="middle" x="239.5" y="-313" font-family="Helvetica,sans-Serif" font-size="10.00">_inputs_perturb_density</text>
</a>
</g>
</g>
<!-- Node1&#45;&gt;Node9 -->
<g id="edge9_Node000001_Node000009" class="edge">
<title>Node1&#45;&gt;Node9</title>
<g id="a_edge9_Node000001_Node000009"><a xlink:title=" ">
<path fill="none" stroke="#63b8ff" d="M64.34,-180.27C76.63,-207.92 106.38,-266.28 150,-297 154.02,-299.83 158.36,-302.33 162.88,-304.53"/>
<polygon fill="#63b8ff" stroke="#63b8ff" points="161.8,-307.88 172.37,-308.65 164.59,-301.45 161.8,-307.88"/>
</a>
</g>
</g>
<!-- Node11 -->
<g id="Node000011" class="node">
<title>Node11</title>
<g id="a_Node000011"><a xlink:href="namespacem__checker.html#a587d2773706f73b2f2c8934ac14e7c11" target="_top" xlink:title="Checks constraints on the QBMM and polydisperse bubble parameters (qbmm, polydisperse,...">
<polygon fill="white" stroke="#666666" points="329,-116 150,-116 150,-86 329,-86 329,-116"/>
<text text-anchor="start" x="158" y="-104" font-family="Helvetica,sans-Serif" font-size="10.00">m_checker::s_check</text>
<text text-anchor="middle" x="239.5" y="-93" font-family="Helvetica,sans-Serif" font-size="10.00">_inputs_qbmm_and_polydisperse</text>
</a>
</g>
</g>
<!-- Node1&#45;&gt;Node11 -->
<g id="edge14_Node000001_Node000011" class="edge">
<title>Node1&#45;&gt;Node11</title>
<g id="a_edge14_Node000001_Node000011"><a xlink:title=" ">
<path fill="none" stroke="#63b8ff" d="M96.35,-149.95C112.8,-143.61 132.28,-136.27 150,-130 160.15,-126.41 171.01,-122.72 181.53,-119.23"/>
<polygon fill="#63b8ff" stroke="#63b8ff" points="182.65,-122.55 191.05,-116.09 180.46,-115.9 182.65,-122.55"/>
</a>
</g>
</g>
<!-- Node12 -->
<g id="Node000012" class="node">
<title>Node12</title>
<g id="a_Node000012"><a xlink:href="namespacem__checker.html#a594607d7638e8f30cc1634e7df736aa6" target="_top" xlink:title="Checks constraints on the restart parameters (old_grid, old_ic, etc.)">
<polygon fill="white" stroke="#666666" points="487,-121 373,-121 373,-91 487,-91 487,-121"/>
<text text-anchor="start" x="381" y="-109" font-family="Helvetica,sans-Serif" font-size="10.00">m_checker::s_check</text>
<text text-anchor="middle" x="430" y="-98" font-family="Helvetica,sans-Serif" font-size="10.00">_inputs_restart</text>
</a>
</g>
</g>
<!-- Node1&#45;&gt;Node12 -->
<g id="edge15_Node000001_Node000012" class="edge">
<title>Node1&#45;&gt;Node12</title>
<g id="a_edge15_Node000001_Node000012"><a xlink:title=" ">
<path fill="none" stroke="#63b8ff" d="M68,-149.9C82.93,-128.89 113.28,-91.73 150,-77 226.48,-46.31 323.75,-68.86 380.91,-87.68"/>
<polygon fill="#63b8ff" stroke="#63b8ff" points="379.82,-91.01 390.42,-90.9 382.07,-84.38 379.82,-91.01"/>
</a>
</g>
</g>
<!-- Node13 -->
<g id="Node000013" class="node">
<title>Node13</title>
<g id="a_Node000013"><a xlink:href="namespacem__checker.html#aa0ed4f563534d127e31f38a16ff73821" target="_top" xlink:title="Checks if mpi is enabled with parallel_io.">
<polygon fill="white" stroke="#666666" points="296.5,-30 182.5,-30 182.5,0 296.5,0 296.5,-30"/>
<text text-anchor="start" x="190.5" y="-18" font-family="Helvetica,sans-Serif" font-size="10.00">m_checker::s_check</text>
<text text-anchor="middle" x="239.5" y="-7" font-family="Helvetica,sans-Serif" font-size="10.00">_parallel_io</text>
</a>
</g>
</g>
<!-- Node1&#45;&gt;Node13 -->
<g id="edge18_Node000001_Node000013" class="edge">
<title>Node1&#45;&gt;Node13</title>
<g id="a_edge18_Node000001_Node000013"><a xlink:title=" ">
<path fill="none" stroke="#63b8ff" d="M65.69,-149.61C79.24,-123.99 109.8,-72.62 150,-44 156.91,-39.08 164.71,-34.96 172.73,-31.51"/>
<polygon fill="#63b8ff" stroke="#63b8ff" points="174.2,-34.7 182.22,-27.78 171.64,-28.18 174.2,-34.7"/>
</a>
</g>
</g>
<!-- Node3 -->
<g id="Node000003" class="node">
<title>Node3</title>
<g id="a_Node000003"><a xlink:href="namespacem__helper__basic.html#a345e205ced0b0674a22f59a2c1549eb4" target="_top" xlink:title="Checks if a real(wp) variable is of default value.">
<polygon fill="white" stroke="#666666" points="647,-190 531,-190 531,-160 647,-160 647,-190"/>
<text text-anchor="start" x="539" y="-178" font-family="Helvetica,sans-Serif" font-size="10.00">m_helper_basic::f_is</text>
<text text-anchor="middle" x="589" y="-167" font-family="Helvetica,sans-Serif" font-size="10.00">_default</text>
</a>
</g>
</g>
<!-- Node2&#45;&gt;Node3 -->
<g id="edge2_Node000002_Node000003" class="edge">
<title>Node2&#45;&gt;Node3</title>
<g id="a_edge2_Node000002_Node000003"><a xlink:title=" ">
<path fill="none" stroke="#63b8ff" d="M300.63,-220.48C362.04,-210.76 457.15,-195.71 520.95,-185.61"/>
<polygon fill="#63b8ff" stroke="#63b8ff" points="521.58,-189.06 530.91,-184.04 520.48,-182.14 521.58,-189.06"/>
</a>
</g>
</g>
<!-- Node5 -->
<g id="Node000005" class="node">
<title>Node5</title>
<g id="a_Node000005"><a xlink:href="namespacem__helper.html#a6b74248bdd19bc6b0b43f757a3212275" target="_top" xlink:title=" ">
<polygon fill="white" stroke="#666666" points="492.5,-244.5 367.5,-244.5 367.5,-225.5 492.5,-225.5 492.5,-244.5"/>
<text text-anchor="middle" x="430" y="-232.5" font-family="Helvetica,sans-Serif" font-size="10.00">m_helper::s_int_to_str</text>
</a>
</g>
</g>
<!-- Node2&#45;&gt;Node5 -->
<g id="edge4_Node000002_Node000005" class="edge">
<title>Node2&#45;&gt;Node5</title>
<g id="a_edge4_Node000002_Node000005"><a xlink:title=" ">
<path fill="none" stroke="#63b8ff" d="M305.11,-231.71C321.79,-232.16 339.85,-232.64 356.89,-233.09"/>
<polygon fill="#63b8ff" stroke="#63b8ff" points="357.25,-236.6 367.34,-233.36 357.44,-229.6 357.25,-236.6"/>
</a>
</g>
</g>
<!-- Node4 -->
<g id="Node000004" class="node">
<title>Node4</title>
<g id="a_Node000004"><a xlink:href="namespacem__helper__basic.html#a58590a12d49b9b884256a839f2be8610" target="_top" xlink:title="This procedure checks if two floating point numbers of wp are within tolerance.">
<polygon fill="white" stroke="#666666" points="825,-166 683,-166 683,-136 825,-136 825,-166"/>
<text text-anchor="start" x="691" y="-154" font-family="Helvetica,sans-Serif" font-size="10.00">m_helper_basic::f_approx</text>
<text text-anchor="middle" x="754" y="-143" font-family="Helvetica,sans-Serif" font-size="10.00">_equal</text>
</a>
</g>
</g>
<!-- Node3&#45;&gt;Node4 -->
<g id="edge3_Node000003_Node000004" class="edge">
<title>Node3&#45;&gt;Node4</title>
<g id="a_edge3_Node000003_Node000004"><a xlink:title=" ">
<path fill="none" stroke="#63b8ff" d="M647.01,-166.61C655.32,-165.38 664.01,-164.1 672.68,-162.83"/>
<polygon fill="#63b8ff" stroke="#63b8ff" points="673.45,-166.25 682.83,-161.33 672.43,-159.33 673.45,-166.25"/>
</a>
</g>
</g>
<!-- Node7&#45;&gt;Node3 -->
<g id="edge7_Node000007_Node000003" class="edge">
<title>Node7&#45;&gt;Node3</title>
<g id="a_edge7_Node000007_Node000003"><a xlink:title=" ">
<path fill="none" stroke="#63b8ff" d="M495.31,-162.6C503.62,-163.71 512.15,-164.85 520.5,-165.97"/>
<polygon fill="#63b8ff" stroke="#63b8ff" points="520.21,-169.46 530.59,-167.32 521.14,-162.53 520.21,-169.46"/>
</a>
</g>
</g>
<!-- Node9&#45;&gt;Node3 -->
<g id="edge12_Node000009_Node000003" class="edge">
<title>Node9&#45;&gt;Node3</title>
<g id="a_edge12_Node000009_Node000003"><a xlink:title=" ">
<path fill="none" stroke="#63b8ff" d="M306.73,-330.63C360.79,-335.21 437.37,-333.98 495,-302 536.22,-279.13 564.12,-229.41 577.93,-199.42"/>
<polygon fill="#63b8ff" stroke="#63b8ff" points="581.22,-200.63 582.07,-190.07 574.82,-197.79 581.22,-200.63"/>
</a>
</g>
</g>
<!-- Node9&#45;&gt;Node5 -->
<g id="edge13_Node000009_Node000005" class="edge">
<title>Node9&#45;&gt;Node5</title>
<g id="a_edge13_Node000009_Node000005"><a xlink:title=" ">
<path fill="none" stroke="#63b8ff" d="M306.71,-307.9C314.54,-304.96 322.16,-301.38 329,-297 349.99,-283.56 344.17,-267.68 365,-254 368.14,-251.94 371.51,-250.09 375,-248.44"/>
<polygon fill="#63b8ff" stroke="#63b8ff" points="376.56,-251.59 384.46,-244.52 373.88,-245.12 376.56,-251.59"/>
</a>
</g>
</g>
<!-- Node10 -->
<g id="Node000010" class="node">
<title>Node10</title>
<g id="a_Node000010"><a xlink:href="namespacem__helper__basic.html#a35696604e5c3c1eda9a1fcdfca99de4f" target="_top" xlink:title="Checks if ALL elements of a real(wp) array are of default value.">
<polygon fill="white" stroke="#666666" points="490,-293 370,-293 370,-263 490,-263 490,-293"/>
<text text-anchor="start" x="378" y="-281" font-family="Helvetica,sans-Serif" font-size="10.00">m_helper_basic::f_all</text>
<text text-anchor="middle" x="430" y="-270" font-family="Helvetica,sans-Serif" font-size="10.00">_default</text>
</a>
</g>
</g>
<!-- Node9&#45;&gt;Node10 -->
<g id="edge10_Node000009_Node000010" class="edge">
<title>Node9&#45;&gt;Node10</title>
<g id="a_edge10_Node000009_Node000010"><a xlink:title=" ">
<path fill="none" stroke="#63b8ff" d="M306.43,-305.96C323.65,-302.03 342.25,-297.79 359.64,-293.82"/>
<polygon fill="#63b8ff" stroke="#63b8ff" points="360.75,-297.16 369.72,-291.52 359.19,-290.33 360.75,-297.16"/>
</a>
</g>
</g>
<!-- Node10&#45;&gt;Node3 -->
<g id="edge11_Node000010_Node000003" class="edge">
<title>Node10&#45;&gt;Node3</title>
<g id="a_edge11_Node000010_Node000003"><a xlink:title=" ">
<path fill="none" stroke="#63b8ff" d="M475.27,-262.89C482.06,-259.96 488.84,-256.65 495,-253 521.25,-237.44 547.56,-214.52 565.47,-197.55"/>
<polygon fill="#63b8ff" stroke="#63b8ff" points="568.3,-199.68 573.07,-190.22 563.44,-194.64 568.3,-199.68"/>
</a>
</g>
</g>
<!-- Node12&#45;&gt;Node3 -->
<g id="edge17_Node000012_Node000003" class="edge">
<title>Node12&#45;&gt;Node3</title>
<g id="a_edge17_Node000012_Node000003"><a xlink:title=" ">
<path fill="none" stroke="#63b8ff" d="M472.88,-121.07C480.29,-123.92 487.91,-126.96 495,-130 513.06,-137.73 532.68,-147.09 549.23,-155.26"/>
<polygon fill="#63b8ff" stroke="#63b8ff" points="548.07,-158.59 558.58,-159.91 551.19,-152.32 548.07,-158.59"/>
</a>
</g>
</g>
<!-- Node12&#45;&gt;Node4 -->
<g id="edge16_Node000012_Node000004" class="edge">
<title>Node12&#45;&gt;Node4</title>
<g id="a_edge16_Node000012_Node000004"><a xlink:title=" ">
<path fill="none" stroke="#63b8ff" d="M487.09,-113.84C538.42,-121.01 614.96,-131.71 672.76,-139.79"/>
<polygon fill="#63b8ff" stroke="#63b8ff" points="672.57,-143.29 682.96,-141.21 673.54,-136.36 672.57,-143.29"/>
</a>
</g>
</g>
</g>
</svg>
