<?xml version="1.0" encoding="UTF-8" standalone="no"?>
<!DOCTYPE svg PUBLIC "-//W3C//DTD SVG 1.1//EN"
 "http://www.w3.org/Graphics/SVG/1.1/DTD/svg11.dtd">
<!-- Generated by graphviz version 2.43.0 (0)
 -->
<!-- Title: m_model::f_model_read Pages: 1 -->
<svg width="786pt" height="124pt"
 viewBox="0.00 0.00 786.00 123.50" xmlns="http://www.w3.org/2000/svg" xmlns:xlink="http://www.w3.org/1999/xlink">
<g id="graph0" class="graph" transform="scale(1 1) rotate(0) translate(4 119.5)">
<title>m_model::f_model_read</title>
<!-- Node1 -->
<g id="Node000001" class="node">
<title>Node1</title>
<g id="a_Node000001"><a xlink:title="This procedure reads a mesh from a file.">
<polygon fill="#999999" stroke="#666666" points="135,-93.5 0,-93.5 0,-74.5 135,-74.5 135,-93.5"/>
<text text-anchor="middle" x="67.5" y="-81.5" font-family="Helvetica,sans-Serif" font-size="10.00">m_model::f_model_read</text>
</a>
</g>
</g>
<!-- Node2 -->
<g id="Node000002" class="node">
<title>Node2</title>
<g id="a_Node000002"><a xlink:href="namespacem__model.html#a33ad862ed39fa4f0a0364389cf9a0821" target="_top" xlink:title="This procedure reads an OBJ file.">
<polygon fill="white" stroke="#666666" points="610,-115.5 489,-115.5 489,-96.5 610,-96.5 610,-115.5"/>
<text text-anchor="middle" x="549.5" y="-103.5" font-family="Helvetica,sans-Serif" font-size="10.00">m_model::s_read_obj</text>
</a>
</g>
</g>
<!-- Node1&#45;&gt;Node2 -->
<g id="edge1_Node000001_Node000002" class="edge">
<title>Node1&#45;&gt;Node2</title>
<g id="a_edge1_Node000001_Node000002"><a xlink:title=" ">
<path fill="none" stroke="#63b8ff" d="M135.24,-87.06C225.74,-91.21 386.63,-98.58 478.69,-102.8"/>
<polygon fill="#63b8ff" stroke="#63b8ff" points="478.6,-106.3 488.75,-103.26 478.92,-99.31 478.6,-106.3"/>
</a>
</g>
</g>
<!-- Node4 -->
<g id="Node000004" class="node">
<title>Node4</title>
<g id="a_Node000004"><a xlink:href="namespacem__model.html#a6f7ded1a2960fcf521c5892b8b1b850b" target="_top" xlink:title="This procedure reads an STL file.">
<polygon fill="white" stroke="#666666" points="289,-72.5 171,-72.5 171,-53.5 289,-53.5 289,-72.5"/>
<text text-anchor="middle" x="230" y="-60.5" font-family="Helvetica,sans-Serif" font-size="10.00">m_model::s_read_stl</text>
</a>
</g>
</g>
<!-- Node1&#45;&gt;Node4 -->
<g id="edge3_Node000001_Node000004" class="edge">
<title>Node1&#45;&gt;Node4</title>
<g id="a_edge3_Node000001_Node000004"><a xlink:title=" ">
<path fill="none" stroke="#63b8ff" d="M135.17,-75.28C143.71,-74.16 152.47,-73.01 161.03,-71.89"/>
<polygon fill="#63b8ff" stroke="#63b8ff" points="161.51,-75.36 170.97,-70.59 160.6,-68.42 161.51,-75.36"/>
</a>
</g>
</g>
<!-- Node3 -->
<g id="Node000003" class="node">
<title>Node3</title>
<g id="a_Node000003"><a xlink:href="namespacem__model.html#a263c93e249409db2235bbc8e0458e4dc" target="_top" xlink:title=" ">
<polygon fill="white" stroke="#666666" points="778,-77.5 656,-77.5 656,-58.5 778,-58.5 778,-77.5"/>
<text text-anchor="middle" x="717" y="-65.5" font-family="Helvetica,sans-Serif" font-size="10.00">m_model::f_read_line</text>
</a>
</g>
</g>
<!-- Node2&#45;&gt;Node3 -->
<g id="edge2_Node000002_Node000003" class="edge">
<title>Node2&#45;&gt;Node3</title>
<g id="a_edge2_Node000002_Node000003"><a xlink:title=" ">
<path fill="none" stroke="#63b8ff" d="M592.26,-96.41C614.2,-91.37 641.28,-85.16 664.51,-79.82"/>
<polygon fill="#63b8ff" stroke="#63b8ff" points="665.57,-83.17 674.54,-77.52 664.01,-76.35 665.57,-83.17"/>
</a>
</g>
</g>
<!-- Node5 -->
<g id="Node000005" class="node">
<title>Node5</title>
<g id="a_Node000005"><a xlink:href="namespacem__model.html#ad7e72764fdcd2dac89b5e91d0d7db271" target="_top" xlink:title="This procedure reads an ASCII STL file.">
<polygon fill="white" stroke="#666666" points="443,-78 325,-78 325,-48 443,-48 443,-78"/>
<text text-anchor="start" x="333" y="-66" font-family="Helvetica,sans-Serif" font-size="10.00">m_model::s_read_stl</text>
<text text-anchor="middle" x="384" y="-55" font-family="Helvetica,sans-Serif" font-size="10.00">_ascii</text>
</a>
</g>
</g>
<!-- Node4&#45;&gt;Node5 -->
<g id="edge4_Node000004_Node000005" class="edge">
<title>Node4&#45;&gt;Node5</title>
<g id="a_edge4_Node000004_Node000005"><a xlink:title=" ">
<path fill="none" stroke="#63b8ff" d="M289.33,-63C297.61,-63 306.17,-63 314.62,-63"/>
<polygon fill="#63b8ff" stroke="#63b8ff" points="314.82,-66.5 324.82,-63 314.82,-59.5 314.82,-66.5"/>
</a>
</g>
</g>
<!-- Node7 -->
<g id="Node000007" class="node">
<title>Node7</title>
<g id="a_Node000007"><a xlink:href="namespacem__model.html#ad948a8c9877b39e33d69ab80319ab235" target="_top" xlink:title="This procedure reads a binary STL file.">
<polygon fill="white" stroke="#666666" points="443,-30 325,-30 325,0 443,0 443,-30"/>
<text text-anchor="start" x="333" y="-18" font-family="Helvetica,sans-Serif" font-size="10.00">m_model::s_read_stl</text>
<text text-anchor="middle" x="384" y="-7" font-family="Helvetica,sans-Serif" font-size="10.00">_binary</text>
</a>
</g>
</g>
<!-- Node4&#45;&gt;Node7 -->
<g id="edge8_Node000004_Node000007" class="edge">
<title>Node4&#45;&gt;Node7</title>
<g id="a_edge8_Node000004_Node000007"><a xlink:title=" ">
<path fill="none" stroke="#63b8ff" d="M261.39,-53.4C279.81,-47.59 303.89,-39.98 325.76,-33.08"/>
<polygon fill="#63b8ff" stroke="#63b8ff" points="326.82,-36.41 335.3,-30.06 324.71,-29.74 326.82,-36.41"/>
</a>
</g>
</g>
<!-- Node5&#45;&gt;Node3 -->
<g id="edge5_Node000005_Node000003" class="edge">
<title>Node5&#45;&gt;Node3</title>
<g id="a_edge5_Node000005_Node000003"><a xlink:title=" ">
<path fill="none" stroke="#63b8ff" d="M443.03,-63.88C499.47,-64.73 585.28,-66.03 645.59,-66.94"/>
<polygon fill="#63b8ff" stroke="#63b8ff" points="645.74,-70.44 655.79,-67.09 645.85,-63.44 645.74,-70.44"/>
</a>
</g>
</g>
<!-- Node6 -->
<g id="Node000006" class="node">
<title>Node6</title>
<g id="a_Node000006"><a xlink:href="namespacem__model.html#a532686157e0170dfff866cafe2162e9b" target="_top" xlink:title=" ">
<polygon fill="white" stroke="#666666" points="620,-40 479,-40 479,-10 620,-10 620,-40"/>
<text text-anchor="start" x="487" y="-28" font-family="Helvetica,sans-Serif" font-size="10.00">m_model::s_skip_ignored</text>
<text text-anchor="middle" x="549.5" y="-17" font-family="Helvetica,sans-Serif" font-size="10.00">_lines</text>
</a>
</g>
</g>
<!-- Node5&#45;&gt;Node6 -->
<g id="edge6_Node000005_Node000006" class="edge">
<title>Node5&#45;&gt;Node6</title>
<g id="a_edge6_Node000005_Node000006"><a xlink:title=" ">
<path fill="none" stroke="#63b8ff" d="M443.1,-49.5C453.12,-47.17 463.65,-44.72 474.03,-42.31"/>
<polygon fill="#63b8ff" stroke="#63b8ff" points="474.96,-45.68 483.91,-40.01 473.38,-38.87 474.96,-45.68"/>
</a>
</g>
</g>
<!-- Node6&#45;&gt;Node3 -->
<g id="edge7_Node000006_Node000003" class="edge">
<title>Node6&#45;&gt;Node3</title>
<g id="a_edge7_Node000006_Node000003"><a xlink:title=" ">
<path fill="none" stroke="#63b8ff" d="M608.38,-40.04C628.3,-45.21 650.32,-50.94 669.24,-55.85"/>
<polygon fill="#63b8ff" stroke="#63b8ff" points="668.54,-59.29 679.1,-58.41 670.3,-52.51 668.54,-59.29"/>
</a>
</g>
</g>
</g>
</svg>
