<?xml version="1.0" encoding="UTF-8" standalone="no"?>
<!DOCTYPE svg PUBLIC "-//W3C//DTD SVG 1.1//EN"
 "http://www.w3.org/Graphics/SVG/1.1/DTD/svg11.dtd">
<!-- Generated by graphviz version 2.43.0 (0)
 -->
<!-- Title: m_mpi_common::s_mpi_abort Pages: 1 -->
<svg width="917pt" height="514pt"
 viewBox="0.00 0.00 917.00 513.86" xmlns="http://www.w3.org/2000/svg" xmlns:xlink="http://www.w3.org/1999/xlink">
<g id="graph0" class="graph" transform="scale(1 1) rotate(0) translate(4 509.86)">
<title>m_mpi_common::s_mpi_abort</title>
<!-- Node1 -->
<g id="Node000001" class="node">
<title>Node1</title>
<g id="a_Node000001"><a xlink:title="The subroutine terminates the MPI execution environment.">
<polygon fill="#999999" stroke="#666666" points="909,-270 775,-270 775,-240 909,-240 909,-270"/>
<text text-anchor="start" x="783" y="-258" font-family="Helvetica,sans-Serif" font-size="10.00">m_mpi_common::s_mpi</text>
<text text-anchor="middle" x="842" y="-247" font-family="Helvetica,sans-Serif" font-size="10.00">_abort</text>
</a>
</g>
</g>
<!-- Node2 -->
<g id="Node000002" class="node">
<title>Node2</title>
<g id="a_Node000002"><a xlink:href="namespacem__icpp__patches.html#a82d33950641130d1348d1d3a2eb72c3f" target="_top" xlink:title=" ">
<polygon fill="white" stroke="#666666" points="549,-474 410,-474 410,-444 549,-444 549,-474"/>
<text text-anchor="start" x="418" y="-462" font-family="Helvetica,sans-Serif" font-size="10.00">m_icpp_patches::s_apply</text>
<text text-anchor="middle" x="479.5" y="-451" font-family="Helvetica,sans-Serif" font-size="10.00">_icpp_patches</text>
</a>
</g>
</g>
<!-- Node1&#45;&gt;Node2 -->
<g id="edge1_Node000001_Node000002" class="edge">
<title>Node1&#45;&gt;Node2</title>
<g id="a_edge1_Node000001_Node000002"><a xlink:title=" ">
<path fill="none" stroke="#63b8ff" d="M838.4,-280.36C831.84,-329.56 809.71,-437.17 739,-483 669.22,-528.23 565.75,-495.8 513.4,-474.16"/>
<polygon fill="#63b8ff" stroke="#63b8ff" points="841.9,-280.6 839.64,-270.25 834.95,-279.75 841.9,-280.6"/>
</a>
</g>
</g>
<!-- Node6 -->
<g id="Node000006" class="node">
<title>Node6</title>
<g id="a_Node000006"><a xlink:href="namespacem__start__up.html#a819c050417eb742466f0fab477c62e38" target="_top" xlink:title="Cell&#45;boundary data are checked for consistency by looking at the (non&#45;)uniform cell&#45;width distributio...">
<polygon fill="white" stroke="#666666" points="720,-426 604,-426 604,-396 720,-396 720,-426"/>
<text text-anchor="start" x="612" y="-414" font-family="Helvetica,sans-Serif" font-size="10.00">m_start_up::s_check</text>
<text text-anchor="middle" x="662" y="-403" font-family="Helvetica,sans-Serif" font-size="10.00">_grid_data_files</text>
</a>
</g>
</g>
<!-- Node1&#45;&gt;Node6 -->
<g id="edge5_Node000001_Node000006" class="edge">
<title>Node1&#45;&gt;Node6</title>
<g id="a_edge5_Node000001_Node000006"><a xlink:title=" ">
<path fill="none" stroke="#63b8ff" d="M828.56,-278.92C811.98,-308.5 779.93,-358.43 739,-387 733.21,-391.04 726.72,-394.42 720.02,-397.25"/>
<polygon fill="#63b8ff" stroke="#63b8ff" points="831.66,-280.54 833.38,-270.08 825.52,-277.18 831.66,-280.54"/>
</a>
</g>
</g>
<!-- Node8 -->
<g id="Node000008" class="node">
<title>Node8</title>
<g id="a_Node000008"><a xlink:href="namespacem__start__up.html#ad26e747c87bb6bcf4c9d6baa21d044c1" target="_top" xlink:title="Checking that the user inputs make sense, i.e. that the individual choices are compatible with the co...">
<polygon fill="white" stroke="#666666" points="720,-378 604,-378 604,-348 720,-348 720,-378"/>
<text text-anchor="start" x="612" y="-366" font-family="Helvetica,sans-Serif" font-size="10.00">m_start_up::s_check</text>
<text text-anchor="middle" x="662" y="-355" font-family="Helvetica,sans-Serif" font-size="10.00">_input_file</text>
</a>
</g>
</g>
<!-- Node1&#45;&gt;Node8 -->
<g id="edge8_Node000001_Node000008" class="edge">
<title>Node1&#45;&gt;Node8</title>
<g id="a_edge8_Node000001_Node000008"><a xlink:title=" ">
<path fill="none" stroke="#63b8ff" d="M819.29,-277.15C799.8,-295.92 769.61,-322.38 739,-339 732.8,-342.37 726.05,-345.35 719.22,-347.96"/>
<polygon fill="#63b8ff" stroke="#63b8ff" points="821.77,-279.61 826.46,-270.12 816.87,-274.62 821.77,-279.61"/>
</a>
</g>
</g>
<!-- Node10 -->
<g id="Node000010" class="node">
<title>Node10</title>
<g id="a_Node000010"><a xlink:href="namespacem__icpp__patches.html#a8a05e2e8a5cfe33a3879051bda81f45a" target="_top" xlink:title="The line segment patch is a 1D geometry that may be used, for example, in creating a Riemann problem....">
<polygon fill="white" stroke="#666666" points="728,-474 596,-474 596,-444 728,-444 728,-474"/>
<text text-anchor="start" x="604" y="-462" font-family="Helvetica,sans-Serif" font-size="10.00">m_icpp_patches::s_icpp</text>
<text text-anchor="middle" x="662" y="-451" font-family="Helvetica,sans-Serif" font-size="10.00">_line_segment</text>
</a>
</g>
</g>
<!-- Node1&#45;&gt;Node10 -->
<g id="edge11_Node000001_Node000010" class="edge">
<title>Node1&#45;&gt;Node10</title>
<g id="a_edge11_Node000001_Node000010"><a xlink:title=" ">
<path fill="none" stroke="#63b8ff" d="M833.47,-280.01C820.5,-318.84 790.29,-393.48 739,-435 734.81,-438.4 730.13,-441.31 725.21,-443.82"/>
<polygon fill="#63b8ff" stroke="#63b8ff" points="836.93,-280.66 836.67,-270.06 830.27,-278.51 836.93,-280.66"/>
</a>
</g>
</g>
<!-- Node11 -->
<g id="Node000011" class="node">
<title>Node11</title>
<g id="a_Node000011"><a xlink:href="namespacem__mpi__common.html#afe54fe25c12eda7afe195fbf0fa166fc" target="_top" xlink:title="The purpose of this procedure is to optimally decompose the computational domain among the available ...">
<polygon fill="white" stroke="#666666" points="739,-329.5 585,-329.5 585,-288.5 739,-288.5 739,-329.5"/>
<text text-anchor="start" x="593" y="-317.5" font-family="Helvetica,sans-Serif" font-size="10.00">m_mpi_common::s_mpi</text>
<text text-anchor="start" x="593" y="-306.5" font-family="Helvetica,sans-Serif" font-size="10.00">_decompose_computational</text>
<text text-anchor="middle" x="662" y="-295.5" font-family="Helvetica,sans-Serif" font-size="10.00">_domain</text>
</a>
</g>
</g>
<!-- Node1&#45;&gt;Node11 -->
<g id="edge13_Node000001_Node000011" class="edge">
<title>Node1&#45;&gt;Node11</title>
<g id="a_edge13_Node000001_Node000011"><a xlink:title=" ">
<path fill="none" stroke="#63b8ff" d="M781.47,-273.06C765.15,-278.01 747.35,-283.41 730.61,-288.49"/>
<polygon fill="#63b8ff" stroke="#63b8ff" points="782.86,-276.29 791.42,-270.04 780.83,-269.6 782.86,-276.29"/>
</a>
</g>
</g>
<!-- Node12 -->
<g id="Node000012" class="node">
<title>Node12</title>
<g id="a_Node000012"><a xlink:href="namespacem__mpi__common.html#a4d03f5fc95657b6bec1f89221295b0cc" target="_top" xlink:title=" ">
<polygon fill="white" stroke="#666666" points="738,-270 586,-270 586,-240 738,-240 738,-270"/>
<text text-anchor="start" x="594" y="-258" font-family="Helvetica,sans-Serif" font-size="10.00">m_mpi_common::s_prohibit</text>
<text text-anchor="middle" x="662" y="-247" font-family="Helvetica,sans-Serif" font-size="10.00">_abort</text>
</a>
</g>
</g>
<!-- Node1&#45;&gt;Node12 -->
<g id="edge15_Node000001_Node000012" class="edge">
<title>Node1&#45;&gt;Node12</title>
<g id="a_edge15_Node000001_Node000012"><a xlink:title=" ">
<path fill="none" stroke="#63b8ff" d="M764.75,-255C755.96,-255 747,-255 738.22,-255"/>
<polygon fill="#63b8ff" stroke="#63b8ff" points="764.97,-258.5 774.97,-255 764.97,-251.5 764.97,-258.5"/>
</a>
</g>
</g>
<!-- Node13 -->
<g id="Node000013" class="node">
<title>Node13</title>
<g id="a_Node000013"><a xlink:href="namespacem__start__up.html#aca5460fc186e7b82ea78484ae98c74a4" target="_top" xlink:title="Reads the configuration file pre_process.inp, in order to populate the parameters in module m_global_...">
<polygon fill="white" stroke="#666666" points="717,-222 607,-222 607,-192 717,-192 717,-222"/>
<text text-anchor="start" x="615" y="-210" font-family="Helvetica,sans-Serif" font-size="10.00">m_start_up::s_read</text>
<text text-anchor="middle" x="662" y="-199" font-family="Helvetica,sans-Serif" font-size="10.00">_input_file</text>
</a>
</g>
</g>
<!-- Node1&#45;&gt;Node13 -->
<g id="edge16_Node000001_Node000013" class="edge">
<title>Node1&#45;&gt;Node13</title>
<g id="a_edge16_Node000001_Node000013"><a xlink:title=" ">
<path fill="none" stroke="#63b8ff" d="M775.31,-237.29C756.16,-232.12 735.46,-226.54 717.11,-221.59"/>
<polygon fill="#63b8ff" stroke="#63b8ff" points="774.6,-240.72 785.17,-239.94 776.42,-233.96 774.6,-240.72"/>
</a>
</g>
</g>
<!-- Node14 -->
<g id="Node000014" class="node">
<title>Node14</title>
<g id="a_Node000014"><a xlink:href="namespacem__start__up.html#af83f003fb19a86e776744613acfd74e7" target="_top" xlink:title="Cell&#45;boundary data are checked for consistency by looking at the (non&#45;)uniform cell&#45;width distributio...">
<polygon fill="white" stroke="#666666" points="729.5,-174 594.5,-174 594.5,-144 729.5,-144 729.5,-174"/>
<text text-anchor="start" x="602.5" y="-162" font-family="Helvetica,sans-Serif" font-size="10.00">m_start_up::s_read</text>
<text text-anchor="middle" x="662" y="-151" font-family="Helvetica,sans-Serif" font-size="10.00">_parallel_grid_data_files</text>
</a>
</g>
</g>
<!-- Node1&#45;&gt;Node14 -->
<g id="edge18_Node000001_Node000014" class="edge">
<title>Node1&#45;&gt;Node14</title>
<g id="a_edge18_Node000001_Node000014"><a xlink:title=" ">
<path fill="none" stroke="#63b8ff" d="M815.36,-233.51C795.54,-217.77 766.87,-196.82 739,-183 732.31,-179.68 725.05,-176.69 717.78,-174.05"/>
<polygon fill="#63b8ff" stroke="#63b8ff" points="813.31,-236.35 823.29,-239.9 817.7,-230.9 813.31,-236.35"/>
</a>
</g>
</g>
<!-- Node16 -->
<g id="Node000016" class="node">
<title>Node16</title>
<g id="a_Node000016"><a xlink:href="namespacem__start__up.html#aab98a0f72e61dec2d226d4483db779d3" target="_top" xlink:title="The goal of this subroutine is to read in any preexisting initial condition data files so that they m...">
<polygon fill="white" stroke="#666666" points="724.5,-126 599.5,-126 599.5,-96 724.5,-96 724.5,-126"/>
<text text-anchor="start" x="607.5" y="-114" font-family="Helvetica,sans-Serif" font-size="10.00">m_start_up::s_read</text>
<text text-anchor="middle" x="662" y="-103" font-family="Helvetica,sans-Serif" font-size="10.00">_parallel_ic_data_files</text>
</a>
</g>
</g>
<!-- Node1&#45;&gt;Node16 -->
<g id="edge21_Node000001_Node000016" class="edge">
<title>Node1&#45;&gt;Node16</title>
<g id="a_edge21_Node000001_Node000016"><a xlink:title=" ">
<path fill="none" stroke="#63b8ff" d="M826.7,-231.22C809.24,-204.15 777.27,-160.41 739,-135 733.81,-131.56 728.1,-128.58 722.21,-126.02"/>
<polygon fill="#63b8ff" stroke="#63b8ff" points="823.75,-233.12 832.05,-239.71 829.68,-229.38 823.75,-233.12"/>
</a>
</g>
</g>
<!-- Node17 -->
<g id="Node000017" class="node">
<title>Node17</title>
<g id="a_Node000017"><a xlink:href="namespacem__start__up.html#a6a43c0e78ce8e3a0c1b636affd6ee2a0" target="_top" xlink:title="The goal of this subroutine is to read in any preexisting grid data as well as based on the imported ...">
<polygon fill="white" stroke="#666666" points="724.5,-78 599.5,-78 599.5,-48 724.5,-48 724.5,-78"/>
<text text-anchor="start" x="607.5" y="-66" font-family="Helvetica,sans-Serif" font-size="10.00">m_start_up::s_read</text>
<text text-anchor="middle" x="662" y="-55" font-family="Helvetica,sans-Serif" font-size="10.00">_serial_grid_data_files</text>
</a>
</g>
</g>
<!-- Node1&#45;&gt;Node17 -->
<g id="edge23_Node000001_Node000017" class="edge">
<title>Node1&#45;&gt;Node17</title>
<g id="a_edge23_Node000001_Node000017"><a xlink:title=" ">
<path fill="none" stroke="#63b8ff" d="M832.58,-230.55C818.76,-194 787.82,-125.32 739,-87 734.65,-83.58 729.8,-80.65 724.72,-78.13"/>
<polygon fill="#63b8ff" stroke="#63b8ff" points="829.3,-231.77 836.03,-239.96 835.87,-229.36 829.3,-231.77"/>
</a>
</g>
</g>
<!-- Node18 -->
<g id="Node000018" class="node">
<title>Node18</title>
<g id="a_Node000018"><a xlink:href="namespacem__start__up.html#a281fc9103a900ed7b036d08899a16e69" target="_top" xlink:title="The goal of this subroutine is to read in any preexisting initial condition data files so that they m...">
<polygon fill="white" stroke="#666666" points="719.5,-30 604.5,-30 604.5,0 719.5,0 719.5,-30"/>
<text text-anchor="start" x="612.5" y="-18" font-family="Helvetica,sans-Serif" font-size="10.00">m_start_up::s_read</text>
<text text-anchor="middle" x="662" y="-7" font-family="Helvetica,sans-Serif" font-size="10.00">_serial_ic_data_files</text>
</a>
</g>
</g>
<!-- Node1&#45;&gt;Node18 -->
<g id="edge25_Node000001_Node000018" class="edge">
<title>Node1&#45;&gt;Node18</title>
<g id="a_edge25_Node000001_Node000018"><a xlink:title=" ">
<path fill="none" stroke="#63b8ff" d="M836.04,-229.88C825.88,-185.01 798.45,-90.91 739,-39 733.37,-34.09 726.74,-30.18 719.77,-27.07"/>
<polygon fill="#63b8ff" stroke="#63b8ff" points="832.68,-230.89 838.21,-239.93 839.52,-229.42 832.68,-230.89"/>
</a>
</g>
</g>
<!-- Node3 -->
<g id="Node000003" class="node">
<title>Node3</title>
<g id="a_Node000003"><a xlink:href="namespacem__initial__condition.html#ae5ca036f43a2eebe1e2cc84fc9c61d28" target="_top" xlink:title="This subroutine peruses the patches and depending on the type of geometry associated with a particula...">
<polygon fill="white" stroke="#666666" points="362,-468.5 252,-468.5 252,-427.5 362,-427.5 362,-468.5"/>
<text text-anchor="start" x="260" y="-456.5" font-family="Helvetica,sans-Serif" font-size="10.00">m_initial_condition</text>
<text text-anchor="start" x="260" y="-445.5" font-family="Helvetica,sans-Serif" font-size="10.00">::s_generate_initial</text>
<text text-anchor="middle" x="307" y="-434.5" font-family="Helvetica,sans-Serif" font-size="10.00">_condition</text>
</a>
</g>
</g>
<!-- Node2&#45;&gt;Node3 -->
<g id="edge2_Node000002_Node000003" class="edge">
<title>Node2&#45;&gt;Node3</title>
<g id="a_edge2_Node000002_Node000003"><a xlink:title=" ">
<path fill="none" stroke="#63b8ff" d="M399.56,-453.91C386.91,-453.09 374.07,-452.26 362.17,-451.49"/>
<polygon fill="#63b8ff" stroke="#63b8ff" points="399.44,-457.41 409.64,-454.56 399.89,-450.42 399.44,-457.41"/>
</a>
</g>
</g>
<!-- Node4 -->
<g id="Node000004" class="node">
<title>Node4</title>
<g id="a_Node000004"><a xlink:href="namespacem__start__up.html#a513ef24d6c8beafb8b94c015db266100" target="_top" xlink:title=" ">
<polygon fill="white" stroke="#666666" points="204,-429 89,-429 89,-399 204,-399 204,-429"/>
<text text-anchor="start" x="97" y="-417" font-family="Helvetica,sans-Serif" font-size="10.00">m_start_up::s_apply</text>
<text text-anchor="middle" x="146.5" y="-406" font-family="Helvetica,sans-Serif" font-size="10.00">_initial_condition</text>
</a>
</g>
</g>
<!-- Node3&#45;&gt;Node4 -->
<g id="edge3_Node000003_Node000004" class="edge">
<title>Node3&#45;&gt;Node4</title>
<g id="a_edge3_Node000003_Node000004"><a xlink:title=" ">
<path fill="none" stroke="#63b8ff" d="M241.97,-434.27C229.42,-431.57 216.34,-428.77 204.06,-426.13"/>
<polygon fill="#63b8ff" stroke="#63b8ff" points="241.38,-437.72 251.9,-436.39 242.85,-430.87 241.38,-437.72"/>
</a>
</g>
</g>
<!-- Node5 -->
<g id="Node000005" class="node">
<title>Node5</title>
<g id="a_Node000005"><a xlink:href="p__main_8f90.html#aeec10ee8e2940c953967da3e374e1579" target="_top" xlink:title="This program takes care of setting up the initial condition and grid data for the multicomponent flow...">
<polygon fill="white" stroke="#666666" points="53,-350.5 0,-350.5 0,-331.5 53,-331.5 53,-350.5"/>
<text text-anchor="middle" x="26.5" y="-338.5" font-family="Helvetica,sans-Serif" font-size="10.00">p_main</text>
</a>
</g>
</g>
<!-- Node4&#45;&gt;Node5 -->
<g id="edge4_Node000004_Node000005" class="edge">
<title>Node4&#45;&gt;Node5</title>
<g id="a_edge4_Node000004_Node000005"><a xlink:title=" ">
<path fill="none" stroke="#63b8ff" d="M107.67,-393.91C101.37,-390.38 94.96,-386.66 89,-383 72.03,-372.58 53.22,-359.5 40.93,-350.73"/>
<polygon fill="#63b8ff" stroke="#63b8ff" points="106.29,-397.15 116.74,-398.92 109.68,-391.02 106.29,-397.15"/>
</a>
</g>
</g>
<!-- Node7 -->
<g id="Node000007" class="node">
<title>Node7</title>
<g id="a_Node000007"><a xlink:href="namespacem__start__up.html#a7ff1609d736d72da1116824757e233c8" target="_top" xlink:title=" ">
<polygon fill="white" stroke="#666666" points="374,-386.5 240,-386.5 240,-367.5 374,-367.5 374,-386.5"/>
<text text-anchor="middle" x="307" y="-374.5" font-family="Helvetica,sans-Serif" font-size="10.00">m_start_up::s_read_grid</text>
</a>
</g>
</g>
<!-- Node6&#45;&gt;Node7 -->
<g id="edge6_Node000006_Node000007" class="edge">
<title>Node6&#45;&gt;Node7</title>
<g id="a_edge6_Node000006_Node000007"><a xlink:title=" ">
<path fill="none" stroke="#63b8ff" d="M593.65,-404.51C530.52,-398.43 436.74,-389.4 374.04,-383.36"/>
<polygon fill="#63b8ff" stroke="#63b8ff" points="593.6,-408.02 603.89,-405.5 594.27,-401.06 593.6,-408.02"/>
</a>
</g>
</g>
<!-- Node7&#45;&gt;Node5 -->
<g id="edge7_Node000007_Node000005" class="edge">
<title>Node7&#45;&gt;Node5</title>
<g id="a_edge7_Node000007_Node000005"><a xlink:title=" ">
<path fill="none" stroke="#63b8ff" d="M229.97,-367.17C170.99,-359.55 92.8,-349.44 53.05,-344.3"/>
<polygon fill="#63b8ff" stroke="#63b8ff" points="229.63,-370.66 240,-368.47 230.53,-363.72 229.63,-370.66"/>
</a>
</g>
</g>
<!-- Node9 -->
<g id="Node000009" class="node">
<title>Node9</title>
<g id="a_Node000009"><a xlink:href="namespacem__start__up.html#ab64542f13c680e17ce8879c77c65c0e0" target="_top" xlink:title=" ">
<polygon fill="white" stroke="#666666" points="544.5,-328 414.5,-328 414.5,-298 544.5,-298 544.5,-328"/>
<text text-anchor="start" x="422.5" y="-316" font-family="Helvetica,sans-Serif" font-size="10.00">m_start_up::s_initialize</text>
<text text-anchor="middle" x="479.5" y="-305" font-family="Helvetica,sans-Serif" font-size="10.00">_mpi_domain</text>
</a>
</g>
</g>
<!-- Node8&#45;&gt;Node9 -->
<g id="edge9_Node000008_Node000009" class="edge">
<title>Node8&#45;&gt;Node9</title>
<g id="a_edge9_Node000008_Node000009"><a xlink:title=" ">
<path fill="none" stroke="#63b8ff" d="M597.05,-345.29C576.75,-339.66 554.5,-333.5 534.93,-328.08"/>
<polygon fill="#63b8ff" stroke="#63b8ff" points="596.27,-348.7 606.84,-348 598.14,-341.96 596.27,-348.7"/>
</a>
</g>
</g>
<!-- Node9&#45;&gt;Node5 -->
<g id="edge10_Node000009_Node000005" class="edge">
<title>Node9&#45;&gt;Node5</title>
<g id="a_edge10_Node000009_Node000005"><a xlink:title=" ">
<path fill="none" stroke="#63b8ff" d="M404.33,-317.6C301.22,-324.01 119.74,-335.27 53.03,-339.42"/>
<polygon fill="#63b8ff" stroke="#63b8ff" points="404.6,-321.09 414.36,-316.98 404.16,-314.11 404.6,-321.09"/>
</a>
</g>
</g>
<!-- Node10&#45;&gt;Node2 -->
<g id="edge12_Node000010_Node000002" class="edge">
<title>Node10&#45;&gt;Node2</title>
<g id="a_edge12_Node000010_Node000002"><a xlink:title=" ">
<path fill="none" stroke="#63b8ff" d="M585.77,-459C573.66,-459 561.17,-459 549.22,-459"/>
<polygon fill="#63b8ff" stroke="#63b8ff" points="585.84,-462.5 595.84,-459 585.84,-455.5 585.84,-462.5"/>
</a>
</g>
</g>
<!-- Node11&#45;&gt;Node9 -->
<g id="edge14_Node000011_Node000009" class="edge">
<title>Node11&#45;&gt;Node9</title>
<g id="a_edge14_Node000011_Node000009"><a xlink:title=" ">
<path fill="none" stroke="#63b8ff" d="M574.87,-310.91C564.72,-311.13 554.5,-311.36 544.73,-311.58"/>
<polygon fill="#63b8ff" stroke="#63b8ff" points="575.05,-314.41 584.97,-310.68 574.9,-307.41 575.05,-314.41"/>
</a>
</g>
</g>
<!-- Node13&#45;&gt;Node9 -->
<g id="edge17_Node000013_Node000009" class="edge">
<title>Node13&#45;&gt;Node9</title>
<g id="a_edge17_Node000013_Node000009"><a xlink:title=" ">
<path fill="none" stroke="#63b8ff" d="M597.41,-225.16C593.14,-226.96 588.96,-228.91 585,-231 550.12,-249.41 515.21,-279.81 495.88,-297.97"/>
<polygon fill="#63b8ff" stroke="#63b8ff" points="598.84,-228.36 606.87,-221.43 596.28,-221.84 598.84,-228.36"/>
</a>
</g>
</g>
<!-- Node15 -->
<g id="Node000015" class="node">
<title>Node15</title>
<g id="a_Node000015"><a xlink:href="namespacem__start__up.html#a1fb7a3f9d412acd2a9cbcfe8b45006dd" target="_top" xlink:title=" ">
<polygon fill="white" stroke="#666666" points="544.5,-126 414.5,-126 414.5,-96 544.5,-96 544.5,-126"/>
<text text-anchor="start" x="422.5" y="-114" font-family="Helvetica,sans-Serif" font-size="10.00">m_start_up::s_initialize</text>
<text text-anchor="middle" x="479.5" y="-103" font-family="Helvetica,sans-Serif" font-size="10.00">_modules</text>
</a>
</g>
</g>
<!-- Node14&#45;&gt;Node15 -->
<g id="edge19_Node000014_Node000015" class="edge">
<title>Node14&#45;&gt;Node15</title>
<g id="a_edge19_Node000014_Node000015"><a xlink:title=" ">
<path fill="none" stroke="#63b8ff" d="M594.63,-141.35C575.68,-136.31 555.21,-130.87 536.92,-126"/>
<polygon fill="#63b8ff" stroke="#63b8ff" points="593.82,-144.76 604.38,-143.94 595.62,-137.99 593.82,-144.76"/>
</a>
</g>
</g>
<!-- Node15&#45;&gt;Node5 -->
<g id="edge20_Node000015_Node000005" class="edge">
<title>Node15&#45;&gt;Node5</title>
<g id="a_edge20_Node000015_Node000005"><a xlink:title=" ">
<path fill="none" stroke="#63b8ff" d="M439.86,-130.71C347.1,-178.01 114.49,-296.64 46.47,-331.33"/>
<polygon fill="#63b8ff" stroke="#63b8ff" points="441.59,-133.75 448.91,-126.09 438.41,-127.52 441.59,-133.75"/>
</a>
</g>
</g>
<!-- Node16&#45;&gt;Node15 -->
<g id="edge22_Node000016_Node000015" class="edge">
<title>Node16&#45;&gt;Node15</title>
<g id="a_edge22_Node000016_Node000015"><a xlink:title=" ">
<path fill="none" stroke="#63b8ff" d="M589.3,-111C574.53,-111 559.08,-111 544.6,-111"/>
<polygon fill="#63b8ff" stroke="#63b8ff" points="589.39,-114.5 599.39,-111 589.39,-107.5 589.39,-114.5"/>
</a>
</g>
</g>
<!-- Node17&#45;&gt;Node15 -->
<g id="edge24_Node000017_Node000015" class="edge">
<title>Node17&#45;&gt;Node15</title>
<g id="a_edge24_Node000017_Node000015"><a xlink:title=" ">
<path fill="none" stroke="#63b8ff" d="M594.63,-80.65C575.68,-85.69 555.21,-91.13 536.92,-96"/>
<polygon fill="#63b8ff" stroke="#63b8ff" points="595.62,-84.01 604.38,-78.06 593.82,-77.24 595.62,-84.01"/>
</a>
</g>
</g>
<!-- Node18&#45;&gt;Node15 -->
<g id="edge26_Node000018_Node000015" class="edge">
<title>Node18&#45;&gt;Node15</title>
<g id="a_edge26_Node000018_Node000015"><a xlink:title=" ">
<path fill="none" stroke="#63b8ff" d="M596.76,-33.77C592.73,-35.41 588.78,-37.15 585,-39 552.54,-54.87 518.78,-79.95 498.71,-95.93"/>
<polygon fill="#63b8ff" stroke="#63b8ff" points="598.18,-36.97 606.26,-30.12 595.67,-30.43 598.18,-36.97"/>
</a>
</g>
</g>
</g>
</svg>
