<?xml version="1.0" encoding="UTF-8" standalone="no"?>
<!DOCTYPE svg PUBLIC "-//W3C//DTD SVG 1.1//EN"
 "http://www.w3.org/Graphics/SVG/1.1/DTD/svg11.dtd">
<!-- Generated by graphviz version 2.43.0 (0)
 -->
<!-- Title: m_perturbation::s_perturb_mixlayer Pages: 1 -->
<!--zoomable 114 -->

<svg id="main" version="1.1" xmlns="http://www.w3.org/2000/svg" xmlns:xlink="http://www.w3.org/1999/xlink" xml:space="preserve" onload="init(evt)">

<style type="text/css"><![CDATA[
.node, .edge {opacity: 0.7;}
.node.selected, .edge.selected {opacity: 1;}
.edge:hover path { stroke: red; }
.edge:hover polygon { stroke: red; fill: red; }
]]></style>

<defs>
  <circle id="rim" cx="0" cy="0" r="7"/>
  <circle id="rim2" cx="0" cy="0" r="3.5"/>
  <g id="zoomPlus">
    <use xlink:href="#rim" fill="#404040"><set attributeName="fill" to="#808080" begin="zoomplus.mouseover" end="zoomplus.mouseout"/></use>
    <path d="M-4,0h8M0,-4v8" fill="none" stroke="white" stroke-width="1.5" pointer-events="none"/>
  </g>
  <g id="zoomMin">
    <use xlink:href="#rim" fill="#404040"><set attributeName="fill" to="#808080" begin="zoomminus.mouseover" end="zoomminus.mouseout"/></use>
    <path d="M-4,0h8" fill="none" stroke="white" stroke-width="1.5" pointer-events="none"/>
  </g>
  <g id="arrowUp" transform="translate(30 24)">
    <use xlink:href="#rim"/>
    <path pointer-events="none" fill="none" stroke="white" stroke-width="1.5" d="M0,-3.0v7 M-2.5,-0.5L0,-3.0L2.5,-0.5"/>
  </g>
  <g id="arrowRight" transform="rotate(90) translate(36 -43)">
    <use xlink:href="#rim"/>
    <path pointer-events="none" fill="none" stroke="white" stroke-width="1.5" d="M0,-3.0v7 M-2.5,-0.5L0,-3.0L2.5,-0.5"/>
  </g>
  <g id="arrowDown" transform="rotate(180) translate(-30 -48)">
    <use xlink:href="#rim"/>
    <path pointer-events="none" fill="none" stroke="white" stroke-width="1.5" d="M0,-3.0v7 M-2.5,-0.5L0,-3.0L2.5,-0.5"/>
  </g>
  <g id="arrowLeft" transform="rotate(270) translate(-36 17)">
    <use xlink:href="#rim"/>
    <path pointer-events="none" fill="none" stroke="white" stroke-width="1.5" d="M0,-3.0v7 M-2.5,-0.5L0,-3.0L2.5,-0.5"/>
  </g>
  <g id="resetDef">
    <use xlink:href="#rim2" fill="#404040"><set attributeName="fill" to="#808080" begin="reset.mouseover" end="reset.mouseout"/></use>
  </g>
</defs>
<script type="application/ecmascript">
var viewWidth = 679;
var viewHeight = 114;
var sectionId = 'dynsection-6';
</script>
<script type="application/ecmascript" xlink:href="svg.min.js"/>
<svg id="graph" class="graph">
<g id="viewport">
<title>m_perturbation::s_perturb_mixlayer</title>
<!-- Node1 -->
<g id="Node000001" class="node">
<title>Node1</title>
<g id="a_Node000001"><a xlink:title="This subroutine computes velocity perturbations for a temporal mixing layer with a hyperbolic tangent...">
<polygon fill="#999999" stroke="#666666" points="143,-83.5 0,-83.5 0,-53.5 143,-53.5 143,-83.5"/>
<text text-anchor="start" x="8" y="-71.5" font-family="Helvetica,sans-Serif" font-size="10.00">m_perturbation::s_perturb</text>
<text text-anchor="middle" x="71.5" y="-60.5" font-family="Helvetica,sans-Serif" font-size="10.00">_mixlayer</text>
</a>
</g>
</g>
<!-- Node2 -->
<g id="Node000002" class="node">
<title>Node2</title>
<g id="a_Node000002"><a xlink:href="namespacem__helper.html#aded4fe6025b2194ba0b5cc5a264af9ec" target="_top" xlink:title="This procedure computes the cross product of two vectors.">
<polygon fill="white" stroke="#666666" points="306.5,-100 203.5,-100 203.5,-81 306.5,-81 306.5,-100"/>
<text text-anchor="middle" x="255" y="-88" font-family="Helvetica,sans-Serif" font-size="10.00">m_helper::f_cross</text>
</a>
</g>
</g>
<!-- Node1&#45;&gt;Node2 -->
<g id="edge1_Node000001_Node000002" class="edge">
<title>Node1&#45;&gt;Node2</title>
<g id="a_edge1_Node000001_Node000002"><a xlink:title=" ">
<path fill="none" stroke="#63b8ff" d="M143.19,-77.07C159.69,-79.07 177.11,-81.18 193.13,-83.12"/>
<polygon fill="#63b8ff" stroke="#63b8ff" points="193.09,-86.64 203.44,-84.37 193.93,-79.69 193.09,-86.64"/>
</a>
</g>
</g>
<!-- Node3 -->
<g id="Node000003" class="node">
<title>Node3</title>
<g id="a_Node000003"><a xlink:href="namespacem__perturbation.html#a49336011b98f1698ccd754d19a70db20" target="_top" xlink:title=" ">
<polygon fill="white" stroke="#666666" points="331,-62.5 179,-62.5 179,-32.5 331,-32.5 331,-62.5"/>
<text text-anchor="start" x="187" y="-50.5" font-family="Helvetica,sans-Serif" font-size="10.00">m_perturbation::s_generate</text>
<text text-anchor="middle" x="255" y="-39.5" font-family="Helvetica,sans-Serif" font-size="10.00">_random_perturbation</text>
</a>
</g>
</g>
<!-- Node1&#45;&gt;Node3 -->
<g id="edge2_Node000001_Node000003" class="edge">
<title>Node1&#45;&gt;Node3</title>
<g id="a_edge2_Node000001_Node000003"><a xlink:title=" ">
<path fill="none" stroke="#63b8ff" d="M143.19,-60.32C151.56,-59.35 160.17,-58.36 168.72,-57.37"/>
<polygon fill="#63b8ff" stroke="#63b8ff" points="169.17,-60.84 178.7,-56.21 168.36,-53.88 169.17,-60.84"/>
</a>
</g>
</g>
<!-- Node4 -->
<g id="Node000004" class="node">
<title>Node4</title>
<g id="a_Node000004"><a xlink:href="namespacem__perturbation.html#a492ba3cf7b2070a7db7d75f7868eedc4" target="_top" xlink:title=" ">
<polygon fill="white" stroke="#666666" points="494.5,-105.5 369.5,-105.5 369.5,-75.5 494.5,-75.5 494.5,-105.5"/>
<text text-anchor="start" x="377.5" y="-93.5" font-family="Helvetica,sans-Serif" font-size="10.00">m_perturbation::f_unit</text>
<text text-anchor="middle" x="432" y="-82.5" font-family="Helvetica,sans-Serif" font-size="10.00">_vector</text>
</a>
</g>
</g>
<!-- Node3&#45;&gt;Node4 -->
<g id="edge3_Node000003_Node000004" class="edge">
<title>Node3&#45;&gt;Node4</title>
<g id="a_edge3_Node000003_Node000004"><a xlink:title=" ">
<path fill="none" stroke="#63b8ff" d="M317.21,-62.54C331.06,-65.94 345.88,-69.59 360.1,-73.08"/>
<polygon fill="#63b8ff" stroke="#63b8ff" points="359.28,-76.48 369.83,-75.47 360.95,-69.68 359.28,-76.48"/>
</a>
</g>
</g>
<!-- Node5 -->
<g id="Node000005" class="node">
<title>Node5</title>
<g id="a_Node000005"><a xlink:href="namespacem__perturbation.html#a0c2d38b30e2c0aacd18b87e2d43a2249" target="_top" xlink:title=" ">
<polygon fill="white" stroke="#666666" points="671,-38 533,-38 533,-19 671,-19 671,-38"/>
<text text-anchor="middle" x="602" y="-26" font-family="Helvetica,sans-Serif" font-size="10.00">m_perturbation::modmul</text>
</a>
</g>
</g>
<!-- Node3&#45;&gt;Node5 -->
<g id="edge4_Node000003_Node000005" class="edge">
<title>Node3&#45;&gt;Node5</title>
<g id="a_edge4_Node000003_Node000005"><a xlink:title=" ">
<path fill="none" stroke="#63b8ff" d="M331.29,-43.35C387.96,-40.23 465.42,-35.97 522.79,-32.81"/>
<polygon fill="#63b8ff" stroke="#63b8ff" points="523.1,-36.3 532.89,-32.25 522.72,-29.31 523.1,-36.3"/>
</a>
</g>
</g>
<!-- Node6 -->
<g id="Node000006" class="node">
<title>Node6</title>
<g id="a_Node000006"><a xlink:href="namespacem__perturbation.html#a54bbfa24f96c984b26015bddcfb59ee4" target="_top" xlink:title="This function generates a pseudo&#45;random number between 0 and 1 based on linear congruential generator...">
<polygon fill="white" stroke="#666666" points="497,-19 367,-19 367,0 497,0 497,-19"/>
<text text-anchor="middle" x="432" y="-7" font-family="Helvetica,sans-Serif" font-size="10.00">m_perturbation::s_prng</text>
</a>
</g>
</g>
<!-- Node3&#45;&gt;Node6 -->
<g id="edge5_Node000003_Node000006" class="edge">
<title>Node3&#45;&gt;Node6</title>
<g id="a_edge5_Node000003_Node000006"><a xlink:title=" ">
<path fill="none" stroke="#63b8ff" d="M325.16,-32.48C342.49,-28.72 360.82,-24.74 377.27,-21.17"/>
<polygon fill="#63b8ff" stroke="#63b8ff" points="378.22,-24.54 387.25,-19 376.73,-17.7 378.22,-24.54"/>
</a>
</g>
</g>
<!-- Node6&#45;&gt;Node5 -->
<g id="edge6_Node000006_Node000005" class="edge">
<title>Node6&#45;&gt;Node5</title>
<g id="a_edge6_Node000006_Node000005"><a xlink:title=" ">
<path fill="none" stroke="#63b8ff" d="M497.47,-16.79C505.7,-17.72 514.18,-18.68 522.6,-19.63"/>
<polygon fill="#63b8ff" stroke="#63b8ff" points="522.47,-23.14 532.8,-20.79 523.25,-16.18 522.47,-23.14"/>
</a>
</g>
</g>
</g>
</svg>

<g id="navigator" transform="translate(0 0)" fill="#404254">
  <rect fill="#f2f5e9" fill-opacity="0.5" stroke="#606060" stroke-width=".5" x="0" y="0" width="60" height="60"/>
  <use id="zoomplus" xlink:href="#zoomPlus" x="17" y="9" onmousedown="handleZoom(evt,'in')"/>
  <use id="zoomminus" xlink:href="#zoomMin" x="42" y="9" onmousedown="handleZoom(evt,'out')"/>
  <use id="reset" xlink:href="#resetDef" x="30" y="36" onmousedown="handleReset()"/>
   <use id="arrowup" xlink:href="#arrowUp" x="0" y="0" onmousedown="handlePan(0,-1)"/>
  <use id="arrowright" xlink:href="#arrowRight" x="0" y="0" onmousedown="handlePan(1,0)"/>
  <use id="arrowdown" xlink:href="#arrowDown" x="0" y="0" onmousedown="handlePan(0,1)"/>
  <use id="arrowleft" xlink:href="#arrowLeft" x="0" y="0" onmousedown="handlePan(-1,0)"/>
</g>
<svg viewBox="0 0 15 15" width="100%" height="30px" preserveAspectRatio="xMaxYMin meet">
 <g id="arrow_out" transform="scale(0.3 0.3)">
  <a xlink:href="namespacem__perturbation_afa02cfb00a8406637b02037a5d8a05ae_cgraph_org.svg" target="_base">
   <rect id="button" ry="5" rx="5" y="6" x="6" height="38" width="38"
        fill="#f2f5e9" fill-opacity="0.5" stroke="#606060" stroke-width="1.0"/>
   <path id="arrow"
     d="M 11.500037,31.436501 C 11.940474,20.09759 22.043105,11.32322 32.158766,21.979434 L 37.068811,17.246167 C 37.068811,17.246167 37.088388,32 37.088388,32 L 22.160133,31.978069 C 22.160133,31.978069 26.997745,27.140456 26.997745,27.140456 C 18.528582,18.264221 13.291696,25.230495 11.500037,31.436501 z"
     style="fill:#404040;"/>
  </a>
 </g>
</svg>

<style type='text/css'>
<![CDATA[
[data-mouse-over-selected='false'] { opacity: 0.7; }
[data-mouse-over-selected='true']  { opacity: 1.0; }
]]>
</style>
<script type="application/ecmascript"><![CDATA[
document.addEventListener('DOMContentLoaded', (event) => {
  highlightEdges();
  highlightAdjacentNodes();
});
]]></script>
</svg>
