<?xml version="1.0" encoding="UTF-8" standalone="no"?>
<!DOCTYPE svg PUBLIC "-//W3C//DTD SVG 1.1//EN"
 "http://www.w3.org/Graphics/SVG/1.1/DTD/svg11.dtd">
<!-- Generated by graphviz version 2.43.0 (0)
 -->
<!-- Title: m_mpi_common::s_mpi_barrier Pages: 1 -->
<svg width="575pt" height="113pt"
 viewBox="0.00 0.00 575.00 113.00" xmlns="http://www.w3.org/2000/svg" xmlns:xlink="http://www.w3.org/1999/xlink">
<g id="graph0" class="graph" transform="scale(1 1) rotate(0) translate(4 109)">
<title>m_mpi_common::s_mpi_barrier</title>
<!-- Node1 -->
<g id="Node000001" class="node">
<title>Node1</title>
<g id="a_Node000001"><a xlink:title="Halts all processes until all have reached barrier.">
<polygon fill="#999999" stroke="#666666" points="567,-67.5 433,-67.5 433,-37.5 567,-37.5 567,-67.5"/>
<text text-anchor="start" x="441" y="-55.5" font-family="Helvetica,sans-Serif" font-size="10.00">m_mpi_common::s_mpi</text>
<text text-anchor="middle" x="500" y="-44.5" font-family="Helvetica,sans-Serif" font-size="10.00">_barrier</text>
</a>
</g>
</g>
<!-- Node2 -->
<g id="Node000002" class="node">
<title>Node2</title>
<g id="a_Node000002"><a xlink:href="namespacem__start__up.html#a7ff1609d736d72da1116824757e233c8" target="_top" xlink:title=" ">
<polygon fill="white" stroke="#666666" points="223,-105 89,-105 89,-86 223,-86 223,-105"/>
<text text-anchor="middle" x="156" y="-93" font-family="Helvetica,sans-Serif" font-size="10.00">m_start_up::s_read_grid</text>
</a>
</g>
</g>
<!-- Node1&#45;&gt;Node2 -->
<g id="edge1_Node000001_Node000002" class="edge">
<title>Node1&#45;&gt;Node2</title>
<g id="a_edge1_Node000001_Node000002"><a xlink:title=" ">
<path fill="none" stroke="#63b8ff" d="M431.82,-69.83C420.26,-72.38 408.33,-74.73 397,-76.5 338.57,-85.63 271.41,-90.47 223.02,-92.98"/>
<polygon fill="#63b8ff" stroke="#63b8ff" points="432.87,-73.18 441.85,-67.56 431.32,-66.36 432.87,-73.18"/>
</a>
</g>
</g>
<!-- Node4 -->
<g id="Node000004" class="node">
<title>Node4</title>
<g id="a_Node000004"><a xlink:href="namespacem__start__up.html#aab98a0f72e61dec2d226d4483db779d3" target="_top" xlink:title="The goal of this subroutine is to read in any preexisting initial condition data files so that they m...">
<polygon fill="white" stroke="#666666" points="390.5,-67.5 265.5,-67.5 265.5,-37.5 390.5,-37.5 390.5,-67.5"/>
<text text-anchor="start" x="273.5" y="-55.5" font-family="Helvetica,sans-Serif" font-size="10.00">m_start_up::s_read</text>
<text text-anchor="middle" x="328" y="-44.5" font-family="Helvetica,sans-Serif" font-size="10.00">_parallel_ic_data_files</text>
</a>
</g>
</g>
<!-- Node1&#45;&gt;Node4 -->
<g id="edge3_Node000001_Node000004" class="edge">
<title>Node1&#45;&gt;Node4</title>
<g id="a_edge3_Node000001_Node000004"><a xlink:title=" ">
<path fill="none" stroke="#63b8ff" d="M422.59,-52.5C411.88,-52.5 400.98,-52.5 390.59,-52.5"/>
<polygon fill="#63b8ff" stroke="#63b8ff" points="422.79,-56 432.79,-52.5 422.79,-49 422.79,-56"/>
</a>
</g>
</g>
<!-- Node6 -->
<g id="Node000006" class="node">
<title>Node6</title>
<g id="a_Node000006"><a xlink:href="namespacem__start__up.html#a2a5bdd175d6ddb8c024887e4e18bbdd8" target="_top" xlink:title=" ">
<polygon fill="white" stroke="#666666" points="397,-19 259,-19 259,0 397,0 397,-19"/>
<text text-anchor="middle" x="328" y="-7" font-family="Helvetica,sans-Serif" font-size="10.00">m_start_up::s_save_data</text>
</a>
</g>
</g>
<!-- Node1&#45;&gt;Node6 -->
<g id="edge6_Node000001_Node000006" class="edge">
<title>Node1&#45;&gt;Node6</title>
<g id="a_edge6_Node000001_Node000006"><a xlink:title=" ">
<path fill="none" stroke="#63b8ff" d="M429.75,-34.98C408.18,-29.53 385.2,-23.72 366.65,-19.02"/>
<polygon fill="#63b8ff" stroke="#63b8ff" points="428.99,-38.4 439.54,-37.46 430.71,-31.62 428.99,-38.4"/>
</a>
</g>
</g>
<!-- Node3 -->
<g id="Node000003" class="node">
<title>Node3</title>
<g id="a_Node000003"><a xlink:href="p__main_8f90.html#aeec10ee8e2940c953967da3e374e1579" target="_top" xlink:title="This program takes care of setting up the initial condition and grid data for the multicomponent flow...">
<polygon fill="white" stroke="#666666" points="53,-62 0,-62 0,-43 53,-43 53,-62"/>
<text text-anchor="middle" x="26.5" y="-50" font-family="Helvetica,sans-Serif" font-size="10.00">p_main</text>
</a>
</g>
</g>
<!-- Node2&#45;&gt;Node3 -->
<g id="edge2_Node000002_Node000003" class="edge">
<title>Node2&#45;&gt;Node3</title>
<g id="a_edge2_Node000002_Node000003"><a xlink:title=" ">
<path fill="none" stroke="#63b8ff" d="M109.55,-83.01C102.63,-80.94 95.6,-78.73 89,-76.5 76.08,-72.13 61.88,-66.64 50.39,-62.01"/>
<polygon fill="#63b8ff" stroke="#63b8ff" points="108.95,-86.48 119.53,-85.94 110.92,-79.77 108.95,-86.48"/>
</a>
</g>
</g>
<!-- Node5 -->
<g id="Node000005" class="node">
<title>Node5</title>
<g id="a_Node000005"><a xlink:href="namespacem__start__up.html#a1fb7a3f9d412acd2a9cbcfe8b45006dd" target="_top" xlink:title=" ">
<polygon fill="white" stroke="#666666" points="221,-67.5 91,-67.5 91,-37.5 221,-37.5 221,-67.5"/>
<text text-anchor="start" x="99" y="-55.5" font-family="Helvetica,sans-Serif" font-size="10.00">m_start_up::s_initialize</text>
<text text-anchor="middle" x="156" y="-44.5" font-family="Helvetica,sans-Serif" font-size="10.00">_modules</text>
</a>
</g>
</g>
<!-- Node4&#45;&gt;Node5 -->
<g id="edge4_Node000004_Node000005" class="edge">
<title>Node4&#45;&gt;Node5</title>
<g id="a_edge4_Node000004_Node000005"><a xlink:title=" ">
<path fill="none" stroke="#63b8ff" d="M254.93,-52.5C243.69,-52.5 232.14,-52.5 221.09,-52.5"/>
<polygon fill="#63b8ff" stroke="#63b8ff" points="255.15,-56 265.15,-52.5 255.15,-49 255.15,-56"/>
</a>
</g>
</g>
<!-- Node5&#45;&gt;Node3 -->
<g id="edge5_Node000005_Node000003" class="edge">
<title>Node5&#45;&gt;Node3</title>
<g id="a_edge5_Node000005_Node000003"><a xlink:title=" ">
<path fill="none" stroke="#63b8ff" d="M80.87,-52.5C70.94,-52.5 61.36,-52.5 53.12,-52.5"/>
<polygon fill="#63b8ff" stroke="#63b8ff" points="80.88,-56 90.88,-52.5 80.88,-49 80.88,-56"/>
</a>
</g>
</g>
<!-- Node6&#45;&gt;Node3 -->
<g id="edge7_Node000006_Node000003" class="edge">
<title>Node6&#45;&gt;Node3</title>
<g id="a_edge7_Node000006_Node000003"><a xlink:title=" ">
<path fill="none" stroke="#63b8ff" d="M248.66,-10.02C201.82,-11.74 141.41,-16.46 89,-28.5 74.7,-31.79 59.33,-37.79 47.53,-42.96"/>
<polygon fill="#63b8ff" stroke="#63b8ff" points="248.87,-13.51 258.75,-9.69 248.64,-6.52 248.87,-13.51"/>
</a>
</g>
</g>
</g>
</svg>
