<?xml version="1.0" encoding="UTF-8" standalone="no"?>
<!DOCTYPE svg PUBLIC "-//W3C//DTD SVG 1.1//EN"
 "http://www.w3.org/Graphics/SVG/1.1/DTD/svg11.dtd">
<!-- Generated by graphviz version 2.43.0 (0)
 -->
<!-- Title: m_checker_common::s_check_inputs_common Pages: 1 -->
<svg width="697pt" height="963pt"
 viewBox="0.00 0.00 697.00 963.00" xmlns="http://www.w3.org/2000/svg" xmlns:xlink="http://www.w3.org/1999/xlink">
<g id="graph0" class="graph" transform="scale(1 1) rotate(0) translate(4 959)">
<title>m_checker_common::s_check_inputs_common</title>
<!-- Node1 -->
<g id="Node000001" class="node">
<title>Node1</title>
<g id="a_Node000001"><a xlink:title="Checks compatibility of parameters in the input file. Used by all three stages.">
<polygon fill="#999999" stroke="#666666" points="134,-498 0,-498 0,-468 134,-468 134,-498"/>
<text text-anchor="start" x="8" y="-486" font-family="Helvetica,sans-Serif" font-size="10.00">m_checker_common::s</text>
<text text-anchor="middle" x="67" y="-475" font-family="Helvetica,sans-Serif" font-size="10.00">_check_inputs_common</text>
</a>
</g>
</g>
<!-- Node2 -->
<g id="Node000002" class="node">
<title>Node2</title>
<g id="a_Node000002"><a xlink:href="namespacem__checker__common.html#a987a0208e0d67e49938e8f7d9185f90e" target="_top" xlink:title="Checks constraints on the adv_n flag. Called by s_check_inputs_common for pre&#45;processing and simulati...">
<polygon fill="white" stroke="#666666" points="314.5,-955 186.5,-955 186.5,-925 314.5,-925 314.5,-955"/>
<text text-anchor="start" x="194.5" y="-943" font-family="Helvetica,sans-Serif" font-size="10.00">m_checker_common::s</text>
<text text-anchor="middle" x="250.5" y="-932" font-family="Helvetica,sans-Serif" font-size="10.00">_check_inputs_adv_n</text>
</a>
</g>
</g>
<!-- Node1&#45;&gt;Node2 -->
<g id="edge1_Node000001_Node000002" class="edge">
<title>Node1&#45;&gt;Node2</title>
<g id="a_edge1_Node000001_Node000002"><a xlink:title=" ">
<path fill="none" stroke="#63b8ff" d="M69.56,-498.19C76.95,-567.46 110.62,-852.83 170,-916 172.32,-918.47 174.88,-920.69 177.63,-922.68"/>
<polygon fill="#63b8ff" stroke="#63b8ff" points="175.98,-925.77 186.34,-928 179.63,-919.8 175.98,-925.77"/>
</a>
</g>
</g>
<!-- Node3 -->
<g id="Node000003" class="node">
<title>Node3</title>
<g id="a_Node000003"><a xlink:href="namespacem__checker__common.html#ae5e684a5330dc4903b6cb1234e0b4f79" target="_top" xlink:title="Checks constraints on the boundary conditions in the x&#45;direction. Called by s_check_inputs_common for...">
<polygon fill="white" stroke="#666666" points="314.5,-907 186.5,-907 186.5,-877 314.5,-877 314.5,-907"/>
<text text-anchor="start" x="194.5" y="-895" font-family="Helvetica,sans-Serif" font-size="10.00">m_checker_common::s</text>
<text text-anchor="middle" x="250.5" y="-884" font-family="Helvetica,sans-Serif" font-size="10.00">_check_inputs_bc</text>
</a>
</g>
</g>
<!-- Node1&#45;&gt;Node3 -->
<g id="edge2_Node000001_Node000003" class="edge">
<title>Node1&#45;&gt;Node3</title>
<g id="a_edge2_Node000001_Node000003"><a xlink:title=" ">
<path fill="none" stroke="#63b8ff" d="M67.43,-498.37C66.17,-554.84 69.41,-753.2 170,-863 172.9,-866.17 176.18,-868.99 179.71,-871.51"/>
<polygon fill="#63b8ff" stroke="#63b8ff" points="177.99,-874.56 188.34,-876.84 181.67,-868.6 177.99,-874.56"/>
</a>
</g>
</g>
<!-- Node4 -->
<g id="Node000004" class="node">
<title>Node4</title>
<g id="a_Node000004"><a xlink:href="namespacem__checker__common.html#a9a28548179ff1dc35c035a76247ed51e" target="_top" xlink:title="Checks constraints on the bubble parameters. Called by s_check_inputs_common for pre&#45;processing and s...">
<polygon fill="white" stroke="#666666" points="330,-761 171,-761 171,-731 330,-731 330,-761"/>
<text text-anchor="start" x="179" y="-749" font-family="Helvetica,sans-Serif" font-size="10.00">m_checker_common::s</text>
<text text-anchor="middle" x="250.5" y="-738" font-family="Helvetica,sans-Serif" font-size="10.00">_check_inputs_bubbles_euler</text>
</a>
</g>
</g>
<!-- Node1&#45;&gt;Node4 -->
<g id="edge3_Node000001_Node000004" class="edge">
<title>Node1&#45;&gt;Node4</title>
<g id="a_edge3_Node000001_Node000004"><a xlink:title=" ">
<path fill="none" stroke="#63b8ff" d="M69.99,-498.15C76.34,-540.18 99.93,-659.25 170,-722 171.33,-723.19 172.72,-724.32 174.15,-725.4"/>
<polygon fill="#63b8ff" stroke="#63b8ff" points="172.53,-728.52 182.84,-730.96 176.31,-722.62 172.53,-728.52"/>
</a>
</g>
</g>
<!-- Node7 -->
<g id="Node000007" class="node">
<title>Node7</title>
<g id="a_Node000007"><a xlink:href="namespacem__checker__common.html#ae0d44645ba69173b1f2ff7b6d74f85a5" target="_top" xlink:title="Checks constraints on the finite difference parameters. Called by s_check_inputs_common for simulatio...">
<polygon fill="white" stroke="#666666" points="314.5,-449.5 186.5,-449.5 186.5,-408.5 314.5,-408.5 314.5,-449.5"/>
<text text-anchor="start" x="194.5" y="-437.5" font-family="Helvetica,sans-Serif" font-size="10.00">m_checker_common::s</text>
<text text-anchor="start" x="194.5" y="-426.5" font-family="Helvetica,sans-Serif" font-size="10.00">_check_inputs_finite</text>
<text text-anchor="middle" x="250.5" y="-415.5" font-family="Helvetica,sans-Serif" font-size="10.00">_difference</text>
</a>
</g>
</g>
<!-- Node1&#45;&gt;Node7 -->
<g id="edge6_Node000001_Node000007" class="edge">
<title>Node1&#45;&gt;Node7</title>
<g id="a_edge6_Node000001_Node000007"><a xlink:title=" ">
<path fill="none" stroke="#63b8ff" d="M118.56,-467.96C136.5,-462.62 157.08,-456.5 176.52,-450.71"/>
<polygon fill="#63b8ff" stroke="#63b8ff" points="177.67,-454.02 186.26,-447.82 175.68,-447.31 177.67,-454.02"/>
</a>
</g>
</g>
<!-- Node8 -->
<g id="Node000008" class="node">
<title>Node8</title>
<g id="a_Node000008"><a xlink:href="namespacem__checker__common.html#a153da7580e45121dd5804b62050a3341" target="_top" xlink:title="Checks constraints on the hypoelasticity parameters. Called by s_check_inputs_common for pre&#45;processi...">
<polygon fill="white" stroke="#666666" points="330.5,-390 170.5,-390 170.5,-360 330.5,-360 330.5,-390"/>
<text text-anchor="start" x="178.5" y="-378" font-family="Helvetica,sans-Serif" font-size="10.00">m_checker_common::s</text>
<text text-anchor="middle" x="250.5" y="-367" font-family="Helvetica,sans-Serif" font-size="10.00">_check_inputs_hypoelasticity</text>
</a>
</g>
</g>
<!-- Node1&#45;&gt;Node8 -->
<g id="edge7_Node000001_Node000008" class="edge">
<title>Node1&#45;&gt;Node8</title>
<g id="a_edge7_Node000001_Node000008"><a xlink:title=" ">
<path fill="none" stroke="#63b8ff" d="M82.5,-467.81C101.12,-449.13 135.21,-417.61 170,-399 173.48,-397.14 177.12,-395.41 180.85,-393.79"/>
<polygon fill="#63b8ff" stroke="#63b8ff" points="182.29,-396.98 190.26,-390.01 179.68,-390.49 182.29,-396.98"/>
</a>
</g>
</g>
<!-- Node9 -->
<g id="Node000009" class="node">
<title>Node9</title>
<g id="a_Node000009"><a xlink:href="namespacem__checker__common.html#a4f50e9fd68b983d11ffc37227992b540" target="_top" xlink:title="Checks constraints on the Immersed Boundaries parameters. Called by s_check_inputs_common for pre&#45;pro...">
<polygon fill="white" stroke="#666666" points="314.5,-342 186.5,-342 186.5,-312 314.5,-312 314.5,-342"/>
<text text-anchor="start" x="194.5" y="-330" font-family="Helvetica,sans-Serif" font-size="10.00">m_checker_common::s</text>
<text text-anchor="middle" x="250.5" y="-319" font-family="Helvetica,sans-Serif" font-size="10.00">_check_inputs_ibm</text>
</a>
</g>
</g>
<!-- Node1&#45;&gt;Node9 -->
<g id="edge8_Node000001_Node000009" class="edge">
<title>Node1&#45;&gt;Node9</title>
<g id="a_edge8_Node000001_Node000009"><a xlink:title=" ">
<path fill="none" stroke="#63b8ff" d="M75.58,-467.86C90.09,-440.41 124.44,-382.37 170,-351 172.26,-349.44 174.62,-347.99 177.06,-346.62"/>
<polygon fill="#63b8ff" stroke="#63b8ff" points="178.79,-349.67 186.17,-342.07 175.66,-343.41 178.79,-349.67"/>
</a>
</g>
</g>
<!-- Node10 -->
<g id="Node000010" class="node">
<title>Node10</title>
<g id="a_Node000010"><a xlink:href="namespacem__checker__common.html#a4d7eb10d2a0d42d94c58cf93277143c0" target="_top" xlink:title="Checks constraints regarding IGR order. Called by s_check_inputs_common for all three stages.">
<polygon fill="white" stroke="#666666" points="314.5,-294 186.5,-294 186.5,-264 314.5,-264 314.5,-294"/>
<text text-anchor="start" x="194.5" y="-282" font-family="Helvetica,sans-Serif" font-size="10.00">m_checker_common::s</text>
<text text-anchor="middle" x="250.5" y="-271" font-family="Helvetica,sans-Serif" font-size="10.00">_check_inputs_igr</text>
</a>
</g>
</g>
<!-- Node1&#45;&gt;Node10 -->
<g id="edge9_Node000001_Node000010" class="edge">
<title>Node1&#45;&gt;Node10</title>
<g id="a_edge9_Node000001_Node000010"><a xlink:title=" ">
<path fill="none" stroke="#63b8ff" d="M72.29,-467.89C82.89,-433.33 113.6,-348.07 170,-303 172.4,-301.08 174.95,-299.32 177.61,-297.69"/>
<polygon fill="#63b8ff" stroke="#63b8ff" points="179.27,-300.78 186.43,-292.97 175.97,-294.6 179.27,-300.78"/>
</a>
</g>
</g>
<!-- Node11 -->
<g id="Node000011" class="node">
<title>Node11</title>
<g id="a_Node000011"><a xlink:href="namespacem__checker__common.html#a970fc65314cddafcf0102f416d66f4ce" target="_top" xlink:title=" ">
<polygon fill="white" stroke="#666666" points="314.5,-713 186.5,-713 186.5,-683 314.5,-683 314.5,-713"/>
<text text-anchor="start" x="194.5" y="-701" font-family="Helvetica,sans-Serif" font-size="10.00">m_checker_common::s</text>
<text text-anchor="middle" x="250.5" y="-690" font-family="Helvetica,sans-Serif" font-size="10.00">_check_inputs_mhd</text>
</a>
</g>
</g>
<!-- Node1&#45;&gt;Node11 -->
<g id="edge10_Node000001_Node000011" class="edge">
<title>Node1&#45;&gt;Node11</title>
<g id="a_edge10_Node000001_Node000011"><a xlink:title=" ">
<path fill="none" stroke="#63b8ff" d="M71.79,-498.22C81.57,-534.32 111.13,-625.74 170,-674 172.3,-675.89 174.74,-677.62 177.3,-679.22"/>
<polygon fill="#63b8ff" stroke="#63b8ff" points="175.88,-682.44 186.33,-684.16 179.23,-676.29 175.88,-682.44"/>
</a>
</g>
</g>
<!-- Node12 -->
<g id="Node000012" class="node">
<title>Node12</title>
<g id="a_Node000012"><a xlink:href="namespacem__checker__common.html#a68304b96a2df65e461a7cfbca6b6bd01" target="_top" xlink:title="Checks constraints on model equations and number of fluids in the flow. Called by s_check_inputs_comm...">
<polygon fill="white" stroke="#666666" points="314.5,-245.5 186.5,-245.5 186.5,-204.5 314.5,-204.5 314.5,-245.5"/>
<text text-anchor="start" x="194.5" y="-233.5" font-family="Helvetica,sans-Serif" font-size="10.00">m_checker_common::s</text>
<text text-anchor="start" x="194.5" y="-222.5" font-family="Helvetica,sans-Serif" font-size="10.00">_check_inputs_model</text>
<text text-anchor="middle" x="250.5" y="-211.5" font-family="Helvetica,sans-Serif" font-size="10.00">_eqns_and_num_fluids</text>
</a>
</g>
</g>
<!-- Node1&#45;&gt;Node12 -->
<g id="edge12_Node000001_Node000012" class="edge">
<title>Node1&#45;&gt;Node12</title>
<g id="a_edge12_Node000001_Node000012"><a xlink:title=" ">
<path fill="none" stroke="#63b8ff" d="M70.6,-467.9C78.3,-427.63 104.66,-316.55 170,-255 172.42,-252.72 175.02,-250.62 177.76,-248.67"/>
<polygon fill="#63b8ff" stroke="#63b8ff" points="179.75,-251.55 186.35,-243.27 176.02,-245.63 179.75,-251.55"/>
</a>
</g>
</g>
<!-- Node13 -->
<g id="Node000013" class="node">
<title>Node13</title>
<g id="a_Node000013"><a xlink:href="namespacem__checker__common.html#ac720d2624a3a195282a578f567830432" target="_top" xlink:title="Checks constraints on the inputs for moving boundaries. Called by s_check_inputs_common for all three...">
<polygon fill="white" stroke="#666666" points="511,-861 367,-861 367,-831 511,-831 511,-861"/>
<text text-anchor="start" x="375" y="-849" font-family="Helvetica,sans-Serif" font-size="10.00">m_checker_common::s</text>
<text text-anchor="middle" x="439" y="-838" font-family="Helvetica,sans-Serif" font-size="10.00">_check_inputs_moving_bc</text>
</a>
</g>
</g>
<!-- Node1&#45;&gt;Node13 -->
<g id="edge13_Node000001_Node000013" class="edge">
<title>Node1&#45;&gt;Node13</title>
<g id="a_edge13_Node000001_Node000013"><a xlink:title=" ">
<path fill="none" stroke="#63b8ff" d="M70.15,-498.26C79.14,-559.58 115.71,-786.79 170,-830 224.3,-873.22 306.09,-871.58 365.02,-862.64"/>
<polygon fill="#63b8ff" stroke="#63b8ff" points="365.7,-866.07 375.01,-861.02 364.58,-859.16 365.7,-866.07"/>
</a>
</g>
</g>
<!-- Node14 -->
<g id="Node000014" class="node">
<title>Node14</title>
<g id="a_Node000014"><a xlink:href="namespacem__checker__common.html#a799f031bb6612816625d841ba4e19e00" target="_top" xlink:title="Check constraints regarding MUSCL order Called by s_check_inputs_common for all three stages.">
<polygon fill="white" stroke="#666666" points="314.5,-186 186.5,-186 186.5,-156 314.5,-156 314.5,-186"/>
<text text-anchor="start" x="194.5" y="-174" font-family="Helvetica,sans-Serif" font-size="10.00">m_checker_common::s</text>
<text text-anchor="middle" x="250.5" y="-163" font-family="Helvetica,sans-Serif" font-size="10.00">_check_inputs_muscl</text>
</a>
</g>
</g>
<!-- Node1&#45;&gt;Node14 -->
<g id="edge15_Node000001_Node000014" class="edge">
<title>Node1&#45;&gt;Node14</title>
<g id="a_edge15_Node000001_Node000014"><a xlink:title=" ">
<path fill="none" stroke="#63b8ff" d="M68.75,-467.95C71.92,-420.57 88.25,-272.98 170,-195 172.4,-192.71 175.01,-190.64 177.77,-188.77"/>
<polygon fill="#63b8ff" stroke="#63b8ff" points="179.58,-191.76 186.47,-183.71 176.06,-185.71 179.58,-191.76"/>
</a>
</g>
</g>
<!-- Node15 -->
<g id="Node000015" class="node">
<title>Node15</title>
<g id="a_Node000015"><a xlink:href="namespacem__checker__common.html#aaf5d0bed53807e600991f52f8d75c1b5" target="_top" xlink:title="Checks constraints on the phase change parameters. Called by s_check_inputs_common for pre&#45;processing...">
<polygon fill="white" stroke="#666666" points="314.5,-664.5 186.5,-664.5 186.5,-623.5 314.5,-623.5 314.5,-664.5"/>
<text text-anchor="start" x="194.5" y="-652.5" font-family="Helvetica,sans-Serif" font-size="10.00">m_checker_common::s</text>
<text text-anchor="start" x="194.5" y="-641.5" font-family="Helvetica,sans-Serif" font-size="10.00">_check_inputs_phase</text>
<text text-anchor="middle" x="250.5" y="-630.5" font-family="Helvetica,sans-Serif" font-size="10.00">_change</text>
</a>
</g>
</g>
<!-- Node1&#45;&gt;Node15 -->
<g id="edge16_Node000001_Node000015" class="edge">
<title>Node1&#45;&gt;Node15</title>
<g id="a_edge16_Node000001_Node000015"><a xlink:title=" ">
<path fill="none" stroke="#63b8ff" d="M75.99,-498.32C90.91,-525.54 125.58,-582.52 170,-615 172.33,-616.71 174.78,-618.32 177.31,-619.85"/>
<polygon fill="#63b8ff" stroke="#63b8ff" points="175.71,-622.97 186.16,-624.72 179.08,-616.84 175.71,-622.97"/>
</a>
</g>
</g>
<!-- Node16 -->
<g id="Node000016" class="node">
<title>Node16</title>
<g id="a_Node000016"><a xlink:href="namespacem__checker__common.html#a10215566de1fcb267572be90fdf5d31a" target="_top" xlink:title="Checks constraints on the QBMM and polydisperse bubble parameters. Called by s_check_inputs_common fo...">
<polygon fill="white" stroke="#666666" points="323.5,-605.5 177.5,-605.5 177.5,-564.5 323.5,-564.5 323.5,-605.5"/>
<text text-anchor="start" x="185.5" y="-593.5" font-family="Helvetica,sans-Serif" font-size="10.00">m_checker_common::s</text>
<text text-anchor="start" x="185.5" y="-582.5" font-family="Helvetica,sans-Serif" font-size="10.00">_check_inputs_qbmm_and</text>
<text text-anchor="middle" x="250.5" y="-571.5" font-family="Helvetica,sans-Serif" font-size="10.00">_polydisperse</text>
</a>
</g>
</g>
<!-- Node1&#45;&gt;Node16 -->
<g id="edge18_Node000001_Node000016" class="edge">
<title>Node1&#45;&gt;Node16</title>
<g id="a_edge18_Node000001_Node000016"><a xlink:title=" ">
<path fill="none" stroke="#63b8ff" d="M86.25,-498.05C105.97,-513.78 138.79,-538.44 170,-555 173.32,-556.76 176.77,-558.47 180.29,-560.12"/>
<polygon fill="#63b8ff" stroke="#63b8ff" points="179.17,-563.45 189.73,-564.34 182.03,-557.06 179.17,-563.45"/>
</a>
</g>
</g>
<!-- Node17 -->
<g id="Node000017" class="node">
<title>Node17</title>
<g id="a_Node000017"><a xlink:href="namespacem__checker__common.html#ab25376cf36f85affad64b168ac1362df" target="_top" xlink:title="Checks constraints on dimensionality and the number of cells for the grid. Called by s_check_inputs_c...">
<polygon fill="white" stroke="#666666" points="322,-137.5 179,-137.5 179,-96.5 322,-96.5 322,-137.5"/>
<text text-anchor="start" x="187" y="-125.5" font-family="Helvetica,sans-Serif" font-size="10.00">m_checker_common::s</text>
<text text-anchor="start" x="187" y="-114.5" font-family="Helvetica,sans-Serif" font-size="10.00">_check_inputs_simulation</text>
<text text-anchor="middle" x="250.5" y="-103.5" font-family="Helvetica,sans-Serif" font-size="10.00">_domain</text>
</a>
</g>
</g>
<!-- Node1&#45;&gt;Node17 -->
<g id="edge20_Node000001_Node000017" class="edge">
<title>Node1&#45;&gt;Node17</title>
<g id="a_edge20_Node000001_Node000017"><a xlink:title=" ">
<path fill="none" stroke="#63b8ff" d="M68.1,-468C69.27,-416.25 80.02,-243.14 170,-147 171.04,-145.89 172.12,-144.82 173.25,-143.79"/>
<polygon fill="#63b8ff" stroke="#63b8ff" points="175.5,-146.47 181.2,-137.54 171.17,-140.97 175.5,-146.47"/>
</a>
</g>
</g>
<!-- Node18 -->
<g id="Node000018" class="node">
<title>Node18</title>
<g id="a_Node000018"><a xlink:href="namespacem__checker__common.html#a20cb17f4b2111c489c7a31856a149b32" target="_top" xlink:title="Checks constraints on the stiffened equation of state fluids parameters. Called by s_check_inputs_com...">
<polygon fill="white" stroke="#666666" points="328.5,-546 172.5,-546 172.5,-516 328.5,-516 328.5,-546"/>
<text text-anchor="start" x="180.5" y="-534" font-family="Helvetica,sans-Serif" font-size="10.00">m_checker_common::s</text>
<text text-anchor="middle" x="250.5" y="-523" font-family="Helvetica,sans-Serif" font-size="10.00">_check_inputs_stiffened_eos</text>
</a>
</g>
</g>
<!-- Node1&#45;&gt;Node18 -->
<g id="edge21_Node000001_Node000018" class="edge">
<title>Node1&#45;&gt;Node18</title>
<g id="a_edge21_Node000001_Node000018"><a xlink:title=" ">
<path fill="none" stroke="#63b8ff" d="M124.93,-498.06C143.34,-502.93 163.93,-508.37 182.97,-513.41"/>
<polygon fill="#63b8ff" stroke="#63b8ff" points="182.21,-516.82 192.77,-516 184,-510.06 182.21,-516.82"/>
</a>
</g>
</g>
<!-- Node20 -->
<g id="Node000020" class="node">
<title>Node20</title>
<g id="a_Node000020"><a xlink:href="namespacem__checker__common.html#a3abeb8b799cf4729f18180fb72e6db69" target="_top" xlink:title="Checks constraints on the surface tension parameters. Called by s_check_inputs_common for all three s...">
<polygon fill="white" stroke="#666666" points="314.5,-820.5 186.5,-820.5 186.5,-779.5 314.5,-779.5 314.5,-820.5"/>
<text text-anchor="start" x="194.5" y="-808.5" font-family="Helvetica,sans-Serif" font-size="10.00">m_checker_common::s</text>
<text text-anchor="start" x="194.5" y="-797.5" font-family="Helvetica,sans-Serif" font-size="10.00">_check_inputs_surface</text>
<text text-anchor="middle" x="250.5" y="-786.5" font-family="Helvetica,sans-Serif" font-size="10.00">_tension</text>
</a>
</g>
</g>
<!-- Node1&#45;&gt;Node20 -->
<g id="edge24_Node000001_Node000020" class="edge">
<title>Node1&#45;&gt;Node20</title>
<g id="a_edge24_Node000001_Node000020"><a xlink:title=" ">
<path fill="none" stroke="#63b8ff" d="M69.02,-498.09C72.98,-544.99 91.32,-689.78 170,-770 172.45,-772.5 175.13,-774.79 177.97,-776.89"/>
<polygon fill="#63b8ff" stroke="#63b8ff" points="176.08,-779.84 186.37,-782.34 179.88,-773.96 176.08,-779.84"/>
</a>
</g>
</g>
<!-- Node21 -->
<g id="Node000021" class="node">
<title>Node21</title>
<g id="a_Node000021"><a xlink:href="namespacem__checker__common.html#acf4d6ff2a6bb0fcf05c79a39e7f16e8c" target="_top" xlink:title="Checks constraints on the time&#45;stepping parameters. Called by s_check_inputs_common for simulation an...">
<polygon fill="white" stroke="#666666" points="331,-78 170,-78 170,-48 331,-48 331,-78"/>
<text text-anchor="start" x="178" y="-66" font-family="Helvetica,sans-Serif" font-size="10.00">m_checker_common::s</text>
<text text-anchor="middle" x="250.5" y="-55" font-family="Helvetica,sans-Serif" font-size="10.00">_check_inputs_time_stepping</text>
</a>
</g>
</g>
<!-- Node1&#45;&gt;Node21 -->
<g id="edge27_Node000001_Node000021" class="edge">
<title>Node1&#45;&gt;Node21</title>
<g id="a_edge27_Node000001_Node000021"><a xlink:title=" ">
<path fill="none" stroke="#63b8ff" d="M69.92,-467.8C78.47,-402.21 115.19,-144.11 170,-87 170.93,-86.03 171.89,-85.11 172.89,-84.22"/>
<polygon fill="#63b8ff" stroke="#63b8ff" points="175.19,-86.87 181.12,-78.09 171.01,-81.25 175.19,-86.87"/>
</a>
</g>
</g>
<!-- Node22 -->
<g id="Node000022" class="node">
<title>Node22</title>
<g id="a_Node000022"><a xlink:href="namespacem__checker__common.html#ad82707f55f487d6868f76ea0074a8882" target="_top" xlink:title="Checks constraints regarding WENO order. Called by s_check_inputs_common for all three stages.">
<polygon fill="white" stroke="#666666" points="314.5,-30 186.5,-30 186.5,0 314.5,0 314.5,-30"/>
<text text-anchor="start" x="194.5" y="-18" font-family="Helvetica,sans-Serif" font-size="10.00">m_checker_common::s</text>
<text text-anchor="middle" x="250.5" y="-7" font-family="Helvetica,sans-Serif" font-size="10.00">_check_inputs_weno</text>
</a>
</g>
</g>
<!-- Node1&#45;&gt;Node22 -->
<g id="edge28_Node000001_Node000022" class="edge">
<title>Node1&#45;&gt;Node22</title>
<g id="a_edge28_Node000001_Node000022"><a xlink:title=" ">
<path fill="none" stroke="#63b8ff" d="M69.45,-467.9C76.49,-397.72 109.24,-104 170,-39 172.31,-36.52 174.87,-34.3 177.61,-32.31"/>
<polygon fill="#63b8ff" stroke="#63b8ff" points="179.61,-35.18 186.31,-26.97 175.95,-29.22 179.61,-35.18"/>
</a>
</g>
</g>
<!-- Node23 -->
<g id="Node000023" class="node">
<title>Node23</title>
<g id="a_Node000023"><a xlink:href="namespacem__checker__common.html#abf7ee76feb76e0dfa1301860374be234" target="_top" xlink:title=" ">
<polygon fill="white" stroke="#666666" points="314.5,-498 186.5,-498 186.5,-468 314.5,-468 314.5,-498"/>
<text text-anchor="start" x="194.5" y="-486" font-family="Helvetica,sans-Serif" font-size="10.00">m_checker_common::s</text>
<text text-anchor="middle" x="250.5" y="-475" font-family="Helvetica,sans-Serif" font-size="10.00">_check_total_cells</text>
</a>
</g>
</g>
<!-- Node1&#45;&gt;Node23 -->
<g id="edge29_Node000001_Node000023" class="edge">
<title>Node1&#45;&gt;Node23</title>
<g id="a_edge29_Node000001_Node000023"><a xlink:title=" ">
<path fill="none" stroke="#63b8ff" d="M134.04,-483C147.74,-483 162.26,-483 176.2,-483"/>
<polygon fill="#63b8ff" stroke="#63b8ff" points="176.24,-486.5 186.24,-483 176.24,-479.5 176.24,-486.5"/>
</a>
</g>
</g>
<!-- Node5 -->
<g id="Node000005" class="node">
<title>Node5</title>
<g id="a_Node000005"><a xlink:href="namespacem__helper__basic.html#a345e205ced0b0674a22f59a2c1549eb4" target="_top" xlink:title="Checks if a real(wp) variable is of default value.">
<polygon fill="white" stroke="#666666" points="497,-713 381,-713 381,-683 497,-683 497,-713"/>
<text text-anchor="start" x="389" y="-701" font-family="Helvetica,sans-Serif" font-size="10.00">m_helper_basic::f_is</text>
<text text-anchor="middle" x="439" y="-690" font-family="Helvetica,sans-Serif" font-size="10.00">_default</text>
</a>
</g>
</g>
<!-- Node4&#45;&gt;Node5 -->
<g id="edge4_Node000004_Node000005" class="edge">
<title>Node4&#45;&gt;Node5</title>
<g id="a_edge4_Node000004_Node000005"><a xlink:title=" ">
<path fill="none" stroke="#63b8ff" d="M310,-730.94C329.37,-725.96 351.08,-720.37 371.04,-715.23"/>
<polygon fill="#63b8ff" stroke="#63b8ff" points="372.17,-718.56 380.99,-712.67 370.43,-711.78 372.17,-718.56"/>
</a>
</g>
</g>
<!-- Node6 -->
<g id="Node000006" class="node">
<title>Node6</title>
<g id="a_Node000006"><a xlink:href="namespacem__helper__basic.html#a58590a12d49b9b884256a839f2be8610" target="_top" xlink:title="This procedure checks if two floating point numbers of wp are within tolerance.">
<polygon fill="white" stroke="#666666" points="689,-815 547,-815 547,-785 689,-785 689,-815"/>
<text text-anchor="start" x="555" y="-803" font-family="Helvetica,sans-Serif" font-size="10.00">m_helper_basic::f_approx</text>
<text text-anchor="middle" x="618" y="-792" font-family="Helvetica,sans-Serif" font-size="10.00">_equal</text>
</a>
</g>
</g>
<!-- Node5&#45;&gt;Node6 -->
<g id="edge5_Node000005_Node000006" class="edge">
<title>Node5&#45;&gt;Node6</title>
<g id="a_edge5_Node000005_Node000006"><a xlink:title=" ">
<path fill="none" stroke="#63b8ff" d="M466.12,-713.05C496.84,-730.75 547.96,-760.21 582.07,-779.87"/>
<polygon fill="#63b8ff" stroke="#63b8ff" points="580.36,-782.93 590.78,-784.89 583.86,-776.86 580.36,-782.93"/>
</a>
</g>
</g>
<!-- Node11&#45;&gt;Node5 -->
<g id="edge11_Node000011_Node000005" class="edge">
<title>Node11&#45;&gt;Node5</title>
<g id="a_edge11_Node000011_Node000005"><a xlink:title=" ">
<path fill="none" stroke="#63b8ff" d="M314.64,-698C332.74,-698 352.54,-698 370.87,-698"/>
<polygon fill="#63b8ff" stroke="#63b8ff" points="370.88,-701.5 380.88,-698 370.88,-694.5 370.88,-701.5"/>
</a>
</g>
</g>
<!-- Node13&#45;&gt;Node6 -->
<g id="edge14_Node000013_Node000006" class="edge">
<title>Node13&#45;&gt;Node6</title>
<g id="a_edge14_Node000013_Node000006"><a xlink:title=" ">
<path fill="none" stroke="#63b8ff" d="M497.96,-830.94C514.39,-826.67 532.43,-821.98 549.38,-817.57"/>
<polygon fill="#63b8ff" stroke="#63b8ff" points="550.42,-820.92 559.22,-815.02 548.66,-814.15 550.42,-820.92"/>
</a>
</g>
</g>
<!-- Node15&#45;&gt;Node5 -->
<g id="edge17_Node000015_Node000005" class="edge">
<title>Node15&#45;&gt;Node5</title>
<g id="a_edge17_Node000015_Node000005"><a xlink:title=" ">
<path fill="none" stroke="#63b8ff" d="M314.64,-662.28C334.53,-668.04 356.46,-674.39 376.25,-680.12"/>
<polygon fill="#63b8ff" stroke="#63b8ff" points="375.5,-683.55 386.08,-682.97 377.45,-676.82 375.5,-683.55"/>
</a>
</g>
</g>
<!-- Node16&#45;&gt;Node5 -->
<g id="edge19_Node000016_Node000005" class="edge">
<title>Node16&#45;&gt;Node5</title>
<g id="a_edge19_Node000016_Node000005"><a xlink:title=" ">
<path fill="none" stroke="#63b8ff" d="M311.85,-605.57C318.44,-608.46 324.95,-611.61 331,-615 361.79,-632.23 393.25,-657.79 414.02,-675.98"/>
<polygon fill="#63b8ff" stroke="#63b8ff" points="411.89,-678.78 421.69,-682.8 416.54,-673.54 411.89,-678.78"/>
</a>
</g>
</g>
<!-- Node18&#45;&gt;Node5 -->
<g id="edge22_Node000018_Node000005" class="edge">
<title>Node18&#45;&gt;Node5</title>
<g id="a_edge22_Node000018_Node000005"><a xlink:title=" ">
<path fill="none" stroke="#63b8ff" d="M313.25,-546.12C319.51,-548.89 325.56,-552.16 331,-556 375.1,-587.14 408.89,-642.02 425.87,-673.66"/>
<polygon fill="#63b8ff" stroke="#63b8ff" points="422.85,-675.44 430.59,-682.68 429.05,-672.19 422.85,-675.44"/>
</a>
</g>
</g>
<!-- Node19 -->
<g id="Node000019" class="node">
<title>Node19</title>
<g id="a_Node000019"><a xlink:href="namespacem__helper.html#a6b74248bdd19bc6b0b43f757a3212275" target="_top" xlink:title=" ">
<polygon fill="white" stroke="#666666" points="501.5,-516.5 376.5,-516.5 376.5,-497.5 501.5,-497.5 501.5,-516.5"/>
<text text-anchor="middle" x="439" y="-504.5" font-family="Helvetica,sans-Serif" font-size="10.00">m_helper::s_int_to_str</text>
</a>
</g>
</g>
<!-- Node18&#45;&gt;Node19 -->
<g id="edge23_Node000018_Node000019" class="edge">
<title>Node18&#45;&gt;Node19</title>
<g id="a_edge23_Node000018_Node000019"><a xlink:title=" ">
<path fill="none" stroke="#63b8ff" d="M328.7,-521.07C341.15,-519.46 353.99,-517.81 366.3,-516.23"/>
<polygon fill="#63b8ff" stroke="#63b8ff" points="367.03,-519.66 376.5,-514.91 366.13,-512.72 367.03,-519.66"/>
</a>
</g>
</g>
<!-- Node20&#45;&gt;Node5 -->
<g id="edge26_Node000020_Node000005" class="edge">
<title>Node20&#45;&gt;Node5</title>
<g id="a_edge26_Node000020_Node000005"><a xlink:title=" ">
<path fill="none" stroke="#63b8ff" d="M310.78,-779.38C317.7,-776.46 324.58,-773.32 331,-770 359.33,-755.38 389.24,-734.75 410.22,-719.32"/>
<polygon fill="#63b8ff" stroke="#63b8ff" points="412.42,-722.04 418.35,-713.26 408.24,-716.43 412.42,-722.04"/>
</a>
</g>
</g>
<!-- Node20&#45;&gt;Node6 -->
<g id="edge25_Node000020_Node000006" class="edge">
<title>Node20&#45;&gt;Node6</title>
<g id="a_edge25_Node000020_Node000006"><a xlink:title=" ">
<path fill="none" stroke="#63b8ff" d="M314.75,-800C376.26,-800 469.93,-800 536.68,-800"/>
<polygon fill="#63b8ff" stroke="#63b8ff" points="536.73,-803.5 546.73,-800 536.73,-796.5 536.73,-803.5"/>
</a>
</g>
</g>
<!-- Node23&#45;&gt;Node19 -->
<g id="edge30_Node000023_Node000019" class="edge">
<title>Node23&#45;&gt;Node19</title>
<g id="a_edge30_Node000023_Node000019"><a xlink:title=" ">
<path fill="none" stroke="#63b8ff" d="M314.64,-491.13C331.09,-493.24 348.95,-495.54 365.83,-497.71"/>
<polygon fill="#63b8ff" stroke="#63b8ff" points="365.82,-501.24 376.19,-499.05 366.72,-494.3 365.82,-501.24"/>
</a>
</g>
</g>
</g>
</svg>
