<?xml version="1.0" encoding="UTF-8" standalone="no"?>
<!DOCTYPE svg PUBLIC "-//W3C//DTD SVG 1.1//EN"
 "http://www.w3.org/Graphics/SVG/1.1/DTD/svg11.dtd">
<!-- Generated by graphviz version 2.43.0 (0)
 -->
<!-- Title: m_perturbation::s_generate_random_perturbation Pages: 1 -->
<svg width="500pt" height="114pt"
 viewBox="0.00 0.00 500.00 113.50" xmlns="http://www.w3.org/2000/svg" xmlns:xlink="http://www.w3.org/1999/xlink">
<g id="graph0" class="graph" transform="scale(1 1) rotate(0) translate(4 109.5)">
<title>m_perturbation::s_generate_random_perturbation</title>
<!-- Node1 -->
<g id="Node000001" class="node">
<title>Node1</title>
<g id="a_Node000001"><a xlink:title=" ">
<polygon fill="#999999" stroke="#666666" points="152,-62.5 0,-62.5 0,-32.5 152,-32.5 152,-62.5"/>
<text text-anchor="start" x="8" y="-50.5" font-family="Helvetica,sans-Serif" font-size="10.00">m_perturbation::s_generate</text>
<text text-anchor="middle" x="76" y="-39.5" font-family="Helvetica,sans-Serif" font-size="10.00">_random_perturbation</text>
</a>
</g>
</g>
<!-- Node2 -->
<g id="Node000002" class="node">
<title>Node2</title>
<g id="a_Node000002"><a xlink:href="namespacem__perturbation.html#a492ba3cf7b2070a7db7d75f7868eedc4" target="_top" xlink:title=" ">
<polygon fill="white" stroke="#666666" points="315.5,-105.5 190.5,-105.5 190.5,-75.5 315.5,-75.5 315.5,-105.5"/>
<text text-anchor="start" x="198.5" y="-93.5" font-family="Helvetica,sans-Serif" font-size="10.00">m_perturbation::f_unit</text>
<text text-anchor="middle" x="253" y="-82.5" font-family="Helvetica,sans-Serif" font-size="10.00">_vector</text>
</a>
</g>
</g>
<!-- Node1&#45;&gt;Node2 -->
<g id="edge1_Node000001_Node000002" class="edge">
<title>Node1&#45;&gt;Node2</title>
<g id="a_edge1_Node000001_Node000002"><a xlink:title=" ">
<path fill="none" stroke="#63b8ff" d="M138.21,-62.54C152.06,-65.94 166.88,-69.59 181.1,-73.08"/>
<polygon fill="#63b8ff" stroke="#63b8ff" points="180.28,-76.48 190.83,-75.47 181.95,-69.68 180.28,-76.48"/>
</a>
</g>
</g>
<!-- Node3 -->
<g id="Node000003" class="node">
<title>Node3</title>
<g id="a_Node000003"><a xlink:href="namespacem__perturbation.html#a0c2d38b30e2c0aacd18b87e2d43a2249" target="_top" xlink:title=" ">
<polygon fill="white" stroke="#666666" points="492,-38 354,-38 354,-19 492,-19 492,-38"/>
<text text-anchor="middle" x="423" y="-26" font-family="Helvetica,sans-Serif" font-size="10.00">m_perturbation::modmul</text>
</a>
</g>
</g>
<!-- Node1&#45;&gt;Node3 -->
<g id="edge2_Node000001_Node000003" class="edge">
<title>Node1&#45;&gt;Node3</title>
<g id="a_edge2_Node000001_Node000003"><a xlink:title=" ">
<path fill="none" stroke="#63b8ff" d="M152.29,-43.35C208.96,-40.23 286.42,-35.97 343.79,-32.81"/>
<polygon fill="#63b8ff" stroke="#63b8ff" points="344.1,-36.3 353.89,-32.25 343.72,-29.31 344.1,-36.3"/>
</a>
</g>
</g>
<!-- Node4 -->
<g id="Node000004" class="node">
<title>Node4</title>
<g id="a_Node000004"><a xlink:href="namespacem__perturbation.html#a54bbfa24f96c984b26015bddcfb59ee4" target="_top" xlink:title="This function generates a pseudo&#45;random number between 0 and 1 based on linear congruential generator...">
<polygon fill="white" stroke="#666666" points="318,-19 188,-19 188,0 318,0 318,-19"/>
<text text-anchor="middle" x="253" y="-7" font-family="Helvetica,sans-Serif" font-size="10.00">m_perturbation::s_prng</text>
</a>
</g>
</g>
<!-- Node1&#45;&gt;Node4 -->
<g id="edge3_Node000001_Node000004" class="edge">
<title>Node1&#45;&gt;Node4</title>
<g id="a_edge3_Node000001_Node000004"><a xlink:title=" ">
<path fill="none" stroke="#63b8ff" d="M146.16,-32.48C163.49,-28.72 181.82,-24.74 198.27,-21.17"/>
<polygon fill="#63b8ff" stroke="#63b8ff" points="199.22,-24.54 208.25,-19 197.73,-17.7 199.22,-24.54"/>
</a>
</g>
</g>
<!-- Node4&#45;&gt;Node3 -->
<g id="edge4_Node000004_Node000003" class="edge">
<title>Node4&#45;&gt;Node3</title>
<g id="a_edge4_Node000004_Node000003"><a xlink:title=" ">
<path fill="none" stroke="#63b8ff" d="M318.47,-16.79C326.7,-17.72 335.18,-18.68 343.6,-19.63"/>
<polygon fill="#63b8ff" stroke="#63b8ff" points="343.47,-23.14 353.8,-20.79 344.25,-16.18 343.47,-23.14"/>
</a>
</g>
</g>
</g>
</svg>
