<?xml version="1.0" encoding="UTF-8" standalone="no"?>
<!DOCTYPE svg PUBLIC "-//W3C//DTD SVG 1.1//EN"
 "http://www.w3.org/Graphics/SVG/1.1/DTD/svg11.dtd">
<!-- Generated by graphviz version 2.43.0 (0)
 -->
<!-- Title: m_helper_basic::f_all_default Pages: 1 -->
<svg width="856pt" height="157pt"
 viewBox="0.00 0.00 856.00 156.50" xmlns="http://www.w3.org/2000/svg" xmlns:xlink="http://www.w3.org/1999/xlink">
<g id="graph0" class="graph" transform="scale(1 1) rotate(0) translate(4 152.5)">
<title>m_helper_basic::f_all_default</title>
<!-- Node1 -->
<g id="Node000001" class="node">
<title>Node1</title>
<g id="a_Node000001"><a xlink:title="Checks if ALL elements of a real(wp) array are of default value.">
<polygon fill="#999999" stroke="#666666" points="848,-84 728,-84 728,-54 848,-54 848,-84"/>
<text text-anchor="start" x="736" y="-72" font-family="Helvetica,sans-Serif" font-size="10.00">m_helper_basic::f_all</text>
<text text-anchor="middle" x="788" y="-61" font-family="Helvetica,sans-Serif" font-size="10.00">_default</text>
</a>
</g>
</g>
<!-- Node2 -->
<g id="Node000002" class="node">
<title>Node2</title>
<g id="a_Node000002"><a xlink:href="namespacem__check__patches.html#abcc37fb6bf5cba50d9df215c7425ce22" target="_top" xlink:title="This subroutine checks the primitive variables.">
<polygon fill="white" stroke="#666666" points="684,-148.5 566,-148.5 566,-107.5 684,-107.5 684,-148.5"/>
<text text-anchor="start" x="574" y="-136.5" font-family="Helvetica,sans-Serif" font-size="10.00">m_check_patches::s</text>
<text text-anchor="start" x="574" y="-125.5" font-family="Helvetica,sans-Serif" font-size="10.00">_check_active_patch</text>
<text text-anchor="middle" x="625" y="-114.5" font-family="Helvetica,sans-Serif" font-size="10.00">_primitive_variables</text>
</a>
</g>
</g>
<!-- Node1&#45;&gt;Node2 -->
<g id="edge1_Node000001_Node000002" class="edge">
<title>Node1&#45;&gt;Node2</title>
<g id="a_edge1_Node000001_Node000002"><a xlink:title=" ">
<path fill="none" stroke="#63b8ff" d="M736.12,-87.65C718.96,-93.94 699.7,-100.99 682.15,-107.42"/>
<polygon fill="#63b8ff" stroke="#63b8ff" points="737.77,-90.77 745.96,-84.04 735.36,-84.2 737.77,-90.77"/>
</a>
</g>
</g>
<!-- Node7 -->
<g id="Node000007" class="node">
<title>Node7</title>
<g id="a_Node000007"><a xlink:href="namespacem__check__patches.html#a5e55933a5572b3ad70629360758ab0f7" target="_top" xlink:title="This subroutine verifies that the primitive variables associated with the given inactive patch remain...">
<polygon fill="white" stroke="#666666" points="688.5,-89.5 561.5,-89.5 561.5,-48.5 688.5,-48.5 688.5,-89.5"/>
<text text-anchor="start" x="569.5" y="-77.5" font-family="Helvetica,sans-Serif" font-size="10.00">m_check_patches::s</text>
<text text-anchor="start" x="569.5" y="-66.5" font-family="Helvetica,sans-Serif" font-size="10.00">_check_inactive_patch</text>
<text text-anchor="middle" x="625" y="-55.5" font-family="Helvetica,sans-Serif" font-size="10.00">_primitive_variables</text>
</a>
</g>
</g>
<!-- Node1&#45;&gt;Node7 -->
<g id="edge6_Node000001_Node000007" class="edge">
<title>Node1&#45;&gt;Node7</title>
<g id="a_edge6_Node000001_Node000007"><a xlink:title=" ">
<path fill="none" stroke="#63b8ff" d="M717.91,-69C708.15,-69 698.17,-69 688.55,-69"/>
<polygon fill="#63b8ff" stroke="#63b8ff" points="717.96,-72.5 727.96,-69 717.96,-65.5 717.96,-72.5"/>
</a>
</g>
</g>
<!-- Node8 -->
<g id="Node000008" class="node">
<title>Node8</title>
<g id="a_Node000008"><a xlink:href="namespacem__checker.html#abf992eb946fb0344c8a52f5272263e49" target="_top" xlink:title="Checks constraints on initial partial density perturbation (perturb_flow, perturb_flow_fluid,...">
<polygon fill="white" stroke="#666666" points="692,-30 558,-30 558,0 692,0 692,-30"/>
<text text-anchor="start" x="566" y="-18" font-family="Helvetica,sans-Serif" font-size="10.00">m_checker::s_check</text>
<text text-anchor="middle" x="625" y="-7" font-family="Helvetica,sans-Serif" font-size="10.00">_inputs_perturb_density</text>
</a>
</g>
</g>
<!-- Node1&#45;&gt;Node8 -->
<g id="edge8_Node000001_Node000008" class="edge">
<title>Node1&#45;&gt;Node8</title>
<g id="a_edge8_Node000001_Node000008"><a xlink:title=" ">
<path fill="none" stroke="#63b8ff" d="M732.53,-50.73C712.47,-44 690,-36.47 670.89,-30.05"/>
<polygon fill="#63b8ff" stroke="#63b8ff" points="731.56,-54.1 742.15,-53.96 733.78,-47.46 731.56,-54.1"/>
</a>
</g>
</g>
<!-- Node3 -->
<g id="Node000003" class="node">
<title>Node3</title>
<g id="a_Node000003"><a xlink:href="namespacem__check__patches.html#ab13ea7dd7fe8ef624bb7c4da7039bec5" target="_top" xlink:title=" ">
<polygon fill="white" stroke="#666666" points="522,-84 407,-84 407,-54 522,-54 522,-84"/>
<text text-anchor="start" x="415" y="-72" font-family="Helvetica,sans-Serif" font-size="10.00">m_check_patches::s</text>
<text text-anchor="middle" x="464.5" y="-61" font-family="Helvetica,sans-Serif" font-size="10.00">_check_patches</text>
</a>
</g>
</g>
<!-- Node2&#45;&gt;Node3 -->
<g id="edge2_Node000002_Node000003" class="edge">
<title>Node2&#45;&gt;Node3</title>
<g id="a_edge2_Node000002_Node000003"><a xlink:title=" ">
<path fill="none" stroke="#63b8ff" d="M558.79,-103.73C540.98,-97.1 522.18,-90.1 506.17,-84.14"/>
<polygon fill="#63b8ff" stroke="#63b8ff" points="557.97,-107.16 568.56,-107.36 560.41,-100.6 557.97,-107.16"/>
</a>
</g>
</g>
<!-- Node4 -->
<g id="Node000004" class="node">
<title>Node4</title>
<g id="a_Node000004"><a xlink:href="namespacem__start__up.html#ad26e747c87bb6bcf4c9d6baa21d044c1" target="_top" xlink:title="Checking that the user inputs make sense, i.e. that the individual choices are compatible with the co...">
<polygon fill="white" stroke="#666666" points="371,-57 255,-57 255,-27 371,-27 371,-57"/>
<text text-anchor="start" x="263" y="-45" font-family="Helvetica,sans-Serif" font-size="10.00">m_start_up::s_check</text>
<text text-anchor="middle" x="313" y="-34" font-family="Helvetica,sans-Serif" font-size="10.00">_input_file</text>
</a>
</g>
</g>
<!-- Node3&#45;&gt;Node4 -->
<g id="edge3_Node000003_Node000004" class="edge">
<title>Node3&#45;&gt;Node4</title>
<g id="a_edge3_Node000003_Node000004"><a xlink:title=" ">
<path fill="none" stroke="#63b8ff" d="M396.95,-56.98C388.32,-55.42 379.55,-53.84 371.1,-52.31"/>
<polygon fill="#63b8ff" stroke="#63b8ff" points="396.52,-60.46 406.98,-58.79 397.76,-53.57 396.52,-60.46"/>
</a>
</g>
</g>
<!-- Node5 -->
<g id="Node000005" class="node">
<title>Node5</title>
<g id="a_Node000005"><a xlink:href="namespacem__start__up.html#ab64542f13c680e17ce8879c77c65c0e0" target="_top" xlink:title=" ">
<polygon fill="white" stroke="#666666" points="219,-57 89,-57 89,-27 219,-27 219,-57"/>
<text text-anchor="start" x="97" y="-45" font-family="Helvetica,sans-Serif" font-size="10.00">m_start_up::s_initialize</text>
<text text-anchor="middle" x="154" y="-34" font-family="Helvetica,sans-Serif" font-size="10.00">_mpi_domain</text>
</a>
</g>
</g>
<!-- Node4&#45;&gt;Node5 -->
<g id="edge4_Node000004_Node000005" class="edge">
<title>Node4&#45;&gt;Node5</title>
<g id="a_edge4_Node000004_Node000005"><a xlink:title=" ">
<path fill="none" stroke="#63b8ff" d="M244.7,-42C236.26,-42 227.65,-42 219.26,-42"/>
<polygon fill="#63b8ff" stroke="#63b8ff" points="244.88,-45.5 254.88,-42 244.88,-38.5 244.88,-45.5"/>
</a>
</g>
</g>
<!-- Node6 -->
<g id="Node000006" class="node">
<title>Node6</title>
<g id="a_Node000006"><a xlink:href="p__main_8f90.html#aeec10ee8e2940c953967da3e374e1579" target="_top" xlink:title="This program takes care of setting up the initial condition and grid data for the multicomponent flow...">
<polygon fill="white" stroke="#666666" points="53,-51.5 0,-51.5 0,-32.5 53,-32.5 53,-51.5"/>
<text text-anchor="middle" x="26.5" y="-39.5" font-family="Helvetica,sans-Serif" font-size="10.00">p_main</text>
</a>
</g>
</g>
<!-- Node5&#45;&gt;Node6 -->
<g id="edge5_Node000005_Node000006" class="edge">
<title>Node5&#45;&gt;Node6</title>
<g id="a_edge5_Node000005_Node000006"><a xlink:title=" ">
<path fill="none" stroke="#63b8ff" d="M78.74,-42C69.58,-42 60.76,-42 53.09,-42"/>
<polygon fill="#63b8ff" stroke="#63b8ff" points="78.78,-45.5 88.78,-42 78.78,-38.5 78.78,-45.5"/>
</a>
</g>
</g>
<!-- Node7&#45;&gt;Node3 -->
<g id="edge7_Node000007_Node000003" class="edge">
<title>Node7&#45;&gt;Node3</title>
<g id="a_edge7_Node000007_Node000003"><a xlink:title=" ">
<path fill="none" stroke="#63b8ff" d="M551.22,-69C541.42,-69 531.49,-69 522.03,-69"/>
<polygon fill="#63b8ff" stroke="#63b8ff" points="551.36,-72.5 561.36,-69 551.36,-65.5 551.36,-72.5"/>
</a>
</g>
</g>
<!-- Node9 -->
<g id="Node000009" class="node">
<title>Node9</title>
<g id="a_Node000009"><a xlink:href="namespacem__checker.html#a214e05cb46bc7c3e0dbe55fdc433c072" target="_top" xlink:title="Checks compatibility of parameters in the input file. Used by the pre_process stage.">
<polygon fill="white" stroke="#666666" points="521.5,-33 407.5,-33 407.5,-3 521.5,-3 521.5,-33"/>
<text text-anchor="start" x="415.5" y="-21" font-family="Helvetica,sans-Serif" font-size="10.00">m_checker::s_check</text>
<text text-anchor="middle" x="464.5" y="-10" font-family="Helvetica,sans-Serif" font-size="10.00">_inputs</text>
</a>
</g>
</g>
<!-- Node8&#45;&gt;Node9 -->
<g id="edge9_Node000008_Node000009" class="edge">
<title>Node8&#45;&gt;Node9</title>
<g id="a_edge9_Node000008_Node000009"><a xlink:title=" ">
<path fill="none" stroke="#63b8ff" d="M547.61,-16.45C538.98,-16.61 530.3,-16.77 521.98,-16.93"/>
<polygon fill="#63b8ff" stroke="#63b8ff" points="547.77,-19.94 557.7,-16.25 547.64,-12.94 547.77,-19.94"/>
</a>
</g>
</g>
<!-- Node9&#45;&gt;Node4 -->
<g id="edge10_Node000009_Node000004" class="edge">
<title>Node9&#45;&gt;Node4</title>
<g id="a_edge10_Node000009_Node000004"><a xlink:title=" ">
<path fill="none" stroke="#63b8ff" d="M397.35,-28.62C388.7,-30.01 379.89,-31.42 371.4,-32.78"/>
<polygon fill="#63b8ff" stroke="#63b8ff" points="398.09,-32.05 407.41,-27 396.98,-25.13 398.09,-32.05"/>
</a>
</g>
</g>
</g>
</svg>
