<?xml version="1.0" encoding="UTF-8" standalone="no"?>
<!DOCTYPE svg PUBLIC "-//W3C//DTD SVG 1.1//EN"
 "http://www.w3.org/Graphics/SVG/1.1/DTD/svg11.dtd">
<!-- Generated by graphviz version 2.43.0 (0)
 -->
<!-- Title: m_perturbation::s_perturb_mixlayer Pages: 1 -->
<svg width="679pt" height="114pt"
 viewBox="0.00 0.00 679.00 113.50" xmlns="http://www.w3.org/2000/svg" xmlns:xlink="http://www.w3.org/1999/xlink">
<g id="graph0" class="graph" transform="scale(1 1) rotate(0) translate(4 109.5)">
<title>m_perturbation::s_perturb_mixlayer</title>
<!-- Node1 -->
<g id="Node000001" class="node">
<title>Node1</title>
<g id="a_Node000001"><a xlink:title="This subroutine computes velocity perturbations for a temporal mixing layer with a hyperbolic tangent...">
<polygon fill="#999999" stroke="#666666" points="143,-83.5 0,-83.5 0,-53.5 143,-53.5 143,-83.5"/>
<text text-anchor="start" x="8" y="-71.5" font-family="Helvetica,sans-Serif" font-size="10.00">m_perturbation::s_perturb</text>
<text text-anchor="middle" x="71.5" y="-60.5" font-family="Helvetica,sans-Serif" font-size="10.00">_mixlayer</text>
</a>
</g>
</g>
<!-- Node2 -->
<g id="Node000002" class="node">
<title>Node2</title>
<g id="a_Node000002"><a xlink:href="namespacem__helper.html#aded4fe6025b2194ba0b5cc5a264af9ec" target="_top" xlink:title="This procedure computes the cross product of two vectors.">
<polygon fill="white" stroke="#666666" points="306.5,-100 203.5,-100 203.5,-81 306.5,-81 306.5,-100"/>
<text text-anchor="middle" x="255" y="-88" font-family="Helvetica,sans-Serif" font-size="10.00">m_helper::f_cross</text>
</a>
</g>
</g>
<!-- Node1&#45;&gt;Node2 -->
<g id="edge1_Node000001_Node000002" class="edge">
<title>Node1&#45;&gt;Node2</title>
<g id="a_edge1_Node000001_Node000002"><a xlink:title=" ">
<path fill="none" stroke="#63b8ff" d="M143.19,-77.07C159.69,-79.07 177.11,-81.18 193.13,-83.12"/>
<polygon fill="#63b8ff" stroke="#63b8ff" points="193.09,-86.64 203.44,-84.37 193.93,-79.69 193.09,-86.64"/>
</a>
</g>
</g>
<!-- Node3 -->
<g id="Node000003" class="node">
<title>Node3</title>
<g id="a_Node000003"><a xlink:href="namespacem__perturbation.html#a49336011b98f1698ccd754d19a70db20" target="_top" xlink:title=" ">
<polygon fill="white" stroke="#666666" points="331,-62.5 179,-62.5 179,-32.5 331,-32.5 331,-62.5"/>
<text text-anchor="start" x="187" y="-50.5" font-family="Helvetica,sans-Serif" font-size="10.00">m_perturbation::s_generate</text>
<text text-anchor="middle" x="255" y="-39.5" font-family="Helvetica,sans-Serif" font-size="10.00">_random_perturbation</text>
</a>
</g>
</g>
<!-- Node1&#45;&gt;Node3 -->
<g id="edge2_Node000001_Node000003" class="edge">
<title>Node1&#45;&gt;Node3</title>
<g id="a_edge2_Node000001_Node000003"><a xlink:title=" ">
<path fill="none" stroke="#63b8ff" d="M143.19,-60.32C151.56,-59.35 160.17,-58.36 168.72,-57.37"/>
<polygon fill="#63b8ff" stroke="#63b8ff" points="169.17,-60.84 178.7,-56.21 168.36,-53.88 169.17,-60.84"/>
</a>
</g>
</g>
<!-- Node4 -->
<g id="Node000004" class="node">
<title>Node4</title>
<g id="a_Node000004"><a xlink:href="namespacem__perturbation.html#a492ba3cf7b2070a7db7d75f7868eedc4" target="_top" xlink:title=" ">
<polygon fill="white" stroke="#666666" points="494.5,-105.5 369.5,-105.5 369.5,-75.5 494.5,-75.5 494.5,-105.5"/>
<text text-anchor="start" x="377.5" y="-93.5" font-family="Helvetica,sans-Serif" font-size="10.00">m_perturbation::f_unit</text>
<text text-anchor="middle" x="432" y="-82.5" font-family="Helvetica,sans-Serif" font-size="10.00">_vector</text>
</a>
</g>
</g>
<!-- Node3&#45;&gt;Node4 -->
<g id="edge3_Node000003_Node000004" class="edge">
<title>Node3&#45;&gt;Node4</title>
<g id="a_edge3_Node000003_Node000004"><a xlink:title=" ">
<path fill="none" stroke="#63b8ff" d="M317.21,-62.54C331.06,-65.94 345.88,-69.59 360.1,-73.08"/>
<polygon fill="#63b8ff" stroke="#63b8ff" points="359.28,-76.48 369.83,-75.47 360.95,-69.68 359.28,-76.48"/>
</a>
</g>
</g>
<!-- Node5 -->
<g id="Node000005" class="node">
<title>Node5</title>
<g id="a_Node000005"><a xlink:href="namespacem__perturbation.html#a0c2d38b30e2c0aacd18b87e2d43a2249" target="_top" xlink:title=" ">
<polygon fill="white" stroke="#666666" points="671,-38 533,-38 533,-19 671,-19 671,-38"/>
<text text-anchor="middle" x="602" y="-26" font-family="Helvetica,sans-Serif" font-size="10.00">m_perturbation::modmul</text>
</a>
</g>
</g>
<!-- Node3&#45;&gt;Node5 -->
<g id="edge4_Node000003_Node000005" class="edge">
<title>Node3&#45;&gt;Node5</title>
<g id="a_edge4_Node000003_Node000005"><a xlink:title=" ">
<path fill="none" stroke="#63b8ff" d="M331.29,-43.35C387.96,-40.23 465.42,-35.97 522.79,-32.81"/>
<polygon fill="#63b8ff" stroke="#63b8ff" points="523.1,-36.3 532.89,-32.25 522.72,-29.31 523.1,-36.3"/>
</a>
</g>
</g>
<!-- Node6 -->
<g id="Node000006" class="node">
<title>Node6</title>
<g id="a_Node000006"><a xlink:href="namespacem__perturbation.html#a54bbfa24f96c984b26015bddcfb59ee4" target="_top" xlink:title="This function generates a pseudo&#45;random number between 0 and 1 based on linear congruential generator...">
<polygon fill="white" stroke="#666666" points="497,-19 367,-19 367,0 497,0 497,-19"/>
<text text-anchor="middle" x="432" y="-7" font-family="Helvetica,sans-Serif" font-size="10.00">m_perturbation::s_prng</text>
</a>
</g>
</g>
<!-- Node3&#45;&gt;Node6 -->
<g id="edge5_Node000003_Node000006" class="edge">
<title>Node3&#45;&gt;Node6</title>
<g id="a_edge5_Node000003_Node000006"><a xlink:title=" ">
<path fill="none" stroke="#63b8ff" d="M325.16,-32.48C342.49,-28.72 360.82,-24.74 377.27,-21.17"/>
<polygon fill="#63b8ff" stroke="#63b8ff" points="378.22,-24.54 387.25,-19 376.73,-17.7 378.22,-24.54"/>
</a>
</g>
</g>
<!-- Node6&#45;&gt;Node5 -->
<g id="edge6_Node000006_Node000005" class="edge">
<title>Node6&#45;&gt;Node5</title>
<g id="a_edge6_Node000006_Node000005"><a xlink:title=" ">
<path fill="none" stroke="#63b8ff" d="M497.47,-16.79C505.7,-17.72 514.18,-18.68 522.6,-19.63"/>
<polygon fill="#63b8ff" stroke="#63b8ff" points="522.47,-23.14 532.8,-20.79 523.25,-16.18 522.47,-23.14"/>
</a>
</g>
</g>
</g>
</svg>
