<?xml version="1.0" encoding="UTF-8" standalone="no"?>
<!DOCTYPE svg PUBLIC "-//W3C//DTD SVG 1.1//EN"
 "http://www.w3.org/Graphics/SVG/1.1/DTD/svg11.dtd">
<!-- Generated by graphviz version 2.43.0 (0)
 -->
<!-- Title: m_helper::spherical_harmonic_func Pages: 1 -->
<svg width="461pt" height="94pt"
 viewBox="0.00 0.00 461.00 93.50" xmlns="http://www.w3.org/2000/svg" xmlns:xlink="http://www.w3.org/1999/xlink">

<svg id="main" version="1.1" xmlns="http://www.w3.org/2000/svg" xmlns:xlink="http://www.w3.org/1999/xlink" xml:space="preserve">

<style type="text/css"><![CDATA[
.node, .edge {opacity: 0.7;}
.node.selected, .edge.selected {opacity: 1;}
.edge:hover path { stroke: red; }
.edge:hover polygon { stroke: red; fill: red; }
]]></style>
<script type="application/ecmascript" xlink:href="svg.min.js"/>
<svg id="graph" class="graph">
<g id="graph0" class="graph" transform="scale(1 1) rotate(0) translate(4 89.5)">
<title>m_helper::spherical_harmonic_func</title>
<!-- Node1 -->
<g id="Node000001" class="node">
<title>Node1</title>
<g id="a_Node000001"><a xlink:title="This function calculates the spherical harmonic function evaluated at x and phi.">
<polygon fill="#999999" stroke="#666666" points="113,-45.5 0,-45.5 0,-15.5 113,-15.5 113,-45.5"/>
<text text-anchor="start" x="8" y="-33.5" font-family="Helvetica,sans-Serif" font-size="10.00">m_helper::spherical</text>
<text text-anchor="middle" x="56.5" y="-22.5" font-family="Helvetica,sans-Serif" font-size="10.00">_harmonic_func</text>
</a>
</g>
</g>
<!-- Node2 -->
<g id="Node000002" class="node">
<title>Node2</title>
<g id="a_Node000002"><a xlink:href="namespacem__helper.html#a88ff01ddce586a323f6d5026b9d0ae65" target="_top" xlink:title="This function generates the associated legendre polynomials evaluated at x with inputs l and m.">
<polygon fill="white" stroke="#666666" points="270,-67.5 149,-67.5 149,-37.5 270,-37.5 270,-67.5"/>
<text text-anchor="start" x="157" y="-55.5" font-family="Helvetica,sans-Serif" font-size="10.00">m_helper::associated</text>
<text text-anchor="middle" x="209.5" y="-44.5" font-family="Helvetica,sans-Serif" font-size="10.00">_legendre</text>
</a>
</g>
</g>
<!-- Node1&#45;&gt;Node2 -->
<g id="edge1_Node000001_Node000002" class="edge">
<title>Node1&#45;&gt;Node2</title>
<g id="a_edge1_Node000001_Node000002"><a xlink:title=" ">
<path fill="none" stroke="#63b8ff" d="M113.3,-38.63C121.63,-39.84 130.31,-41.11 138.88,-42.36"/>
<polygon fill="#63b8ff" stroke="#63b8ff" points="138.48,-45.83 148.88,-43.81 139.49,-38.91 138.48,-45.83"/>
</a>
</g>
</g>
<!-- Node4 -->
<g id="Node000004" class="node">
<title>Node4</title>
<g id="a_Node000004"><a xlink:href="namespacem__helper.html#a0cf8030408f5ac3a9cf996769d227f4e" target="_top" xlink:title="The following function calculates the factorial value of an integer.">
<polygon fill="white" stroke="#666666" points="264,-19 155,-19 155,0 264,0 264,-19"/>
<text text-anchor="middle" x="209.5" y="-7" font-family="Helvetica,sans-Serif" font-size="10.00">m_helper::factorial</text>
</a>
</g>
</g>
<!-- Node1&#45;&gt;Node4 -->
<g id="edge4_Node000001_Node000004" class="edge">
<title>Node1&#45;&gt;Node4</title>
<g id="a_edge4_Node000001_Node000004"><a xlink:title=" ">
<path fill="none" stroke="#63b8ff" d="M113.3,-22.74C123.61,-21.31 134.45,-19.8 144.98,-18.33"/>
<polygon fill="#63b8ff" stroke="#63b8ff" points="145.52,-21.79 154.94,-16.95 144.55,-14.86 145.52,-21.79"/>
</a>
</g>
</g>
<!-- Node2&#45;&gt;Node2 -->
<g id="edge2_Node000002_Node000002" class="edge">
<title>Node2&#45;&gt;Node2</title>
<g id="a_edge2_Node000002_Node000002"><a xlink:title=" ">
<path fill="none" stroke="#63b8ff" d="M182.78,-67.78C176.84,-76.91 185.75,-85.5 209.5,-85.5 223.6,-85.5 232.47,-82.47 236.11,-78.1"/>
<polygon fill="#63b8ff" stroke="#63b8ff" points="239.61,-77.81 236.22,-67.78 232.61,-77.74 239.61,-77.81"/>
</a>
</g>
</g>
<!-- Node3 -->
<g id="Node000003" class="node">
<title>Node3</title>
<g id="a_Node000003"><a xlink:href="namespacem__helper.html#a78033ea89e3630bd233dfa3d90fcb5d6" target="_top" xlink:title="This function calculates the double factorial value of an integer.">
<polygon fill="white" stroke="#666666" points="453,-62 306,-62 306,-43 453,-43 453,-62"/>
<text text-anchor="middle" x="379.5" y="-50" font-family="Helvetica,sans-Serif" font-size="10.00">m_helper::double_factorial</text>
</a>
</g>
</g>
<!-- Node2&#45;&gt;Node3 -->
<g id="edge3_Node000002_Node000003" class="edge">
<title>Node2&#45;&gt;Node3</title>
<g id="a_edge3_Node000002_Node000003"><a xlink:title=" ">
<path fill="none" stroke="#63b8ff" d="M270.2,-52.5C278.47,-52.5 287.09,-52.5 295.68,-52.5"/>
<polygon fill="#63b8ff" stroke="#63b8ff" points="295.75,-56 305.75,-52.5 295.75,-49 295.75,-56"/>
</a>
</g>
</g>
</g>
</svg>
</svg>

<style type='text/css'>
<![CDATA[
[data-mouse-over-selected='false'] { opacity: 0.7; }
[data-mouse-over-selected='true']  { opacity: 1.0; }
]]>
</style>
<script type="application/ecmascript"><![CDATA[
document.addEventListener('DOMContentLoaded', (event) => {
  highlightEdges();
  highlightAdjacentNodes();
});
]]></script>
</svg>
