<?xml version="1.0" encoding="UTF-8" standalone="no"?>
<!DOCTYPE svg PUBLIC "-//W3C//DTD SVG 1.1//EN"
 "http://www.w3.org/Graphics/SVG/1.1/DTD/svg11.dtd">
<!-- Generated by graphviz version 2.43.0 (0)
 -->
<!-- Title: m_boundary_common::s_populate_variables_buffers Pages: 1 -->
<svg width="489pt" height="364pt"
 viewBox="0.00 0.00 489.00 364.00" xmlns="http://www.w3.org/2000/svg" xmlns:xlink="http://www.w3.org/1999/xlink">
<g id="graph0" class="graph" transform="scale(1 1) rotate(0) translate(4 360)">
<title>m_boundary_common::s_populate_variables_buffers</title>
<!-- Node1 -->
<g id="Node000001" class="node">
<title>Node1</title>
<g id="a_Node000001"><a xlink:title="The purpose of this procedure is to populate the buffers of the primitive variables,...">
<polygon fill="#999999" stroke="#666666" points="131,-203.5 0,-203.5 0,-162.5 131,-162.5 131,-203.5"/>
<text text-anchor="start" x="8" y="-191.5" font-family="Helvetica,sans-Serif" font-size="10.00">m_boundary_common::</text>
<text text-anchor="start" x="8" y="-180.5" font-family="Helvetica,sans-Serif" font-size="10.00">s_populate_variables</text>
<text text-anchor="middle" x="65.5" y="-169.5" font-family="Helvetica,sans-Serif" font-size="10.00">_buffers</text>
</a>
</g>
</g>
<!-- Node2 -->
<g id="Node000002" class="node">
<title>Node2</title>
<g id="a_Node000002"><a xlink:href="namespacem__boundary__common.html#a2fe3d0adef0faf65f6410f293d32bb42" target="_top" xlink:title=" ">
<polygon fill="white" stroke="#666666" points="298,-356 167,-356 167,-326 298,-326 298,-356"/>
<text text-anchor="start" x="175" y="-344" font-family="Helvetica,sans-Serif" font-size="10.00">m_boundary_common::</text>
<text text-anchor="middle" x="232.5" y="-333" font-family="Helvetica,sans-Serif" font-size="10.00">s_axis</text>
</a>
</g>
</g>
<!-- Node1&#45;&gt;Node2 -->
<g id="edge1_Node000001_Node000002" class="edge">
<title>Node1&#45;&gt;Node2</title>
<g id="a_edge1_Node000001_Node000002"><a xlink:title=" ">
<path fill="none" stroke="#63b8ff" d="M76.99,-203.62C92.78,-232.74 125.3,-285.84 167,-317 168.83,-318.37 170.74,-319.66 172.72,-320.89"/>
<polygon fill="#63b8ff" stroke="#63b8ff" points="171.27,-324.09 181.72,-325.85 174.65,-317.96 171.27,-324.09"/>
</a>
</g>
</g>
<!-- Node3 -->
<g id="Node000003" class="node">
<title>Node3</title>
<g id="a_Node000003"><a xlink:href="namespacem__boundary__common.html#a868f1a4cb136b1e10ff0266614eae5b8" target="_top" xlink:title=" ">
<polygon fill="white" stroke="#666666" points="298,-308 167,-308 167,-278 298,-278 298,-308"/>
<text text-anchor="start" x="175" y="-296" font-family="Helvetica,sans-Serif" font-size="10.00">m_boundary_common::</text>
<text text-anchor="middle" x="232.5" y="-285" font-family="Helvetica,sans-Serif" font-size="10.00">s_dirichlet</text>
</a>
</g>
</g>
<!-- Node1&#45;&gt;Node3 -->
<g id="edge2_Node000001_Node000003" class="edge">
<title>Node1&#45;&gt;Node3</title>
<g id="a_edge2_Node000001_Node000003"><a xlink:title=" ">
<path fill="none" stroke="#63b8ff" d="M88.8,-203.77C108.38,-221.3 138.16,-246.3 167,-264 172.43,-267.33 178.3,-270.5 184.22,-273.44"/>
<polygon fill="#63b8ff" stroke="#63b8ff" points="182.96,-276.72 193.49,-277.86 185.97,-270.4 182.96,-276.72"/>
</a>
</g>
</g>
<!-- Node4 -->
<g id="Node000004" class="node">
<title>Node4</title>
<g id="a_Node000004"><a xlink:href="namespacem__boundary__common.html#a8aaafb76d038c4e6c8ae6272efa774ad" target="_top" xlink:title=" ">
<polygon fill="white" stroke="#666666" points="481,-286 334,-286 334,-256 481,-256 481,-286"/>
<text text-anchor="start" x="342" y="-274" font-family="Helvetica,sans-Serif" font-size="10.00">m_boundary_common::</text>
<text text-anchor="middle" x="407.5" y="-263" font-family="Helvetica,sans-Serif" font-size="10.00">s_ghost_cell_extrapolation</text>
</a>
</g>
</g>
<!-- Node1&#45;&gt;Node4 -->
<g id="edge4_Node000001_Node000004" class="edge">
<title>Node1&#45;&gt;Node4</title>
<g id="a_edge4_Node000001_Node000004"><a xlink:title=" ">
<path fill="none" stroke="#63b8ff" d="M103.19,-203.58C121.8,-213.22 145.06,-224.08 167,-231 217.85,-247.04 276.91,-256.99 323.65,-262.96"/>
<polygon fill="#63b8ff" stroke="#63b8ff" points="323.38,-266.45 333.74,-264.21 324.24,-259.5 323.38,-266.45"/>
</a>
</g>
</g>
<!-- Node5 -->
<g id="Node000005" class="node">
<title>Node5</title>
<g id="a_Node000005"><a xlink:href="namespacem__boundary__common.html#ac94c00d60da5c8365f14f1b035566c21" target="_top" xlink:title=" ">
<polygon fill="white" stroke="#666666" points="298,-222 167,-222 167,-192 298,-192 298,-222"/>
<text text-anchor="start" x="175" y="-210" font-family="Helvetica,sans-Serif" font-size="10.00">m_boundary_common::</text>
<text text-anchor="middle" x="232.5" y="-199" font-family="Helvetica,sans-Serif" font-size="10.00">s_no_slip_wall</text>
</a>
</g>
</g>
<!-- Node1&#45;&gt;Node5 -->
<g id="edge5_Node000001_Node000005" class="edge">
<title>Node1&#45;&gt;Node5</title>
<g id="a_edge5_Node000001_Node000005"><a xlink:title=" ">
<path fill="none" stroke="#63b8ff" d="M131.24,-192.42C139.67,-193.64 148.37,-194.91 156.95,-196.16"/>
<polygon fill="#63b8ff" stroke="#63b8ff" points="156.55,-199.63 166.95,-197.61 157.56,-192.71 156.55,-199.63"/>
</a>
</g>
</g>
<!-- Node6 -->
<g id="Node000006" class="node">
<title>Node6</title>
<g id="a_Node000006"><a xlink:href="namespacem__boundary__common.html#a4d160d849a7ea4ce6a8cac2c478e5b9c" target="_top" xlink:title=" ">
<polygon fill="white" stroke="#666666" points="298,-174 167,-174 167,-144 298,-144 298,-174"/>
<text text-anchor="start" x="175" y="-162" font-family="Helvetica,sans-Serif" font-size="10.00">m_boundary_common::</text>
<text text-anchor="middle" x="232.5" y="-151" font-family="Helvetica,sans-Serif" font-size="10.00">s_periodic</text>
</a>
</g>
</g>
<!-- Node1&#45;&gt;Node6 -->
<g id="edge6_Node000001_Node000006" class="edge">
<title>Node1&#45;&gt;Node6</title>
<g id="a_edge6_Node000001_Node000006"><a xlink:title=" ">
<path fill="none" stroke="#63b8ff" d="M131.24,-173.58C139.67,-172.36 148.37,-171.09 156.95,-169.84"/>
<polygon fill="#63b8ff" stroke="#63b8ff" points="157.56,-173.29 166.95,-168.39 156.55,-166.37 157.56,-173.29"/>
</a>
</g>
</g>
<!-- Node7 -->
<g id="Node000007" class="node">
<title>Node7</title>
<g id="a_Node000007"><a xlink:href="namespacem__boundary__common.html#ac55853dffb7e074e8f645ff0a63e7e38" target="_top" xlink:title=" ">
<polygon fill="white" stroke="#666666" points="298,-126 167,-126 167,-96 298,-96 298,-126"/>
<text text-anchor="start" x="175" y="-114" font-family="Helvetica,sans-Serif" font-size="10.00">m_boundary_common::</text>
<text text-anchor="middle" x="232.5" y="-103" font-family="Helvetica,sans-Serif" font-size="10.00">s_qbmm_extrapolation</text>
</a>
</g>
</g>
<!-- Node1&#45;&gt;Node7 -->
<g id="edge7_Node000001_Node000007" class="edge">
<title>Node1&#45;&gt;Node7</title>
<g id="a_edge7_Node000001_Node000007"><a xlink:title=" ">
<path fill="none" stroke="#63b8ff" d="M107.68,-162.31C125.72,-153.51 147.24,-143.38 167,-135 171.13,-133.25 175.44,-131.49 179.79,-129.77"/>
<polygon fill="#63b8ff" stroke="#63b8ff" points="181.25,-132.96 189.3,-126.08 178.72,-126.44 181.25,-132.96"/>
</a>
</g>
</g>
<!-- Node8 -->
<g id="Node000008" class="node">
<title>Node8</title>
<g id="a_Node000008"><a xlink:href="namespacem__boundary__common.html#aafa9626b0837c3fc44bec98866283f1d" target="_top" xlink:title=" ">
<polygon fill="white" stroke="#666666" points="298,-78 167,-78 167,-48 298,-48 298,-78"/>
<text text-anchor="start" x="175" y="-66" font-family="Helvetica,sans-Serif" font-size="10.00">m_boundary_common::</text>
<text text-anchor="middle" x="232.5" y="-55" font-family="Helvetica,sans-Serif" font-size="10.00">s_slip_wall</text>
</a>
</g>
</g>
<!-- Node1&#45;&gt;Node8 -->
<g id="edge8_Node000001_Node000008" class="edge">
<title>Node1&#45;&gt;Node8</title>
<g id="a_edge8_Node000001_Node000008"><a xlink:title=" ">
<path fill="none" stroke="#63b8ff" d="M83.45,-162.46C102.04,-141.08 133.66,-107.87 167,-87 169.6,-85.37 172.33,-83.83 175.13,-82.37"/>
<polygon fill="#63b8ff" stroke="#63b8ff" points="176.76,-85.47 184.27,-78 173.74,-79.16 176.76,-85.47"/>
</a>
</g>
</g>
<!-- Node9 -->
<g id="Node000009" class="node">
<title>Node9</title>
<g id="a_Node000009"><a xlink:href="namespacem__boundary__common.html#a117fa18d768baf2b0edd4e8887a923d5" target="_top" xlink:title=" ">
<polygon fill="white" stroke="#666666" points="298,-30 167,-30 167,0 298,0 298,-30"/>
<text text-anchor="start" x="175" y="-18" font-family="Helvetica,sans-Serif" font-size="10.00">m_boundary_common::</text>
<text text-anchor="middle" x="232.5" y="-7" font-family="Helvetica,sans-Serif" font-size="10.00">s_symmetry</text>
</a>
</g>
</g>
<!-- Node1&#45;&gt;Node9 -->
<g id="edge9_Node000001_Node000009" class="edge">
<title>Node1&#45;&gt;Node9</title>
<g id="a_edge9_Node000001_Node000009"><a xlink:title=" ">
<path fill="none" stroke="#63b8ff" d="M75.84,-162.37C90.84,-131.42 123.13,-72.97 167,-39 168.77,-37.63 170.62,-36.34 172.53,-35.11"/>
<polygon fill="#63b8ff" stroke="#63b8ff" points="174.3,-38.13 181.27,-30.16 170.85,-32.04 174.3,-38.13"/>
</a>
</g>
</g>
<!-- Node3&#45;&gt;Node4 -->
<g id="edge3_Node000003_Node000004" class="edge">
<title>Node3&#45;&gt;Node4</title>
<g id="a_edge3_Node000003_Node000004"><a xlink:title=" ">
<path fill="none" stroke="#63b8ff" d="M298.41,-284.75C306.75,-283.69 315.37,-282.59 323.95,-281.5"/>
<polygon fill="#63b8ff" stroke="#63b8ff" points="324.49,-284.96 333.97,-280.22 323.6,-278.01 324.49,-284.96"/>
</a>
</g>
</g>
</g>
</svg>
