<?xml version="1.0" encoding="UTF-8" standalone="no"?>
<!DOCTYPE svg PUBLIC "-//W3C//DTD SVG 1.1//EN"
 "http://www.w3.org/Graphics/SVG/1.1/DTD/svg11.dtd">
<!-- Generated by graphviz version 2.43.0 (0)
 -->
<!-- Title: m_check_patches::s_check_active_patch_primitive_variables Pages: 1 -->
<svg width="617pt" height="152pt"
 viewBox="0.00 0.00 617.00 151.50" xmlns="http://www.w3.org/2000/svg" xmlns:xlink="http://www.w3.org/1999/xlink">
<g id="graph0" class="graph" transform="scale(1 1) rotate(0) translate(4 147.5)">
<title>m_check_patches::s_check_active_patch_primitive_variables</title>
<!-- Node1 -->
<g id="Node000001" class="node">
<title>Node1</title>
<g id="a_Node000001"><a xlink:title="This subroutine checks the primitive variables.">
<polygon fill="#999999" stroke="#666666" points="118,-87 0,-87 0,-46 118,-46 118,-87"/>
<text text-anchor="start" x="8" y="-75" font-family="Helvetica,sans-Serif" font-size="10.00">m_check_patches::s</text>
<text text-anchor="start" x="8" y="-64" font-family="Helvetica,sans-Serif" font-size="10.00">_check_active_patch</text>
<text text-anchor="middle" x="59" y="-53" font-family="Helvetica,sans-Serif" font-size="10.00">_primitive_variables</text>
</a>
</g>
</g>
<!-- Node2 -->
<g id="Node000002" class="node">
<title>Node2</title>
<g id="a_Node000002"><a xlink:href="namespacem__helper__basic.html#a2a51671bfbfddf6ecabbc9593be49e1d" target="_top" xlink:title="Checks if ALL elements of a real(wp) array are of default value.">
<polygon fill="white" stroke="#666666" points="276.5,-143.5 156.5,-143.5 156.5,-113.5 276.5,-113.5 276.5,-143.5"/>
<text text-anchor="start" x="164.5" y="-131.5" font-family="Helvetica,sans-Serif" font-size="10.00">m_helper_basic::f_all</text>
<text text-anchor="middle" x="216.5" y="-120.5" font-family="Helvetica,sans-Serif" font-size="10.00">_default</text>
</a>
</g>
</g>
<!-- Node1&#45;&gt;Node2 -->
<g id="edge1_Node000001_Node000002" class="edge">
<title>Node1&#45;&gt;Node2</title>
<g id="a_edge1_Node000001_Node000002"><a xlink:title=" ">
<path fill="none" stroke="#63b8ff" d="M111.78,-87.15C129.97,-94.4 150.3,-102.5 168.11,-109.6"/>
<polygon fill="#63b8ff" stroke="#63b8ff" points="167.13,-112.98 177.72,-113.43 169.72,-106.48 167.13,-112.98"/>
</a>
</g>
</g>
<!-- Node3 -->
<g id="Node000003" class="node">
<title>Node3</title>
<g id="a_Node000003"><a xlink:href="namespacem__helper__basic.html#af1b06a05daa43f724ac3b0ff2f97db14" target="_top" xlink:title="Checks if a real(wp) variable is of default value.">
<polygon fill="white" stroke="#666666" points="431,-105.5 315,-105.5 315,-75.5 431,-75.5 431,-105.5"/>
<text text-anchor="start" x="323" y="-93.5" font-family="Helvetica,sans-Serif" font-size="10.00">m_helper_basic::f_is</text>
<text text-anchor="middle" x="373" y="-82.5" font-family="Helvetica,sans-Serif" font-size="10.00">_default</text>
</a>
</g>
</g>
<!-- Node1&#45;&gt;Node3 -->
<g id="edge5_Node000001_Node000003" class="edge">
<title>Node1&#45;&gt;Node3</title>
<g id="a_edge5_Node000001_Node000003"><a xlink:title=" ">
<path fill="none" stroke="#63b8ff" d="M118.32,-70.99C171.2,-75.05 249.15,-81.05 304.66,-85.32"/>
<polygon fill="#63b8ff" stroke="#63b8ff" points="304.52,-88.82 314.76,-86.1 305.06,-81.84 304.52,-88.82"/>
</a>
</g>
</g>
<!-- Node4 -->
<g id="Node000004" class="node">
<title>Node4</title>
<g id="a_Node000004"><a xlink:href="namespacem__helper__basic.html#a3f0eae73a833f30924d4b2665a13a429" target="_top" xlink:title="This procedure checks if two floating point numbers of wp are within tolerance.">
<polygon fill="white" stroke="#666666" points="609,-83.5 467,-83.5 467,-53.5 609,-53.5 609,-83.5"/>
<text text-anchor="start" x="475" y="-71.5" font-family="Helvetica,sans-Serif" font-size="10.00">m_helper_basic::f_approx</text>
<text text-anchor="middle" x="538" y="-60.5" font-family="Helvetica,sans-Serif" font-size="10.00">_equal</text>
</a>
</g>
</g>
<!-- Node1&#45;&gt;Node4 -->
<g id="edge4_Node000001_Node000004" class="edge">
<title>Node1&#45;&gt;Node4</title>
<g id="a_edge4_Node000001_Node000004"><a xlink:title=" ">
<path fill="none" stroke="#63b8ff" d="M118.16,-66.16C191.2,-65.81 320.38,-65.46 431,-66.5 439.33,-66.58 448.04,-66.69 456.72,-66.83"/>
<polygon fill="#63b8ff" stroke="#63b8ff" points="456.81,-70.33 466.87,-66.99 456.93,-63.33 456.81,-70.33"/>
</a>
</g>
</g>
<!-- Node5 -->
<g id="Node000005" class="node">
<title>Node5</title>
<g id="a_Node000005"><a xlink:href="namespacem__helper.html#afd343d70a36c65cb7be86a183aa594ac" target="_top" xlink:title=" ">
<polygon fill="white" stroke="#666666" points="279,-19 154,-19 154,0 279,0 279,-19"/>
<text text-anchor="middle" x="216.5" y="-7" font-family="Helvetica,sans-Serif" font-size="10.00">m_helper::s_int_to_str</text>
</a>
</g>
</g>
<!-- Node1&#45;&gt;Node5 -->
<g id="edge6_Node000001_Node000005" class="edge">
<title>Node1&#45;&gt;Node5</title>
<g id="a_edge6_Node000001_Node000005"><a xlink:title=" ">
<path fill="none" stroke="#63b8ff" d="M116.14,-45.92C137.47,-38.1 161.17,-29.42 180.07,-22.49"/>
<polygon fill="#63b8ff" stroke="#63b8ff" points="181.29,-25.77 189.47,-19.04 178.88,-19.2 181.29,-25.77"/>
</a>
</g>
</g>
<!-- Node2&#45;&gt;Node3 -->
<g id="edge2_Node000002_Node000003" class="edge">
<title>Node2&#45;&gt;Node3</title>
<g id="a_edge2_Node000002_Node000003"><a xlink:title=" ">
<path fill="none" stroke="#63b8ff" d="M276.79,-113.92C286.08,-111.63 295.73,-109.26 305.17,-106.94"/>
<polygon fill="#63b8ff" stroke="#63b8ff" points="306.03,-110.33 314.9,-104.54 304.36,-103.53 306.03,-110.33"/>
</a>
</g>
</g>
<!-- Node3&#45;&gt;Node4 -->
<g id="edge3_Node000003_Node000004" class="edge">
<title>Node3&#45;&gt;Node4</title>
<g id="a_edge3_Node000003_Node000004"><a xlink:title=" ">
<path fill="none" stroke="#63b8ff" d="M431.01,-82.81C439.32,-81.68 448.01,-80.51 456.68,-79.34"/>
<polygon fill="#63b8ff" stroke="#63b8ff" points="457.39,-82.78 466.83,-77.97 456.45,-75.84 457.39,-82.78"/>
</a>
</g>
</g>
</g>
</svg>
