<?xml version="1.0" encoding="UTF-8" standalone="no"?>
<!DOCTYPE svg PUBLIC "-//W3C//DTD SVG 1.1//EN"
 "http://www.w3.org/Graphics/SVG/1.1/DTD/svg11.dtd">
<!-- Generated by graphviz version 2.43.0 (0)
 -->
<!-- Title: m_check_patches::s_check_spherical_harmonic_patch_geometry Pages: 1 -->
<svg width="515pt" height="124pt"
 viewBox="0.00 0.00 515.00 123.50" xmlns="http://www.w3.org/2000/svg" xmlns:xlink="http://www.w3.org/1999/xlink">
<g id="graph0" class="graph" transform="scale(1 1) rotate(0) translate(4 119.5)">
<title>m_check_patches::s_check_spherical_harmonic_patch_geometry</title>
<!-- Node1 -->
<g id="Node000001" class="node">
<title>Node1</title>
<g id="a_Node000001"><a xlink:title="This subroutine checks the model patch input.">
<polygon fill="#999999" stroke="#666666" points="151,-73 0,-73 0,-32 151,-32 151,-73"/>
<text text-anchor="start" x="8" y="-61" font-family="Helvetica,sans-Serif" font-size="10.00">m_check_patches::s</text>
<text text-anchor="start" x="8" y="-50" font-family="Helvetica,sans-Serif" font-size="10.00">_check_spherical_harmonic</text>
<text text-anchor="middle" x="75.5" y="-39" font-family="Helvetica,sans-Serif" font-size="10.00">_patch_geometry</text>
</a>
</g>
</g>
<!-- Node2 -->
<g id="Node000002" class="node">
<title>Node2</title>
<g id="a_Node000002"><a xlink:href="namespacem__helper__basic.html#a369aba14f5888ee29e17199525655efe" target="_top" xlink:title="This procedure checks if the point numbers of wp belongs to another array are within tolerance.">
<polygon fill="white" stroke="#666666" points="329,-115.5 187,-115.5 187,-85.5 329,-85.5 329,-115.5"/>
<text text-anchor="start" x="195" y="-103.5" font-family="Helvetica,sans-Serif" font-size="10.00">m_helper_basic::f_approx</text>
<text text-anchor="middle" x="258" y="-92.5" font-family="Helvetica,sans-Serif" font-size="10.00">_in_array</text>
</a>
</g>
</g>
<!-- Node1&#45;&gt;Node2 -->
<g id="edge1_Node000001_Node000002" class="edge">
<title>Node1&#45;&gt;Node2</title>
<g id="a_edge1_Node000001_Node000002"><a xlink:title=" ">
<path fill="none" stroke="#63b8ff" d="M151.22,-72.37C164.36,-75.86 177.95,-79.48 190.83,-82.9"/>
<polygon fill="#63b8ff" stroke="#63b8ff" points="189.97,-86.3 200.53,-85.48 191.77,-79.53 189.97,-86.3"/>
</a>
</g>
</g>
<!-- Node4 -->
<g id="Node000004" class="node">
<title>Node4</title>
<g id="a_Node000004"><a xlink:href="namespacem__helper__basic.html#a345e205ced0b0674a22f59a2c1549eb4" target="_top" xlink:title="Checks if a real(wp) variable is of default value.">
<polygon fill="white" stroke="#666666" points="316,-67.5 200,-67.5 200,-37.5 316,-37.5 316,-67.5"/>
<text text-anchor="start" x="208" y="-55.5" font-family="Helvetica,sans-Serif" font-size="10.00">m_helper_basic::f_is</text>
<text text-anchor="middle" x="258" y="-44.5" font-family="Helvetica,sans-Serif" font-size="10.00">_default</text>
</a>
</g>
</g>
<!-- Node1&#45;&gt;Node4 -->
<g id="edge3_Node000001_Node000004" class="edge">
<title>Node1&#45;&gt;Node4</title>
<g id="a_edge3_Node000001_Node000004"><a xlink:title=" ">
<path fill="none" stroke="#63b8ff" d="M151.22,-52.5C163.95,-52.5 177.1,-52.5 189.63,-52.5"/>
<polygon fill="#63b8ff" stroke="#63b8ff" points="189.98,-56 199.98,-52.5 189.98,-49 189.98,-56"/>
</a>
</g>
</g>
<!-- Node5 -->
<g id="Node000005" class="node">
<title>Node5</title>
<g id="a_Node000005"><a xlink:href="namespacem__helper.html#a6b74248bdd19bc6b0b43f757a3212275" target="_top" xlink:title=" ">
<polygon fill="white" stroke="#666666" points="320.5,-19 195.5,-19 195.5,0 320.5,0 320.5,-19"/>
<text text-anchor="middle" x="258" y="-7" font-family="Helvetica,sans-Serif" font-size="10.00">m_helper::s_int_to_str</text>
</a>
</g>
</g>
<!-- Node1&#45;&gt;Node5 -->
<g id="edge5_Node000001_Node000005" class="edge">
<title>Node1&#45;&gt;Node5</title>
<g id="a_edge5_Node000001_Node000005"><a xlink:title=" ">
<path fill="none" stroke="#63b8ff" d="M151.22,-34.7C170.03,-30.22 189.77,-25.52 207.03,-21.4"/>
<polygon fill="#63b8ff" stroke="#63b8ff" points="207.97,-24.78 216.88,-19.06 206.34,-17.97 207.97,-24.78"/>
</a>
</g>
</g>
<!-- Node3 -->
<g id="Node000003" class="node">
<title>Node3</title>
<g id="a_Node000003"><a xlink:href="namespacem__helper__basic.html#a58590a12d49b9b884256a839f2be8610" target="_top" xlink:title="This procedure checks if two floating point numbers of wp are within tolerance.">
<polygon fill="white" stroke="#666666" points="507,-91.5 365,-91.5 365,-61.5 507,-61.5 507,-91.5"/>
<text text-anchor="start" x="373" y="-79.5" font-family="Helvetica,sans-Serif" font-size="10.00">m_helper_basic::f_approx</text>
<text text-anchor="middle" x="436" y="-68.5" font-family="Helvetica,sans-Serif" font-size="10.00">_equal</text>
</a>
</g>
</g>
<!-- Node2&#45;&gt;Node3 -->
<g id="edge2_Node000002_Node000003" class="edge">
<title>Node2&#45;&gt;Node3</title>
<g id="a_edge2_Node000002_Node000003"><a xlink:title=" ">
<path fill="none" stroke="#63b8ff" d="M329.07,-90.95C337.54,-89.79 346.25,-88.6 354.85,-87.43"/>
<polygon fill="#63b8ff" stroke="#63b8ff" points="355.45,-90.88 364.89,-86.06 354.51,-83.94 355.45,-90.88"/>
</a>
</g>
</g>
<!-- Node4&#45;&gt;Node3 -->
<g id="edge4_Node000004_Node000003" class="edge">
<title>Node4&#45;&gt;Node3</title>
<g id="a_edge4_Node000004_Node000003"><a xlink:title=" ">
<path fill="none" stroke="#63b8ff" d="M316.14,-60.29C328.54,-61.98 341.87,-63.8 354.97,-65.59"/>
<polygon fill="#63b8ff" stroke="#63b8ff" points="354.54,-69.06 364.92,-66.94 355.48,-62.12 354.54,-69.06"/>
</a>
</g>
</g>
</g>
</svg>
