<?xml version="1.0" encoding="UTF-8" standalone="no"?>
<!DOCTYPE svg PUBLIC "-//W3C//DTD SVG 1.1//EN"
 "http://www.w3.org/Graphics/SVG/1.1/DTD/svg11.dtd">
<!-- Generated by graphviz version 2.43.0 (0)
 -->
<!-- Title: m_check_patches::s_check_2d_taylorgreen_vortex_patch_geometry Pages: 1 -->
<svg width="485pt" height="76pt"
 viewBox="0.00 0.00 485.00 75.50" xmlns="http://www.w3.org/2000/svg" xmlns:xlink="http://www.w3.org/1999/xlink">
<g id="graph0" class="graph" transform="scale(1 1) rotate(0) translate(4 71.5)">
<title>m_check_patches::s_check_2d_taylorgreen_vortex_patch_geometry</title>
<!-- Node1 -->
<g id="Node000001" class="node">
<title>Node1</title>
<g id="a_Node000001"><a xlink:title="This subroutine checks the model patch input.">
<polygon fill="#999999" stroke="#666666" points="138,-51 0,-51 0,-10 138,-10 138,-51"/>
<text text-anchor="start" x="8" y="-39" font-family="Helvetica,sans-Serif" font-size="10.00">m_check_patches::s</text>
<text text-anchor="start" x="8" y="-28" font-family="Helvetica,sans-Serif" font-size="10.00">_check_2d_taylorgreen</text>
<text text-anchor="middle" x="69" y="-17" font-family="Helvetica,sans-Serif" font-size="10.00">_vortex_patch_geometry</text>
</a>
</g>
</g>
<!-- Node2 -->
<g id="Node000002" class="node">
<title>Node2</title>
<g id="a_Node000002"><a xlink:href="namespacem__helper__basic.html#af1b06a05daa43f724ac3b0ff2f97db14" target="_top" xlink:title="Checks if a real(wp) variable is of default value.">
<polygon fill="white" stroke="#666666" points="294.5,-67.5 178.5,-67.5 178.5,-37.5 294.5,-37.5 294.5,-67.5"/>
<text text-anchor="start" x="186.5" y="-55.5" font-family="Helvetica,sans-Serif" font-size="10.00">m_helper_basic::f_is</text>
<text text-anchor="middle" x="236.5" y="-44.5" font-family="Helvetica,sans-Serif" font-size="10.00">_default</text>
</a>
</g>
</g>
<!-- Node1&#45;&gt;Node2 -->
<g id="edge1_Node000001_Node000002" class="edge">
<title>Node1&#45;&gt;Node2</title>
<g id="a_edge1_Node000001_Node000002"><a xlink:title=" ">
<path fill="none" stroke="#63b8ff" d="M138.27,-39.58C148.18,-40.89 158.38,-42.25 168.27,-43.56"/>
<polygon fill="#63b8ff" stroke="#63b8ff" points="168.07,-47.07 178.45,-44.92 168.99,-40.13 168.07,-47.07"/>
</a>
</g>
</g>
<!-- Node4 -->
<g id="Node000004" class="node">
<title>Node4</title>
<g id="a_Node000004"><a xlink:href="namespacem__helper.html#afd343d70a36c65cb7be86a183aa594ac" target="_top" xlink:title=" ">
<polygon fill="white" stroke="#666666" points="299,-19 174,-19 174,0 299,0 299,-19"/>
<text text-anchor="middle" x="236.5" y="-7" font-family="Helvetica,sans-Serif" font-size="10.00">m_helper::s_int_to_str</text>
</a>
</g>
</g>
<!-- Node1&#45;&gt;Node4 -->
<g id="edge3_Node000001_Node000004" class="edge">
<title>Node1&#45;&gt;Node4</title>
<g id="a_edge3_Node000001_Node000004"><a xlink:title=" ">
<path fill="none" stroke="#63b8ff" d="M138.27,-21.84C146.63,-20.78 155.19,-19.69 163.59,-18.62"/>
<polygon fill="#63b8ff" stroke="#63b8ff" points="164.27,-22.07 173.75,-17.34 163.39,-15.12 164.27,-22.07"/>
</a>
</g>
</g>
<!-- Node3 -->
<g id="Node000003" class="node">
<title>Node3</title>
<g id="a_Node000003"><a xlink:href="namespacem__helper__basic.html#a3f0eae73a833f30924d4b2665a13a429" target="_top" xlink:title="This procedure checks if two floating point numbers of wp are within tolerance.">
<polygon fill="white" stroke="#666666" points="477,-67.5 335,-67.5 335,-37.5 477,-37.5 477,-67.5"/>
<text text-anchor="start" x="343" y="-55.5" font-family="Helvetica,sans-Serif" font-size="10.00">m_helper_basic::f_approx</text>
<text text-anchor="middle" x="406" y="-44.5" font-family="Helvetica,sans-Serif" font-size="10.00">_equal</text>
</a>
</g>
</g>
<!-- Node2&#45;&gt;Node3 -->
<g id="edge2_Node000002_Node000003" class="edge">
<title>Node2&#45;&gt;Node3</title>
<g id="a_edge2_Node000002_Node000003"><a xlink:title=" ">
<path fill="none" stroke="#63b8ff" d="M294.68,-52.5C304.34,-52.5 314.54,-52.5 324.66,-52.5"/>
<polygon fill="#63b8ff" stroke="#63b8ff" points="324.75,-56 334.75,-52.5 324.75,-49 324.75,-56"/>
</a>
</g>
</g>
</g>
</svg>
