<?xml version="1.0" encoding="UTF-8" standalone="no"?>
<!DOCTYPE svg PUBLIC "-//W3C//DTD SVG 1.1//EN"
 "http://www.w3.org/Graphics/SVG/1.1/DTD/svg11.dtd">
<!-- Generated by graphviz version 2.43.0 (0)
 -->
<!-- Title: m_helper_basic::s_update_cell_bounds Pages: 1 -->
<svg width="584pt" height="98pt"
 viewBox="0.00 0.00 584.00 97.50" xmlns="http://www.w3.org/2000/svg" xmlns:xlink="http://www.w3.org/1999/xlink">
<g id="graph0" class="graph" transform="scale(1 1) rotate(0) translate(4 93.5)">
<title>m_helper_basic::s_update_cell_bounds</title>
<!-- Node1 -->
<g id="Node000001" class="node">
<title>Node1</title>
<g id="a_Node000001"><a xlink:title="Updates the min and max number of cells in each set of axes.">
<polygon fill="#999999" stroke="#666666" points="576,-57 433,-57 433,-27 576,-27 576,-57"/>
<text text-anchor="start" x="441" y="-45" font-family="Helvetica,sans-Serif" font-size="10.00">m_helper_basic::s_update</text>
<text text-anchor="middle" x="504.5" y="-34" font-family="Helvetica,sans-Serif" font-size="10.00">_cell_bounds</text>
</a>
</g>
</g>
<!-- Node2 -->
<g id="Node000002" class="node">
<title>Node2</title>
<g id="a_Node000002"><a xlink:href="namespacem__global__parameters.html#a15979aa7789736321146104abdb129ea" target="_top" xlink:title="Assigns default values to user inputs prior to reading them in. This allows for an easier consistency...">
<polygon fill="white" stroke="#666666" points="397,-89.5 255,-89.5 255,-48.5 397,-48.5 397,-89.5"/>
<text text-anchor="start" x="263" y="-77.5" font-family="Helvetica,sans-Serif" font-size="10.00">m_global_parameters</text>
<text text-anchor="start" x="263" y="-66.5" font-family="Helvetica,sans-Serif" font-size="10.00">::s_assign_default_values</text>
<text text-anchor="middle" x="326" y="-55.5" font-family="Helvetica,sans-Serif" font-size="10.00">_to_user_inputs</text>
</a>
</g>
</g>
<!-- Node1&#45;&gt;Node2 -->
<g id="edge1_Node000001_Node000002" class="edge">
<title>Node1&#45;&gt;Node2</title>
<g id="a_edge1_Node000001_Node000002"><a xlink:title=" ">
<path fill="none" stroke="#63b8ff" d="M422.93,-54.32C414.31,-55.64 405.6,-56.98 397.12,-58.27"/>
<polygon fill="#63b8ff" stroke="#63b8ff" points="423.63,-57.76 432.98,-52.79 422.57,-50.84 423.63,-57.76"/>
</a>
</g>
</g>
<!-- Node5 -->
<g id="Node000005" class="node">
<title>Node5</title>
<g id="a_Node000005"><a xlink:href="namespacem__start__up.html#aca5460fc186e7b82ea78484ae98c74a4" target="_top" xlink:title="Reads the configuration file pre_process.inp, in order to populate the parameters in module m_global_...">
<polygon fill="white" stroke="#666666" points="381,-30 271,-30 271,0 381,0 381,-30"/>
<text text-anchor="start" x="279" y="-18" font-family="Helvetica,sans-Serif" font-size="10.00">m_start_up::s_read</text>
<text text-anchor="middle" x="326" y="-7" font-family="Helvetica,sans-Serif" font-size="10.00">_input_file</text>
</a>
</g>
</g>
<!-- Node1&#45;&gt;Node5 -->
<g id="edge4_Node000001_Node000005" class="edge">
<title>Node1&#45;&gt;Node5</title>
<g id="a_edge4_Node000001_Node000005"><a xlink:title=" ">
<path fill="none" stroke="#63b8ff" d="M422.77,-29.65C408.65,-27.49 394.27,-25.29 381.09,-23.27"/>
<polygon fill="#63b8ff" stroke="#63b8ff" points="422.57,-33.16 432.98,-31.21 423.63,-26.24 422.57,-33.16"/>
</a>
</g>
</g>
<!-- Node3 -->
<g id="Node000003" class="node">
<title>Node3</title>
<g id="a_Node000003"><a xlink:href="namespacem__start__up.html#ab64542f13c680e17ce8879c77c65c0e0" target="_top" xlink:title=" ">
<polygon fill="white" stroke="#666666" points="219,-57 89,-57 89,-27 219,-27 219,-57"/>
<text text-anchor="start" x="97" y="-45" font-family="Helvetica,sans-Serif" font-size="10.00">m_start_up::s_initialize</text>
<text text-anchor="middle" x="154" y="-34" font-family="Helvetica,sans-Serif" font-size="10.00">_mpi_domain</text>
</a>
</g>
</g>
<!-- Node2&#45;&gt;Node3 -->
<g id="edge2_Node000002_Node000003" class="edge">
<title>Node2&#45;&gt;Node3</title>
<g id="a_edge2_Node000002_Node000003"><a xlink:title=" ">
<path fill="none" stroke="#63b8ff" d="M244.85,-56.27C236.26,-54.91 227.61,-53.53 219.24,-52.2"/>
<polygon fill="#63b8ff" stroke="#63b8ff" points="244.45,-59.75 254.87,-57.86 245.55,-52.84 244.45,-59.75"/>
</a>
</g>
</g>
<!-- Node4 -->
<g id="Node000004" class="node">
<title>Node4</title>
<g id="a_Node000004"><a xlink:href="p__main_8f90.html#aeec10ee8e2940c953967da3e374e1579" target="_top" xlink:title="This program takes care of setting up the initial condition and grid data for the multicomponent flow...">
<polygon fill="white" stroke="#666666" points="53,-51.5 0,-51.5 0,-32.5 53,-32.5 53,-51.5"/>
<text text-anchor="middle" x="26.5" y="-39.5" font-family="Helvetica,sans-Serif" font-size="10.00">p_main</text>
</a>
</g>
</g>
<!-- Node3&#45;&gt;Node4 -->
<g id="edge3_Node000003_Node000004" class="edge">
<title>Node3&#45;&gt;Node4</title>
<g id="a_edge3_Node000003_Node000004"><a xlink:title=" ">
<path fill="none" stroke="#63b8ff" d="M78.74,-42C69.58,-42 60.76,-42 53.09,-42"/>
<polygon fill="#63b8ff" stroke="#63b8ff" points="78.78,-45.5 88.78,-42 78.78,-38.5 78.78,-45.5"/>
</a>
</g>
</g>
<!-- Node5&#45;&gt;Node3 -->
<g id="edge5_Node000005_Node000003" class="edge">
<title>Node5&#45;&gt;Node3</title>
<g id="a_edge5_Node000005_Node000003"><a xlink:title=" ">
<path fill="none" stroke="#63b8ff" d="M260.54,-25.24C246.98,-27.39 232.68,-29.66 219.13,-31.82"/>
<polygon fill="#63b8ff" stroke="#63b8ff" points="261.42,-28.64 270.74,-23.62 260.32,-21.73 261.42,-28.64"/>
</a>
</g>
</g>
</g>
</svg>
