<?xml version="1.0" encoding="UTF-8" standalone="no"?>
<!DOCTYPE svg PUBLIC "-//W3C//DTD SVG 1.1//EN"
 "http://www.w3.org/Graphics/SVG/1.1/DTD/svg11.dtd">
<!-- Generated by graphviz version 2.43.0 (0)
 -->
<!-- Title: m_icpp_patches::s_convert_cylindrical_to_cartesian_coord Pages: 1 -->
<!--zoomable 278 -->

<svg id="main" version="1.1" xmlns="http://www.w3.org/2000/svg" xmlns:xlink="http://www.w3.org/1999/xlink" xml:space="preserve" onload="init(evt)">

<style type="text/css"><![CDATA[
.node, .edge {opacity: 0.7;}
.node.selected, .edge.selected {opacity: 1;}
.edge:hover path { stroke: red; }
.edge:hover polygon { stroke: red; fill: red; }
]]></style>

<defs>
  <circle id="rim" cx="0" cy="0" r="7"/>
  <circle id="rim2" cx="0" cy="0" r="3.5"/>
  <g id="zoomPlus">
    <use xlink:href="#rim" fill="#404040"><set attributeName="fill" to="#808080" begin="zoomplus.mouseover" end="zoomplus.mouseout"/></use>
    <path d="M-4,0h8M0,-4v8" fill="none" stroke="white" stroke-width="1.5" pointer-events="none"/>
  </g>
  <g id="zoomMin">
    <use xlink:href="#rim" fill="#404040"><set attributeName="fill" to="#808080" begin="zoomminus.mouseover" end="zoomminus.mouseout"/></use>
    <path d="M-4,0h8" fill="none" stroke="white" stroke-width="1.5" pointer-events="none"/>
  </g>
  <g id="arrowUp" transform="translate(30 24)">
    <use xlink:href="#rim"/>
    <path pointer-events="none" fill="none" stroke="white" stroke-width="1.5" d="M0,-3.0v7 M-2.5,-0.5L0,-3.0L2.5,-0.5"/>
  </g>
  <g id="arrowRight" transform="rotate(90) translate(36 -43)">
    <use xlink:href="#rim"/>
    <path pointer-events="none" fill="none" stroke="white" stroke-width="1.5" d="M0,-3.0v7 M-2.5,-0.5L0,-3.0L2.5,-0.5"/>
  </g>
  <g id="arrowDown" transform="rotate(180) translate(-30 -48)">
    <use xlink:href="#rim"/>
    <path pointer-events="none" fill="none" stroke="white" stroke-width="1.5" d="M0,-3.0v7 M-2.5,-0.5L0,-3.0L2.5,-0.5"/>
  </g>
  <g id="arrowLeft" transform="rotate(270) translate(-36 17)">
    <use xlink:href="#rim"/>
    <path pointer-events="none" fill="none" stroke="white" stroke-width="1.5" d="M0,-3.0v7 M-2.5,-0.5L0,-3.0L2.5,-0.5"/>
  </g>
  <g id="resetDef">
    <use xlink:href="#rim2" fill="#404040"><set attributeName="fill" to="#808080" begin="reset.mouseover" end="reset.mouseout"/></use>
  </g>
</defs>
<script type="application/ecmascript">
var viewWidth = 907;
var viewHeight = 278;
var sectionId = 'dynsection-5';
</script>
<script type="application/ecmascript" xlink:href="svg.min.js"/>
<svg id="graph" class="graph">
<g id="viewport">
<title>m_icpp_patches::s_convert_cylindrical_to_cartesian_coord</title>
<!-- Node1 -->
<g id="Node000001" class="node">
<title>Node1</title>
<g id="a_Node000001"><a xlink:title=" ">
<polygon fill="#999999" stroke="#666666" points="899,-150 729,-150 729,-120 899,-120 899,-150"/>
<text text-anchor="start" x="737" y="-138" font-family="Helvetica,sans-Serif" font-size="10.00">m_icpp_patches::s_convert</text>
<text text-anchor="middle" x="814" y="-127" font-family="Helvetica,sans-Serif" font-size="10.00">_cylindrical_to_cartesian_coord</text>
</a>
</g>
</g>
<!-- Node2 -->
<g id="Node000002" class="node">
<title>Node2</title>
<g id="a_Node000002"><a xlink:href="namespacem__icpp__patches.html#a1bb54e3c82001cdc6943aa5d8bce7f7d" target="_top" xlink:title="The cuboidal patch is a 3D geometry that may be used, for example, in creating a solid boundary,...">
<polygon fill="white" stroke="#666666" points="693,-270 561,-270 561,-240 693,-240 693,-270"/>
<text text-anchor="start" x="569" y="-258" font-family="Helvetica,sans-Serif" font-size="10.00">m_icpp_patches::s_icpp</text>
<text text-anchor="middle" x="627" y="-247" font-family="Helvetica,sans-Serif" font-size="10.00">_cuboid</text>
</a>
</g>
</g>
<!-- Node1&#45;&gt;Node2 -->
<g id="edge1_Node000001_Node000002" class="edge">
<title>Node1&#45;&gt;Node2</title>
<g id="a_edge1_Node000001_Node000002"><a xlink:title=" ">
<path fill="none" stroke="#63b8ff" d="M789.99,-157.18C766.97,-178.42 729.78,-210.22 693,-231 687.24,-234.25 680.95,-237.22 674.63,-239.87"/>
<polygon fill="#63b8ff" stroke="#63b8ff" points="792.6,-159.53 797.52,-150.15 787.82,-154.42 792.6,-159.53"/>
</a>
</g>
</g>
<!-- Node7 -->
<g id="Node000007" class="node">
<title>Node7</title>
<g id="a_Node000007"><a xlink:href="namespacem__icpp__patches.html#af1e99b6704fe65498ce665fdf36a834a" target="_top" xlink:title="The cylindrical patch is a 3D geometry that may be used, for example, in setting up a cylindrical sol...">
<polygon fill="white" stroke="#666666" points="693,-222 561,-222 561,-192 693,-192 693,-222"/>
<text text-anchor="start" x="569" y="-210" font-family="Helvetica,sans-Serif" font-size="10.00">m_icpp_patches::s_icpp</text>
<text text-anchor="middle" x="627" y="-199" font-family="Helvetica,sans-Serif" font-size="10.00">_cylinder</text>
</a>
</g>
</g>
<!-- Node1&#45;&gt;Node7 -->
<g id="edge6_Node000001_Node000007" class="edge">
<title>Node1&#45;&gt;Node7</title>
<g id="a_edge6_Node000001_Node000007"><a xlink:title=" ">
<path fill="none" stroke="#63b8ff" d="M766.55,-153.92C744.35,-162.87 717.35,-173.63 693,-183 685.37,-185.94 677.2,-189.01 669.33,-191.93"/>
<polygon fill="#63b8ff" stroke="#63b8ff" points="768.11,-157.06 776.07,-150.07 765.49,-150.57 768.11,-157.06"/>
</a>
</g>
</g>
<!-- Node8 -->
<g id="Node000008" class="node">
<title>Node8</title>
<g id="a_Node000008"><a xlink:href="namespacem__icpp__patches.html#aef854f1f7799c14bee24208ac0d4df61" target="_top" xlink:title="The ellipsoidal patch is a 3D geometry. The geometry of the patch is well&#45;defined when its centroid a...">
<polygon fill="white" stroke="#666666" points="693,-174 561,-174 561,-144 693,-144 693,-174"/>
<text text-anchor="start" x="569" y="-162" font-family="Helvetica,sans-Serif" font-size="10.00">m_icpp_patches::s_icpp</text>
<text text-anchor="middle" x="627" y="-151" font-family="Helvetica,sans-Serif" font-size="10.00">_ellipsoid</text>
</a>
</g>
</g>
<!-- Node1&#45;&gt;Node8 -->
<g id="edge8_Node000001_Node000008" class="edge">
<title>Node1&#45;&gt;Node8</title>
<g id="a_edge8_Node000001_Node000008"><a xlink:title=" ">
<path fill="none" stroke="#63b8ff" d="M718.72,-147.23C710.04,-148.36 701.39,-149.48 693.06,-150.56"/>
<polygon fill="#63b8ff" stroke="#63b8ff" points="719.42,-150.67 728.89,-145.91 718.52,-143.73 719.42,-150.67"/>
</a>
</g>
</g>
<!-- Node9 -->
<g id="Node000009" class="node">
<title>Node9</title>
<g id="a_Node000009"><a xlink:href="namespacem__icpp__patches.html#a982126e272a8b93c8e82c92e86939916" target="_top" xlink:title="The spherical patch is a 3D geometry that may be used, for example, in creating a bubble or a droplet...">
<polygon fill="white" stroke="#666666" points="693,-126 561,-126 561,-96 693,-96 693,-126"/>
<text text-anchor="start" x="569" y="-114" font-family="Helvetica,sans-Serif" font-size="10.00">m_icpp_patches::s_icpp</text>
<text text-anchor="middle" x="627" y="-103" font-family="Helvetica,sans-Serif" font-size="10.00">_sphere</text>
</a>
</g>
</g>
<!-- Node1&#45;&gt;Node9 -->
<g id="edge10_Node000001_Node000009" class="edge">
<title>Node1&#45;&gt;Node9</title>
<g id="a_edge10_Node000001_Node000009"><a xlink:title=" ">
<path fill="none" stroke="#63b8ff" d="M718.72,-122.77C710.04,-121.64 701.39,-120.52 693.06,-119.44"/>
<polygon fill="#63b8ff" stroke="#63b8ff" points="718.52,-126.27 728.89,-124.09 719.42,-119.33 718.52,-126.27"/>
</a>
</g>
</g>
<!-- Node10 -->
<g id="Node000010" class="node">
<title>Node10</title>
<g id="a_Node000010"><a xlink:href="namespacem__icpp__patches.html#aee2500756fcdad2edd2f49936944ab90" target="_top" xlink:title="This patch generates the shape of the spherical harmonics as a perturbation to a perfect sphere.">
<polygon fill="white" stroke="#666666" points="693,-78 561,-78 561,-48 693,-48 693,-78"/>
<text text-anchor="start" x="569" y="-66" font-family="Helvetica,sans-Serif" font-size="10.00">m_icpp_patches::s_icpp</text>
<text text-anchor="middle" x="627" y="-55" font-family="Helvetica,sans-Serif" font-size="10.00">_spherical_harmonic</text>
</a>
</g>
</g>
<!-- Node1&#45;&gt;Node10 -->
<g id="edge12_Node000001_Node000010" class="edge">
<title>Node1&#45;&gt;Node10</title>
<g id="a_edge12_Node000001_Node000010"><a xlink:title=" ">
<path fill="none" stroke="#63b8ff" d="M766.55,-116.08C744.35,-107.13 717.35,-96.37 693,-87 685.37,-84.06 677.2,-80.99 669.33,-78.07"/>
<polygon fill="#63b8ff" stroke="#63b8ff" points="765.49,-119.43 776.07,-119.93 768.11,-112.94 765.49,-119.43"/>
</a>
</g>
</g>
<!-- Node11 -->
<g id="Node000011" class="node">
<title>Node11</title>
<g id="a_Node000011"><a xlink:href="namespacem__icpp__patches.html#a498a6ea03b8e45c0ae423471a3eecd93" target="_top" xlink:title="The swept plane patch is a 3D geometry that may be used, for example, in creating a solid boundary,...">
<polygon fill="white" stroke="#666666" points="693,-30 561,-30 561,0 693,0 693,-30"/>
<text text-anchor="start" x="569" y="-18" font-family="Helvetica,sans-Serif" font-size="10.00">m_icpp_patches::s_icpp</text>
<text text-anchor="middle" x="627" y="-7" font-family="Helvetica,sans-Serif" font-size="10.00">_sweep_plane</text>
</a>
</g>
</g>
<!-- Node1&#45;&gt;Node11 -->
<g id="edge14_Node000001_Node000011" class="edge">
<title>Node1&#45;&gt;Node11</title>
<g id="a_edge14_Node000001_Node000011"><a xlink:title=" ">
<path fill="none" stroke="#63b8ff" d="M789.99,-112.82C766.97,-91.58 729.78,-59.78 693,-39 687.24,-35.75 680.95,-32.78 674.63,-30.13"/>
<polygon fill="#63b8ff" stroke="#63b8ff" points="787.82,-115.58 797.52,-119.85 792.6,-110.47 787.82,-115.58"/>
</a>
</g>
</g>
<!-- Node3 -->
<g id="Node000003" class="node">
<title>Node3</title>
<g id="a_Node000003"><a xlink:href="namespacem__icpp__patches.html#a82d33950641130d1348d1d3a2eb72c3f" target="_top" xlink:title=" ">
<polygon fill="white" stroke="#666666" points="525,-150 386,-150 386,-120 525,-120 525,-150"/>
<text text-anchor="start" x="394" y="-138" font-family="Helvetica,sans-Serif" font-size="10.00">m_icpp_patches::s_apply</text>
<text text-anchor="middle" x="455.5" y="-127" font-family="Helvetica,sans-Serif" font-size="10.00">_icpp_patches</text>
</a>
</g>
</g>
<!-- Node2&#45;&gt;Node3 -->
<g id="edge2_Node000002_Node000003" class="edge">
<title>Node2&#45;&gt;Node3</title>
<g id="a_edge2_Node000002_Node000003"><a xlink:title=" ">
<path fill="none" stroke="#63b8ff" d="M569.23,-235.59C566.4,-234.14 563.64,-232.61 561,-231 523.79,-208.27 488.08,-171.08 469.58,-150.29"/>
<polygon fill="#63b8ff" stroke="#63b8ff" points="567.93,-238.84 578.47,-239.93 570.91,-232.51 567.93,-238.84"/>
</a>
</g>
</g>
<!-- Node4 -->
<g id="Node000004" class="node">
<title>Node4</title>
<g id="a_Node000004"><a xlink:href="namespacem__initial__condition.html#ae5ca036f43a2eebe1e2cc84fc9c61d28" target="_top" xlink:title="This subroutine peruses the patches and depending on the type of geometry associated with a particula...">
<polygon fill="white" stroke="#666666" points="350,-155.5 240,-155.5 240,-114.5 350,-114.5 350,-155.5"/>
<text text-anchor="start" x="248" y="-143.5" font-family="Helvetica,sans-Serif" font-size="10.00">m_initial_condition</text>
<text text-anchor="start" x="248" y="-132.5" font-family="Helvetica,sans-Serif" font-size="10.00">::s_generate_initial</text>
<text text-anchor="middle" x="295" y="-121.5" font-family="Helvetica,sans-Serif" font-size="10.00">_condition</text>
</a>
</g>
</g>
<!-- Node3&#45;&gt;Node4 -->
<g id="edge3_Node000003_Node000004" class="edge">
<title>Node3&#45;&gt;Node4</title>
<g id="a_edge3_Node000003_Node000004"><a xlink:title=" ">
<path fill="none" stroke="#63b8ff" d="M375.82,-135C367.22,-135 358.6,-135 350.38,-135"/>
<polygon fill="#63b8ff" stroke="#63b8ff" points="375.9,-138.5 385.9,-135 375.9,-131.5 375.9,-138.5"/>
</a>
</g>
</g>
<!-- Node5 -->
<g id="Node000005" class="node">
<title>Node5</title>
<g id="a_Node000005"><a xlink:href="namespacem__start__up.html#a513ef24d6c8beafb8b94c015db266100" target="_top" xlink:title=" ">
<polygon fill="white" stroke="#666666" points="204,-150 89,-150 89,-120 204,-120 204,-150"/>
<text text-anchor="start" x="97" y="-138" font-family="Helvetica,sans-Serif" font-size="10.00">m_start_up::s_apply</text>
<text text-anchor="middle" x="146.5" y="-127" font-family="Helvetica,sans-Serif" font-size="10.00">_initial_condition</text>
</a>
</g>
</g>
<!-- Node4&#45;&gt;Node5 -->
<g id="edge4_Node000004_Node000005" class="edge">
<title>Node4&#45;&gt;Node5</title>
<g id="a_edge4_Node000004_Node000005"><a xlink:title=" ">
<path fill="none" stroke="#63b8ff" d="M229.69,-135C221.25,-135 212.66,-135 204.36,-135"/>
<polygon fill="#63b8ff" stroke="#63b8ff" points="229.87,-138.5 239.87,-135 229.87,-131.5 229.87,-138.5"/>
</a>
</g>
</g>
<!-- Node6 -->
<g id="Node000006" class="node">
<title>Node6</title>
<g id="a_Node000006"><a xlink:href="p__main_8f90.html#aeec10ee8e2940c953967da3e374e1579" target="_top" xlink:title="This program takes care of setting up the initial condition and grid data for the multicomponent flow...">
<polygon fill="white" stroke="#666666" points="53,-144.5 0,-144.5 0,-125.5 53,-125.5 53,-144.5"/>
<text text-anchor="middle" x="26.5" y="-132.5" font-family="Helvetica,sans-Serif" font-size="10.00">p_main</text>
</a>
</g>
</g>
<!-- Node5&#45;&gt;Node6 -->
<g id="edge5_Node000005_Node000006" class="edge">
<title>Node5&#45;&gt;Node6</title>
<g id="a_edge5_Node000005_Node000006"><a xlink:title=" ">
<path fill="none" stroke="#63b8ff" d="M78.65,-135C69.6,-135 60.81,-135 53.13,-135"/>
<polygon fill="#63b8ff" stroke="#63b8ff" points="78.92,-138.5 88.92,-135 78.92,-131.5 78.92,-138.5"/>
</a>
</g>
</g>
<!-- Node7&#45;&gt;Node3 -->
<g id="edge7_Node000007_Node000003" class="edge">
<title>Node7&#45;&gt;Node3</title>
<g id="a_edge7_Node000007_Node000003"><a xlink:title=" ">
<path fill="none" stroke="#63b8ff" d="M574.48,-188.39C569.9,-186.61 565.36,-184.8 561,-183 536.09,-172.7 508.4,-159.91 487.78,-150.13"/>
<polygon fill="#63b8ff" stroke="#63b8ff" points="573.27,-191.68 583.86,-191.98 575.77,-185.14 573.27,-191.68"/>
</a>
</g>
</g>
<!-- Node8&#45;&gt;Node3 -->
<g id="edge9_Node000008_Node000003" class="edge">
<title>Node8&#45;&gt;Node3</title>
<g id="a_edge9_Node000008_Node000003"><a xlink:title=" ">
<path fill="none" stroke="#63b8ff" d="M550.92,-148.37C542.3,-147.15 533.55,-145.91 525.03,-144.7"/>
<polygon fill="#63b8ff" stroke="#63b8ff" points="550.56,-151.85 560.95,-149.79 551.54,-144.92 550.56,-151.85"/>
</a>
</g>
</g>
<!-- Node9&#45;&gt;Node3 -->
<g id="edge11_Node000009_Node000003" class="edge">
<title>Node9&#45;&gt;Node3</title>
<g id="a_edge11_Node000009_Node000003"><a xlink:title=" ">
<path fill="none" stroke="#63b8ff" d="M550.92,-121.63C542.3,-122.85 533.55,-124.09 525.03,-125.3"/>
<polygon fill="#63b8ff" stroke="#63b8ff" points="551.54,-125.08 560.95,-120.21 550.56,-118.15 551.54,-125.08"/>
</a>
</g>
</g>
<!-- Node10&#45;&gt;Node3 -->
<g id="edge13_Node000010_Node000003" class="edge">
<title>Node10&#45;&gt;Node3</title>
<g id="a_edge13_Node000010_Node000003"><a xlink:title=" ">
<path fill="none" stroke="#63b8ff" d="M574.48,-81.61C569.9,-83.39 565.36,-85.2 561,-87 536.09,-97.3 508.4,-110.09 487.78,-119.87"/>
<polygon fill="#63b8ff" stroke="#63b8ff" points="575.77,-84.86 583.86,-78.02 573.27,-78.32 575.77,-84.86"/>
</a>
</g>
</g>
<!-- Node11&#45;&gt;Node3 -->
<g id="edge15_Node000011_Node000003" class="edge">
<title>Node11&#45;&gt;Node3</title>
<g id="a_edge15_Node000011_Node000003"><a xlink:title=" ">
<path fill="none" stroke="#63b8ff" d="M569.23,-34.41C566.4,-35.86 563.64,-37.39 561,-39 523.79,-61.73 488.08,-98.92 469.58,-119.71"/>
<polygon fill="#63b8ff" stroke="#63b8ff" points="570.91,-37.49 578.47,-30.07 567.93,-31.16 570.91,-37.49"/>
</a>
</g>
</g>
</g>
</svg>

<g id="navigator" transform="translate(0 0)" fill="#404254">
  <rect fill="#f2f5e9" fill-opacity="0.5" stroke="#606060" stroke-width=".5" x="0" y="0" width="60" height="60"/>
  <use id="zoomplus" xlink:href="#zoomPlus" x="17" y="9" onmousedown="handleZoom(evt,'in')"/>
  <use id="zoomminus" xlink:href="#zoomMin" x="42" y="9" onmousedown="handleZoom(evt,'out')"/>
  <use id="reset" xlink:href="#resetDef" x="30" y="36" onmousedown="handleReset()"/>
   <use id="arrowup" xlink:href="#arrowUp" x="0" y="0" onmousedown="handlePan(0,-1)"/>
  <use id="arrowright" xlink:href="#arrowRight" x="0" y="0" onmousedown="handlePan(1,0)"/>
  <use id="arrowdown" xlink:href="#arrowDown" x="0" y="0" onmousedown="handlePan(0,1)"/>
  <use id="arrowleft" xlink:href="#arrowLeft" x="0" y="0" onmousedown="handlePan(-1,0)"/>
</g>
<svg viewBox="0 0 15 15" width="100%" height="30px" preserveAspectRatio="xMaxYMin meet">
 <g id="arrow_out" transform="scale(0.3 0.3)">
  <a xlink:href="namespacem__icpp__patches_acbe8a03d5a5b6d11880bb904f91e9e0b_icgraph_org.svg" target="_base">
   <rect id="button" ry="5" rx="5" y="6" x="6" height="38" width="38"
        fill="#f2f5e9" fill-opacity="0.5" stroke="#606060" stroke-width="1.0"/>
   <path id="arrow"
     d="M 11.500037,31.436501 C 11.940474,20.09759 22.043105,11.32322 32.158766,21.979434 L 37.068811,17.246167 C 37.068811,17.246167 37.088388,32 37.088388,32 L 22.160133,31.978069 C 22.160133,31.978069 26.997745,27.140456 26.997745,27.140456 C 18.528582,18.264221 13.291696,25.230495 11.500037,31.436501 z"
     style="fill:#404040;"/>
  </a>
 </g>
</svg>

<style type='text/css'>
<![CDATA[
[data-mouse-over-selected='false'] { opacity: 0.7; }
[data-mouse-over-selected='true']  { opacity: 1.0; }
]]>
</style>
<script type="application/ecmascript"><![CDATA[
document.addEventListener('DOMContentLoaded', (event) => {
  highlightEdges();
  highlightAdjacentNodes();
});
]]></script>
</svg>
