<?xml version="1.0" encoding="UTF-8" standalone="no"?>
<!DOCTYPE svg PUBLIC "-//W3C//DTD SVG 1.1//EN"
 "http://www.w3.org/Graphics/SVG/1.1/DTD/svg11.dtd">
<!-- Generated by graphviz version 2.43.0 (0)
 -->
<!-- Title: m_boundary_common::s_populate_variables_buffers Pages: 1 -->
<svg width="756pt" height="112pt"
 viewBox="0.00 0.00 756.00 112.24" xmlns="http://www.w3.org/2000/svg" xmlns:xlink="http://www.w3.org/1999/xlink">
<g id="graph0" class="graph" transform="scale(1 1) rotate(0) translate(4 108.24)">
<title>m_boundary_common::s_populate_variables_buffers</title>
<!-- Node1 -->
<g id="Node000001" class="node">
<title>Node1</title>
<g id="a_Node000001"><a xlink:title="The purpose of this procedure is to populate the buffers of the primitive variables,...">
<polygon fill="#999999" stroke="#666666" points="748,-74.24 617,-74.24 617,-33.24 748,-33.24 748,-74.24"/>
<text text-anchor="start" x="625" y="-62.24" font-family="Helvetica,sans-Serif" font-size="10.00">m_boundary_common::</text>
<text text-anchor="start" x="625" y="-51.24" font-family="Helvetica,sans-Serif" font-size="10.00">s_populate_variables</text>
<text text-anchor="middle" x="682.5" y="-40.24" font-family="Helvetica,sans-Serif" font-size="10.00">_buffers</text>
</a>
</g>
</g>
<!-- Node2 -->
<g id="Node000002" class="node">
<title>Node2</title>
<g id="a_Node000002"><a xlink:href="namespacem__perturbation.html#a035378d69a4ac383a84227d47b13cb0b" target="_top" xlink:title=" ">
<polygon fill="white" stroke="#666666" points="581,-95.74 440,-95.74 440,-65.74 581,-65.74 581,-95.74"/>
<text text-anchor="start" x="448" y="-83.74" font-family="Helvetica,sans-Serif" font-size="10.00">m_perturbation::s_elliptic</text>
<text text-anchor="middle" x="510.5" y="-72.74" font-family="Helvetica,sans-Serif" font-size="10.00">_smoothing</text>
</a>
</g>
</g>
<!-- Node1&#45;&gt;Node2 -->
<g id="edge1_Node000001_Node000002" class="edge">
<title>Node1&#45;&gt;Node2</title>
<g id="a_edge1_Node000001_Node000002"><a xlink:title=" ">
<path fill="none" stroke="#63b8ff" d="M606.82,-65.6C598.3,-66.95 589.63,-68.33 581.17,-69.67"/>
<polygon fill="#63b8ff" stroke="#63b8ff" points="607.42,-69.05 616.75,-64.02 606.32,-62.13 607.42,-69.05"/>
</a>
</g>
</g>
<!-- Node6 -->
<g id="Node000006" class="node">
<title>Node6</title>
<g id="a_Node000006"><a xlink:href="namespacem__data__output.html#a5553a586765788ee6dcce99679a82f35" target="_top" xlink:title="Writes grid and initial condition data files in parallel to the &quot;0&quot; time&#45;step directory in the local ...">
<polygon fill="white" stroke="#666666" points="576,-44.74 445,-44.74 445,-14.74 576,-14.74 576,-44.74"/>
<text text-anchor="start" x="453" y="-32.74" font-family="Helvetica,sans-Serif" font-size="10.00">m_data_output::s_write</text>
<text text-anchor="middle" x="510.5" y="-21.74" font-family="Helvetica,sans-Serif" font-size="10.00">_parallel_data_files</text>
</a>
</g>
</g>
<!-- Node1&#45;&gt;Node6 -->
<g id="edge5_Node000001_Node000006" class="edge">
<title>Node1&#45;&gt;Node6</title>
<g id="a_edge5_Node000001_Node000006"><a xlink:title=" ">
<path fill="none" stroke="#63b8ff" d="M606.64,-43.17C596.45,-41.73 586.06,-40.26 576.07,-38.85"/>
<polygon fill="#63b8ff" stroke="#63b8ff" points="606.35,-46.66 616.75,-44.6 607.33,-39.73 606.35,-46.66"/>
</a>
</g>
</g>
<!-- Node3 -->
<g id="Node000003" class="node">
<title>Node3</title>
<g id="a_Node000003"><a xlink:href="namespacem__initial__condition.html#ae5ca036f43a2eebe1e2cc84fc9c61d28" target="_top" xlink:title="This subroutine peruses the patches and depending on the type of geometry associated with a particula...">
<polygon fill="white" stroke="#666666" points="384.5,-104.24 274.5,-104.24 274.5,-63.24 384.5,-63.24 384.5,-104.24"/>
<text text-anchor="start" x="282.5" y="-92.24" font-family="Helvetica,sans-Serif" font-size="10.00">m_initial_condition</text>
<text text-anchor="start" x="282.5" y="-81.24" font-family="Helvetica,sans-Serif" font-size="10.00">::s_generate_initial</text>
<text text-anchor="middle" x="329.5" y="-70.24" font-family="Helvetica,sans-Serif" font-size="10.00">_condition</text>
</a>
</g>
</g>
<!-- Node2&#45;&gt;Node3 -->
<g id="edge2_Node000002_Node000003" class="edge">
<title>Node2&#45;&gt;Node3</title>
<g id="a_edge2_Node000002_Node000003"><a xlink:title=" ">
<path fill="none" stroke="#63b8ff" d="M429.35,-82.08C414.18,-82.34 398.64,-82.6 384.51,-82.83"/>
<polygon fill="#63b8ff" stroke="#63b8ff" points="429.84,-85.57 439.78,-81.91 429.72,-78.57 429.84,-85.57"/>
</a>
</g>
</g>
<!-- Node4 -->
<g id="Node000004" class="node">
<title>Node4</title>
<g id="a_Node000004"><a xlink:href="namespacem__start__up.html#a513ef24d6c8beafb8b94c015db266100" target="_top" xlink:title=" ">
<polygon fill="white" stroke="#666666" points="211.5,-95.74 96.5,-95.74 96.5,-65.74 211.5,-65.74 211.5,-95.74"/>
<text text-anchor="start" x="104.5" y="-83.74" font-family="Helvetica,sans-Serif" font-size="10.00">m_start_up::s_apply</text>
<text text-anchor="middle" x="154" y="-72.74" font-family="Helvetica,sans-Serif" font-size="10.00">_initial_condition</text>
</a>
</g>
</g>
<!-- Node3&#45;&gt;Node4 -->
<g id="edge3_Node000003_Node000004" class="edge">
<title>Node3&#45;&gt;Node4</title>
<g id="a_edge3_Node000003_Node000004"><a xlink:title=" ">
<path fill="none" stroke="#63b8ff" d="M263.62,-82.62C246.54,-82.32 228.24,-82 211.62,-81.72"/>
<polygon fill="#63b8ff" stroke="#63b8ff" points="264.02,-86.12 274.08,-82.8 264.14,-79.12 264.02,-86.12"/>
</a>
</g>
</g>
<!-- Node5 -->
<g id="Node000005" class="node">
<title>Node5</title>
<g id="a_Node000005"><a xlink:href="p__main_8f90.html#aeec10ee8e2940c953967da3e374e1579" target="_top" xlink:title="This program takes care of setting up the initial condition and grid data for the multicomponent flow...">
<polygon fill="white" stroke="#666666" points="53,-63.24 0,-63.24 0,-44.24 53,-44.24 53,-63.24"/>
<text text-anchor="middle" x="26.5" y="-51.24" font-family="Helvetica,sans-Serif" font-size="10.00">p_main</text>
</a>
</g>
</g>
<!-- Node4&#45;&gt;Node5 -->
<g id="edge4_Node000004_Node000005" class="edge">
<title>Node4&#45;&gt;Node5</title>
<g id="a_edge4_Node000004_Node000005"><a xlink:title=" ">
<path fill="none" stroke="#63b8ff" d="M86.55,-66.44C74.73,-63.9 63.08,-61.39 53.29,-59.29"/>
<polygon fill="#63b8ff" stroke="#63b8ff" points="85.98,-69.9 96.49,-68.58 87.45,-63.06 85.98,-69.9"/>
</a>
</g>
</g>
<!-- Node7 -->
<g id="Node000007" class="node">
<title>Node7</title>
<g id="a_Node000007"><a xlink:href="namespacem__data__output.html#a795efa6dc563a04a903c13a960089a58" target="_top" xlink:title="Computation of parameters, allocation procedures, and/or any other tasks needed to properly setup the...">
<polygon fill="white" stroke="#666666" points="404,-44.74 255,-44.74 255,-14.74 404,-14.74 404,-44.74"/>
<text text-anchor="start" x="263" y="-32.74" font-family="Helvetica,sans-Serif" font-size="10.00">m_data_output::s_initialize</text>
<text text-anchor="middle" x="329.5" y="-21.74" font-family="Helvetica,sans-Serif" font-size="10.00">_data_output_module</text>
</a>
</g>
</g>
<!-- Node6&#45;&gt;Node7 -->
<g id="edge6_Node000006_Node000007" class="edge">
<title>Node6&#45;&gt;Node7</title>
<g id="a_edge6_Node000006_Node000007"><a xlink:title=" ">
<path fill="none" stroke="#63b8ff" d="M434.84,-29.74C424.69,-29.74 414.28,-29.74 404.15,-29.74"/>
<polygon fill="#63b8ff" stroke="#63b8ff" points="434.88,-33.24 444.88,-29.74 434.88,-26.24 434.88,-33.24"/>
</a>
</g>
</g>
<!-- Node8 -->
<g id="Node000008" class="node">
<title>Node8</title>
<g id="a_Node000008"><a xlink:href="namespacem__start__up.html#a1fb7a3f9d412acd2a9cbcfe8b45006dd" target="_top" xlink:title=" ">
<polygon fill="white" stroke="#666666" points="219,-44.74 89,-44.74 89,-14.74 219,-14.74 219,-44.74"/>
<text text-anchor="start" x="97" y="-32.74" font-family="Helvetica,sans-Serif" font-size="10.00">m_start_up::s_initialize</text>
<text text-anchor="middle" x="154" y="-21.74" font-family="Helvetica,sans-Serif" font-size="10.00">_modules</text>
</a>
</g>
</g>
<!-- Node6&#45;&gt;Node8 -->
<g id="edge9_Node000006_Node000008" class="edge">
<title>Node6&#45;&gt;Node8</title>
<g id="a_edge9_Node000006_Node000008"><a xlink:title=" ">
<path fill="none" stroke="#63b8ff" d="M444.11,-12.48C430.92,-9.67 417.09,-7.21 404,-5.74 338.19,1.65 320.76,2.04 255,-5.74 239.4,-7.58 222.7,-11 207.52,-14.68"/>
<polygon fill="#63b8ff" stroke="#63b8ff" points="443.53,-15.93 454.05,-14.68 445.04,-9.1 443.53,-15.93"/>
</a>
</g>
</g>
<!-- Node7&#45;&gt;Node8 -->
<g id="edge7_Node000007_Node000008" class="edge">
<title>Node7&#45;&gt;Node8</title>
<g id="a_edge7_Node000007_Node000008"><a xlink:title=" ">
<path fill="none" stroke="#63b8ff" d="M244.81,-29.74C236.16,-29.74 227.47,-29.74 219.09,-29.74"/>
<polygon fill="#63b8ff" stroke="#63b8ff" points="244.92,-33.24 254.92,-29.74 244.92,-26.24 244.92,-33.24"/>
</a>
</g>
</g>
<!-- Node8&#45;&gt;Node5 -->
<g id="edge8_Node000008_Node000005" class="edge">
<title>Node8&#45;&gt;Node5</title>
<g id="a_edge8_Node000008_Node000005"><a xlink:title=" ">
<path fill="none" stroke="#63b8ff" d="M78.74,-43.94C69.58,-45.69 60.76,-47.38 53.09,-48.84"/>
<polygon fill="#63b8ff" stroke="#63b8ff" points="79.61,-47.34 88.78,-42.02 78.3,-40.46 79.61,-47.34"/>
</a>
</g>
</g>
</g>
</svg>
