<?xml version="1.0" encoding="UTF-8" standalone="no"?>
<!DOCTYPE svg PUBLIC "-//W3C//DTD SVG 1.1//EN"
 "http://www.w3.org/Graphics/SVG/1.1/DTD/svg11.dtd">
<!-- Generated by graphviz version 2.43.0 (0)
 -->
<!-- Title: m_checker::s_check_inputs_perturb_density Pages: 1 -->
<svg width="633pt" height="114pt"
 viewBox="0.00 0.00 633.00 113.50" xmlns="http://www.w3.org/2000/svg" xmlns:xlink="http://www.w3.org/1999/xlink">
<g id="graph0" class="graph" transform="scale(1 1) rotate(0) translate(4 109.5)">
<title>m_checker::s_check_inputs_perturb_density</title>
<!-- Node1 -->
<g id="Node000001" class="node">
<title>Node1</title>
<g id="a_Node000001"><a xlink:title="Checks constraints on initial partial density perturbation (perturb_flow, perturb_flow_fluid,...">
<polygon fill="#999999" stroke="#666666" points="134,-62.5 0,-62.5 0,-32.5 134,-32.5 134,-62.5"/>
<text text-anchor="start" x="8" y="-50.5" font-family="Helvetica,sans-Serif" font-size="10.00">m_checker::s_check</text>
<text text-anchor="middle" x="67" y="-39.5" font-family="Helvetica,sans-Serif" font-size="10.00">_inputs_perturb_density</text>
</a>
</g>
</g>
<!-- Node2 -->
<g id="Node000002" class="node">
<title>Node2</title>
<g id="a_Node000002"><a xlink:href="namespacem__helper__basic.html#a35696604e5c3c1eda9a1fcdfca99de4f" target="_top" xlink:title="Checks if ALL elements of a real(wp) array are of default value.">
<polygon fill="white" stroke="#666666" points="292.5,-105.5 172.5,-105.5 172.5,-75.5 292.5,-75.5 292.5,-105.5"/>
<text text-anchor="start" x="180.5" y="-93.5" font-family="Helvetica,sans-Serif" font-size="10.00">m_helper_basic::f_all</text>
<text text-anchor="middle" x="232.5" y="-82.5" font-family="Helvetica,sans-Serif" font-size="10.00">_default</text>
</a>
</g>
</g>
<!-- Node1&#45;&gt;Node2 -->
<g id="edge1_Node000001_Node000002" class="edge">
<title>Node1&#45;&gt;Node2</title>
<g id="a_edge1_Node000001_Node000002"><a xlink:title=" ">
<path fill="none" stroke="#63b8ff" d="M125.18,-62.54C137.88,-65.88 151.45,-69.45 164.49,-72.88"/>
<polygon fill="#63b8ff" stroke="#63b8ff" points="163.79,-76.31 174.35,-75.47 165.57,-69.54 163.79,-76.31"/>
</a>
</g>
</g>
<!-- Node3 -->
<g id="Node000003" class="node">
<title>Node3</title>
<g id="a_Node000003"><a xlink:href="namespacem__helper__basic.html#a345e205ced0b0674a22f59a2c1549eb4" target="_top" xlink:title="Checks if a real(wp) variable is of default value.">
<polygon fill="white" stroke="#666666" points="447,-83.5 331,-83.5 331,-53.5 447,-53.5 447,-83.5"/>
<text text-anchor="start" x="339" y="-71.5" font-family="Helvetica,sans-Serif" font-size="10.00">m_helper_basic::f_is</text>
<text text-anchor="middle" x="389" y="-60.5" font-family="Helvetica,sans-Serif" font-size="10.00">_default</text>
</a>
</g>
</g>
<!-- Node1&#45;&gt;Node3 -->
<g id="edge4_Node000001_Node000003" class="edge">
<title>Node1&#45;&gt;Node3</title>
<g id="a_edge4_Node000001_Node000003"><a xlink:title=" ">
<path fill="none" stroke="#63b8ff" d="M134.3,-51.85C188.82,-55.43 265.75,-60.48 320.57,-64.08"/>
<polygon fill="#63b8ff" stroke="#63b8ff" points="320.68,-67.59 330.89,-64.75 321.14,-60.6 320.68,-67.59"/>
</a>
</g>
</g>
<!-- Node5 -->
<g id="Node000005" class="node">
<title>Node5</title>
<g id="a_Node000005"><a xlink:href="namespacem__helper.html#a6b74248bdd19bc6b0b43f757a3212275" target="_top" xlink:title=" ">
<polygon fill="white" stroke="#666666" points="295,-19 170,-19 170,0 295,0 295,-19"/>
<text text-anchor="middle" x="232.5" y="-7" font-family="Helvetica,sans-Serif" font-size="10.00">m_helper::s_int_to_str</text>
</a>
</g>
</g>
<!-- Node1&#45;&gt;Node5 -->
<g id="edge5_Node000001_Node000005" class="edge">
<title>Node1&#45;&gt;Node5</title>
<g id="a_edge5_Node000001_Node000005"><a xlink:title=" ">
<path fill="none" stroke="#63b8ff" d="M132.62,-32.48C148.43,-28.81 165.13,-24.92 180.22,-21.42"/>
<polygon fill="#63b8ff" stroke="#63b8ff" points="181.43,-24.73 190.38,-19.06 179.85,-17.91 181.43,-24.73"/>
</a>
</g>
</g>
<!-- Node2&#45;&gt;Node3 -->
<g id="edge2_Node000002_Node000003" class="edge">
<title>Node2&#45;&gt;Node3</title>
<g id="a_edge2_Node000002_Node000003"><a xlink:title=" ">
<path fill="none" stroke="#63b8ff" d="M292.79,-82.06C301.98,-80.75 311.52,-79.39 320.87,-78.06"/>
<polygon fill="#63b8ff" stroke="#63b8ff" points="321.5,-81.51 330.9,-76.63 320.51,-74.58 321.5,-81.51"/>
</a>
</g>
</g>
<!-- Node4 -->
<g id="Node000004" class="node">
<title>Node4</title>
<g id="a_Node000004"><a xlink:href="namespacem__helper__basic.html#a58590a12d49b9b884256a839f2be8610" target="_top" xlink:title="This procedure checks if two floating point numbers of wp are within tolerance.">
<polygon fill="white" stroke="#666666" points="625,-83.5 483,-83.5 483,-53.5 625,-53.5 625,-83.5"/>
<text text-anchor="start" x="491" y="-71.5" font-family="Helvetica,sans-Serif" font-size="10.00">m_helper_basic::f_approx</text>
<text text-anchor="middle" x="554" y="-60.5" font-family="Helvetica,sans-Serif" font-size="10.00">_equal</text>
</a>
</g>
</g>
<!-- Node3&#45;&gt;Node4 -->
<g id="edge3_Node000003_Node000004" class="edge">
<title>Node3&#45;&gt;Node4</title>
<g id="a_edge3_Node000003_Node000004"><a xlink:title=" ">
<path fill="none" stroke="#63b8ff" d="M447.01,-68.5C455.32,-68.5 464.01,-68.5 472.68,-68.5"/>
<polygon fill="#63b8ff" stroke="#63b8ff" points="472.83,-72 482.83,-68.5 472.83,-65 472.83,-72"/>
</a>
</g>
</g>
</g>
</svg>
