<?xml version="1.0" encoding="UTF-8" standalone="no"?>
<!DOCTYPE svg PUBLIC "-//W3C//DTD SVG 1.1//EN"
 "http://www.w3.org/Graphics/SVG/1.1/DTD/svg11.dtd">
<!-- Generated by graphviz version 2.43.0 (0)
 -->
<!-- Title: m_helper::f_cross Pages: 1 -->
<svg width="1147pt" height="86pt"
 viewBox="0.00 0.00 1147.00 86.00" xmlns="http://www.w3.org/2000/svg" xmlns:xlink="http://www.w3.org/1999/xlink">
<g id="graph0" class="graph" transform="scale(1 1) rotate(0) translate(4 82)">
<title>m_helper::f_cross</title>
<!-- Node1 -->
<g id="Node000001" class="node">
<title>Node1</title>
<g id="a_Node000001"><a xlink:title="This procedure computes the cross product of two vectors.">
<polygon fill="#999999" stroke="#666666" points="1139,-47.5 1036,-47.5 1036,-28.5 1139,-28.5 1139,-47.5"/>
<text text-anchor="middle" x="1087.5" y="-35.5" font-family="Helvetica,sans-Serif" font-size="10.00">m_helper::f_cross</text>
</a>
</g>
</g>
<!-- Node2 -->
<g id="Node000002" class="node">
<title>Node2</title>
<g id="a_Node000002"><a xlink:href="namespacem__model.html#af8c0e5dd8f6fcc99fb18145d74ebe444" target="_top" xlink:title="This procedure checks if a ray intersects a triangle.">
<polygon fill="white" stroke="#666666" points="1000,-76 875,-76 875,-46 1000,-46 1000,-76"/>
<text text-anchor="start" x="883" y="-64" font-family="Helvetica,sans-Serif" font-size="10.00">m_model::f_intersects</text>
<text text-anchor="middle" x="937.5" y="-53" font-family="Helvetica,sans-Serif" font-size="10.00">_triangle</text>
</a>
</g>
</g>
<!-- Node1&#45;&gt;Node2 -->
<g id="edge1_Node000001_Node000002" class="edge">
<title>Node1&#45;&gt;Node2</title>
<g id="a_edge1_Node000001_Node000002"><a xlink:title=" ">
<path fill="none" stroke="#63b8ff" d="M1026.06,-47.39C1017.48,-48.73 1008.65,-50.1 1000.05,-51.43"/>
<polygon fill="#63b8ff" stroke="#63b8ff" points="1026.64,-50.85 1035.98,-45.85 1025.56,-43.93 1026.64,-50.85"/>
</a>
</g>
</g>
<!-- Node9 -->
<g id="Node000009" class="node">
<title>Node9</title>
<g id="a_Node000009"><a xlink:href="namespacem__perturbation.html#afa02cfb00a8406637b02037a5d8a05ae" target="_top" xlink:title="This subroutine computes velocity perturbations for a temporal mixing layer with a hyperbolic tangent...">
<polygon fill="white" stroke="#666666" points="839,-30 696,-30 696,0 839,0 839,-30"/>
<text text-anchor="start" x="704" y="-18" font-family="Helvetica,sans-Serif" font-size="10.00">m_perturbation::s_perturb</text>
<text text-anchor="middle" x="767.5" y="-7" font-family="Helvetica,sans-Serif" font-size="10.00">_mixlayer</text>
</a>
</g>
</g>
<!-- Node1&#45;&gt;Node9 -->
<g id="edge8_Node000001_Node000009" class="edge">
<title>Node1&#45;&gt;Node9</title>
<g id="a_edge8_Node000001_Node000009"><a xlink:title=" ">
<path fill="none" stroke="#63b8ff" d="M1025.78,-33.61C972.56,-29.76 895.17,-24.16 839.18,-20.11"/>
<polygon fill="#63b8ff" stroke="#63b8ff" points="1025.53,-37.1 1035.76,-34.33 1026.04,-30.12 1025.53,-37.1"/>
</a>
</g>
</g>
<!-- Node3 -->
<g id="Node000003" class="node">
<title>Node3</title>
<g id="a_Node000003"><a xlink:href="namespacem__model.html#a40b54b3f9a65775ea1062c541dea09e3" target="_top" xlink:title="This procedure, recursively, finds whether a point is inside an octree.">
<polygon fill="white" stroke="#666666" points="828.5,-78 706.5,-78 706.5,-48 828.5,-48 828.5,-78"/>
<text text-anchor="start" x="714.5" y="-66" font-family="Helvetica,sans-Serif" font-size="10.00">m_model::f_model_is</text>
<text text-anchor="middle" x="767.5" y="-55" font-family="Helvetica,sans-Serif" font-size="10.00">_inside</text>
</a>
</g>
</g>
<!-- Node2&#45;&gt;Node3 -->
<g id="edge2_Node000002_Node000003" class="edge">
<title>Node2&#45;&gt;Node3</title>
<g id="a_edge2_Node000002_Node000003"><a xlink:title=" ">
<path fill="none" stroke="#63b8ff" d="M864.88,-61.85C852.82,-62 840.42,-62.14 828.69,-62.28"/>
<polygon fill="#63b8ff" stroke="#63b8ff" points="864.94,-65.35 874.9,-61.73 864.86,-58.35 864.94,-65.35"/>
</a>
</g>
</g>
<!-- Node4 -->
<g id="Node000004" class="node">
<title>Node4</title>
<g id="a_Node000004"><a xlink:href="namespacem__ib__patches.html#ab91168784d19567f4abbf082eef50996" target="_top" xlink:title="The STL patch is a 2/3D geometry that is imported from an STL file.">
<polygon fill="white" stroke="#666666" points="660,-77 550,-77 550,-47 660,-47 660,-77"/>
<text text-anchor="start" x="558" y="-65" font-family="Helvetica,sans-Serif" font-size="10.00">m_ib_patches::s_ib</text>
<text text-anchor="middle" x="605" y="-54" font-family="Helvetica,sans-Serif" font-size="10.00">_model</text>
</a>
</g>
</g>
<!-- Node3&#45;&gt;Node4 -->
<g id="edge3_Node000003_Node000004" class="edge">
<title>Node3&#45;&gt;Node4</title>
<g id="a_edge3_Node000003_Node000004"><a xlink:title=" ">
<path fill="none" stroke="#63b8ff" d="M696.23,-62.56C684.16,-62.49 671.78,-62.41 660.21,-62.34"/>
<polygon fill="#63b8ff" stroke="#63b8ff" points="696.26,-66.06 706.28,-62.62 696.3,-59.06 696.26,-66.06"/>
</a>
</g>
</g>
<!-- Node5 -->
<g id="Node000005" class="node">
<title>Node5</title>
<g id="a_Node000005"><a xlink:href="namespacem__ib__patches.html#a0540992ae9a59ea772d591a5fa9a63fb" target="_top" xlink:title=" ">
<polygon fill="white" stroke="#666666" points="514,-76 386,-76 386,-46 514,-46 514,-76"/>
<text text-anchor="start" x="394" y="-64" font-family="Helvetica,sans-Serif" font-size="10.00">m_ib_patches::s_apply</text>
<text text-anchor="middle" x="450" y="-53" font-family="Helvetica,sans-Serif" font-size="10.00">_ib_patches</text>
</a>
</g>
</g>
<!-- Node4&#45;&gt;Node5 -->
<g id="edge4_Node000004_Node000005" class="edge">
<title>Node4&#45;&gt;Node5</title>
<g id="a_edge4_Node000004_Node000005"><a xlink:title=" ">
<path fill="none" stroke="#63b8ff" d="M539.49,-61.58C531.08,-61.52 522.47,-61.47 514.08,-61.41"/>
<polygon fill="#63b8ff" stroke="#63b8ff" points="539.6,-65.08 549.63,-61.64 539.65,-58.08 539.6,-65.08"/>
</a>
</g>
</g>
<!-- Node6 -->
<g id="Node000006" class="node">
<title>Node6</title>
<g id="a_Node000006"><a xlink:href="namespacem__initial__condition.html#ae5ca036f43a2eebe1e2cc84fc9c61d28" target="_top" xlink:title="This subroutine peruses the patches and depending on the type of geometry associated with a particula...">
<polygon fill="white" stroke="#666666" points="350,-58.5 240,-58.5 240,-17.5 350,-17.5 350,-58.5"/>
<text text-anchor="start" x="248" y="-46.5" font-family="Helvetica,sans-Serif" font-size="10.00">m_initial_condition</text>
<text text-anchor="start" x="248" y="-35.5" font-family="Helvetica,sans-Serif" font-size="10.00">::s_generate_initial</text>
<text text-anchor="middle" x="295" y="-24.5" font-family="Helvetica,sans-Serif" font-size="10.00">_condition</text>
</a>
</g>
</g>
<!-- Node5&#45;&gt;Node6 -->
<g id="edge5_Node000005_Node000006" class="edge">
<title>Node5&#45;&gt;Node6</title>
<g id="a_edge5_Node000005_Node000006"><a xlink:title=" ">
<path fill="none" stroke="#63b8ff" d="M375.81,-50C367.17,-48.7 358.49,-47.39 350.18,-46.15"/>
<polygon fill="#63b8ff" stroke="#63b8ff" points="375.48,-53.49 385.89,-51.51 376.52,-46.56 375.48,-53.49"/>
</a>
</g>
</g>
<!-- Node7 -->
<g id="Node000007" class="node">
<title>Node7</title>
<g id="a_Node000007"><a xlink:href="namespacem__start__up.html#a513ef24d6c8beafb8b94c015db266100" target="_top" xlink:title=" ">
<polygon fill="white" stroke="#666666" points="204,-53 89,-53 89,-23 204,-23 204,-53"/>
<text text-anchor="start" x="97" y="-41" font-family="Helvetica,sans-Serif" font-size="10.00">m_start_up::s_apply</text>
<text text-anchor="middle" x="146.5" y="-30" font-family="Helvetica,sans-Serif" font-size="10.00">_initial_condition</text>
</a>
</g>
</g>
<!-- Node6&#45;&gt;Node7 -->
<g id="edge6_Node000006_Node000007" class="edge">
<title>Node6&#45;&gt;Node7</title>
<g id="a_edge6_Node000006_Node000007"><a xlink:title=" ">
<path fill="none" stroke="#63b8ff" d="M229.69,-38C221.25,-38 212.66,-38 204.36,-38"/>
<polygon fill="#63b8ff" stroke="#63b8ff" points="229.87,-41.5 239.87,-38 229.87,-34.5 229.87,-41.5"/>
</a>
</g>
</g>
<!-- Node8 -->
<g id="Node000008" class="node">
<title>Node8</title>
<g id="a_Node000008"><a xlink:href="p__main_8f90.html#aeec10ee8e2940c953967da3e374e1579" target="_top" xlink:title="This program takes care of setting up the initial condition and grid data for the multicomponent flow...">
<polygon fill="white" stroke="#666666" points="53,-47.5 0,-47.5 0,-28.5 53,-28.5 53,-47.5"/>
<text text-anchor="middle" x="26.5" y="-35.5" font-family="Helvetica,sans-Serif" font-size="10.00">p_main</text>
</a>
</g>
</g>
<!-- Node7&#45;&gt;Node8 -->
<g id="edge7_Node000007_Node000008" class="edge">
<title>Node7&#45;&gt;Node8</title>
<g id="a_edge7_Node000007_Node000008"><a xlink:title=" ">
<path fill="none" stroke="#63b8ff" d="M78.65,-38C69.6,-38 60.81,-38 53.13,-38"/>
<polygon fill="#63b8ff" stroke="#63b8ff" points="78.92,-41.5 88.92,-38 78.92,-34.5 78.92,-41.5"/>
</a>
</g>
</g>
<!-- Node9&#45;&gt;Node6 -->
<g id="edge9_Node000009_Node000006" class="edge">
<title>Node9&#45;&gt;Node6</title>
<g id="a_edge9_Node000009_Node000006"><a xlink:title=" ">
<path fill="none" stroke="#63b8ff" d="M685.58,-18.96C589.73,-23.64 432.71,-31.32 350.34,-35.34"/>
<polygon fill="#63b8ff" stroke="#63b8ff" points="685.99,-22.44 695.81,-18.46 685.65,-15.45 685.99,-22.44"/>
</a>
</g>
</g>
</g>
</svg>
