<?xml version="1.0" encoding="UTF-8" standalone="no"?>
<!DOCTYPE svg PUBLIC "-//W3C//DTD SVG 1.1//EN"
 "http://www.w3.org/Graphics/SVG/1.1/DTD/svg11.dtd">
<!-- Generated by graphviz version 2.43.0 (0)
 -->
<!-- Title: m_icpp_patches::s_icpp_spiral Pages: 1 -->
<svg width="290pt" height="51pt"
 viewBox="0.00 0.00 290.00 50.50" xmlns="http://www.w3.org/2000/svg" xmlns:xlink="http://www.w3.org/1999/xlink">
<g id="graph0" class="graph" transform="scale(1 1) rotate(0) translate(4 46.5)">
<title>m_icpp_patches::s_icpp_spiral</title>
<!-- Node1 -->
<g id="Node000001" class="node">
<title>Node1</title>
<g id="a_Node000001"><a xlink:title="The spiral patch is a 2D geometry that may be used, The geometry of the patch is well&#45;defined when it...">
<polygon fill="#999999" stroke="#666666" points="132,-30 0,-30 0,0 132,0 132,-30"/>
<text text-anchor="start" x="8" y="-18" font-family="Helvetica,sans-Serif" font-size="10.00">m_icpp_patches::s_icpp</text>
<text text-anchor="middle" x="66" y="-7" font-family="Helvetica,sans-Serif" font-size="10.00">_spiral</text>
</a>
</g>
</g>
<!-- Node2 -->
<g id="Node000002" class="node">
<title>Node2</title>
<g id="a_Node000002"><a xlink:href="namespacem__icpp__patches.html#a87082839bf1f7646e016ee798313fb64" target="_top" xlink:title="Archimedes spiral function.">
<polygon fill="white" stroke="#666666" points="282,-24.5 168,-24.5 168,-5.5 282,-5.5 282,-24.5"/>
<text text-anchor="middle" x="225" y="-12.5" font-family="Helvetica,sans-Serif" font-size="10.00">m_icpp_patches::f_r</text>
</a>
</g>
</g>
<!-- Node1&#45;&gt;Node2 -->
<g id="edge1_Node000001_Node000002" class="edge">
<title>Node1&#45;&gt;Node2</title>
<g id="a_edge1_Node000001_Node000002"><a xlink:title=" ">
<path fill="none" stroke="#63b8ff" d="M132.22,-15C140.6,-15 149.2,-15 157.6,-15"/>
<polygon fill="#63b8ff" stroke="#63b8ff" points="157.73,-18.5 167.73,-15 157.73,-11.5 157.73,-18.5"/>
</a>
</g>
</g>
<!-- Node2&#45;&gt;Node2 -->
<g id="edge2_Node000002_Node000002" class="edge">
<title>Node2&#45;&gt;Node2</title>
<g id="a_edge2_Node000002_Node000002"><a xlink:title=" ">
<path fill="none" stroke="#63b8ff" d="M200.65,-24.58C188.8,-33.23 196.92,-42.5 225,-42.5 243.43,-42.5 253.26,-38.51 254.49,-33.32"/>
<polygon fill="#63b8ff" stroke="#63b8ff" points="257.44,-31.43 249.35,-24.58 251.41,-34.98 257.44,-31.43"/>
</a>
</g>
</g>
</g>
</svg>
