<?xml version="1.0" encoding="UTF-8" standalone="no"?>
<!DOCTYPE svg PUBLIC "-//W3C//DTD SVG 1.1//EN"
 "http://www.w3.org/Graphics/SVG/1.1/DTD/svg11.dtd">
<!-- Generated by graphviz version 2.43.0 (0)
 -->
<!-- Title: m_check_patches::s_check_active_patch_primitive_variables Pages: 1 -->
<!--zoomable 152 -->

<svg id="main" version="1.1" xmlns="http://www.w3.org/2000/svg" xmlns:xlink="http://www.w3.org/1999/xlink" xml:space="preserve" onload="init(evt)">

<style type="text/css"><![CDATA[
.node, .edge {opacity: 0.7;}
.node.selected, .edge.selected {opacity: 1;}
.edge:hover path { stroke: red; }
.edge:hover polygon { stroke: red; fill: red; }
]]></style>

<defs>
  <circle id="rim" cx="0" cy="0" r="7"/>
  <circle id="rim2" cx="0" cy="0" r="3.5"/>
  <g id="zoomPlus">
    <use xlink:href="#rim" fill="#404040"><set attributeName="fill" to="#808080" begin="zoomplus.mouseover" end="zoomplus.mouseout"/></use>
    <path d="M-4,0h8M0,-4v8" fill="none" stroke="white" stroke-width="1.5" pointer-events="none"/>
  </g>
  <g id="zoomMin">
    <use xlink:href="#rim" fill="#404040"><set attributeName="fill" to="#808080" begin="zoomminus.mouseover" end="zoomminus.mouseout"/></use>
    <path d="M-4,0h8" fill="none" stroke="white" stroke-width="1.5" pointer-events="none"/>
  </g>
  <g id="arrowUp" transform="translate(30 24)">
    <use xlink:href="#rim"/>
    <path pointer-events="none" fill="none" stroke="white" stroke-width="1.5" d="M0,-3.0v7 M-2.5,-0.5L0,-3.0L2.5,-0.5"/>
  </g>
  <g id="arrowRight" transform="rotate(90) translate(36 -43)">
    <use xlink:href="#rim"/>
    <path pointer-events="none" fill="none" stroke="white" stroke-width="1.5" d="M0,-3.0v7 M-2.5,-0.5L0,-3.0L2.5,-0.5"/>
  </g>
  <g id="arrowDown" transform="rotate(180) translate(-30 -48)">
    <use xlink:href="#rim"/>
    <path pointer-events="none" fill="none" stroke="white" stroke-width="1.5" d="M0,-3.0v7 M-2.5,-0.5L0,-3.0L2.5,-0.5"/>
  </g>
  <g id="arrowLeft" transform="rotate(270) translate(-36 17)">
    <use xlink:href="#rim"/>
    <path pointer-events="none" fill="none" stroke="white" stroke-width="1.5" d="M0,-3.0v7 M-2.5,-0.5L0,-3.0L2.5,-0.5"/>
  </g>
  <g id="resetDef">
    <use xlink:href="#rim2" fill="#404040"><set attributeName="fill" to="#808080" begin="reset.mouseover" end="reset.mouseout"/></use>
  </g>
</defs>
<script type="application/ecmascript">
var viewWidth = 617;
var viewHeight = 152;
var sectionId = 'dynsection-4';
</script>
<script type="application/ecmascript" xlink:href="svg.min.js"/>
<svg id="graph" class="graph">
<g id="viewport">
<title>m_check_patches::s_check_active_patch_primitive_variables</title>
<!-- Node1 -->
<g id="Node000001" class="node">
<title>Node1</title>
<g id="a_Node000001"><a xlink:title="This subroutine checks the primitive variables.">
<polygon fill="#999999" stroke="#666666" points="118,-87 0,-87 0,-46 118,-46 118,-87"/>
<text text-anchor="start" x="8" y="-75" font-family="Helvetica,sans-Serif" font-size="10.00">m_check_patches::s</text>
<text text-anchor="start" x="8" y="-64" font-family="Helvetica,sans-Serif" font-size="10.00">_check_active_patch</text>
<text text-anchor="middle" x="59" y="-53" font-family="Helvetica,sans-Serif" font-size="10.00">_primitive_variables</text>
</a>
</g>
</g>
<!-- Node2 -->
<g id="Node000002" class="node">
<title>Node2</title>
<g id="a_Node000002"><a xlink:href="namespacem__helper__basic.html#a35696604e5c3c1eda9a1fcdfca99de4f" target="_top" xlink:title="Checks if ALL elements of a real(wp) array are of default value.">
<polygon fill="white" stroke="#666666" points="276.5,-143.5 156.5,-143.5 156.5,-113.5 276.5,-113.5 276.5,-143.5"/>
<text text-anchor="start" x="164.5" y="-131.5" font-family="Helvetica,sans-Serif" font-size="10.00">m_helper_basic::f_all</text>
<text text-anchor="middle" x="216.5" y="-120.5" font-family="Helvetica,sans-Serif" font-size="10.00">_default</text>
</a>
</g>
</g>
<!-- Node1&#45;&gt;Node2 -->
<g id="edge1_Node000001_Node000002" class="edge">
<title>Node1&#45;&gt;Node2</title>
<g id="a_edge1_Node000001_Node000002"><a xlink:title=" ">
<path fill="none" stroke="#63b8ff" d="M111.78,-87.15C129.97,-94.4 150.3,-102.5 168.11,-109.6"/>
<polygon fill="#63b8ff" stroke="#63b8ff" points="167.13,-112.98 177.72,-113.43 169.72,-106.48 167.13,-112.98"/>
</a>
</g>
</g>
<!-- Node3 -->
<g id="Node000003" class="node">
<title>Node3</title>
<g id="a_Node000003"><a xlink:href="namespacem__helper__basic.html#a345e205ced0b0674a22f59a2c1549eb4" target="_top" xlink:title="Checks if a real(wp) variable is of default value.">
<polygon fill="white" stroke="#666666" points="431,-105.5 315,-105.5 315,-75.5 431,-75.5 431,-105.5"/>
<text text-anchor="start" x="323" y="-93.5" font-family="Helvetica,sans-Serif" font-size="10.00">m_helper_basic::f_is</text>
<text text-anchor="middle" x="373" y="-82.5" font-family="Helvetica,sans-Serif" font-size="10.00">_default</text>
</a>
</g>
</g>
<!-- Node1&#45;&gt;Node3 -->
<g id="edge5_Node000001_Node000003" class="edge">
<title>Node1&#45;&gt;Node3</title>
<g id="a_edge5_Node000001_Node000003"><a xlink:title=" ">
<path fill="none" stroke="#63b8ff" d="M118.32,-70.99C171.2,-75.05 249.15,-81.05 304.66,-85.32"/>
<polygon fill="#63b8ff" stroke="#63b8ff" points="304.52,-88.82 314.76,-86.1 305.06,-81.84 304.52,-88.82"/>
</a>
</g>
</g>
<!-- Node4 -->
<g id="Node000004" class="node">
<title>Node4</title>
<g id="a_Node000004"><a xlink:href="namespacem__helper__basic.html#a58590a12d49b9b884256a839f2be8610" target="_top" xlink:title="This procedure checks if two floating point numbers of wp are within tolerance.">
<polygon fill="white" stroke="#666666" points="609,-83.5 467,-83.5 467,-53.5 609,-53.5 609,-83.5"/>
<text text-anchor="start" x="475" y="-71.5" font-family="Helvetica,sans-Serif" font-size="10.00">m_helper_basic::f_approx</text>
<text text-anchor="middle" x="538" y="-60.5" font-family="Helvetica,sans-Serif" font-size="10.00">_equal</text>
</a>
</g>
</g>
<!-- Node1&#45;&gt;Node4 -->
<g id="edge4_Node000001_Node000004" class="edge">
<title>Node1&#45;&gt;Node4</title>
<g id="a_edge4_Node000001_Node000004"><a xlink:title=" ">
<path fill="none" stroke="#63b8ff" d="M118.16,-66.16C191.2,-65.81 320.38,-65.46 431,-66.5 439.33,-66.58 448.04,-66.69 456.72,-66.83"/>
<polygon fill="#63b8ff" stroke="#63b8ff" points="456.81,-70.33 466.87,-66.99 456.93,-63.33 456.81,-70.33"/>
</a>
</g>
</g>
<!-- Node5 -->
<g id="Node000005" class="node">
<title>Node5</title>
<g id="a_Node000005"><a xlink:href="namespacem__helper.html#a6b74248bdd19bc6b0b43f757a3212275" target="_top" xlink:title=" ">
<polygon fill="white" stroke="#666666" points="279,-19 154,-19 154,0 279,0 279,-19"/>
<text text-anchor="middle" x="216.5" y="-7" font-family="Helvetica,sans-Serif" font-size="10.00">m_helper::s_int_to_str</text>
</a>
</g>
</g>
<!-- Node1&#45;&gt;Node5 -->
<g id="edge6_Node000001_Node000005" class="edge">
<title>Node1&#45;&gt;Node5</title>
<g id="a_edge6_Node000001_Node000005"><a xlink:title=" ">
<path fill="none" stroke="#63b8ff" d="M116.14,-45.92C137.47,-38.1 161.17,-29.42 180.07,-22.49"/>
<polygon fill="#63b8ff" stroke="#63b8ff" points="181.29,-25.77 189.47,-19.04 178.88,-19.2 181.29,-25.77"/>
</a>
</g>
</g>
<!-- Node2&#45;&gt;Node3 -->
<g id="edge2_Node000002_Node000003" class="edge">
<title>Node2&#45;&gt;Node3</title>
<g id="a_edge2_Node000002_Node000003"><a xlink:title=" ">
<path fill="none" stroke="#63b8ff" d="M276.79,-113.92C286.08,-111.63 295.73,-109.26 305.17,-106.94"/>
<polygon fill="#63b8ff" stroke="#63b8ff" points="306.03,-110.33 314.9,-104.54 304.36,-103.53 306.03,-110.33"/>
</a>
</g>
</g>
<!-- Node3&#45;&gt;Node4 -->
<g id="edge3_Node000003_Node000004" class="edge">
<title>Node3&#45;&gt;Node4</title>
<g id="a_edge3_Node000003_Node000004"><a xlink:title=" ">
<path fill="none" stroke="#63b8ff" d="M431.01,-82.81C439.32,-81.68 448.01,-80.51 456.68,-79.34"/>
<polygon fill="#63b8ff" stroke="#63b8ff" points="457.39,-82.78 466.83,-77.97 456.45,-75.84 457.39,-82.78"/>
</a>
</g>
</g>
</g>
</svg>

<g id="navigator" transform="translate(0 0)" fill="#404254">
  <rect fill="#f2f5e9" fill-opacity="0.5" stroke="#606060" stroke-width=".5" x="0" y="0" width="60" height="60"/>
  <use id="zoomplus" xlink:href="#zoomPlus" x="17" y="9" onmousedown="handleZoom(evt,'in')"/>
  <use id="zoomminus" xlink:href="#zoomMin" x="42" y="9" onmousedown="handleZoom(evt,'out')"/>
  <use id="reset" xlink:href="#resetDef" x="30" y="36" onmousedown="handleReset()"/>
   <use id="arrowup" xlink:href="#arrowUp" x="0" y="0" onmousedown="handlePan(0,-1)"/>
  <use id="arrowright" xlink:href="#arrowRight" x="0" y="0" onmousedown="handlePan(1,0)"/>
  <use id="arrowdown" xlink:href="#arrowDown" x="0" y="0" onmousedown="handlePan(0,1)"/>
  <use id="arrowleft" xlink:href="#arrowLeft" x="0" y="0" onmousedown="handlePan(-1,0)"/>
</g>
<svg viewBox="0 0 15 15" width="100%" height="30px" preserveAspectRatio="xMaxYMin meet">
 <g id="arrow_out" transform="scale(0.3 0.3)">
  <a xlink:href="namespacem__check__patches_abcc37fb6bf5cba50d9df215c7425ce22_cgraph_org.svg" target="_base">
   <rect id="button" ry="5" rx="5" y="6" x="6" height="38" width="38"
        fill="#f2f5e9" fill-opacity="0.5" stroke="#606060" stroke-width="1.0"/>
   <path id="arrow"
     d="M 11.500037,31.436501 C 11.940474,20.09759 22.043105,11.32322 32.158766,21.979434 L 37.068811,17.246167 C 37.068811,17.246167 37.088388,32 37.088388,32 L 22.160133,31.978069 C 22.160133,31.978069 26.997745,27.140456 26.997745,27.140456 C 18.528582,18.264221 13.291696,25.230495 11.500037,31.436501 z"
     style="fill:#404040;"/>
  </a>
 </g>
</svg>

<style type='text/css'>
<![CDATA[
[data-mouse-over-selected='false'] { opacity: 0.7; }
[data-mouse-over-selected='true']  { opacity: 1.0; }
]]>
</style>
<script type="application/ecmascript"><![CDATA[
document.addEventListener('DOMContentLoaded', (event) => {
  highlightEdges();
  highlightAdjacentNodes();
});
]]></script>
</svg>
