<?xml version="1.0" encoding="UTF-8" standalone="no"?>
<!DOCTYPE svg PUBLIC "-//W3C//DTD SVG 1.1//EN"
 "http://www.w3.org/Graphics/SVG/1.1/DTD/svg11.dtd">
<!-- Generated by graphviz version 2.43.0 (0)
 -->
<!-- Title: m_variables_conversion::s_convert_species_to_mixture_variables_acc Pages: 1 -->
<svg width="703pt" height="108pt"
 viewBox="0.00 0.00 703.00 108.00" xmlns="http://www.w3.org/2000/svg" xmlns:xlink="http://www.w3.org/1999/xlink">
<g id="graph0" class="graph" transform="scale(1 1) rotate(0) translate(4 104)">
<title>m_variables_conversion::s_convert_species_to_mixture_variables_acc</title>
<!-- Node1 -->
<g id="Node000001" class="node">
<title>Node1</title>
<g id="a_Node000001"><a xlink:title=" ">
<polygon fill="#999999" stroke="#666666" points="695,-70 560,-70 560,-29 695,-29 695,-70"/>
<text text-anchor="start" x="568" y="-58" font-family="Helvetica,sans-Serif" font-size="10.00">m_variables_conversion</text>
<text text-anchor="start" x="568" y="-47" font-family="Helvetica,sans-Serif" font-size="10.00">::s_convert_species_to</text>
<text text-anchor="middle" x="627.5" y="-36" font-family="Helvetica,sans-Serif" font-size="10.00">_mixture_variables_acc</text>
</a>
</g>
</g>
<!-- Node2 -->
<g id="Node000002" class="node">
<title>Node2</title>
<g id="a_Node000002"><a xlink:href="namespacem__variables__conversion.html#a7d567315b057c0da0cb37f89ef298031" target="_top" xlink:title="The following procedure handles the conversion between the conservative variables and the primitive v...">
<polygon fill="white" stroke="#666666" points="524,-100 386,-100 386,-59 524,-59 524,-100"/>
<text text-anchor="start" x="394" y="-88" font-family="Helvetica,sans-Serif" font-size="10.00">m_variables_conversion</text>
<text text-anchor="start" x="394" y="-77" font-family="Helvetica,sans-Serif" font-size="10.00">::s_convert_conservative</text>
<text text-anchor="middle" x="455" y="-66" font-family="Helvetica,sans-Serif" font-size="10.00">_to_primitive_variables</text>
</a>
</g>
</g>
<!-- Node1&#45;&gt;Node2 -->
<g id="edge1_Node000001_Node000002" class="edge">
<title>Node1&#45;&gt;Node2</title>
<g id="a_edge1_Node000001_Node000002"><a xlink:title=" ">
<path fill="none" stroke="#63b8ff" d="M549.67,-63.02C541.15,-64.52 532.51,-66.04 524.1,-67.52"/>
<polygon fill="#63b8ff" stroke="#63b8ff" points="550.36,-66.45 559.6,-61.27 549.15,-59.56 550.36,-66.45"/>
</a>
</g>
</g>
<!-- Node6 -->
<g id="Node000006" class="node">
<title>Node6</title>
<g id="a_Node000006"><a xlink:href="namespacem__variables__conversion.html#a103ba56044f0a89e365ed91ca11eb38a" target="_top" xlink:title="The following subroutine handles the conversion between the primitive variables and the Eulerian flux...">
<polygon fill="white" stroke="#666666" points="522.5,-41 387.5,-41 387.5,0 522.5,0 522.5,-41"/>
<text text-anchor="start" x="395.5" y="-29" font-family="Helvetica,sans-Serif" font-size="10.00">m_variables_conversion</text>
<text text-anchor="start" x="395.5" y="-18" font-family="Helvetica,sans-Serif" font-size="10.00">::s_convert_primitive</text>
<text text-anchor="middle" x="455" y="-7" font-family="Helvetica,sans-Serif" font-size="10.00">_to_flux_variables</text>
</a>
</g>
</g>
<!-- Node1&#45;&gt;Node6 -->
<g id="edge5_Node000001_Node000006" class="edge">
<title>Node1&#45;&gt;Node6</title>
<g id="a_edge5_Node000001_Node000006"><a xlink:title=" ">
<path fill="none" stroke="#63b8ff" d="M549.56,-36.41C540.6,-34.89 531.51,-33.34 522.7,-31.85"/>
<polygon fill="#63b8ff" stroke="#63b8ff" points="549.16,-39.9 559.6,-38.12 550.33,-32.99 549.16,-39.9"/>
</a>
</g>
</g>
<!-- Node3 -->
<g id="Node000003" class="node">
<title>Node3</title>
<g id="a_Node000003"><a xlink:href="namespacem__initial__condition.html#ae5ca036f43a2eebe1e2cc84fc9c61d28" target="_top" xlink:title="This subroutine peruses the patches and depending on the type of geometry associated with a particula...">
<polygon fill="white" stroke="#666666" points="350,-100 240,-100 240,-59 350,-59 350,-100"/>
<text text-anchor="start" x="248" y="-88" font-family="Helvetica,sans-Serif" font-size="10.00">m_initial_condition</text>
<text text-anchor="start" x="248" y="-77" font-family="Helvetica,sans-Serif" font-size="10.00">::s_generate_initial</text>
<text text-anchor="middle" x="295" y="-66" font-family="Helvetica,sans-Serif" font-size="10.00">_condition</text>
</a>
</g>
</g>
<!-- Node2&#45;&gt;Node3 -->
<g id="edge2_Node000002_Node000003" class="edge">
<title>Node2&#45;&gt;Node3</title>
<g id="a_edge2_Node000002_Node000003"><a xlink:title=" ">
<path fill="none" stroke="#63b8ff" d="M375.57,-79.5C366.99,-79.5 358.4,-79.5 350.21,-79.5"/>
<polygon fill="#63b8ff" stroke="#63b8ff" points="375.62,-83 385.62,-79.5 375.62,-76 375.62,-83"/>
</a>
</g>
</g>
<!-- Node4 -->
<g id="Node000004" class="node">
<title>Node4</title>
<g id="a_Node000004"><a xlink:href="namespacem__start__up.html#a513ef24d6c8beafb8b94c015db266100" target="_top" xlink:title=" ">
<polygon fill="white" stroke="#666666" points="204,-94.5 89,-94.5 89,-64.5 204,-64.5 204,-94.5"/>
<text text-anchor="start" x="97" y="-82.5" font-family="Helvetica,sans-Serif" font-size="10.00">m_start_up::s_apply</text>
<text text-anchor="middle" x="146.5" y="-71.5" font-family="Helvetica,sans-Serif" font-size="10.00">_initial_condition</text>
</a>
</g>
</g>
<!-- Node3&#45;&gt;Node4 -->
<g id="edge3_Node000003_Node000004" class="edge">
<title>Node3&#45;&gt;Node4</title>
<g id="a_edge3_Node000003_Node000004"><a xlink:title=" ">
<path fill="none" stroke="#63b8ff" d="M229.69,-79.5C221.25,-79.5 212.66,-79.5 204.36,-79.5"/>
<polygon fill="#63b8ff" stroke="#63b8ff" points="229.87,-83 239.87,-79.5 229.87,-76 229.87,-83"/>
</a>
</g>
</g>
<!-- Node5 -->
<g id="Node000005" class="node">
<title>Node5</title>
<g id="a_Node000005"><a xlink:href="p__main_8f90.html#aeec10ee8e2940c953967da3e374e1579" target="_top" xlink:title="This program takes care of setting up the initial condition and grid data for the multicomponent flow...">
<polygon fill="white" stroke="#666666" points="53,-89 0,-89 0,-70 53,-70 53,-89"/>
<text text-anchor="middle" x="26.5" y="-77" font-family="Helvetica,sans-Serif" font-size="10.00">p_main</text>
</a>
</g>
</g>
<!-- Node4&#45;&gt;Node5 -->
<g id="edge4_Node000004_Node000005" class="edge">
<title>Node4&#45;&gt;Node5</title>
<g id="a_edge4_Node000004_Node000005"><a xlink:title=" ">
<path fill="none" stroke="#63b8ff" d="M78.65,-79.5C69.6,-79.5 60.81,-79.5 53.13,-79.5"/>
<polygon fill="#63b8ff" stroke="#63b8ff" points="78.92,-83 88.92,-79.5 78.92,-76 78.92,-83"/>
</a>
</g>
</g>
</g>
</svg>
