<?xml version="1.0" encoding="UTF-8" standalone="no"?>
<!DOCTYPE svg PUBLIC "-//W3C//DTD SVG 1.1//EN"
 "http://www.w3.org/Graphics/SVG/1.1/DTD/svg11.dtd">
<!-- Generated by graphviz version 2.43.0 (0)
 -->
<!-- Title: m_phase_change::s_infinite_relaxation_k Pages: 1 -->
<svg width="545pt" height="134pt"
 viewBox="0.00 0.00 545.00 134.00" xmlns="http://www.w3.org/2000/svg" xmlns:xlink="http://www.w3.org/1999/xlink">
<g id="graph0" class="graph" transform="scale(1 1) rotate(0) translate(4 130)">
<title>m_phase_change::s_infinite_relaxation_k</title>
<!-- Node1 -->
<g id="Node000001" class="node">
<title>Node1</title>
<g id="a_Node000001"><a xlink:title="This subroutine is created to activate either the pT&#45; (N fluids) or the pTg&#45;equilibrium (2 fluids for...">
<polygon fill="#999999" stroke="#666666" points="152,-78 0,-78 0,-48 152,-48 152,-78"/>
<text text-anchor="start" x="8" y="-66" font-family="Helvetica,sans-Serif" font-size="10.00">m_phase_change::s_infinite</text>
<text text-anchor="middle" x="76" y="-55" font-family="Helvetica,sans-Serif" font-size="10.00">_relaxation_k</text>
</a>
</g>
</g>
<!-- Node2 -->
<g id="Node000002" class="node">
<title>Node2</title>
<g id="a_Node000002"><a xlink:href="namespacem__phase__change.html#a9ea0e2ec54d07444859ef8d2d40bc398" target="_top" xlink:title="This auxiliary subroutine is created to activate the pT&#45;equilibrium for N fluids.">
<polygon fill="white" stroke="#666666" points="340,-126 188,-126 188,-96 340,-96 340,-126"/>
<text text-anchor="start" x="196" y="-114" font-family="Helvetica,sans-Serif" font-size="10.00">m_phase_change::s_infinite</text>
<text text-anchor="middle" x="264" y="-103" font-family="Helvetica,sans-Serif" font-size="10.00">_pt_relaxation_k</text>
</a>
</g>
</g>
<!-- Node1&#45;&gt;Node2 -->
<g id="edge1_Node000001_Node000002" class="edge">
<title>Node1&#45;&gt;Node2</title>
<g id="a_edge1_Node000001_Node000002"><a xlink:title=" ">
<path fill="none" stroke="#63b8ff" d="M135.34,-78.06C154.3,-82.95 175.5,-88.42 195.09,-93.48"/>
<polygon fill="#63b8ff" stroke="#63b8ff" points="194.31,-96.89 204.87,-96 196.06,-90.11 194.31,-96.89"/>
</a>
</g>
</g>
<!-- Node3 -->
<g id="Node000003" class="node">
<title>Node3</title>
<g id="a_Node000003"><a xlink:href="namespacem__phase__change.html#a4666ad0a83a07cf88daa10124fc36c4d" target="_top" xlink:title="This auxiliary subroutine is created to activate the pTg&#45;equilibrium for N fluids under pT and 2 flui...">
<polygon fill="white" stroke="#666666" points="340,-78 188,-78 188,-48 340,-48 340,-78"/>
<text text-anchor="start" x="196" y="-66" font-family="Helvetica,sans-Serif" font-size="10.00">m_phase_change::s_infinite</text>
<text text-anchor="middle" x="264" y="-55" font-family="Helvetica,sans-Serif" font-size="10.00">_ptg_relaxation_k</text>
</a>
</g>
</g>
<!-- Node1&#45;&gt;Node3 -->
<g id="edge2_Node000001_Node000003" class="edge">
<title>Node1&#45;&gt;Node3</title>
<g id="a_edge2_Node000001_Node000003"><a xlink:title=" ">
<path fill="none" stroke="#63b8ff" d="M152.12,-63C160.6,-63 169.28,-63 177.87,-63"/>
<polygon fill="#63b8ff" stroke="#63b8ff" points="177.9,-66.5 187.9,-63 177.9,-59.5 177.9,-66.5"/>
</a>
</g>
</g>
<!-- Node6 -->
<g id="Node000006" class="node">
<title>Node6</title>
<g id="a_Node000006"><a xlink:href="namespacem__phase__change.html#a57394d44907a0645748c6f46789fc633" target="_top" xlink:title="This auxiliary subroutine finds the Saturation temperature for a given saturation pressure through a ...">
<polygon fill="white" stroke="#666666" points="332.5,-27.5 195.5,-27.5 195.5,-8.5 332.5,-8.5 332.5,-27.5"/>
<text text-anchor="middle" x="264" y="-15.5" font-family="Helvetica,sans-Serif" font-size="10.00">m_phase_change::s_tsat</text>
</a>
</g>
</g>
<!-- Node1&#45;&gt;Node6 -->
<g id="edge5_Node000001_Node000006" class="edge">
<title>Node1&#45;&gt;Node6</title>
<g id="a_edge5_Node000001_Node000006"><a xlink:title=" ">
<path fill="none" stroke="#63b8ff" d="M139.19,-47.95C163.48,-42.08 190.93,-35.44 213.8,-29.9"/>
<polygon fill="#63b8ff" stroke="#63b8ff" points="214.73,-33.28 223.62,-27.53 213.08,-26.48 214.73,-33.28"/>
</a>
</g>
</g>
<!-- Node4 -->
<g id="Node000004" class="node">
<title>Node4</title>
<g id="a_Node000004"><a xlink:href="namespacem__phase__change.html#aaf5b3fe2bfeb490e3aa876607b649aac" target="_top" xlink:title="This auxiliary subroutine calculates the 2 x 2 Jacobian and, its inverse and transpose to be used in ...">
<polygon fill="white" stroke="#666666" points="537,-126 376,-126 376,-96 537,-96 537,-126"/>
<text text-anchor="start" x="384" y="-114" font-family="Helvetica,sans-Serif" font-size="10.00">m_phase_change::s_compute</text>
<text text-anchor="middle" x="456.5" y="-103" font-family="Helvetica,sans-Serif" font-size="10.00">_jacobian_matrix</text>
</a>
</g>
</g>
<!-- Node3&#45;&gt;Node4 -->
<g id="edge3_Node000003_Node000004" class="edge">
<title>Node3&#45;&gt;Node4</title>
<g id="a_edge3_Node000003_Node000004"><a xlink:title=" ">
<path fill="none" stroke="#63b8ff" d="M324.75,-78.06C344.26,-82.97 366.08,-88.47 386.22,-93.54"/>
<polygon fill="#63b8ff" stroke="#63b8ff" points="385.41,-96.95 395.96,-96 387.12,-90.16 385.41,-96.95"/>
</a>
</g>
</g>
<!-- Node5 -->
<g id="Node000005" class="node">
<title>Node5</title>
<g id="a_Node000005"><a xlink:href="namespacem__phase__change.html#ae03225bd2407d8542616ac2228bbe6dc" target="_top" xlink:title="This auxiliary subroutine computes the residue of the pTg&#45;equilibrium procedure.">
<polygon fill="white" stroke="#666666" points="537,-78 376,-78 376,-48 537,-48 537,-78"/>
<text text-anchor="start" x="384" y="-66" font-family="Helvetica,sans-Serif" font-size="10.00">m_phase_change::s_compute</text>
<text text-anchor="middle" x="456.5" y="-55" font-family="Helvetica,sans-Serif" font-size="10.00">_ptg_residue</text>
</a>
</g>
</g>
<!-- Node3&#45;&gt;Node5 -->
<g id="edge4_Node000003_Node000005" class="edge">
<title>Node3&#45;&gt;Node5</title>
<g id="a_edge4_Node000003_Node000005"><a xlink:title=" ">
<path fill="none" stroke="#63b8ff" d="M340.02,-63C348.47,-63 357.15,-63 365.77,-63"/>
<polygon fill="#63b8ff" stroke="#63b8ff" points="365.85,-66.5 375.85,-63 365.85,-59.5 365.85,-66.5"/>
</a>
</g>
</g>
<!-- Node7 -->
<g id="Node000007" class="node">
<title>Node7</title>
<g id="a_Node000007"><a xlink:href="namespacem__helper__basic.html#a58590a12d49b9b884256a839f2be8610" target="_top" xlink:title="This procedure checks if two floating point numbers of wp are within tolerance.">
<polygon fill="white" stroke="#666666" points="527.5,-30 385.5,-30 385.5,0 527.5,0 527.5,-30"/>
<text text-anchor="start" x="393.5" y="-18" font-family="Helvetica,sans-Serif" font-size="10.00">m_helper_basic::f_approx</text>
<text text-anchor="middle" x="456.5" y="-7" font-family="Helvetica,sans-Serif" font-size="10.00">_equal</text>
</a>
</g>
</g>
<!-- Node6&#45;&gt;Node7 -->
<g id="edge6_Node000006_Node000007" class="edge">
<title>Node6&#45;&gt;Node7</title>
<g id="a_edge6_Node000006_Node000007"><a xlink:title=" ">
<path fill="none" stroke="#63b8ff" d="M332.7,-16.93C346.47,-16.72 361.08,-16.49 375.23,-16.26"/>
<polygon fill="#63b8ff" stroke="#63b8ff" points="375.5,-19.76 385.44,-16.1 375.39,-12.76 375.5,-19.76"/>
</a>
</g>
</g>
</g>
</svg>
