<?xml version="1.0" encoding="UTF-8" standalone="no"?>
<!DOCTYPE svg PUBLIC "-//W3C//DTD SVG 1.1//EN"
 "http://www.w3.org/Graphics/SVG/1.1/DTD/svg11.dtd">
<!-- Generated by graphviz version 2.43.0 (0)
 -->
<!-- Title: m_perturbation::s_elliptic_smoothing Pages: 1 -->
<!--zoomable 364 -->

<svg id="main" version="1.1" xmlns="http://www.w3.org/2000/svg" xmlns:xlink="http://www.w3.org/1999/xlink" xml:space="preserve" onload="init(evt)">

<style type="text/css"><![CDATA[
.node, .edge {opacity: 0.7;}
.node.selected, .edge.selected {opacity: 1;}
.edge:hover path { stroke: red; }
.edge:hover polygon { stroke: red; fill: red; }
]]></style>

<defs>
  <circle id="rim" cx="0" cy="0" r="7"/>
  <circle id="rim2" cx="0" cy="0" r="3.5"/>
  <g id="zoomPlus">
    <use xlink:href="#rim" fill="#404040"><set attributeName="fill" to="#808080" begin="zoomplus.mouseover" end="zoomplus.mouseout"/></use>
    <path d="M-4,0h8M0,-4v8" fill="none" stroke="white" stroke-width="1.5" pointer-events="none"/>
  </g>
  <g id="zoomMin">
    <use xlink:href="#rim" fill="#404040"><set attributeName="fill" to="#808080" begin="zoomminus.mouseover" end="zoomminus.mouseout"/></use>
    <path d="M-4,0h8" fill="none" stroke="white" stroke-width="1.5" pointer-events="none"/>
  </g>
  <g id="arrowUp" transform="translate(30 24)">
    <use xlink:href="#rim"/>
    <path pointer-events="none" fill="none" stroke="white" stroke-width="1.5" d="M0,-3.0v7 M-2.5,-0.5L0,-3.0L2.5,-0.5"/>
  </g>
  <g id="arrowRight" transform="rotate(90) translate(36 -43)">
    <use xlink:href="#rim"/>
    <path pointer-events="none" fill="none" stroke="white" stroke-width="1.5" d="M0,-3.0v7 M-2.5,-0.5L0,-3.0L2.5,-0.5"/>
  </g>
  <g id="arrowDown" transform="rotate(180) translate(-30 -48)">
    <use xlink:href="#rim"/>
    <path pointer-events="none" fill="none" stroke="white" stroke-width="1.5" d="M0,-3.0v7 M-2.5,-0.5L0,-3.0L2.5,-0.5"/>
  </g>
  <g id="arrowLeft" transform="rotate(270) translate(-36 17)">
    <use xlink:href="#rim"/>
    <path pointer-events="none" fill="none" stroke="white" stroke-width="1.5" d="M0,-3.0v7 M-2.5,-0.5L0,-3.0L2.5,-0.5"/>
  </g>
  <g id="resetDef">
    <use xlink:href="#rim2" fill="#404040"><set attributeName="fill" to="#808080" begin="reset.mouseover" end="reset.mouseout"/></use>
  </g>
</defs>
<script type="application/ecmascript">
var viewWidth = 666;
var viewHeight = 364;
var sectionId = 'dynsection-2';
</script>
<script type="application/ecmascript" xlink:href="svg.min.js"/>
<svg id="graph" class="graph">
<g id="viewport">
<title>m_perturbation::s_elliptic_smoothing</title>
<!-- Node1 -->
<g id="Node000001" class="node">
<title>Node1</title>
<g id="a_Node000001"><a xlink:title=" ">
<polygon fill="#999999" stroke="#666666" points="141,-198 0,-198 0,-168 141,-168 141,-198"/>
<text text-anchor="start" x="8" y="-186" font-family="Helvetica,sans-Serif" font-size="10.00">m_perturbation::s_elliptic</text>
<text text-anchor="middle" x="70.5" y="-175" font-family="Helvetica,sans-Serif" font-size="10.00">_smoothing</text>
</a>
</g>
</g>
<!-- Node2 -->
<g id="Node000002" class="node">
<title>Node2</title>
<g id="a_Node000002"><a xlink:href="namespacem__boundary__common.html#a759354204f31b7b1ecce6258ffec6a5c" target="_top" xlink:title="The purpose of this procedure is to populate the buffers of the primitive variables,...">
<polygon fill="white" stroke="#666666" points="308,-203.5 177,-203.5 177,-162.5 308,-162.5 308,-203.5"/>
<text text-anchor="start" x="185" y="-191.5" font-family="Helvetica,sans-Serif" font-size="10.00">m_boundary_common::</text>
<text text-anchor="start" x="185" y="-180.5" font-family="Helvetica,sans-Serif" font-size="10.00">s_populate_variables</text>
<text text-anchor="middle" x="242.5" y="-169.5" font-family="Helvetica,sans-Serif" font-size="10.00">_buffers</text>
</a>
</g>
</g>
<!-- Node1&#45;&gt;Node2 -->
<g id="edge1_Node000001_Node000002" class="edge">
<title>Node1&#45;&gt;Node2</title>
<g id="a_edge1_Node000001_Node000002"><a xlink:title=" ">
<path fill="none" stroke="#63b8ff" d="M141.14,-183C149.55,-183 158.16,-183 166.64,-183"/>
<polygon fill="#63b8ff" stroke="#63b8ff" points="166.9,-186.5 176.9,-183 166.9,-179.5 166.9,-186.5"/>
</a>
</g>
</g>
<!-- Node3 -->
<g id="Node000003" class="node">
<title>Node3</title>
<g id="a_Node000003"><a xlink:href="namespacem__boundary__common.html#a9b74149e76bd88834b76c187501a4e8b" target="_top" xlink:title=" ">
<polygon fill="white" stroke="#666666" points="475,-356 344,-356 344,-326 475,-326 475,-356"/>
<text text-anchor="start" x="352" y="-344" font-family="Helvetica,sans-Serif" font-size="10.00">m_boundary_common::</text>
<text text-anchor="middle" x="409.5" y="-333" font-family="Helvetica,sans-Serif" font-size="10.00">s_axis</text>
</a>
</g>
</g>
<!-- Node2&#45;&gt;Node3 -->
<g id="edge2_Node000002_Node000003" class="edge">
<title>Node2&#45;&gt;Node3</title>
<g id="a_edge2_Node000002_Node000003"><a xlink:title=" ">
<path fill="none" stroke="#63b8ff" d="M253.99,-203.62C269.78,-232.74 302.3,-285.84 344,-317 345.83,-318.37 347.74,-319.66 349.72,-320.89"/>
<polygon fill="#63b8ff" stroke="#63b8ff" points="348.27,-324.09 358.72,-325.85 351.65,-317.96 348.27,-324.09"/>
</a>
</g>
</g>
<!-- Node4 -->
<g id="Node000004" class="node">
<title>Node4</title>
<g id="a_Node000004"><a xlink:href="namespacem__boundary__common.html#abc80bead9c10f8e16f4743c3ce212049" target="_top" xlink:title=" ">
<polygon fill="white" stroke="#666666" points="475,-308 344,-308 344,-278 475,-278 475,-308"/>
<text text-anchor="start" x="352" y="-296" font-family="Helvetica,sans-Serif" font-size="10.00">m_boundary_common::</text>
<text text-anchor="middle" x="409.5" y="-285" font-family="Helvetica,sans-Serif" font-size="10.00">s_dirichlet</text>
</a>
</g>
</g>
<!-- Node2&#45;&gt;Node4 -->
<g id="edge3_Node000002_Node000004" class="edge">
<title>Node2&#45;&gt;Node4</title>
<g id="a_edge3_Node000002_Node000004"><a xlink:title=" ">
<path fill="none" stroke="#63b8ff" d="M265.8,-203.77C285.38,-221.3 315.16,-246.3 344,-264 349.43,-267.33 355.3,-270.5 361.22,-273.44"/>
<polygon fill="#63b8ff" stroke="#63b8ff" points="359.96,-276.72 370.49,-277.86 362.97,-270.4 359.96,-276.72"/>
</a>
</g>
</g>
<!-- Node5 -->
<g id="Node000005" class="node">
<title>Node5</title>
<g id="a_Node000005"><a xlink:href="namespacem__boundary__common.html#a9cdab2f7fce344328a88551ae040c278" target="_top" xlink:title=" ">
<polygon fill="white" stroke="#666666" points="658,-286 511,-286 511,-256 658,-256 658,-286"/>
<text text-anchor="start" x="519" y="-274" font-family="Helvetica,sans-Serif" font-size="10.00">m_boundary_common::</text>
<text text-anchor="middle" x="584.5" y="-263" font-family="Helvetica,sans-Serif" font-size="10.00">s_ghost_cell_extrapolation</text>
</a>
</g>
</g>
<!-- Node2&#45;&gt;Node5 -->
<g id="edge5_Node000002_Node000005" class="edge">
<title>Node2&#45;&gt;Node5</title>
<g id="a_edge5_Node000002_Node000005"><a xlink:title=" ">
<path fill="none" stroke="#63b8ff" d="M280.19,-203.58C298.8,-213.22 322.06,-224.08 344,-231 394.85,-247.04 453.91,-256.99 500.65,-262.96"/>
<polygon fill="#63b8ff" stroke="#63b8ff" points="500.38,-266.45 510.74,-264.21 501.24,-259.5 500.38,-266.45"/>
</a>
</g>
</g>
<!-- Node6 -->
<g id="Node000006" class="node">
<title>Node6</title>
<g id="a_Node000006"><a xlink:href="namespacem__boundary__common.html#a505e465e72df1ebdee385da3f52e128c" target="_top" xlink:title=" ">
<polygon fill="white" stroke="#666666" points="475,-222 344,-222 344,-192 475,-192 475,-222"/>
<text text-anchor="start" x="352" y="-210" font-family="Helvetica,sans-Serif" font-size="10.00">m_boundary_common::</text>
<text text-anchor="middle" x="409.5" y="-199" font-family="Helvetica,sans-Serif" font-size="10.00">s_no_slip_wall</text>
</a>
</g>
</g>
<!-- Node2&#45;&gt;Node6 -->
<g id="edge6_Node000002_Node000006" class="edge">
<title>Node2&#45;&gt;Node6</title>
<g id="a_edge6_Node000002_Node000006"><a xlink:title=" ">
<path fill="none" stroke="#63b8ff" d="M308.24,-192.42C316.67,-193.64 325.37,-194.91 333.95,-196.16"/>
<polygon fill="#63b8ff" stroke="#63b8ff" points="333.55,-199.63 343.95,-197.61 334.56,-192.71 333.55,-199.63"/>
</a>
</g>
</g>
<!-- Node7 -->
<g id="Node000007" class="node">
<title>Node7</title>
<g id="a_Node000007"><a xlink:href="namespacem__boundary__common.html#a66500df566e213f303e7e337de5665fc" target="_top" xlink:title=" ">
<polygon fill="white" stroke="#666666" points="475,-174 344,-174 344,-144 475,-144 475,-174"/>
<text text-anchor="start" x="352" y="-162" font-family="Helvetica,sans-Serif" font-size="10.00">m_boundary_common::</text>
<text text-anchor="middle" x="409.5" y="-151" font-family="Helvetica,sans-Serif" font-size="10.00">s_periodic</text>
</a>
</g>
</g>
<!-- Node2&#45;&gt;Node7 -->
<g id="edge7_Node000002_Node000007" class="edge">
<title>Node2&#45;&gt;Node7</title>
<g id="a_edge7_Node000002_Node000007"><a xlink:title=" ">
<path fill="none" stroke="#63b8ff" d="M308.24,-173.58C316.67,-172.36 325.37,-171.09 333.95,-169.84"/>
<polygon fill="#63b8ff" stroke="#63b8ff" points="334.56,-173.29 343.95,-168.39 333.55,-166.37 334.56,-173.29"/>
</a>
</g>
</g>
<!-- Node8 -->
<g id="Node000008" class="node">
<title>Node8</title>
<g id="a_Node000008"><a xlink:href="namespacem__boundary__common.html#ab3c9ab4474426f2bbdf90454dbf7711d" target="_top" xlink:title=" ">
<polygon fill="white" stroke="#666666" points="475,-126 344,-126 344,-96 475,-96 475,-126"/>
<text text-anchor="start" x="352" y="-114" font-family="Helvetica,sans-Serif" font-size="10.00">m_boundary_common::</text>
<text text-anchor="middle" x="409.5" y="-103" font-family="Helvetica,sans-Serif" font-size="10.00">s_qbmm_extrapolation</text>
</a>
</g>
</g>
<!-- Node2&#45;&gt;Node8 -->
<g id="edge8_Node000002_Node000008" class="edge">
<title>Node2&#45;&gt;Node8</title>
<g id="a_edge8_Node000002_Node000008"><a xlink:title=" ">
<path fill="none" stroke="#63b8ff" d="M284.68,-162.31C302.72,-153.51 324.24,-143.38 344,-135 348.13,-133.25 352.44,-131.49 356.79,-129.77"/>
<polygon fill="#63b8ff" stroke="#63b8ff" points="358.25,-132.96 366.3,-126.08 355.72,-126.44 358.25,-132.96"/>
</a>
</g>
</g>
<!-- Node9 -->
<g id="Node000009" class="node">
<title>Node9</title>
<g id="a_Node000009"><a xlink:href="namespacem__boundary__common.html#a956b34bbd7704ada90409ea5714690dc" target="_top" xlink:title=" ">
<polygon fill="white" stroke="#666666" points="475,-78 344,-78 344,-48 475,-48 475,-78"/>
<text text-anchor="start" x="352" y="-66" font-family="Helvetica,sans-Serif" font-size="10.00">m_boundary_common::</text>
<text text-anchor="middle" x="409.5" y="-55" font-family="Helvetica,sans-Serif" font-size="10.00">s_slip_wall</text>
</a>
</g>
</g>
<!-- Node2&#45;&gt;Node9 -->
<g id="edge9_Node000002_Node000009" class="edge">
<title>Node2&#45;&gt;Node9</title>
<g id="a_edge9_Node000002_Node000009"><a xlink:title=" ">
<path fill="none" stroke="#63b8ff" d="M260.45,-162.46C279.04,-141.08 310.66,-107.87 344,-87 346.6,-85.37 349.33,-83.83 352.13,-82.37"/>
<polygon fill="#63b8ff" stroke="#63b8ff" points="353.76,-85.47 361.27,-78 350.74,-79.16 353.76,-85.47"/>
</a>
</g>
</g>
<!-- Node10 -->
<g id="Node000010" class="node">
<title>Node10</title>
<g id="a_Node000010"><a xlink:href="namespacem__boundary__common.html#a5aa960eb27f5b03cd4dc33e583c69e67" target="_top" xlink:title=" ">
<polygon fill="white" stroke="#666666" points="475,-30 344,-30 344,0 475,0 475,-30"/>
<text text-anchor="start" x="352" y="-18" font-family="Helvetica,sans-Serif" font-size="10.00">m_boundary_common::</text>
<text text-anchor="middle" x="409.5" y="-7" font-family="Helvetica,sans-Serif" font-size="10.00">s_symmetry</text>
</a>
</g>
</g>
<!-- Node2&#45;&gt;Node10 -->
<g id="edge10_Node000002_Node000010" class="edge">
<title>Node2&#45;&gt;Node10</title>
<g id="a_edge10_Node000002_Node000010"><a xlink:title=" ">
<path fill="none" stroke="#63b8ff" d="M252.84,-162.37C267.84,-131.42 300.13,-72.97 344,-39 345.77,-37.63 347.62,-36.34 349.53,-35.11"/>
<polygon fill="#63b8ff" stroke="#63b8ff" points="351.3,-38.13 358.27,-30.16 347.85,-32.04 351.3,-38.13"/>
</a>
</g>
</g>
<!-- Node4&#45;&gt;Node5 -->
<g id="edge4_Node000004_Node000005" class="edge">
<title>Node4&#45;&gt;Node5</title>
<g id="a_edge4_Node000004_Node000005"><a xlink:title=" ">
<path fill="none" stroke="#63b8ff" d="M475.41,-284.75C483.75,-283.69 492.37,-282.59 500.95,-281.5"/>
<polygon fill="#63b8ff" stroke="#63b8ff" points="501.49,-284.96 510.97,-280.22 500.6,-278.01 501.49,-284.96"/>
</a>
</g>
</g>
</g>
</svg>

<g id="navigator" transform="translate(0 0)" fill="#404254">
  <rect fill="#f2f5e9" fill-opacity="0.5" stroke="#606060" stroke-width=".5" x="0" y="0" width="60" height="60"/>
  <use id="zoomplus" xlink:href="#zoomPlus" x="17" y="9" onmousedown="handleZoom(evt,'in')"/>
  <use id="zoomminus" xlink:href="#zoomMin" x="42" y="9" onmousedown="handleZoom(evt,'out')"/>
  <use id="reset" xlink:href="#resetDef" x="30" y="36" onmousedown="handleReset()"/>
   <use id="arrowup" xlink:href="#arrowUp" x="0" y="0" onmousedown="handlePan(0,-1)"/>
  <use id="arrowright" xlink:href="#arrowRight" x="0" y="0" onmousedown="handlePan(1,0)"/>
  <use id="arrowdown" xlink:href="#arrowDown" x="0" y="0" onmousedown="handlePan(0,1)"/>
  <use id="arrowleft" xlink:href="#arrowLeft" x="0" y="0" onmousedown="handlePan(-1,0)"/>
</g>
<svg viewBox="0 0 15 15" width="100%" height="30px" preserveAspectRatio="xMaxYMin meet">
 <g id="arrow_out" transform="scale(0.3 0.3)">
  <a xlink:href="namespacem__perturbation_a035378d69a4ac383a84227d47b13cb0b_cgraph_org.svg" target="_base">
   <rect id="button" ry="5" rx="5" y="6" x="6" height="38" width="38"
        fill="#f2f5e9" fill-opacity="0.5" stroke="#606060" stroke-width="1.0"/>
   <path id="arrow"
     d="M 11.500037,31.436501 C 11.940474,20.09759 22.043105,11.32322 32.158766,21.979434 L 37.068811,17.246167 C 37.068811,17.246167 37.088388,32 37.088388,32 L 22.160133,31.978069 C 22.160133,31.978069 26.997745,27.140456 26.997745,27.140456 C 18.528582,18.264221 13.291696,25.230495 11.500037,31.436501 z"
     style="fill:#404040;"/>
  </a>
 </g>
</svg>

<style type='text/css'>
<![CDATA[
[data-mouse-over-selected='false'] { opacity: 0.7; }
[data-mouse-over-selected='true']  { opacity: 1.0; }
]]>
</style>
<script type="application/ecmascript"><![CDATA[
document.addEventListener('DOMContentLoaded', (event) => {
  highlightEdges();
  highlightAdjacentNodes();
});
]]></script>
</svg>
