<?xml version="1.0" encoding="UTF-8" standalone="no"?>
<!DOCTYPE svg PUBLIC "-//W3C//DTD SVG 1.1//EN"
 "http://www.w3.org/Graphics/SVG/1.1/DTD/svg11.dtd">
<!-- Generated by graphviz version 2.43.0 (0)
 -->
<!-- Title: s_hyqmom Pages: 1 -->
<svg width="352pt" height="27pt"
 viewBox="0.00 0.00 352.00 27.00" xmlns="http://www.w3.org/2000/svg" xmlns:xlink="http://www.w3.org/1999/xlink">
<g id="graph0" class="graph" transform="scale(1 1) rotate(0) translate(4 23)">
<title>s_hyqmom</title>
<!-- Node1 -->
<g id="Node000001" class="node">
<title>Node1</title>
<g id="a_Node000001"><a xlink:title=" ">
<polygon fill="#999999" stroke="#666666" points="344,-19 273,-19 273,0 344,0 344,-19"/>
<text text-anchor="middle" x="308.5" y="-7" font-family="Helvetica,sans-Serif" font-size="10.00">s_hyqmom</text>
</a>
</g>
</g>
<!-- Node2 -->
<g id="Node000002" class="node">
<title>Node2</title>
<g id="a_Node000002"><a xlink:href="m__qbmm_8fpp_8f90.html#a0b9d9ff40ef29984a44a7812a3d37e59" target="_top" xlink:title=" ">
<polygon fill="white" stroke="#666666" points="237,-19 161,-19 161,0 237,0 237,-19"/>
<text text-anchor="middle" x="199" y="-7" font-family="Helvetica,sans-Serif" font-size="10.00">s_chyqmom</text>
</a>
</g>
</g>
<!-- Node1&#45;&gt;Node2 -->
<g id="edge1_Node000001_Node000002" class="edge">
<title>Node1&#45;&gt;Node2</title>
<g id="a_edge1_Node000001_Node000002"><a xlink:title=" ">
<path fill="none" stroke="#63b8ff" d="M262.72,-9.5C254.21,-9.5 245.38,-9.5 237.14,-9.5"/>
<polygon fill="#63b8ff" stroke="#63b8ff" points="262.89,-13 272.89,-9.5 262.89,-6 262.89,-13"/>
</a>
</g>
</g>
<!-- Node3 -->
<g id="Node000003" class="node">
<title>Node3</title>
<g id="a_Node000003"><a xlink:href="namespacem__qbmm.html#a8e82c3d0882275ddb17f8a2558c43637" target="_top" xlink:title=" ">
<polygon fill="white" stroke="#666666" points="125,-19 0,-19 0,0 125,0 125,-19"/>
<text text-anchor="middle" x="62.5" y="-7" font-family="Helvetica,sans-Serif" font-size="10.00">m_qbmm::s_mom_inv</text>
</a>
</g>
</g>
<!-- Node2&#45;&gt;Node3 -->
<g id="edge2_Node000002_Node000003" class="edge">
<title>Node2&#45;&gt;Node3</title>
<g id="a_edge2_Node000002_Node000003"><a xlink:title=" ">
<path fill="none" stroke="#63b8ff" d="M150.66,-9.5C142.37,-9.5 133.63,-9.5 125.02,-9.5"/>
<polygon fill="#63b8ff" stroke="#63b8ff" points="150.89,-13 160.89,-9.5 150.89,-6 150.89,-13"/>
</a>
</g>
</g>
</g>
</svg>
