<?xml version="1.0" encoding="UTF-8" standalone="no"?>
<!DOCTYPE svg PUBLIC "-//W3C//DTD SVG 1.1//EN"
 "http://www.w3.org/Graphics/SVG/1.1/DTD/svg11.dtd">
<!-- Generated by graphviz version 2.43.0 (0)
 -->
<!-- Title: m_ibm::s_populate_ib_buffers Pages: 1 -->
<svg width="548pt" height="70pt"
 viewBox="0.00 0.00 548.00 69.50" xmlns="http://www.w3.org/2000/svg" xmlns:xlink="http://www.w3.org/1999/xlink">
<g id="graph0" class="graph" transform="scale(1 1) rotate(0) translate(4 65.5)">
<title>m_ibm::s_populate_ib_buffers</title>
<!-- Node1 -->
<g id="Node000001" class="node">
<title>Node1</title>
<g id="a_Node000001"><a xlink:title=" ">
<polygon fill="#999999" stroke="#666666" points="540,-42.5 416,-42.5 416,-12.5 540,-12.5 540,-42.5"/>
<text text-anchor="start" x="424" y="-30.5" font-family="Helvetica,sans-Serif" font-size="10.00">m_ibm::s_populate_ib</text>
<text text-anchor="middle" x="478" y="-19.5" font-family="Helvetica,sans-Serif" font-size="10.00">_buffers</text>
</a>
</g>
</g>
<!-- Node2 -->
<g id="Node000002" class="node">
<title>Node2</title>
<g id="a_Node000002"><a xlink:href="namespacem__ibm.html#a14f4b0cb1d4933c3e8e0a30f301da3ad" target="_top" xlink:title="Initializes the values of various IBM variables, such as ghost points and image points.">
<polygon fill="white" stroke="#666666" points="376.5,-56 258.5,-56 258.5,-37 376.5,-37 376.5,-56"/>
<text text-anchor="middle" x="317.5" y="-44" font-family="Helvetica,sans-Serif" font-size="10.00">m_ibm::s_ibm_setup</text>
</a>
</g>
</g>
<!-- Node1&#45;&gt;Node2 -->
<g id="edge1_Node000001_Node000002" class="edge">
<title>Node1&#45;&gt;Node2</title>
<g id="a_edge1_Node000001_Node000002"><a xlink:title=" ">
<path fill="none" stroke="#63b8ff" d="M405.71,-36.05C396.02,-37.21 386.18,-38.39 376.76,-39.52"/>
<polygon fill="#63b8ff" stroke="#63b8ff" points="406.21,-39.51 415.72,-34.85 405.37,-32.56 406.21,-39.51"/>
</a>
</g>
</g>
<!-- Node5 -->
<g id="Node000005" class="node">
<title>Node5</title>
<g id="a_Node000005"><a xlink:href="namespacem__ibm.html#ac62e47c0f28b708ae85d0ab0d3675486" target="_top" xlink:title="Resets the current indexes of immersed boundaries and replaces them after updating the position of ea...">
<polygon fill="white" stroke="#666666" points="380,-19 255,-19 255,0 380,0 380,-19"/>
<text text-anchor="middle" x="317.5" y="-7" font-family="Helvetica,sans-Serif" font-size="10.00">m_ibm::s_update_mib</text>
</a>
</g>
</g>
<!-- Node1&#45;&gt;Node5 -->
<g id="edge4_Node000001_Node000005" class="edge">
<title>Node1&#45;&gt;Node5</title>
<g id="a_edge4_Node000001_Node000005"><a xlink:title=" ">
<path fill="none" stroke="#63b8ff" d="M405.76,-19.41C397.21,-18.44 388.54,-17.45 380.14,-16.5"/>
<polygon fill="#63b8ff" stroke="#63b8ff" points="405.39,-22.89 415.72,-20.54 406.18,-15.93 405.39,-22.89"/>
</a>
</g>
</g>
<!-- Node3 -->
<g id="Node000003" class="node">
<title>Node3</title>
<g id="a_Node000003"><a xlink:href="namespacem__start__up.html#a1fb7a3f9d412acd2a9cbcfe8b45006dd" target="_top" xlink:title=" ">
<polygon fill="white" stroke="#666666" points="219,-61.5 89,-61.5 89,-31.5 219,-31.5 219,-61.5"/>
<text text-anchor="start" x="97" y="-49.5" font-family="Helvetica,sans-Serif" font-size="10.00">m_start_up::s_initialize</text>
<text text-anchor="middle" x="154" y="-38.5" font-family="Helvetica,sans-Serif" font-size="10.00">_modules</text>
</a>
</g>
</g>
<!-- Node2&#45;&gt;Node3 -->
<g id="edge2_Node000002_Node000003" class="edge">
<title>Node2&#45;&gt;Node3</title>
<g id="a_edge2_Node000002_Node000003"><a xlink:title=" ">
<path fill="none" stroke="#63b8ff" d="M247.97,-46.5C238.44,-46.5 228.68,-46.5 219.24,-46.5"/>
<polygon fill="#63b8ff" stroke="#63b8ff" points="248.19,-50 258.19,-46.5 248.19,-43 248.19,-50"/>
</a>
</g>
</g>
<!-- Node4 -->
<g id="Node000004" class="node">
<title>Node4</title>
<g id="a_Node000004"><a xlink:href="p__main_8fpp_8f90.html#aeec10ee8e2940c953967da3e374e1579" target="_top" xlink:title="Quasi&#45;conservative, shock&#45; and interface&#45; capturing finite&#45;volume scheme for the multicomponent Navie...">
<polygon fill="white" stroke="#666666" points="53,-56 0,-56 0,-37 53,-37 53,-56"/>
<text text-anchor="middle" x="26.5" y="-44" font-family="Helvetica,sans-Serif" font-size="10.00">p_main</text>
</a>
</g>
</g>
<!-- Node3&#45;&gt;Node4 -->
<g id="edge3_Node000003_Node000004" class="edge">
<title>Node3&#45;&gt;Node4</title>
<g id="a_edge3_Node000003_Node000004"><a xlink:title=" ">
<path fill="none" stroke="#63b8ff" d="M78.74,-46.5C69.58,-46.5 60.76,-46.5 53.09,-46.5"/>
<polygon fill="#63b8ff" stroke="#63b8ff" points="78.78,-50 88.78,-46.5 78.78,-43 78.78,-50"/>
</a>
</g>
</g>
</g>
</svg>
