<?xml version="1.0" encoding="UTF-8" standalone="no"?>
<!DOCTYPE svg PUBLIC "-//W3C//DTD SVG 1.1//EN"
 "http://www.w3.org/Graphics/SVG/1.1/DTD/svg11.dtd">
<!-- Generated by graphviz version 2.43.0 (0)
 -->
<!-- Title: m_riemann_solvers::s_hlld_riemann_solver Pages: 1 -->
<svg width="379pt" height="253pt"
 viewBox="0.00 0.00 379.00 252.50" xmlns="http://www.w3.org/2000/svg" xmlns:xlink="http://www.w3.org/1999/xlink">
<g id="graph0" class="graph" transform="scale(1 1) rotate(0) translate(4 248.5)">
<title>m_riemann_solvers::s_hlld_riemann_solver</title>
<!-- Node1 -->
<g id="Node000001" class="node">
<title>Node1</title>
<g id="a_Node000001"><a xlink:title="HLLD Riemann solver resolves 5 of the 7 waves of MHD equations: 1 entropy wave, 2 Alfvén waves,...">
<polygon fill="#999999" stroke="#666666" points="126,-148.5 0,-148.5 0,-118.5 126,-118.5 126,-148.5"/>
<text text-anchor="start" x="8" y="-136.5" font-family="Helvetica,sans-Serif" font-size="10.00">m_riemann_solvers::</text>
<text text-anchor="middle" x="63" y="-125.5" font-family="Helvetica,sans-Serif" font-size="10.00">s_hlld_riemann_solver</text>
</a>
</g>
</g>
<!-- Node2 -->
<g id="Node000002" class="node">
<title>Node2</title>
<g id="a_Node000002"><a xlink:href="namespacem__variables__conversion.html#a03d13e39beb1daa9f6a59a469b10ebb5" target="_top" xlink:title=" ">
<polygon fill="white" stroke="#666666" points="371,-244.5 162,-244.5 162,-214.5 371,-214.5 371,-244.5"/>
<text text-anchor="start" x="170" y="-232.5" font-family="Helvetica,sans-Serif" font-size="10.00">m_variables_conversion</text>
<text text-anchor="middle" x="266.5" y="-221.5" font-family="Helvetica,sans-Serif" font-size="10.00">::s_compute_fast_magnetosonic_speed</text>
</a>
</g>
</g>
<!-- Node1&#45;&gt;Node2 -->
<g id="edge1_Node000001_Node000002" class="edge">
<title>Node1&#45;&gt;Node2</title>
<g id="a_edge1_Node000001_Node000002"><a xlink:title=" ">
<path fill="none" stroke="#63b8ff" d="M80.01,-148.51C98.4,-164.94 130.16,-190.87 162,-205.5 166.43,-207.53 171.05,-209.41 175.76,-211.12"/>
<polygon fill="#63b8ff" stroke="#63b8ff" points="174.97,-214.55 185.57,-214.44 177.22,-207.92 174.97,-214.55"/>
</a>
</g>
</g>
<!-- Node3 -->
<g id="Node000003" class="node">
<title>Node3</title>
<g id="a_Node000003"><a xlink:href="namespacem__variables__conversion.html#a812d29cc47e80e7173d8f4f877d7b6f6" target="_top" xlink:title=" ">
<polygon fill="white" stroke="#666666" points="346.5,-196.5 186.5,-196.5 186.5,-166.5 346.5,-166.5 346.5,-196.5"/>
<text text-anchor="start" x="194.5" y="-184.5" font-family="Helvetica,sans-Serif" font-size="10.00">m_variables_conversion</text>
<text text-anchor="middle" x="266.5" y="-173.5" font-family="Helvetica,sans-Serif" font-size="10.00">::s_compute_speed_of_sound</text>
</a>
</g>
</g>
<!-- Node1&#45;&gt;Node3 -->
<g id="edge2_Node000001_Node000003" class="edge">
<title>Node1&#45;&gt;Node3</title>
<g id="a_edge2_Node000001_Node000003"><a xlink:title=" ">
<path fill="none" stroke="#63b8ff" d="M124.87,-148.53C137.16,-151.53 149.99,-154.64 162,-157.5 171.12,-159.67 180.7,-161.93 190.2,-164.15"/>
<polygon fill="#63b8ff" stroke="#63b8ff" points="189.51,-167.59 200.05,-166.45 191.1,-160.77 189.51,-167.59"/>
</a>
</g>
</g>
<!-- Node4 -->
<g id="Node000004" class="node">
<title>Node4</title>
<g id="a_Node000004"><a xlink:href="namespacem__riemann__solvers.html#a51d42487a854ac450d85324c77d51bdf" target="_top" xlink:title="Deallocation and/or disassociation procedures that are needed to finalize the selected Riemann proble...">
<polygon fill="white" stroke="#666666" points="338,-148.5 195,-148.5 195,-118.5 338,-118.5 338,-148.5"/>
<text text-anchor="start" x="203" y="-136.5" font-family="Helvetica,sans-Serif" font-size="10.00">m_riemann_solvers::</text>
<text text-anchor="middle" x="266.5" y="-125.5" font-family="Helvetica,sans-Serif" font-size="10.00">s_finalize_riemann_solver</text>
</a>
</g>
</g>
<!-- Node1&#45;&gt;Node4 -->
<g id="edge3_Node000001_Node000004" class="edge">
<title>Node1&#45;&gt;Node4</title>
<g id="a_edge3_Node000001_Node000004"><a xlink:title=" ">
<path fill="none" stroke="#63b8ff" d="M126.1,-133.5C144.61,-133.5 165.18,-133.5 184.7,-133.5"/>
<polygon fill="#63b8ff" stroke="#63b8ff" points="184.8,-137 194.8,-133.5 184.8,-130 184.8,-137"/>
</a>
</g>
</g>
<!-- Node5 -->
<g id="Node000005" class="node">
<title>Node5</title>
<g id="a_Node000005"><a xlink:href="namespacem__riemann__solvers.html#a99ceccfbf2d02b81c21cddbe156af054" target="_top" xlink:title="The computation of parameters, the allocation of memory, the association of pointers and/or the execu...">
<polygon fill="white" stroke="#666666" points="326,-100 207,-100 207,-59 326,-59 326,-100"/>
<text text-anchor="start" x="215" y="-88" font-family="Helvetica,sans-Serif" font-size="10.00">m_riemann_solvers::</text>
<text text-anchor="start" x="215" y="-77" font-family="Helvetica,sans-Serif" font-size="10.00">s_initialize_riemann</text>
<text text-anchor="middle" x="266.5" y="-66" font-family="Helvetica,sans-Serif" font-size="10.00">_solver</text>
</a>
</g>
</g>
<!-- Node1&#45;&gt;Node5 -->
<g id="edge4_Node000001_Node000005" class="edge">
<title>Node1&#45;&gt;Node5</title>
<g id="a_edge4_Node000001_Node000005"><a xlink:title=" ">
<path fill="none" stroke="#63b8ff" d="M120.13,-118.46C143.98,-112.07 172.01,-104.55 197.06,-97.84"/>
<polygon fill="#63b8ff" stroke="#63b8ff" points="198.11,-101.18 206.86,-95.21 196.3,-94.42 198.11,-101.18"/>
</a>
</g>
</g>
<!-- Node6 -->
<g id="Node000006" class="node">
<title>Node6</title>
<g id="a_Node000006"><a xlink:href="namespacem__riemann__solvers.html#a44904d3bd77a85446482eacbe696bac3" target="_top" xlink:title="The purpose of this subroutine is to populate the buffers of the left and right Riemann states variab...">
<polygon fill="white" stroke="#666666" points="342,-41 191,-41 191,0 342,0 342,-41"/>
<text text-anchor="start" x="199" y="-29" font-family="Helvetica,sans-Serif" font-size="10.00">m_riemann_solvers::</text>
<text text-anchor="start" x="199" y="-18" font-family="Helvetica,sans-Serif" font-size="10.00">s_populate_riemann_states</text>
<text text-anchor="middle" x="266.5" y="-7" font-family="Helvetica,sans-Serif" font-size="10.00">_variables_buffers</text>
</a>
</g>
</g>
<!-- Node1&#45;&gt;Node6 -->
<g id="edge5_Node000001_Node000006" class="edge">
<title>Node1&#45;&gt;Node6</title>
<g id="a_edge5_Node000001_Node000006"><a xlink:title=" ">
<path fill="none" stroke="#63b8ff" d="M77.81,-118.41C95.58,-99.87 128.21,-68.63 162,-50.5 168.04,-47.26 174.46,-44.34 181.05,-41.7"/>
<polygon fill="#63b8ff" stroke="#63b8ff" points="182.65,-44.84 190.77,-38.04 180.18,-38.28 182.65,-44.84"/>
</a>
</g>
</g>
</g>
</svg>
