<?xml version="1.0" encoding="UTF-8" standalone="no"?>
<!DOCTYPE svg PUBLIC "-//W3C//DTD SVG 1.1//EN"
 "http://www.w3.org/Graphics/SVG/1.1/DTD/svg11.dtd">
<!-- Generated by graphviz version 2.43.0 (0)
 -->
<!-- Title: m_bubbles::s_advance_step Pages: 1 -->
<svg width="1003pt" height="644pt"
 viewBox="0.00 0.00 1003.00 643.50" xmlns="http://www.w3.org/2000/svg" xmlns:xlink="http://www.w3.org/1999/xlink">
<g id="graph0" class="graph" transform="scale(1 1) rotate(0) translate(4 639.5)">
<title>m_bubbles::s_advance_step</title>
<!-- Node1 -->
<g id="Node000001" class="node">
<title>Node1</title>
<g id="a_Node000001"><a xlink:title="Adaptive time stepping routine for subgrid bubbles (See Heirer, E. Hairer S.P.Nørsett G....">
<polygon fill="#999999" stroke="#666666" points="154,-542 0,-542 0,-523 154,-523 154,-542"/>
<text text-anchor="middle" x="77" y="-530" font-family="Helvetica,sans-Serif" font-size="10.00">m_bubbles::s_advance_step</text>
</a>
</g>
</g>
<!-- Node2 -->
<g id="Node000002" class="node">
<title>Node2</title>
<g id="a_Node000002"><a xlink:href="namespacem__helper__basic.html#a3f0eae73a833f30924d4b2665a13a429" target="_top" xlink:title="This procedure checks if two floating point numbers of wp are within tolerance.">
<polygon fill="white" stroke="#666666" points="995,-612.5 853,-612.5 853,-582.5 995,-582.5 995,-612.5"/>
<text text-anchor="start" x="861" y="-600.5" font-family="Helvetica,sans-Serif" font-size="10.00">m_helper_basic::f_approx</text>
<text text-anchor="middle" x="924" y="-589.5" font-family="Helvetica,sans-Serif" font-size="10.00">_equal</text>
</a>
</g>
</g>
<!-- Node1&#45;&gt;Node2 -->
<g id="edge1_Node000001_Node000002" class="edge">
<title>Node1&#45;&gt;Node2</title>
<g id="a_edge1_Node000001_Node000002"><a xlink:title=" ">
<path fill="none" stroke="#63b8ff" d="M96.18,-542.01C146.7,-567.5 293.64,-635.5 424,-635.5 424,-635.5 424,-635.5 599.5,-635.5 682.83,-635.5 777.43,-622.91 842.7,-612.22"/>
<polygon fill="#63b8ff" stroke="#63b8ff" points="843.62,-615.62 852.92,-610.52 842.48,-608.71 843.62,-615.62"/>
</a>
</g>
</g>
<!-- Node3 -->
<g id="Node000003" class="node">
<title>Node3</title>
<g id="a_Node000003"><a xlink:href="namespacem__bubbles.html#a7be720440d2181f83a799ae0d9f610e7" target="_top" xlink:title="Integrate bubble variables over the given time step size, h, using a third&#45;order accurate embedded Ru...">
<polygon fill="white" stroke="#666666" points="318,-547.5 190,-547.5 190,-517.5 318,-517.5 318,-547.5"/>
<text text-anchor="start" x="198" y="-535.5" font-family="Helvetica,sans-Serif" font-size="10.00">m_bubbles::s_advance</text>
<text text-anchor="middle" x="254" y="-524.5" font-family="Helvetica,sans-Serif" font-size="10.00">_substep</text>
</a>
</g>
</g>
<!-- Node1&#45;&gt;Node3 -->
<g id="edge2_Node000001_Node000003" class="edge">
<title>Node1&#45;&gt;Node3</title>
<g id="a_edge2_Node000001_Node000003"><a xlink:title=" ">
<path fill="none" stroke="#63b8ff" d="M154.25,-532.5C162.7,-532.5 171.29,-532.5 179.69,-532.5"/>
<polygon fill="#63b8ff" stroke="#63b8ff" points="179.84,-536 189.84,-532.5 179.84,-529 179.84,-536"/>
</a>
</g>
</g>
<!-- Node18 -->
<g id="Node000018" class="node">
<title>Node18</title>
<g id="a_Node000018"><a xlink:href="namespacem__bubbles.html#a4b48725a84a60c73af7e378ffc3d3438" target="_top" xlink:title="Choose the initial time step size for the adaptive time stepping routine (See Heirer,...">
<polygon fill="white" stroke="#666666" points="311,-386.5 197,-386.5 197,-356.5 311,-356.5 311,-386.5"/>
<text text-anchor="start" x="205" y="-374.5" font-family="Helvetica,sans-Serif" font-size="10.00">m_bubbles::s_initial</text>
<text text-anchor="middle" x="254" y="-363.5" font-family="Helvetica,sans-Serif" font-size="10.00">_substep_h</text>
</a>
</g>
</g>
<!-- Node1&#45;&gt;Node18 -->
<g id="edge31_Node000001_Node000018" class="edge">
<title>Node1&#45;&gt;Node18</title>
<g id="a_edge31_Node000001_Node000018"><a xlink:title=" ">
<path fill="none" stroke="#63b8ff" d="M88.42,-522.91C115.76,-497.76 190.1,-429.37 228.82,-393.75"/>
<polygon fill="#63b8ff" stroke="#63b8ff" points="231.52,-396.02 236.51,-386.67 226.78,-390.86 231.52,-396.02"/>
</a>
</g>
</g>
<!-- Node3&#45;&gt;Node2 -->
<g id="edge3_Node000003_Node000002" class="edge">
<title>Node3&#45;&gt;Node2</title>
<g id="a_edge3_Node000003_Node000002"><a xlink:title=" ">
<path fill="none" stroke="#63b8ff" d="M318.04,-544.98C329.97,-547.23 342.36,-549.5 354,-551.5 432.86,-565.04 452.38,-570.55 532,-578.5 639.11,-589.2 763.36,-593.93 842.53,-595.99"/>
<polygon fill="#63b8ff" stroke="#63b8ff" points="842.83,-599.49 852.92,-596.25 843.01,-592.5 842.83,-599.49"/>
</a>
</g>
</g>
<!-- Node4 -->
<g id="Node000004" class="node">
<title>Node4</title>
<g id="a_Node000004"><a xlink:href="namespacem__bubbles.html#a5df386bacf57fa1f7799b9aad47a4f94" target="_top" xlink:title="Function that computes the bubble radial acceleration based on bubble models.">
<polygon fill="white" stroke="#666666" points="480,-294 370,-294 370,-275 480,-275 480,-294"/>
<text text-anchor="middle" x="425" y="-282" font-family="Helvetica,sans-Serif" font-size="10.00">m_bubbles::f_rddot</text>
</a>
</g>
</g>
<!-- Node3&#45;&gt;Node4 -->
<g id="edge4_Node000003_Node000004" class="edge">
<title>Node3&#45;&gt;Node4</title>
<g id="a_edge4_Node000003_Node000004"><a xlink:title=" ">
<path fill="none" stroke="#63b8ff" d="M265.32,-517.36C294.88,-473.97 379.84,-349.3 411.72,-302.52"/>
<polygon fill="#63b8ff" stroke="#63b8ff" points="414.78,-304.25 417.52,-294.02 408.99,-300.31 414.78,-304.25"/>
</a>
</g>
</g>
<!-- Node15 -->
<g id="Node000015" class="node">
<title>Node15</title>
<g id="a_Node000015"><a xlink:href="namespacem__bubbles.html#a88a8daa59a9552119dcf580be1833920" target="_top" xlink:title="Changes of pressure and vapor mass in the lagrange bubbles.">
<polygon fill="white" stroke="#666666" points="496,-542 354,-542 354,-523 496,-523 496,-542"/>
<text text-anchor="middle" x="425" y="-530" font-family="Helvetica,sans-Serif" font-size="10.00">m_bubbles::s_advance_el</text>
</a>
</g>
</g>
<!-- Node3&#45;&gt;Node15 -->
<g id="edge27_Node000003_Node000015" class="edge">
<title>Node3&#45;&gt;Node15</title>
<g id="a_edge27_Node000003_Node000015"><a xlink:title=" ">
<path fill="none" stroke="#63b8ff" d="M318.41,-532.5C326.76,-532.5 335.4,-532.5 343.98,-532.5"/>
<polygon fill="#63b8ff" stroke="#63b8ff" points="344,-536 354,-532.5 344,-529 344,-536"/>
</a>
</g>
</g>
<!-- Node4&#45;&gt;Node4 -->
<g id="edge19_Node000004_Node000004" class="edge">
<title>Node4&#45;&gt;Node4</title>
<g id="a_edge19_Node000004_Node000004"><a xlink:title=" ">
<path fill="none" stroke="#63b8ff" d="M398.8,-294.08C386.05,-302.73 394.79,-312 425,-312 445.3,-312 455.9,-307.82 456.81,-302.45"/>
<polygon fill="#63b8ff" stroke="#63b8ff" points="459.68,-300.44 451.2,-294.08 453.86,-304.34 459.68,-300.44"/>
</a>
</g>
</g>
<!-- Node5 -->
<g id="Node000005" class="node">
<title>Node5</title>
<g id="a_Node000005"><a xlink:href="namespacem__bubbles.html#aae7ae64f879a97d643b2d7bd9541d21d" target="_top" xlink:title="Function that computes the sound speed for the bubble.">
<polygon fill="white" stroke="#666666" points="652,-349 545,-349 545,-330 652,-330 652,-349"/>
<text text-anchor="middle" x="598.5" y="-337" font-family="Helvetica,sans-Serif" font-size="10.00">m_bubbles::f_cgas</text>
</a>
</g>
</g>
<!-- Node4&#45;&gt;Node5 -->
<g id="edge5_Node000004_Node000005" class="edge">
<title>Node4&#45;&gt;Node5</title>
<g id="a_edge5_Node000004_Node000005"><a xlink:title=" ">
<path fill="none" stroke="#63b8ff" d="M452.9,-294.01C474.26,-301.47 504.93,-311.98 532,-320.5 538.99,-322.7 546.42,-324.95 553.68,-327.09"/>
<polygon fill="#63b8ff" stroke="#63b8ff" points="552.84,-330.49 563.42,-329.93 554.8,-323.77 552.84,-330.49"/>
</a>
</g>
</g>
<!-- Node6 -->
<g id="Node000006" class="node">
<title>Node6</title>
<g id="a_Node000006"><a xlink:href="namespacem__bubbles.html#a18ae4c4ee0f2b0d92b8dfe7eb02d09ef" target="_top" xlink:title="Function that computes that bubble wall pressure for Gilmore bubbles.">
<polygon fill="white" stroke="#666666" points="653.5,-294 543.5,-294 543.5,-275 653.5,-275 653.5,-294"/>
<text text-anchor="middle" x="598.5" y="-282" font-family="Helvetica,sans-Serif" font-size="10.00">m_bubbles::f_cpbw</text>
</a>
</g>
</g>
<!-- Node4&#45;&gt;Node6 -->
<g id="edge7_Node000004_Node000006" class="edge">
<title>Node4&#45;&gt;Node6</title>
<g id="a_edge7_Node000004_Node000006"><a xlink:title=" ">
<path fill="none" stroke="#63b8ff" d="M480.26,-284.5C497.08,-284.5 515.77,-284.5 533.2,-284.5"/>
<polygon fill="#63b8ff" stroke="#63b8ff" points="533.3,-288 543.3,-284.5 533.3,-281 533.3,-288"/>
</a>
</g>
</g>
<!-- Node7 -->
<g id="Node000007" class="node">
<title>Node7</title>
<g id="a_Node000007"><a xlink:href="namespacem__bubbles.html#a81ceea09547775d9e7e50dbd6bf7386f" target="_top" xlink:title="Function that computes the bubble wall pressure for Keller–Miksis bubbles.">
<polygon fill="white" stroke="#666666" points="664,-239 533,-239 533,-220 664,-220 664,-239"/>
<text text-anchor="middle" x="598.5" y="-227" font-family="Helvetica,sans-Serif" font-size="10.00">m_bubbles::f_cpbw_km</text>
</a>
</g>
</g>
<!-- Node4&#45;&gt;Node7 -->
<g id="edge9_Node000004_Node000007" class="edge">
<title>Node4&#45;&gt;Node7</title>
<g id="a_edge9_Node000004_Node000007"><a xlink:title=" ">
<path fill="none" stroke="#63b8ff" d="M455.87,-274.92C484.19,-265.84 526.91,-252.14 558.02,-242.16"/>
<polygon fill="#63b8ff" stroke="#63b8ff" points="559.23,-245.45 567.68,-239.06 557.09,-238.78 559.23,-245.45"/>
</a>
</g>
</g>
<!-- Node9 -->
<g id="Node000009" class="node">
<title>Node9</title>
<g id="a_Node000009"><a xlink:href="namespacem__bubbles.html#a14183fd210b702c60dd2d95a6f4c8e7b" target="_top" xlink:title="Function that computes the time derivative of the driving pressure.">
<polygon fill="white" stroke="#666666" points="661,-184 536,-184 536,-165 661,-165 661,-184"/>
<text text-anchor="middle" x="598.5" y="-172" font-family="Helvetica,sans-Serif" font-size="10.00">m_bubbles::f_cpinfdot</text>
</a>
</g>
</g>
<!-- Node4&#45;&gt;Node9 -->
<g id="edge13_Node000004_Node000009" class="edge">
<title>Node4&#45;&gt;Node9</title>
<g id="a_edge13_Node000004_Node000009"><a xlink:title=" ">
<path fill="none" stroke="#63b8ff" d="M438.75,-274.93C458.37,-260.37 497.31,-232.06 532,-210.5 544.18,-202.93 558.04,-195.19 569.87,-188.84"/>
<polygon fill="#63b8ff" stroke="#63b8ff" points="571.66,-191.85 578.85,-184.07 568.37,-185.67 571.66,-191.85"/>
</a>
</g>
</g>
<!-- Node10 -->
<g id="Node000010" class="node">
<title>Node10</title>
<g id="a_Node000010"><a xlink:href="namespacem__bubbles.html#a3a49f60f2fa78d27a675690063d3f9ea" target="_top" xlink:title="Function that computes the bubble enthalpy.">
<polygon fill="white" stroke="#666666" points="644,-129 553,-129 553,-110 644,-110 644,-129"/>
<text text-anchor="middle" x="598.5" y="-117" font-family="Helvetica,sans-Serif" font-size="10.00">m_bubbles::f_h</text>
</a>
</g>
</g>
<!-- Node4&#45;&gt;Node10 -->
<g id="edge15_Node000004_Node000010" class="edge">
<title>Node4&#45;&gt;Node10</title>
<g id="a_edge15_Node000004_Node000010"><a xlink:title=" ">
<path fill="none" stroke="#63b8ff" d="M432.15,-274.69C446.99,-251.59 486.94,-192.9 532,-155.5 542.22,-147.02 554.74,-139.56 566.08,-133.67"/>
<polygon fill="#63b8ff" stroke="#63b8ff" points="567.87,-136.69 575.26,-129.1 564.75,-130.43 567.87,-136.69"/>
</a>
</g>
</g>
<!-- Node11 -->
<g id="Node000011" class="node">
<title>Node11</title>
<g id="a_Node000011"><a xlink:href="namespacem__bubbles.html#ac276af3c9b464b21aa811729baa84ed8" target="_top" xlink:title="Function that computes the time derivative of the enthalpy.">
<polygon fill="white" stroke="#666666" points="652,-74 545,-74 545,-55 652,-55 652,-74"/>
<text text-anchor="middle" x="598.5" y="-62" font-family="Helvetica,sans-Serif" font-size="10.00">m_bubbles::f_hdot</text>
</a>
</g>
</g>
<!-- Node4&#45;&gt;Node11 -->
<g id="edge17_Node000004_Node000011" class="edge">
<title>Node4&#45;&gt;Node11</title>
<g id="a_edge17_Node000004_Node000011"><a xlink:title=" ">
<path fill="none" stroke="#63b8ff" d="M429.37,-274.91C440.12,-245.49 476.18,-155.21 532,-100.5 541.12,-91.56 552.91,-84.17 563.97,-78.46"/>
<polygon fill="#63b8ff" stroke="#63b8ff" points="565.55,-81.59 573.02,-74.07 562.49,-75.29 565.55,-81.59"/>
</a>
</g>
</g>
<!-- Node12 -->
<g id="Node000012" class="node">
<title>Node12</title>
<g id="a_Node000012"><a xlink:href="namespacem__bubbles.html#a715af22ce26819c30d2d4f4e4e5ab0b4" target="_top" xlink:title="Function that computes the bubble radial acceleration.">
<polygon fill="white" stroke="#666666" points="659.5,-19 537.5,-19 537.5,0 659.5,0 659.5,-19"/>
<text text-anchor="middle" x="598.5" y="-7" font-family="Helvetica,sans-Serif" font-size="10.00">m_bubbles::f_rddot_g</text>
</a>
</g>
</g>
<!-- Node4&#45;&gt;Node12 -->
<g id="edge20_Node000004_Node000012" class="edge">
<title>Node4&#45;&gt;Node12</title>
<g id="a_edge20_Node000004_Node000012"><a xlink:title=" ">
<path fill="none" stroke="#63b8ff" d="M427.99,-274.6C435.54,-239.33 465.38,-118.05 532,-45.5 540.35,-36.41 551.54,-29.1 562.3,-23.51"/>
<polygon fill="#63b8ff" stroke="#63b8ff" points="564.09,-26.53 571.57,-19.04 561.05,-20.23 564.09,-26.53"/>
</a>
</g>
</g>
<!-- Node13 -->
<g id="Node000013" class="node">
<title>Node13</title>
<g id="a_Node000013"><a xlink:href="namespacem__bubbles.html#a83c550e90a8910cec7e95683ebd1ef35" target="_top" xlink:title="Function that computes the bubble radial acceleration for Keller–Miksis bubbles.">
<polygon fill="white" stroke="#666666" points="664,-459 533,-459 533,-440 664,-440 664,-459"/>
<text text-anchor="middle" x="598.5" y="-447" font-family="Helvetica,sans-Serif" font-size="10.00">m_bubbles::f_rddot_km</text>
</a>
</g>
</g>
<!-- Node4&#45;&gt;Node13 -->
<g id="edge22_Node000004_Node000013" class="edge">
<title>Node4&#45;&gt;Node13</title>
<g id="a_edge22_Node000004_Node000013"><a xlink:title=" ">
<path fill="none" stroke="#63b8ff" d="M430.16,-294.02C442.03,-320.07 478.69,-393.04 532,-430.5 534.85,-432.5 537.9,-434.29 541.08,-435.9"/>
<polygon fill="#63b8ff" stroke="#63b8ff" points="539.74,-439.13 550.31,-439.94 542.55,-432.72 539.74,-439.13"/>
</a>
</g>
</g>
<!-- Node14 -->
<g id="Node000014" class="node">
<title>Node14</title>
<g id="a_Node000014"><a xlink:href="namespacem__bubbles.html#af1d904ee7ec2c4fa5b6eecc8ac5d0b92" target="_top" xlink:title="Function that computes the bubble radial acceleration for Rayleigh&#45;Plesset bubbles.">
<polygon fill="white" stroke="#666666" points="661,-404 536,-404 536,-385 661,-385 661,-404"/>
<text text-anchor="middle" x="598.5" y="-392" font-family="Helvetica,sans-Serif" font-size="10.00">m_bubbles::f_rddot_rp</text>
</a>
</g>
</g>
<!-- Node4&#45;&gt;Node14 -->
<g id="edge25_Node000004_Node000014" class="edge">
<title>Node4&#45;&gt;Node14</title>
<g id="a_edge25_Node000004_Node000014"><a xlink:title=" ">
<path fill="none" stroke="#63b8ff" d="M434.62,-294.27C451.49,-312.82 490.83,-353.23 532,-375.5 536.03,-377.68 540.35,-379.64 544.76,-381.39"/>
<polygon fill="#63b8ff" stroke="#63b8ff" points="543.93,-384.81 554.52,-384.9 546.29,-378.22 543.93,-384.81"/>
</a>
</g>
</g>
<!-- Node5&#45;&gt;Node5 -->
<g id="edge6_Node000005_Node000005" class="edge">
<title>Node5&#45;&gt;Node5</title>
<g id="a_edge6_Node000005_Node000005"><a xlink:title=" ">
<path fill="none" stroke="#63b8ff" d="M573.84,-349.08C561.84,-357.73 570.06,-367 598.5,-367 617.16,-367 627.12,-363.01 628.37,-357.82"/>
<polygon fill="#63b8ff" stroke="#63b8ff" points="631.29,-355.88 623.16,-349.08 625.27,-359.47 631.29,-355.88"/>
</a>
</g>
</g>
<!-- Node6&#45;&gt;Node6 -->
<g id="edge8_Node000006_Node000006" class="edge">
<title>Node6&#45;&gt;Node6</title>
<g id="a_edge8_Node000006_Node000006"><a xlink:title=" ">
<path fill="none" stroke="#63b8ff" d="M573.84,-294.08C561.84,-302.73 570.06,-312 598.5,-312 617.16,-312 627.12,-308.01 628.37,-302.82"/>
<polygon fill="#63b8ff" stroke="#63b8ff" points="631.29,-300.88 623.16,-294.08 625.27,-304.47 631.29,-300.88"/>
</a>
</g>
</g>
<!-- Node7&#45;&gt;Node7 -->
<g id="edge10_Node000007_Node000007" class="edge">
<title>Node7&#45;&gt;Node7</title>
<g id="a_edge10_Node000007_Node000007"><a xlink:title=" ">
<path fill="none" stroke="#63b8ff" d="M573.84,-239.08C561.84,-247.73 570.06,-257 598.5,-257 617.16,-257 627.12,-253.01 628.37,-247.82"/>
<polygon fill="#63b8ff" stroke="#63b8ff" points="631.29,-245.88 623.16,-239.08 625.27,-249.47 631.29,-245.88"/>
</a>
</g>
</g>
<!-- Node8 -->
<g id="Node000008" class="node">
<title>Node8</title>
<g id="a_Node000008"><a xlink:href="namespacem__helper__basic.html#af1b06a05daa43f724ac3b0ff2f97db14" target="_top" xlink:title="Checks if a real(wp) variable is of default value.">
<polygon fill="white" stroke="#666666" points="817,-464.5 701,-464.5 701,-434.5 817,-434.5 817,-464.5"/>
<text text-anchor="start" x="709" y="-452.5" font-family="Helvetica,sans-Serif" font-size="10.00">m_helper_basic::f_is</text>
<text text-anchor="middle" x="759" y="-441.5" font-family="Helvetica,sans-Serif" font-size="10.00">_default</text>
</a>
</g>
</g>
<!-- Node7&#45;&gt;Node8 -->
<g id="edge11_Node000007_Node000008" class="edge">
<title>Node7&#45;&gt;Node8</title>
<g id="a_edge11_Node000007_Node000008"><a xlink:title=" ">
<path fill="none" stroke="#63b8ff" d="M624.87,-239.11C638.1,-245.12 653.82,-253.93 665,-265.5 710.46,-312.56 738.42,-386.24 750.69,-424.52"/>
<polygon fill="#63b8ff" stroke="#63b8ff" points="747.43,-425.82 753.74,-434.33 754.11,-423.74 747.43,-425.82"/>
</a>
</g>
</g>
<!-- Node8&#45;&gt;Node2 -->
<g id="edge12_Node000008_Node000002" class="edge">
<title>Node8&#45;&gt;Node2</title>
<g id="a_edge12_Node000008_Node000002"><a xlink:title=" ">
<path fill="none" stroke="#63b8ff" d="M776.53,-464.51C805.45,-490.77 865.35,-545.16 898.9,-575.62"/>
<polygon fill="#63b8ff" stroke="#63b8ff" points="896.67,-578.32 906.43,-582.45 901.38,-573.14 896.67,-578.32"/>
</a>
</g>
</g>
<!-- Node9&#45;&gt;Node9 -->
<g id="edge14_Node000009_Node000009" class="edge">
<title>Node9&#45;&gt;Node9</title>
<g id="a_edge14_Node000009_Node000009"><a xlink:title=" ">
<path fill="none" stroke="#63b8ff" d="M573.84,-184.08C561.84,-192.73 570.06,-202 598.5,-202 617.16,-202 627.12,-198.01 628.37,-192.82"/>
<polygon fill="#63b8ff" stroke="#63b8ff" points="631.29,-190.88 623.16,-184.08 625.27,-194.47 631.29,-190.88"/>
</a>
</g>
</g>
<!-- Node10&#45;&gt;Node10 -->
<g id="edge16_Node000010_Node000010" class="edge">
<title>Node10&#45;&gt;Node10</title>
<g id="a_edge16_Node000010_Node000010"><a xlink:title=" ">
<path fill="none" stroke="#63b8ff" d="M573.84,-129.08C561.84,-137.73 570.06,-147 598.5,-147 617.16,-147 627.12,-143.01 628.37,-137.82"/>
<polygon fill="#63b8ff" stroke="#63b8ff" points="631.29,-135.88 623.16,-129.08 625.27,-139.47 631.29,-135.88"/>
</a>
</g>
</g>
<!-- Node11&#45;&gt;Node11 -->
<g id="edge18_Node000011_Node000011" class="edge">
<title>Node11&#45;&gt;Node11</title>
<g id="a_edge18_Node000011_Node000011"><a xlink:title=" ">
<path fill="none" stroke="#63b8ff" d="M573.84,-74.08C561.84,-82.73 570.06,-92 598.5,-92 617.16,-92 627.12,-88.01 628.37,-82.82"/>
<polygon fill="#63b8ff" stroke="#63b8ff" points="631.29,-80.88 623.16,-74.08 625.27,-84.47 631.29,-80.88"/>
</a>
</g>
</g>
<!-- Node12&#45;&gt;Node12 -->
<g id="edge21_Node000012_Node000012" class="edge">
<title>Node12&#45;&gt;Node12</title>
<g id="a_edge21_Node000012_Node000012"><a xlink:title=" ">
<path fill="none" stroke="#63b8ff" d="M573.84,-19.08C561.84,-27.73 570.06,-37 598.5,-37 617.16,-37 627.12,-33.01 628.37,-27.82"/>
<polygon fill="#63b8ff" stroke="#63b8ff" points="631.29,-25.88 623.16,-19.08 625.27,-29.47 631.29,-25.88"/>
</a>
</g>
</g>
<!-- Node13&#45;&gt;Node8 -->
<g id="edge23_Node000013_Node000008" class="edge">
<title>Node13&#45;&gt;Node8</title>
<g id="a_edge23_Node000013_Node000008"><a xlink:title=" ">
<path fill="none" stroke="#63b8ff" d="M664.43,-449.5C673.09,-449.5 681.99,-449.5 690.69,-449.5"/>
<polygon fill="#63b8ff" stroke="#63b8ff" points="690.79,-453 700.79,-449.5 690.79,-446 690.79,-453"/>
</a>
</g>
</g>
<!-- Node13&#45;&gt;Node13 -->
<g id="edge24_Node000013_Node000013" class="edge">
<title>Node13&#45;&gt;Node13</title>
<g id="a_edge24_Node000013_Node000013"><a xlink:title=" ">
<path fill="none" stroke="#63b8ff" d="M573.84,-459.08C561.84,-467.73 570.06,-477 598.5,-477 617.16,-477 627.12,-473.01 628.37,-467.82"/>
<polygon fill="#63b8ff" stroke="#63b8ff" points="631.29,-465.88 623.16,-459.08 625.27,-469.47 631.29,-465.88"/>
</a>
</g>
</g>
<!-- Node14&#45;&gt;Node14 -->
<g id="edge26_Node000014_Node000014" class="edge">
<title>Node14&#45;&gt;Node14</title>
<g id="a_edge26_Node000014_Node000014"><a xlink:title=" ">
<path fill="none" stroke="#63b8ff" d="M573.84,-404.08C561.84,-412.73 570.06,-422 598.5,-422 617.16,-422 627.12,-418.01 628.37,-412.82"/>
<polygon fill="#63b8ff" stroke="#63b8ff" points="631.29,-410.88 623.16,-404.08 625.27,-414.47 631.29,-410.88"/>
</a>
</g>
</g>
<!-- Node16 -->
<g id="Node000016" class="node">
<title>Node16</title>
<g id="a_Node000016"><a xlink:href="namespacem__bubbles.html#aecc13d05fd38ba5e6493ac81e64ada6d" target="_top" xlink:title="Function that computes the time derivative of the internal bubble pressure.">
<polygon fill="white" stroke="#666666" points="665,-514 532,-514 532,-495 665,-495 665,-514"/>
<text text-anchor="middle" x="598.5" y="-502" font-family="Helvetica,sans-Serif" font-size="10.00">m_bubbles::f_bpres_dot</text>
</a>
</g>
</g>
<!-- Node15&#45;&gt;Node16 -->
<g id="edge28_Node000015_Node000016" class="edge">
<title>Node15&#45;&gt;Node16</title>
<g id="a_edge28_Node000015_Node000016"><a xlink:title=" ">
<path fill="none" stroke="#63b8ff" d="M484.54,-522.94C498.89,-520.6 514.37,-518.07 529.14,-515.66"/>
<polygon fill="#63b8ff" stroke="#63b8ff" points="529.92,-519.08 539.22,-514.01 528.79,-512.17 529.92,-519.08"/>
</a>
</g>
</g>
<!-- Node17 -->
<g id="Node000017" class="node">
<title>Node17</title>
<g id="a_Node000017"><a xlink:href="namespacem__bubbles.html#adc4ba0b49d39dfb931c4b1b94af941bd" target="_top" xlink:title="Function that computes the vapour flux.">
<polygon fill="white" stroke="#666666" points="653.5,-569 543.5,-569 543.5,-550 653.5,-550 653.5,-569"/>
<text text-anchor="middle" x="598.5" y="-557" font-family="Helvetica,sans-Serif" font-size="10.00">m_bubbles::s_vflux</text>
</a>
</g>
</g>
<!-- Node15&#45;&gt;Node17 -->
<g id="edge30_Node000015_Node000017" class="edge">
<title>Node15&#45;&gt;Node17</title>
<g id="a_edge30_Node000015_Node000017"><a xlink:title=" ">
<path fill="none" stroke="#63b8ff" d="M486.46,-542.02C501.65,-544.41 518,-546.98 533.37,-549.4"/>
<polygon fill="#63b8ff" stroke="#63b8ff" points="532.87,-552.87 543.3,-550.97 533.96,-545.95 532.87,-552.87"/>
</a>
</g>
</g>
<!-- Node16&#45;&gt;Node16 -->
<g id="edge29_Node000016_Node000016" class="edge">
<title>Node16&#45;&gt;Node16</title>
<g id="a_edge29_Node000016_Node000016"><a xlink:title=" ">
<path fill="none" stroke="#63b8ff" d="M573.84,-514.08C561.84,-522.73 570.06,-532 598.5,-532 617.16,-532 627.12,-528.01 628.37,-522.82"/>
<polygon fill="#63b8ff" stroke="#63b8ff" points="631.29,-520.88 623.16,-514.08 625.27,-524.47 631.29,-520.88"/>
</a>
</g>
</g>
<!-- Node18&#45;&gt;Node4 -->
<g id="edge32_Node000018_Node000004" class="edge">
<title>Node18&#45;&gt;Node4</title>
<g id="a_edge32_Node000018_Node000004"><a xlink:title=" ">
<path fill="none" stroke="#63b8ff" d="M284.44,-356.35C315.98,-340.11 365.64,-314.54 396.44,-298.69"/>
<polygon fill="#63b8ff" stroke="#63b8ff" points="398.06,-301.79 405.35,-294.1 394.86,-295.57 398.06,-301.79"/>
</a>
</g>
</g>
</g>
</svg>
