<?xml version="1.0" encoding="UTF-8" standalone="no"?>
<!DOCTYPE svg PUBLIC "-//W3C//DTD SVG 1.1//EN"
 "http://www.w3.org/Graphics/SVG/1.1/DTD/svg11.dtd">
<!-- Generated by graphviz version 2.43.0 (0)
 -->
<!-- Title: m_bubbles_el_kernels::s_shift_cell_symmetric_bc Pages: 1 -->
<svg width="481pt" height="38pt"
 viewBox="0.00 0.00 481.00 38.00" xmlns="http://www.w3.org/2000/svg" xmlns:xlink="http://www.w3.org/1999/xlink">
<g id="graph0" class="graph" transform="scale(1 1) rotate(0) translate(4 34)">
<title>m_bubbles_el_kernels::s_shift_cell_symmetric_bc</title>
<!-- Node1 -->
<g id="Node000001" class="node">
<title>Node1</title>
<g id="a_Node000001"><a xlink:title="This subroutine relocates the current cell, if it intersects a symmetric boundary.">
<polygon fill="#999999" stroke="#666666" points="473,-30 322,-30 322,0 473,0 473,-30"/>
<text text-anchor="start" x="330" y="-18" font-family="Helvetica,sans-Serif" font-size="10.00">m_bubbles_el_kernels</text>
<text text-anchor="middle" x="397.5" y="-7" font-family="Helvetica,sans-Serif" font-size="10.00">::s_shift_cell_symmetric_bc</text>
</a>
</g>
</g>
<!-- Node2 -->
<g id="Node000002" class="node">
<title>Node2</title>
<g id="a_Node000002"><a xlink:href="namespacem__bubbles__el__kernels.html#a5097cb745dea23438fba10e3cd45fb6c" target="_top" xlink:title="The purpose of this procedure contains the algorithm to use the gaussian kernel function to map the e...">
<polygon fill="white" stroke="#666666" points="286,-30 161,-30 161,0 286,0 286,-30"/>
<text text-anchor="start" x="169" y="-18" font-family="Helvetica,sans-Serif" font-size="10.00">m_bubbles_el_kernels</text>
<text text-anchor="middle" x="223.5" y="-7" font-family="Helvetica,sans-Serif" font-size="10.00">::s_gaussian</text>
</a>
</g>
</g>
<!-- Node1&#45;&gt;Node2 -->
<g id="edge1_Node000001_Node000002" class="edge">
<title>Node1&#45;&gt;Node2</title>
<g id="a_edge1_Node000001_Node000002"><a xlink:title=" ">
<path fill="none" stroke="#63b8ff" d="M311.74,-15C303.14,-15 294.52,-15 286.23,-15"/>
<polygon fill="#63b8ff" stroke="#63b8ff" points="311.81,-18.5 321.81,-15 311.81,-11.5 311.81,-18.5"/>
</a>
</g>
</g>
<!-- Node3 -->
<g id="Node000003" class="node">
<title>Node3</title>
<g id="a_Node000003"><a xlink:href="namespacem__bubbles__el__kernels.html#a0c4e638a7f4a6222f22325c28f10e73c" target="_top" xlink:title="The purpose of this subroutine is to smear the strength of the lagrangian bubbles into the Eulerian f...">
<polygon fill="white" stroke="#666666" points="125,-30 0,-30 0,0 125,0 125,-30"/>
<text text-anchor="start" x="8" y="-18" font-family="Helvetica,sans-Serif" font-size="10.00">m_bubbles_el_kernels</text>
<text text-anchor="middle" x="62.5" y="-7" font-family="Helvetica,sans-Serif" font-size="10.00">::s_smoothfunction</text>
</a>
</g>
</g>
<!-- Node2&#45;&gt;Node3 -->
<g id="edge2_Node000002_Node000003" class="edge">
<title>Node2&#45;&gt;Node3</title>
<g id="a_edge2_Node000002_Node000003"><a xlink:title=" ">
<path fill="none" stroke="#63b8ff" d="M150.41,-15C142.01,-15 133.5,-15 125.26,-15"/>
<polygon fill="#63b8ff" stroke="#63b8ff" points="150.57,-18.5 160.57,-15 150.57,-11.5 150.57,-18.5"/>
</a>
</g>
</g>
</g>
</svg>
