<?xml version="1.0" encoding="UTF-8" standalone="no"?>
<!DOCTYPE svg PUBLIC "-//W3C//DTD SVG 1.1//EN"
 "http://www.w3.org/Graphics/SVG/1.1/DTD/svg11.dtd">
<!-- Generated by graphviz version 2.43.0 (0)
 -->
<!-- Title: m_bubbles::f_cpbw_km Pages: 1 -->
<!--zoomable 134 -->

<svg id="main" version="1.1" xmlns="http://www.w3.org/2000/svg" xmlns:xlink="http://www.w3.org/1999/xlink" xml:space="preserve" onload="init(evt)">

<style type="text/css"><![CDATA[
.node, .edge {opacity: 0.7;}
.node.selected, .edge.selected {opacity: 1;}
.edge:hover path { stroke: red; }
.edge:hover polygon { stroke: red; fill: red; }
]]></style>

<defs>
  <circle id="rim" cx="0" cy="0" r="7"/>
  <circle id="rim2" cx="0" cy="0" r="3.5"/>
  <g id="zoomPlus">
    <use xlink:href="#rim" fill="#404040"><set attributeName="fill" to="#808080" begin="zoomplus.mouseover" end="zoomplus.mouseout"/></use>
    <path d="M-4,0h8M0,-4v8" fill="none" stroke="white" stroke-width="1.5" pointer-events="none"/>
  </g>
  <g id="zoomMin">
    <use xlink:href="#rim" fill="#404040"><set attributeName="fill" to="#808080" begin="zoomminus.mouseover" end="zoomminus.mouseout"/></use>
    <path d="M-4,0h8" fill="none" stroke="white" stroke-width="1.5" pointer-events="none"/>
  </g>
  <g id="arrowUp" transform="translate(30 24)">
    <use xlink:href="#rim"/>
    <path pointer-events="none" fill="none" stroke="white" stroke-width="1.5" d="M0,-3.0v7 M-2.5,-0.5L0,-3.0L2.5,-0.5"/>
  </g>
  <g id="arrowRight" transform="rotate(90) translate(36 -43)">
    <use xlink:href="#rim"/>
    <path pointer-events="none" fill="none" stroke="white" stroke-width="1.5" d="M0,-3.0v7 M-2.5,-0.5L0,-3.0L2.5,-0.5"/>
  </g>
  <g id="arrowDown" transform="rotate(180) translate(-30 -48)">
    <use xlink:href="#rim"/>
    <path pointer-events="none" fill="none" stroke="white" stroke-width="1.5" d="M0,-3.0v7 M-2.5,-0.5L0,-3.0L2.5,-0.5"/>
  </g>
  <g id="arrowLeft" transform="rotate(270) translate(-36 17)">
    <use xlink:href="#rim"/>
    <path pointer-events="none" fill="none" stroke="white" stroke-width="1.5" d="M0,-3.0v7 M-2.5,-0.5L0,-3.0L2.5,-0.5"/>
  </g>
  <g id="resetDef">
    <use xlink:href="#rim2" fill="#404040"><set attributeName="fill" to="#808080" begin="reset.mouseover" end="reset.mouseout"/></use>
  </g>
</defs>
<script type="application/ecmascript">
var viewWidth = 654;
var viewHeight = 134;
var sectionId = 'dynsection-7';
</script>
<script type="application/ecmascript" xlink:href="svg.min.js"/>
<svg id="graph" class="graph">
<g id="viewport">
<title>m_bubbles::f_cpbw_km</title>
<!-- Node1 -->
<g id="Node000001" class="node">
<title>Node1</title>
<g id="a_Node000001"><a xlink:title="Function that computes the bubble wall pressure for Keller–Miksis bubbles.">
<polygon fill="#999999" stroke="#666666" points="646,-48.5 515,-48.5 515,-29.5 646,-29.5 646,-48.5"/>
<text text-anchor="middle" x="580.5" y="-36.5" font-family="Helvetica,sans-Serif" font-size="10.00">m_bubbles::f_cpbw_km</text>
</a>
</g>
</g>
<!-- Node1&#45;&gt;Node1 -->
<g id="edge1_Node000001_Node000001" class="edge">
<title>Node1&#45;&gt;Node1</title>
<g id="a_edge1_Node000001_Node000001"><a xlink:title=" ">
<path fill="none" stroke="#63b8ff" d="M611.11,-57.32C609.83,-62.51 599.63,-66.5 580.5,-66.5 551.35,-66.5 542.93,-57.23 555.22,-48.58"/>
<polygon fill="#63b8ff" stroke="#63b8ff" points="613.98,-55.29 605.78,-48.58 608,-58.94 613.98,-55.29"/>
</a>
</g>
</g>
<!-- Node2 -->
<g id="Node000002" class="node">
<title>Node2</title>
<g id="a_Node000002"><a xlink:href="namespacem__bubbles.html#adb6097eda424f5e9fe16a9897b6a6b17" target="_top" xlink:title="Function that computes the bubble radial acceleration based on bubble models.">
<polygon fill="white" stroke="#666666" points="471.5,-72.5 361.5,-72.5 361.5,-53.5 471.5,-53.5 471.5,-72.5"/>
<text text-anchor="middle" x="416.5" y="-60.5" font-family="Helvetica,sans-Serif" font-size="10.00">m_bubbles::f_rddot</text>
</a>
</g>
</g>
<!-- Node1&#45;&gt;Node2 -->
<g id="edge2_Node000001_Node000002" class="edge">
<title>Node1&#45;&gt;Node2</title>
<g id="a_edge2_Node000001_Node000002"><a xlink:title=" ">
<path fill="none" stroke="#63b8ff" d="M504.8,-50.07C493.61,-51.72 482.26,-53.41 471.6,-54.98"/>
<polygon fill="#63b8ff" stroke="#63b8ff" points="505.63,-53.48 515.01,-48.55 504.6,-46.56 505.63,-53.48"/>
</a>
</g>
</g>
<!-- Node6 -->
<g id="Node000006" class="node">
<title>Node6</title>
<g id="a_Node000006"><a xlink:href="namespacem__riemann__solvers.html#a6c9d70572e9b98586bab20b028557a5a" target="_top" xlink:title="This procedure is the implementation of the Harten, Lax, van Leer, and contact (HLLC) approximate Rie...">
<polygon fill="white" stroke="#666666" points="479,-33 354,-33 354,-3 479,-3 479,-33"/>
<text text-anchor="start" x="362" y="-21" font-family="Helvetica,sans-Serif" font-size="10.00">m_riemann_solvers::</text>
<text text-anchor="middle" x="416.5" y="-10" font-family="Helvetica,sans-Serif" font-size="10.00">s_hllc_riemann_solver</text>
</a>
</g>
</g>
<!-- Node1&#45;&gt;Node6 -->
<g id="edge8_Node000001_Node000006" class="edge">
<title>Node1&#45;&gt;Node6</title>
<g id="a_edge8_Node000001_Node000006"><a xlink:title=" ">
<path fill="none" stroke="#63b8ff" d="M504.58,-29.29C496.03,-28.18 487.4,-27.06 479.05,-25.98"/>
<polygon fill="#63b8ff" stroke="#63b8ff" points="504.17,-32.76 514.54,-30.58 505.07,-25.82 504.17,-32.76"/>
</a>
</g>
</g>
<!-- Node2&#45;&gt;Node2 -->
<g id="edge3_Node000002_Node000002" class="edge">
<title>Node2&#45;&gt;Node2</title>
<g id="a_edge3_Node000002_Node000002"><a xlink:title=" ">
<path fill="none" stroke="#63b8ff" d="M446.74,-81.32C445.48,-86.51 435.4,-90.5 416.5,-90.5 387.71,-90.5 379.38,-81.23 391.53,-72.58"/>
<polygon fill="#63b8ff" stroke="#63b8ff" points="449.63,-79.34 441.47,-72.58 443.64,-82.95 449.63,-79.34"/>
</a>
</g>
</g>
<!-- Node3 -->
<g id="Node000003" class="node">
<title>Node3</title>
<g id="a_Node000003"><a xlink:href="namespacem__bubbles.html#a58b32597dfaefbb21cf23ca74203c5ad" target="_top" xlink:title="Integrate bubble variables over the given time step size, h, using a third&#45;order accurate embedded Ru...">
<polygon fill="white" stroke="#666666" points="318,-126 190,-126 190,-96 318,-96 318,-126"/>
<text text-anchor="start" x="198" y="-114" font-family="Helvetica,sans-Serif" font-size="10.00">m_bubbles::s_advance</text>
<text text-anchor="middle" x="254" y="-103" font-family="Helvetica,sans-Serif" font-size="10.00">_substep</text>
</a>
</g>
</g>
<!-- Node2&#45;&gt;Node3 -->
<g id="edge4_Node000002_Node000003" class="edge">
<title>Node2&#45;&gt;Node3</title>
<g id="a_edge4_Node000002_Node000003"><a xlink:title=" ">
<path fill="none" stroke="#63b8ff" d="M373.56,-75.54C352.68,-81.79 327.29,-89.38 305.37,-95.94"/>
<polygon fill="#63b8ff" stroke="#63b8ff" points="374.83,-78.82 383.41,-72.6 372.82,-72.11 374.83,-78.82"/>
</a>
</g>
</g>
<!-- Node5 -->
<g id="Node000005" class="node">
<title>Node5</title>
<g id="a_Node000005"><a xlink:href="namespacem__bubbles.html#ab94791da6f5cbc767853c8c5208a3eb0" target="_top" xlink:title="Choose the initial time step size for the adaptive time stepping routine (See Heirer,...">
<polygon fill="white" stroke="#666666" points="311,-78 197,-78 197,-48 311,-48 311,-78"/>
<text text-anchor="start" x="205" y="-66" font-family="Helvetica,sans-Serif" font-size="10.00">m_bubbles::s_initial</text>
<text text-anchor="middle" x="254" y="-55" font-family="Helvetica,sans-Serif" font-size="10.00">_substep_h</text>
</a>
</g>
</g>
<!-- Node2&#45;&gt;Node5 -->
<g id="edge6_Node000002_Node000005" class="edge">
<title>Node2&#45;&gt;Node5</title>
<g id="a_edge6_Node000002_Node000005"><a xlink:title=" ">
<path fill="none" stroke="#63b8ff" d="M350.8,-63C337.68,-63 323.99,-63 311.2,-63"/>
<polygon fill="#63b8ff" stroke="#63b8ff" points="351.16,-66.5 361.16,-63 351.16,-59.5 351.16,-66.5"/>
</a>
</g>
</g>
<!-- Node4 -->
<g id="Node000004" class="node">
<title>Node4</title>
<g id="a_Node000004"><a xlink:href="namespacem__bubbles.html#a8fa7693467966aebe329db289e1fd8e0" target="_top" xlink:title="Adaptive time stepping routine for subgrid bubbles (See Heirer, E. Hairer S.P.Nørsett G....">
<polygon fill="white" stroke="#666666" points="154,-96.5 0,-96.5 0,-77.5 154,-77.5 154,-96.5"/>
<text text-anchor="middle" x="77" y="-84.5" font-family="Helvetica,sans-Serif" font-size="10.00">m_bubbles::s_advance_step</text>
</a>
</g>
</g>
<!-- Node3&#45;&gt;Node4 -->
<g id="edge5_Node000003_Node000004" class="edge">
<title>Node3&#45;&gt;Node4</title>
<g id="a_edge5_Node000003_Node000004"><a xlink:title=" ">
<path fill="none" stroke="#63b8ff" d="M179.66,-100.94C168.94,-99.47 157.94,-97.96 147.31,-96.5"/>
<polygon fill="#63b8ff" stroke="#63b8ff" points="179.44,-104.44 189.82,-102.34 180.39,-97.51 179.44,-104.44"/>
</a>
</g>
</g>
<!-- Node5&#45;&gt;Node4 -->
<g id="edge7_Node000005_Node000004" class="edge">
<title>Node5&#45;&gt;Node4</title>
<g id="a_edge7_Node000005_Node000004"><a xlink:title=" ">
<path fill="none" stroke="#63b8ff" d="M186.56,-72.11C173.75,-73.87 160.31,-75.71 147.41,-77.48"/>
<polygon fill="#63b8ff" stroke="#63b8ff" points="187.23,-75.55 196.67,-70.73 186.28,-68.62 187.23,-75.55"/>
</a>
</g>
</g>
<!-- Node7 -->
<g id="Node000007" class="node">
<title>Node7</title>
<g id="a_Node000007"><a xlink:href="namespacem__riemann__solvers.html#aff6e3d5abdabe6ce6fccbb7a081766e6" target="_top" xlink:title="Dispatch to the subroutines that are utilized to compute the Riemann problem solution....">
<polygon fill="white" stroke="#666666" points="313.5,-30 194.5,-30 194.5,0 313.5,0 313.5,-30"/>
<text text-anchor="start" x="202.5" y="-18" font-family="Helvetica,sans-Serif" font-size="10.00">m_riemann_solvers::</text>
<text text-anchor="middle" x="254" y="-7" font-family="Helvetica,sans-Serif" font-size="10.00">s_riemann_solver</text>
</a>
</g>
</g>
<!-- Node6&#45;&gt;Node7 -->
<g id="edge9_Node000006_Node000007" class="edge">
<title>Node6&#45;&gt;Node7</title>
<g id="a_edge9_Node000006_Node000007"><a xlink:title=" ">
<path fill="none" stroke="#63b8ff" d="M343.85,-16.66C333.71,-16.47 323.38,-16.28 313.53,-16.09"/>
<polygon fill="#63b8ff" stroke="#63b8ff" points="343.84,-20.16 353.91,-16.85 343.97,-13.16 343.84,-20.16"/>
</a>
</g>
</g>
</g>
</svg>

<g id="navigator" transform="translate(0 0)" fill="#404254">
  <rect fill="#f2f5e9" fill-opacity="0.5" stroke="#606060" stroke-width=".5" x="0" y="0" width="60" height="60"/>
  <use id="zoomplus" xlink:href="#zoomPlus" x="17" y="9" onmousedown="handleZoom(evt,'in')"/>
  <use id="zoomminus" xlink:href="#zoomMin" x="42" y="9" onmousedown="handleZoom(evt,'out')"/>
  <use id="reset" xlink:href="#resetDef" x="30" y="36" onmousedown="handleReset()"/>
   <use id="arrowup" xlink:href="#arrowUp" x="0" y="0" onmousedown="handlePan(0,-1)"/>
  <use id="arrowright" xlink:href="#arrowRight" x="0" y="0" onmousedown="handlePan(1,0)"/>
  <use id="arrowdown" xlink:href="#arrowDown" x="0" y="0" onmousedown="handlePan(0,1)"/>
  <use id="arrowleft" xlink:href="#arrowLeft" x="0" y="0" onmousedown="handlePan(-1,0)"/>
</g>
<svg viewBox="0 0 15 15" width="100%" height="30px" preserveAspectRatio="xMaxYMin meet">
 <g id="arrow_out" transform="scale(0.3 0.3)">
  <a xlink:href="namespacem__bubbles_ac1068c3570e6fe9ee995e53786e0b9a6_icgraph_org.svg" target="_base">
   <rect id="button" ry="5" rx="5" y="6" x="6" height="38" width="38"
        fill="#f2f5e9" fill-opacity="0.5" stroke="#606060" stroke-width="1.0"/>
   <path id="arrow"
     d="M 11.500037,31.436501 C 11.940474,20.09759 22.043105,11.32322 32.158766,21.979434 L 37.068811,17.246167 C 37.068811,17.246167 37.088388,32 37.088388,32 L 22.160133,31.978069 C 22.160133,31.978069 26.997745,27.140456 26.997745,27.140456 C 18.528582,18.264221 13.291696,25.230495 11.500037,31.436501 z"
     style="fill:#404040;"/>
  </a>
 </g>
</svg>

<style type='text/css'>
<![CDATA[
[data-mouse-over-selected='false'] { opacity: 0.7; }
[data-mouse-over-selected='true']  { opacity: 1.0; }
]]>
</style>
<script type="application/ecmascript"><![CDATA[
document.addEventListener('DOMContentLoaded', (event) => {
  highlightEdges();
  highlightAdjacentNodes();
});
]]></script>
</svg>
