<?xml version="1.0" encoding="UTF-8" standalone="no"?>
<!DOCTYPE svg PUBLIC "-//W3C//DTD SVG 1.1//EN"
 "http://www.w3.org/Graphics/SVG/1.1/DTD/svg11.dtd">
<!-- Generated by graphviz version 2.43.0 (0)
 -->
<!-- Title: m_model::f_normals Pages: 1 -->
<svg width="435pt" height="38pt"
 viewBox="0.00 0.00 435.00 38.00" xmlns="http://www.w3.org/2000/svg" xmlns:xlink="http://www.w3.org/1999/xlink">
<g id="graph0" class="graph" transform="scale(1 1) rotate(0) translate(4 34)">
<title>m_model::f_normals</title>
<!-- Node1 -->
<g id="Node000001" class="node">
<title>Node1</title>
<g id="a_Node000001"><a xlink:title="This procedure determines the levelset normals of 2D models without interpolation.">
<polygon fill="#999999" stroke="#666666" points="427,-24.5 310,-24.5 310,-5.5 427,-5.5 427,-24.5"/>
<text text-anchor="middle" x="368.5" y="-12.5" font-family="Helvetica,sans-Serif" font-size="10.00">m_model::f_normals</text>
</a>
</g>
</g>
<!-- Node2 -->
<g id="Node000002" class="node">
<title>Node2</title>
<g id="a_Node000002"><a xlink:href="namespacem__ib__patches.html#ab91168784d19567f4abbf082eef50996" target="_top" xlink:title="The STL patch is a 2/3D geometry that is imported from an STL file.">
<polygon fill="white" stroke="#666666" points="274,-30 164,-30 164,0 274,0 274,-30"/>
<text text-anchor="start" x="172" y="-18" font-family="Helvetica,sans-Serif" font-size="10.00">m_ib_patches::s_ib</text>
<text text-anchor="middle" x="219" y="-7" font-family="Helvetica,sans-Serif" font-size="10.00">_model</text>
</a>
</g>
</g>
<!-- Node1&#45;&gt;Node2 -->
<g id="edge1_Node000001_Node000002" class="edge">
<title>Node1&#45;&gt;Node2</title>
<g id="a_edge1_Node000001_Node000002"><a xlink:title=" ">
<path fill="none" stroke="#63b8ff" d="M299.44,-15C291.02,-15 282.51,-15 274.33,-15"/>
<polygon fill="#63b8ff" stroke="#63b8ff" points="299.63,-18.5 309.63,-15 299.63,-11.5 299.63,-18.5"/>
</a>
</g>
</g>
<!-- Node3 -->
<g id="Node000003" class="node">
<title>Node3</title>
<g id="a_Node000003"><a xlink:href="namespacem__ib__patches.html#a0540992ae9a59ea772d591a5fa9a63fb" target="_top" xlink:title=" ">
<polygon fill="white" stroke="#666666" points="128,-30 0,-30 0,0 128,0 128,-30"/>
<text text-anchor="start" x="8" y="-18" font-family="Helvetica,sans-Serif" font-size="10.00">m_ib_patches::s_apply</text>
<text text-anchor="middle" x="64" y="-7" font-family="Helvetica,sans-Serif" font-size="10.00">_ib_patches</text>
</a>
</g>
</g>
<!-- Node2&#45;&gt;Node3 -->
<g id="edge2_Node000002_Node000003" class="edge">
<title>Node2&#45;&gt;Node3</title>
<g id="a_edge2_Node000002_Node000003"><a xlink:title=" ">
<path fill="none" stroke="#63b8ff" d="M153.49,-15C145.08,-15 136.47,-15 128.08,-15"/>
<polygon fill="#63b8ff" stroke="#63b8ff" points="153.63,-18.5 163.63,-15 153.63,-11.5 153.63,-18.5"/>
</a>
</g>
</g>
</g>
</svg>
