<?xml version="1.0" encoding="UTF-8" standalone="no"?>
<!DOCTYPE svg PUBLIC "-//W3C//DTD SVG 1.1//EN"
 "http://www.w3.org/Graphics/SVG/1.1/DTD/svg11.dtd">
<!-- Generated by graphviz version 2.43.0 (0)
 -->
<!-- Title: m_bubbles::f_cpbw_km Pages: 1 -->
<svg width="469pt" height="51pt"
 viewBox="0.00 0.00 469.00 50.50" xmlns="http://www.w3.org/2000/svg" xmlns:xlink="http://www.w3.org/1999/xlink">
<g id="graph0" class="graph" transform="scale(1 1) rotate(0) translate(4 46.5)">
<title>m_bubbles::f_cpbw_km</title>
<!-- Node1 -->
<g id="Node000001" class="node">
<title>Node1</title>
<g id="a_Node000001"><a xlink:title="Function that computes the bubble wall pressure for Keller–Miksis bubbles.">
<polygon fill="#999999" stroke="#666666" points="131,-24.5 0,-24.5 0,-5.5 131,-5.5 131,-24.5"/>
<text text-anchor="middle" x="65.5" y="-12.5" font-family="Helvetica,sans-Serif" font-size="10.00">m_bubbles::f_cpbw_km</text>
</a>
</g>
</g>
<!-- Node1&#45;&gt;Node1 -->
<g id="edge1_Node000001_Node000001" class="edge">
<title>Node1&#45;&gt;Node1</title>
<g id="a_edge1_Node000001_Node000001"><a xlink:title=" ">
<path fill="none" stroke="#63b8ff" d="M41.15,-24.58C29.3,-33.23 37.42,-42.5 65.5,-42.5 83.93,-42.5 93.76,-38.51 94.99,-33.32"/>
<polygon fill="#63b8ff" stroke="#63b8ff" points="97.94,-31.43 89.85,-24.58 91.91,-34.98 97.94,-31.43"/>
</a>
</g>
</g>
<!-- Node2 -->
<g id="Node000002" class="node">
<title>Node2</title>
<g id="a_Node000002"><a xlink:href="namespacem__helper__basic.html#a345e205ced0b0674a22f59a2c1549eb4" target="_top" xlink:title="Checks if a real(wp) variable is of default value.">
<polygon fill="white" stroke="#666666" points="283,-30 167,-30 167,0 283,0 283,-30"/>
<text text-anchor="start" x="175" y="-18" font-family="Helvetica,sans-Serif" font-size="10.00">m_helper_basic::f_is</text>
<text text-anchor="middle" x="225" y="-7" font-family="Helvetica,sans-Serif" font-size="10.00">_default</text>
</a>
</g>
</g>
<!-- Node1&#45;&gt;Node2 -->
<g id="edge2_Node000001_Node000002" class="edge">
<title>Node1&#45;&gt;Node2</title>
<g id="a_edge2_Node000001_Node000002"><a xlink:title=" ">
<path fill="none" stroke="#63b8ff" d="M131.02,-15C139.47,-15 148.15,-15 156.65,-15"/>
<polygon fill="#63b8ff" stroke="#63b8ff" points="156.91,-18.5 166.91,-15 156.91,-11.5 156.91,-18.5"/>
</a>
</g>
</g>
<!-- Node3 -->
<g id="Node000003" class="node">
<title>Node3</title>
<g id="a_Node000003"><a xlink:href="namespacem__helper__basic.html#a58590a12d49b9b884256a839f2be8610" target="_top" xlink:title="This procedure checks if two floating point numbers of wp are within tolerance.">
<polygon fill="white" stroke="#666666" points="461,-30 319,-30 319,0 461,0 461,-30"/>
<text text-anchor="start" x="327" y="-18" font-family="Helvetica,sans-Serif" font-size="10.00">m_helper_basic::f_approx</text>
<text text-anchor="middle" x="390" y="-7" font-family="Helvetica,sans-Serif" font-size="10.00">_equal</text>
</a>
</g>
</g>
<!-- Node2&#45;&gt;Node3 -->
<g id="edge3_Node000002_Node000003" class="edge">
<title>Node2&#45;&gt;Node3</title>
<g id="a_edge3_Node000002_Node000003"><a xlink:title=" ">
<path fill="none" stroke="#63b8ff" d="M283.01,-15C291.32,-15 300.01,-15 308.68,-15"/>
<polygon fill="#63b8ff" stroke="#63b8ff" points="308.83,-18.5 318.83,-15 308.83,-11.5 308.83,-18.5"/>
</a>
</g>
</g>
</g>
</svg>
