<?xml version="1.0" encoding="UTF-8" standalone="no"?>
<!DOCTYPE svg PUBLIC "-//W3C//DTD SVG 1.1//EN"
 "http://www.w3.org/Graphics/SVG/1.1/DTD/svg11.dtd">
<!-- Generated by graphviz version 2.43.0 (0)
 -->
<!-- Title: m_qbmm::s_mom_inv Pages: 1 -->
<svg width="448pt" height="211pt"
 viewBox="0.00 0.00 448.00 211.00" xmlns="http://www.w3.org/2000/svg" xmlns:xlink="http://www.w3.org/1999/xlink">
<g id="graph0" class="graph" transform="scale(1 1) rotate(0) translate(4 207)">
<title>m_qbmm::s_mom_inv</title>
<!-- Node1 -->
<g id="Node000001" class="node">
<title>Node1</title>
<g id="a_Node000001"><a xlink:title=" ">
<polygon fill="#999999" stroke="#666666" points="125,-111 0,-111 0,-92 125,-92 125,-111"/>
<text text-anchor="middle" x="62.5" y="-99" font-family="Helvetica,sans-Serif" font-size="10.00">m_qbmm::s_mom_inv</text>
</a>
</g>
</g>
<!-- Node2 -->
<g id="Node000002" class="node">
<title>Node2</title>
<g id="a_Node000002"><a xlink:href="m__qbmm_8fpp_8f90.html#a9f576ad1b3833fba60b6b0f0b91ecbac" target="_top" xlink:title=" ">
<polygon fill="white" stroke="#666666" points="233.5,-185 183.5,-185 183.5,-166 233.5,-166 233.5,-185"/>
<text text-anchor="middle" x="208.5" y="-173" font-family="Helvetica,sans-Serif" font-size="10.00">f_quad</text>
</a>
</g>
</g>
<!-- Node1&#45;&gt;Node2 -->
<g id="edge1_Node000001_Node000002" class="edge">
<title>Node1&#45;&gt;Node2</title>
<g id="a_edge1_Node000001_Node000002"><a xlink:title=" ">
<path fill="none" stroke="#63b8ff" d="M78.65,-111.17C97.49,-122.97 130.88,-143.12 161,-157.5 165.06,-159.44 169.4,-161.34 173.72,-163.12"/>
<polygon fill="#63b8ff" stroke="#63b8ff" points="172.48,-166.4 183.07,-166.84 175.07,-159.89 172.48,-166.4"/>
</a>
</g>
</g>
<!-- Node3 -->
<g id="Node000003" class="node">
<title>Node3</title>
<g id="a_Node000003"><a xlink:href="m__qbmm_8fpp_8f90.html#ac37b15d27f0ed2fe825b4798a17557da" target="_top" xlink:title=" ">
<polygon fill="white" stroke="#666666" points="239.5,-130 177.5,-130 177.5,-111 239.5,-111 239.5,-130"/>
<text text-anchor="middle" x="208.5" y="-118" font-family="Helvetica,sans-Serif" font-size="10.00">f_quad2d</text>
</a>
</g>
</g>
<!-- Node1&#45;&gt;Node3 -->
<g id="edge3_Node000001_Node000003" class="edge">
<title>Node1&#45;&gt;Node3</title>
<g id="a_edge3_Node000001_Node000003"><a xlink:title=" ">
<path fill="none" stroke="#63b8ff" d="M125.4,-109.67C139.6,-111.54 154.33,-113.48 167.33,-115.2"/>
<polygon fill="#63b8ff" stroke="#63b8ff" points="166.96,-118.68 177.33,-116.52 167.88,-111.74 166.96,-118.68"/>
</a>
</g>
</g>
<!-- Node4 -->
<g id="Node000004" class="node">
<title>Node4</title>
<g id="a_Node000004"><a xlink:href="m__qbmm_8fpp_8f90.html#a609ba329c9b80595332f37569a5be63e" target="_top" xlink:title=" ">
<polygon fill="white" stroke="#666666" points="246.5,-93 170.5,-93 170.5,-74 246.5,-74 246.5,-93"/>
<text text-anchor="middle" x="208.5" y="-81" font-family="Helvetica,sans-Serif" font-size="10.00">s_chyqmom</text>
</a>
</g>
</g>
<!-- Node1&#45;&gt;Node4 -->
<g id="edge5_Node000001_Node000004" class="edge">
<title>Node1&#45;&gt;Node4</title>
<g id="a_edge5_Node000001_Node000004"><a xlink:title=" ">
<path fill="none" stroke="#63b8ff" d="M125.4,-93.76C137.08,-92.3 149.11,-90.8 160.25,-89.41"/>
<polygon fill="#63b8ff" stroke="#63b8ff" points="160.69,-92.88 170.18,-88.16 159.83,-85.93 160.69,-92.88"/>
</a>
</g>
</g>
<!-- Node6 -->
<g id="Node000006" class="node">
<title>Node6</title>
<g id="a_Node000006"><a xlink:href="m__qbmm_8fpp_8f90.html#a57b251e89f00799ed8c7f1de6a0af5db" target="_top" xlink:title=" ">
<polygon fill="white" stroke="#666666" points="256,-56 161,-56 161,-37 256,-37 256,-56"/>
<text text-anchor="middle" x="208.5" y="-44" font-family="Helvetica,sans-Serif" font-size="10.00">s_coeff_selector</text>
</a>
</g>
</g>
<!-- Node1&#45;&gt;Node6 -->
<g id="edge7_Node000001_Node000006" class="edge">
<title>Node1&#45;&gt;Node6</title>
<g id="a_edge7_Node000001_Node000006"><a xlink:title=" ">
<path fill="none" stroke="#63b8ff" d="M88.58,-91.92C111.88,-83.02 146.77,-69.69 172.75,-59.77"/>
<polygon fill="#63b8ff" stroke="#63b8ff" points="174.13,-62.99 182.22,-56.16 171.63,-56.45 174.13,-62.99"/>
</a>
</g>
</g>
<!-- Node2&#45;&gt;Node2 -->
<g id="edge2_Node000002_Node000002" class="edge">
<title>Node2&#45;&gt;Node2</title>
<g id="a_edge2_Node000002_Node000002"><a xlink:title=" ">
<path fill="none" stroke="#63b8ff" d="M186,-185.08C175.05,-193.73 182.55,-203 208.5,-203 225.12,-203 234.18,-199.2 235.66,-194.19"/>
<polygon fill="#63b8ff" stroke="#63b8ff" points="238.67,-192.39 231,-185.08 232.44,-195.58 238.67,-192.39"/>
</a>
</g>
</g>
<!-- Node3&#45;&gt;Node3 -->
<g id="edge4_Node000003_Node000003" class="edge">
<title>Node3&#45;&gt;Node3</title>
<g id="a_edge4_Node000003_Node000003"><a xlink:title=" ">
<path fill="none" stroke="#63b8ff" d="M186,-130.08C175.05,-138.73 182.55,-148 208.5,-148 225.12,-148 234.18,-144.2 235.66,-139.19"/>
<polygon fill="#63b8ff" stroke="#63b8ff" points="238.67,-137.39 231,-130.08 232.44,-140.58 238.67,-137.39"/>
</a>
</g>
</g>
<!-- Node5 -->
<g id="Node000005" class="node">
<title>Node5</title>
<g id="a_Node000005"><a xlink:href="m__qbmm_8fpp_8f90.html#a09f85e23d626b22075c7671a03295af7" target="_top" xlink:title=" ">
<polygon fill="white" stroke="#666666" points="401.5,-93 330.5,-93 330.5,-74 401.5,-74 401.5,-93"/>
<text text-anchor="middle" x="366" y="-81" font-family="Helvetica,sans-Serif" font-size="10.00">s_hyqmom</text>
</a>
</g>
</g>
<!-- Node4&#45;&gt;Node5 -->
<g id="edge6_Node000004_Node000005" class="edge">
<title>Node4&#45;&gt;Node5</title>
<g id="a_edge6_Node000004_Node000005"><a xlink:title=" ">
<path fill="none" stroke="#63b8ff" d="M246.75,-83.5C268.8,-83.5 296.88,-83.5 320.14,-83.5"/>
<polygon fill="#63b8ff" stroke="#63b8ff" points="320.45,-87 330.45,-83.5 320.45,-80 320.45,-87"/>
</a>
</g>
</g>
<!-- Node7 -->
<g id="Node000007" class="node">
<title>Node7</title>
<g id="a_Node000007"><a xlink:href="namespacem__qbmm.html#ad9cdf4bbd8165d785faec51d38d14e82" target="_top" xlink:title=" ">
<polygon fill="white" stroke="#666666" points="418,-56 314,-56 314,-37 418,-37 418,-56"/>
<text text-anchor="middle" x="366" y="-44" font-family="Helvetica,sans-Serif" font-size="10.00">m_qbmm::s_coeff</text>
</a>
</g>
</g>
<!-- Node6&#45;&gt;Node7 -->
<g id="edge8_Node000006_Node000007" class="edge">
<title>Node6&#45;&gt;Node7</title>
<g id="a_edge8_Node000006_Node000007"><a xlink:title=" ">
<path fill="none" stroke="#63b8ff" d="M256.16,-46.5C271.05,-46.5 287.77,-46.5 303.56,-46.5"/>
<polygon fill="#63b8ff" stroke="#63b8ff" points="303.76,-50 313.76,-46.5 303.76,-43 303.76,-50"/>
</a>
</g>
</g>
<!-- Node8 -->
<g id="Node000008" class="node">
<title>Node8</title>
<g id="a_Node000008"><a xlink:href="namespacem__qbmm.html#a5e0072c74b73c5cb22a0cc0407ff6acc" target="_top" xlink:title=" ">
<polygon fill="white" stroke="#666666" points="440,-19 292,-19 292,0 440,0 440,-19"/>
<text text-anchor="middle" x="366" y="-7" font-family="Helvetica,sans-Serif" font-size="10.00">m_qbmm::s_coeff_nonpoly</text>
</a>
</g>
</g>
<!-- Node6&#45;&gt;Node8 -->
<g id="edge9_Node000006_Node000008" class="edge">
<title>Node6&#45;&gt;Node8</title>
<g id="a_edge9_Node000006_Node000008"><a xlink:title=" ">
<path fill="none" stroke="#63b8ff" d="M249.55,-36.97C269.51,-32.22 293.85,-26.43 315.03,-21.39"/>
<polygon fill="#63b8ff" stroke="#63b8ff" points="315.9,-24.78 324.82,-19.06 314.28,-17.97 315.9,-24.78"/>
</a>
</g>
</g>
</g>
</svg>
