<?xml version="1.0" encoding="UTF-8" standalone="no"?>
<!DOCTYPE svg PUBLIC "-//W3C//DTD SVG 1.1//EN"
 "http://www.w3.org/Graphics/SVG/1.1/DTD/svg11.dtd">
<!-- Generated by graphviz version 2.43.0 (0)
 -->
<!-- Title: m_bubbles_el::s_locate_cell Pages: 1 -->
<svg width="922pt" height="86pt"
 viewBox="0.00 0.00 922.00 86.00" xmlns="http://www.w3.org/2000/svg" xmlns:xlink="http://www.w3.org/1999/xlink">
<g id="graph0" class="graph" transform="scale(1 1) rotate(0) translate(4 82)">
<title>m_bubbles_el::s_locate_cell</title>
<!-- Node1 -->
<g id="Node000001" class="node">
<title>Node1</title>
<g id="a_Node000001"><a xlink:title="This subroutine returns the computational coordinate of the cell for the given position.">
<polygon fill="#999999" stroke="#666666" points="914,-48.5 761,-48.5 761,-29.5 914,-29.5 914,-48.5"/>
<text text-anchor="middle" x="837.5" y="-36.5" font-family="Helvetica,sans-Serif" font-size="10.00">m_bubbles_el::s_locate_cell</text>
</a>
</g>
</g>
<!-- Node2 -->
<g id="Node000002" class="node">
<title>Node2</title>
<g id="a_Node000002"><a xlink:href="namespacem__bubbles__el.html#a4f042d2a68a99bf08f3b487232dcbeaf" target="_top" xlink:title="The purpose of this procedure is to obtain the information of the bubbles when starting fresh.">
<polygon fill="white" stroke="#666666" points="718,-78 599,-78 599,-48 718,-48 718,-78"/>
<text text-anchor="start" x="607" y="-66" font-family="Helvetica,sans-Serif" font-size="10.00">m_bubbles_el::s_add</text>
<text text-anchor="middle" x="658.5" y="-55" font-family="Helvetica,sans-Serif" font-size="10.00">_bubbles</text>
</a>
</g>
</g>
<!-- Node1&#45;&gt;Node2 -->
<g id="edge1_Node000001_Node000002" class="edge">
<title>Node1&#45;&gt;Node2</title>
<g id="a_edge1_Node000001_Node000002"><a xlink:title=" ">
<path fill="none" stroke="#63b8ff" d="M756.12,-49.9C743.36,-51.63 730.37,-53.39 718.22,-55.04"/>
<polygon fill="#63b8ff" stroke="#63b8ff" points="756.85,-53.33 766.29,-48.52 755.91,-46.4 756.85,-53.33"/>
</a>
</g>
</g>
<!-- Node7 -->
<g id="Node000007" class="node">
<title>Node7</title>
<g id="a_Node000007"><a xlink:href="namespacem__bubbles__el.html#a73d29f366d826f822f780ebdcc3660ba" target="_top" xlink:title="The purpose of this procedure is to obtain the information of the bubbles from a restart point.">
<polygon fill="white" stroke="#666666" points="725,-30 592,-30 592,0 725,0 725,-30"/>
<text text-anchor="start" x="600" y="-18" font-family="Helvetica,sans-Serif" font-size="10.00">m_bubbles_el::s_restart</text>
<text text-anchor="middle" x="658.5" y="-7" font-family="Helvetica,sans-Serif" font-size="10.00">_bubbles</text>
</a>
</g>
</g>
<!-- Node1&#45;&gt;Node7 -->
<g id="edge6_Node000001_Node000007" class="edge">
<title>Node1&#45;&gt;Node7</title>
<g id="a_edge6_Node000001_Node000007"><a xlink:title=" ">
<path fill="none" stroke="#63b8ff" d="M756.32,-28.13C745.84,-26.71 735.21,-25.27 725.02,-23.88"/>
<polygon fill="#63b8ff" stroke="#63b8ff" points="755.91,-31.6 766.29,-29.48 756.85,-24.67 755.91,-31.6"/>
</a>
</g>
</g>
<!-- Node3 -->
<g id="Node000003" class="node">
<title>Node3</title>
<g id="a_Node000003"><a xlink:href="namespacem__bubbles__el.html#a3949f9675072f6d58218a03b46be1325" target="_top" xlink:title="The purpose of this procedure is to obtain the initial bubbles&#39; information.">
<polygon fill="white" stroke="#666666" points="556,-54 434,-54 434,-24 556,-24 556,-54"/>
<text text-anchor="start" x="442" y="-42" font-family="Helvetica,sans-Serif" font-size="10.00">m_bubbles_el::s_read</text>
<text text-anchor="middle" x="495" y="-31" font-family="Helvetica,sans-Serif" font-size="10.00">_input_bubbles</text>
</a>
</g>
</g>
<!-- Node2&#45;&gt;Node3 -->
<g id="edge2_Node000002_Node000003" class="edge">
<title>Node2&#45;&gt;Node3</title>
<g id="a_edge2_Node000002_Node000003"><a xlink:title=" ">
<path fill="none" stroke="#63b8ff" d="M588.84,-52.8C577.95,-51.18 566.75,-49.51 556.07,-47.93"/>
<polygon fill="#63b8ff" stroke="#63b8ff" points="588.33,-56.26 598.74,-54.27 589.36,-49.34 588.33,-56.26"/>
</a>
</g>
</g>
<!-- Node4 -->
<g id="Node000004" class="node">
<title>Node4</title>
<g id="a_Node000004"><a xlink:href="namespacem__bubbles__el.html#a515d55616253e3cc9d9243899e2dcea3" target="_top" xlink:title="Initializes the lagrangian subgrid bubble solver.">
<polygon fill="white" stroke="#666666" points="398,-54 255,-54 255,-24 398,-24 398,-54"/>
<text text-anchor="start" x="263" y="-42" font-family="Helvetica,sans-Serif" font-size="10.00">m_bubbles_el::s_initialize</text>
<text text-anchor="middle" x="326.5" y="-31" font-family="Helvetica,sans-Serif" font-size="10.00">_bubbles_el_module</text>
</a>
</g>
</g>
<!-- Node3&#45;&gt;Node4 -->
<g id="edge3_Node000003_Node000004" class="edge">
<title>Node3&#45;&gt;Node4</title>
<g id="a_edge3_Node000003_Node000004"><a xlink:title=" ">
<path fill="none" stroke="#63b8ff" d="M423.65,-39C415.17,-39 406.49,-39 398.01,-39"/>
<polygon fill="#63b8ff" stroke="#63b8ff" points="423.89,-42.5 433.89,-39 423.89,-35.5 423.89,-42.5"/>
</a>
</g>
</g>
<!-- Node5 -->
<g id="Node000005" class="node">
<title>Node5</title>
<g id="a_Node000005"><a xlink:href="namespacem__start__up.html#a1fb7a3f9d412acd2a9cbcfe8b45006dd" target="_top" xlink:title=" ">
<polygon fill="white" stroke="#666666" points="219,-54 89,-54 89,-24 219,-24 219,-54"/>
<text text-anchor="start" x="97" y="-42" font-family="Helvetica,sans-Serif" font-size="10.00">m_start_up::s_initialize</text>
<text text-anchor="middle" x="154" y="-31" font-family="Helvetica,sans-Serif" font-size="10.00">_modules</text>
</a>
</g>
</g>
<!-- Node4&#45;&gt;Node5 -->
<g id="edge4_Node000004_Node000005" class="edge">
<title>Node4&#45;&gt;Node5</title>
<g id="a_edge4_Node000004_Node000005"><a xlink:title=" ">
<path fill="none" stroke="#63b8ff" d="M244.65,-39C236.06,-39 227.42,-39 219.07,-39"/>
<polygon fill="#63b8ff" stroke="#63b8ff" points="244.67,-42.5 254.67,-39 244.67,-35.5 244.67,-42.5"/>
</a>
</g>
</g>
<!-- Node6 -->
<g id="Node000006" class="node">
<title>Node6</title>
<g id="a_Node000006"><a xlink:href="p__main_8fpp_8f90.html#aeec10ee8e2940c953967da3e374e1579" target="_top" xlink:title="Quasi&#45;conservative, shock&#45; and interface&#45; capturing finite&#45;volume scheme for the multicomponent Navie...">
<polygon fill="white" stroke="#666666" points="53,-48.5 0,-48.5 0,-29.5 53,-29.5 53,-48.5"/>
<text text-anchor="middle" x="26.5" y="-36.5" font-family="Helvetica,sans-Serif" font-size="10.00">p_main</text>
</a>
</g>
</g>
<!-- Node5&#45;&gt;Node6 -->
<g id="edge5_Node000005_Node000006" class="edge">
<title>Node5&#45;&gt;Node6</title>
<g id="a_edge5_Node000005_Node000006"><a xlink:title=" ">
<path fill="none" stroke="#63b8ff" d="M78.74,-39C69.58,-39 60.76,-39 53.09,-39"/>
<polygon fill="#63b8ff" stroke="#63b8ff" points="78.78,-42.5 88.78,-39 78.78,-35.5 78.78,-42.5"/>
</a>
</g>
</g>
<!-- Node7&#45;&gt;Node3 -->
<g id="edge7_Node000007_Node000003" class="edge">
<title>Node7&#45;&gt;Node3</title>
<g id="a_edge7_Node000007_Node000003"><a xlink:title=" ">
<path fill="none" stroke="#63b8ff" d="M581.78,-26.25C573.19,-27.53 564.52,-28.82 556.17,-30.06"/>
<polygon fill="#63b8ff" stroke="#63b8ff" points="582.43,-29.69 591.81,-24.76 581.41,-22.77 582.43,-29.69"/>
</a>
</g>
</g>
</g>
</svg>
