<?xml version="1.0" encoding="UTF-8" standalone="no"?>
<!DOCTYPE svg PUBLIC "-//W3C//DTD SVG 1.1//EN"
 "http://www.w3.org/Graphics/SVG/1.1/DTD/svg11.dtd">
<!-- Generated by graphviz version 2.43.0 (0)
 -->
<!-- Title: m_start_up::s_initialize_internal_energy_equations Pages: 1 -->
<svg width="521pt" height="167pt"
 viewBox="0.00 0.00 521.00 167.00" xmlns="http://www.w3.org/2000/svg" xmlns:xlink="http://www.w3.org/1999/xlink">
<g id="graph0" class="graph" transform="scale(1 1) rotate(0) translate(4 163)">
<title>m_start_up::s_initialize_internal_energy_equations</title>
<!-- Node1 -->
<g id="Node000001" class="node">
<title>Node1</title>
<g id="a_Node000001"><a xlink:title="The purpose of this procedure is to initialize the values of the internal&#45;energy equations of each ph...">
<polygon fill="#999999" stroke="#666666" points="152,-121.5 0,-121.5 0,-91.5 152,-91.5 152,-121.5"/>
<text text-anchor="start" x="8" y="-109.5" font-family="Helvetica,sans-Serif" font-size="10.00">m_start_up::s_initialize</text>
<text text-anchor="middle" x="76" y="-98.5" font-family="Helvetica,sans-Serif" font-size="10.00">_internal_energy_equations</text>
</a>
</g>
</g>
<!-- Node2 -->
<g id="Node000002" class="node">
<title>Node2</title>
<g id="a_Node000002"><a xlink:href="namespacem__variables__conversion.html#a58c19a9ba2767016cd7c916cd52b8d0e" target="_top" xlink:title="This procedure conditionally calculates the appropriate pressure.">
<polygon fill="white" stroke="#666666" points="323,-148.5 188,-148.5 188,-118.5 323,-118.5 323,-148.5"/>
<text text-anchor="start" x="196" y="-136.5" font-family="Helvetica,sans-Serif" font-size="10.00">m_variables_conversion</text>
<text text-anchor="middle" x="255.5" y="-125.5" font-family="Helvetica,sans-Serif" font-size="10.00">::s_compute_pressure</text>
</a>
</g>
</g>
<!-- Node1&#45;&gt;Node2 -->
<g id="edge1_Node000001_Node000002" class="edge">
<title>Node1&#45;&gt;Node2</title>
<g id="a_edge1_Node000001_Node000002"><a xlink:title=" ">
<path fill="none" stroke="#63b8ff" d="M152.02,-117.91C160.59,-119.21 169.33,-120.54 177.92,-121.85"/>
<polygon fill="#63b8ff" stroke="#63b8ff" points="177.5,-125.33 187.91,-123.37 178.55,-118.41 177.5,-125.33"/>
</a>
</g>
</g>
<!-- Node3 -->
<g id="Node000003" class="node">
<title>Node3</title>
<g id="a_Node000003"><a xlink:href="namespacem__variables__conversion.html#ad79dc943a9108e838d80bb2b264fba8e" target="_top" xlink:title="Dispatch to the s_convert_mixture_to_mixture_variables and s_convert_species_to_mixture_variables sub...">
<polygon fill="white" stroke="#666666" points="323,-100 188,-100 188,-59 323,-59 323,-100"/>
<text text-anchor="start" x="196" y="-88" font-family="Helvetica,sans-Serif" font-size="10.00">m_variables_conversion</text>
<text text-anchor="start" x="196" y="-77" font-family="Helvetica,sans-Serif" font-size="10.00">::s_convert_to_mixture</text>
<text text-anchor="middle" x="255.5" y="-66" font-family="Helvetica,sans-Serif" font-size="10.00">_variables</text>
</a>
</g>
</g>
<!-- Node1&#45;&gt;Node3 -->
<g id="edge2_Node000001_Node000003" class="edge">
<title>Node1&#45;&gt;Node3</title>
<g id="a_edge2_Node000001_Node000003"><a xlink:title=" ">
<path fill="none" stroke="#63b8ff" d="M152.02,-95.09C160.59,-93.79 169.33,-92.46 177.92,-91.15"/>
<polygon fill="#63b8ff" stroke="#63b8ff" points="178.55,-94.59 187.91,-89.63 177.5,-87.67 178.55,-94.59"/>
</a>
</g>
</g>
<!-- Node4 -->
<g id="Node000004" class="node">
<title>Node4</title>
<g id="a_Node000004"><a xlink:href="namespacem__variables__conversion.html#a8b30b668d9de48d0bf0d53fa56116847" target="_top" xlink:title="This subroutine is designed for the gamma/pi_inf model and provided a set of either conservative or p...">
<polygon fill="white" stroke="#666666" points="503.5,-159 368.5,-159 368.5,-118 503.5,-118 503.5,-159"/>
<text text-anchor="start" x="376.5" y="-147" font-family="Helvetica,sans-Serif" font-size="10.00">m_variables_conversion</text>
<text text-anchor="start" x="376.5" y="-136" font-family="Helvetica,sans-Serif" font-size="10.00">::s_convert_mixture_to</text>
<text text-anchor="middle" x="436" y="-125" font-family="Helvetica,sans-Serif" font-size="10.00">_mixture_variables</text>
</a>
</g>
</g>
<!-- Node3&#45;&gt;Node4 -->
<g id="edge3_Node000003_Node000004" class="edge">
<title>Node3&#45;&gt;Node4</title>
<g id="a_edge3_Node000003_Node000004"><a xlink:title=" ">
<path fill="none" stroke="#63b8ff" d="M318.68,-100.05C333.04,-104.8 348.44,-109.89 363.17,-114.76"/>
<polygon fill="#63b8ff" stroke="#63b8ff" points="362.15,-118.11 372.74,-117.92 364.34,-111.46 362.15,-118.11"/>
</a>
</g>
</g>
<!-- Node5 -->
<g id="Node000005" class="node">
<title>Node5</title>
<g id="a_Node000005"><a xlink:href="namespacem__variables__conversion.html#a7f3bffa0ba13432f79f095a78fcf6e5a" target="_top" xlink:title="This subroutine is designed for the volume fraction model and provided a set of either conservative o...">
<polygon fill="white" stroke="#666666" points="503.5,-100 368.5,-100 368.5,-59 503.5,-59 503.5,-100"/>
<text text-anchor="start" x="376.5" y="-88" font-family="Helvetica,sans-Serif" font-size="10.00">m_variables_conversion</text>
<text text-anchor="start" x="376.5" y="-77" font-family="Helvetica,sans-Serif" font-size="10.00">::s_convert_species_to</text>
<text text-anchor="middle" x="436" y="-66" font-family="Helvetica,sans-Serif" font-size="10.00">_mixture_variables</text>
</a>
</g>
</g>
<!-- Node3&#45;&gt;Node5 -->
<g id="edge4_Node000003_Node000005" class="edge">
<title>Node3&#45;&gt;Node5</title>
<g id="a_edge4_Node000003_Node000005"><a xlink:title=" ">
<path fill="none" stroke="#63b8ff" d="M323.22,-79.5C334.63,-79.5 346.57,-79.5 358.22,-79.5"/>
<polygon fill="#63b8ff" stroke="#63b8ff" points="358.36,-83 368.36,-79.5 358.36,-76 358.36,-83"/>
</a>
</g>
</g>
<!-- Node6 -->
<g id="Node000006" class="node">
<title>Node6</title>
<g id="a_Node000006"><a xlink:href="namespacem__variables__conversion.html#a57f893a44db2368e82339b2993a05ff4" target="_top" xlink:title="This procedure is used alongside with the gamma/pi_inf model to transfer the density,...">
<polygon fill="white" stroke="#666666" points="513,-41 359,-41 359,0 513,0 513,-41"/>
<text text-anchor="start" x="367" y="-29" font-family="Helvetica,sans-Serif" font-size="10.00">m_variables_conversion</text>
<text text-anchor="start" x="367" y="-18" font-family="Helvetica,sans-Serif" font-size="10.00">::s_convert_species_to</text>
<text text-anchor="middle" x="436" y="-7" font-family="Helvetica,sans-Serif" font-size="10.00">_mixture_variables_bubbles</text>
</a>
</g>
</g>
<!-- Node3&#45;&gt;Node6 -->
<g id="edge5_Node000003_Node000006" class="edge">
<title>Node3&#45;&gt;Node6</title>
<g id="a_edge5_Node000003_Node000006"><a xlink:title=" ">
<path fill="none" stroke="#63b8ff" d="M318.68,-58.95C333.04,-54.2 348.44,-49.11 363.17,-44.24"/>
<polygon fill="#63b8ff" stroke="#63b8ff" points="364.34,-47.54 372.74,-41.08 362.15,-40.89 364.34,-47.54"/>
</a>
</g>
</g>
</g>
</svg>
