<?xml version="1.0" encoding="UTF-8" standalone="no"?>
<!DOCTYPE svg PUBLIC "-//W3C//DTD SVG 1.1//EN"
 "http://www.w3.org/Graphics/SVG/1.1/DTD/svg11.dtd">
<!-- Generated by graphviz version 2.43.0 (0)
 -->
<!-- Title: m_bubbles::f_cgas Pages: 1 -->
<svg width="615pt" height="86pt"
 viewBox="0.00 0.00 615.00 86.00" xmlns="http://www.w3.org/2000/svg" xmlns:xlink="http://www.w3.org/1999/xlink">
<g id="graph0" class="graph" transform="scale(1 1) rotate(0) translate(4 82)">
<title>m_bubbles::f_cgas</title>
<!-- Node1 -->
<g id="Node000001" class="node">
<title>Node1</title>
<g id="a_Node000001"><a xlink:title="Function that computes the sound speed for the bubble.">
<polygon fill="#999999" stroke="#666666" points="607,-48.5 500,-48.5 500,-29.5 607,-29.5 607,-48.5"/>
<text text-anchor="middle" x="553.5" y="-36.5" font-family="Helvetica,sans-Serif" font-size="10.00">m_bubbles::f_cgas</text>
</a>
</g>
</g>
<!-- Node1&#45;&gt;Node1 -->
<g id="edge1_Node000001_Node000001" class="edge">
<title>Node1&#45;&gt;Node1</title>
<g id="a_edge1_Node000001_Node000001"><a xlink:title=" ">
<path fill="none" stroke="#63b8ff" d="M580.29,-57.69C578.82,-62.7 569.9,-66.5 553.5,-66.5 527.91,-66.5 520.51,-57.23 531.31,-48.58"/>
<polygon fill="#63b8ff" stroke="#63b8ff" points="583.32,-55.94 575.69,-48.58 577.07,-59.09 583.32,-55.94"/>
</a>
</g>
</g>
<!-- Node2 -->
<g id="Node000002" class="node">
<title>Node2</title>
<g id="a_Node000002"><a xlink:href="namespacem__bubbles.html#adb6097eda424f5e9fe16a9897b6a6b17" target="_top" xlink:title="Function that computes the bubble radial acceleration based on bubble models.">
<polygon fill="white" stroke="#666666" points="464,-48.5 354,-48.5 354,-29.5 464,-29.5 464,-48.5"/>
<text text-anchor="middle" x="409" y="-36.5" font-family="Helvetica,sans-Serif" font-size="10.00">m_bubbles::f_rddot</text>
</a>
</g>
</g>
<!-- Node1&#45;&gt;Node2 -->
<g id="edge2_Node000001_Node000002" class="edge">
<title>Node1&#45;&gt;Node2</title>
<g id="a_edge2_Node000001_Node000002"><a xlink:title=" ">
<path fill="none" stroke="#63b8ff" d="M489.66,-39C481.22,-39 472.62,-39 464.35,-39"/>
<polygon fill="#63b8ff" stroke="#63b8ff" points="489.84,-42.5 499.84,-39 489.84,-35.5 489.84,-42.5"/>
</a>
</g>
</g>
<!-- Node2&#45;&gt;Node2 -->
<g id="edge3_Node000002_Node000002" class="edge">
<title>Node2&#45;&gt;Node2</title>
<g id="a_edge3_Node000002_Node000002"><a xlink:title=" ">
<path fill="none" stroke="#63b8ff" d="M435.79,-57.69C434.32,-62.7 425.4,-66.5 409,-66.5 383.41,-66.5 376.01,-57.23 386.81,-48.58"/>
<polygon fill="#63b8ff" stroke="#63b8ff" points="438.82,-55.94 431.19,-48.58 432.57,-59.09 438.82,-55.94"/>
</a>
</g>
</g>
<!-- Node3 -->
<g id="Node000003" class="node">
<title>Node3</title>
<g id="a_Node000003"><a xlink:href="namespacem__bubbles.html#a58b32597dfaefbb21cf23ca74203c5ad" target="_top" xlink:title="Integrate bubble variables over the given time step size, h, using a third&#45;order accurate embedded Ru...">
<polygon fill="white" stroke="#666666" points="318,-78 190,-78 190,-48 318,-48 318,-78"/>
<text text-anchor="start" x="198" y="-66" font-family="Helvetica,sans-Serif" font-size="10.00">m_bubbles::s_advance</text>
<text text-anchor="middle" x="254" y="-55" font-family="Helvetica,sans-Serif" font-size="10.00">_substep</text>
</a>
</g>
</g>
<!-- Node2&#45;&gt;Node3 -->
<g id="edge4_Node000002_Node000003" class="edge">
<title>Node2&#45;&gt;Node3</title>
<g id="a_edge4_Node000002_Node000003"><a xlink:title=" ">
<path fill="none" stroke="#63b8ff" d="M343.49,-49.12C335.08,-50.44 326.47,-51.79 318.08,-53.11"/>
<polygon fill="#63b8ff" stroke="#63b8ff" points="344.29,-52.54 353.63,-47.53 343.21,-45.62 344.29,-52.54"/>
</a>
</g>
</g>
<!-- Node5 -->
<g id="Node000005" class="node">
<title>Node5</title>
<g id="a_Node000005"><a xlink:href="namespacem__bubbles.html#ab94791da6f5cbc767853c8c5208a3eb0" target="_top" xlink:title="Choose the initial time step size for the adaptive time stepping routine (See Heirer,...">
<polygon fill="white" stroke="#666666" points="311,-30 197,-30 197,0 311,0 311,-30"/>
<text text-anchor="start" x="205" y="-18" font-family="Helvetica,sans-Serif" font-size="10.00">m_bubbles::s_initial</text>
<text text-anchor="middle" x="254" y="-7" font-family="Helvetica,sans-Serif" font-size="10.00">_substep_h</text>
</a>
</g>
</g>
<!-- Node2&#45;&gt;Node5 -->
<g id="edge6_Node000002_Node000005" class="edge">
<title>Node2&#45;&gt;Node5</title>
<g id="a_edge6_Node000002_Node000005"><a xlink:title=" ">
<path fill="none" stroke="#63b8ff" d="M343.42,-28.87C332.65,-27.18 321.55,-25.44 311.01,-23.79"/>
<polygon fill="#63b8ff" stroke="#63b8ff" points="343.21,-32.38 353.63,-30.47 344.29,-25.46 343.21,-32.38"/>
</a>
</g>
</g>
<!-- Node4 -->
<g id="Node000004" class="node">
<title>Node4</title>
<g id="a_Node000004"><a xlink:href="namespacem__bubbles.html#a8fa7693467966aebe329db289e1fd8e0" target="_top" xlink:title="Adaptive time stepping routine for subgrid bubbles (See Heirer, E. Hairer S.P.Nørsett G....">
<polygon fill="white" stroke="#666666" points="154,-48.5 0,-48.5 0,-29.5 154,-29.5 154,-48.5"/>
<text text-anchor="middle" x="77" y="-36.5" font-family="Helvetica,sans-Serif" font-size="10.00">m_bubbles::s_advance_step</text>
</a>
</g>
</g>
<!-- Node3&#45;&gt;Node4 -->
<g id="edge5_Node000003_Node000004" class="edge">
<title>Node3&#45;&gt;Node4</title>
<g id="a_edge5_Node000003_Node000004"><a xlink:title=" ">
<path fill="none" stroke="#63b8ff" d="M179.66,-52.94C168.94,-51.47 157.94,-49.96 147.31,-48.5"/>
<polygon fill="#63b8ff" stroke="#63b8ff" points="179.44,-56.44 189.82,-54.34 180.39,-49.51 179.44,-56.44"/>
</a>
</g>
</g>
<!-- Node5&#45;&gt;Node4 -->
<g id="edge7_Node000005_Node000004" class="edge">
<title>Node5&#45;&gt;Node4</title>
<g id="a_edge7_Node000005_Node000004"><a xlink:title=" ">
<path fill="none" stroke="#63b8ff" d="M186.56,-24.11C173.75,-25.87 160.31,-27.71 147.41,-29.48"/>
<polygon fill="#63b8ff" stroke="#63b8ff" points="187.23,-27.55 196.67,-22.73 186.28,-20.62 187.23,-27.55"/>
</a>
</g>
</g>
</g>
</svg>
