<?xml version="1.0" encoding="UTF-8" standalone="no"?>
<!DOCTYPE svg PUBLIC "-//W3C//DTD SVG 1.1//EN"
 "http://www.w3.org/Graphics/SVG/1.1/DTD/svg11.dtd">
<!-- Generated by graphviz version 2.43.0 (0)
 -->
<!-- Title: m_acoustic_src::s_acoustic_src_calculations Pages: 1 -->
<svg width="348pt" height="170pt"
 viewBox="0.00 0.00 348.00 170.00" xmlns="http://www.w3.org/2000/svg" xmlns:xlink="http://www.w3.org/1999/xlink">

<svg id="main" version="1.1" xmlns="http://www.w3.org/2000/svg" xmlns:xlink="http://www.w3.org/1999/xlink" xml:space="preserve">

<style type="text/css"><![CDATA[
.node, .edge {opacity: 0.7;}
.node.selected, .edge.selected {opacity: 1;}
.edge:hover path { stroke: red; }
.edge:hover polygon { stroke: red; fill: red; }
]]></style>
<script type="application/ecmascript" xlink:href="svg.min.js"/>
<svg id="graph" class="graph">
<g id="graph0" class="graph" transform="scale(1 1) rotate(0) translate(4 166)">
<title>m_acoustic_src::s_acoustic_src_calculations</title>
<!-- Node1 -->
<g id="Node000001" class="node">
<title>Node1</title>
<g id="a_Node000001"><a xlink:title="This subroutine updates the rhs by computing the mass, mom, energy sources.">
<polygon fill="#999999" stroke="#666666" points="149,-78 0,-78 0,-48 149,-48 149,-78"/>
<text text-anchor="start" x="8" y="-66" font-family="Helvetica,sans-Serif" font-size="10.00">m_acoustic_src::s_acoustic</text>
<text text-anchor="middle" x="74.5" y="-55" font-family="Helvetica,sans-Serif" font-size="10.00">_src_calculations</text>
</a>
</g>
</g>
<!-- Node2 -->
<g id="Node000002" class="node">
<title>Node2</title>
<g id="a_Node000002"><a xlink:href="namespacem__acoustic__src.html#a0efe1888a9e12bca68f04f5f1b92f76e" target="_top" xlink:title="This function performs wavelength to frequency conversion.">
<polygon fill="white" stroke="#666666" points="340,-144 185,-144 185,-114 340,-114 340,-144"/>
<text text-anchor="start" x="193" y="-132" font-family="Helvetica,sans-Serif" font-size="10.00">m_acoustic_src::f_frequency</text>
<text text-anchor="middle" x="262.5" y="-121" font-family="Helvetica,sans-Serif" font-size="10.00">_local</text>
</a>
</g>
</g>
<!-- Node1&#45;&gt;Node2 -->
<g id="edge1_Node000001_Node000002" class="edge">
<title>Node1&#45;&gt;Node2</title>
<g id="a_edge1_Node000001_Node000002"><a xlink:title=" ">
<path fill="none" stroke="#63b8ff" d="M113.04,-78.06C134.08,-86.34 160.87,-96.6 185,-105 190.56,-106.94 196.37,-108.89 202.19,-110.79"/>
<polygon fill="#63b8ff" stroke="#63b8ff" points="201.38,-114.21 211.97,-113.96 203.53,-107.55 201.38,-114.21"/>
</a>
</g>
</g>
<!-- Node3 -->
<g id="Node000003" class="node">
<title>Node3</title>
<g id="a_Node000003"><a xlink:href="namespacem__acoustic__src.html#ae8269daac06b5490e1b307b8d910d7fe" target="_top" xlink:title="This function performs Gaussian sigma dist to time conversion.">
<polygon fill="white" stroke="#666666" points="330,-78 195,-78 195,-48 330,-48 330,-78"/>
<text text-anchor="start" x="203" y="-66" font-family="Helvetica,sans-Serif" font-size="10.00">m_acoustic_src::f_gauss</text>
<text text-anchor="middle" x="262.5" y="-55" font-family="Helvetica,sans-Serif" font-size="10.00">_sigma_time_local</text>
</a>
</g>
</g>
<!-- Node1&#45;&gt;Node3 -->
<g id="edge3_Node000001_Node000003" class="edge">
<title>Node1&#45;&gt;Node3</title>
<g id="a_edge3_Node000001_Node000003"><a xlink:title=" ">
<path fill="none" stroke="#63b8ff" d="M149.01,-63C160.71,-63 172.85,-63 184.62,-63"/>
<polygon fill="#63b8ff" stroke="#63b8ff" points="184.86,-66.5 194.86,-63 184.86,-59.5 184.86,-66.5"/>
</a>
</g>
</g>
<!-- Node4 -->
<g id="Node000004" class="node">
<title>Node4</title>
<g id="a_Node000004"><a xlink:href="namespacem__acoustic__src.html#ae7c2fe00940963c650cd3f28f65a4d1b" target="_top" xlink:title="This subroutine gives the temporally varying amplitude of the pulse.">
<polygon fill="white" stroke="#666666" points="332.5,-30 192.5,-30 192.5,0 332.5,0 332.5,-30"/>
<text text-anchor="start" x="200.5" y="-18" font-family="Helvetica,sans-Serif" font-size="10.00">m_acoustic_src::s_source</text>
<text text-anchor="middle" x="262.5" y="-7" font-family="Helvetica,sans-Serif" font-size="10.00">_temporal</text>
</a>
</g>
</g>
<!-- Node1&#45;&gt;Node4 -->
<g id="edge5_Node000001_Node000004" class="edge">
<title>Node1&#45;&gt;Node4</title>
<g id="a_edge5_Node000001_Node000004"><a xlink:title=" ">
<path fill="none" stroke="#63b8ff" d="M133.84,-47.94C152.8,-43.05 174,-37.58 193.59,-32.52"/>
<polygon fill="#63b8ff" stroke="#63b8ff" points="194.56,-35.89 203.37,-30 192.81,-29.11 194.56,-35.89"/>
</a>
</g>
</g>
<!-- Node2&#45;&gt;Node2 -->
<g id="edge2_Node000002_Node000002" class="edge">
<title>Node2&#45;&gt;Node2</title>
<g id="a_edge2_Node000002_Node000002"><a xlink:title=" ">
<path fill="none" stroke="#63b8ff" d="M229.45,-144.28C222.11,-153.41 233.12,-162 262.5,-162 279.94,-162 290.91,-158.97 295.41,-154.6"/>
<polygon fill="#63b8ff" stroke="#63b8ff" points="298.91,-154.32 295.55,-144.28 291.91,-154.23 298.91,-154.32"/>
</a>
</g>
</g>
<!-- Node3&#45;&gt;Node3 -->
<g id="edge4_Node000003_Node000003" class="edge">
<title>Node3&#45;&gt;Node3</title>
<g id="a_edge4_Node000003_Node000003"><a xlink:title=" ">
<path fill="none" stroke="#63b8ff" d="M229.45,-78.28C222.11,-87.41 233.12,-96 262.5,-96 279.94,-96 290.91,-92.97 295.41,-88.6"/>
<polygon fill="#63b8ff" stroke="#63b8ff" points="298.91,-88.32 295.55,-78.28 291.91,-88.23 298.91,-88.32"/>
</a>
</g>
</g>
</g>
</svg>
</svg>

<style type='text/css'>
<![CDATA[
[data-mouse-over-selected='false'] { opacity: 0.7; }
[data-mouse-over-selected='true']  { opacity: 1.0; }
]]>
</style>
<script type="application/ecmascript"><![CDATA[
document.addEventListener('DOMContentLoaded', (event) => {
  highlightEdges();
  highlightAdjacentNodes();
});
]]></script>
</svg>
