<?xml version="1.0" encoding="UTF-8" standalone="no"?>
<!DOCTYPE svg PUBLIC "-//W3C//DTD SVG 1.1//EN"
 "http://www.w3.org/Graphics/SVG/1.1/DTD/svg11.dtd">
<!-- Generated by graphviz version 2.43.0 (0)
 -->
<!-- Title: m_cbc::s_cbc Pages: 1 -->
<svg width="270pt" height="113pt"
 viewBox="0.00 0.00 270.00 112.50" xmlns="http://www.w3.org/2000/svg" xmlns:xlink="http://www.w3.org/1999/xlink">
<g id="graph0" class="graph" transform="scale(1 1) rotate(0) translate(4 108.5)">
<title>m_cbc::s_cbc</title>
<!-- Node1 -->
<g id="Node000001" class="node">
<title>Node1</title>
<g id="a_Node000001"><a xlink:title="The following is the implementation of the CBC based on the work of Thompson (1987,...">
<polygon fill="#999999" stroke="#666666" points="81,-56 0,-56 0,-37 81,-37 81,-56"/>
<text text-anchor="middle" x="40.5" y="-44" font-family="Helvetica,sans-Serif" font-size="10.00">m_cbc::s_cbc</text>
</a>
</g>
</g>
<!-- Node2 -->
<g id="Node000002" class="node">
<title>Node2</title>
<g id="a_Node000002"><a xlink:href="namespacem__cbc.html#a0860f3f0c146b497f05ed57e07e0d4d9" target="_top" xlink:title=" ">
<polygon fill="white" stroke="#666666" points="262,-104.5 117,-104.5 117,-74.5 262,-74.5 262,-104.5"/>
<text text-anchor="start" x="125" y="-92.5" font-family="Helvetica,sans-Serif" font-size="10.00">m_cbc::s_associate</text>
<text text-anchor="middle" x="189.5" y="-81.5" font-family="Helvetica,sans-Serif" font-size="10.00">_cbc_coefficients_pointers</text>
</a>
</g>
</g>
<!-- Node1&#45;&gt;Node2 -->
<g id="edge1_Node000001_Node000002" class="edge">
<title>Node1&#45;&gt;Node2</title>
<g id="a_edge1_Node000001_Node000002"><a xlink:title=" ">
<path fill="none" stroke="#63b8ff" d="M74.12,-56.04C89.83,-60.64 109.18,-66.3 127.47,-71.65"/>
<polygon fill="#63b8ff" stroke="#63b8ff" points="126.62,-75.05 137.2,-74.49 128.58,-68.33 126.62,-75.05"/>
</a>
</g>
</g>
<!-- Node3 -->
<g id="Node000003" class="node">
<title>Node3</title>
<g id="a_Node000003"><a xlink:href="namespacem__cbc.html#a7a539198fcae8bf46592bd75907429ea" target="_top" xlink:title="Deallocation and/or the disassociation procedures that are necessary in order to finalize the CBC app...">
<polygon fill="white" stroke="#666666" points="250.5,-56 128.5,-56 128.5,-37 250.5,-37 250.5,-56"/>
<text text-anchor="middle" x="189.5" y="-44" font-family="Helvetica,sans-Serif" font-size="10.00">m_cbc::s_finalize_cbc</text>
</a>
</g>
</g>
<!-- Node1&#45;&gt;Node3 -->
<g id="edge2_Node000001_Node000003" class="edge">
<title>Node1&#45;&gt;Node3</title>
<g id="a_edge2_Node000001_Node000003"><a xlink:title=" ">
<path fill="none" stroke="#63b8ff" d="M81.28,-46.5C92.69,-46.5 105.48,-46.5 118.14,-46.5"/>
<polygon fill="#63b8ff" stroke="#63b8ff" points="118.24,-50 128.24,-46.5 118.24,-43 118.24,-50"/>
</a>
</g>
</g>
<!-- Node4 -->
<g id="Node000004" class="node">
<title>Node4</title>
<g id="a_Node000004"><a xlink:href="namespacem__cbc.html#ae32673f5dc3342969a7b48e4348271eb" target="_top" xlink:title="The computation of parameters, the allocation of memory, the association of pointers and/or the execu...">
<polygon fill="white" stroke="#666666" points="253.5,-19 125.5,-19 125.5,0 253.5,0 253.5,-19"/>
<text text-anchor="middle" x="189.5" y="-7" font-family="Helvetica,sans-Serif" font-size="10.00">m_cbc::s_initialize_cbc</text>
</a>
</g>
</g>
<!-- Node1&#45;&gt;Node4 -->
<g id="edge3_Node000001_Node000004" class="edge">
<title>Node1&#45;&gt;Node4</title>
<g id="a_edge3_Node000001_Node000004"><a xlink:title=" ">
<path fill="none" stroke="#63b8ff" d="M79.36,-36.97C98.06,-32.26 120.82,-26.53 140.72,-21.53"/>
<polygon fill="#63b8ff" stroke="#63b8ff" points="141.67,-24.9 150.52,-19.06 139.97,-18.11 141.67,-24.9"/>
</a>
</g>
</g>
</g>
</svg>
