<?xml version="1.0" encoding="UTF-8" standalone="no"?>
<!DOCTYPE svg PUBLIC "-//W3C//DTD SVG 1.1//EN"
 "http://www.w3.org/Graphics/SVG/1.1/DTD/svg11.dtd">
<!-- Generated by graphviz version 2.43.0 (0)
 -->
<!-- Title: m_compile_specific::my_inquire Pages: 1 -->
<svg width="718pt" height="182pt"
 viewBox="0.00 0.00 718.00 182.00" xmlns="http://www.w3.org/2000/svg" xmlns:xlink="http://www.w3.org/1999/xlink">
<g id="graph0" class="graph" transform="scale(1 1) rotate(0) translate(4 178)">
<title>m_compile_specific::my_inquire</title>
<!-- Node1 -->
<g id="Node000001" class="node">
<title>Node1</title>
<g id="a_Node000001"><a xlink:title="Inquires on the existence of a directory.">
<polygon fill="#999999" stroke="#666666" points="710,-102 597,-102 597,-72 710,-72 710,-102"/>
<text text-anchor="start" x="605" y="-90" font-family="Helvetica,sans-Serif" font-size="10.00">m_compile_specific</text>
<text text-anchor="middle" x="653.5" y="-79" font-family="Helvetica,sans-Serif" font-size="10.00">::my_inquire</text>
</a>
</g>
</g>
<!-- Node2 -->
<g id="Node000002" class="node">
<title>Node2</title>
<g id="a_Node000002"><a xlink:href="namespacem__start__up.html#ad26e747c87bb6bcf4c9d6baa21d044c1" target="_top" xlink:title="The goal of this procedure is to verify that each of the user provided inputs is valid and that their...">
<polygon fill="white" stroke="#666666" points="553.5,-174 437.5,-174 437.5,-144 553.5,-144 553.5,-174"/>
<text text-anchor="start" x="445.5" y="-162" font-family="Helvetica,sans-Serif" font-size="10.00">m_start_up::s_check</text>
<text text-anchor="middle" x="495.5" y="-151" font-family="Helvetica,sans-Serif" font-size="10.00">_input_file</text>
</a>
</g>
</g>
<!-- Node1&#45;&gt;Node2 -->
<g id="edge1_Node000001_Node000002" class="edge">
<title>Node1&#45;&gt;Node2</title>
<g id="a_edge1_Node000001_Node000002"><a xlink:title=" ">
<path fill="none" stroke="#63b8ff" d="M616.84,-107.05C600.13,-116.1 579.8,-126.61 561,-135 554.13,-138.07 546.73,-141.08 539.48,-143.87"/>
<polygon fill="#63b8ff" stroke="#63b8ff" points="618.62,-110.07 625.72,-102.2 615.27,-103.92 618.62,-110.07"/>
</a>
</g>
</g>
<!-- Node5 -->
<g id="Node000005" class="node">
<title>Node5</title>
<g id="a_Node000005"><a xlink:href="namespacem__start__up.html#a1bf604b2afd7b81737153114d92e7c80" target="_top" xlink:title=" ">
<polygon fill="white" stroke="#666666" points="550.5,-126 440.5,-126 440.5,-96 550.5,-96 550.5,-126"/>
<text text-anchor="start" x="448.5" y="-114" font-family="Helvetica,sans-Serif" font-size="10.00">m_start_up::s_read</text>
<text text-anchor="middle" x="495.5" y="-103" font-family="Helvetica,sans-Serif" font-size="10.00">_serial_data_files</text>
</a>
</g>
</g>
<!-- Node1&#45;&gt;Node5 -->
<g id="edge4_Node000001_Node000005" class="edge">
<title>Node1&#45;&gt;Node5</title>
<g id="a_edge4_Node000001_Node000005"><a xlink:title=" ">
<path fill="none" stroke="#63b8ff" d="M586.67,-97.13C574.67,-98.97 562.29,-100.88 550.68,-102.66"/>
<polygon fill="#63b8ff" stroke="#63b8ff" points="587.27,-100.58 596.62,-95.6 586.21,-93.66 587.27,-100.58"/>
</a>
</g>
</g>
<!-- Node8 -->
<g id="Node000008" class="node">
<title>Node8</title>
<g id="a_Node000008"><a xlink:href="namespacem__data__output.html#a70eef01cb0dda6dd292ddc4b63544be5" target="_top" xlink:title="The goal of this subroutine is to output the grid and conservative variables data files for given tim...">
<polygon fill="white" stroke="#666666" points="561,-78 430,-78 430,-48 561,-48 561,-78"/>
<text text-anchor="start" x="438" y="-66" font-family="Helvetica,sans-Serif" font-size="10.00">m_data_output::s_write</text>
<text text-anchor="middle" x="495.5" y="-55" font-family="Helvetica,sans-Serif" font-size="10.00">_parallel_data_files</text>
</a>
</g>
</g>
<!-- Node1&#45;&gt;Node8 -->
<g id="edge8_Node000001_Node000008" class="edge">
<title>Node1&#45;&gt;Node8</title>
<g id="a_edge8_Node000001_Node000008"><a xlink:title=" ">
<path fill="none" stroke="#63b8ff" d="M586.46,-76.84C578.04,-75.54 569.42,-74.22 561.02,-72.93"/>
<polygon fill="#63b8ff" stroke="#63b8ff" points="586.21,-80.34 596.62,-78.4 587.27,-73.42 586.21,-80.34"/>
</a>
</g>
</g>
<!-- Node11 -->
<g id="Node000011" class="node">
<title>Node11</title>
<g id="a_Node000011"><a xlink:href="namespacem__data__output.html#aa24a29afef33c331f912d6d57dbbc5fd" target="_top" xlink:title="The goal of this subroutine is to output the grid and conservative variables data files for given tim...">
<polygon fill="white" stroke="#666666" points="561,-30 430,-30 430,0 561,0 561,-30"/>
<text text-anchor="start" x="438" y="-18" font-family="Helvetica,sans-Serif" font-size="10.00">m_data_output::s_write</text>
<text text-anchor="middle" x="495.5" y="-7" font-family="Helvetica,sans-Serif" font-size="10.00">_serial_data_files</text>
</a>
</g>
</g>
<!-- Node1&#45;&gt;Node11 -->
<g id="edge12_Node000001_Node000011" class="edge">
<title>Node1&#45;&gt;Node11</title>
<g id="a_edge12_Node000001_Node000011"><a xlink:title=" ">
<path fill="none" stroke="#63b8ff" d="M616.84,-66.95C600.13,-57.9 579.8,-47.39 561,-39 554.13,-35.93 546.73,-32.92 539.48,-30.13"/>
<polygon fill="#63b8ff" stroke="#63b8ff" points="615.27,-70.08 625.72,-71.8 618.62,-63.93 615.27,-70.08"/>
</a>
</g>
</g>
<!-- Node3 -->
<g id="Node000003" class="node">
<title>Node3</title>
<g id="a_Node000003"><a xlink:href="namespacem__start__up.html#ab64542f13c680e17ce8879c77c65c0e0" target="_top" xlink:title=" ">
<polygon fill="white" stroke="#666666" points="223,-174 93,-174 93,-144 223,-144 223,-174"/>
<text text-anchor="start" x="101" y="-162" font-family="Helvetica,sans-Serif" font-size="10.00">m_start_up::s_initialize</text>
<text text-anchor="middle" x="158" y="-151" font-family="Helvetica,sans-Serif" font-size="10.00">_mpi_domain</text>
</a>
</g>
</g>
<!-- Node2&#45;&gt;Node3 -->
<g id="edge2_Node000002_Node000003" class="edge">
<title>Node2&#45;&gt;Node3</title>
<g id="a_edge2_Node000002_Node000003"><a xlink:title=" ">
<path fill="none" stroke="#63b8ff" d="M427.17,-159C367.74,-159 281.69,-159 223.22,-159"/>
<polygon fill="#63b8ff" stroke="#63b8ff" points="427.21,-162.5 437.21,-159 427.21,-155.5 427.21,-162.5"/>
</a>
</g>
</g>
<!-- Node4 -->
<g id="Node000004" class="node">
<title>Node4</title>
<g id="a_Node000004"><a xlink:href="p__main_8fpp_8f90.html#aeec10ee8e2940c953967da3e374e1579" target="_top" xlink:title="Quasi&#45;conservative, shock&#45; and interface&#45; capturing finite&#45;volume scheme for the multicomponent Navie...">
<polygon fill="white" stroke="#666666" points="53,-120.5 0,-120.5 0,-101.5 53,-101.5 53,-120.5"/>
<text text-anchor="middle" x="26.5" y="-108.5" font-family="Helvetica,sans-Serif" font-size="10.00">p_main</text>
</a>
</g>
</g>
<!-- Node3&#45;&gt;Node4 -->
<g id="edge3_Node000003_Node000004" class="edge">
<title>Node3&#45;&gt;Node4</title>
<g id="a_edge3_Node000003_Node000004"><a xlink:title=" ">
<path fill="none" stroke="#63b8ff" d="M104.02,-140.49C98.93,-138.66 93.86,-136.81 89,-135 76.54,-130.37 62.74,-125.01 51.38,-120.53"/>
<polygon fill="#63b8ff" stroke="#63b8ff" points="103.16,-143.9 113.76,-143.98 105.52,-137.31 103.16,-143.9"/>
</a>
</g>
</g>
<!-- Node6 -->
<g id="Node000006" class="node">
<title>Node6</title>
<g id="a_Node000006"><a xlink:href="namespacem__start__up.html#a25f79bc2aae3d0302d4a97247d84f92a" target="_top" xlink:title="Read data files. Dispatch subroutine that replaces procedure pointer.">
<polygon fill="white" stroke="#666666" points="383.5,-126 273.5,-126 273.5,-96 383.5,-96 383.5,-126"/>
<text text-anchor="start" x="281.5" y="-114" font-family="Helvetica,sans-Serif" font-size="10.00">m_start_up::s_read</text>
<text text-anchor="middle" x="328.5" y="-103" font-family="Helvetica,sans-Serif" font-size="10.00">_data_files</text>
</a>
</g>
</g>
<!-- Node5&#45;&gt;Node6 -->
<g id="edge5_Node000005_Node000006" class="edge">
<title>Node5&#45;&gt;Node6</title>
<g id="a_edge5_Node000005_Node000006"><a xlink:title=" ">
<path fill="none" stroke="#63b8ff" d="M430.46,-111C414.99,-111 398.61,-111 383.65,-111"/>
<polygon fill="#63b8ff" stroke="#63b8ff" points="430.47,-114.5 440.47,-111 430.47,-107.5 430.47,-114.5"/>
</a>
</g>
</g>
<!-- Node7 -->
<g id="Node000007" class="node">
<title>Node7</title>
<g id="a_Node000007"><a xlink:href="namespacem__start__up.html#a1fb7a3f9d412acd2a9cbcfe8b45006dd" target="_top" xlink:title=" ">
<polygon fill="white" stroke="#666666" points="223,-126 93,-126 93,-96 223,-96 223,-126"/>
<text text-anchor="start" x="101" y="-114" font-family="Helvetica,sans-Serif" font-size="10.00">m_start_up::s_initialize</text>
<text text-anchor="middle" x="158" y="-103" font-family="Helvetica,sans-Serif" font-size="10.00">_modules</text>
</a>
</g>
</g>
<!-- Node6&#45;&gt;Node7 -->
<g id="edge6_Node000006_Node000007" class="edge">
<title>Node6&#45;&gt;Node7</title>
<g id="a_edge6_Node000006_Node000007"><a xlink:title=" ">
<path fill="none" stroke="#63b8ff" d="M262.96,-111C249.9,-111 236.18,-111 223.13,-111"/>
<polygon fill="#63b8ff" stroke="#63b8ff" points="263.26,-114.5 273.26,-111 263.26,-107.5 263.26,-114.5"/>
</a>
</g>
</g>
<!-- Node7&#45;&gt;Node4 -->
<g id="edge7_Node000007_Node000004" class="edge">
<title>Node7&#45;&gt;Node4</title>
<g id="a_edge7_Node000007_Node000004"><a xlink:title=" ">
<path fill="none" stroke="#63b8ff" d="M82.52,-111C72.04,-111 61.91,-111 53.26,-111"/>
<polygon fill="#63b8ff" stroke="#63b8ff" points="82.63,-114.5 92.63,-111 82.63,-107.5 82.63,-114.5"/>
</a>
</g>
</g>
<!-- Node9 -->
<g id="Node000009" class="node">
<title>Node9</title>
<g id="a_Node000009"><a xlink:href="namespacem__data__output.html#a9eea8de093f055adb3b786bff3cab2d8" target="_top" xlink:title="Write data files. Dispatch subroutine that replaces procedure pointer.">
<polygon fill="white" stroke="#666666" points="394,-78 263,-78 263,-48 394,-48 394,-78"/>
<text text-anchor="start" x="271" y="-66" font-family="Helvetica,sans-Serif" font-size="10.00">m_data_output::s_write</text>
<text text-anchor="middle" x="328.5" y="-55" font-family="Helvetica,sans-Serif" font-size="10.00">_data_files</text>
</a>
</g>
</g>
<!-- Node8&#45;&gt;Node9 -->
<g id="edge9_Node000008_Node000009" class="edge">
<title>Node8&#45;&gt;Node9</title>
<g id="a_edge9_Node000008_Node000009"><a xlink:title=" ">
<path fill="none" stroke="#63b8ff" d="M419.76,-63C411.18,-63 402.48,-63 394.05,-63"/>
<polygon fill="#63b8ff" stroke="#63b8ff" points="419.76,-66.5 429.76,-63 419.76,-59.5 419.76,-66.5"/>
</a>
</g>
</g>
<!-- Node10 -->
<g id="Node000010" class="node">
<title>Node10</title>
<g id="a_Node000010"><a xlink:href="namespacem__start__up.html#a47ade6ffcd98aafcccf10910f626142d" target="_top" xlink:title=" ">
<polygon fill="white" stroke="#666666" points="227,-75.5 89,-75.5 89,-56.5 227,-56.5 227,-75.5"/>
<text text-anchor="middle" x="158" y="-63.5" font-family="Helvetica,sans-Serif" font-size="10.00">m_start_up::s_save_data</text>
</a>
</g>
</g>
<!-- Node9&#45;&gt;Node10 -->
<g id="edge10_Node000009_Node000010" class="edge">
<title>Node9&#45;&gt;Node10</title>
<g id="a_edge10_Node000009_Node000010"><a xlink:title=" ">
<path fill="none" stroke="#63b8ff" d="M252.58,-64.33C244.11,-64.48 235.51,-64.64 227.13,-64.79"/>
<polygon fill="#63b8ff" stroke="#63b8ff" points="252.9,-67.83 262.84,-64.15 252.77,-60.83 252.9,-67.83"/>
</a>
</g>
</g>
<!-- Node10&#45;&gt;Node4 -->
<g id="edge11_Node000010_Node000004" class="edge">
<title>Node10&#45;&gt;Node4</title>
<g id="a_edge11_Node000010_Node000004"><a xlink:title=" ">
<path fill="none" stroke="#63b8ff" d="M114.56,-78.58C106.06,-81.25 97.22,-84.13 89,-87 76.23,-91.46 62.17,-96.9 50.71,-101.48"/>
<polygon fill="#63b8ff" stroke="#63b8ff" points="115.81,-81.86 124.33,-75.56 113.74,-75.18 115.81,-81.86"/>
</a>
</g>
</g>
<!-- Node11&#45;&gt;Node9 -->
<g id="edge13_Node000011_Node000009" class="edge">
<title>Node11&#45;&gt;Node9</title>
<g id="a_edge13_Node000011_Node000009"><a xlink:title=" ">
<path fill="none" stroke="#63b8ff" d="M432.87,-32.93C415.82,-37.89 397.49,-43.22 381.07,-48"/>
<polygon fill="#63b8ff" stroke="#63b8ff" points="434.12,-36.21 442.75,-30.06 432.17,-29.49 434.12,-36.21"/>
</a>
</g>
</g>
</g>
</svg>
