<?xml version="1.0" encoding="UTF-8" standalone="no"?>
<!DOCTYPE svg PUBLIC "-//W3C//DTD SVG 1.1//EN"
 "http://www.w3.org/Graphics/SVG/1.1/DTD/svg11.dtd">
<!-- Generated by graphviz version 2.43.0 (0)
 -->
<!-- Title: m_sim_helpers::f_compute_filtered_dtheta Pages: 1 -->
<svg width="695pt" height="95pt"
 viewBox="0.00 0.00 695.00 95.00" xmlns="http://www.w3.org/2000/svg" xmlns:xlink="http://www.w3.org/1999/xlink">
<g id="graph0" class="graph" transform="scale(1 1) rotate(0) translate(4 91)">
<title>m_sim_helpers::f_compute_filtered_dtheta</title>
<!-- Node1 -->
<g id="Node000001" class="node">
<title>Node1</title>
<g id="a_Node000001"><a xlink:title="Computes the modified dtheta for Fourier filtering in azimuthal direction.">
<polygon fill="#999999" stroke="#666666" points="687,-54 538,-54 538,-24 687,-24 687,-54"/>
<text text-anchor="start" x="546" y="-42" font-family="Helvetica,sans-Serif" font-size="10.00">m_sim_helpers::f_compute</text>
<text text-anchor="middle" x="612.5" y="-31" font-family="Helvetica,sans-Serif" font-size="10.00">_filtered_dtheta</text>
</a>
</g>
</g>
<!-- Node2 -->
<g id="Node000002" class="node">
<title>Node2</title>
<g id="a_Node000002"><a xlink:href="namespacem__sim__helpers.html#a88f43eb8b4a161228ed4db6d31de828d" target="_top" xlink:title="Computes inviscid CFL terms for multi&#45;dimensional cases (2D/3D only)">
<polygon fill="white" stroke="#666666" points="502,-54 353,-54 353,-24 502,-24 502,-54"/>
<text text-anchor="start" x="361" y="-42" font-family="Helvetica,sans-Serif" font-size="10.00">m_sim_helpers::f_compute</text>
<text text-anchor="middle" x="427.5" y="-31" font-family="Helvetica,sans-Serif" font-size="10.00">_multidim_cfl_terms</text>
</a>
</g>
</g>
<!-- Node1&#45;&gt;Node2 -->
<g id="edge1_Node000001_Node000002" class="edge">
<title>Node1&#45;&gt;Node2</title>
<g id="a_edge1_Node000001_Node000002"><a xlink:title=" ">
<path fill="none" stroke="#63b8ff" d="M527.61,-39C519.16,-39 510.62,-39 502.29,-39"/>
<polygon fill="#63b8ff" stroke="#63b8ff" points="527.86,-42.5 537.86,-39 527.86,-35.5 527.86,-42.5"/>
</a>
</g>
</g>
<!-- Node3 -->
<g id="Node000003" class="node">
<title>Node3</title>
<g id="a_Node000003"><a xlink:href="namespacem__sim__helpers.html#ad5b39c05efea4c9c6636701cf657b4d0" target="_top" xlink:title="Computes dt for a specified CFL number.">
<polygon fill="white" stroke="#666666" points="317,-87 167,-87 167,-57 317,-57 317,-87"/>
<text text-anchor="start" x="175" y="-75" font-family="Helvetica,sans-Serif" font-size="10.00">m_sim_helpers::s_compute</text>
<text text-anchor="middle" x="242" y="-64" font-family="Helvetica,sans-Serif" font-size="10.00">_dt_from_cfl</text>
</a>
</g>
</g>
<!-- Node1&#45;&gt;Node3 -->
<g id="edge5_Node000001_Node000003" class="edge">
<title>Node1&#45;&gt;Node3</title>
<g id="a_edge5_Node000001_Node000003"><a xlink:title=" ">
<path fill="none" stroke="#63b8ff" d="M542.16,-56.18C528.9,-58.9 515.08,-61.35 502,-63 440.06,-70.8 369.18,-72.79 317.25,-72.97"/>
<polygon fill="#63b8ff" stroke="#63b8ff" points="543.11,-59.55 552.17,-54.05 541.66,-52.71 543.11,-59.55"/>
</a>
</g>
</g>
<!-- Node4 -->
<g id="Node000004" class="node">
<title>Node4</title>
<g id="a_Node000004"><a xlink:href="namespacem__sim__helpers.html#a81d6cbdf616d51d6e6ba9f0bce912a13" target="_top" xlink:title="Computes stability criterion for a specified dt.">
<polygon fill="white" stroke="#666666" points="317,-30 167,-30 167,0 317,0 317,-30"/>
<text text-anchor="start" x="175" y="-18" font-family="Helvetica,sans-Serif" font-size="10.00">m_sim_helpers::s_compute</text>
<text text-anchor="middle" x="242" y="-7" font-family="Helvetica,sans-Serif" font-size="10.00">_stability_from_dt</text>
</a>
</g>
</g>
<!-- Node1&#45;&gt;Node4 -->
<g id="edge6_Node000001_Node000004" class="edge">
<title>Node1&#45;&gt;Node4</title>
<g id="a_edge6_Node000001_Node000004"><a xlink:title=" ">
<path fill="none" stroke="#63b8ff" d="M544.01,-21.82C530.2,-18.98 515.7,-16.48 502,-15 439.97,-8.28 369.1,-8.85 317.19,-10.77"/>
<polygon fill="#63b8ff" stroke="#63b8ff" points="543.41,-25.27 553.92,-23.94 544.87,-18.43 543.41,-25.27"/>
</a>
</g>
</g>
<!-- Node2&#45;&gt;Node3 -->
<g id="edge2_Node000002_Node000003" class="edge">
<title>Node2&#45;&gt;Node3</title>
<g id="a_edge2_Node000002_Node000003"><a xlink:title=" ">
<path fill="none" stroke="#63b8ff" d="M342.91,-54.03C334.34,-55.57 325.66,-57.13 317.19,-58.66"/>
<polygon fill="#63b8ff" stroke="#63b8ff" points="343.7,-57.45 352.92,-52.23 342.46,-50.56 343.7,-57.45"/>
</a>
</g>
</g>
<!-- Node2&#45;&gt;Node4 -->
<g id="edge3_Node000002_Node000004" class="edge">
<title>Node2&#45;&gt;Node4</title>
<g id="a_edge3_Node000002_Node000004"><a xlink:title=" ">
<path fill="none" stroke="#63b8ff" d="M342.91,-28.07C334.34,-26.95 325.66,-25.81 317.19,-24.7"/>
<polygon fill="#63b8ff" stroke="#63b8ff" points="342.55,-31.55 352.92,-29.38 343.46,-24.61 342.55,-31.55"/>
</a>
</g>
</g>
<!-- Node5 -->
<g id="Node000005" class="node">
<title>Node5</title>
<g id="a_Node000005"><a xlink:href="namespacem__data__output.html#ac4254f90208d2808b6b214e857e79d9a" target="_top" xlink:title="The goal of the procedure is to output to the run&#45;time information file the stability criteria extrem...">
<polygon fill="white" stroke="#666666" points="131,-30 0,-30 0,0 131,0 131,-30"/>
<text text-anchor="start" x="8" y="-18" font-family="Helvetica,sans-Serif" font-size="10.00">m_data_output::s_write</text>
<text text-anchor="middle" x="65.5" y="-7" font-family="Helvetica,sans-Serif" font-size="10.00">_run_time_information</text>
</a>
</g>
</g>
<!-- Node4&#45;&gt;Node5 -->
<g id="edge4_Node000004_Node000005" class="edge">
<title>Node4&#45;&gt;Node5</title>
<g id="a_edge4_Node000004_Node000005"><a xlink:title=" ">
<path fill="none" stroke="#63b8ff" d="M156.9,-15C148.27,-15 139.6,-15 131.23,-15"/>
<polygon fill="#63b8ff" stroke="#63b8ff" points="157,-18.5 167,-15 157,-11.5 157,-18.5"/>
</a>
</g>
</g>
</g>
</svg>
