<?xml version="1.0" encoding="UTF-8" standalone="no"?>
<!DOCTYPE svg PUBLIC "-//W3C//DTD SVG 1.1//EN"
 "http://www.w3.org/Graphics/SVG/1.1/DTD/svg11.dtd">
<!-- Generated by graphviz version 2.43.0 (0)
 -->
<!-- Title: m_time_steppers::s_tvd_rk Pages: 1 -->
<svg width="275pt" height="134pt"
 viewBox="0.00 0.00 275.00 134.00" xmlns="http://www.w3.org/2000/svg" xmlns:xlink="http://www.w3.org/1999/xlink">
<g id="graph0" class="graph" transform="scale(1 1) rotate(0) translate(4 130)">
<title>m_time_steppers::s_tvd_rk</title>
<!-- Node1 -->
<g id="Node000001" class="node">
<title>Node1</title>
<g id="a_Node000001"><a xlink:title=" ">
<polygon fill="#999999" stroke="#666666" points="113,-78 0,-78 0,-48 113,-48 113,-78"/>
<text text-anchor="start" x="8" y="-66" font-family="Helvetica,sans-Serif" font-size="10.00">m_time_steppers::s</text>
<text text-anchor="middle" x="56.5" y="-55" font-family="Helvetica,sans-Serif" font-size="10.00">_tvd_rk</text>
</a>
</g>
</g>
<!-- Node2 -->
<g id="Node000002" class="node">
<title>Node2</title>
<g id="a_Node000002"><a xlink:href="namespacem__time__steppers.html#a478ee89172580cccd27e418731bc09b6" target="_top" xlink:title="Bubble source part in Strang operator splitting scheme.">
<polygon fill="white" stroke="#666666" points="267,-126 149,-126 149,-96 267,-96 267,-126"/>
<text text-anchor="start" x="157" y="-114" font-family="Helvetica,sans-Serif" font-size="10.00">m_time_steppers::s</text>
<text text-anchor="middle" x="208" y="-103" font-family="Helvetica,sans-Serif" font-size="10.00">_adaptive_dt_bubble</text>
</a>
</g>
</g>
<!-- Node1&#45;&gt;Node2 -->
<g id="edge1_Node000001_Node000002" class="edge">
<title>Node1&#45;&gt;Node2</title>
<g id="a_edge1_Node000001_Node000002"><a xlink:title=" ">
<path fill="none" stroke="#63b8ff" d="M104.39,-78.06C119,-82.75 135.27,-87.97 150.47,-92.85"/>
<polygon fill="#63b8ff" stroke="#63b8ff" points="149.68,-96.27 160.27,-96 151.82,-89.61 149.68,-96.27"/>
</a>
</g>
</g>
<!-- Node3 -->
<g id="Node000003" class="node">
<title>Node3</title>
<g id="a_Node000003"><a xlink:href="namespacem__time__steppers.html#a2238f553b1b6228709f9e3387d41cb01" target="_top" xlink:title="This subroutine applies the body forces source term at each Runge&#45;Kutta stage.">
<polygon fill="white" stroke="#666666" points="264.5,-78 151.5,-78 151.5,-48 264.5,-48 264.5,-78"/>
<text text-anchor="start" x="159.5" y="-66" font-family="Helvetica,sans-Serif" font-size="10.00">m_time_steppers::s</text>
<text text-anchor="middle" x="208" y="-55" font-family="Helvetica,sans-Serif" font-size="10.00">_apply_bodyforces</text>
</a>
</g>
</g>
<!-- Node1&#45;&gt;Node3 -->
<g id="edge2_Node000001_Node000003" class="edge">
<title>Node1&#45;&gt;Node3</title>
<g id="a_edge2_Node000001_Node000003"><a xlink:title=" ">
<path fill="none" stroke="#63b8ff" d="M113.17,-63C122.31,-63 131.87,-63 141.23,-63"/>
<polygon fill="#63b8ff" stroke="#63b8ff" points="141.29,-66.5 151.29,-63 141.29,-59.5 141.29,-66.5"/>
</a>
</g>
</g>
<!-- Node4 -->
<g id="Node000004" class="node">
<title>Node4</title>
<g id="a_Node000004"><a xlink:href="namespacem__time__steppers.html#a575aa7f95bf96994f49d81d71d19c192" target="_top" xlink:title="This subroutine saves the temporary q_prim_vf vector into the q_prim_ts vector that is then used in p...">
<polygon fill="white" stroke="#666666" points="264.5,-30 151.5,-30 151.5,0 264.5,0 264.5,-30"/>
<text text-anchor="start" x="159.5" y="-18" font-family="Helvetica,sans-Serif" font-size="10.00">m_time_steppers::s</text>
<text text-anchor="middle" x="208" y="-7" font-family="Helvetica,sans-Serif" font-size="10.00">_time_step_cycling</text>
</a>
</g>
</g>
<!-- Node1&#45;&gt;Node4 -->
<g id="edge3_Node000001_Node000004" class="edge">
<title>Node1&#45;&gt;Node4</title>
<g id="a_edge3_Node000001_Node000004"><a xlink:title=" ">
<path fill="none" stroke="#63b8ff" d="M104.39,-47.94C119,-43.25 135.27,-38.03 150.47,-33.15"/>
<polygon fill="#63b8ff" stroke="#63b8ff" points="151.82,-36.39 160.27,-30 149.68,-29.73 151.82,-36.39"/>
</a>
</g>
</g>
</g>
</svg>
