<?xml version="1.0" encoding="UTF-8" standalone="no"?>
<!DOCTYPE svg PUBLIC "-//W3C//DTD SVG 1.1//EN"
 "http://www.w3.org/Graphics/SVG/1.1/DTD/svg11.dtd">
<!-- Generated by graphviz version 2.43.0 (0)
 -->
<!-- Title: m_compile_specific::s_delete_directory Pages: 1 -->
<svg width="718pt" height="38pt"
 viewBox="0.00 0.00 718.00 38.00" xmlns="http://www.w3.org/2000/svg" xmlns:xlink="http://www.w3.org/1999/xlink">
<g id="graph0" class="graph" transform="scale(1 1) rotate(0) translate(4 34)">
<title>m_compile_specific::s_delete_directory</title>
<!-- Node1 -->
<g id="Node000001" class="node">
<title>Node1</title>
<g id="a_Node000001"><a xlink:title=" ">
<polygon fill="#999999" stroke="#666666" points="710,-30 597,-30 597,0 710,0 710,-30"/>
<text text-anchor="start" x="605" y="-18" font-family="Helvetica,sans-Serif" font-size="10.00">m_compile_specific</text>
<text text-anchor="middle" x="653.5" y="-7" font-family="Helvetica,sans-Serif" font-size="10.00">::s_delete_directory</text>
</a>
</g>
</g>
<!-- Node2 -->
<g id="Node000002" class="node">
<title>Node2</title>
<g id="a_Node000002"><a xlink:href="namespacem__data__output.html#aa24a29afef33c331f912d6d57dbbc5fd" target="_top" xlink:title="The goal of this subroutine is to output the grid and conservative variables data files for given tim...">
<polygon fill="white" stroke="#666666" points="561,-30 430,-30 430,0 561,0 561,-30"/>
<text text-anchor="start" x="438" y="-18" font-family="Helvetica,sans-Serif" font-size="10.00">m_data_output::s_write</text>
<text text-anchor="middle" x="495.5" y="-7" font-family="Helvetica,sans-Serif" font-size="10.00">_serial_data_files</text>
</a>
</g>
</g>
<!-- Node1&#45;&gt;Node2 -->
<g id="edge1_Node000001_Node000002" class="edge">
<title>Node1&#45;&gt;Node2</title>
<g id="a_edge1_Node000001_Node000002"><a xlink:title=" ">
<path fill="none" stroke="#63b8ff" d="M586.46,-15C578.04,-15 569.42,-15 561.02,-15"/>
<polygon fill="#63b8ff" stroke="#63b8ff" points="586.62,-18.5 596.62,-15 586.62,-11.5 586.62,-18.5"/>
</a>
</g>
</g>
<!-- Node3 -->
<g id="Node000003" class="node">
<title>Node3</title>
<g id="a_Node000003"><a xlink:href="namespacem__data__output.html#a9eea8de093f055adb3b786bff3cab2d8" target="_top" xlink:title="Write data files. Dispatch subroutine that replaces procedure pointer.">
<polygon fill="white" stroke="#666666" points="394,-30 263,-30 263,0 394,0 394,-30"/>
<text text-anchor="start" x="271" y="-18" font-family="Helvetica,sans-Serif" font-size="10.00">m_data_output::s_write</text>
<text text-anchor="middle" x="328.5" y="-7" font-family="Helvetica,sans-Serif" font-size="10.00">_data_files</text>
</a>
</g>
</g>
<!-- Node2&#45;&gt;Node3 -->
<g id="edge2_Node000002_Node000003" class="edge">
<title>Node2&#45;&gt;Node3</title>
<g id="a_edge2_Node000002_Node000003"><a xlink:title=" ">
<path fill="none" stroke="#63b8ff" d="M419.76,-15C411.18,-15 402.48,-15 394.05,-15"/>
<polygon fill="#63b8ff" stroke="#63b8ff" points="419.76,-18.5 429.76,-15 419.76,-11.5 419.76,-18.5"/>
</a>
</g>
</g>
<!-- Node4 -->
<g id="Node000004" class="node">
<title>Node4</title>
<g id="a_Node000004"><a xlink:href="namespacem__start__up.html#a47ade6ffcd98aafcccf10910f626142d" target="_top" xlink:title=" ">
<polygon fill="white" stroke="#666666" points="227,-24.5 89,-24.5 89,-5.5 227,-5.5 227,-24.5"/>
<text text-anchor="middle" x="158" y="-12.5" font-family="Helvetica,sans-Serif" font-size="10.00">m_start_up::s_save_data</text>
</a>
</g>
</g>
<!-- Node3&#45;&gt;Node4 -->
<g id="edge3_Node000003_Node000004" class="edge">
<title>Node3&#45;&gt;Node4</title>
<g id="a_edge3_Node000003_Node000004"><a xlink:title=" ">
<path fill="none" stroke="#63b8ff" d="M252.58,-15C244.11,-15 235.51,-15 227.13,-15"/>
<polygon fill="#63b8ff" stroke="#63b8ff" points="252.84,-18.5 262.84,-15 252.84,-11.5 252.84,-18.5"/>
</a>
</g>
</g>
<!-- Node5 -->
<g id="Node000005" class="node">
<title>Node5</title>
<g id="a_Node000005"><a xlink:href="p__main_8fpp_8f90.html#aeec10ee8e2940c953967da3e374e1579" target="_top" xlink:title="Quasi&#45;conservative, shock&#45; and interface&#45; capturing finite&#45;volume scheme for the multicomponent Navie...">
<polygon fill="white" stroke="#666666" points="53,-24.5 0,-24.5 0,-5.5 53,-5.5 53,-24.5"/>
<text text-anchor="middle" x="26.5" y="-12.5" font-family="Helvetica,sans-Serif" font-size="10.00">p_main</text>
</a>
</g>
</g>
<!-- Node4&#45;&gt;Node5 -->
<g id="edge4_Node000004_Node000005" class="edge">
<title>Node4&#45;&gt;Node5</title>
<g id="a_edge4_Node000004_Node000005"><a xlink:title=" ">
<path fill="none" stroke="#63b8ff" d="M78.81,-15C69.67,-15 60.91,-15 53.29,-15"/>
<polygon fill="#63b8ff" stroke="#63b8ff" points="78.84,-18.5 88.84,-15 78.84,-11.5 78.84,-18.5"/>
</a>
</g>
</g>
</g>
</svg>
