<?xml version="1.0" encoding="UTF-8" standalone="no"?>
<!DOCTYPE svg PUBLIC "-//W3C//DTD SVG 1.1//EN"
 "http://www.w3.org/Graphics/SVG/1.1/DTD/svg11.dtd">
<!-- Generated by graphviz version 2.43.0 (0)
 -->
<!-- Title: m_rhs::s_compute_rhs Pages: 1 -->
<!--zoomable 194 -->

<svg id="main" version="1.1" xmlns="http://www.w3.org/2000/svg" xmlns:xlink="http://www.w3.org/1999/xlink" xml:space="preserve" onload="init(evt)">

<style type="text/css"><![CDATA[
.node, .edge {opacity: 0.7;}
.node.selected, .edge.selected {opacity: 1;}
.edge:hover path { stroke: red; }
.edge:hover polygon { stroke: red; fill: red; }
]]></style>

<defs>
  <circle id="rim" cx="0" cy="0" r="7"/>
  <circle id="rim2" cx="0" cy="0" r="3.5"/>
  <g id="zoomPlus">
    <use xlink:href="#rim" fill="#404040"><set attributeName="fill" to="#808080" begin="zoomplus.mouseover" end="zoomplus.mouseout"/></use>
    <path d="M-4,0h8M0,-4v8" fill="none" stroke="white" stroke-width="1.5" pointer-events="none"/>
  </g>
  <g id="zoomMin">
    <use xlink:href="#rim" fill="#404040"><set attributeName="fill" to="#808080" begin="zoomminus.mouseover" end="zoomminus.mouseout"/></use>
    <path d="M-4,0h8" fill="none" stroke="white" stroke-width="1.5" pointer-events="none"/>
  </g>
  <g id="arrowUp" transform="translate(30 24)">
    <use xlink:href="#rim"/>
    <path pointer-events="none" fill="none" stroke="white" stroke-width="1.5" d="M0,-3.0v7 M-2.5,-0.5L0,-3.0L2.5,-0.5"/>
  </g>
  <g id="arrowRight" transform="rotate(90) translate(36 -43)">
    <use xlink:href="#rim"/>
    <path pointer-events="none" fill="none" stroke="white" stroke-width="1.5" d="M0,-3.0v7 M-2.5,-0.5L0,-3.0L2.5,-0.5"/>
  </g>
  <g id="arrowDown" transform="rotate(180) translate(-30 -48)">
    <use xlink:href="#rim"/>
    <path pointer-events="none" fill="none" stroke="white" stroke-width="1.5" d="M0,-3.0v7 M-2.5,-0.5L0,-3.0L2.5,-0.5"/>
  </g>
  <g id="arrowLeft" transform="rotate(270) translate(-36 17)">
    <use xlink:href="#rim"/>
    <path pointer-events="none" fill="none" stroke="white" stroke-width="1.5" d="M0,-3.0v7 M-2.5,-0.5L0,-3.0L2.5,-0.5"/>
  </g>
  <g id="resetDef">
    <use xlink:href="#rim2" fill="#404040"><set attributeName="fill" to="#808080" begin="reset.mouseover" end="reset.mouseout"/></use>
  </g>
</defs>
<script type="application/ecmascript">
var viewWidth = 521;
var viewHeight = 194;
var sectionId = 'dynsection-3';
</script>
<script type="application/ecmascript" xlink:href="svg.min.js"/>
<svg id="graph" class="graph">
<g id="viewport">
<title>m_rhs::s_compute_rhs</title>
<!-- Node1 -->
<g id="Node000001" class="node">
<title>Node1</title>
<g id="a_Node000001"><a xlink:title=" ">
<polygon fill="#999999" stroke="#666666" points="126,-108 0,-108 0,-89 126,-89 126,-108"/>
<text text-anchor="middle" x="63" y="-96" font-family="Helvetica,sans-Serif" font-size="10.00">m_rhs::s_compute_rhs</text>
</a>
</g>
</g>
<!-- Node2 -->
<g id="Node000002" class="node">
<title>Node2</title>
<g id="a_Node000002"><a xlink:href="namespacem__rhs.html#a2df6b2a1323afaca022b5ef77dd4c0e0" target="_top" xlink:title=" ">
<polygon fill="white" stroke="#666666" points="322,-185.5 162,-185.5 162,-155.5 322,-155.5 322,-185.5"/>
<text text-anchor="start" x="170" y="-173.5" font-family="Helvetica,sans-Serif" font-size="10.00">m_rhs::s_compute_additional</text>
<text text-anchor="middle" x="242" y="-162.5" font-family="Helvetica,sans-Serif" font-size="10.00">_physics_rhs</text>
</a>
</g>
</g>
<!-- Node1&#45;&gt;Node2 -->
<g id="edge1_Node000001_Node000002" class="edge">
<title>Node1&#45;&gt;Node2</title>
<g id="a_edge1_Node000001_Node000002"><a xlink:title=" ">
<path fill="none" stroke="#63b8ff" d="M81.32,-108.04C100.61,-118.42 132.92,-135.04 162,-146.5 167,-148.47 172.23,-150.38 177.52,-152.2"/>
<polygon fill="#63b8ff" stroke="#63b8ff" points="176.46,-155.54 187.06,-155.38 178.68,-148.9 176.46,-155.54"/>
</a>
</g>
</g>
<!-- Node3 -->
<g id="Node000003" class="node">
<title>Node3</title>
<g id="a_Node000003"><a xlink:href="namespacem__rhs.html#a5809a021c8e55e523aa8bfabb41a3e1e" target="_top" xlink:title=" ">
<polygon fill="white" stroke="#666666" points="321.5,-137.5 162.5,-137.5 162.5,-107.5 321.5,-107.5 321.5,-137.5"/>
<text text-anchor="start" x="170.5" y="-125.5" font-family="Helvetica,sans-Serif" font-size="10.00">m_rhs::s_compute_advection</text>
<text text-anchor="middle" x="242" y="-114.5" font-family="Helvetica,sans-Serif" font-size="10.00">_source_term</text>
</a>
</g>
</g>
<!-- Node1&#45;&gt;Node3 -->
<g id="edge2_Node000001_Node000003" class="edge">
<title>Node1&#45;&gt;Node3</title>
<g id="a_edge2_Node000001_Node000003"><a xlink:title=" ">
<path fill="none" stroke="#63b8ff" d="M126.4,-106.96C134.86,-108.11 143.67,-109.3 152.49,-110.5"/>
<polygon fill="#63b8ff" stroke="#63b8ff" points="152.03,-113.97 162.41,-111.84 152.97,-107.03 152.03,-113.97"/>
</a>
</g>
</g>
<!-- Node5 -->
<g id="Node000005" class="node">
<title>Node5</title>
<g id="a_Node000005"><a xlink:href="namespacem__rhs.html#a48c0b3313ccec916c5cb2652f8cad5b0" target="_top" xlink:title="The purpose of this procedure is to infinitely relax the pressures from the internal&#45;energy equations...">
<polygon fill="white" stroke="#666666" points="306,-89.5 178,-89.5 178,-59.5 306,-59.5 306,-89.5"/>
<text text-anchor="start" x="186" y="-77.5" font-family="Helvetica,sans-Serif" font-size="10.00">m_rhs::s_reconstruct</text>
<text text-anchor="middle" x="242" y="-66.5" font-family="Helvetica,sans-Serif" font-size="10.00">_cell_boundary_values</text>
</a>
</g>
</g>
<!-- Node1&#45;&gt;Node5 -->
<g id="edge4_Node000001_Node000005" class="edge">
<title>Node1&#45;&gt;Node5</title>
<g id="a_edge4_Node000001_Node000005"><a xlink:title=" ">
<path fill="none" stroke="#63b8ff" d="M126.4,-90.04C139.86,-88.21 154.2,-86.27 168.02,-84.4"/>
<polygon fill="#63b8ff" stroke="#63b8ff" points="168.53,-87.86 177.97,-83.05 167.59,-80.92 168.53,-87.86"/>
</a>
</g>
</g>
<!-- Node6 -->
<g id="Node000006" class="node">
<title>Node6</title>
<g id="a_Node000006"><a xlink:href="namespacem__rhs.html#a28b3de48d795ac9f0ec2d0c83ef50ef5" target="_top" xlink:title=" ">
<polygon fill="white" stroke="#666666" points="306,-41 178,-41 178,0 306,0 306,-41"/>
<text text-anchor="start" x="186" y="-29" font-family="Helvetica,sans-Serif" font-size="10.00">m_rhs::s_reconstruct</text>
<text text-anchor="start" x="186" y="-18" font-family="Helvetica,sans-Serif" font-size="10.00">_cell_boundary_values</text>
<text text-anchor="middle" x="242" y="-7" font-family="Helvetica,sans-Serif" font-size="10.00">_first_order</text>
</a>
</g>
</g>
<!-- Node1&#45;&gt;Node6 -->
<g id="edge5_Node000001_Node000006" class="edge">
<title>Node1&#45;&gt;Node6</title>
<g id="a_edge5_Node000001_Node000006"><a xlink:title=" ">
<path fill="none" stroke="#63b8ff" d="M82.19,-88.96C101.69,-78.89 133.67,-62.79 162,-50.5 166.4,-48.59 170.96,-46.69 175.57,-44.81"/>
<polygon fill="#63b8ff" stroke="#63b8ff" points="177.08,-47.97 185.06,-41 174.48,-41.47 177.08,-47.97"/>
</a>
</g>
</g>
<!-- Node4 -->
<g id="Node000004" class="node">
<title>Node4</title>
<g id="a_Node000004"><a xlink:href="m__rhs_8fpp_8f90.html#af45f15d6e6ca83c8ae92f98a2a72ff8d" target="_top" xlink:title=" ">
<polygon fill="white" stroke="#666666" points="513,-137.5 358,-137.5 358,-107.5 513,-107.5 513,-137.5"/>
<text text-anchor="start" x="366" y="-125.5" font-family="Helvetica,sans-Serif" font-size="10.00">s_add_directional_advection</text>
<text text-anchor="middle" x="435.5" y="-114.5" font-family="Helvetica,sans-Serif" font-size="10.00">_source_terms</text>
</a>
</g>
</g>
<!-- Node3&#45;&gt;Node4 -->
<g id="edge3_Node000003_Node000004" class="edge">
<title>Node3&#45;&gt;Node4</title>
<g id="a_edge3_Node000003_Node000004"><a xlink:title=" ">
<path fill="none" stroke="#63b8ff" d="M321.72,-122.5C330.32,-122.5 339.11,-122.5 347.8,-122.5"/>
<polygon fill="#63b8ff" stroke="#63b8ff" points="347.94,-126 357.94,-122.5 347.94,-119 347.94,-126"/>
</a>
</g>
</g>
</g>
</svg>

<g id="navigator" transform="translate(0 0)" fill="#404254">
  <rect fill="#f2f5e9" fill-opacity="0.5" stroke="#606060" stroke-width=".5" x="0" y="0" width="60" height="60"/>
  <use id="zoomplus" xlink:href="#zoomPlus" x="17" y="9" onmousedown="handleZoom(evt,'in')"/>
  <use id="zoomminus" xlink:href="#zoomMin" x="42" y="9" onmousedown="handleZoom(evt,'out')"/>
  <use id="reset" xlink:href="#resetDef" x="30" y="36" onmousedown="handleReset()"/>
   <use id="arrowup" xlink:href="#arrowUp" x="0" y="0" onmousedown="handlePan(0,-1)"/>
  <use id="arrowright" xlink:href="#arrowRight" x="0" y="0" onmousedown="handlePan(1,0)"/>
  <use id="arrowdown" xlink:href="#arrowDown" x="0" y="0" onmousedown="handlePan(0,1)"/>
  <use id="arrowleft" xlink:href="#arrowLeft" x="0" y="0" onmousedown="handlePan(-1,0)"/>
</g>
<svg viewBox="0 0 15 15" width="100%" height="30px" preserveAspectRatio="xMaxYMin meet">
 <g id="arrow_out" transform="scale(0.3 0.3)">
  <a xlink:href="namespacem__rhs_a2ae49f9ae363fe7f37509d8526ac7f03_cgraph_org.svg" target="_base">
   <rect id="button" ry="5" rx="5" y="6" x="6" height="38" width="38"
        fill="#f2f5e9" fill-opacity="0.5" stroke="#606060" stroke-width="1.0"/>
   <path id="arrow"
     d="M 11.500037,31.436501 C 11.940474,20.09759 22.043105,11.32322 32.158766,21.979434 L 37.068811,17.246167 C 37.068811,17.246167 37.088388,32 37.088388,32 L 22.160133,31.978069 C 22.160133,31.978069 26.997745,27.140456 26.997745,27.140456 C 18.528582,18.264221 13.291696,25.230495 11.500037,31.436501 z"
     style="fill:#404040;"/>
  </a>
 </g>
</svg>

<style type='text/css'>
<![CDATA[
[data-mouse-over-selected='false'] { opacity: 0.7; }
[data-mouse-over-selected='true']  { opacity: 1.0; }
]]>
</style>
<script type="application/ecmascript"><![CDATA[
document.addEventListener('DOMContentLoaded', (event) => {
  highlightEdges();
  highlightAdjacentNodes();
});
]]></script>
</svg>
