<?xml version="1.0" encoding="UTF-8" standalone="no"?>
<!DOCTYPE svg PUBLIC "-//W3C//DTD SVG 1.1//EN"
 "http://www.w3.org/Graphics/SVG/1.1/DTD/svg11.dtd">
<!-- Generated by graphviz version 2.43.0 (0)
 -->
<!-- Title: m_boundary_common::s_assign_default_bc_type Pages: 1 -->
<svg width="698pt" height="86pt"
 viewBox="0.00 0.00 698.00 86.00" xmlns="http://www.w3.org/2000/svg" xmlns:xlink="http://www.w3.org/1999/xlink">
<g id="graph0" class="graph" transform="scale(1 1) rotate(0) translate(4 82)">
<title>m_boundary_common::s_assign_default_bc_type</title>
<!-- Node1 -->
<g id="Node000001" class="node">
<title>Node1</title>
<g id="a_Node000001"><a xlink:title=" ">
<polygon fill="#999999" stroke="#666666" points="690,-54 548,-54 548,-24 690,-24 690,-54"/>
<text text-anchor="start" x="556" y="-42" font-family="Helvetica,sans-Serif" font-size="10.00">m_boundary_common::</text>
<text text-anchor="middle" x="619" y="-31" font-family="Helvetica,sans-Serif" font-size="10.00">s_assign_default_bc_type</text>
</a>
</g>
</g>
<!-- Node2 -->
<g id="Node000002" class="node">
<title>Node2</title>
<g id="a_Node000002"><a xlink:href="namespacem__start__up.html#a3226ddf0c64cff078579641fda52781d" target="_top" xlink:title=" ">
<polygon fill="white" stroke="#666666" points="512,-78 401,-78 401,-48 512,-48 512,-78"/>
<text text-anchor="start" x="409" y="-66" font-family="Helvetica,sans-Serif" font-size="10.00">m_start_up::s_read</text>
<text text-anchor="middle" x="456.5" y="-55" font-family="Helvetica,sans-Serif" font-size="10.00">_parallel_data_files</text>
</a>
</g>
</g>
<!-- Node1&#45;&gt;Node2 -->
<g id="edge1_Node000001_Node000002" class="edge">
<title>Node1&#45;&gt;Node2</title>
<g id="a_edge1_Node000001_Node000002"><a xlink:title=" ">
<path fill="none" stroke="#63b8ff" d="M537.61,-51.02C529.07,-52.3 520.54,-53.57 512.4,-54.79"/>
<polygon fill="#63b8ff" stroke="#63b8ff" points="538.23,-54.47 547.6,-49.53 537.19,-47.54 538.23,-54.47"/>
</a>
</g>
</g>
<!-- Node6 -->
<g id="Node000006" class="node">
<title>Node6</title>
<g id="a_Node000006"><a xlink:href="namespacem__start__up.html#a1bf604b2afd7b81737153114d92e7c80" target="_top" xlink:title=" ">
<polygon fill="white" stroke="#666666" points="511.5,-30 401.5,-30 401.5,0 511.5,0 511.5,-30"/>
<text text-anchor="start" x="409.5" y="-18" font-family="Helvetica,sans-Serif" font-size="10.00">m_start_up::s_read</text>
<text text-anchor="middle" x="456.5" y="-7" font-family="Helvetica,sans-Serif" font-size="10.00">_serial_data_files</text>
</a>
</g>
</g>
<!-- Node1&#45;&gt;Node6 -->
<g id="edge5_Node000001_Node000006" class="edge">
<title>Node1&#45;&gt;Node6</title>
<g id="a_edge5_Node000001_Node000006"><a xlink:title=" ">
<path fill="none" stroke="#63b8ff" d="M537.46,-26.96C528.81,-25.66 520.16,-24.37 511.92,-23.14"/>
<polygon fill="#63b8ff" stroke="#63b8ff" points="537.19,-30.46 547.6,-28.47 538.23,-23.53 537.19,-30.46"/>
</a>
</g>
</g>
<!-- Node3 -->
<g id="Node000003" class="node">
<title>Node3</title>
<g id="a_Node000003"><a xlink:href="namespacem__start__up.html#a25f79bc2aae3d0302d4a97247d84f92a" target="_top" xlink:title="Read data files. Dispatch subroutine that replaces procedure pointer.">
<polygon fill="white" stroke="#666666" points="365,-54 255,-54 255,-24 365,-24 365,-54"/>
<text text-anchor="start" x="263" y="-42" font-family="Helvetica,sans-Serif" font-size="10.00">m_start_up::s_read</text>
<text text-anchor="middle" x="310" y="-31" font-family="Helvetica,sans-Serif" font-size="10.00">_data_files</text>
</a>
</g>
</g>
<!-- Node2&#45;&gt;Node3 -->
<g id="edge2_Node000002_Node000003" class="edge">
<title>Node2&#45;&gt;Node3</title>
<g id="a_edge2_Node000002_Node000003"><a xlink:title=" ">
<path fill="none" stroke="#63b8ff" d="M390.9,-52.27C382.32,-50.85 373.6,-49.4 365.23,-48.01"/>
<polygon fill="#63b8ff" stroke="#63b8ff" points="390.43,-55.74 400.87,-53.93 391.58,-48.84 390.43,-55.74"/>
</a>
</g>
</g>
<!-- Node4 -->
<g id="Node000004" class="node">
<title>Node4</title>
<g id="a_Node000004"><a xlink:href="namespacem__start__up.html#a1fb7a3f9d412acd2a9cbcfe8b45006dd" target="_top" xlink:title=" ">
<polygon fill="white" stroke="#666666" points="219,-54 89,-54 89,-24 219,-24 219,-54"/>
<text text-anchor="start" x="97" y="-42" font-family="Helvetica,sans-Serif" font-size="10.00">m_start_up::s_initialize</text>
<text text-anchor="middle" x="154" y="-31" font-family="Helvetica,sans-Serif" font-size="10.00">_modules</text>
</a>
</g>
</g>
<!-- Node3&#45;&gt;Node4 -->
<g id="edge3_Node000003_Node000004" class="edge">
<title>Node3&#45;&gt;Node4</title>
<g id="a_edge3_Node000003_Node000004"><a xlink:title=" ">
<path fill="none" stroke="#63b8ff" d="M244.56,-39C236.13,-39 227.5,-39 219.08,-39"/>
<polygon fill="#63b8ff" stroke="#63b8ff" points="244.71,-42.5 254.71,-39 244.71,-35.5 244.71,-42.5"/>
</a>
</g>
</g>
<!-- Node5 -->
<g id="Node000005" class="node">
<title>Node5</title>
<g id="a_Node000005"><a xlink:href="p__main_8fpp_8f90.html#aeec10ee8e2940c953967da3e374e1579" target="_top" xlink:title="Quasi&#45;conservative, shock&#45; and interface&#45; capturing finite&#45;volume scheme for the multicomponent Navie...">
<polygon fill="white" stroke="#666666" points="53,-48.5 0,-48.5 0,-29.5 53,-29.5 53,-48.5"/>
<text text-anchor="middle" x="26.5" y="-36.5" font-family="Helvetica,sans-Serif" font-size="10.00">p_main</text>
</a>
</g>
</g>
<!-- Node4&#45;&gt;Node5 -->
<g id="edge4_Node000004_Node000005" class="edge">
<title>Node4&#45;&gt;Node5</title>
<g id="a_edge4_Node000004_Node000005"><a xlink:title=" ">
<path fill="none" stroke="#63b8ff" d="M78.74,-39C69.58,-39 60.76,-39 53.09,-39"/>
<polygon fill="#63b8ff" stroke="#63b8ff" points="78.78,-42.5 88.78,-39 78.78,-35.5 78.78,-42.5"/>
</a>
</g>
</g>
<!-- Node6&#45;&gt;Node3 -->
<g id="edge6_Node000006_Node000003" class="edge">
<title>Node6&#45;&gt;Node3</title>
<g id="a_edge6_Node000006_Node000003"><a xlink:title=" ">
<path fill="none" stroke="#63b8ff" d="M391.15,-25.69C382.43,-27.14 373.55,-28.61 365.04,-30.02"/>
<polygon fill="#63b8ff" stroke="#63b8ff" points="391.99,-29.1 401.28,-24 390.84,-22.19 391.99,-29.1"/>
</a>
</g>
</g>
</g>
</svg>
