<?xml version="1.0" encoding="UTF-8" standalone="no"?>
<!DOCTYPE svg PUBLIC "-//W3C//DTD SVG 1.1//EN"
 "http://www.w3.org/Graphics/SVG/1.1/DTD/svg11.dtd">
<!-- Generated by graphviz version 2.43.0 (0)
 -->
<!-- Title: m_acoustic_src::f_gauss_sigma_time_local Pages: 1 -->
<svg width="328pt" height="56pt"
 viewBox="0.00 0.00 328.00 56.00" xmlns="http://www.w3.org/2000/svg" xmlns:xlink="http://www.w3.org/1999/xlink">
<g id="graph0" class="graph" transform="scale(1 1) rotate(0) translate(4 52)">
<title>m_acoustic_src::f_gauss_sigma_time_local</title>
<!-- Node1 -->
<g id="Node000001" class="node">
<title>Node1</title>
<g id="a_Node000001"><a xlink:title="This function performs Gaussian sigma dist to time conversion.">
<polygon fill="#999999" stroke="#666666" points="320,-30 185,-30 185,0 320,0 320,-30"/>
<text text-anchor="start" x="193" y="-18" font-family="Helvetica,sans-Serif" font-size="10.00">m_acoustic_src::f_gauss</text>
<text text-anchor="middle" x="252.5" y="-7" font-family="Helvetica,sans-Serif" font-size="10.00">_sigma_time_local</text>
</a>
</g>
</g>
<!-- Node1&#45;&gt;Node1 -->
<g id="edge1_Node000001_Node000001" class="edge">
<title>Node1&#45;&gt;Node1</title>
<g id="a_edge1_Node000001_Node000001"><a xlink:title=" ">
<path fill="none" stroke="#63b8ff" d="M283.66,-40.6C279.4,-44.97 269.01,-48 252.5,-48 224.69,-48 214.26,-39.41 221.21,-30.28"/>
<polygon fill="#63b8ff" stroke="#63b8ff" points="287.16,-40.32 283.79,-30.28 280.16,-40.23 287.16,-40.32"/>
</a>
</g>
</g>
<!-- Node2 -->
<g id="Node000002" class="node">
<title>Node2</title>
<g id="a_Node000002"><a xlink:href="namespacem__acoustic__src.html#ac1c00c5b11d80e493e5e4289b5b11096" target="_top" xlink:title="This subroutine updates the rhs by computing the mass, mom, energy sources.">
<polygon fill="white" stroke="#666666" points="149,-30 0,-30 0,0 149,0 149,-30"/>
<text text-anchor="start" x="8" y="-18" font-family="Helvetica,sans-Serif" font-size="10.00">m_acoustic_src::s_acoustic</text>
<text text-anchor="middle" x="74.5" y="-7" font-family="Helvetica,sans-Serif" font-size="10.00">_src_calculations</text>
</a>
</g>
</g>
<!-- Node1&#45;&gt;Node2 -->
<g id="edge2_Node000001_Node000002" class="edge">
<title>Node1&#45;&gt;Node2</title>
<g id="a_edge2_Node000001_Node000002"><a xlink:title=" ">
<path fill="none" stroke="#63b8ff" d="M174.72,-15C166.25,-15 157.63,-15 149.2,-15"/>
<polygon fill="#63b8ff" stroke="#63b8ff" points="174.96,-18.5 184.96,-15 174.96,-11.5 174.96,-18.5"/>
</a>
</g>
</g>
</g>
</svg>
