<?xml version="1.0" encoding="UTF-8" standalone="no"?>
<!DOCTYPE svg PUBLIC "-//W3C//DTD SVG 1.1//EN"
 "http://www.w3.org/Graphics/SVG/1.1/DTD/svg11.dtd">
<!-- Generated by graphviz version 2.43.0 (0)
 -->
<!-- Title: m_ibm::s_ibm_setup Pages: 1 -->
<svg width="339pt" height="230pt"
 viewBox="0.00 0.00 339.00 230.00" xmlns="http://www.w3.org/2000/svg" xmlns:xlink="http://www.w3.org/1999/xlink">

<svg id="main" version="1.1" xmlns="http://www.w3.org/2000/svg" xmlns:xlink="http://www.w3.org/1999/xlink" xml:space="preserve">

<style type="text/css"><![CDATA[
.node, .edge {opacity: 0.7;}
.node.selected, .edge.selected {opacity: 1;}
.edge:hover path { stroke: red; }
.edge:hover polygon { stroke: red; fill: red; }
]]></style>
<script type="application/ecmascript" xlink:href="svg.min.js"/>
<svg id="graph" class="graph">
<g id="graph0" class="graph" transform="scale(1 1) rotate(0) translate(4 226)">
<title>m_ibm::s_ibm_setup</title>
<!-- Node1 -->
<g id="Node000001" class="node">
<title>Node1</title>
<g id="a_Node000001"><a xlink:title="Initializes the values of various IBM variables, such as ghost points and image points.">
<polygon fill="#999999" stroke="#666666" points="118,-120.5 0,-120.5 0,-101.5 118,-101.5 118,-120.5"/>
<text text-anchor="middle" x="59" y="-108.5" font-family="Helvetica,sans-Serif" font-size="10.00">m_ibm::s_ibm_setup</text>
</a>
</g>
</g>
<!-- Node2 -->
<g id="Node000002" class="node">
<title>Node2</title>
<g id="a_Node000002"><a xlink:href="namespacem__ibm.html#ab7a568a7c20d763f353f319f4fa5beba" target="_top" xlink:title="Function that computes the image points for each ghost point.">
<polygon fill="white" stroke="#666666" points="315.5,-222 169.5,-222 169.5,-192 315.5,-192 315.5,-222"/>
<text text-anchor="start" x="177.5" y="-210" font-family="Helvetica,sans-Serif" font-size="10.00">m_ibm::s_compute_image</text>
<text text-anchor="middle" x="242.5" y="-199" font-family="Helvetica,sans-Serif" font-size="10.00">_points</text>
</a>
</g>
</g>
<!-- Node1&#45;&gt;Node2 -->
<g id="edge1_Node000001_Node000002" class="edge">
<title>Node1&#45;&gt;Node2</title>
<g id="a_edge1_Node000001_Node000002"><a xlink:title=" ">
<path fill="none" stroke="#63b8ff" d="M69.82,-120.64C86.01,-136.02 119.93,-166.09 154,-183 157.81,-184.89 161.79,-186.65 165.86,-188.28"/>
<polygon fill="#63b8ff" stroke="#63b8ff" points="164.9,-191.66 175.49,-191.87 167.34,-185.1 164.9,-191.66"/>
</a>
</g>
</g>
<!-- Node3 -->
<g id="Node000003" class="node">
<title>Node3</title>
<g id="a_Node000003"><a xlink:href="namespacem__ibm.html#a2f678e57ffbd9f2e83e9d6eeb0be871e" target="_top" xlink:title="Function that computes the interpolation coefficients of image points.">
<polygon fill="white" stroke="#666666" points="331,-174 154,-174 154,-144 331,-144 331,-174"/>
<text text-anchor="start" x="162" y="-162" font-family="Helvetica,sans-Serif" font-size="10.00">m_ibm::s_compute_interpolation</text>
<text text-anchor="middle" x="242.5" y="-151" font-family="Helvetica,sans-Serif" font-size="10.00">_coeffs</text>
</a>
</g>
</g>
<!-- Node1&#45;&gt;Node3 -->
<g id="edge2_Node000001_Node000003" class="edge">
<title>Node1&#45;&gt;Node3</title>
<g id="a_edge2_Node000001_Node000003"><a xlink:title=" ">
<path fill="none" stroke="#63b8ff" d="M96.29,-120.6C118.68,-126.52 148.07,-134.29 174.56,-141.3"/>
<polygon fill="#63b8ff" stroke="#63b8ff" points="173.98,-144.76 184.54,-143.94 175.77,-138 173.98,-144.76"/>
</a>
</g>
</g>
<!-- Node4 -->
<g id="Node000004" class="node">
<title>Node4</title>
<g id="a_Node000004"><a xlink:href="namespacem__ibm.html#a07a2684834c77cdbad742523f3e9595e" target="_top" xlink:title="Function that finds the ghost points.">
<polygon fill="white" stroke="#666666" points="301,-126 184,-126 184,-96 301,-96 301,-126"/>
<text text-anchor="start" x="192" y="-114" font-family="Helvetica,sans-Serif" font-size="10.00">m_ibm::s_find_ghost</text>
<text text-anchor="middle" x="242.5" y="-103" font-family="Helvetica,sans-Serif" font-size="10.00">_points</text>
</a>
</g>
</g>
<!-- Node1&#45;&gt;Node4 -->
<g id="edge3_Node000001_Node000004" class="edge">
<title>Node1&#45;&gt;Node4</title>
<g id="a_edge3_Node000001_Node000004"><a xlink:title=" ">
<path fill="none" stroke="#63b8ff" d="M118.18,-111C135.94,-111 155.62,-111 173.94,-111"/>
<polygon fill="#63b8ff" stroke="#63b8ff" points="173.96,-114.5 183.96,-111 173.96,-107.5 173.96,-114.5"/>
</a>
</g>
</g>
<!-- Node5 -->
<g id="Node000005" class="node">
<title>Node5</title>
<g id="a_Node000005"><a xlink:href="namespacem__ibm.html#ae2e4e865df2b419bad364c0126009c28" target="_top" xlink:title="Function that finds the number of ghost points, used for allocating memory.">
<polygon fill="white" stroke="#666666" points="314.5,-78 170.5,-78 170.5,-48 314.5,-48 314.5,-78"/>
<text text-anchor="start" x="178.5" y="-66" font-family="Helvetica,sans-Serif" font-size="10.00">m_ibm::s_find_num_ghost</text>
<text text-anchor="middle" x="242.5" y="-55" font-family="Helvetica,sans-Serif" font-size="10.00">_points</text>
</a>
</g>
</g>
<!-- Node1&#45;&gt;Node5 -->
<g id="edge4_Node000001_Node000005" class="edge">
<title>Node1&#45;&gt;Node5</title>
<g id="a_edge4_Node000001_Node000005"><a xlink:title=" ">
<path fill="none" stroke="#63b8ff" d="M96.29,-101.4C118.68,-95.48 148.07,-87.71 174.56,-80.7"/>
<polygon fill="#63b8ff" stroke="#63b8ff" points="175.77,-84 184.54,-78.06 173.98,-77.24 175.77,-84"/>
</a>
</g>
</g>
<!-- Node6 -->
<g id="Node000006" class="node">
<title>Node6</title>
<g id="a_Node000006"><a xlink:href="namespacem__ibm.html#a38f37eda1ee706319633cd6aa3b7c613" target="_top" xlink:title=" ">
<polygon fill="white" stroke="#666666" points="304.5,-30 180.5,-30 180.5,0 304.5,0 304.5,-30"/>
<text text-anchor="start" x="188.5" y="-18" font-family="Helvetica,sans-Serif" font-size="10.00">m_ibm::s_populate_ib</text>
<text text-anchor="middle" x="242.5" y="-7" font-family="Helvetica,sans-Serif" font-size="10.00">_buffers</text>
</a>
</g>
</g>
<!-- Node1&#45;&gt;Node6 -->
<g id="edge5_Node000001_Node000006" class="edge">
<title>Node1&#45;&gt;Node6</title>
<g id="a_edge5_Node000001_Node000006"><a xlink:title=" ">
<path fill="none" stroke="#63b8ff" d="M69.82,-101.36C86.01,-85.98 119.93,-55.91 154,-39 159.24,-36.4 164.81,-34.05 170.49,-31.93"/>
<polygon fill="#63b8ff" stroke="#63b8ff" points="171.83,-35.16 180.13,-28.57 169.53,-28.55 171.83,-35.16"/>
</a>
</g>
</g>
</g>
</svg>
</svg>

<style type='text/css'>
<![CDATA[
[data-mouse-over-selected='false'] { opacity: 0.7; }
[data-mouse-over-selected='true']  { opacity: 1.0; }
]]>
</style>
<script type="application/ecmascript"><![CDATA[
document.addEventListener('DOMContentLoaded', (event) => {
  highlightEdges();
  highlightAdjacentNodes();
});
]]></script>
</svg>
