<?xml version="1.0" encoding="UTF-8" standalone="no"?>
<!DOCTYPE svg PUBLIC "-//W3C//DTD SVG 1.1//EN"
 "http://www.w3.org/Graphics/SVG/1.1/DTD/svg11.dtd">
<!-- Generated by graphviz version 2.43.0 (0)
 -->
<!-- Title: m_riemann_solvers::s_populate_riemann_states_variables_buffers Pages: 1 -->
<svg width="476pt" height="182pt"
 viewBox="0.00 0.00 476.00 182.00" xmlns="http://www.w3.org/2000/svg" xmlns:xlink="http://www.w3.org/1999/xlink">
<g id="graph0" class="graph" transform="scale(1 1) rotate(0) translate(4 178)">
<title>m_riemann_solvers::s_populate_riemann_states_variables_buffers</title>
<!-- Node1 -->
<g id="Node000001" class="node">
<title>Node1</title>
<g id="a_Node000001"><a xlink:title="The purpose of this subroutine is to populate the buffers of the left and right Riemann states variab...">
<polygon fill="#999999" stroke="#666666" points="468,-107.5 317,-107.5 317,-66.5 468,-66.5 468,-107.5"/>
<text text-anchor="start" x="325" y="-95.5" font-family="Helvetica,sans-Serif" font-size="10.00">m_riemann_solvers::</text>
<text text-anchor="start" x="325" y="-84.5" font-family="Helvetica,sans-Serif" font-size="10.00">s_populate_riemann_states</text>
<text text-anchor="middle" x="392.5" y="-73.5" font-family="Helvetica,sans-Serif" font-size="10.00">_variables_buffers</text>
</a>
</g>
</g>
<!-- Node2 -->
<g id="Node000002" class="node">
<title>Node2</title>
<g id="a_Node000002"><a xlink:href="namespacem__riemann__solvers.html#a1b018ebed82e499a0589925651bba7a7" target="_top" xlink:title=" ">
<polygon fill="white" stroke="#666666" points="278,-174 158,-174 158,-144 278,-144 278,-174"/>
<text text-anchor="start" x="166" y="-162" font-family="Helvetica,sans-Serif" font-size="10.00">m_riemann_solvers::</text>
<text text-anchor="middle" x="218" y="-151" font-family="Helvetica,sans-Serif" font-size="10.00">s_hll_riemann_solver</text>
</a>
</g>
</g>
<!-- Node1&#45;&gt;Node2 -->
<g id="edge1_Node000001_Node000002" class="edge">
<title>Node1&#45;&gt;Node2</title>
<g id="a_edge1_Node000001_Node000002"><a xlink:title=" ">
<path fill="none" stroke="#63b8ff" d="M335.93,-111.66C318.42,-119.29 298.96,-127.63 281,-135 273.85,-137.94 266.19,-140.98 258.78,-143.87"/>
<polygon fill="#63b8ff" stroke="#63b8ff" points="337.68,-114.72 345.44,-107.5 334.88,-108.3 337.68,-114.72"/>
</a>
</g>
</g>
<!-- Node4 -->
<g id="Node000004" class="node">
<title>Node4</title>
<g id="a_Node000004"><a xlink:href="namespacem__riemann__solvers.html#a6c9d70572e9b98586bab20b028557a5a" target="_top" xlink:title="This procedure is the implementation of the Harten, Lax, van Leer, and contact (HLLC) approximate Rie...">
<polygon fill="white" stroke="#666666" points="280.5,-126 155.5,-126 155.5,-96 280.5,-96 280.5,-126"/>
<text text-anchor="start" x="163.5" y="-114" font-family="Helvetica,sans-Serif" font-size="10.00">m_riemann_solvers::</text>
<text text-anchor="middle" x="218" y="-103" font-family="Helvetica,sans-Serif" font-size="10.00">s_hllc_riemann_solver</text>
</a>
</g>
</g>
<!-- Node1&#45;&gt;Node4 -->
<g id="edge3_Node000001_Node000004" class="edge">
<title>Node1&#45;&gt;Node4</title>
<g id="a_edge3_Node000001_Node000004"><a xlink:title=" ">
<path fill="none" stroke="#63b8ff" d="M306.86,-98.78C297.99,-100.01 289.1,-101.25 280.56,-102.44"/>
<polygon fill="#63b8ff" stroke="#63b8ff" points="307.42,-102.23 316.84,-97.39 306.46,-95.3 307.42,-102.23"/>
</a>
</g>
</g>
<!-- Node5 -->
<g id="Node000005" class="node">
<title>Node5</title>
<g id="a_Node000005"><a xlink:href="namespacem__riemann__solvers.html#a00571de3c5571a731fbb093c00c77ed8" target="_top" xlink:title="HLLD Riemann solver resolves 5 of the 7 waves of MHD equations: 1 entropy wave, 2 Alfvén waves,...">
<polygon fill="white" stroke="#666666" points="281,-78 155,-78 155,-48 281,-48 281,-78"/>
<text text-anchor="start" x="163" y="-66" font-family="Helvetica,sans-Serif" font-size="10.00">m_riemann_solvers::</text>
<text text-anchor="middle" x="218" y="-55" font-family="Helvetica,sans-Serif" font-size="10.00">s_hlld_riemann_solver</text>
</a>
</g>
</g>
<!-- Node1&#45;&gt;Node5 -->
<g id="edge5_Node000001_Node000005" class="edge">
<title>Node1&#45;&gt;Node5</title>
<g id="a_edge5_Node000001_Node000005"><a xlink:title=" ">
<path fill="none" stroke="#63b8ff" d="M306.73,-75.21C298.09,-74 289.42,-72.8 281.09,-71.64"/>
<polygon fill="#63b8ff" stroke="#63b8ff" points="306.46,-78.7 316.84,-76.61 307.42,-71.77 306.46,-78.7"/>
</a>
</g>
</g>
<!-- Node6 -->
<g id="Node000006" class="node">
<title>Node6</title>
<g id="a_Node000006"><a xlink:href="namespacem__riemann__solvers.html#a9874501694c99874d02ce0eefa258ce9" target="_top" xlink:title=" ">
<polygon fill="white" stroke="#666666" points="277.5,-30 158.5,-30 158.5,0 277.5,0 277.5,-30"/>
<text text-anchor="start" x="166.5" y="-18" font-family="Helvetica,sans-Serif" font-size="10.00">m_riemann_solvers::</text>
<text text-anchor="middle" x="218" y="-7" font-family="Helvetica,sans-Serif" font-size="10.00">s_lf_riemann_solver</text>
</a>
</g>
</g>
<!-- Node1&#45;&gt;Node6 -->
<g id="edge7_Node000001_Node000006" class="edge">
<title>Node1&#45;&gt;Node6</title>
<g id="a_edge7_Node000001_Node000006"><a xlink:title=" ">
<path fill="none" stroke="#63b8ff" d="M335.93,-62.34C318.42,-54.71 298.96,-46.37 281,-39 273.85,-36.06 266.19,-33.02 258.78,-30.13"/>
<polygon fill="#63b8ff" stroke="#63b8ff" points="334.88,-65.7 345.44,-66.5 337.68,-59.28 334.88,-65.7"/>
</a>
</g>
</g>
<!-- Node3 -->
<g id="Node000003" class="node">
<title>Node3</title>
<g id="a_Node000003"><a xlink:href="namespacem__riemann__solvers.html#aff6e3d5abdabe6ce6fccbb7a081766e6" target="_top" xlink:title="Dispatch to the subroutines that are utilized to compute the Riemann problem solution....">
<polygon fill="white" stroke="#666666" points="119,-102 0,-102 0,-72 119,-72 119,-102"/>
<text text-anchor="start" x="8" y="-90" font-family="Helvetica,sans-Serif" font-size="10.00">m_riemann_solvers::</text>
<text text-anchor="middle" x="59.5" y="-79" font-family="Helvetica,sans-Serif" font-size="10.00">s_riemann_solver</text>
</a>
</g>
</g>
<!-- Node2&#45;&gt;Node3 -->
<g id="edge2_Node000002_Node000003" class="edge">
<title>Node2&#45;&gt;Node3</title>
<g id="a_edge2_Node000002_Node000003"><a xlink:title=" ">
<path fill="none" stroke="#63b8ff" d="M166.93,-140.12C162.87,-138.44 158.85,-136.72 155,-135 132.15,-124.8 106.9,-111.89 88.26,-102.03"/>
<polygon fill="#63b8ff" stroke="#63b8ff" points="165.82,-143.45 176.4,-143.96 168.45,-136.96 165.82,-143.45"/>
</a>
</g>
</g>
<!-- Node4&#45;&gt;Node3 -->
<g id="edge4_Node000004_Node000003" class="edge">
<title>Node4&#45;&gt;Node3</title>
<g id="a_edge4_Node000004_Node000003"><a xlink:title=" ">
<path fill="none" stroke="#63b8ff" d="M145.03,-99.96C136.34,-98.63 127.56,-97.28 119.1,-95.99"/>
<polygon fill="#63b8ff" stroke="#63b8ff" points="144.73,-103.46 155.15,-101.51 145.79,-96.54 144.73,-103.46"/>
</a>
</g>
</g>
<!-- Node5&#45;&gt;Node3 -->
<g id="edge6_Node000005_Node000003" class="edge">
<title>Node5&#45;&gt;Node3</title>
<g id="a_edge6_Node000005_Node000003"><a xlink:title=" ">
<path fill="none" stroke="#63b8ff" d="M144.68,-74.09C136.08,-75.41 127.39,-76.74 119.03,-78.02"/>
<polygon fill="#63b8ff" stroke="#63b8ff" points="145.34,-77.53 154.7,-72.55 144.28,-70.61 145.34,-77.53"/>
</a>
</g>
</g>
<!-- Node6&#45;&gt;Node3 -->
<g id="edge8_Node000006_Node000003" class="edge">
<title>Node6&#45;&gt;Node3</title>
<g id="a_edge8_Node000006_Node000003"><a xlink:title=" ">
<path fill="none" stroke="#63b8ff" d="M166.93,-33.88C162.87,-35.56 158.85,-37.28 155,-39 132.15,-49.2 106.9,-62.11 88.26,-71.97"/>
<polygon fill="#63b8ff" stroke="#63b8ff" points="168.45,-37.04 176.4,-30.04 165.82,-30.55 168.45,-37.04"/>
</a>
</g>
</g>
</g>
</svg>
