<?xml version="1.0" encoding="UTF-8" standalone="no"?>
<!DOCTYPE svg PUBLIC "-//W3C//DTD SVG 1.1//EN"
 "http://www.w3.org/Graphics/SVG/1.1/DTD/svg11.dtd">
<!-- Generated by graphviz version 2.43.0 (0)
 -->
<!-- Title: m_checker::s_check_inputs Pages: 1 -->
<!--zoomable 1010 -->

<svg id="main" version="1.1" xmlns="http://www.w3.org/2000/svg" xmlns:xlink="http://www.w3.org/1999/xlink" xml:space="preserve" onload="init(evt)">

<style type="text/css"><![CDATA[
.node, .edge {opacity: 0.7;}
.node.selected, .edge.selected {opacity: 1;}
.edge:hover path { stroke: red; }
.edge:hover polygon { stroke: red; fill: red; }
]]></style>

<defs>
  <circle id="rim" cx="0" cy="0" r="7"/>
  <circle id="rim2" cx="0" cy="0" r="3.5"/>
  <g id="zoomPlus">
    <use xlink:href="#rim" fill="#404040"><set attributeName="fill" to="#808080" begin="zoomplus.mouseover" end="zoomplus.mouseout"/></use>
    <path d="M-4,0h8M0,-4v8" fill="none" stroke="white" stroke-width="1.5" pointer-events="none"/>
  </g>
  <g id="zoomMin">
    <use xlink:href="#rim" fill="#404040"><set attributeName="fill" to="#808080" begin="zoomminus.mouseover" end="zoomminus.mouseout"/></use>
    <path d="M-4,0h8" fill="none" stroke="white" stroke-width="1.5" pointer-events="none"/>
  </g>
  <g id="arrowUp" transform="translate(30 24)">
    <use xlink:href="#rim"/>
    <path pointer-events="none" fill="none" stroke="white" stroke-width="1.5" d="M0,-3.0v7 M-2.5,-0.5L0,-3.0L2.5,-0.5"/>
  </g>
  <g id="arrowRight" transform="rotate(90) translate(36 -43)">
    <use xlink:href="#rim"/>
    <path pointer-events="none" fill="none" stroke="white" stroke-width="1.5" d="M0,-3.0v7 M-2.5,-0.5L0,-3.0L2.5,-0.5"/>
  </g>
  <g id="arrowDown" transform="rotate(180) translate(-30 -48)">
    <use xlink:href="#rim"/>
    <path pointer-events="none" fill="none" stroke="white" stroke-width="1.5" d="M0,-3.0v7 M-2.5,-0.5L0,-3.0L2.5,-0.5"/>
  </g>
  <g id="arrowLeft" transform="rotate(270) translate(-36 17)">
    <use xlink:href="#rim"/>
    <path pointer-events="none" fill="none" stroke="white" stroke-width="1.5" d="M0,-3.0v7 M-2.5,-0.5L0,-3.0L2.5,-0.5"/>
  </g>
  <g id="resetDef">
    <use xlink:href="#rim2" fill="#404040"><set attributeName="fill" to="#808080" begin="reset.mouseover" end="reset.mouseout"/></use>
  </g>
</defs>
<script type="application/ecmascript">
var viewWidth = 651;
var viewHeight = 1010;
var sectionId = 'dynsection-0';
</script>
<script type="application/ecmascript" xlink:href="svg.min.js"/>
<svg id="graph" class="graph">
<g id="viewport">
<title>m_checker::s_check_inputs</title>
<!-- Node1 -->
<g id="Node000001" class="node">
<title>Node1</title>
<g id="a_Node000001"><a xlink:title="Checks compatibility of parameters in the input file. Used by the simulation stage.">
<polygon fill="#999999" stroke="#666666" points="114,-510 0,-510 0,-480 114,-480 114,-510"/>
<text text-anchor="start" x="8" y="-498" font-family="Helvetica,sans-Serif" font-size="10.00">m_checker::s_check</text>
<text text-anchor="middle" x="57" y="-487" font-family="Helvetica,sans-Serif" font-size="10.00">_inputs</text>
</a>
</g>
</g>
<!-- Node2 -->
<g id="Node000002" class="node">
<title>Node2</title>
<g id="a_Node000002"><a xlink:href="namespacem__checker.html#ae53e7ca604c26ab0fe74b9043602d4fd" target="_top" xlink:title="Checks constraints on acoustic_source parameters.">
<polygon fill="white" stroke="#666666" points="285.5,-1002 168.5,-1002 168.5,-972 285.5,-972 285.5,-1002"/>
<text text-anchor="start" x="176.5" y="-990" font-family="Helvetica,sans-Serif" font-size="10.00">m_checker::s_check</text>
<text text-anchor="middle" x="227" y="-979" font-family="Helvetica,sans-Serif" font-size="10.00">_inputs_acoustic_src</text>
</a>
</g>
</g>
<!-- Node1&#45;&gt;Node2 -->
<g id="edge1_Node000001_Node000002" class="edge">
<title>Node1&#45;&gt;Node2</title>
<g id="a_edge1_Node000001_Node000002"><a xlink:title=" ">
<path fill="none" stroke="#63b8ff" d="M58.96,-510.38C63.79,-583.29 87.77,-893.4 150,-963 152.85,-966.19 156.13,-968.96 159.68,-971.37"/>
<polygon fill="#63b8ff" stroke="#63b8ff" points="157.98,-974.43 168.4,-976.34 161.44,-968.35 157.98,-974.43"/>
</a>
</g>
</g>
<!-- Node7 -->
<g id="Node000007" class="node">
<title>Node7</title>
<g id="a_Node000007"><a xlink:href="namespacem__checker.html#acc26a5078c9a327d36a7f9df1f677a77" target="_top" xlink:title="Checks constraints on adaptive time stepping parameters (adap_dt)">
<polygon fill="white" stroke="#666666" points="284,-702 170,-702 170,-672 284,-672 284,-702"/>
<text text-anchor="start" x="178" y="-690" font-family="Helvetica,sans-Serif" font-size="10.00">m_checker::s_check</text>
<text text-anchor="middle" x="227" y="-679" font-family="Helvetica,sans-Serif" font-size="10.00">_inputs_adapt_dt</text>
</a>
</g>
</g>
<!-- Node1&#45;&gt;Node7 -->
<g id="edge8_Node000001_Node000007" class="edge">
<title>Node1&#45;&gt;Node7</title>
<g id="a_edge8_Node000001_Node000007"><a xlink:title=" ">
<path fill="none" stroke="#63b8ff" d="M62.05,-510.03C71.64,-542.78 98.87,-620.99 150,-663 153.31,-665.72 156.93,-668.13 160.73,-670.27"/>
<polygon fill="#63b8ff" stroke="#63b8ff" points="159.37,-673.5 169.89,-674.78 162.47,-667.22 159.37,-673.5"/>
</a>
</g>
</g>
<!-- Node8 -->
<g id="Node000008" class="node">
<title>Node8</title>
<g id="a_Node000008"><a xlink:href="namespacem__checker.html#a0671188cdd71a01ec372cbd01ac94693" target="_top" xlink:title="Checks constraints on alternative sound speed parameters (alt_soundspeed)">
<polygon fill="white" stroke="#666666" points="294,-654 160,-654 160,-624 294,-624 294,-654"/>
<text text-anchor="start" x="168" y="-642" font-family="Helvetica,sans-Serif" font-size="10.00">m_checker::s_check</text>
<text text-anchor="middle" x="227" y="-631" font-family="Helvetica,sans-Serif" font-size="10.00">_inputs_alt_soundspeed</text>
</a>
</g>
</g>
<!-- Node1&#45;&gt;Node8 -->
<g id="edge9_Node000001_Node000008" class="edge">
<title>Node1&#45;&gt;Node8</title>
<g id="a_edge9_Node000001_Node000008"><a xlink:title=" ">
<path fill="none" stroke="#63b8ff" d="M65.69,-510.31C79.24,-535.78 109.8,-586.83 150,-615 152.13,-616.49 154.36,-617.9 156.66,-619.22"/>
<polygon fill="#63b8ff" stroke="#63b8ff" points="155.33,-622.47 165.83,-623.9 158.51,-616.23 155.33,-622.47"/>
</a>
</g>
</g>
<!-- Node9 -->
<g id="Node000009" class="node">
<title>Node9</title>
<g id="a_Node000009"><a xlink:href="namespacem__checker.html#a3c394d83ae91d8026c551f81031cdc8e" target="_top" xlink:title="Checks constraints on body forces parameters (bf_x[y,z], etc.)">
<polygon fill="white" stroke="#666666" points="285,-798 169,-798 169,-768 285,-768 285,-798"/>
<text text-anchor="start" x="177" y="-786" font-family="Helvetica,sans-Serif" font-size="10.00">m_checker::s_check</text>
<text text-anchor="middle" x="227" y="-775" font-family="Helvetica,sans-Serif" font-size="10.00">_inputs_body_forces</text>
</a>
</g>
</g>
<!-- Node1&#45;&gt;Node9 -->
<g id="edge10_Node000001_Node000009" class="edge">
<title>Node1&#45;&gt;Node9</title>
<g id="a_edge10_Node000001_Node000009"><a xlink:title=" ">
<path fill="none" stroke="#63b8ff" d="M58.74,-510.31C61.74,-555.2 76.7,-687.83 150,-759 152.93,-761.85 156.2,-764.36 159.68,-766.57"/>
<polygon fill="#63b8ff" stroke="#63b8ff" points="158.27,-769.78 168.73,-771.48 161.61,-763.63 158.27,-769.78"/>
</a>
</g>
</g>
<!-- Node10 -->
<g id="Node000010" class="node">
<title>Node10</title>
<g id="a_Node000010"><a xlink:href="namespacem__checker.html#aa9fb7874618056769669737ab323058f" target="_top" xlink:title="Checks constraints on bubble parameters.">
<polygon fill="white" stroke="#666666" points="289.5,-606 164.5,-606 164.5,-576 289.5,-576 289.5,-606"/>
<text text-anchor="start" x="172.5" y="-594" font-family="Helvetica,sans-Serif" font-size="10.00">m_checker::s_check</text>
<text text-anchor="middle" x="227" y="-583" font-family="Helvetica,sans-Serif" font-size="10.00">_inputs_bubbles_euler</text>
</a>
</g>
</g>
<!-- Node1&#45;&gt;Node10 -->
<g id="edge12_Node000001_Node000010" class="edge">
<title>Node1&#45;&gt;Node10</title>
<g id="a_edge12_Node000001_Node000010"><a xlink:title=" ">
<path fill="none" stroke="#63b8ff" d="M73.7,-510.21C91.09,-526.31 120.57,-551.49 150,-567 153.48,-568.83 157.13,-570.56 160.86,-572.17"/>
<polygon fill="#63b8ff" stroke="#63b8ff" points="159.68,-575.47 170.26,-575.96 162.29,-568.98 159.68,-575.47"/>
</a>
</g>
</g>
<!-- Node11 -->
<g id="Node000011" class="node">
<title>Node11</title>
<g id="a_Node000011"><a xlink:href="namespacem__checker.html#a889ee601de489406e0a5711659a758e5" target="_top" xlink:title="Checks constraints on lagrangian bubble parameters.">
<polygon fill="white" stroke="#666666" points="298.5,-558 155.5,-558 155.5,-528 298.5,-528 298.5,-558"/>
<text text-anchor="start" x="163.5" y="-546" font-family="Helvetica,sans-Serif" font-size="10.00">m_checker::s_check</text>
<text text-anchor="middle" x="227" y="-535" font-family="Helvetica,sans-Serif" font-size="10.00">_inputs_bubbles_lagrange</text>
</a>
</g>
</g>
<!-- Node1&#45;&gt;Node11 -->
<g id="edge13_Node000001_Node000011" class="edge">
<title>Node1&#45;&gt;Node11</title>
<g id="a_edge13_Node000001_Node000011"><a xlink:title=" ">
<path fill="none" stroke="#63b8ff" d="M110.7,-510.06C127.43,-514.84 146.09,-520.17 163.45,-525.13"/>
<polygon fill="#63b8ff" stroke="#63b8ff" points="162.91,-528.62 173.49,-528 164.84,-521.89 162.91,-528.62"/>
</a>
</g>
</g>
<!-- Node12 -->
<g id="Node000012" class="node">
<title>Node12</title>
<g id="a_Node000012"><a xlink:href="namespacem__checker.html#aae9a516509d46e5ac36d150bb75254f2" target="_top" xlink:title="Checks constraints on compiler options.">
<polygon fill="white" stroke="#666666" points="284,-510 170,-510 170,-480 284,-480 284,-510"/>
<text text-anchor="start" x="178" y="-498" font-family="Helvetica,sans-Serif" font-size="10.00">m_checker::s_check</text>
<text text-anchor="middle" x="227" y="-487" font-family="Helvetica,sans-Serif" font-size="10.00">_inputs_compilers</text>
</a>
</g>
</g>
<!-- Node1&#45;&gt;Node12 -->
<g id="edge14_Node000001_Node000012" class="edge">
<title>Node1&#45;&gt;Node12</title>
<g id="a_edge14_Node000001_Node000012"><a xlink:title=" ">
<path fill="none" stroke="#63b8ff" d="M114.41,-495C128.89,-495 144.61,-495 159.55,-495"/>
<polygon fill="#63b8ff" stroke="#63b8ff" points="159.74,-498.5 169.74,-495 159.74,-491.5 159.74,-498.5"/>
</a>
</g>
</g>
<!-- Node13 -->
<g id="Node000013" class="node">
<title>Node13</title>
<g id="a_Node000013"><a xlink:href="namespacem__checker.html#a75646461a67d613be30bc67a0463968a" target="_top" xlink:title="Checks constraints on continuum damage model parameters.">
<polygon fill="white" stroke="#666666" points="304,-750 150,-750 150,-720 304,-720 304,-750"/>
<text text-anchor="start" x="158" y="-738" font-family="Helvetica,sans-Serif" font-size="10.00">m_checker::s_check</text>
<text text-anchor="middle" x="227" y="-727" font-family="Helvetica,sans-Serif" font-size="10.00">_inputs_continuum_damage</text>
</a>
</g>
</g>
<!-- Node1&#45;&gt;Node13 -->
<g id="edge15_Node000001_Node000013" class="edge">
<title>Node1&#45;&gt;Node13</title>
<g id="a_edge15_Node000001_Node000013"><a xlink:title=" ">
<path fill="none" stroke="#63b8ff" d="M60.04,-510.04C66.14,-549.09 87.83,-654.57 150,-711 151.3,-712.18 152.66,-713.31 154.07,-714.38"/>
<polygon fill="#63b8ff" stroke="#63b8ff" points="152.33,-717.42 162.63,-719.91 156.13,-711.54 152.33,-717.42"/>
</a>
</g>
</g>
<!-- Node14 -->
<g id="Node000014" class="node">
<title>Node14</title>
<g id="a_Node000014"><a xlink:href="namespacem__checker.html#aa69f6c9d17c37cfcbe580aaa9b1aa864" target="_top" xlink:title="Checks constraints on geometry and precision.">
<polygon fill="white" stroke="#666666" points="304,-462 150,-462 150,-432 304,-432 304,-462"/>
<text text-anchor="start" x="158" y="-450" font-family="Helvetica,sans-Serif" font-size="10.00">m_checker::s_check</text>
<text text-anchor="middle" x="227" y="-439" font-family="Helvetica,sans-Serif" font-size="10.00">_inputs_geometry_precision</text>
</a>
</g>
</g>
<!-- Node1&#45;&gt;Node14 -->
<g id="edge17_Node000001_Node000014" class="edge">
<title>Node1&#45;&gt;Node14</title>
<g id="a_edge17_Node000001_Node000014"><a xlink:title=" ">
<path fill="none" stroke="#63b8ff" d="M110.7,-479.94C127.43,-475.16 146.09,-469.83 163.45,-464.87"/>
<polygon fill="#63b8ff" stroke="#63b8ff" points="164.84,-468.11 173.49,-462 162.91,-461.38 164.84,-468.11"/>
</a>
</g>
</g>
<!-- Node15 -->
<g id="Node000015" class="node">
<title>Node15</title>
<g id="a_Node000015"><a xlink:href="namespacem__checker.html#a8077d9978c9d615e5842749cb3efea24" target="_top" xlink:title="Checks constraints for GRCBC.">
<polygon fill="white" stroke="#666666" points="284,-414 170,-414 170,-384 284,-384 284,-414"/>
<text text-anchor="start" x="178" y="-402" font-family="Helvetica,sans-Serif" font-size="10.00">m_checker::s_check</text>
<text text-anchor="middle" x="227" y="-391" font-family="Helvetica,sans-Serif" font-size="10.00">_inputs_grcbc</text>
</a>
</g>
</g>
<!-- Node1&#45;&gt;Node15 -->
<g id="edge18_Node000001_Node000015" class="edge">
<title>Node1&#45;&gt;Node15</title>
<g id="a_edge18_Node000001_Node000015"><a xlink:title=" ">
<path fill="none" stroke="#63b8ff" d="M73.7,-479.79C91.09,-463.69 120.57,-438.51 150,-423 153.48,-421.17 157.13,-419.44 160.86,-417.83"/>
<polygon fill="#63b8ff" stroke="#63b8ff" points="162.29,-421.02 170.26,-414.04 159.68,-414.53 162.29,-421.02"/>
</a>
</g>
</g>
<!-- Node16 -->
<g id="Node000016" class="node">
<title>Node16</title>
<g id="a_Node000016"><a xlink:href="namespacem__checker.html#a9612174de873a05dab3922f9eddc11b0" target="_top" xlink:title="Checks constraints on hypoelasticity parameters.">
<polygon fill="white" stroke="#666666" points="290,-366 164,-366 164,-336 290,-336 290,-366"/>
<text text-anchor="start" x="172" y="-354" font-family="Helvetica,sans-Serif" font-size="10.00">m_checker::s_check</text>
<text text-anchor="middle" x="227" y="-343" font-family="Helvetica,sans-Serif" font-size="10.00">_inputs_hypoelasticity</text>
</a>
</g>
</g>
<!-- Node1&#45;&gt;Node16 -->
<g id="edge19_Node000001_Node000016" class="edge">
<title>Node1&#45;&gt;Node16</title>
<g id="a_edge19_Node000001_Node000016"><a xlink:title=" ">
<path fill="none" stroke="#63b8ff" d="M65.69,-479.69C79.24,-454.22 109.8,-403.17 150,-375 152.13,-373.51 154.36,-372.1 156.66,-370.78"/>
<polygon fill="#63b8ff" stroke="#63b8ff" points="158.51,-373.77 165.83,-366.1 155.33,-367.53 158.51,-373.77"/>
</a>
</g>
</g>
<!-- Node17 -->
<g id="Node000017" class="node">
<title>Node17</title>
<g id="a_Node000017"><a xlink:href="namespacem__checker.html#ad9455d1d7a63e7e090a23a779d3e7cf3" target="_top" xlink:title=" ">
<polygon fill="white" stroke="#666666" points="284,-318 170,-318 170,-288 284,-288 284,-318"/>
<text text-anchor="start" x="178" y="-306" font-family="Helvetica,sans-Serif" font-size="10.00">m_checker::s_check</text>
<text text-anchor="middle" x="227" y="-295" font-family="Helvetica,sans-Serif" font-size="10.00">_inputs_igr</text>
</a>
</g>
</g>
<!-- Node1&#45;&gt;Node17 -->
<g id="edge20_Node000001_Node000017" class="edge">
<title>Node1&#45;&gt;Node17</title>
<g id="a_edge20_Node000001_Node000017"><a xlink:title=" ">
<path fill="none" stroke="#63b8ff" d="M62.05,-479.97C71.64,-447.22 98.87,-369.01 150,-327 153.31,-324.28 156.93,-321.87 160.73,-319.73"/>
<polygon fill="#63b8ff" stroke="#63b8ff" points="162.47,-322.78 169.89,-315.22 159.37,-316.5 162.47,-322.78"/>
</a>
</g>
</g>
<!-- Node18 -->
<g id="Node000018" class="node">
<title>Node18</title>
<g id="a_Node000018"><a xlink:href="namespacem__checker.html#aacc9d722e445416a9d8965676f2b5b0b" target="_top" xlink:title=" ">
<polygon fill="white" stroke="#666666" points="284,-270 170,-270 170,-240 284,-240 284,-270"/>
<text text-anchor="start" x="178" y="-258" font-family="Helvetica,sans-Serif" font-size="10.00">m_checker::s_check</text>
<text text-anchor="middle" x="227" y="-247" font-family="Helvetica,sans-Serif" font-size="10.00">_inputs_mhd</text>
</a>
</g>
</g>
<!-- Node1&#45;&gt;Node18 -->
<g id="edge21_Node000001_Node000018" class="edge">
<title>Node1&#45;&gt;Node18</title>
<g id="a_edge21_Node000001_Node000018"><a xlink:title=" ">
<path fill="none" stroke="#63b8ff" d="M60.04,-479.96C66.14,-440.91 87.83,-335.43 150,-279 153.23,-276.07 156.81,-273.5 160.62,-271.24"/>
<polygon fill="#63b8ff" stroke="#63b8ff" points="162.52,-274.2 169.83,-266.52 159.33,-267.97 162.52,-274.2"/>
</a>
</g>
</g>
<!-- Node19 -->
<g id="Node000019" class="node">
<title>Node19</title>
<g id="a_Node000019"><a xlink:href="namespacem__checker.html#a4a14987dcf7b3ff20915136de95cb2f6" target="_top" xlink:title="Checks miscellaneous constraints, including constraints on probe_wrt and integral_wrt.">
<polygon fill="white" stroke="#666666" points="284,-222 170,-222 170,-192 284,-192 284,-222"/>
<text text-anchor="start" x="178" y="-210" font-family="Helvetica,sans-Serif" font-size="10.00">m_checker::s_check</text>
<text text-anchor="middle" x="227" y="-199" font-family="Helvetica,sans-Serif" font-size="10.00">_inputs_misc</text>
</a>
</g>
</g>
<!-- Node1&#45;&gt;Node19 -->
<g id="edge22_Node000001_Node000019" class="edge">
<title>Node1&#45;&gt;Node19</title>
<g id="a_edge22_Node000001_Node000019"><a xlink:title=" ">
<path fill="none" stroke="#63b8ff" d="M58.74,-479.69C61.74,-434.8 76.7,-302.17 150,-231 153.27,-227.82 156.96,-225.07 160.9,-222.68"/>
<polygon fill="#63b8ff" stroke="#63b8ff" points="162.63,-225.72 169.88,-218 159.4,-219.51 162.63,-225.72"/>
</a>
</g>
</g>
<!-- Node20 -->
<g id="Node000020" class="node">
<title>Node20</title>
<g id="a_Node000020"><a xlink:href="namespacem__checker.html#a886c16e10613db9388ef8f92554f684a" target="_top" xlink:title="Checks constraints on parameters related to 6&#45;equation model.">
<polygon fill="white" stroke="#666666" points="285,-174 169,-174 169,-144 285,-144 285,-174"/>
<text text-anchor="start" x="177" y="-162" font-family="Helvetica,sans-Serif" font-size="10.00">m_checker::s_check</text>
<text text-anchor="middle" x="227" y="-151" font-family="Helvetica,sans-Serif" font-size="10.00">_inputs_model_eqns</text>
</a>
</g>
</g>
<!-- Node1&#45;&gt;Node20 -->
<g id="edge23_Node000001_Node000020" class="edge">
<title>Node1&#45;&gt;Node20</title>
<g id="a_edge23_Node000001_Node000020"><a xlink:title=" ">
<path fill="none" stroke="#63b8ff" d="M57.78,-479.88C57.91,-430.08 65.17,-269.47 150,-183 153,-179.94 156.38,-177.28 160.01,-174.95"/>
<polygon fill="#63b8ff" stroke="#63b8ff" points="161.78,-177.97 168.87,-170.11 158.42,-171.83 161.78,-177.97"/>
</a>
</g>
</g>
<!-- Node21 -->
<g id="Node000021" class="node">
<title>Node21</title>
<g id="a_Node000021"><a xlink:href="namespacem__checker.html#a96654b50668ae39c0b9eca1426a3fe56" target="_top" xlink:title=" ">
<polygon fill="white" stroke="#666666" points="284,-954 170,-954 170,-924 284,-924 284,-954"/>
<text text-anchor="start" x="178" y="-942" font-family="Helvetica,sans-Serif" font-size="10.00">m_checker::s_check</text>
<text text-anchor="middle" x="227" y="-931" font-family="Helvetica,sans-Serif" font-size="10.00">_inputs_muscl</text>
</a>
</g>
</g>
<!-- Node1&#45;&gt;Node21 -->
<g id="edge24_Node000001_Node000021" class="edge">
<title>Node1&#45;&gt;Node21</title>
<g id="a_edge24_Node000001_Node000021"><a xlink:title=" ">
<path fill="none" stroke="#63b8ff" d="M59.33,-510.1C65.59,-577.73 94.09,-852.1 150,-914 153.12,-917.46 156.73,-920.44 160.64,-923.01"/>
<polygon fill="#63b8ff" stroke="#63b8ff" points="159.19,-926.2 169.63,-928 162.59,-920.08 159.19,-926.2"/>
</a>
</g>
</g>
<!-- Node22 -->
<g id="Node000022" class="node">
<title>Node22</title>
<g id="a_Node000022"><a xlink:href="namespacem__checker.html#aceda94ae9a006496d062f1e764db5b67" target="_top" xlink:title=" ">
<polygon fill="white" stroke="#666666" points="284,-126 170,-126 170,-96 284,-96 284,-126"/>
<text text-anchor="start" x="178" y="-114" font-family="Helvetica,sans-Serif" font-size="10.00">m_checker::s_check</text>
<text text-anchor="middle" x="227" y="-103" font-family="Helvetica,sans-Serif" font-size="10.00">_inputs_nvidia_uvm</text>
</a>
</g>
</g>
<!-- Node1&#45;&gt;Node22 -->
<g id="edge26_Node000001_Node000022" class="edge">
<title>Node1&#45;&gt;Node22</title>
<g id="a_edge26_Node000001_Node000022"><a xlink:title=" ">
<path fill="none" stroke="#63b8ff" d="M59.89,-479.98C67.89,-418.5 100.91,-186.9 150,-135 153.19,-131.63 156.84,-128.73 160.79,-126.24"/>
<polygon fill="#63b8ff" stroke="#63b8ff" points="162.67,-129.2 169.83,-121.4 159.36,-123.03 162.67,-129.2"/>
</a>
</g>
</g>
<!-- Node23 -->
<g id="Node000023" class="node">
<title>Node23</title>
<g id="a_Node000023"><a xlink:href="namespacem__checker.html#a6d3a9da7c35063469ecc2df03b4c90e1" target="_top" xlink:title="Checks constraints on Riemann solver parameters.">
<polygon fill="white" stroke="#666666" points="293.5,-78 160.5,-78 160.5,-48 293.5,-48 293.5,-78"/>
<text text-anchor="start" x="168.5" y="-66" font-family="Helvetica,sans-Serif" font-size="10.00">m_checker::s_check</text>
<text text-anchor="middle" x="227" y="-55" font-family="Helvetica,sans-Serif" font-size="10.00">_inputs_riemann_solver</text>
</a>
</g>
</g>
<!-- Node1&#45;&gt;Node23 -->
<g id="edge27_Node000001_Node000023" class="edge">
<title>Node1&#45;&gt;Node23</title>
<g id="a_edge27_Node000001_Node000023"><a xlink:title=" ">
<path fill="none" stroke="#63b8ff" d="M59.42,-479.83C65.93,-413.15 95.09,-146.74 150,-87 150.9,-86.03 151.83,-85.09 152.8,-84.19"/>
<polygon fill="#63b8ff" stroke="#63b8ff" points="155.04,-86.89 160.85,-78.03 150.78,-81.33 155.04,-86.89"/>
</a>
</g>
</g>
<!-- Node24 -->
<g id="Node000024" class="node">
<title>Node24</title>
<g id="a_Node000024"><a xlink:href="namespacem__checker.html#a45be1868d8f0598be1781280e39078d3" target="_top" xlink:title="Checks constraints on viscosity parameters (fluid_pp(i)Re(1:2)) of the stiffened gas equation of stat...">
<polygon fill="white" stroke="#666666" points="288,-905.5 166,-905.5 166,-864.5 288,-864.5 288,-905.5"/>
<text text-anchor="start" x="174" y="-893.5" font-family="Helvetica,sans-Serif" font-size="10.00">m_checker::s_check</text>
<text text-anchor="start" x="174" y="-882.5" font-family="Helvetica,sans-Serif" font-size="10.00">_inputs_stiffened_eos</text>
<text text-anchor="middle" x="227" y="-871.5" font-family="Helvetica,sans-Serif" font-size="10.00">_viscosity</text>
</a>
</g>
</g>
<!-- Node1&#45;&gt;Node24 -->
<g id="edge28_Node000001_Node000024" class="edge">
<title>Node1&#45;&gt;Node24</title>
<g id="a_edge28_Node000001_Node000024"><a xlink:title=" ">
<path fill="none" stroke="#63b8ff" d="M57.31,-510.21C55.69,-564.34 57.43,-749.99 150,-855 152.32,-857.63 154.9,-860.04 157.68,-862.23"/>
<polygon fill="#63b8ff" stroke="#63b8ff" points="155.7,-865.12 165.93,-867.88 159.66,-859.35 155.7,-865.12"/>
</a>
</g>
</g>
<!-- Node25 -->
<g id="Node000025" class="node">
<title>Node25</title>
<g id="a_Node000025"><a xlink:href="namespacem__checker.html#a2bee59c2049ad8165e2788175b6cd030" target="_top" xlink:title="Checks constraints on time stepping parameters.">
<polygon fill="white" stroke="#666666" points="290.5,-30 163.5,-30 163.5,0 290.5,0 290.5,-30"/>
<text text-anchor="start" x="171.5" y="-18" font-family="Helvetica,sans-Serif" font-size="10.00">m_checker::s_check</text>
<text text-anchor="middle" x="227" y="-7" font-family="Helvetica,sans-Serif" font-size="10.00">_inputs_time_stepping</text>
</a>
</g>
</g>
<!-- Node1&#45;&gt;Node25 -->
<g id="edge31_Node000001_Node000025" class="edge">
<title>Node1&#45;&gt;Node25</title>
<g id="a_edge31_Node000001_Node000025"><a xlink:title=" ">
<path fill="none" stroke="#63b8ff" d="M59.05,-479.53C64.23,-407.62 89.27,-106.58 150,-39 151.54,-37.29 153.2,-35.69 154.96,-34.21"/>
<polygon fill="#63b8ff" stroke="#63b8ff" points="157.06,-37.02 163.25,-28.42 153.05,-31.28 157.06,-37.02"/>
</a>
</g>
</g>
<!-- Node26 -->
<g id="Node000026" class="node">
<title>Node26</title>
<g id="a_Node000026"><a xlink:href="namespacem__checker.html#a8abd19271bbd3a0d8a4b445f1e7dba57" target="_top" xlink:title="Checks constraints on WENO scheme parameters.">
<polygon fill="white" stroke="#666666" points="284,-846 170,-846 170,-816 284,-816 284,-846"/>
<text text-anchor="start" x="178" y="-834" font-family="Helvetica,sans-Serif" font-size="10.00">m_checker::s_check</text>
<text text-anchor="middle" x="227" y="-823" font-family="Helvetica,sans-Serif" font-size="10.00">_inputs_weno</text>
</a>
</g>
</g>
<!-- Node1&#45;&gt;Node26 -->
<g id="edge32_Node000001_Node000026" class="edge">
<title>Node1&#45;&gt;Node26</title>
<g id="a_edge32_Node000001_Node000026"><a xlink:title=" ">
<path fill="none" stroke="#63b8ff" d="M57.78,-510.12C57.91,-559.92 65.17,-720.53 150,-807 153.19,-810.25 156.82,-813.07 160.73,-815.5"/>
<polygon fill="#63b8ff" stroke="#63b8ff" points="159.17,-818.64 169.64,-820.25 162.45,-812.46 159.17,-818.64"/>
</a>
</g>
</g>
<!-- Node3 -->
<g id="Node000003" class="node">
<title>Node3</title>
<g id="a_Node000003"><a xlink:href="namespacem__helper__basic.html#a3f0eae73a833f30924d4b2665a13a429" target="_top" xlink:title="This procedure checks if two floating point numbers of wp are within tolerance.">
<polygon fill="white" stroke="#666666" points="643,-924 501,-924 501,-894 643,-894 643,-924"/>
<text text-anchor="start" x="509" y="-912" font-family="Helvetica,sans-Serif" font-size="10.00">m_helper_basic::f_approx</text>
<text text-anchor="middle" x="572" y="-901" font-family="Helvetica,sans-Serif" font-size="10.00">_equal</text>
</a>
</g>
</g>
<!-- Node2&#45;&gt;Node3 -->
<g id="edge2_Node000002_Node000003" class="edge">
<title>Node2&#45;&gt;Node3</title>
<g id="a_edge2_Node000002_Node000003"><a xlink:title=" ">
<path fill="none" stroke="#63b8ff" d="M285.94,-992.45C334.83,-995.14 406.07,-994.56 465,-976 495.11,-966.52 525.13,-946.28 545.49,-930.51"/>
<polygon fill="#63b8ff" stroke="#63b8ff" points="547.67,-933.25 553.33,-924.29 543.32,-927.76 547.67,-933.25"/>
</a>
</g>
</g>
<!-- Node4 -->
<g id="Node000004" class="node">
<title>Node4</title>
<g id="a_Node000004"><a xlink:href="namespacem__helper__basic.html#af1b06a05daa43f724ac3b0ff2f97db14" target="_top" xlink:title="Checks if a real(wp) variable is of default value.">
<polygon fill="white" stroke="#666666" points="460.5,-881 344.5,-881 344.5,-851 460.5,-851 460.5,-881"/>
<text text-anchor="start" x="352.5" y="-869" font-family="Helvetica,sans-Serif" font-size="10.00">m_helper_basic::f_is</text>
<text text-anchor="middle" x="402.5" y="-858" font-family="Helvetica,sans-Serif" font-size="10.00">_default</text>
</a>
</g>
</g>
<!-- Node2&#45;&gt;Node4 -->
<g id="edge3_Node000002_Node000004" class="edge">
<title>Node2&#45;&gt;Node4</title>
<g id="a_edge3_Node000002_Node000004"><a xlink:title=" ">
<path fill="none" stroke="#63b8ff" d="M285.85,-974.32C292.41,-971.31 298.65,-967.6 304,-963 331.45,-939.44 313.34,-914.46 340,-890 341.28,-888.83 342.62,-887.71 344.01,-886.65"/>
<polygon fill="#63b8ff" stroke="#63b8ff" points="346.03,-889.51 352.47,-881.1 342.19,-883.66 346.03,-889.51"/>
</a>
</g>
</g>
<!-- Node5 -->
<g id="Node000005" class="node">
<title>Node5</title>
<g id="a_Node000005"><a xlink:href="namespacem__helper__basic.html#a2c677da1905f9b1c52e69ae431bfb70d" target="_top" xlink:title="Checks if a real(wp) variable is an integer.">
<polygon fill="white" stroke="#666666" points="460.5,-967 344.5,-967 344.5,-937 460.5,-937 460.5,-967"/>
<text text-anchor="start" x="352.5" y="-955" font-family="Helvetica,sans-Serif" font-size="10.00">m_helper_basic::f_is</text>
<text text-anchor="middle" x="402.5" y="-944" font-family="Helvetica,sans-Serif" font-size="10.00">_integer</text>
</a>
</g>
</g>
<!-- Node2&#45;&gt;Node5 -->
<g id="edge5_Node000002_Node000005" class="edge">
<title>Node2&#45;&gt;Node5</title>
<g id="a_edge5_Node000002_Node000005"><a xlink:title=" ">
<path fill="none" stroke="#63b8ff" d="M285.77,-975.35C301.37,-972.2 318.37,-968.77 334.42,-965.53"/>
<polygon fill="#63b8ff" stroke="#63b8ff" points="335.16,-968.95 344.27,-963.54 333.78,-962.09 335.16,-968.95"/>
</a>
</g>
</g>
<!-- Node6 -->
<g id="Node000006" class="node">
<title>Node6</title>
<g id="a_Node000006"><a xlink:href="namespacem__helper.html#afd343d70a36c65cb7be86a183aa594ac" target="_top" xlink:title=" ">
<polygon fill="white" stroke="#666666" points="465,-918.5 340,-918.5 340,-899.5 465,-899.5 465,-918.5"/>
<text text-anchor="middle" x="402.5" y="-906.5" font-family="Helvetica,sans-Serif" font-size="10.00">m_helper::s_int_to_str</text>
</a>
</g>
</g>
<!-- Node2&#45;&gt;Node6 -->
<g id="edge7_Node000002_Node000006" class="edge">
<title>Node2&#45;&gt;Node6</title>
<g id="a_edge7_Node000002_Node000006"><a xlink:title=" ">
<path fill="none" stroke="#63b8ff" d="M285.69,-971.96C292.06,-969.38 298.3,-966.41 304,-963 323.16,-951.55 320.81,-939.39 340,-928 343.62,-925.85 347.51,-923.92 351.51,-922.2"/>
<polygon fill="#63b8ff" stroke="#63b8ff" points="352.9,-925.41 360.96,-918.53 350.37,-918.88 352.9,-925.41"/>
</a>
</g>
</g>
<!-- Node4&#45;&gt;Node3 -->
<g id="edge4_Node000004_Node000003" class="edge">
<title>Node4&#45;&gt;Node3</title>
<g id="a_edge4_Node000004_Node000003"><a xlink:title=" ">
<path fill="none" stroke="#63b8ff" d="M460.68,-880.68C474.1,-884.12 488.54,-887.83 502.4,-891.39"/>
<polygon fill="#63b8ff" stroke="#63b8ff" points="501.82,-894.85 512.37,-893.95 503.56,-888.07 501.82,-894.85"/>
</a>
</g>
</g>
<!-- Node5&#45;&gt;Node3 -->
<g id="edge6_Node000005_Node000003" class="edge">
<title>Node5&#45;&gt;Node3</title>
<g id="a_edge6_Node000005_Node000003"><a xlink:title=" ">
<path fill="none" stroke="#63b8ff" d="M460.68,-937.32C474.1,-933.88 488.54,-930.17 502.4,-926.61"/>
<polygon fill="#63b8ff" stroke="#63b8ff" points="503.56,-929.93 512.37,-924.05 501.82,-923.15 503.56,-929.93"/>
</a>
</g>
</g>
<!-- Node9&#45;&gt;Node4 -->
<g id="edge11_Node000009_Node000004" class="edge">
<title>Node9&#45;&gt;Node4</title>
<g id="a_edge11_Node000009_Node000004"><a xlink:title=" ">
<path fill="none" stroke="#63b8ff" d="M281.35,-798.06C289.06,-800.75 296.81,-803.75 304,-807 327.65,-817.71 352.67,-832.94 371.45,-845.24"/>
<polygon fill="#63b8ff" stroke="#63b8ff" points="369.6,-848.22 379.87,-850.84 373.48,-842.39 369.6,-848.22"/>
</a>
</g>
</g>
<!-- Node13&#45;&gt;Node4 -->
<g id="edge16_Node000013_Node000004" class="edge">
<title>Node13&#45;&gt;Node4</title>
<g id="a_edge16_Node000013_Node000004"><a xlink:title=" ">
<path fill="none" stroke="#63b8ff" d="M286.69,-750.03C292.75,-752.6 298.64,-755.57 304,-759 338.51,-781.06 368.6,-818.4 385.91,-842.63"/>
<polygon fill="#63b8ff" stroke="#63b8ff" points="383.09,-844.71 391.69,-850.9 388.83,-840.7 383.09,-844.71"/>
</a>
</g>
</g>
<!-- Node21&#45;&gt;Node6 -->
<g id="edge25_Node000021_Node000006" class="edge">
<title>Node21&#45;&gt;Node6</title>
<g id="a_edge25_Node000021_Node000006"><a xlink:title=" ">
<path fill="none" stroke="#63b8ff" d="M284.33,-929.26C300.96,-926.39 319.29,-923.22 336.42,-920.25"/>
<polygon fill="#63b8ff" stroke="#63b8ff" points="337.08,-923.69 346.34,-918.54 335.89,-916.79 337.08,-923.69"/>
</a>
</g>
</g>
<!-- Node24&#45;&gt;Node4 -->
<g id="edge29_Node000024_Node000004" class="edge">
<title>Node24&#45;&gt;Node4</title>
<g id="a_edge29_Node000024_Node000004"><a xlink:title=" ">
<path fill="none" stroke="#63b8ff" d="M288.19,-878.41C302.99,-876.79 318.92,-875.04 334.03,-873.39"/>
<polygon fill="#63b8ff" stroke="#63b8ff" points="334.77,-876.83 344.33,-872.26 334.01,-869.87 334.77,-876.83"/>
</a>
</g>
</g>
<!-- Node24&#45;&gt;Node6 -->
<g id="edge30_Node000024_Node000006" class="edge">
<title>Node24&#45;&gt;Node6</title>
<g id="a_edge30_Node000024_Node000006"><a xlink:title=" ">
<path fill="none" stroke="#63b8ff" d="M288.19,-893.33C301.66,-895.19 316.07,-897.18 329.95,-899.1"/>
<polygon fill="#63b8ff" stroke="#63b8ff" points="329.55,-902.58 339.94,-900.48 330.51,-895.65 329.55,-902.58"/>
</a>
</g>
</g>
<!-- Node26&#45;&gt;Node3 -->
<g id="edge33_Node000026_Node000003" class="edge">
<title>Node26&#45;&gt;Node3</title>
<g id="a_edge33_Node000026_Node000003"><a xlink:title=" ">
<path fill="none" stroke="#63b8ff" d="M284.48,-825.63C333.4,-822.85 405.48,-823.26 465,-842 495.11,-851.48 525.13,-871.72 545.49,-887.49"/>
<polygon fill="#63b8ff" stroke="#63b8ff" points="543.32,-890.24 553.33,-893.71 547.67,-884.75 543.32,-890.24"/>
</a>
</g>
</g>
<!-- Node26&#45;&gt;Node4 -->
<g id="edge34_Node000026_Node000004" class="edge">
<title>Node26&#45;&gt;Node4</title>
<g id="a_edge34_Node000026_Node000004"><a xlink:title=" ">
<path fill="none" stroke="#63b8ff" d="M284.33,-842.36C300.23,-845.57 317.68,-849.09 334.16,-852.41"/>
<polygon fill="#63b8ff" stroke="#63b8ff" points="333.77,-855.91 344.26,-854.45 335.15,-849.05 333.77,-855.91"/>
</a>
</g>
</g>
<!-- Node26&#45;&gt;Node6 -->
<g id="edge35_Node000026_Node000006" class="edge">
<title>Node26&#45;&gt;Node6</title>
<g id="a_edge35_Node000026_Node000006"><a xlink:title=" ">
<path fill="none" stroke="#63b8ff" d="M284.1,-845.4C291.02,-848.13 297.82,-851.31 304,-855 323.16,-866.45 320.81,-878.61 340,-890 343.62,-892.15 347.51,-894.08 351.51,-895.8"/>
<polygon fill="#63b8ff" stroke="#63b8ff" points="350.37,-899.12 360.96,-899.47 352.9,-892.59 350.37,-899.12"/>
</a>
</g>
</g>
</g>
</svg>

<g id="navigator" transform="translate(0 0)" fill="#404254">
  <rect fill="#f2f5e9" fill-opacity="0.5" stroke="#606060" stroke-width=".5" x="0" y="0" width="60" height="60"/>
  <use id="zoomplus" xlink:href="#zoomPlus" x="17" y="9" onmousedown="handleZoom(evt,'in')"/>
  <use id="zoomminus" xlink:href="#zoomMin" x="42" y="9" onmousedown="handleZoom(evt,'out')"/>
  <use id="reset" xlink:href="#resetDef" x="30" y="36" onmousedown="handleReset()"/>
   <use id="arrowup" xlink:href="#arrowUp" x="0" y="0" onmousedown="handlePan(0,-1)"/>
  <use id="arrowright" xlink:href="#arrowRight" x="0" y="0" onmousedown="handlePan(1,0)"/>
  <use id="arrowdown" xlink:href="#arrowDown" x="0" y="0" onmousedown="handlePan(0,1)"/>
  <use id="arrowleft" xlink:href="#arrowLeft" x="0" y="0" onmousedown="handlePan(-1,0)"/>
</g>
<svg viewBox="0 0 15 15" width="100%" height="30px" preserveAspectRatio="xMaxYMin meet">
 <g id="arrow_out" transform="scale(0.3 0.3)">
  <a xlink:href="namespacem__checker_a214e05cb46bc7c3e0dbe55fdc433c072_cgraph_org.svg" target="_base">
   <rect id="button" ry="5" rx="5" y="6" x="6" height="38" width="38"
        fill="#f2f5e9" fill-opacity="0.5" stroke="#606060" stroke-width="1.0"/>
   <path id="arrow"
     d="M 11.500037,31.436501 C 11.940474,20.09759 22.043105,11.32322 32.158766,21.979434 L 37.068811,17.246167 C 37.068811,17.246167 37.088388,32 37.088388,32 L 22.160133,31.978069 C 22.160133,31.978069 26.997745,27.140456 26.997745,27.140456 C 18.528582,18.264221 13.291696,25.230495 11.500037,31.436501 z"
     style="fill:#404040;"/>
  </a>
 </g>
</svg>

<style type='text/css'>
<![CDATA[
[data-mouse-over-selected='false'] { opacity: 0.7; }
[data-mouse-over-selected='true']  { opacity: 1.0; }
]]>
</style>
<script type="application/ecmascript"><![CDATA[
document.addEventListener('DOMContentLoaded', (event) => {
  highlightEdges();
  highlightAdjacentNodes();
});
]]></script>
</svg>
