<?xml version="1.0" encoding="UTF-8" standalone="no"?>
<!DOCTYPE svg PUBLIC "-//W3C//DTD SVG 1.1//EN"
 "http://www.w3.org/Graphics/SVG/1.1/DTD/svg11.dtd">
<!-- Generated by graphviz version 2.43.0 (0)
 -->
<!-- Title: m_riemann_solvers::s_lf_riemann_solver Pages: 1 -->
<svg width="372pt" height="253pt"
 viewBox="0.00 0.00 372.00 252.50" xmlns="http://www.w3.org/2000/svg" xmlns:xlink="http://www.w3.org/1999/xlink">
<g id="graph0" class="graph" transform="scale(1 1) rotate(0) translate(4 248.5)">
<title>m_riemann_solvers::s_lf_riemann_solver</title>
<!-- Node1 -->
<g id="Node000001" class="node">
<title>Node1</title>
<g id="a_Node000001"><a xlink:title=" ">
<polygon fill="#999999" stroke="#666666" points="119,-148.5 0,-148.5 0,-118.5 119,-118.5 119,-148.5"/>
<text text-anchor="start" x="8" y="-136.5" font-family="Helvetica,sans-Serif" font-size="10.00">m_riemann_solvers::</text>
<text text-anchor="middle" x="59.5" y="-125.5" font-family="Helvetica,sans-Serif" font-size="10.00">s_lf_riemann_solver</text>
</a>
</g>
</g>
<!-- Node2 -->
<g id="Node000002" class="node">
<title>Node2</title>
<g id="a_Node000002"><a xlink:href="namespacem__variables__conversion.html#a0c590a386e0e8b8fe3caef6c509d7694" target="_top" xlink:title=" ">
<polygon fill="white" stroke="#666666" points="364,-244.5 155,-244.5 155,-214.5 364,-214.5 364,-244.5"/>
<text text-anchor="start" x="163" y="-232.5" font-family="Helvetica,sans-Serif" font-size="10.00">m_variables_conversion</text>
<text text-anchor="middle" x="259.5" y="-221.5" font-family="Helvetica,sans-Serif" font-size="10.00">::s_compute_fast_magnetosonic_speed</text>
</a>
</g>
</g>
<!-- Node1&#45;&gt;Node2 -->
<g id="edge1_Node000001_Node000002" class="edge">
<title>Node1&#45;&gt;Node2</title>
<g id="a_edge1_Node000001_Node000002"><a xlink:title=" ">
<path fill="none" stroke="#63b8ff" d="M75.84,-148.54C93.48,-164.98 124.01,-190.93 155,-205.5 159.36,-207.55 163.91,-209.43 168.56,-211.16"/>
<polygon fill="#63b8ff" stroke="#63b8ff" points="167.64,-214.54 178.23,-214.49 169.92,-207.92 167.64,-214.54"/>
</a>
</g>
</g>
<!-- Node3 -->
<g id="Node000003" class="node">
<title>Node3</title>
<g id="a_Node000003"><a xlink:href="namespacem__variables__conversion.html#a60ddc6ed73bfdd209a70ceda211e2cf7" target="_top" xlink:title=" ">
<polygon fill="white" stroke="#666666" points="339.5,-196.5 179.5,-196.5 179.5,-166.5 339.5,-166.5 339.5,-196.5"/>
<text text-anchor="start" x="187.5" y="-184.5" font-family="Helvetica,sans-Serif" font-size="10.00">m_variables_conversion</text>
<text text-anchor="middle" x="259.5" y="-173.5" font-family="Helvetica,sans-Serif" font-size="10.00">::s_compute_speed_of_sound</text>
</a>
</g>
</g>
<!-- Node1&#45;&gt;Node3 -->
<g id="edge2_Node000001_Node000003" class="edge">
<title>Node1&#45;&gt;Node3</title>
<g id="a_edge2_Node000001_Node000003"><a xlink:title=" ">
<path fill="none" stroke="#63b8ff" d="M118.93,-148.54C130.85,-151.55 143.32,-154.66 155,-157.5 164.05,-159.7 173.55,-161.96 182.97,-164.18"/>
<polygon fill="#63b8ff" stroke="#63b8ff" points="182.21,-167.6 192.75,-166.47 183.81,-160.78 182.21,-167.6"/>
</a>
</g>
</g>
<!-- Node4 -->
<g id="Node000004" class="node">
<title>Node4</title>
<g id="a_Node000004"><a xlink:href="namespacem__riemann__solvers.html#a795bb7ed2c04ff8eed86a12927018b2c" target="_top" xlink:title="Deallocation and/or disassociation procedures that are needed to finalize the selected Riemann proble...">
<polygon fill="white" stroke="#666666" points="331,-148.5 188,-148.5 188,-118.5 331,-118.5 331,-148.5"/>
<text text-anchor="start" x="196" y="-136.5" font-family="Helvetica,sans-Serif" font-size="10.00">m_riemann_solvers::</text>
<text text-anchor="middle" x="259.5" y="-125.5" font-family="Helvetica,sans-Serif" font-size="10.00">s_finalize_riemann_solver</text>
</a>
</g>
</g>
<!-- Node1&#45;&gt;Node4 -->
<g id="edge3_Node000001_Node000004" class="edge">
<title>Node1&#45;&gt;Node4</title>
<g id="a_edge3_Node000001_Node000004"><a xlink:title=" ">
<path fill="none" stroke="#63b8ff" d="M119.1,-133.5C137.46,-133.5 158.05,-133.5 177.65,-133.5"/>
<polygon fill="#63b8ff" stroke="#63b8ff" points="177.8,-137 187.8,-133.5 177.8,-130 177.8,-137"/>
</a>
</g>
</g>
<!-- Node5 -->
<g id="Node000005" class="node">
<title>Node5</title>
<g id="a_Node000005"><a xlink:href="namespacem__riemann__solvers.html#a99ceccfbf2d02b81c21cddbe156af054" target="_top" xlink:title="The computation of parameters, the allocation of memory, the association of pointers and/or the execu...">
<polygon fill="white" stroke="#666666" points="319,-100 200,-100 200,-59 319,-59 319,-100"/>
<text text-anchor="start" x="208" y="-88" font-family="Helvetica,sans-Serif" font-size="10.00">m_riemann_solvers::</text>
<text text-anchor="start" x="208" y="-77" font-family="Helvetica,sans-Serif" font-size="10.00">s_initialize_riemann</text>
<text text-anchor="middle" x="259.5" y="-66" font-family="Helvetica,sans-Serif" font-size="10.00">_solver</text>
</a>
</g>
</g>
<!-- Node1&#45;&gt;Node5 -->
<g id="edge4_Node000001_Node000005" class="edge">
<title>Node1&#45;&gt;Node5</title>
<g id="a_edge4_Node000001_Node000005"><a xlink:title=" ">
<path fill="none" stroke="#63b8ff" d="M115.65,-118.46C138.68,-112.18 165.68,-104.81 189.97,-98.19"/>
<polygon fill="#63b8ff" stroke="#63b8ff" points="191.11,-101.51 199.84,-95.5 189.27,-94.75 191.11,-101.51"/>
</a>
</g>
</g>
<!-- Node6 -->
<g id="Node000006" class="node">
<title>Node6</title>
<g id="a_Node000006"><a xlink:href="namespacem__riemann__solvers.html#a44904d3bd77a85446482eacbe696bac3" target="_top" xlink:title="The purpose of this subroutine is to populate the buffers of the left and right Riemann states variab...">
<polygon fill="white" stroke="#666666" points="335,-41 184,-41 184,0 335,0 335,-41"/>
<text text-anchor="start" x="192" y="-29" font-family="Helvetica,sans-Serif" font-size="10.00">m_riemann_solvers::</text>
<text text-anchor="start" x="192" y="-18" font-family="Helvetica,sans-Serif" font-size="10.00">s_populate_riemann_states</text>
<text text-anchor="middle" x="259.5" y="-7" font-family="Helvetica,sans-Serif" font-size="10.00">_variables_buffers</text>
</a>
</g>
</g>
<!-- Node1&#45;&gt;Node6 -->
<g id="edge5_Node000001_Node000006" class="edge">
<title>Node1&#45;&gt;Node6</title>
<g id="a_edge5_Node000001_Node000006"><a xlink:title=" ">
<path fill="none" stroke="#63b8ff" d="M73.71,-118.39C90.73,-99.81 122.07,-68.55 155,-50.5 161.06,-47.18 167.53,-44.19 174.16,-41.51"/>
<polygon fill="#63b8ff" stroke="#63b8ff" points="175.85,-44.61 183.97,-37.79 173.38,-38.06 175.85,-44.61"/>
</a>
</g>
</g>
</g>
</svg>
