<?xml version="1.0" encoding="UTF-8" standalone="no"?>
<!DOCTYPE svg PUBLIC "-//W3C//DTD SVG 1.1//EN"
 "http://www.w3.org/Graphics/SVG/1.1/DTD/svg11.dtd">
<!-- Generated by graphviz version 2.43.0 (0)
 -->
<!-- Title: m_ibm::s_update_mib Pages: 1 -->
<svg width="346pt" height="230pt"
 viewBox="0.00 0.00 346.00 230.00" xmlns="http://www.w3.org/2000/svg" xmlns:xlink="http://www.w3.org/1999/xlink">

<svg id="main" version="1.1" xmlns="http://www.w3.org/2000/svg" xmlns:xlink="http://www.w3.org/1999/xlink" xml:space="preserve">

<style type="text/css"><![CDATA[
.node, .edge {opacity: 0.7;}
.node.selected, .edge.selected {opacity: 1;}
.edge:hover path { stroke: red; }
.edge:hover polygon { stroke: red; fill: red; }
]]></style>
<script type="application/ecmascript" xlink:href="svg.min.js"/>
<svg id="graph" class="graph">
<g id="graph0" class="graph" transform="scale(1 1) rotate(0) translate(4 226)">
<title>m_ibm::s_update_mib</title>
<!-- Node1 -->
<g id="Node000001" class="node">
<title>Node1</title>
<g id="a_Node000001"><a xlink:title="Resets the current indexes of immersed boundaries and replaces them after updating the position of ea...">
<polygon fill="#999999" stroke="#666666" points="125,-120.5 0,-120.5 0,-101.5 125,-101.5 125,-120.5"/>
<text text-anchor="middle" x="62.5" y="-108.5" font-family="Helvetica,sans-Serif" font-size="10.00">m_ibm::s_update_mib</text>
</a>
</g>
</g>
<!-- Node2 -->
<g id="Node000002" class="node">
<title>Node2</title>
<g id="a_Node000002"><a xlink:href="namespacem__ibm.html#ab7a568a7c20d763f353f319f4fa5beba" target="_top" xlink:title="Function that computes the image points for each ghost point.">
<polygon fill="white" stroke="#666666" points="322.5,-222 176.5,-222 176.5,-192 322.5,-192 322.5,-222"/>
<text text-anchor="start" x="184.5" y="-210" font-family="Helvetica,sans-Serif" font-size="10.00">m_ibm::s_compute_image</text>
<text text-anchor="middle" x="249.5" y="-199" font-family="Helvetica,sans-Serif" font-size="10.00">_points</text>
</a>
</g>
</g>
<!-- Node1&#45;&gt;Node2 -->
<g id="edge1_Node000001_Node000002" class="edge">
<title>Node1&#45;&gt;Node2</title>
<g id="a_edge1_Node000001_Node000002"><a xlink:title=" ">
<path fill="none" stroke="#63b8ff" d="M73.76,-120.62C90.66,-135.97 125.98,-166 161,-183 165.01,-184.95 169.21,-186.76 173.5,-188.44"/>
<polygon fill="#63b8ff" stroke="#63b8ff" points="172.42,-191.77 183.01,-191.91 174.82,-185.19 172.42,-191.77"/>
</a>
</g>
</g>
<!-- Node3 -->
<g id="Node000003" class="node">
<title>Node3</title>
<g id="a_Node000003"><a xlink:href="namespacem__ibm.html#a2f678e57ffbd9f2e83e9d6eeb0be871e" target="_top" xlink:title="Function that computes the interpolation coefficients of image points.">
<polygon fill="white" stroke="#666666" points="338,-174 161,-174 161,-144 338,-144 338,-174"/>
<text text-anchor="start" x="169" y="-162" font-family="Helvetica,sans-Serif" font-size="10.00">m_ibm::s_compute_interpolation</text>
<text text-anchor="middle" x="249.5" y="-151" font-family="Helvetica,sans-Serif" font-size="10.00">_coeffs</text>
</a>
</g>
</g>
<!-- Node1&#45;&gt;Node3 -->
<g id="edge2_Node000001_Node000003" class="edge">
<title>Node1&#45;&gt;Node3</title>
<g id="a_edge2_Node000001_Node000003"><a xlink:title=" ">
<path fill="none" stroke="#63b8ff" d="M100.49,-120.6C123.41,-126.54 153.53,-134.36 180.62,-141.39"/>
<polygon fill="#63b8ff" stroke="#63b8ff" points="179.89,-144.81 190.44,-143.94 181.64,-138.04 179.89,-144.81"/>
</a>
</g>
</g>
<!-- Node4 -->
<g id="Node000004" class="node">
<title>Node4</title>
<g id="a_Node000004"><a xlink:href="namespacem__ibm.html#a07a2684834c77cdbad742523f3e9595e" target="_top" xlink:title="Function that finds the ghost points.">
<polygon fill="white" stroke="#666666" points="308,-126 191,-126 191,-96 308,-96 308,-126"/>
<text text-anchor="start" x="199" y="-114" font-family="Helvetica,sans-Serif" font-size="10.00">m_ibm::s_find_ghost</text>
<text text-anchor="middle" x="249.5" y="-103" font-family="Helvetica,sans-Serif" font-size="10.00">_points</text>
</a>
</g>
</g>
<!-- Node1&#45;&gt;Node4 -->
<g id="edge3_Node000001_Node000004" class="edge">
<title>Node1&#45;&gt;Node4</title>
<g id="a_edge3_Node000001_Node000004"><a xlink:title=" ">
<path fill="none" stroke="#63b8ff" d="M125.1,-111C142.93,-111 162.5,-111 180.69,-111"/>
<polygon fill="#63b8ff" stroke="#63b8ff" points="180.92,-114.5 190.92,-111 180.92,-107.5 180.92,-114.5"/>
</a>
</g>
</g>
<!-- Node5 -->
<g id="Node000005" class="node">
<title>Node5</title>
<g id="a_Node000005"><a xlink:href="namespacem__ibm.html#ae2e4e865df2b419bad364c0126009c28" target="_top" xlink:title="Function that finds the number of ghost points, used for allocating memory.">
<polygon fill="white" stroke="#666666" points="321.5,-78 177.5,-78 177.5,-48 321.5,-48 321.5,-78"/>
<text text-anchor="start" x="185.5" y="-66" font-family="Helvetica,sans-Serif" font-size="10.00">m_ibm::s_find_num_ghost</text>
<text text-anchor="middle" x="249.5" y="-55" font-family="Helvetica,sans-Serif" font-size="10.00">_points</text>
</a>
</g>
</g>
<!-- Node1&#45;&gt;Node5 -->
<g id="edge4_Node000001_Node000005" class="edge">
<title>Node1&#45;&gt;Node5</title>
<g id="a_edge4_Node000001_Node000005"><a xlink:title=" ">
<path fill="none" stroke="#63b8ff" d="M100.49,-101.4C123.41,-95.46 153.53,-87.64 180.62,-80.61"/>
<polygon fill="#63b8ff" stroke="#63b8ff" points="181.64,-83.96 190.44,-78.06 179.89,-77.19 181.64,-83.96"/>
</a>
</g>
</g>
<!-- Node6 -->
<g id="Node000006" class="node">
<title>Node6</title>
<g id="a_Node000006"><a xlink:href="namespacem__ibm.html#a38f37eda1ee706319633cd6aa3b7c613" target="_top" xlink:title=" ">
<polygon fill="white" stroke="#666666" points="311.5,-30 187.5,-30 187.5,0 311.5,0 311.5,-30"/>
<text text-anchor="start" x="195.5" y="-18" font-family="Helvetica,sans-Serif" font-size="10.00">m_ibm::s_populate_ib</text>
<text text-anchor="middle" x="249.5" y="-7" font-family="Helvetica,sans-Serif" font-size="10.00">_buffers</text>
</a>
</g>
</g>
<!-- Node1&#45;&gt;Node6 -->
<g id="edge5_Node000001_Node000006" class="edge">
<title>Node1&#45;&gt;Node6</title>
<g id="a_edge5_Node000001_Node000006"><a xlink:title=" ">
<path fill="none" stroke="#63b8ff" d="M73.76,-101.38C90.66,-86.03 125.98,-56 161,-39 166.27,-36.44 171.85,-34.12 177.54,-32.03"/>
<polygon fill="#63b8ff" stroke="#63b8ff" points="178.87,-35.27 187.19,-28.7 176.59,-28.65 178.87,-35.27"/>
</a>
</g>
</g>
</g>
</svg>
</svg>

<style type='text/css'>
<![CDATA[
[data-mouse-over-selected='false'] { opacity: 0.7; }
[data-mouse-over-selected='true']  { opacity: 1.0; }
]]>
</style>
<script type="application/ecmascript"><![CDATA[
document.addEventListener('DOMContentLoaded', (event) => {
  highlightEdges();
  highlightAdjacentNodes();
});
]]></script>
</svg>
