<?xml version="1.0" encoding="UTF-8" standalone="no"?>
<!DOCTYPE svg PUBLIC "-//W3C//DTD SVG 1.1//EN"
 "http://www.w3.org/Graphics/SVG/1.1/DTD/svg11.dtd">
<!-- Generated by graphviz version 2.43.0 (0)
 -->
<!-- Title: m_helper::s_transform_model Pages: 1 -->
<svg width="483pt" height="38pt"
 viewBox="0.00 0.00 483.00 38.00" xmlns="http://www.w3.org/2000/svg" xmlns:xlink="http://www.w3.org/1999/xlink">
<g id="graph0" class="graph" transform="scale(1 1) rotate(0) translate(4 34)">
<title>m_helper::s_transform_model</title>
<!-- Node1 -->
<g id="Node000001" class="node">
<title>Node1</title>
<g id="a_Node000001"><a xlink:title="This procedure transforms a model by a matrix, one triangle at a time.">
<polygon fill="#999999" stroke="#666666" points="127,-30 0,-30 0,0 127,0 127,-30"/>
<text text-anchor="start" x="8" y="-18" font-family="Helvetica,sans-Serif" font-size="10.00">m_helper::s_transform</text>
<text text-anchor="middle" x="63.5" y="-7" font-family="Helvetica,sans-Serif" font-size="10.00">_model</text>
</a>
</g>
</g>
<!-- Node2 -->
<g id="Node000002" class="node">
<title>Node2</title>
<g id="a_Node000002"><a xlink:href="namespacem__helper.html#a317af8bbc62f56bc24ae3941ff125fc6" target="_top" xlink:title="This procedure transforms a triangle by a matrix, one vertex at a time.">
<polygon fill="white" stroke="#666666" points="290,-30 163,-30 163,0 290,0 290,-30"/>
<text text-anchor="start" x="171" y="-18" font-family="Helvetica,sans-Serif" font-size="10.00">m_helper::s_transform</text>
<text text-anchor="middle" x="226.5" y="-7" font-family="Helvetica,sans-Serif" font-size="10.00">_triangle</text>
</a>
</g>
</g>
<!-- Node1&#45;&gt;Node2 -->
<g id="edge1_Node000001_Node000002" class="edge">
<title>Node1&#45;&gt;Node2</title>
<g id="a_edge1_Node000001_Node000002"><a xlink:title=" ">
<path fill="none" stroke="#63b8ff" d="M127.21,-15C135.65,-15 144.36,-15 152.96,-15"/>
<polygon fill="#63b8ff" stroke="#63b8ff" points="152.96,-18.5 162.96,-15 152.96,-11.5 152.96,-18.5"/>
</a>
</g>
</g>
<!-- Node3 -->
<g id="Node000003" class="node">
<title>Node3</title>
<g id="a_Node000003"><a xlink:href="namespacem__helper.html#aaf3625a84b565de240a92e1fd8659701" target="_top" xlink:title="This procedure transforms a vector by a matrix.">
<polygon fill="white" stroke="#666666" points="475,-24.5 326,-24.5 326,-5.5 475,-5.5 475,-24.5"/>
<text text-anchor="middle" x="400.5" y="-12.5" font-family="Helvetica,sans-Serif" font-size="10.00">m_helper::s_transform_vec</text>
</a>
</g>
</g>
<!-- Node2&#45;&gt;Node3 -->
<g id="edge2_Node000002_Node000003" class="edge">
<title>Node2&#45;&gt;Node3</title>
<g id="a_edge2_Node000002_Node000003"><a xlink:title=" ">
<path fill="none" stroke="#63b8ff" d="M290.08,-15C298.44,-15 307.11,-15 315.75,-15"/>
<polygon fill="#63b8ff" stroke="#63b8ff" points="315.86,-18.5 325.86,-15 315.86,-11.5 315.86,-18.5"/>
</a>
</g>
</g>
</g>
</svg>
