<?xml version="1.0" encoding="UTF-8" standalone="no"?>
<!DOCTYPE svg PUBLIC "-//W3C//DTD SVG 1.1//EN"
 "http://www.w3.org/Graphics/SVG/1.1/DTD/svg11.dtd">
<!-- Generated by graphviz version 2.43.0 (0)
 -->
<!-- Title: m_bubbles::f_rddot Pages: 1 -->
<svg width="615pt" height="485pt"
 viewBox="0.00 0.00 615.00 485.00" xmlns="http://www.w3.org/2000/svg" xmlns:xlink="http://www.w3.org/1999/xlink">
<g id="graph0" class="graph" transform="scale(1 1) rotate(0) translate(4 481)">
<title>m_bubbles::f_rddot</title>
<!-- Node1 -->
<g id="Node000001" class="node">
<title>Node1</title>
<g id="a_Node000001"><a xlink:title="Function that computes the bubble radial acceleration based on bubble models.">
<polygon fill="#999999" stroke="#666666" points="110,-239 0,-239 0,-220 110,-220 110,-239"/>
<text text-anchor="middle" x="55" y="-227" font-family="Helvetica,sans-Serif" font-size="10.00">m_bubbles::f_rddot</text>
</a>
</g>
</g>
<!-- Node1&#45;&gt;Node1 -->
<g id="edge15_Node000001_Node000001" class="edge">
<title>Node1&#45;&gt;Node1</title>
<g id="a_edge15_Node000001_Node000001"><a xlink:title=" ">
<path fill="none" stroke="#63b8ff" d="M30.96,-239.08C19.26,-247.73 27.27,-257 55,-257 73.2,-257 82.9,-253.01 84.12,-247.82"/>
<polygon fill="#63b8ff" stroke="#63b8ff" points="87.09,-245.97 79.04,-239.08 81.04,-249.49 87.09,-245.97"/>
</a>
</g>
</g>
<!-- Node2 -->
<g id="Node000002" class="node">
<title>Node2</title>
<g id="a_Node000002"><a xlink:href="namespacem__bubbles.html#a53e6e39d716a7ca3343e7fc4d0374786" target="_top" xlink:title="Function that computes the sound speed for the bubble.">
<polygon fill="white" stroke="#666666" points="265,-459 158,-459 158,-440 265,-440 265,-459"/>
<text text-anchor="middle" x="211.5" y="-447" font-family="Helvetica,sans-Serif" font-size="10.00">m_bubbles::f_cgas</text>
</a>
</g>
</g>
<!-- Node1&#45;&gt;Node2 -->
<g id="edge1_Node000001_Node000002" class="edge">
<title>Node1&#45;&gt;Node2</title>
<g id="a_edge1_Node000001_Node000002"><a xlink:title=" ">
<path fill="none" stroke="#63b8ff" d="M57.38,-239.23C62.5,-271.75 83.5,-377.58 146,-431.5 147.36,-432.67 148.79,-433.77 150.28,-434.8"/>
<polygon fill="#63b8ff" stroke="#63b8ff" points="148.92,-438.05 159.35,-439.94 152.38,-431.96 148.92,-438.05"/>
</a>
</g>
</g>
<!-- Node3 -->
<g id="Node000003" class="node">
<title>Node3</title>
<g id="a_Node000003"><a xlink:href="namespacem__bubbles.html#a4fc09a55ce6ae29cd54ca2063c0b0276" target="_top" xlink:title="Function that computes that bubble wall pressure for Gilmore bubbles.">
<polygon fill="white" stroke="#666666" points="266.5,-404 156.5,-404 156.5,-385 266.5,-385 266.5,-404"/>
<text text-anchor="middle" x="211.5" y="-392" font-family="Helvetica,sans-Serif" font-size="10.00">m_bubbles::f_cpbw</text>
</a>
</g>
</g>
<!-- Node1&#45;&gt;Node3 -->
<g id="edge3_Node000001_Node000003" class="edge">
<title>Node1&#45;&gt;Node3</title>
<g id="a_edge3_Node000001_Node000003"><a xlink:title=" ">
<path fill="none" stroke="#63b8ff" d="M59.07,-239.11C67.96,-265.39 96.33,-338.99 146,-376.5 147.85,-377.89 149.8,-379.18 151.82,-380.37"/>
<polygon fill="#63b8ff" stroke="#63b8ff" points="150.59,-383.66 161.1,-384.96 153.69,-377.39 150.59,-383.66"/>
</a>
</g>
</g>
<!-- Node4 -->
<g id="Node000004" class="node">
<title>Node4</title>
<g id="a_Node000004"><a xlink:href="namespacem__bubbles.html#ac1068c3570e6fe9ee995e53786e0b9a6" target="_top" xlink:title="Function that computes the bubble wall pressure for Keller–Miksis bubbles.">
<polygon fill="white" stroke="#666666" points="277,-349 146,-349 146,-330 277,-330 277,-349"/>
<text text-anchor="middle" x="211.5" y="-337" font-family="Helvetica,sans-Serif" font-size="10.00">m_bubbles::f_cpbw_km</text>
</a>
</g>
</g>
<!-- Node1&#45;&gt;Node4 -->
<g id="edge5_Node000001_Node000004" class="edge">
<title>Node1&#45;&gt;Node4</title>
<g id="a_edge5_Node000001_Node000004"><a xlink:title=" ">
<path fill="none" stroke="#63b8ff" d="M62.72,-239.19C76.24,-257.97 108.69,-299.43 146,-321.5 148.85,-323.19 151.87,-324.72 154.98,-326.12"/>
<polygon fill="#63b8ff" stroke="#63b8ff" points="153.92,-329.46 164.51,-329.9 156.5,-322.96 153.92,-329.46"/>
</a>
</g>
</g>
<!-- Node7 -->
<g id="Node000007" class="node">
<title>Node7</title>
<g id="a_Node000007"><a xlink:href="namespacem__bubbles.html#af06491fe4291e4bb671d649b59345308" target="_top" xlink:title="Function that computes the time derivative of the driving pressure.">
<polygon fill="white" stroke="#666666" points="274,-294 149,-294 149,-275 274,-275 274,-294"/>
<text text-anchor="middle" x="211.5" y="-282" font-family="Helvetica,sans-Serif" font-size="10.00">m_bubbles::f_cpinfdot</text>
</a>
</g>
</g>
<!-- Node1&#45;&gt;Node7 -->
<g id="edge9_Node000001_Node000007" class="edge">
<title>Node1&#45;&gt;Node7</title>
<g id="a_edge9_Node000001_Node000007"><a xlink:title=" ">
<path fill="none" stroke="#63b8ff" d="M77.19,-239.04C95.26,-246.98 122.04,-258.26 146,-266.5 151.63,-268.44 157.6,-270.32 163.53,-272.09"/>
<polygon fill="#63b8ff" stroke="#63b8ff" points="162.85,-275.54 173.43,-274.96 164.8,-268.82 162.85,-275.54"/>
</a>
</g>
</g>
<!-- Node8 -->
<g id="Node000008" class="node">
<title>Node8</title>
<g id="a_Node000008"><a xlink:href="namespacem__bubbles.html#a38ad5dd1503f3d854b1c23b9675e5d83" target="_top" xlink:title="Function that computes the bubble enthalpy.">
<polygon fill="white" stroke="#666666" points="257,-239 166,-239 166,-220 257,-220 257,-239"/>
<text text-anchor="middle" x="211.5" y="-227" font-family="Helvetica,sans-Serif" font-size="10.00">m_bubbles::f_h</text>
</a>
</g>
</g>
<!-- Node1&#45;&gt;Node8 -->
<g id="edge11_Node000001_Node000008" class="edge">
<title>Node1&#45;&gt;Node8</title>
<g id="a_edge11_Node000001_Node000008"><a xlink:title=" ">
<path fill="none" stroke="#63b8ff" d="M110.04,-229.5C124.88,-229.5 140.99,-229.5 155.87,-229.5"/>
<polygon fill="#63b8ff" stroke="#63b8ff" points="155.95,-233 165.95,-229.5 155.95,-226 155.95,-233"/>
</a>
</g>
</g>
<!-- Node9 -->
<g id="Node000009" class="node">
<title>Node9</title>
<g id="a_Node000009"><a xlink:href="namespacem__bubbles.html#ab0b3749626a898721261bb1973f43398" target="_top" xlink:title="Function that computes the time derivative of the enthalpy.">
<polygon fill="white" stroke="#666666" points="265,-184 158,-184 158,-165 265,-165 265,-184"/>
<text text-anchor="middle" x="211.5" y="-172" font-family="Helvetica,sans-Serif" font-size="10.00">m_bubbles::f_hdot</text>
</a>
</g>
</g>
<!-- Node1&#45;&gt;Node9 -->
<g id="edge13_Node000001_Node000009" class="edge">
<title>Node1&#45;&gt;Node9</title>
<g id="a_edge13_Node000001_Node000009"><a xlink:title=" ">
<path fill="none" stroke="#63b8ff" d="M82.91,-219.92C108.2,-210.92 146.24,-197.38 174.2,-187.42"/>
<polygon fill="#63b8ff" stroke="#63b8ff" points="175.39,-190.71 183.64,-184.06 173.04,-184.12 175.39,-190.71"/>
</a>
</g>
</g>
<!-- Node10 -->
<g id="Node000010" class="node">
<title>Node10</title>
<g id="a_Node000010"><a xlink:href="namespacem__bubbles.html#a0ef55948f88c7f013effeb81614675cd" target="_top" xlink:title="Function that computes the bubble radial acceleration.">
<polygon fill="white" stroke="#666666" points="272.5,-129 150.5,-129 150.5,-110 272.5,-110 272.5,-129"/>
<text text-anchor="middle" x="211.5" y="-117" font-family="Helvetica,sans-Serif" font-size="10.00">m_bubbles::f_rddot_g</text>
</a>
</g>
</g>
<!-- Node1&#45;&gt;Node10 -->
<g id="edge16_Node000001_Node000010" class="edge">
<title>Node1&#45;&gt;Node10</title>
<g id="a_edge16_Node000001_Node000010"><a xlink:title=" ">
<path fill="none" stroke="#63b8ff" d="M66.64,-219.92C83.05,-205.37 115.8,-177.21 146,-156.5 157.76,-148.43 171.38,-140.44 183.07,-133.96"/>
<polygon fill="#63b8ff" stroke="#63b8ff" points="184.85,-136.97 191.95,-129.11 181.5,-130.83 184.85,-136.97"/>
</a>
</g>
</g>
<!-- Node11 -->
<g id="Node000011" class="node">
<title>Node11</title>
<g id="a_Node000011"><a xlink:href="namespacem__bubbles.html#a478bd3280dc598dba9894451cdb3c73c" target="_top" xlink:title="Function that computes the bubble radial acceleration for Keller–Miksis bubbles.">
<polygon fill="white" stroke="#666666" points="277,-74 146,-74 146,-55 277,-55 277,-74"/>
<text text-anchor="middle" x="211.5" y="-62" font-family="Helvetica,sans-Serif" font-size="10.00">m_bubbles::f_rddot_km</text>
</a>
</g>
</g>
<!-- Node1&#45;&gt;Node11 -->
<g id="edge18_Node000001_Node000011" class="edge">
<title>Node1&#45;&gt;Node11</title>
<g id="a_edge18_Node000001_Node000011"><a xlink:title=" ">
<path fill="none" stroke="#63b8ff" d="M60.91,-219.75C72.86,-196.79 105.45,-138.48 146,-101.5 155.84,-92.53 168.21,-84.78 179.49,-78.73"/>
<polygon fill="#63b8ff" stroke="#63b8ff" points="181.32,-81.72 188.62,-74.05 178.13,-75.49 181.32,-81.72"/>
</a>
</g>
</g>
<!-- Node12 -->
<g id="Node000012" class="node">
<title>Node12</title>
<g id="a_Node000012"><a xlink:href="namespacem__bubbles.html#ae8ed6ca836ab2dc31d3038587bc56d18" target="_top" xlink:title="Function that computes the bubble radial acceleration for Rayleigh&#45;Plesset bubbles.">
<polygon fill="white" stroke="#666666" points="274,-19 149,-19 149,0 274,0 274,-19"/>
<text text-anchor="middle" x="211.5" y="-7" font-family="Helvetica,sans-Serif" font-size="10.00">m_bubbles::f_rddot_rp</text>
</a>
</g>
</g>
<!-- Node1&#45;&gt;Node12 -->
<g id="edge21_Node000001_Node000012" class="edge">
<title>Node1&#45;&gt;Node12</title>
<g id="a_edge21_Node000001_Node000012"><a xlink:title=" ">
<path fill="none" stroke="#63b8ff" d="M58.51,-219.99C66.63,-190.82 94.64,-101.24 146,-46.5 154.76,-37.16 166.42,-29.5 177.42,-23.62"/>
<polygon fill="#63b8ff" stroke="#63b8ff" points="179.05,-26.72 186.42,-19.11 175.91,-20.46 179.05,-26.72"/>
</a>
</g>
</g>
<!-- Node2&#45;&gt;Node2 -->
<g id="edge2_Node000002_Node000002" class="edge">
<title>Node2&#45;&gt;Node2</title>
<g id="a_edge2_Node000002_Node000002"><a xlink:title=" ">
<path fill="none" stroke="#63b8ff" d="M187.46,-459.08C175.76,-467.73 183.77,-477 211.5,-477 229.7,-477 239.4,-473.01 240.62,-467.82"/>
<polygon fill="#63b8ff" stroke="#63b8ff" points="243.59,-465.97 235.54,-459.08 237.54,-469.49 243.59,-465.97"/>
</a>
</g>
</g>
<!-- Node3&#45;&gt;Node3 -->
<g id="edge4_Node000003_Node000003" class="edge">
<title>Node3&#45;&gt;Node3</title>
<g id="a_edge4_Node000003_Node000003"><a xlink:title=" ">
<path fill="none" stroke="#63b8ff" d="M187.46,-404.08C175.76,-412.73 183.77,-422 211.5,-422 229.7,-422 239.4,-418.01 240.62,-412.82"/>
<polygon fill="#63b8ff" stroke="#63b8ff" points="243.59,-410.97 235.54,-404.08 237.54,-414.49 243.59,-410.97"/>
</a>
</g>
</g>
<!-- Node4&#45;&gt;Node4 -->
<g id="edge6_Node000004_Node000004" class="edge">
<title>Node4&#45;&gt;Node4</title>
<g id="a_edge6_Node000004_Node000004"><a xlink:title=" ">
<path fill="none" stroke="#63b8ff" d="M187.46,-349.08C175.76,-357.73 183.77,-367 211.5,-367 229.7,-367 239.4,-363.01 240.62,-357.82"/>
<polygon fill="#63b8ff" stroke="#63b8ff" points="243.59,-355.97 235.54,-349.08 237.54,-359.49 243.59,-355.97"/>
</a>
</g>
</g>
<!-- Node5 -->
<g id="Node000005" class="node">
<title>Node5</title>
<g id="a_Node000005"><a xlink:href="namespacem__helper__basic.html#a345e205ced0b0674a22f59a2c1549eb4" target="_top" xlink:title="Checks if a real(wp) variable is of default value.">
<polygon fill="white" stroke="#666666" points="429,-216.5 313,-216.5 313,-186.5 429,-186.5 429,-216.5"/>
<text text-anchor="start" x="321" y="-204.5" font-family="Helvetica,sans-Serif" font-size="10.00">m_helper_basic::f_is</text>
<text text-anchor="middle" x="371" y="-193.5" font-family="Helvetica,sans-Serif" font-size="10.00">_default</text>
</a>
</g>
</g>
<!-- Node4&#45;&gt;Node5 -->
<g id="edge7_Node000004_Node000005" class="edge">
<title>Node4&#45;&gt;Node5</title>
<g id="a_edge7_Node000004_Node000005"><a xlink:title=" ">
<path fill="none" stroke="#63b8ff" d="M260.2,-329.98C266.13,-327.72 271.89,-324.94 277,-321.5 313.79,-296.77 342.38,-252.75 357.66,-225.45"/>
<polygon fill="#63b8ff" stroke="#63b8ff" points="360.8,-227.01 362.51,-216.55 354.65,-223.66 360.8,-227.01"/>
</a>
</g>
</g>
<!-- Node6 -->
<g id="Node000006" class="node">
<title>Node6</title>
<g id="a_Node000006"><a xlink:href="namespacem__helper__basic.html#a58590a12d49b9b884256a839f2be8610" target="_top" xlink:title="This procedure checks if two floating point numbers of wp are within tolerance.">
<polygon fill="white" stroke="#666666" points="607,-216.5 465,-216.5 465,-186.5 607,-186.5 607,-216.5"/>
<text text-anchor="start" x="473" y="-204.5" font-family="Helvetica,sans-Serif" font-size="10.00">m_helper_basic::f_approx</text>
<text text-anchor="middle" x="536" y="-193.5" font-family="Helvetica,sans-Serif" font-size="10.00">_equal</text>
</a>
</g>
</g>
<!-- Node5&#45;&gt;Node6 -->
<g id="edge8_Node000005_Node000006" class="edge">
<title>Node5&#45;&gt;Node6</title>
<g id="a_edge8_Node000005_Node000006"><a xlink:title=" ">
<path fill="none" stroke="#63b8ff" d="M429.01,-201.5C437.32,-201.5 446.01,-201.5 454.68,-201.5"/>
<polygon fill="#63b8ff" stroke="#63b8ff" points="454.83,-205 464.83,-201.5 454.83,-198 454.83,-205"/>
</a>
</g>
</g>
<!-- Node7&#45;&gt;Node7 -->
<g id="edge10_Node000007_Node000007" class="edge">
<title>Node7&#45;&gt;Node7</title>
<g id="a_edge10_Node000007_Node000007"><a xlink:title=" ">
<path fill="none" stroke="#63b8ff" d="M187.46,-294.08C175.76,-302.73 183.77,-312 211.5,-312 229.7,-312 239.4,-308.01 240.62,-302.82"/>
<polygon fill="#63b8ff" stroke="#63b8ff" points="243.59,-300.97 235.54,-294.08 237.54,-304.49 243.59,-300.97"/>
</a>
</g>
</g>
<!-- Node8&#45;&gt;Node8 -->
<g id="edge12_Node000008_Node000008" class="edge">
<title>Node8&#45;&gt;Node8</title>
<g id="a_edge12_Node000008_Node000008"><a xlink:title=" ">
<path fill="none" stroke="#63b8ff" d="M187.46,-239.08C175.76,-247.73 183.77,-257 211.5,-257 229.7,-257 239.4,-253.01 240.62,-247.82"/>
<polygon fill="#63b8ff" stroke="#63b8ff" points="243.59,-245.97 235.54,-239.08 237.54,-249.49 243.59,-245.97"/>
</a>
</g>
</g>
<!-- Node9&#45;&gt;Node9 -->
<g id="edge14_Node000009_Node000009" class="edge">
<title>Node9&#45;&gt;Node9</title>
<g id="a_edge14_Node000009_Node000009"><a xlink:title=" ">
<path fill="none" stroke="#63b8ff" d="M187.46,-184.08C175.76,-192.73 183.77,-202 211.5,-202 229.7,-202 239.4,-198.01 240.62,-192.82"/>
<polygon fill="#63b8ff" stroke="#63b8ff" points="243.59,-190.97 235.54,-184.08 237.54,-194.49 243.59,-190.97"/>
</a>
</g>
</g>
<!-- Node10&#45;&gt;Node10 -->
<g id="edge17_Node000010_Node000010" class="edge">
<title>Node10&#45;&gt;Node10</title>
<g id="a_edge17_Node000010_Node000010"><a xlink:title=" ">
<path fill="none" stroke="#63b8ff" d="M187.46,-129.08C175.76,-137.73 183.77,-147 211.5,-147 229.7,-147 239.4,-143.01 240.62,-137.82"/>
<polygon fill="#63b8ff" stroke="#63b8ff" points="243.59,-135.97 235.54,-129.08 237.54,-139.49 243.59,-135.97"/>
</a>
</g>
</g>
<!-- Node11&#45;&gt;Node5 -->
<g id="edge19_Node000011_Node000005" class="edge">
<title>Node11&#45;&gt;Node5</title>
<g id="a_edge19_Node000011_Node000005"><a xlink:title=" ">
<path fill="none" stroke="#63b8ff" d="M232.67,-74.07C245.91,-80.82 263.25,-90.58 277,-101.5 306.01,-124.54 334.25,-156.71 351.86,-178.28"/>
<polygon fill="#63b8ff" stroke="#63b8ff" points="349.29,-180.67 358.28,-186.26 354.74,-176.28 349.29,-180.67"/>
</a>
</g>
</g>
<!-- Node11&#45;&gt;Node11 -->
<g id="edge20_Node000011_Node000011" class="edge">
<title>Node11&#45;&gt;Node11</title>
<g id="a_edge20_Node000011_Node000011"><a xlink:title=" ">
<path fill="none" stroke="#63b8ff" d="M187.46,-74.08C175.76,-82.73 183.77,-92 211.5,-92 229.7,-92 239.4,-88.01 240.62,-82.82"/>
<polygon fill="#63b8ff" stroke="#63b8ff" points="243.59,-80.97 235.54,-74.08 237.54,-84.49 243.59,-80.97"/>
</a>
</g>
</g>
<!-- Node12&#45;&gt;Node12 -->
<g id="edge22_Node000012_Node000012" class="edge">
<title>Node12&#45;&gt;Node12</title>
<g id="a_edge22_Node000012_Node000012"><a xlink:title=" ">
<path fill="none" stroke="#63b8ff" d="M187.46,-19.08C175.76,-27.73 183.77,-37 211.5,-37 229.7,-37 239.4,-33.01 240.62,-27.82"/>
<polygon fill="#63b8ff" stroke="#63b8ff" points="243.59,-25.97 235.54,-19.08 237.54,-29.49 243.59,-25.97"/>
</a>
</g>
</g>
</g>
</svg>
