<?xml version="1.0" encoding="UTF-8" standalone="no"?>
<!DOCTYPE svg PUBLIC "-//W3C//DTD SVG 1.1//EN"
 "http://www.w3.org/Graphics/SVG/1.1/DTD/svg11.dtd">
<!-- Generated by graphviz version 2.43.0 (0)
 -->
<!-- Title: m_data_output::s_write_parallel_data_files Pages: 1 -->
<!--zoomable 430 -->

<svg id="main" version="1.1" xmlns="http://www.w3.org/2000/svg" xmlns:xlink="http://www.w3.org/1999/xlink" xml:space="preserve" onload="init(evt)">

<style type="text/css"><![CDATA[
.node, .edge {opacity: 0.7;}
.node.selected, .edge.selected {opacity: 1;}
.edge:hover path { stroke: red; }
.edge:hover polygon { stroke: red; fill: red; }
]]></style>

<defs>
  <circle id="rim" cx="0" cy="0" r="7"/>
  <circle id="rim2" cx="0" cy="0" r="3.5"/>
  <g id="zoomPlus">
    <use xlink:href="#rim" fill="#404040"><set attributeName="fill" to="#808080" begin="zoomplus.mouseover" end="zoomplus.mouseout"/></use>
    <path d="M-4,0h8M0,-4v8" fill="none" stroke="white" stroke-width="1.5" pointer-events="none"/>
  </g>
  <g id="zoomMin">
    <use xlink:href="#rim" fill="#404040"><set attributeName="fill" to="#808080" begin="zoomminus.mouseover" end="zoomminus.mouseout"/></use>
    <path d="M-4,0h8" fill="none" stroke="white" stroke-width="1.5" pointer-events="none"/>
  </g>
  <g id="arrowUp" transform="translate(30 24)">
    <use xlink:href="#rim"/>
    <path pointer-events="none" fill="none" stroke="white" stroke-width="1.5" d="M0,-3.0v7 M-2.5,-0.5L0,-3.0L2.5,-0.5"/>
  </g>
  <g id="arrowRight" transform="rotate(90) translate(36 -43)">
    <use xlink:href="#rim"/>
    <path pointer-events="none" fill="none" stroke="white" stroke-width="1.5" d="M0,-3.0v7 M-2.5,-0.5L0,-3.0L2.5,-0.5"/>
  </g>
  <g id="arrowDown" transform="rotate(180) translate(-30 -48)">
    <use xlink:href="#rim"/>
    <path pointer-events="none" fill="none" stroke="white" stroke-width="1.5" d="M0,-3.0v7 M-2.5,-0.5L0,-3.0L2.5,-0.5"/>
  </g>
  <g id="arrowLeft" transform="rotate(270) translate(-36 17)">
    <use xlink:href="#rim"/>
    <path pointer-events="none" fill="none" stroke="white" stroke-width="1.5" d="M0,-3.0v7 M-2.5,-0.5L0,-3.0L2.5,-0.5"/>
  </g>
  <g id="resetDef">
    <use xlink:href="#rim2" fill="#404040"><set attributeName="fill" to="#808080" begin="reset.mouseover" end="reset.mouseout"/></use>
  </g>
</defs>
<script type="application/ecmascript">
var viewWidth = 693;
var viewHeight = 430;
var sectionId = 'dynsection-4';
</script>
<script type="application/ecmascript" xlink:href="svg.min.js"/>
<svg id="graph" class="graph">
<g id="viewport">
<title>m_data_output::s_write_parallel_data_files</title>
<!-- Node1 -->
<g id="Node000001" class="node">
<title>Node1</title>
<g id="a_Node000001"><a xlink:title="The goal of this subroutine is to output the grid and conservative variables data files for given tim...">
<polygon fill="#999999" stroke="#666666" points="131,-304 0,-304 0,-274 131,-274 131,-304"/>
<text text-anchor="start" x="8" y="-292" font-family="Helvetica,sans-Serif" font-size="10.00">m_data_output::s_write</text>
<text text-anchor="middle" x="65.5" y="-281" font-family="Helvetica,sans-Serif" font-size="10.00">_parallel_data_files</text>
</a>
</g>
</g>
<!-- Node2 -->
<g id="Node000002" class="node">
<title>Node2</title>
<g id="a_Node000002"><a xlink:href="namespacem__delay__file__access.html#a9b90086a2cf6bbb569047c955d2e67fe" target="_top" xlink:title=" ">
<polygon fill="white" stroke="#666666" points="309.5,-422 192.5,-422 192.5,-392 309.5,-392 309.5,-422"/>
<text text-anchor="start" x="200.5" y="-410" font-family="Helvetica,sans-Serif" font-size="10.00">m_delay_file_access</text>
<text text-anchor="middle" x="251" y="-399" font-family="Helvetica,sans-Serif" font-size="10.00">::delayfileaccess</text>
</a>
</g>
</g>
<!-- Node1&#45;&gt;Node2 -->
<g id="edge1_Node000001_Node000002" class="edge">
<title>Node1&#45;&gt;Node2</title>
<g id="a_edge1_Node000001_Node000002"><a xlink:title=" ">
<path fill="none" stroke="#63b8ff" d="M78.51,-304.01C95.88,-324.75 130.03,-361.99 167,-383 172.01,-385.85 177.39,-388.38 182.91,-390.63"/>
<polygon fill="#63b8ff" stroke="#63b8ff" points="181.71,-393.92 192.3,-394.16 184.17,-387.37 181.71,-393.92"/>
</a>
</g>
</g>
<!-- Node3 -->
<g id="Node000003" class="node">
<title>Node3</title>
<g id="a_Node000003"><a xlink:href="namespacem__compile__specific.html#a9cf8c029e502931415929734c03f340d" target="_top" xlink:title="Inquires on the existence of a directory.">
<polygon fill="white" stroke="#666666" points="307.5,-374 194.5,-374 194.5,-344 307.5,-344 307.5,-374"/>
<text text-anchor="start" x="202.5" y="-362" font-family="Helvetica,sans-Serif" font-size="10.00">m_compile_specific</text>
<text text-anchor="middle" x="251" y="-351" font-family="Helvetica,sans-Serif" font-size="10.00">::my_inquire</text>
</a>
</g>
</g>
<!-- Node1&#45;&gt;Node3 -->
<g id="edge2_Node000001_Node000003" class="edge">
<title>Node1&#45;&gt;Node3</title>
<g id="a_edge2_Node000001_Node000003"><a xlink:title=" ">
<path fill="none" stroke="#63b8ff" d="M96.36,-304.07C116.09,-313.69 142.71,-325.99 167,-335 172.59,-337.07 178.44,-339.08 184.33,-340.99"/>
<polygon fill="#63b8ff" stroke="#63b8ff" points="183.68,-344.46 194.27,-344.12 185.78,-337.78 183.68,-344.46"/>
</a>
</g>
</g>
<!-- Node4 -->
<g id="Node000004" class="node">
<title>Node4</title>
<g id="a_Node000004"><a xlink:href="namespacem__compile__specific.html#aa1b4e12a20e09147a215c3b5018484b0" target="_top" xlink:title="Creates a directory and all its parents if it does not exist.">
<polygon fill="white" stroke="#666666" points="307.5,-326 194.5,-326 194.5,-296 307.5,-296 307.5,-326"/>
<text text-anchor="start" x="202.5" y="-314" font-family="Helvetica,sans-Serif" font-size="10.00">m_compile_specific</text>
<text text-anchor="middle" x="251" y="-303" font-family="Helvetica,sans-Serif" font-size="10.00">::s_create_directory</text>
</a>
</g>
</g>
<!-- Node1&#45;&gt;Node4 -->
<g id="edge3_Node000001_Node000004" class="edge">
<title>Node1&#45;&gt;Node4</title>
<g id="a_edge3_Node000001_Node000004"><a xlink:title=" ">
<path fill="none" stroke="#63b8ff" d="M131.2,-296.76C148.45,-298.82 167.1,-301.06 184.4,-303.13"/>
<polygon fill="#63b8ff" stroke="#63b8ff" points="184.06,-306.62 194.41,-304.33 184.89,-299.67 184.06,-306.62"/>
</a>
</g>
</g>
<!-- Node5 -->
<g id="Node000005" class="node">
<title>Node5</title>
<g id="a_Node000005"><a xlink:href="namespacem__helper.html#adf827c606652ea511bd0befcc9164c03" target="_top" xlink:title=" ">
<polygon fill="white" stroke="#666666" points="335,-277.5 167,-277.5 167,-258.5 335,-258.5 335,-277.5"/>
<text text-anchor="middle" x="251" y="-265.5" font-family="Helvetica,sans-Serif" font-size="10.00">m_helper::s_downsample_data</text>
</a>
</g>
</g>
<!-- Node1&#45;&gt;Node5 -->
<g id="edge4_Node000001_Node000005" class="edge">
<title>Node1&#45;&gt;Node5</title>
<g id="a_edge4_Node000001_Node000005"><a xlink:title=" ">
<path fill="none" stroke="#63b8ff" d="M131.2,-281.6C139.5,-280.65 148.13,-279.66 156.78,-278.67"/>
<polygon fill="#63b8ff" stroke="#63b8ff" points="157.39,-282.12 166.92,-277.51 156.59,-275.17 157.39,-282.12"/>
</a>
</g>
</g>
<!-- Node6 -->
<g id="Node000006" class="node">
<title>Node6</title>
<g id="a_Node000006"><a xlink:href="namespacem__helper.html#afd343d70a36c65cb7be86a183aa594ac" target="_top" xlink:title=" ">
<polygon fill="white" stroke="#666666" points="313.5,-240.5 188.5,-240.5 188.5,-221.5 313.5,-221.5 313.5,-240.5"/>
<text text-anchor="middle" x="251" y="-228.5" font-family="Helvetica,sans-Serif" font-size="10.00">m_helper::s_int_to_str</text>
</a>
</g>
</g>
<!-- Node1&#45;&gt;Node6 -->
<g id="edge5_Node000001_Node000006" class="edge">
<title>Node1&#45;&gt;Node6</title>
<g id="a_edge5_Node000001_Node000006"><a xlink:title=" ">
<path fill="none" stroke="#63b8ff" d="M101.87,-273.82C120.93,-266.02 144.99,-256.75 167,-250 175.32,-247.45 184.2,-245.07 192.94,-242.91"/>
<polygon fill="#63b8ff" stroke="#63b8ff" points="193.8,-246.3 202.72,-240.58 192.18,-239.49 193.8,-246.3"/>
</a>
</g>
</g>
<!-- Node7 -->
<g id="Node000007" class="node">
<title>Node7</title>
<g id="a_Node000007"><a xlink:href="namespacem__boundary__common.html#a759354204f31b7b1ecce6258ffec6a5c" target="_top" xlink:title="The purpose of this procedure is to populate the buffers of the primitive variables,...">
<polygon fill="white" stroke="#666666" points="316.5,-203.5 185.5,-203.5 185.5,-162.5 316.5,-162.5 316.5,-203.5"/>
<text text-anchor="start" x="193.5" y="-191.5" font-family="Helvetica,sans-Serif" font-size="10.00">m_boundary_common::</text>
<text text-anchor="start" x="193.5" y="-180.5" font-family="Helvetica,sans-Serif" font-size="10.00">s_populate_variables</text>
<text text-anchor="middle" x="251" y="-169.5" font-family="Helvetica,sans-Serif" font-size="10.00">_buffers</text>
</a>
</g>
</g>
<!-- Node1&#45;&gt;Node7 -->
<g id="edge6_Node000001_Node000007" class="edge">
<title>Node1&#45;&gt;Node7</title>
<g id="a_edge6_Node000001_Node000007"><a xlink:title=" ">
<path fill="none" stroke="#63b8ff" d="M83.2,-273.85C102.3,-257.13 135.08,-230.32 167,-213 170.29,-211.21 173.71,-209.5 177.2,-207.85"/>
<polygon fill="#63b8ff" stroke="#63b8ff" points="178.88,-210.93 186.58,-203.66 176.02,-204.54 178.88,-210.93"/>
</a>
</g>
</g>
<!-- Node8 -->
<g id="Node000008" class="node">
<title>Node8</title>
<g id="a_Node000008"><a xlink:href="namespacem__boundary__common.html#a2fe3d0adef0faf65f6410f293d32bb42" target="_top" xlink:title=" ">
<polygon fill="white" stroke="#666666" points="502,-356 371,-356 371,-326 502,-326 502,-356"/>
<text text-anchor="start" x="379" y="-344" font-family="Helvetica,sans-Serif" font-size="10.00">m_boundary_common::</text>
<text text-anchor="middle" x="436.5" y="-333" font-family="Helvetica,sans-Serif" font-size="10.00">s_axis</text>
</a>
</g>
</g>
<!-- Node7&#45;&gt;Node8 -->
<g id="edge7_Node000007_Node000008" class="edge">
<title>Node7&#45;&gt;Node8</title>
<g id="a_edge7_Node000007_Node000008"><a xlink:title=" ">
<path fill="none" stroke="#63b8ff" d="M316.7,-199.64C323.43,-203.26 329.73,-207.66 335,-213 369.35,-247.82 336.81,-282.02 371,-317 371.94,-317.96 372.92,-318.88 373.94,-319.77"/>
<polygon fill="#63b8ff" stroke="#63b8ff" points="372.21,-322.84 382.37,-325.87 376.32,-317.17 372.21,-322.84"/>
</a>
</g>
</g>
<!-- Node9 -->
<g id="Node000009" class="node">
<title>Node9</title>
<g id="a_Node000009"><a xlink:href="namespacem__boundary__common.html#a868f1a4cb136b1e10ff0266614eae5b8" target="_top" xlink:title=" ">
<polygon fill="white" stroke="#666666" points="502,-308 371,-308 371,-278 502,-278 502,-308"/>
<text text-anchor="start" x="379" y="-296" font-family="Helvetica,sans-Serif" font-size="10.00">m_boundary_common::</text>
<text text-anchor="middle" x="436.5" y="-285" font-family="Helvetica,sans-Serif" font-size="10.00">s_dirichlet</text>
</a>
</g>
</g>
<!-- Node7&#45;&gt;Node9 -->
<g id="edge8_Node000007_Node000009" class="edge">
<title>Node7&#45;&gt;Node9</title>
<g id="a_edge8_Node000007_Node000009"><a xlink:title=" ">
<path fill="none" stroke="#63b8ff" d="M316.61,-201.81C323.13,-205.02 329.4,-208.73 335,-213 357.06,-229.82 349.59,-246.35 371,-264 375.04,-267.33 379.53,-270.36 384.2,-273.09"/>
<polygon fill="#63b8ff" stroke="#63b8ff" points="382.86,-276.34 393.33,-277.98 386.17,-270.17 382.86,-276.34"/>
</a>
</g>
</g>
<!-- Node10 -->
<g id="Node000010" class="node">
<title>Node10</title>
<g id="a_Node000010"><a xlink:href="namespacem__boundary__common.html#a8aaafb76d038c4e6c8ae6272efa774ad" target="_top" xlink:title=" ">
<polygon fill="white" stroke="#666666" points="685,-286 538,-286 538,-256 685,-256 685,-286"/>
<text text-anchor="start" x="546" y="-274" font-family="Helvetica,sans-Serif" font-size="10.00">m_boundary_common::</text>
<text text-anchor="middle" x="611.5" y="-263" font-family="Helvetica,sans-Serif" font-size="10.00">s_ghost_cell_extrapolation</text>
</a>
</g>
</g>
<!-- Node7&#45;&gt;Node10 -->
<g id="edge10_Node000007_Node000010" class="edge">
<title>Node7&#45;&gt;Node10</title>
<g id="a_edge10_Node000007_Node000010"><a xlink:title=" ">
<path fill="none" stroke="#63b8ff" d="M311.72,-203.64C319.61,-206.64 327.54,-209.8 335,-213 351.44,-220.05 353.99,-225.47 371,-231 421.79,-247.53 480.97,-257.49 527.8,-263.34"/>
<polygon fill="#63b8ff" stroke="#63b8ff" points="527.55,-266.84 537.9,-264.57 528.39,-259.89 527.55,-266.84"/>
</a>
</g>
</g>
<!-- Node11 -->
<g id="Node000011" class="node">
<title>Node11</title>
<g id="a_Node000011"><a xlink:href="namespacem__boundary__common.html#ac94c00d60da5c8365f14f1b035566c21" target="_top" xlink:title=" ">
<polygon fill="white" stroke="#666666" points="502,-222 371,-222 371,-192 502,-192 502,-222"/>
<text text-anchor="start" x="379" y="-210" font-family="Helvetica,sans-Serif" font-size="10.00">m_boundary_common::</text>
<text text-anchor="middle" x="436.5" y="-199" font-family="Helvetica,sans-Serif" font-size="10.00">s_no_slip_wall</text>
</a>
</g>
</g>
<!-- Node7&#45;&gt;Node11 -->
<g id="edge11_Node000007_Node000011" class="edge">
<title>Node7&#45;&gt;Node11</title>
<g id="a_edge11_Node000007_Node000011"><a xlink:title=" ">
<path fill="none" stroke="#63b8ff" d="M316.7,-191.46C330.95,-193.33 346.16,-195.31 360.77,-197.23"/>
<polygon fill="#63b8ff" stroke="#63b8ff" points="360.4,-200.71 370.77,-198.53 361.31,-193.77 360.4,-200.71"/>
</a>
</g>
</g>
<!-- Node12 -->
<g id="Node000012" class="node">
<title>Node12</title>
<g id="a_Node000012"><a xlink:href="namespacem__boundary__common.html#a4d160d849a7ea4ce6a8cac2c478e5b9c" target="_top" xlink:title=" ">
<polygon fill="white" stroke="#666666" points="502,-174 371,-174 371,-144 502,-144 502,-174"/>
<text text-anchor="start" x="379" y="-162" font-family="Helvetica,sans-Serif" font-size="10.00">m_boundary_common::</text>
<text text-anchor="middle" x="436.5" y="-151" font-family="Helvetica,sans-Serif" font-size="10.00">s_periodic</text>
</a>
</g>
</g>
<!-- Node7&#45;&gt;Node12 -->
<g id="edge12_Node000007_Node000012" class="edge">
<title>Node7&#45;&gt;Node12</title>
<g id="a_edge12_Node000007_Node000012"><a xlink:title=" ">
<path fill="none" stroke="#63b8ff" d="M316.7,-174.54C330.95,-172.67 346.16,-170.69 360.77,-168.77"/>
<polygon fill="#63b8ff" stroke="#63b8ff" points="361.31,-172.23 370.77,-167.47 360.4,-165.29 361.31,-172.23"/>
</a>
</g>
</g>
<!-- Node13 -->
<g id="Node000013" class="node">
<title>Node13</title>
<g id="a_Node000013"><a xlink:href="namespacem__boundary__common.html#ac55853dffb7e074e8f645ff0a63e7e38" target="_top" xlink:title=" ">
<polygon fill="white" stroke="#666666" points="502,-126 371,-126 371,-96 502,-96 502,-126"/>
<text text-anchor="start" x="379" y="-114" font-family="Helvetica,sans-Serif" font-size="10.00">m_boundary_common::</text>
<text text-anchor="middle" x="436.5" y="-103" font-family="Helvetica,sans-Serif" font-size="10.00">s_qbmm_extrapolation</text>
</a>
</g>
</g>
<!-- Node7&#45;&gt;Node13 -->
<g id="edge13_Node000007_Node000013" class="edge">
<title>Node7&#45;&gt;Node13</title>
<g id="a_edge13_Node000007_Node000013"><a xlink:title=" ">
<path fill="none" stroke="#63b8ff" d="M301.96,-162.5C323.2,-153.87 348.26,-143.82 371,-135 375.5,-133.26 380.18,-131.47 384.88,-129.69"/>
<polygon fill="#63b8ff" stroke="#63b8ff" points="386.37,-132.87 394.49,-126.07 383.9,-126.32 386.37,-132.87"/>
</a>
</g>
</g>
<!-- Node14 -->
<g id="Node000014" class="node">
<title>Node14</title>
<g id="a_Node000014"><a xlink:href="namespacem__boundary__common.html#aafa9626b0837c3fc44bec98866283f1d" target="_top" xlink:title=" ">
<polygon fill="white" stroke="#666666" points="502,-78 371,-78 371,-48 502,-48 502,-78"/>
<text text-anchor="start" x="379" y="-66" font-family="Helvetica,sans-Serif" font-size="10.00">m_boundary_common::</text>
<text text-anchor="middle" x="436.5" y="-55" font-family="Helvetica,sans-Serif" font-size="10.00">s_slip_wall</text>
</a>
</g>
</g>
<!-- Node7&#45;&gt;Node14 -->
<g id="edge14_Node000007_Node000014" class="edge">
<title>Node7&#45;&gt;Node14</title>
<g id="a_edge14_Node000007_Node000014"><a xlink:title=" ">
<path fill="none" stroke="#63b8ff" d="M273.23,-162.28C295.9,-141.07 333.63,-108.27 371,-87 373.86,-85.37 376.84,-83.82 379.9,-82.34"/>
<polygon fill="#63b8ff" stroke="#63b8ff" points="381.54,-85.44 389.21,-78.14 378.66,-79.06 381.54,-85.44"/>
</a>
</g>
</g>
<!-- Node15 -->
<g id="Node000015" class="node">
<title>Node15</title>
<g id="a_Node000015"><a xlink:href="namespacem__boundary__common.html#a117fa18d768baf2b0edd4e8887a923d5" target="_top" xlink:title=" ">
<polygon fill="white" stroke="#666666" points="502,-30 371,-30 371,0 502,0 502,-30"/>
<text text-anchor="start" x="379" y="-18" font-family="Helvetica,sans-Serif" font-size="10.00">m_boundary_common::</text>
<text text-anchor="middle" x="436.5" y="-7" font-family="Helvetica,sans-Serif" font-size="10.00">s_symmetry</text>
</a>
</g>
</g>
<!-- Node7&#45;&gt;Node15 -->
<g id="edge15_Node000007_Node000015" class="edge">
<title>Node7&#45;&gt;Node15</title>
<g id="a_edge15_Node000007_Node000015"><a xlink:title=" ">
<path fill="none" stroke="#63b8ff" d="M264.02,-162.43C283.04,-131.56 322.9,-73.21 371,-39 373.09,-37.52 375.28,-36.11 377.54,-34.78"/>
<polygon fill="#63b8ff" stroke="#63b8ff" points="379.32,-37.8 386.54,-30.04 376.06,-31.61 379.32,-37.8"/>
</a>
</g>
</g>
<!-- Node9&#45;&gt;Node10 -->
<g id="edge9_Node000009_Node000010" class="edge">
<title>Node9&#45;&gt;Node10</title>
<g id="a_edge9_Node000009_Node000010"><a xlink:title=" ">
<path fill="none" stroke="#63b8ff" d="M502.41,-284.75C510.75,-283.69 519.37,-282.59 527.95,-281.5"/>
<polygon fill="#63b8ff" stroke="#63b8ff" points="528.49,-284.96 537.97,-280.22 527.6,-278.01 528.49,-284.96"/>
</a>
</g>
</g>
</g>
</svg>

<g id="navigator" transform="translate(0 0)" fill="#404254">
  <rect fill="#f2f5e9" fill-opacity="0.5" stroke="#606060" stroke-width=".5" x="0" y="0" width="60" height="60"/>
  <use id="zoomplus" xlink:href="#zoomPlus" x="17" y="9" onmousedown="handleZoom(evt,'in')"/>
  <use id="zoomminus" xlink:href="#zoomMin" x="42" y="9" onmousedown="handleZoom(evt,'out')"/>
  <use id="reset" xlink:href="#resetDef" x="30" y="36" onmousedown="handleReset()"/>
   <use id="arrowup" xlink:href="#arrowUp" x="0" y="0" onmousedown="handlePan(0,-1)"/>
  <use id="arrowright" xlink:href="#arrowRight" x="0" y="0" onmousedown="handlePan(1,0)"/>
  <use id="arrowdown" xlink:href="#arrowDown" x="0" y="0" onmousedown="handlePan(0,1)"/>
  <use id="arrowleft" xlink:href="#arrowLeft" x="0" y="0" onmousedown="handlePan(-1,0)"/>
</g>
<svg viewBox="0 0 15 15" width="100%" height="30px" preserveAspectRatio="xMaxYMin meet">
 <g id="arrow_out" transform="scale(0.3 0.3)">
  <a xlink:href="namespacem__data__output_a70eef01cb0dda6dd292ddc4b63544be5_cgraph_org.svg" target="_base">
   <rect id="button" ry="5" rx="5" y="6" x="6" height="38" width="38"
        fill="#f2f5e9" fill-opacity="0.5" stroke="#606060" stroke-width="1.0"/>
   <path id="arrow"
     d="M 11.500037,31.436501 C 11.940474,20.09759 22.043105,11.32322 32.158766,21.979434 L 37.068811,17.246167 C 37.068811,17.246167 37.088388,32 37.088388,32 L 22.160133,31.978069 C 22.160133,31.978069 26.997745,27.140456 26.997745,27.140456 C 18.528582,18.264221 13.291696,25.230495 11.500037,31.436501 z"
     style="fill:#404040;"/>
  </a>
 </g>
</svg>

<style type='text/css'>
<![CDATA[
[data-mouse-over-selected='false'] { opacity: 0.7; }
[data-mouse-over-selected='true']  { opacity: 1.0; }
]]>
</style>
<script type="application/ecmascript"><![CDATA[
document.addEventListener('DOMContentLoaded', (event) => {
  highlightEdges();
  highlightAdjacentNodes();
});
]]></script>
</svg>
