<?xml version="1.0" encoding="UTF-8" standalone="no"?>
<!DOCTYPE svg PUBLIC "-//W3C//DTD SVG 1.1//EN"
 "http://www.w3.org/Graphics/SVG/1.1/DTD/svg11.dtd">
<!-- Generated by graphviz version 2.43.0 (0)
 -->
<!-- Title: m_data_output::s_write_data_files Pages: 1 -->
<svg width="912pt" height="613pt"
 viewBox="0.00 0.00 912.00 613.00" xmlns="http://www.w3.org/2000/svg" xmlns:xlink="http://www.w3.org/1999/xlink">
<g id="graph0" class="graph" transform="scale(1 1) rotate(0) translate(4 609)">
<title>m_data_output::s_write_data_files</title>
<!-- Node1 -->
<g id="Node000001" class="node">
<title>Node1</title>
<g id="a_Node000001"><a xlink:title="Write data files. Dispatch subroutine that replaces procedure pointer.">
<polygon fill="#999999" stroke="#666666" points="131,-364 0,-364 0,-334 131,-334 131,-364"/>
<text text-anchor="start" x="8" y="-352" font-family="Helvetica,sans-Serif" font-size="10.00">m_data_output::s_write</text>
<text text-anchor="middle" x="65.5" y="-341" font-family="Helvetica,sans-Serif" font-size="10.00">_data_files</text>
</a>
</g>
</g>
<!-- Node2 -->
<g id="Node000002" class="node">
<title>Node2</title>
<g id="a_Node000002"><a xlink:href="namespacem__data__output.html#a70eef01cb0dda6dd292ddc4b63544be5" target="_top" xlink:title="The goal of this subroutine is to output the grid and conservative variables data files for given tim...">
<polygon fill="white" stroke="#666666" points="298,-316 167,-316 167,-286 298,-286 298,-316"/>
<text text-anchor="start" x="175" y="-304" font-family="Helvetica,sans-Serif" font-size="10.00">m_data_output::s_write</text>
<text text-anchor="middle" x="232.5" y="-293" font-family="Helvetica,sans-Serif" font-size="10.00">_parallel_data_files</text>
</a>
</g>
</g>
<!-- Node1&#45;&gt;Node2 -->
<g id="edge1_Node000001_Node000002" class="edge">
<title>Node1&#45;&gt;Node2</title>
<g id="a_edge1_Node000001_Node000002"><a xlink:title=" ">
<path fill="none" stroke="#63b8ff" d="M118.25,-333.94C134.69,-329.16 153.02,-323.83 170.07,-318.87"/>
<polygon fill="#63b8ff" stroke="#63b8ff" points="171.31,-322.16 179.93,-316 169.35,-315.44 171.31,-322.16"/>
</a>
</g>
</g>
<!-- Node17 -->
<g id="Node000017" class="node">
<title>Node17</title>
<g id="a_Node000017"><a xlink:href="namespacem__data__output.html#aa24a29afef33c331f912d6d57dbbc5fd" target="_top" xlink:title="The goal of this subroutine is to output the grid and conservative variables data files for given tim...">
<polygon fill="white" stroke="#666666" points="298,-412 167,-412 167,-382 298,-382 298,-412"/>
<text text-anchor="start" x="175" y="-400" font-family="Helvetica,sans-Serif" font-size="10.00">m_data_output::s_write</text>
<text text-anchor="middle" x="232.5" y="-389" font-family="Helvetica,sans-Serif" font-size="10.00">_serial_data_files</text>
</a>
</g>
</g>
<!-- Node1&#45;&gt;Node17 -->
<g id="edge17_Node000001_Node000017" class="edge">
<title>Node1&#45;&gt;Node17</title>
<g id="a_edge17_Node000001_Node000017"><a xlink:title=" ">
<path fill="none" stroke="#63b8ff" d="M118.25,-364.06C134.69,-368.84 153.02,-374.17 170.07,-379.13"/>
<polygon fill="#63b8ff" stroke="#63b8ff" points="169.35,-382.56 179.93,-382 171.31,-375.84 169.35,-382.56"/>
</a>
</g>
</g>
<!-- Node3 -->
<g id="Node000003" class="node">
<title>Node3</title>
<g id="a_Node000003"><a xlink:href="namespacem__delay__file__access.html#a9b90086a2cf6bbb569047c955d2e67fe" target="_top" xlink:title=" ">
<polygon fill="white" stroke="#666666" points="476.5,-316 359.5,-316 359.5,-286 476.5,-286 476.5,-316"/>
<text text-anchor="start" x="367.5" y="-304" font-family="Helvetica,sans-Serif" font-size="10.00">m_delay_file_access</text>
<text text-anchor="middle" x="418" y="-293" font-family="Helvetica,sans-Serif" font-size="10.00">::delayfileaccess</text>
</a>
</g>
</g>
<!-- Node2&#45;&gt;Node3 -->
<g id="edge2_Node000002_Node000003" class="edge">
<title>Node2&#45;&gt;Node3</title>
<g id="a_edge2_Node000002_Node000003"><a xlink:title=" ">
<path fill="none" stroke="#63b8ff" d="M298.2,-301C314.69,-301 332.46,-301 349.11,-301"/>
<polygon fill="#63b8ff" stroke="#63b8ff" points="349.3,-304.5 359.3,-301 349.3,-297.5 349.3,-304.5"/>
</a>
</g>
</g>
<!-- Node4 -->
<g id="Node000004" class="node">
<title>Node4</title>
<g id="a_Node000004"><a xlink:href="namespacem__compile__specific.html#a9cf8c029e502931415929734c03f340d" target="_top" xlink:title="Inquires on the existence of a directory.">
<polygon fill="white" stroke="#666666" points="474.5,-412 361.5,-412 361.5,-382 474.5,-382 474.5,-412"/>
<text text-anchor="start" x="369.5" y="-400" font-family="Helvetica,sans-Serif" font-size="10.00">m_compile_specific</text>
<text text-anchor="middle" x="418" y="-389" font-family="Helvetica,sans-Serif" font-size="10.00">::my_inquire</text>
</a>
</g>
</g>
<!-- Node2&#45;&gt;Node4 -->
<g id="edge3_Node000002_Node000004" class="edge">
<title>Node2&#45;&gt;Node4</title>
<g id="a_edge3_Node000002_Node000004"><a xlink:title=" ">
<path fill="none" stroke="#63b8ff" d="M250.84,-316.26C269.99,-332.41 302.33,-357.64 334,-373 339.58,-375.71 345.52,-378.16 351.56,-380.38"/>
<polygon fill="#63b8ff" stroke="#63b8ff" points="350.51,-383.72 361.1,-383.68 352.79,-377.11 350.51,-383.72"/>
</a>
</g>
</g>
<!-- Node5 -->
<g id="Node000005" class="node">
<title>Node5</title>
<g id="a_Node000005"><a xlink:href="namespacem__compile__specific.html#aa1b4e12a20e09147a215c3b5018484b0" target="_top" xlink:title="Creates a directory and all its parents if it does not exist.">
<polygon fill="white" stroke="#666666" points="474.5,-364 361.5,-364 361.5,-334 474.5,-334 474.5,-364"/>
<text text-anchor="start" x="369.5" y="-352" font-family="Helvetica,sans-Serif" font-size="10.00">m_compile_specific</text>
<text text-anchor="middle" x="418" y="-341" font-family="Helvetica,sans-Serif" font-size="10.00">::s_create_directory</text>
</a>
</g>
</g>
<!-- Node2&#45;&gt;Node5 -->
<g id="edge4_Node000002_Node000005" class="edge">
<title>Node2&#45;&gt;Node5</title>
<g id="a_edge4_Node000002_Node000005"><a xlink:title=" ">
<path fill="none" stroke="#63b8ff" d="M291.06,-316.06C310.21,-321.07 331.68,-326.68 351.39,-331.84"/>
<polygon fill="#63b8ff" stroke="#63b8ff" points="350.66,-335.26 361.22,-334.41 352.43,-328.49 350.66,-335.26"/>
</a>
</g>
</g>
<!-- Node6 -->
<g id="Node000006" class="node">
<title>Node6</title>
<g id="a_Node000006"><a xlink:href="namespacem__helper.html#adf827c606652ea511bd0befcc9164c03" target="_top" xlink:title=" ">
<polygon fill="white" stroke="#666666" points="502,-267.5 334,-267.5 334,-248.5 502,-248.5 502,-267.5"/>
<text text-anchor="middle" x="418" y="-255.5" font-family="Helvetica,sans-Serif" font-size="10.00">m_helper::s_downsample_data</text>
</a>
</g>
</g>
<!-- Node2&#45;&gt;Node6 -->
<g id="edge5_Node000002_Node000006" class="edge">
<title>Node2&#45;&gt;Node6</title>
<g id="a_edge5_Node000002_Node000006"><a xlink:title=" ">
<path fill="none" stroke="#63b8ff" d="M295.93,-285.99C308.53,-282.99 321.69,-279.88 334,-277 343.93,-274.68 354.54,-272.23 364.74,-269.89"/>
<polygon fill="#63b8ff" stroke="#63b8ff" points="365.79,-273.23 374.76,-267.59 364.23,-266.41 365.79,-273.23"/>
</a>
</g>
</g>
<!-- Node7 -->
<g id="Node000007" class="node">
<title>Node7</title>
<g id="a_Node000007"><a xlink:href="namespacem__helper.html#afd343d70a36c65cb7be86a183aa594ac" target="_top" xlink:title=" ">
<polygon fill="white" stroke="#666666" points="480.5,-230.5 355.5,-230.5 355.5,-211.5 480.5,-211.5 480.5,-230.5"/>
<text text-anchor="middle" x="418" y="-218.5" font-family="Helvetica,sans-Serif" font-size="10.00">m_helper::s_int_to_str</text>
</a>
</g>
</g>
<!-- Node2&#45;&gt;Node7 -->
<g id="edge6_Node000002_Node000007" class="edge">
<title>Node2&#45;&gt;Node7</title>
<g id="a_edge6_Node000002_Node000007"><a xlink:title=" ">
<path fill="none" stroke="#63b8ff" d="M254.02,-285.83C273.63,-272 304.49,-251.97 334,-240 340.26,-237.46 346.93,-235.22 353.66,-233.26"/>
<polygon fill="#63b8ff" stroke="#63b8ff" points="354.8,-236.58 363.53,-230.58 352.96,-229.82 354.8,-236.58"/>
</a>
</g>
</g>
<!-- Node8 -->
<g id="Node000008" class="node">
<title>Node8</title>
<g id="a_Node000008"><a xlink:href="namespacem__boundary__common.html#a759354204f31b7b1ecce6258ffec6a5c" target="_top" xlink:title="The purpose of this procedure is to populate the buffers of the primitive variables,...">
<polygon fill="white" stroke="#666666" points="483.5,-193.5 352.5,-193.5 352.5,-152.5 483.5,-152.5 483.5,-193.5"/>
<text text-anchor="start" x="360.5" y="-181.5" font-family="Helvetica,sans-Serif" font-size="10.00">m_boundary_common::</text>
<text text-anchor="start" x="360.5" y="-170.5" font-family="Helvetica,sans-Serif" font-size="10.00">s_populate_variables</text>
<text text-anchor="middle" x="418" y="-159.5" font-family="Helvetica,sans-Serif" font-size="10.00">_buffers</text>
</a>
</g>
</g>
<!-- Node2&#45;&gt;Node8 -->
<g id="edge7_Node000002_Node000008" class="edge">
<title>Node2&#45;&gt;Node8</title>
<g id="a_edge7_Node000002_Node000008"><a xlink:title=" ">
<path fill="none" stroke="#63b8ff" d="M245.57,-285.67C263.01,-264.42 297.24,-226.04 334,-203 336.95,-201.15 340.02,-199.4 343.18,-197.74"/>
<polygon fill="#63b8ff" stroke="#63b8ff" points="344.83,-200.83 352.27,-193.28 341.75,-194.54 344.83,-200.83"/>
</a>
</g>
</g>
<!-- Node9 -->
<g id="Node000009" class="node">
<title>Node9</title>
<g id="a_Node000009"><a xlink:href="namespacem__boundary__common.html#a2fe3d0adef0faf65f6410f293d32bb42" target="_top" xlink:title=" ">
<polygon fill="white" stroke="#666666" points="691.5,-164 560.5,-164 560.5,-134 691.5,-134 691.5,-164"/>
<text text-anchor="start" x="568.5" y="-152" font-family="Helvetica,sans-Serif" font-size="10.00">m_boundary_common::</text>
<text text-anchor="middle" x="626" y="-141" font-family="Helvetica,sans-Serif" font-size="10.00">s_axis</text>
</a>
</g>
</g>
<!-- Node8&#45;&gt;Node9 -->
<g id="edge8_Node000008_Node000009" class="edge">
<title>Node8&#45;&gt;Node9</title>
<g id="a_edge8_Node000008_Node000009"><a xlink:title=" ">
<path fill="none" stroke="#63b8ff" d="M483.61,-165.47C504.7,-163.02 528.29,-160.27 550.07,-157.73"/>
<polygon fill="#63b8ff" stroke="#63b8ff" points="550.73,-161.18 560.26,-156.54 549.92,-154.22 550.73,-161.18"/>
</a>
</g>
</g>
<!-- Node10 -->
<g id="Node000010" class="node">
<title>Node10</title>
<g id="a_Node000010"><a xlink:href="namespacem__boundary__common.html#a868f1a4cb136b1e10ff0266614eae5b8" target="_top" xlink:title=" ">
<polygon fill="white" stroke="#666666" points="691.5,-78 560.5,-78 560.5,-48 691.5,-48 691.5,-78"/>
<text text-anchor="start" x="568.5" y="-66" font-family="Helvetica,sans-Serif" font-size="10.00">m_boundary_common::</text>
<text text-anchor="middle" x="626" y="-55" font-family="Helvetica,sans-Serif" font-size="10.00">s_dirichlet</text>
</a>
</g>
</g>
<!-- Node8&#45;&gt;Node10 -->
<g id="edge9_Node000008_Node000010" class="edge">
<title>Node8&#45;&gt;Node10</title>
<g id="a_edge9_Node000008_Node000010"><a xlink:title=" ">
<path fill="none" stroke="#63b8ff" d="M444.65,-152.45C467.92,-134.58 503.73,-108.96 538,-92 545.78,-88.15 554.18,-84.63 562.6,-81.46"/>
<polygon fill="#63b8ff" stroke="#63b8ff" points="563.86,-84.73 572.07,-78.05 561.48,-78.15 563.86,-84.73"/>
</a>
</g>
</g>
<!-- Node11 -->
<g id="Node000011" class="node">
<title>Node11</title>
<g id="a_Node000011"><a xlink:href="namespacem__boundary__common.html#a8aaafb76d038c4e6c8ae6272efa774ad" target="_top" xlink:title=" ">
<polygon fill="white" stroke="#666666" points="900.5,-100 753.5,-100 753.5,-70 900.5,-70 900.5,-100"/>
<text text-anchor="start" x="761.5" y="-88" font-family="Helvetica,sans-Serif" font-size="10.00">m_boundary_common::</text>
<text text-anchor="middle" x="827" y="-77" font-family="Helvetica,sans-Serif" font-size="10.00">s_ghost_cell_extrapolation</text>
</a>
</g>
</g>
<!-- Node8&#45;&gt;Node11 -->
<g id="edge11_Node000008_Node000011" class="edge">
<title>Node8&#45;&gt;Node11</title>
<g id="a_edge11_Node000008_Node000011"><a xlink:title=" ">
<path fill="none" stroke="#63b8ff" d="M462.48,-152.47C484.64,-142.78 512.28,-131.86 538,-125 605.87,-106.89 685.04,-96.65 743.18,-91.08"/>
<polygon fill="#63b8ff" stroke="#63b8ff" points="743.79,-94.54 753.42,-90.12 743.14,-87.57 743.79,-94.54"/>
</a>
</g>
</g>
<!-- Node12 -->
<g id="Node000012" class="node">
<title>Node12</title>
<g id="a_Node000012"><a xlink:href="namespacem__boundary__common.html#ac94c00d60da5c8365f14f1b035566c21" target="_top" xlink:title=" ">
<polygon fill="white" stroke="#666666" points="691.5,-30 560.5,-30 560.5,0 691.5,0 691.5,-30"/>
<text text-anchor="start" x="568.5" y="-18" font-family="Helvetica,sans-Serif" font-size="10.00">m_boundary_common::</text>
<text text-anchor="middle" x="626" y="-7" font-family="Helvetica,sans-Serif" font-size="10.00">s_no_slip_wall</text>
</a>
</g>
</g>
<!-- Node8&#45;&gt;Node12 -->
<g id="edge12_Node000008_Node000012" class="edge">
<title>Node8&#45;&gt;Node12</title>
<g id="a_edge12_Node000008_Node000012"><a xlink:title=" ">
<path fill="none" stroke="#63b8ff" d="M431.67,-152.41C450.94,-122.82 490.46,-68.6 538,-39 542.11,-36.44 546.49,-34.15 551.02,-32.1"/>
<polygon fill="#63b8ff" stroke="#63b8ff" points="552.56,-35.26 560.49,-28.23 549.91,-28.78 552.56,-35.26"/>
</a>
</g>
</g>
<!-- Node13 -->
<g id="Node000013" class="node">
<title>Node13</title>
<g id="a_Node000013"><a xlink:href="namespacem__boundary__common.html#a4d160d849a7ea4ce6a8cac2c478e5b9c" target="_top" xlink:title=" ">
<polygon fill="white" stroke="#666666" points="691.5,-356 560.5,-356 560.5,-326 691.5,-326 691.5,-356"/>
<text text-anchor="start" x="568.5" y="-344" font-family="Helvetica,sans-Serif" font-size="10.00">m_boundary_common::</text>
<text text-anchor="middle" x="626" y="-333" font-family="Helvetica,sans-Serif" font-size="10.00">s_periodic</text>
</a>
</g>
</g>
<!-- Node8&#45;&gt;Node13 -->
<g id="edge13_Node000008_Node000013" class="edge">
<title>Node8&#45;&gt;Node13</title>
<g id="a_edge13_Node000008_Node000013"><a xlink:title=" ">
<path fill="none" stroke="#63b8ff" d="M483.84,-189.5C490.55,-193.14 496.8,-197.58 502,-203 538.79,-241.33 499.75,-280.13 538,-317 541.85,-320.71 546.22,-323.86 550.9,-326.53"/>
<polygon fill="#63b8ff" stroke="#63b8ff" points="549.71,-329.84 560.24,-331.09 552.79,-323.56 549.71,-329.84"/>
</a>
</g>
</g>
<!-- Node14 -->
<g id="Node000014" class="node">
<title>Node14</title>
<g id="a_Node000014"><a xlink:href="namespacem__boundary__common.html#ac55853dffb7e074e8f645ff0a63e7e38" target="_top" xlink:title=" ">
<polygon fill="white" stroke="#666666" points="691.5,-308 560.5,-308 560.5,-278 691.5,-278 691.5,-308"/>
<text text-anchor="start" x="568.5" y="-296" font-family="Helvetica,sans-Serif" font-size="10.00">m_boundary_common::</text>
<text text-anchor="middle" x="626" y="-285" font-family="Helvetica,sans-Serif" font-size="10.00">s_qbmm_extrapolation</text>
</a>
</g>
</g>
<!-- Node8&#45;&gt;Node14 -->
<g id="edge14_Node000008_Node000014" class="edge">
<title>Node8&#45;&gt;Node14</title>
<g id="a_edge14_Node000008_Node000014"><a xlink:title=" ">
<path fill="none" stroke="#63b8ff" d="M483.71,-190.96C490.28,-194.33 496.53,-198.31 502,-203 527.36,-224.76 511.82,-248.24 538,-269 542.04,-272.2 546.48,-274.98 551.15,-277.39"/>
<polygon fill="#63b8ff" stroke="#63b8ff" points="549.81,-280.62 560.36,-281.57 552.71,-274.25 549.81,-280.62"/>
</a>
</g>
</g>
<!-- Node15 -->
<g id="Node000015" class="node">
<title>Node15</title>
<g id="a_Node000015"><a xlink:href="namespacem__boundary__common.html#aafa9626b0837c3fc44bec98866283f1d" target="_top" xlink:title=" ">
<polygon fill="white" stroke="#666666" points="691.5,-260 560.5,-260 560.5,-230 691.5,-230 691.5,-260"/>
<text text-anchor="start" x="568.5" y="-248" font-family="Helvetica,sans-Serif" font-size="10.00">m_boundary_common::</text>
<text text-anchor="middle" x="626" y="-237" font-family="Helvetica,sans-Serif" font-size="10.00">s_slip_wall</text>
</a>
</g>
</g>
<!-- Node8&#45;&gt;Node15 -->
<g id="edge15_Node000008_Node000015" class="edge">
<title>Node8&#45;&gt;Node15</title>
<g id="a_edge15_Node000008_Node000015"><a xlink:title=" ">
<path fill="none" stroke="#63b8ff" d="M478.72,-193.64C486.61,-196.64 494.54,-199.8 502,-203 518.44,-210.05 521.3,-214.59 538,-221 543.44,-223.09 549.13,-225.07 554.88,-226.94"/>
<polygon fill="#63b8ff" stroke="#63b8ff" points="554.01,-230.34 564.6,-229.98 556.1,-223.66 554.01,-230.34"/>
</a>
</g>
</g>
<!-- Node16 -->
<g id="Node000016" class="node">
<title>Node16</title>
<g id="a_Node000016"><a xlink:href="namespacem__boundary__common.html#a117fa18d768baf2b0edd4e8887a923d5" target="_top" xlink:title=" ">
<polygon fill="white" stroke="#666666" points="691.5,-212 560.5,-212 560.5,-182 691.5,-182 691.5,-212"/>
<text text-anchor="start" x="568.5" y="-200" font-family="Helvetica,sans-Serif" font-size="10.00">m_boundary_common::</text>
<text text-anchor="middle" x="626" y="-189" font-family="Helvetica,sans-Serif" font-size="10.00">s_symmetry</text>
</a>
</g>
</g>
<!-- Node8&#45;&gt;Node16 -->
<g id="edge16_Node000008_Node000016" class="edge">
<title>Node8&#45;&gt;Node16</title>
<g id="a_edge16_Node000008_Node000016"><a xlink:title=" ">
<path fill="none" stroke="#63b8ff" d="M483.61,-180.53C504.7,-182.98 528.29,-185.73 550.07,-188.27"/>
<polygon fill="#63b8ff" stroke="#63b8ff" points="549.92,-191.78 560.26,-189.46 550.73,-184.82 549.92,-191.78"/>
</a>
</g>
</g>
<!-- Node10&#45;&gt;Node11 -->
<g id="edge10_Node000010_Node000011" class="edge">
<title>Node10&#45;&gt;Node11</title>
<g id="a_edge10_Node000010_Node000011"><a xlink:title=" ">
<path fill="none" stroke="#63b8ff" d="M691.61,-70.14C708.12,-71.97 726.09,-73.95 743.37,-75.86"/>
<polygon fill="#63b8ff" stroke="#63b8ff" points="743.12,-79.36 753.44,-76.98 743.89,-72.4 743.12,-79.36"/>
</a>
</g>
</g>
<!-- Node17&#45;&gt;Node4 -->
<g id="edge18_Node000017_Node000004" class="edge">
<title>Node17&#45;&gt;Node4</title>
<g id="a_edge18_Node000017_Node000004"><a xlink:title=" ">
<path fill="none" stroke="#63b8ff" d="M298.2,-397C315.45,-397 334.1,-397 351.4,-397"/>
<polygon fill="#63b8ff" stroke="#63b8ff" points="351.41,-400.5 361.41,-397 351.41,-393.5 351.41,-400.5"/>
</a>
</g>
</g>
<!-- Node17&#45;&gt;Node5 -->
<g id="edge27_Node000017_Node000005" class="edge">
<title>Node17&#45;&gt;Node5</title>
<g id="a_edge27_Node000017_Node000005"><a xlink:title=" ">
<path fill="none" stroke="#63b8ff" d="M291.06,-381.94C310.21,-376.93 331.68,-371.32 351.39,-366.16"/>
<polygon fill="#63b8ff" stroke="#63b8ff" points="352.43,-369.51 361.22,-363.59 350.66,-362.74 352.43,-369.51"/>
</a>
</g>
</g>
<!-- Node18 -->
<g id="Node000018" class="node">
<title>Node18</title>
<g id="a_Node000018"><a xlink:href="namespacem__variables__conversion.html#a7d567315b057c0da0cb37f89ef298031" target="_top" xlink:title="The following procedure handles the conversion between the conservative variables and the primitive v...">
<polygon fill="white" stroke="#666666" points="487,-519.5 349,-519.5 349,-478.5 487,-478.5 487,-519.5"/>
<text text-anchor="start" x="357" y="-507.5" font-family="Helvetica,sans-Serif" font-size="10.00">m_variables_conversion</text>
<text text-anchor="start" x="357" y="-496.5" font-family="Helvetica,sans-Serif" font-size="10.00">::s_convert_conservative</text>
<text text-anchor="middle" x="418" y="-485.5" font-family="Helvetica,sans-Serif" font-size="10.00">_to_primitive_variables</text>
</a>
</g>
</g>
<!-- Node17&#45;&gt;Node18 -->
<g id="edge19_Node000017_Node000018" class="edge">
<title>Node17&#45;&gt;Node18</title>
<g id="a_edge19_Node000017_Node000018"><a xlink:title=" ">
<path fill="none" stroke="#63b8ff" d="M251.39,-412.15C270.76,-427.98 303.04,-452.71 334,-469 337.49,-470.83 341.11,-472.6 344.8,-474.3"/>
<polygon fill="#63b8ff" stroke="#63b8ff" points="343.55,-477.57 354.11,-478.37 346.35,-471.15 343.55,-477.57"/>
</a>
</g>
</g>
<!-- Node26 -->
<g id="Node000026" class="node">
<title>Node26</title>
<g id="a_Node000026"><a xlink:href="namespacem__compile__specific.html#a60af946dc5a6e9ece1327c7cb756c4a2" target="_top" xlink:title=" ">
<polygon fill="white" stroke="#666666" points="474.5,-460 361.5,-460 361.5,-430 474.5,-430 474.5,-460"/>
<text text-anchor="start" x="369.5" y="-448" font-family="Helvetica,sans-Serif" font-size="10.00">m_compile_specific</text>
<text text-anchor="middle" x="418" y="-437" font-family="Helvetica,sans-Serif" font-size="10.00">::s_delete_directory</text>
</a>
</g>
</g>
<!-- Node17&#45;&gt;Node26 -->
<g id="edge28_Node000017_Node000026" class="edge">
<title>Node17&#45;&gt;Node26</title>
<g id="a_edge28_Node000017_Node000026"><a xlink:title=" ">
<path fill="none" stroke="#63b8ff" d="M291.06,-412.06C310.21,-417.07 331.68,-422.68 351.39,-427.84"/>
<polygon fill="#63b8ff" stroke="#63b8ff" points="350.66,-431.26 361.22,-430.41 352.43,-424.49 350.66,-431.26"/>
</a>
</g>
</g>
<!-- Node19 -->
<g id="Node000019" class="node">
<title>Node19</title>
<g id="a_Node000019"><a xlink:href="namespacem__variables__conversion.html#a58c19a9ba2767016cd7c916cd52b8d0e" target="_top" xlink:title="This procedure conditionally calculates the appropriate pressure.">
<polygon fill="white" stroke="#666666" points="693.5,-605 558.5,-605 558.5,-575 693.5,-575 693.5,-605"/>
<text text-anchor="start" x="566.5" y="-593" font-family="Helvetica,sans-Serif" font-size="10.00">m_variables_conversion</text>
<text text-anchor="middle" x="626" y="-582" font-family="Helvetica,sans-Serif" font-size="10.00">::s_compute_pressure</text>
</a>
</g>
</g>
<!-- Node18&#45;&gt;Node19 -->
<g id="edge20_Node000018_Node000019" class="edge">
<title>Node18&#45;&gt;Node19</title>
<g id="a_edge20_Node000018_Node000019"><a xlink:title=" ">
<path fill="none" stroke="#63b8ff" d="M450.76,-519.7C474.13,-534.23 507.09,-553.26 538,-566 542.98,-568.05 548.19,-569.99 553.48,-571.8"/>
<polygon fill="#63b8ff" stroke="#63b8ff" points="552.46,-575.15 563.06,-574.92 554.64,-568.49 552.46,-575.15"/>
</a>
</g>
</g>
<!-- Node20 -->
<g id="Node000020" class="node">
<title>Node20</title>
<g id="a_Node000020"><a xlink:href="namespacem__variables__conversion.html#af1bda14464459b0fd9448dd8885741c7" target="_top" xlink:title=" ">
<polygon fill="white" stroke="#666666" points="693.5,-556.5 558.5,-556.5 558.5,-515.5 693.5,-515.5 693.5,-556.5"/>
<text text-anchor="start" x="566.5" y="-544.5" font-family="Helvetica,sans-Serif" font-size="10.00">m_variables_conversion</text>
<text text-anchor="start" x="566.5" y="-533.5" font-family="Helvetica,sans-Serif" font-size="10.00">::s_convert_species_to</text>
<text text-anchor="middle" x="626" y="-522.5" font-family="Helvetica,sans-Serif" font-size="10.00">_mixture_variables_acc</text>
</a>
</g>
</g>
<!-- Node18&#45;&gt;Node20 -->
<g id="edge21_Node000018_Node000020" class="edge">
<title>Node18&#45;&gt;Node20</title>
<g id="a_edge21_Node000018_Node000020"><a xlink:title=" ">
<path fill="none" stroke="#63b8ff" d="M487.02,-511.22C506.67,-514.75 528.25,-518.62 548.39,-522.24"/>
<polygon fill="#63b8ff" stroke="#63b8ff" points="547.99,-525.72 558.45,-524.05 549.23,-518.83 547.99,-525.72"/>
</a>
</g>
</g>
<!-- Node21 -->
<g id="Node000021" class="node">
<title>Node21</title>
<g id="a_Node000021"><a xlink:href="namespacem__variables__conversion.html#a26c6917f419e63e2c721b2e184cc955f" target="_top" xlink:title=" ">
<polygon fill="white" stroke="#666666" points="714,-497.5 538,-497.5 538,-456.5 714,-456.5 714,-497.5"/>
<text text-anchor="start" x="546" y="-485.5" font-family="Helvetica,sans-Serif" font-size="10.00">m_variables_conversion</text>
<text text-anchor="start" x="546" y="-474.5" font-family="Helvetica,sans-Serif" font-size="10.00">::s_convert_species_to</text>
<text text-anchor="middle" x="626" y="-463.5" font-family="Helvetica,sans-Serif" font-size="10.00">_mixture_variables_bubbles_acc</text>
</a>
</g>
</g>
<!-- Node18&#45;&gt;Node21 -->
<g id="edge22_Node000018_Node000021" class="edge">
<title>Node18&#45;&gt;Node21</title>
<g id="a_edge22_Node000018_Node000021"><a xlink:title=" ">
<path fill="none" stroke="#63b8ff" d="M487.02,-491.74C500.13,-490.34 514.1,-488.84 527.92,-487.37"/>
<polygon fill="#63b8ff" stroke="#63b8ff" points="528.37,-490.84 537.95,-486.3 527.63,-483.88 528.37,-490.84"/>
</a>
</g>
</g>
<!-- Node22 -->
<g id="Node000022" class="node">
<title>Node22</title>
<g id="a_Node000022"><a xlink:href="namespacem__variables__conversion.html#ad79dc943a9108e838d80bb2b264fba8e" target="_top" xlink:title="Dispatch to the s_convert_mixture_to_mixture_variables and s_convert_species_to_mixture_variables sub...">
<polygon fill="white" stroke="#666666" points="693.5,-438.5 558.5,-438.5 558.5,-397.5 693.5,-397.5 693.5,-438.5"/>
<text text-anchor="start" x="566.5" y="-426.5" font-family="Helvetica,sans-Serif" font-size="10.00">m_variables_conversion</text>
<text text-anchor="start" x="566.5" y="-415.5" font-family="Helvetica,sans-Serif" font-size="10.00">::s_convert_to_mixture</text>
<text text-anchor="middle" x="626" y="-404.5" font-family="Helvetica,sans-Serif" font-size="10.00">_variables</text>
</a>
</g>
</g>
<!-- Node18&#45;&gt;Node22 -->
<g id="edge23_Node000018_Node000022" class="edge">
<title>Node18&#45;&gt;Node22</title>
<g id="a_edge23_Node000018_Node000022"><a xlink:title=" ">
<path fill="none" stroke="#63b8ff" d="M479.81,-478.47C487.37,-475.49 494.92,-472.31 502,-469 518.78,-461.15 521.16,-455.72 538,-448 542.31,-446.02 546.79,-444.1 551.35,-442.25"/>
<polygon fill="#63b8ff" stroke="#63b8ff" points="552.74,-445.46 560.76,-438.54 550.18,-438.95 552.74,-445.46"/>
</a>
</g>
</g>
<!-- Node23 -->
<g id="Node000023" class="node">
<title>Node23</title>
<g id="a_Node000023"><a xlink:href="namespacem__variables__conversion.html#a8b30b668d9de48d0bf0d53fa56116847" target="_top" xlink:title="This subroutine is designed for the gamma/pi_inf model and provided a set of either conservative or p...">
<polygon fill="white" stroke="#666666" points="894.5,-497.5 759.5,-497.5 759.5,-456.5 894.5,-456.5 894.5,-497.5"/>
<text text-anchor="start" x="767.5" y="-485.5" font-family="Helvetica,sans-Serif" font-size="10.00">m_variables_conversion</text>
<text text-anchor="start" x="767.5" y="-474.5" font-family="Helvetica,sans-Serif" font-size="10.00">::s_convert_mixture_to</text>
<text text-anchor="middle" x="827" y="-463.5" font-family="Helvetica,sans-Serif" font-size="10.00">_mixture_variables</text>
</a>
</g>
</g>
<!-- Node22&#45;&gt;Node23 -->
<g id="edge24_Node000022_Node000023" class="edge">
<title>Node22&#45;&gt;Node23</title>
<g id="a_edge24_Node000022_Node000023"><a xlink:title=" ">
<path fill="none" stroke="#63b8ff" d="M693.54,-437.73C711.45,-443.04 730.97,-448.82 749.38,-454.28"/>
<polygon fill="#63b8ff" stroke="#63b8ff" points="748.6,-457.7 759.18,-457.19 750.59,-450.99 748.6,-457.7"/>
</a>
</g>
</g>
<!-- Node24 -->
<g id="Node000024" class="node">
<title>Node24</title>
<g id="a_Node000024"><a xlink:href="namespacem__variables__conversion.html#a7f3bffa0ba13432f79f095a78fcf6e5a" target="_top" xlink:title="This subroutine is designed for the volume fraction model and provided a set of either conservative o...">
<polygon fill="white" stroke="#666666" points="894.5,-438.5 759.5,-438.5 759.5,-397.5 894.5,-397.5 894.5,-438.5"/>
<text text-anchor="start" x="767.5" y="-426.5" font-family="Helvetica,sans-Serif" font-size="10.00">m_variables_conversion</text>
<text text-anchor="start" x="767.5" y="-415.5" font-family="Helvetica,sans-Serif" font-size="10.00">::s_convert_species_to</text>
<text text-anchor="middle" x="827" y="-404.5" font-family="Helvetica,sans-Serif" font-size="10.00">_mixture_variables</text>
</a>
</g>
</g>
<!-- Node22&#45;&gt;Node24 -->
<g id="edge25_Node000022_Node000024" class="edge">
<title>Node22&#45;&gt;Node24</title>
<g id="a_edge25_Node000022_Node000024"><a xlink:title=" ">
<path fill="none" stroke="#63b8ff" d="M693.54,-418C711.37,-418 730.79,-418 749.12,-418"/>
<polygon fill="#63b8ff" stroke="#63b8ff" points="749.18,-421.5 759.18,-418 749.18,-414.5 749.18,-421.5"/>
</a>
</g>
</g>
<!-- Node25 -->
<g id="Node000025" class="node">
<title>Node25</title>
<g id="a_Node000025"><a xlink:href="namespacem__variables__conversion.html#a57f893a44db2368e82339b2993a05ff4" target="_top" xlink:title="This procedure is used alongside with the gamma/pi_inf model to transfer the density,...">
<polygon fill="white" stroke="#666666" points="904,-379.5 750,-379.5 750,-338.5 904,-338.5 904,-379.5"/>
<text text-anchor="start" x="758" y="-367.5" font-family="Helvetica,sans-Serif" font-size="10.00">m_variables_conversion</text>
<text text-anchor="start" x="758" y="-356.5" font-family="Helvetica,sans-Serif" font-size="10.00">::s_convert_species_to</text>
<text text-anchor="middle" x="827" y="-345.5" font-family="Helvetica,sans-Serif" font-size="10.00">_mixture_variables_bubbles</text>
</a>
</g>
</g>
<!-- Node22&#45;&gt;Node25 -->
<g id="edge26_Node000022_Node000025" class="edge">
<title>Node22&#45;&gt;Node25</title>
<g id="a_edge26_Node000022_Node000025"><a xlink:title=" ">
<path fill="none" stroke="#63b8ff" d="M693.54,-398.27C710.7,-393.18 729.34,-387.66 747.06,-382.4"/>
<polygon fill="#63b8ff" stroke="#63b8ff" points="748.21,-385.72 756.8,-379.52 746.22,-379 748.21,-385.72"/>
</a>
</g>
</g>
</g>
</svg>
