<?xml version="1.0" encoding="UTF-8" standalone="no"?>
<!DOCTYPE svg PUBLIC "-//W3C//DTD SVG 1.1//EN"
 "http://www.w3.org/Graphics/SVG/1.1/DTD/svg11.dtd">
<!-- Generated by graphviz version 2.43.0 (0)
 -->
<!-- Title: m_helper_basic::f_is_default Pages: 1 -->
<svg width="932pt" height="906pt"
 viewBox="0.00 0.00 932.00 906.00" xmlns="http://www.w3.org/2000/svg" xmlns:xlink="http://www.w3.org/1999/xlink">
<g id="graph0" class="graph" transform="scale(1 1) rotate(0) translate(4 902)">
<title>m_helper_basic::f_is_default</title>
<!-- Node1 -->
<g id="Node000001" class="node">
<title>Node1</title>
<g id="a_Node000001"><a xlink:title="Checks if a real(wp) variable is of default value.">
<polygon fill="#999999" stroke="#666666" points="924,-463 808,-463 808,-433 924,-433 924,-463"/>
<text text-anchor="start" x="816" y="-451" font-family="Helvetica,sans-Serif" font-size="10.00">m_helper_basic::f_is</text>
<text text-anchor="middle" x="866" y="-440" font-family="Helvetica,sans-Serif" font-size="10.00">_default</text>
</a>
</g>
</g>
<!-- Node2 -->
<g id="Node000002" class="node">
<title>Node2</title>
<g id="a_Node000002"><a xlink:href="namespacem__helper__basic.html#a35696604e5c3c1eda9a1fcdfca99de4f" target="_top" xlink:title="Checks if ALL elements of a real(wp) array are of default value.">
<polygon fill="white" stroke="#666666" points="752.5,-898 632.5,-898 632.5,-868 752.5,-868 752.5,-898"/>
<text text-anchor="start" x="640.5" y="-886" font-family="Helvetica,sans-Serif" font-size="10.00">m_helper_basic::f_all</text>
<text text-anchor="middle" x="692.5" y="-875" font-family="Helvetica,sans-Serif" font-size="10.00">_default</text>
</a>
</g>
</g>
<!-- Node1&#45;&gt;Node2 -->
<g id="edge1_Node000001_Node000002" class="edge">
<title>Node1&#45;&gt;Node2</title>
<g id="a_edge1_Node000001_Node000002"><a xlink:title=" ">
<path fill="none" stroke="#63b8ff" d="M862.55,-473.54C854.32,-554.23 825.13,-801.78 772,-859 766.67,-864.74 760,-869.13 752.82,-872.47"/>
<polygon fill="#63b8ff" stroke="#63b8ff" points="866.06,-473.59 863.57,-463.29 859.1,-472.9 866.06,-473.59"/>
</a>
</g>
</g>
<!-- Node3 -->
<g id="Node000003" class="node">
<title>Node3</title>
<g id="a_Node000003"><a xlink:href="namespacem__bubbles.html#ac1068c3570e6fe9ee995e53786e0b9a6" target="_top" xlink:title="Function that computes the bubble wall pressure for Keller–Miksis bubbles.">
<polygon fill="white" stroke="#666666" points="758,-776.5 627,-776.5 627,-757.5 758,-757.5 758,-776.5"/>
<text text-anchor="middle" x="692.5" y="-764.5" font-family="Helvetica,sans-Serif" font-size="10.00">m_bubbles::f_cpbw_km</text>
</a>
</g>
</g>
<!-- Node1&#45;&gt;Node3 -->
<g id="edge2_Node000001_Node000003" class="edge">
<title>Node1&#45;&gt;Node3</title>
<g id="a_edge2_Node000001_Node000003"><a xlink:title=" ">
<path fill="none" stroke="#63b8ff" d="M865.03,-473.17C863.67,-530.76 851.93,-672.97 772,-748 767.91,-751.84 763.18,-754.94 758.12,-757.45"/>
<polygon fill="#63b8ff" stroke="#63b8ff" points="868.53,-473.18 865.18,-463.13 861.53,-473.07 868.53,-473.18"/>
</a>
</g>
</g>
<!-- Node10 -->
<g id="Node000010" class="node">
<title>Node10</title>
<g id="a_Node000010"><a xlink:href="namespacem__bubbles.html#a478bd3280dc598dba9894451cdb3c73c" target="_top" xlink:title="Function that computes the bubble radial acceleration for Keller–Miksis bubbles.">
<polygon fill="white" stroke="#666666" points="758,-831.5 627,-831.5 627,-812.5 758,-812.5 758,-831.5"/>
<text text-anchor="middle" x="692.5" y="-819.5" font-family="Helvetica,sans-Serif" font-size="10.00">m_bubbles::f_rddot_km</text>
</a>
</g>
</g>
<!-- Node1&#45;&gt;Node10 -->
<g id="edge12_Node000001_Node000010" class="edge">
<title>Node1&#45;&gt;Node10</title>
<g id="a_edge12_Node000001_Node000010"><a xlink:title=" ">
<path fill="none" stroke="#63b8ff" d="M861.76,-473.61C851.94,-547.24 820.19,-757.24 772,-804 767.99,-807.89 763.31,-811.01 758.28,-813.5"/>
<polygon fill="#63b8ff" stroke="#63b8ff" points="865.27,-473.76 863.1,-463.39 858.33,-472.85 865.27,-473.76"/>
</a>
</g>
</g>
<!-- Node11 -->
<g id="Node000011" class="node">
<title>Node11</title>
<g id="a_Node000011"><a xlink:href="namespacem__checker.html#ae53e7ca604c26ab0fe74b9043602d4fd" target="_top" xlink:title="Checks constraints on acoustic_source parameters.">
<polygon fill="white" stroke="#666666" points="751,-739 634,-739 634,-709 751,-709 751,-739"/>
<text text-anchor="start" x="642" y="-727" font-family="Helvetica,sans-Serif" font-size="10.00">m_checker::s_check</text>
<text text-anchor="middle" x="692.5" y="-716" font-family="Helvetica,sans-Serif" font-size="10.00">_inputs_acoustic_src</text>
</a>
</g>
</g>
<!-- Node1&#45;&gt;Node11 -->
<g id="edge15_Node000001_Node000011" class="edge">
<title>Node1&#45;&gt;Node11</title>
<g id="a_edge15_Node000001_Node000011"><a xlink:title=" ">
<path fill="none" stroke="#63b8ff" d="M862.95,-473.33C857.5,-523.82 838.16,-637.49 772,-700 766.1,-705.58 758.93,-709.86 751.35,-713.15"/>
<polygon fill="#63b8ff" stroke="#63b8ff" points="866.44,-473.58 863.94,-463.28 859.48,-472.89 866.44,-473.58"/>
</a>
</g>
</g>
<!-- Node16 -->
<g id="Node000016" class="node">
<title>Node16</title>
<g id="a_Node000016"><a xlink:href="namespacem__checker.html#a3c394d83ae91d8026c551f81031cdc8e" target="_top" xlink:title="Checks constraints on body forces parameters (bf_x[y,z], etc.)">
<polygon fill="white" stroke="#666666" points="750.5,-691 634.5,-691 634.5,-661 750.5,-661 750.5,-691"/>
<text text-anchor="start" x="642.5" y="-679" font-family="Helvetica,sans-Serif" font-size="10.00">m_checker::s_check</text>
<text text-anchor="middle" x="692.5" y="-668" font-family="Helvetica,sans-Serif" font-size="10.00">_inputs_body_forces</text>
</a>
</g>
</g>
<!-- Node1&#45;&gt;Node16 -->
<g id="edge20_Node000001_Node000016" class="edge">
<title>Node1&#45;&gt;Node16</title>
<g id="a_edge20_Node000001_Node000016"><a xlink:title=" ">
<path fill="none" stroke="#63b8ff" d="M860.52,-472.96C851.52,-515.86 827.17,-603.62 772,-652 765.79,-657.45 758.36,-661.66 750.58,-664.92"/>
<polygon fill="#63b8ff" stroke="#63b8ff" points="863.97,-473.57 862.49,-463.07 857.11,-472.2 863.97,-473.57"/>
</a>
</g>
</g>
<!-- Node17 -->
<g id="Node000017" class="node">
<title>Node17</title>
<g id="a_Node000017"><a xlink:href="namespacem__checker__common.html#a9a28548179ff1dc35c035a76247ed51e" target="_top" xlink:title="Checks constraints on the bubble parameters. Called by s_check_inputs_common for pre&#45;processing and s...">
<polygon fill="white" stroke="#666666" points="772,-487 613,-487 613,-457 772,-457 772,-487"/>
<text text-anchor="start" x="621" y="-475" font-family="Helvetica,sans-Serif" font-size="10.00">m_checker_common::s</text>
<text text-anchor="middle" x="692.5" y="-464" font-family="Helvetica,sans-Serif" font-size="10.00">_check_inputs_bubbles_euler</text>
</a>
</g>
</g>
<!-- Node1&#45;&gt;Node17 -->
<g id="edge22_Node000001_Node000017" class="edge">
<title>Node1&#45;&gt;Node17</title>
<g id="a_edge22_Node000001_Node000017"><a xlink:title=" ">
<path fill="none" stroke="#63b8ff" d="M797.75,-457.41C789.32,-458.59 780.63,-459.81 772.04,-461.01"/>
<polygon fill="#63b8ff" stroke="#63b8ff" points="798.47,-460.84 807.89,-455.99 797.5,-453.91 798.47,-460.84"/>
</a>
</g>
</g>
<!-- Node19 -->
<g id="Node000019" class="node">
<title>Node19</title>
<g id="a_Node000019"><a xlink:href="namespacem__checker.html#a75646461a67d613be30bc67a0463968a" target="_top" xlink:title="Checks constraints on continuum damage model parameters.">
<polygon fill="white" stroke="#666666" points="769.5,-643 615.5,-643 615.5,-613 769.5,-613 769.5,-643"/>
<text text-anchor="start" x="623.5" y="-631" font-family="Helvetica,sans-Serif" font-size="10.00">m_checker::s_check</text>
<text text-anchor="middle" x="692.5" y="-620" font-family="Helvetica,sans-Serif" font-size="10.00">_inputs_continuum_damage</text>
</a>
</g>
</g>
<!-- Node1&#45;&gt;Node19 -->
<g id="edge25_Node000001_Node000019" class="edge">
<title>Node1&#45;&gt;Node19</title>
<g id="a_edge25_Node000001_Node000019"><a xlink:title=" ">
<path fill="none" stroke="#63b8ff" d="M856.58,-473.2C843.76,-507.74 816.07,-569.44 772,-604 767.63,-607.43 762.76,-610.37 757.66,-612.89"/>
<polygon fill="#63b8ff" stroke="#63b8ff" points="860.01,-474 860.08,-463.41 853.42,-471.64 860.01,-474"/>
</a>
</g>
</g>
<!-- Node20 -->
<g id="Node000020" class="node">
<title>Node20</title>
<g id="a_Node000020"><a xlink:href="namespacem__checker__common.html#a970fc65314cddafcf0102f416d66f4ce" target="_top" xlink:title=" ">
<polygon fill="white" stroke="#666666" points="756.5,-439 628.5,-439 628.5,-409 756.5,-409 756.5,-439"/>
<text text-anchor="start" x="636.5" y="-427" font-family="Helvetica,sans-Serif" font-size="10.00">m_checker_common::s</text>
<text text-anchor="middle" x="692.5" y="-416" font-family="Helvetica,sans-Serif" font-size="10.00">_check_inputs_mhd</text>
</a>
</g>
</g>
<!-- Node1&#45;&gt;Node20 -->
<g id="edge27_Node000001_Node000020" class="edge">
<title>Node1&#45;&gt;Node20</title>
<g id="a_edge27_Node000001_Node000020"><a xlink:title=" ">
<path fill="none" stroke="#63b8ff" d="M797.68,-438.58C784.14,-436.68 769.95,-434.7 756.56,-432.82"/>
<polygon fill="#63b8ff" stroke="#63b8ff" points="797.5,-442.09 807.89,-440.01 798.47,-435.16 797.5,-442.09"/>
</a>
</g>
</g>
<!-- Node21 -->
<g id="Node000021" class="node">
<title>Node21</title>
<g id="a_Node000021"><a xlink:href="namespacem__checker__common.html#aaf5d0bed53807e600991f52f8d75c1b5" target="_top" xlink:title="Checks constraints on the phase change parameters. Called by s_check_inputs_common for pre&#45;processing...">
<polygon fill="white" stroke="#666666" points="756.5,-390.5 628.5,-390.5 628.5,-349.5 756.5,-349.5 756.5,-390.5"/>
<text text-anchor="start" x="636.5" y="-378.5" font-family="Helvetica,sans-Serif" font-size="10.00">m_checker_common::s</text>
<text text-anchor="start" x="636.5" y="-367.5" font-family="Helvetica,sans-Serif" font-size="10.00">_check_inputs_phase</text>
<text text-anchor="middle" x="692.5" y="-356.5" font-family="Helvetica,sans-Serif" font-size="10.00">_change</text>
</a>
</g>
</g>
<!-- Node1&#45;&gt;Node21 -->
<g id="edge29_Node000001_Node000021" class="edge">
<title>Node1&#45;&gt;Node21</title>
<g id="a_edge29_Node000001_Node000021"><a xlink:title=" ">
<path fill="none" stroke="#63b8ff" d="M828.69,-428.06C811.69,-419.04 791.03,-408.52 772,-400 764.81,-396.78 757.16,-393.59 749.56,-390.55"/>
<polygon fill="#63b8ff" stroke="#63b8ff" points="827.25,-431.27 837.72,-432.9 830.56,-425.1 827.25,-431.27"/>
</a>
</g>
</g>
<!-- Node22 -->
<g id="Node000022" class="node">
<title>Node22</title>
<g id="a_Node000022"><a xlink:href="namespacem__checker__common.html#a10215566de1fcb267572be90fdf5d31a" target="_top" xlink:title="Checks constraints on the QBMM and polydisperse bubble parameters. Called by s_check_inputs_common fo...">
<polygon fill="white" stroke="#666666" points="765.5,-331.5 619.5,-331.5 619.5,-290.5 765.5,-290.5 765.5,-331.5"/>
<text text-anchor="start" x="627.5" y="-319.5" font-family="Helvetica,sans-Serif" font-size="10.00">m_checker_common::s</text>
<text text-anchor="start" x="627.5" y="-308.5" font-family="Helvetica,sans-Serif" font-size="10.00">_check_inputs_qbmm_and</text>
<text text-anchor="middle" x="692.5" y="-297.5" font-family="Helvetica,sans-Serif" font-size="10.00">_polydisperse</text>
</a>
</g>
</g>
<!-- Node1&#45;&gt;Node22 -->
<g id="edge31_Node000001_Node000022" class="edge">
<title>Node1&#45;&gt;Node22</title>
<g id="a_edge31_Node000001_Node000022"><a xlink:title=" ">
<path fill="none" stroke="#63b8ff" d="M849.62,-424.28C833.02,-400.35 804.55,-363.76 772,-341 767.1,-337.57 761.75,-334.47 756.23,-331.69"/>
<polygon fill="#63b8ff" stroke="#63b8ff" points="846.87,-426.47 855.38,-432.78 852.67,-422.54 846.87,-426.47"/>
</a>
</g>
</g>
<!-- Node23 -->
<g id="Node000023" class="node">
<title>Node23</title>
<g id="a_Node000023"><a xlink:href="namespacem__checker__common.html#a20cb17f4b2111c489c7a31856a149b32" target="_top" xlink:title="Checks constraints on the stiffened equation of state fluids parameters. Called by s_check_inputs_com...">
<polygon fill="white" stroke="#666666" points="770.5,-272 614.5,-272 614.5,-242 770.5,-242 770.5,-272"/>
<text text-anchor="start" x="622.5" y="-260" font-family="Helvetica,sans-Serif" font-size="10.00">m_checker_common::s</text>
<text text-anchor="middle" x="692.5" y="-249" font-family="Helvetica,sans-Serif" font-size="10.00">_check_inputs_stiffened_eos</text>
</a>
</g>
</g>
<!-- Node1&#45;&gt;Node23 -->
<g id="edge33_Node000001_Node000023" class="edge">
<title>Node1&#45;&gt;Node23</title>
<g id="a_edge33_Node000001_Node000023"><a xlink:title=" ">
<path fill="none" stroke="#63b8ff" d="M857.5,-422.86C845.4,-386.54 818.13,-319.63 772,-282 767.23,-278.11 761.85,-274.83 756.2,-272.05"/>
<polygon fill="#63b8ff" stroke="#63b8ff" points="854.26,-424.21 860.65,-432.66 860.93,-422.07 854.26,-424.21"/>
</a>
</g>
</g>
<!-- Node24 -->
<g id="Node000024" class="node">
<title>Node24</title>
<g id="a_Node000024"><a xlink:href="namespacem__checker.html#a45be1868d8f0598be1781280e39078d3" target="_top" xlink:title="Checks constraints on viscosity parameters (fluid_pp(i)Re(1:2)) of the stiffened gas equation of stat...">
<polygon fill="white" stroke="#666666" points="753.5,-594.5 631.5,-594.5 631.5,-553.5 753.5,-553.5 753.5,-594.5"/>
<text text-anchor="start" x="639.5" y="-582.5" font-family="Helvetica,sans-Serif" font-size="10.00">m_checker::s_check</text>
<text text-anchor="start" x="639.5" y="-571.5" font-family="Helvetica,sans-Serif" font-size="10.00">_inputs_stiffened_eos</text>
<text text-anchor="middle" x="692.5" y="-560.5" font-family="Helvetica,sans-Serif" font-size="10.00">_viscosity</text>
</a>
</g>
</g>
<!-- Node1&#45;&gt;Node24 -->
<g id="edge35_Node000001_Node000024" class="edge">
<title>Node1&#45;&gt;Node24</title>
<g id="a_edge35_Node000001_Node000024"><a xlink:title=" ">
<path fill="none" stroke="#63b8ff" d="M847.43,-471.27C830.23,-492.67 802.27,-524.03 772,-544 766.28,-547.78 760.01,-551.18 753.59,-554.21"/>
<polygon fill="#63b8ff" stroke="#63b8ff" points="850.25,-473.34 853.69,-463.32 844.75,-469.01 850.25,-473.34"/>
</a>
</g>
</g>
<!-- Node25 -->
<g id="Node000025" class="node">
<title>Node25</title>
<g id="a_Node000025"><a xlink:href="namespacem__checker__common.html#a3abeb8b799cf4729f18180fb72e6db69" target="_top" xlink:title="Checks constraints on the surface tension parameters. Called by s_check_inputs_common for all three s...">
<polygon fill="white" stroke="#666666" points="756.5,-223.5 628.5,-223.5 628.5,-182.5 756.5,-182.5 756.5,-223.5"/>
<text text-anchor="start" x="636.5" y="-211.5" font-family="Helvetica,sans-Serif" font-size="10.00">m_checker_common::s</text>
<text text-anchor="start" x="636.5" y="-200.5" font-family="Helvetica,sans-Serif" font-size="10.00">_check_inputs_surface</text>
<text text-anchor="middle" x="692.5" y="-189.5" font-family="Helvetica,sans-Serif" font-size="10.00">_tension</text>
</a>
</g>
</g>
<!-- Node1&#45;&gt;Node25 -->
<g id="edge37_Node000001_Node000025" class="edge">
<title>Node1&#45;&gt;Node25</title>
<g id="a_edge37_Node000001_Node000025"><a xlink:title=" ">
<path fill="none" stroke="#63b8ff" d="M860.75,-423.05C851.96,-378.84 827.76,-286.4 772,-233 767.47,-228.66 762.25,-224.93 756.69,-221.73"/>
<polygon fill="#63b8ff" stroke="#63b8ff" points="857.32,-423.77 862.62,-432.95 864.2,-422.47 857.32,-423.77"/>
</a>
</g>
</g>
<!-- Node26 -->
<g id="Node000026" class="node">
<title>Node26</title>
<g id="a_Node000026"><a xlink:href="namespacem__checker.html#a8abd19271bbd3a0d8a4b445f1e7dba57" target="_top" xlink:title="Checks constraints on WENO scheme parameters.">
<polygon fill="white" stroke="#666666" points="749.5,-535 635.5,-535 635.5,-505 749.5,-505 749.5,-535"/>
<text text-anchor="start" x="643.5" y="-523" font-family="Helvetica,sans-Serif" font-size="10.00">m_checker::s_check</text>
<text text-anchor="middle" x="692.5" y="-512" font-family="Helvetica,sans-Serif" font-size="10.00">_inputs_weno</text>
</a>
</g>
</g>
<!-- Node1&#45;&gt;Node26 -->
<g id="edge39_Node000001_Node000026" class="edge">
<title>Node1&#45;&gt;Node26</title>
<g id="a_edge39_Node000001_Node000026"><a xlink:title=" ">
<path fill="none" stroke="#63b8ff" d="M829.69,-468.13C812.6,-477.37 791.59,-488.02 772,-496 764.21,-499.17 755.84,-502.15 747.58,-504.87"/>
<polygon fill="#63b8ff" stroke="#63b8ff" points="831.65,-471.04 838.74,-463.17 828.29,-464.91 831.65,-471.04"/>
</a>
</g>
</g>
<!-- Node27 -->
<g id="Node000027" class="node">
<title>Node27</title>
<g id="a_Node000027"><a xlink:href="namespacem__ib__patches.html#af27bb89dad26efe5e97177d8f24862fd" target="_top" xlink:title="The cylindrical patch is a 3D geometry that may be used, for example, in setting up a cylindrical sol...">
<polygon fill="white" stroke="#666666" points="747.5,-164 637.5,-164 637.5,-134 747.5,-134 747.5,-164"/>
<text text-anchor="start" x="645.5" y="-152" font-family="Helvetica,sans-Serif" font-size="10.00">m_ib_patches::s_ib</text>
<text text-anchor="middle" x="692.5" y="-141" font-family="Helvetica,sans-Serif" font-size="10.00">_cylinder</text>
</a>
</g>
</g>
<!-- Node1&#45;&gt;Node27 -->
<g id="edge41_Node000001_Node000027" class="edge">
<title>Node1&#45;&gt;Node27</title>
<g id="a_edge41_Node000001_Node000027"><a xlink:title=" ">
<path fill="none" stroke="#63b8ff" d="M863.86,-422.65C860.05,-368.84 843.54,-242.47 772,-173 765.25,-166.45 756.77,-161.68 747.89,-158.21"/>
<polygon fill="#63b8ff" stroke="#63b8ff" points="860.37,-422.93 864.48,-432.69 867.36,-422.5 860.37,-422.93"/>
</a>
</g>
</g>
<!-- Node29 -->
<g id="Node000029" class="node">
<title>Node29</title>
<g id="a_Node000029"><a xlink:href="namespacem__acoustic__src.html#ab35bc877e24a62748ab7df0548ebd08d" target="_top" xlink:title="This subroutine initializes the acoustic source module.">
<polygon fill="white" stroke="#666666" points="767.5,-116 617.5,-116 617.5,-86 767.5,-86 767.5,-116"/>
<text text-anchor="start" x="625.5" y="-104" font-family="Helvetica,sans-Serif" font-size="10.00">m_acoustic_src::s_initialize</text>
<text text-anchor="middle" x="692.5" y="-93" font-family="Helvetica,sans-Serif" font-size="10.00">_acoustic_src</text>
</a>
</g>
</g>
<!-- Node1&#45;&gt;Node29 -->
<g id="edge43_Node000001_Node000029" class="edge">
<title>Node1&#45;&gt;Node29</title>
<g id="a_edge43_Node000001_Node000029"><a xlink:title=" ">
<path fill="none" stroke="#63b8ff" d="M865.37,-422.53C864.82,-362.16 854.83,-209.2 772,-125 768.6,-121.55 764.72,-118.59 760.55,-116.05"/>
<polygon fill="#63b8ff" stroke="#63b8ff" points="861.87,-422.68 865.38,-432.68 868.87,-422.68 861.87,-422.68"/>
</a>
</g>
</g>
<!-- Node30 -->
<g id="Node000030" class="node">
<title>Node30</title>
<g id="a_Node000030"><a xlink:href="namespacem__start__up.html#a1fb7a3f9d412acd2a9cbcfe8b45006dd" target="_top" xlink:title=" ">
<polygon fill="white" stroke="#666666" points="575,-95 445,-95 445,-65 575,-65 575,-95"/>
<text text-anchor="start" x="453" y="-83" font-family="Helvetica,sans-Serif" font-size="10.00">m_start_up::s_initialize</text>
<text text-anchor="middle" x="510" y="-72" font-family="Helvetica,sans-Serif" font-size="10.00">_modules</text>
</a>
</g>
</g>
<!-- Node1&#45;&gt;Node30 -->
<g id="edge46_Node000001_Node000030" class="edge">
<title>Node1&#45;&gt;Node30</title>
<g id="a_edge46_Node000001_Node000030"><a xlink:title=" ">
<path fill="none" stroke="#63b8ff" d="M862.63,-422.8C854.87,-346.46 827.51,-120.31 772,-77 709.12,-27.94 609.34,-47.75 553.11,-64.93"/>
<polygon fill="#63b8ff" stroke="#63b8ff" points="859.16,-423.33 863.63,-432.94 866.13,-422.64 859.16,-423.33"/>
</a>
</g>
</g>
<!-- Node31 -->
<g id="Node000031" class="node">
<title>Node31</title>
<g id="a_Node000031"><a xlink:href="namespacem__qbmm.html#aeefcb72401bfdb35dcdd81104e647a15" target="_top" xlink:title=" ">
<polygon fill="white" stroke="#666666" points="753.5,-30 631.5,-30 631.5,0 753.5,0 753.5,-30"/>
<text text-anchor="start" x="639.5" y="-18" font-family="Helvetica,sans-Serif" font-size="10.00">m_qbmm::s_initialize</text>
<text text-anchor="middle" x="692.5" y="-7" font-family="Helvetica,sans-Serif" font-size="10.00">_qbmm_module</text>
</a>
</g>
</g>
<!-- Node1&#45;&gt;Node31 -->
<g id="edge47_Node000001_Node000031" class="edge">
<title>Node1&#45;&gt;Node31</title>
<g id="a_edge47_Node000001_Node000031"><a xlink:title=" ">
<path fill="none" stroke="#63b8ff" d="M862.29,-422.49C853.39,-342.97 822.63,-101.54 772,-44 766.91,-38.22 760.57,-33.59 753.7,-29.88"/>
<polygon fill="#63b8ff" stroke="#63b8ff" points="858.83,-423.04 863.4,-432.59 865.79,-422.27 858.83,-423.04"/>
</a>
</g>
</g>
<!-- Node3&#45;&gt;Node3 -->
<g id="edge3_Node000003_Node000003" class="edge">
<title>Node3&#45;&gt;Node3</title>
<g id="a_edge3_Node000003_Node000003"><a xlink:title=" ">
<path fill="none" stroke="#63b8ff" d="M724.69,-784.95C723.77,-790.32 713.04,-794.5 692.5,-794.5 661.93,-794.5 653.09,-785.23 665.99,-776.58"/>
<polygon fill="#63b8ff" stroke="#63b8ff" points="727.52,-782.89 719.01,-776.58 721.73,-786.82 727.52,-782.89"/>
</a>
</g>
</g>
<!-- Node4 -->
<g id="Node000004" class="node">
<title>Node4</title>
<g id="a_Node000004"><a xlink:href="namespacem__bubbles.html#adb6097eda424f5e9fe16a9897b6a6b17" target="_top" xlink:title="Function that computes the bubble radial acceleration based on bubble models.">
<polygon fill="white" stroke="#666666" points="565,-829.5 455,-829.5 455,-810.5 565,-810.5 565,-829.5"/>
<text text-anchor="middle" x="510" y="-817.5" font-family="Helvetica,sans-Serif" font-size="10.00">m_bubbles::f_rddot</text>
</a>
</g>
</g>
<!-- Node3&#45;&gt;Node4 -->
<g id="edge4_Node000003_Node000004" class="edge">
<title>Node3&#45;&gt;Node4</title>
<g id="a_edge4_Node000003_Node000004"><a xlink:title=" ">
<path fill="none" stroke="#63b8ff" d="M649.18,-779.43C616.87,-788.91 573.01,-801.79 543.44,-810.47"/>
<polygon fill="#63b8ff" stroke="#63b8ff" points="650.2,-782.77 658.81,-776.6 648.23,-776.06 650.2,-782.77"/>
</a>
</g>
</g>
<!-- Node8 -->
<g id="Node000008" class="node">
<title>Node8</title>
<g id="a_Node000008"><a xlink:href="namespacem__riemann__solvers.html#a6c9d70572e9b98586bab20b028557a5a" target="_top" xlink:title="This procedure is the implementation of the Harten, Lax, van Leer, and contact (HLLC) approximate Rie...">
<polygon fill="white" stroke="#666666" points="572.5,-782 447.5,-782 447.5,-752 572.5,-752 572.5,-782"/>
<text text-anchor="start" x="455.5" y="-770" font-family="Helvetica,sans-Serif" font-size="10.00">m_riemann_solvers::</text>
<text text-anchor="middle" x="510" y="-759" font-family="Helvetica,sans-Serif" font-size="10.00">s_hllc_riemann_solver</text>
</a>
</g>
</g>
<!-- Node3&#45;&gt;Node8 -->
<g id="edge10_Node000003_Node000008" class="edge">
<title>Node3&#45;&gt;Node8</title>
<g id="a_edge10_Node000003_Node000008"><a xlink:title=" ">
<path fill="none" stroke="#63b8ff" d="M616.81,-767C602.17,-767 586.96,-767 572.79,-767"/>
<polygon fill="#63b8ff" stroke="#63b8ff" points="616.85,-770.5 626.85,-767 616.85,-763.5 616.85,-770.5"/>
</a>
</g>
</g>
<!-- Node4&#45;&gt;Node4 -->
<g id="edge5_Node000004_Node000004" class="edge">
<title>Node4&#45;&gt;Node4</title>
<g id="a_edge5_Node000004_Node000004"><a xlink:title=" ">
<path fill="none" stroke="#63b8ff" d="M540.99,-838.32C539.69,-843.51 529.36,-847.5 510,-847.5 480.5,-847.5 471.97,-838.23 484.41,-829.58"/>
<polygon fill="#63b8ff" stroke="#63b8ff" points="543.82,-836.25 535.59,-829.58 537.87,-839.93 543.82,-836.25"/>
</a>
</g>
</g>
<!-- Node5 -->
<g id="Node000005" class="node">
<title>Node5</title>
<g id="a_Node000005"><a xlink:href="namespacem__bubbles.html#a58b32597dfaefbb21cf23ca74203c5ad" target="_top" xlink:title="Integrate bubble variables over the given time step size, h, using a third&#45;order accurate embedded Ru...">
<polygon fill="white" stroke="#666666" points="407,-881 279,-881 279,-851 407,-851 407,-881"/>
<text text-anchor="start" x="287" y="-869" font-family="Helvetica,sans-Serif" font-size="10.00">m_bubbles::s_advance</text>
<text text-anchor="middle" x="343" y="-858" font-family="Helvetica,sans-Serif" font-size="10.00">_substep</text>
</a>
</g>
</g>
<!-- Node4&#45;&gt;Node5 -->
<g id="edge6_Node000004_Node000005" class="edge">
<title>Node4&#45;&gt;Node5</title>
<g id="a_edge6_Node000004_Node000005"><a xlink:title=" ">
<path fill="none" stroke="#63b8ff" d="M465.06,-832.25C444.45,-838 419.7,-844.9 397.96,-850.96"/>
<polygon fill="#63b8ff" stroke="#63b8ff" points="466.12,-835.59 474.81,-829.53 464.24,-828.85 466.12,-835.59"/>
</a>
</g>
</g>
<!-- Node7 -->
<g id="Node000007" class="node">
<title>Node7</title>
<g id="a_Node000007"><a xlink:href="namespacem__bubbles.html#ab94791da6f5cbc767853c8c5208a3eb0" target="_top" xlink:title="Choose the initial time step size for the adaptive time stepping routine (See Heirer,...">
<polygon fill="white" stroke="#666666" points="400,-833 286,-833 286,-803 400,-803 400,-833"/>
<text text-anchor="start" x="294" y="-821" font-family="Helvetica,sans-Serif" font-size="10.00">m_bubbles::s_initial</text>
<text text-anchor="middle" x="343" y="-810" font-family="Helvetica,sans-Serif" font-size="10.00">_substep_h</text>
</a>
</g>
</g>
<!-- Node4&#45;&gt;Node7 -->
<g id="edge8_Node000004_Node000007" class="edge">
<title>Node4&#45;&gt;Node7</title>
<g id="a_edge8_Node000004_Node000007"><a xlink:title=" ">
<path fill="none" stroke="#63b8ff" d="M444.9,-819.22C430.13,-819.04 414.53,-818.85 400.13,-818.68"/>
<polygon fill="#63b8ff" stroke="#63b8ff" points="444.93,-822.72 454.97,-819.35 445.02,-815.72 444.93,-822.72"/>
</a>
</g>
</g>
<!-- Node6 -->
<g id="Node000006" class="node">
<title>Node6</title>
<g id="a_Node000006"><a xlink:href="namespacem__bubbles.html#a8fa7693467966aebe329db289e1fd8e0" target="_top" xlink:title="Adaptive time stepping routine for subgrid bubbles (See Heirer, E. Hairer S.P.Nørsett G....">
<polygon fill="white" stroke="#666666" points="243,-851.5 89,-851.5 89,-832.5 243,-832.5 243,-851.5"/>
<text text-anchor="middle" x="166" y="-839.5" font-family="Helvetica,sans-Serif" font-size="10.00">m_bubbles::s_advance_step</text>
</a>
</g>
</g>
<!-- Node5&#45;&gt;Node6 -->
<g id="edge7_Node000005_Node000006" class="edge">
<title>Node5&#45;&gt;Node6</title>
<g id="a_edge7_Node000005_Node000006"><a xlink:title=" ">
<path fill="none" stroke="#63b8ff" d="M268.66,-855.94C257.94,-854.47 246.94,-852.96 236.31,-851.5"/>
<polygon fill="#63b8ff" stroke="#63b8ff" points="268.44,-859.44 278.82,-857.34 269.39,-852.51 268.44,-859.44"/>
</a>
</g>
</g>
<!-- Node7&#45;&gt;Node6 -->
<g id="edge9_Node000007_Node000006" class="edge">
<title>Node7&#45;&gt;Node6</title>
<g id="a_edge9_Node000007_Node000006"><a xlink:title=" ">
<path fill="none" stroke="#63b8ff" d="M275.56,-827.11C262.75,-828.87 249.31,-830.71 236.41,-832.48"/>
<polygon fill="#63b8ff" stroke="#63b8ff" points="276.23,-830.55 285.67,-825.73 275.28,-823.62 276.23,-830.55"/>
</a>
</g>
</g>
<!-- Node9 -->
<g id="Node000009" class="node">
<title>Node9</title>
<g id="a_Node000009"><a xlink:href="namespacem__riemann__solvers.html#aff6e3d5abdabe6ce6fccbb7a081766e6" target="_top" xlink:title="Dispatch to the subroutines that are utilized to compute the Riemann problem solution....">
<polygon fill="white" stroke="#666666" points="402.5,-782 283.5,-782 283.5,-752 402.5,-752 402.5,-782"/>
<text text-anchor="start" x="291.5" y="-770" font-family="Helvetica,sans-Serif" font-size="10.00">m_riemann_solvers::</text>
<text text-anchor="middle" x="343" y="-759" font-family="Helvetica,sans-Serif" font-size="10.00">s_riemann_solver</text>
</a>
</g>
</g>
<!-- Node8&#45;&gt;Node9 -->
<g id="edge11_Node000008_Node000009" class="edge">
<title>Node8&#45;&gt;Node9</title>
<g id="a_edge11_Node000008_Node000009"><a xlink:title=" ">
<path fill="none" stroke="#63b8ff" d="M436.74,-767C425.37,-767 413.73,-767 402.71,-767"/>
<polygon fill="#63b8ff" stroke="#63b8ff" points="437.09,-770.5 447.09,-767 437.09,-763.5 437.09,-770.5"/>
</a>
</g>
</g>
<!-- Node10&#45;&gt;Node4 -->
<g id="edge13_Node000010_Node000004" class="edge">
<title>Node10&#45;&gt;Node4</title>
<g id="a_edge13_Node000010_Node000004"><a xlink:title=" ">
<path fill="none" stroke="#63b8ff" d="M616.76,-821.17C599.43,-820.98 581.32,-820.78 565.09,-820.6"/>
<polygon fill="#63b8ff" stroke="#63b8ff" points="616.81,-824.67 626.85,-821.28 616.88,-817.67 616.81,-824.67"/>
</a>
</g>
</g>
<!-- Node10&#45;&gt;Node10 -->
<g id="edge14_Node000010_Node000010" class="edge">
<title>Node10&#45;&gt;Node10</title>
<g id="a_edge14_Node000010_Node000010"><a xlink:title=" ">
<path fill="none" stroke="#63b8ff" d="M724.69,-839.95C723.77,-845.32 713.04,-849.5 692.5,-849.5 661.93,-849.5 653.09,-840.23 665.99,-831.58"/>
<polygon fill="#63b8ff" stroke="#63b8ff" points="727.52,-837.89 719.01,-831.58 721.73,-841.82 727.52,-837.89"/>
</a>
</g>
</g>
<!-- Node12 -->
<g id="Node000012" class="node">
<title>Node12</title>
<g id="a_Node000012"><a xlink:href="namespacem__checker.html#a214e05cb46bc7c3e0dbe55fdc433c072" target="_top" xlink:title="Checks compatibility of parameters in the input file. Used by the simulation stage.">
<polygon fill="white" stroke="#666666" points="567,-616 453,-616 453,-586 567,-586 567,-616"/>
<text text-anchor="start" x="461" y="-604" font-family="Helvetica,sans-Serif" font-size="10.00">m_checker::s_check</text>
<text text-anchor="middle" x="510" y="-593" font-family="Helvetica,sans-Serif" font-size="10.00">_inputs</text>
</a>
</g>
</g>
<!-- Node11&#45;&gt;Node12 -->
<g id="edge16_Node000011_Node000012" class="edge">
<title>Node11&#45;&gt;Node12</title>
<g id="a_edge16_Node000011_Node000012"><a xlink:title=" ">
<path fill="none" stroke="#63b8ff" d="M624.51,-705.96C620.53,-704.14 616.66,-702.16 613,-700 574.75,-677.41 539.86,-637.64 522.52,-616.02"/>
<polygon fill="#63b8ff" stroke="#63b8ff" points="623.39,-709.29 633.97,-709.91 626.09,-702.83 623.39,-709.29"/>
</a>
</g>
</g>
<!-- Node13 -->
<g id="Node000013" class="node">
<title>Node13</title>
<g id="a_Node000013"><a xlink:href="namespacem__start__up.html#ad26e747c87bb6bcf4c9d6baa21d044c1" target="_top" xlink:title="The goal of this procedure is to verify that each of the user provided inputs is valid and that their...">
<polygon fill="white" stroke="#666666" points="401,-355 285,-355 285,-325 401,-325 401,-355"/>
<text text-anchor="start" x="293" y="-343" font-family="Helvetica,sans-Serif" font-size="10.00">m_start_up::s_check</text>
<text text-anchor="middle" x="343" y="-332" font-family="Helvetica,sans-Serif" font-size="10.00">_input_file</text>
</a>
</g>
</g>
<!-- Node12&#45;&gt;Node13 -->
<g id="edge17_Node000012_Node000013" class="edge">
<title>Node12&#45;&gt;Node13</title>
<g id="a_edge17_Node000012_Node000013"><a xlink:title=" ">
<path fill="none" stroke="#63b8ff" d="M493.92,-577.15C460.53,-524.34 381.15,-398.77 353.61,-355.2"/>
<polygon fill="#63b8ff" stroke="#63b8ff" points="491.11,-579.26 499.42,-585.84 497.03,-575.52 491.11,-579.26"/>
</a>
</g>
</g>
<!-- Node14 -->
<g id="Node000014" class="node">
<title>Node14</title>
<g id="a_Node000014"><a xlink:href="namespacem__start__up.html#ab64542f13c680e17ce8879c77c65c0e0" target="_top" xlink:title=" ">
<polygon fill="white" stroke="#666666" points="231,-303 101,-303 101,-273 231,-273 231,-303"/>
<text text-anchor="start" x="109" y="-291" font-family="Helvetica,sans-Serif" font-size="10.00">m_start_up::s_initialize</text>
<text text-anchor="middle" x="166" y="-280" font-family="Helvetica,sans-Serif" font-size="10.00">_mpi_domain</text>
</a>
</g>
</g>
<!-- Node13&#45;&gt;Node14 -->
<g id="edge18_Node000013_Node000014" class="edge">
<title>Node13&#45;&gt;Node14</title>
<g id="a_edge18_Node000013_Node000014"><a xlink:title=" ">
<path fill="none" stroke="#63b8ff" d="M281.64,-322.07C260.74,-315.85 237.53,-308.96 217.5,-303.01"/>
<polygon fill="#63b8ff" stroke="#63b8ff" points="280.8,-325.47 291.38,-324.96 282.79,-318.76 280.8,-325.47"/>
</a>
</g>
</g>
<!-- Node15 -->
<g id="Node000015" class="node">
<title>Node15</title>
<g id="a_Node000015"><a xlink:href="p__main_8fpp_8f90.html#aeec10ee8e2940c953967da3e374e1579" target="_top" xlink:title="Quasi&#45;conservative, shock&#45; and interface&#45; capturing finite&#45;volume scheme for the multicomponent Navie...">
<polygon fill="white" stroke="#666666" points="53,-192.5 0,-192.5 0,-173.5 53,-173.5 53,-192.5"/>
<text text-anchor="middle" x="26.5" y="-180.5" font-family="Helvetica,sans-Serif" font-size="10.00">p_main</text>
</a>
</g>
</g>
<!-- Node14&#45;&gt;Node15 -->
<g id="edge19_Node000014_Node000015" class="edge">
<title>Node14&#45;&gt;Node15</title>
<g id="a_edge19_Node000014_Node000015"><a xlink:title=" ">
<path fill="none" stroke="#63b8ff" d="M137.04,-266.65C107.45,-244.05 62.08,-209.4 40.18,-192.69"/>
<polygon fill="#63b8ff" stroke="#63b8ff" points="135.23,-269.67 145.3,-272.96 139.48,-264.11 135.23,-269.67"/>
</a>
</g>
</g>
<!-- Node16&#45;&gt;Node12 -->
<g id="edge21_Node000016_Node000012" class="edge">
<title>Node16&#45;&gt;Node12</title>
<g id="a_edge21_Node000016_Node000012"><a xlink:title=" ">
<path fill="none" stroke="#63b8ff" d="M628.01,-657.59C622.9,-655.8 617.84,-653.93 613,-652 586.89,-641.57 558.37,-627.02 538.14,-616.13"/>
<polygon fill="#63b8ff" stroke="#63b8ff" points="627.28,-661.04 637.88,-660.92 629.52,-654.41 627.28,-661.04"/>
</a>
</g>
</g>
<!-- Node18 -->
<g id="Node000018" class="node">
<title>Node18</title>
<g id="a_Node000018"><a xlink:href="namespacem__checker__common.html#a37b5025d5e6ffafc4cb5f417387c21b8" target="_top" xlink:title="Checks compatibility of parameters in the input file. Used by all three stages.">
<polygon fill="white" stroke="#666666" points="577,-355 443,-355 443,-325 577,-325 577,-355"/>
<text text-anchor="start" x="451" y="-343" font-family="Helvetica,sans-Serif" font-size="10.00">m_checker_common::s</text>
<text text-anchor="middle" x="510" y="-332" font-family="Helvetica,sans-Serif" font-size="10.00">_check_inputs_common</text>
</a>
</g>
</g>
<!-- Node17&#45;&gt;Node18 -->
<g id="edge23_Node000017_Node000018" class="edge">
<title>Node17&#45;&gt;Node18</title>
<g id="a_edge23_Node000017_Node000018"><a xlink:title=" ">
<path fill="none" stroke="#63b8ff" d="M621.24,-452.6C618.4,-451.17 615.64,-449.64 613,-448 572.9,-423.12 538.01,-378.62 521.37,-355.27"/>
<polygon fill="#63b8ff" stroke="#63b8ff" points="619.98,-455.88 630.53,-456.85 622.89,-449.51 619.98,-455.88"/>
</a>
</g>
</g>
<!-- Node18&#45;&gt;Node13 -->
<g id="edge24_Node000018_Node000013" class="edge">
<title>Node18&#45;&gt;Node13</title>
<g id="a_edge24_Node000018_Node000013"><a xlink:title=" ">
<path fill="none" stroke="#63b8ff" d="M432.72,-340C422.09,-340 411.33,-340 401.14,-340"/>
<polygon fill="#63b8ff" stroke="#63b8ff" points="432.84,-343.5 442.84,-340 432.84,-336.5 432.84,-343.5"/>
</a>
</g>
</g>
<!-- Node19&#45;&gt;Node12 -->
<g id="edge26_Node000019_Node000012" class="edge">
<title>Node19&#45;&gt;Node12</title>
<g id="a_edge26_Node000019_Node000012"><a xlink:title=" ">
<path fill="none" stroke="#63b8ff" d="M605.55,-615.14C592.52,-613.19 579.37,-611.23 567.19,-609.41"/>
<polygon fill="#63b8ff" stroke="#63b8ff" points="605.07,-618.61 615.47,-616.63 606.1,-611.69 605.07,-618.61"/>
</a>
</g>
</g>
<!-- Node20&#45;&gt;Node18 -->
<g id="edge28_Node000020_Node000018" class="edge">
<title>Node20&#45;&gt;Node18</title>
<g id="a_edge28_Node000020_Node000018"><a xlink:title=" ">
<path fill="none" stroke="#63b8ff" d="M626.73,-405.53C622.04,-403.79 617.42,-401.94 613,-400 584.22,-387.35 553.41,-368.39 533.27,-355.18"/>
<polygon fill="#63b8ff" stroke="#63b8ff" points="625.83,-408.93 636.42,-408.97 628.16,-402.33 625.83,-408.93"/>
</a>
</g>
</g>
<!-- Node21&#45;&gt;Node18 -->
<g id="edge30_Node000021_Node000018" class="edge">
<title>Node21&#45;&gt;Node18</title>
<g id="a_edge30_Node000021_Node000018"><a xlink:title=" ">
<path fill="none" stroke="#63b8ff" d="M618.13,-357.81C604.57,-355.55 590.49,-353.21 577.16,-351"/>
<polygon fill="#63b8ff" stroke="#63b8ff" points="617.93,-361.32 628.37,-359.51 619.08,-354.42 617.93,-361.32"/>
</a>
</g>
</g>
<!-- Node22&#45;&gt;Node18 -->
<g id="edge32_Node000022_Node000018" class="edge">
<title>Node22&#45;&gt;Node18</title>
<g id="a_edge32_Node000022_Node000018"><a xlink:title=" ">
<path fill="none" stroke="#63b8ff" d="M609.5,-324.17C598.67,-325.92 587.67,-327.68 577.15,-329.37"/>
<polygon fill="#63b8ff" stroke="#63b8ff" points="610.07,-327.63 619.38,-322.59 608.95,-320.72 610.07,-327.63"/>
</a>
</g>
</g>
<!-- Node23&#45;&gt;Node18 -->
<g id="edge34_Node000023_Node000018" class="edge">
<title>Node23&#45;&gt;Node18</title>
<g id="a_edge34_Node000023_Node000018"><a xlink:title=" ">
<path fill="none" stroke="#63b8ff" d="M629.49,-275.4C623.86,-277.48 618.29,-279.68 613,-282 584.82,-294.34 554.4,-312.3 534.18,-324.96"/>
<polygon fill="#63b8ff" stroke="#63b8ff" points="630.74,-278.68 639,-272.04 628.4,-272.08 630.74,-278.68"/>
</a>
</g>
</g>
<!-- Node24&#45;&gt;Node12 -->
<g id="edge36_Node000024_Node000012" class="edge">
<title>Node24&#45;&gt;Node12</title>
<g id="a_edge36_Node000024_Node000012"><a xlink:title=" ">
<path fill="none" stroke="#63b8ff" d="M621.28,-584.5C603.35,-587.19 584.3,-590.03 567.18,-592.6"/>
<polygon fill="#63b8ff" stroke="#63b8ff" points="622.02,-587.93 631.4,-582.99 620.99,-581.01 622.02,-587.93"/>
</a>
</g>
</g>
<!-- Node25&#45;&gt;Node18 -->
<g id="edge38_Node000025_Node000018" class="edge">
<title>Node25&#45;&gt;Node18</title>
<g id="a_edge38_Node000025_Node000018"><a xlink:title=" ">
<path fill="none" stroke="#63b8ff" d="M620.88,-228.17C618.17,-229.71 615.53,-231.32 613,-233 574.11,-258.88 538.96,-302.04 521.89,-324.83"/>
<polygon fill="#63b8ff" stroke="#63b8ff" points="622.51,-231.27 629.75,-223.53 619.27,-225.07 622.51,-231.27"/>
</a>
</g>
</g>
<!-- Node26&#45;&gt;Node12 -->
<g id="edge40_Node000026_Node000012" class="edge">
<title>Node26&#45;&gt;Node12</title>
<g id="a_edge40_Node000026_Node000012"><a xlink:title=" ">
<path fill="none" stroke="#63b8ff" d="M629.8,-538.39C624.07,-540.48 618.39,-542.69 613,-545 585.52,-556.79 555.72,-573.66 535.47,-585.8"/>
<polygon fill="#63b8ff" stroke="#63b8ff" points="631.18,-541.61 639.46,-535 628.87,-535.01 631.18,-541.61"/>
</a>
</g>
</g>
<!-- Node28 -->
<g id="Node000028" class="node">
<title>Node28</title>
<g id="a_Node000028"><a xlink:href="namespacem__ib__patches.html#a0540992ae9a59ea772d591a5fa9a63fb" target="_top" xlink:title=" ">
<polygon fill="white" stroke="#666666" points="574,-164 446,-164 446,-134 574,-134 574,-164"/>
<text text-anchor="start" x="454" y="-152" font-family="Helvetica,sans-Serif" font-size="10.00">m_ib_patches::s_apply</text>
<text text-anchor="middle" x="510" y="-141" font-family="Helvetica,sans-Serif" font-size="10.00">_ib_patches</text>
</a>
</g>
</g>
<!-- Node27&#45;&gt;Node28 -->
<g id="edge42_Node000027_Node000028" class="edge">
<title>Node27&#45;&gt;Node28</title>
<g id="a_edge42_Node000027_Node000028"><a xlink:title=" ">
<path fill="none" stroke="#63b8ff" d="M627.33,-149C610,-149 591.27,-149 574,-149"/>
<polygon fill="#63b8ff" stroke="#63b8ff" points="627.34,-152.5 637.34,-149 627.34,-145.5 627.34,-152.5"/>
</a>
</g>
</g>
<!-- Node29&#45;&gt;Node30 -->
<g id="edge44_Node000029_Node000030" class="edge">
<title>Node29&#45;&gt;Node30</title>
<g id="a_edge44_Node000029_Node000030"><a xlink:title=" ">
<path fill="none" stroke="#63b8ff" d="M607.06,-91.18C596.31,-89.93 585.46,-88.66 575.11,-87.46"/>
<polygon fill="#63b8ff" stroke="#63b8ff" points="606.96,-94.69 617.3,-92.37 607.77,-87.74 606.96,-94.69"/>
</a>
</g>
</g>
<!-- Node30&#45;&gt;Node15 -->
<g id="edge45_Node000030_Node000015" class="edge">
<title>Node30&#45;&gt;Node15</title>
<g id="a_edge45_Node000030_Node000015"><a xlink:title=" ">
<path fill="none" stroke="#63b8ff" d="M434.53,-95.93C324.54,-119.46 124.03,-162.35 53.15,-177.51"/>
<polygon fill="#63b8ff" stroke="#63b8ff" points="435.52,-99.3 444.56,-93.78 434.05,-92.45 435.52,-99.3"/>
</a>
</g>
</g>
<!-- Node31&#45;&gt;Node30 -->
<g id="edge48_Node000031_Node000030" class="edge">
<title>Node31&#45;&gt;Node30</title>
<g id="a_edge48_Node000031_Node000030"><a xlink:title=" ">
<path fill="none" stroke="#63b8ff" d="M640.15,-33.49C612.55,-43.43 578.96,-55.53 552.95,-64.89"/>
<polygon fill="#63b8ff" stroke="#63b8ff" points="641.41,-36.76 649.64,-30.08 639.04,-30.17 641.41,-36.76"/>
</a>
</g>
</g>
</g>
</svg>
