<?xml version="1.0" encoding="UTF-8" standalone="no"?>
<!DOCTYPE svg PUBLIC "-//W3C//DTD SVG 1.1//EN"
 "http://www.w3.org/Graphics/SVG/1.1/DTD/svg11.dtd">
<!-- Generated by graphviz version 2.43.0 (0)
 -->
<!-- Title: m_bubbles::s_initial_substep_h Pages: 1 -->
<!--zoomable 485 -->

<svg id="main" version="1.1" xmlns="http://www.w3.org/2000/svg" xmlns:xlink="http://www.w3.org/1999/xlink" xml:space="preserve" onload="init(evt)">

<style type="text/css"><![CDATA[
.node, .edge {opacity: 0.7;}
.node.selected, .edge.selected {opacity: 1;}
.edge:hover path { stroke: red; }
.edge:hover polygon { stroke: red; fill: red; }
]]></style>

<defs>
  <circle id="rim" cx="0" cy="0" r="7"/>
  <circle id="rim2" cx="0" cy="0" r="3.5"/>
  <g id="zoomPlus">
    <use xlink:href="#rim" fill="#404040"><set attributeName="fill" to="#808080" begin="zoomplus.mouseover" end="zoomplus.mouseout"/></use>
    <path d="M-4,0h8M0,-4v8" fill="none" stroke="white" stroke-width="1.5" pointer-events="none"/>
  </g>
  <g id="zoomMin">
    <use xlink:href="#rim" fill="#404040"><set attributeName="fill" to="#808080" begin="zoomminus.mouseover" end="zoomminus.mouseout"/></use>
    <path d="M-4,0h8" fill="none" stroke="white" stroke-width="1.5" pointer-events="none"/>
  </g>
  <g id="arrowUp" transform="translate(30 24)">
    <use xlink:href="#rim"/>
    <path pointer-events="none" fill="none" stroke="white" stroke-width="1.5" d="M0,-3.0v7 M-2.5,-0.5L0,-3.0L2.5,-0.5"/>
  </g>
  <g id="arrowRight" transform="rotate(90) translate(36 -43)">
    <use xlink:href="#rim"/>
    <path pointer-events="none" fill="none" stroke="white" stroke-width="1.5" d="M0,-3.0v7 M-2.5,-0.5L0,-3.0L2.5,-0.5"/>
  </g>
  <g id="arrowDown" transform="rotate(180) translate(-30 -48)">
    <use xlink:href="#rim"/>
    <path pointer-events="none" fill="none" stroke="white" stroke-width="1.5" d="M0,-3.0v7 M-2.5,-0.5L0,-3.0L2.5,-0.5"/>
  </g>
  <g id="arrowLeft" transform="rotate(270) translate(-36 17)">
    <use xlink:href="#rim"/>
    <path pointer-events="none" fill="none" stroke="white" stroke-width="1.5" d="M0,-3.0v7 M-2.5,-0.5L0,-3.0L2.5,-0.5"/>
  </g>
  <g id="resetDef">
    <use xlink:href="#rim2" fill="#404040"><set attributeName="fill" to="#808080" begin="reset.mouseover" end="reset.mouseout"/></use>
  </g>
</defs>
<script type="application/ecmascript">
var viewWidth = 765;
var viewHeight = 485;
var sectionId = 'dynsection-27';
</script>
<script type="application/ecmascript" xlink:href="svg.min.js"/>
<svg id="graph" class="graph">
<g id="viewport">
<title>m_bubbles::s_initial_substep_h</title>
<!-- Node1 -->
<g id="Node000001" class="node">
<title>Node1</title>
<g id="a_Node000001"><a xlink:title="Choose the initial time step size for the adaptive time stepping routine (See Heirer,...">
<polygon fill="#999999" stroke="#666666" points="114,-244.5 0,-244.5 0,-214.5 114,-214.5 114,-244.5"/>
<text text-anchor="start" x="8" y="-232.5" font-family="Helvetica,sans-Serif" font-size="10.00">m_bubbles::s_initial</text>
<text text-anchor="middle" x="57" y="-221.5" font-family="Helvetica,sans-Serif" font-size="10.00">_substep_h</text>
</a>
</g>
</g>
<!-- Node2 -->
<g id="Node000002" class="node">
<title>Node2</title>
<g id="a_Node000002"><a xlink:href="namespacem__bubbles.html#adb6097eda424f5e9fe16a9897b6a6b17" target="_top" xlink:title="Function that computes the bubble radial acceleration based on bubble models.">
<polygon fill="white" stroke="#666666" points="260,-239 150,-239 150,-220 260,-220 260,-239"/>
<text text-anchor="middle" x="205" y="-227" font-family="Helvetica,sans-Serif" font-size="10.00">m_bubbles::f_rddot</text>
</a>
</g>
</g>
<!-- Node1&#45;&gt;Node2 -->
<g id="edge1_Node000001_Node000002" class="edge">
<title>Node1&#45;&gt;Node2</title>
<g id="a_edge1_Node000001_Node000002"><a xlink:title=" ">
<path fill="none" stroke="#63b8ff" d="M114.03,-229.5C122.38,-229.5 131.04,-229.5 139.54,-229.5"/>
<polygon fill="#63b8ff" stroke="#63b8ff" points="139.8,-233 149.8,-229.5 139.8,-226 139.8,-233"/>
</a>
</g>
</g>
<!-- Node2&#45;&gt;Node2 -->
<g id="edge16_Node000002_Node000002" class="edge">
<title>Node2&#45;&gt;Node2</title>
<g id="a_edge16_Node000002_Node000002"><a xlink:title=" ">
<path fill="none" stroke="#63b8ff" d="M182.19,-239.08C171.09,-247.73 178.7,-257 205,-257 221.85,-257 231.03,-253.2 232.53,-248.19"/>
<polygon fill="#63b8ff" stroke="#63b8ff" points="235.52,-246.35 227.81,-239.08 229.3,-249.57 235.52,-246.35"/>
</a>
</g>
</g>
<!-- Node3 -->
<g id="Node000003" class="node">
<title>Node3</title>
<g id="a_Node000003"><a xlink:href="namespacem__bubbles.html#a53e6e39d716a7ca3343e7fc4d0374786" target="_top" xlink:title="Function that computes the sound speed for the bubble.">
<polygon fill="white" stroke="#666666" points="415,-459 308,-459 308,-440 415,-440 415,-459"/>
<text text-anchor="middle" x="361.5" y="-447" font-family="Helvetica,sans-Serif" font-size="10.00">m_bubbles::f_cgas</text>
</a>
</g>
</g>
<!-- Node2&#45;&gt;Node3 -->
<g id="edge2_Node000002_Node000003" class="edge">
<title>Node2&#45;&gt;Node3</title>
<g id="a_edge2_Node000002_Node000003"><a xlink:title=" ">
<path fill="none" stroke="#63b8ff" d="M207.38,-239.23C212.5,-271.75 233.5,-377.58 296,-431.5 297.36,-432.67 298.79,-433.77 300.28,-434.8"/>
<polygon fill="#63b8ff" stroke="#63b8ff" points="298.92,-438.05 309.35,-439.94 302.38,-431.96 298.92,-438.05"/>
</a>
</g>
</g>
<!-- Node4 -->
<g id="Node000004" class="node">
<title>Node4</title>
<g id="a_Node000004"><a xlink:href="namespacem__bubbles.html#a4fc09a55ce6ae29cd54ca2063c0b0276" target="_top" xlink:title="Function that computes that bubble wall pressure for Gilmore bubbles.">
<polygon fill="white" stroke="#666666" points="416.5,-404 306.5,-404 306.5,-385 416.5,-385 416.5,-404"/>
<text text-anchor="middle" x="361.5" y="-392" font-family="Helvetica,sans-Serif" font-size="10.00">m_bubbles::f_cpbw</text>
</a>
</g>
</g>
<!-- Node2&#45;&gt;Node4 -->
<g id="edge4_Node000002_Node000004" class="edge">
<title>Node2&#45;&gt;Node4</title>
<g id="a_edge4_Node000002_Node000004"><a xlink:title=" ">
<path fill="none" stroke="#63b8ff" d="M209.07,-239.11C217.96,-265.39 246.33,-338.99 296,-376.5 297.85,-377.89 299.8,-379.18 301.82,-380.37"/>
<polygon fill="#63b8ff" stroke="#63b8ff" points="300.59,-383.66 311.1,-384.96 303.69,-377.39 300.59,-383.66"/>
</a>
</g>
</g>
<!-- Node5 -->
<g id="Node000005" class="node">
<title>Node5</title>
<g id="a_Node000005"><a xlink:href="namespacem__bubbles.html#ac1068c3570e6fe9ee995e53786e0b9a6" target="_top" xlink:title="Function that computes the bubble wall pressure for Keller–Miksis bubbles.">
<polygon fill="white" stroke="#666666" points="427,-349 296,-349 296,-330 427,-330 427,-349"/>
<text text-anchor="middle" x="361.5" y="-337" font-family="Helvetica,sans-Serif" font-size="10.00">m_bubbles::f_cpbw_km</text>
</a>
</g>
</g>
<!-- Node2&#45;&gt;Node5 -->
<g id="edge6_Node000002_Node000005" class="edge">
<title>Node2&#45;&gt;Node5</title>
<g id="a_edge6_Node000002_Node000005"><a xlink:title=" ">
<path fill="none" stroke="#63b8ff" d="M212.72,-239.19C226.24,-257.97 258.69,-299.43 296,-321.5 298.85,-323.19 301.87,-324.72 304.98,-326.12"/>
<polygon fill="#63b8ff" stroke="#63b8ff" points="303.92,-329.46 314.51,-329.9 306.5,-322.96 303.92,-329.46"/>
</a>
</g>
</g>
<!-- Node8 -->
<g id="Node000008" class="node">
<title>Node8</title>
<g id="a_Node000008"><a xlink:href="namespacem__bubbles.html#af06491fe4291e4bb671d649b59345308" target="_top" xlink:title="Function that computes the time derivative of the driving pressure.">
<polygon fill="white" stroke="#666666" points="424,-294 299,-294 299,-275 424,-275 424,-294"/>
<text text-anchor="middle" x="361.5" y="-282" font-family="Helvetica,sans-Serif" font-size="10.00">m_bubbles::f_cpinfdot</text>
</a>
</g>
</g>
<!-- Node2&#45;&gt;Node8 -->
<g id="edge10_Node000002_Node000008" class="edge">
<title>Node2&#45;&gt;Node8</title>
<g id="a_edge10_Node000002_Node000008"><a xlink:title=" ">
<path fill="none" stroke="#63b8ff" d="M227.19,-239.04C245.26,-246.98 272.04,-258.26 296,-266.5 301.63,-268.44 307.6,-270.32 313.53,-272.09"/>
<polygon fill="#63b8ff" stroke="#63b8ff" points="312.85,-275.54 323.43,-274.96 314.8,-268.82 312.85,-275.54"/>
</a>
</g>
</g>
<!-- Node9 -->
<g id="Node000009" class="node">
<title>Node9</title>
<g id="a_Node000009"><a xlink:href="namespacem__bubbles.html#a38ad5dd1503f3d854b1c23b9675e5d83" target="_top" xlink:title="Function that computes the bubble enthalpy.">
<polygon fill="white" stroke="#666666" points="407,-239 316,-239 316,-220 407,-220 407,-239"/>
<text text-anchor="middle" x="361.5" y="-227" font-family="Helvetica,sans-Serif" font-size="10.00">m_bubbles::f_h</text>
</a>
</g>
</g>
<!-- Node2&#45;&gt;Node9 -->
<g id="edge12_Node000002_Node000009" class="edge">
<title>Node2&#45;&gt;Node9</title>
<g id="a_edge12_Node000002_Node000009"><a xlink:title=" ">
<path fill="none" stroke="#63b8ff" d="M260.04,-229.5C274.88,-229.5 290.99,-229.5 305.87,-229.5"/>
<polygon fill="#63b8ff" stroke="#63b8ff" points="305.95,-233 315.95,-229.5 305.95,-226 305.95,-233"/>
</a>
</g>
</g>
<!-- Node10 -->
<g id="Node000010" class="node">
<title>Node10</title>
<g id="a_Node000010"><a xlink:href="namespacem__bubbles.html#ab0b3749626a898721261bb1973f43398" target="_top" xlink:title="Function that computes the time derivative of the enthalpy.">
<polygon fill="white" stroke="#666666" points="415,-184 308,-184 308,-165 415,-165 415,-184"/>
<text text-anchor="middle" x="361.5" y="-172" font-family="Helvetica,sans-Serif" font-size="10.00">m_bubbles::f_hdot</text>
</a>
</g>
</g>
<!-- Node2&#45;&gt;Node10 -->
<g id="edge14_Node000002_Node000010" class="edge">
<title>Node2&#45;&gt;Node10</title>
<g id="a_edge14_Node000002_Node000010"><a xlink:title=" ">
<path fill="none" stroke="#63b8ff" d="M232.91,-219.92C258.2,-210.92 296.24,-197.38 324.2,-187.42"/>
<polygon fill="#63b8ff" stroke="#63b8ff" points="325.39,-190.71 333.64,-184.06 323.04,-184.12 325.39,-190.71"/>
</a>
</g>
</g>
<!-- Node11 -->
<g id="Node000011" class="node">
<title>Node11</title>
<g id="a_Node000011"><a xlink:href="namespacem__bubbles.html#a0ef55948f88c7f013effeb81614675cd" target="_top" xlink:title="Function that computes the bubble radial acceleration.">
<polygon fill="white" stroke="#666666" points="422.5,-129 300.5,-129 300.5,-110 422.5,-110 422.5,-129"/>
<text text-anchor="middle" x="361.5" y="-117" font-family="Helvetica,sans-Serif" font-size="10.00">m_bubbles::f_rddot_g</text>
</a>
</g>
</g>
<!-- Node2&#45;&gt;Node11 -->
<g id="edge17_Node000002_Node000011" class="edge">
<title>Node2&#45;&gt;Node11</title>
<g id="a_edge17_Node000002_Node000011"><a xlink:title=" ">
<path fill="none" stroke="#63b8ff" d="M216.64,-219.92C233.05,-205.37 265.8,-177.21 296,-156.5 307.76,-148.43 321.38,-140.44 333.07,-133.96"/>
<polygon fill="#63b8ff" stroke="#63b8ff" points="334.85,-136.97 341.95,-129.11 331.5,-130.83 334.85,-136.97"/>
</a>
</g>
</g>
<!-- Node12 -->
<g id="Node000012" class="node">
<title>Node12</title>
<g id="a_Node000012"><a xlink:href="namespacem__bubbles.html#a478bd3280dc598dba9894451cdb3c73c" target="_top" xlink:title="Function that computes the bubble radial acceleration for Keller–Miksis bubbles.">
<polygon fill="white" stroke="#666666" points="427,-74 296,-74 296,-55 427,-55 427,-74"/>
<text text-anchor="middle" x="361.5" y="-62" font-family="Helvetica,sans-Serif" font-size="10.00">m_bubbles::f_rddot_km</text>
</a>
</g>
</g>
<!-- Node2&#45;&gt;Node12 -->
<g id="edge19_Node000002_Node000012" class="edge">
<title>Node2&#45;&gt;Node12</title>
<g id="a_edge19_Node000002_Node000012"><a xlink:title=" ">
<path fill="none" stroke="#63b8ff" d="M210.91,-219.75C222.86,-196.79 255.45,-138.48 296,-101.5 305.84,-92.53 318.21,-84.78 329.49,-78.73"/>
<polygon fill="#63b8ff" stroke="#63b8ff" points="331.32,-81.72 338.62,-74.05 328.13,-75.49 331.32,-81.72"/>
</a>
</g>
</g>
<!-- Node13 -->
<g id="Node000013" class="node">
<title>Node13</title>
<g id="a_Node000013"><a xlink:href="namespacem__bubbles.html#ae8ed6ca836ab2dc31d3038587bc56d18" target="_top" xlink:title="Function that computes the bubble radial acceleration for Rayleigh&#45;Plesset bubbles.">
<polygon fill="white" stroke="#666666" points="424,-19 299,-19 299,0 424,0 424,-19"/>
<text text-anchor="middle" x="361.5" y="-7" font-family="Helvetica,sans-Serif" font-size="10.00">m_bubbles::f_rddot_rp</text>
</a>
</g>
</g>
<!-- Node2&#45;&gt;Node13 -->
<g id="edge22_Node000002_Node000013" class="edge">
<title>Node2&#45;&gt;Node13</title>
<g id="a_edge22_Node000002_Node000013"><a xlink:title=" ">
<path fill="none" stroke="#63b8ff" d="M208.51,-219.99C216.63,-190.82 244.64,-101.24 296,-46.5 304.76,-37.16 316.42,-29.5 327.42,-23.62"/>
<polygon fill="#63b8ff" stroke="#63b8ff" points="329.05,-26.72 336.42,-19.11 325.91,-20.46 329.05,-26.72"/>
</a>
</g>
</g>
<!-- Node3&#45;&gt;Node3 -->
<g id="edge3_Node000003_Node000003" class="edge">
<title>Node3&#45;&gt;Node3</title>
<g id="a_edge3_Node000003_Node000003"><a xlink:title=" ">
<path fill="none" stroke="#63b8ff" d="M337.46,-459.08C325.76,-467.73 333.77,-477 361.5,-477 379.7,-477 389.4,-473.01 390.62,-467.82"/>
<polygon fill="#63b8ff" stroke="#63b8ff" points="393.59,-465.97 385.54,-459.08 387.54,-469.49 393.59,-465.97"/>
</a>
</g>
</g>
<!-- Node4&#45;&gt;Node4 -->
<g id="edge5_Node000004_Node000004" class="edge">
<title>Node4&#45;&gt;Node4</title>
<g id="a_edge5_Node000004_Node000004"><a xlink:title=" ">
<path fill="none" stroke="#63b8ff" d="M337.46,-404.08C325.76,-412.73 333.77,-422 361.5,-422 379.7,-422 389.4,-418.01 390.62,-412.82"/>
<polygon fill="#63b8ff" stroke="#63b8ff" points="393.59,-410.97 385.54,-404.08 387.54,-414.49 393.59,-410.97"/>
</a>
</g>
</g>
<!-- Node5&#45;&gt;Node5 -->
<g id="edge7_Node000005_Node000005" class="edge">
<title>Node5&#45;&gt;Node5</title>
<g id="a_edge7_Node000005_Node000005"><a xlink:title=" ">
<path fill="none" stroke="#63b8ff" d="M337.46,-349.08C325.76,-357.73 333.77,-367 361.5,-367 379.7,-367 389.4,-363.01 390.62,-357.82"/>
<polygon fill="#63b8ff" stroke="#63b8ff" points="393.59,-355.97 385.54,-349.08 387.54,-359.49 393.59,-355.97"/>
</a>
</g>
</g>
<!-- Node6 -->
<g id="Node000006" class="node">
<title>Node6</title>
<g id="a_Node000006"><a xlink:href="namespacem__helper__basic.html#a345e205ced0b0674a22f59a2c1549eb4" target="_top" xlink:title="Checks if a real(wp) variable is of default value.">
<polygon fill="white" stroke="#666666" points="579,-216.5 463,-216.5 463,-186.5 579,-186.5 579,-216.5"/>
<text text-anchor="start" x="471" y="-204.5" font-family="Helvetica,sans-Serif" font-size="10.00">m_helper_basic::f_is</text>
<text text-anchor="middle" x="521" y="-193.5" font-family="Helvetica,sans-Serif" font-size="10.00">_default</text>
</a>
</g>
</g>
<!-- Node5&#45;&gt;Node6 -->
<g id="edge8_Node000005_Node000006" class="edge">
<title>Node5&#45;&gt;Node6</title>
<g id="a_edge8_Node000005_Node000006"><a xlink:title=" ">
<path fill="none" stroke="#63b8ff" d="M410.2,-329.98C416.13,-327.72 421.89,-324.94 427,-321.5 463.79,-296.77 492.38,-252.75 507.66,-225.45"/>
<polygon fill="#63b8ff" stroke="#63b8ff" points="510.8,-227.01 512.51,-216.55 504.65,-223.66 510.8,-227.01"/>
</a>
</g>
</g>
<!-- Node7 -->
<g id="Node000007" class="node">
<title>Node7</title>
<g id="a_Node000007"><a xlink:href="namespacem__helper__basic.html#a58590a12d49b9b884256a839f2be8610" target="_top" xlink:title="This procedure checks if two floating point numbers of wp are within tolerance.">
<polygon fill="white" stroke="#666666" points="757,-216.5 615,-216.5 615,-186.5 757,-186.5 757,-216.5"/>
<text text-anchor="start" x="623" y="-204.5" font-family="Helvetica,sans-Serif" font-size="10.00">m_helper_basic::f_approx</text>
<text text-anchor="middle" x="686" y="-193.5" font-family="Helvetica,sans-Serif" font-size="10.00">_equal</text>
</a>
</g>
</g>
<!-- Node6&#45;&gt;Node7 -->
<g id="edge9_Node000006_Node000007" class="edge">
<title>Node6&#45;&gt;Node7</title>
<g id="a_edge9_Node000006_Node000007"><a xlink:title=" ">
<path fill="none" stroke="#63b8ff" d="M579.01,-201.5C587.32,-201.5 596.01,-201.5 604.68,-201.5"/>
<polygon fill="#63b8ff" stroke="#63b8ff" points="604.83,-205 614.83,-201.5 604.83,-198 604.83,-205"/>
</a>
</g>
</g>
<!-- Node8&#45;&gt;Node8 -->
<g id="edge11_Node000008_Node000008" class="edge">
<title>Node8&#45;&gt;Node8</title>
<g id="a_edge11_Node000008_Node000008"><a xlink:title=" ">
<path fill="none" stroke="#63b8ff" d="M337.46,-294.08C325.76,-302.73 333.77,-312 361.5,-312 379.7,-312 389.4,-308.01 390.62,-302.82"/>
<polygon fill="#63b8ff" stroke="#63b8ff" points="393.59,-300.97 385.54,-294.08 387.54,-304.49 393.59,-300.97"/>
</a>
</g>
</g>
<!-- Node9&#45;&gt;Node9 -->
<g id="edge13_Node000009_Node000009" class="edge">
<title>Node9&#45;&gt;Node9</title>
<g id="a_edge13_Node000009_Node000009"><a xlink:title=" ">
<path fill="none" stroke="#63b8ff" d="M337.46,-239.08C325.76,-247.73 333.77,-257 361.5,-257 379.7,-257 389.4,-253.01 390.62,-247.82"/>
<polygon fill="#63b8ff" stroke="#63b8ff" points="393.59,-245.97 385.54,-239.08 387.54,-249.49 393.59,-245.97"/>
</a>
</g>
</g>
<!-- Node10&#45;&gt;Node10 -->
<g id="edge15_Node000010_Node000010" class="edge">
<title>Node10&#45;&gt;Node10</title>
<g id="a_edge15_Node000010_Node000010"><a xlink:title=" ">
<path fill="none" stroke="#63b8ff" d="M337.46,-184.08C325.76,-192.73 333.77,-202 361.5,-202 379.7,-202 389.4,-198.01 390.62,-192.82"/>
<polygon fill="#63b8ff" stroke="#63b8ff" points="393.59,-190.97 385.54,-184.08 387.54,-194.49 393.59,-190.97"/>
</a>
</g>
</g>
<!-- Node11&#45;&gt;Node11 -->
<g id="edge18_Node000011_Node000011" class="edge">
<title>Node11&#45;&gt;Node11</title>
<g id="a_edge18_Node000011_Node000011"><a xlink:title=" ">
<path fill="none" stroke="#63b8ff" d="M337.46,-129.08C325.76,-137.73 333.77,-147 361.5,-147 379.7,-147 389.4,-143.01 390.62,-137.82"/>
<polygon fill="#63b8ff" stroke="#63b8ff" points="393.59,-135.97 385.54,-129.08 387.54,-139.49 393.59,-135.97"/>
</a>
</g>
</g>
<!-- Node12&#45;&gt;Node6 -->
<g id="edge20_Node000012_Node000006" class="edge">
<title>Node12&#45;&gt;Node6</title>
<g id="a_edge20_Node000012_Node000006"><a xlink:title=" ">
<path fill="none" stroke="#63b8ff" d="M382.67,-74.07C395.91,-80.82 413.25,-90.58 427,-101.5 456.01,-124.54 484.25,-156.71 501.86,-178.28"/>
<polygon fill="#63b8ff" stroke="#63b8ff" points="499.29,-180.67 508.28,-186.26 504.74,-176.28 499.29,-180.67"/>
</a>
</g>
</g>
<!-- Node12&#45;&gt;Node12 -->
<g id="edge21_Node000012_Node000012" class="edge">
<title>Node12&#45;&gt;Node12</title>
<g id="a_edge21_Node000012_Node000012"><a xlink:title=" ">
<path fill="none" stroke="#63b8ff" d="M337.46,-74.08C325.76,-82.73 333.77,-92 361.5,-92 379.7,-92 389.4,-88.01 390.62,-82.82"/>
<polygon fill="#63b8ff" stroke="#63b8ff" points="393.59,-80.97 385.54,-74.08 387.54,-84.49 393.59,-80.97"/>
</a>
</g>
</g>
<!-- Node13&#45;&gt;Node13 -->
<g id="edge23_Node000013_Node000013" class="edge">
<title>Node13&#45;&gt;Node13</title>
<g id="a_edge23_Node000013_Node000013"><a xlink:title=" ">
<path fill="none" stroke="#63b8ff" d="M337.46,-19.08C325.76,-27.73 333.77,-37 361.5,-37 379.7,-37 389.4,-33.01 390.62,-27.82"/>
<polygon fill="#63b8ff" stroke="#63b8ff" points="393.59,-25.97 385.54,-19.08 387.54,-29.49 393.59,-25.97"/>
</a>
</g>
</g>
</g>
</svg>

<g id="navigator" transform="translate(0 0)" fill="#404254">
  <rect fill="#f2f5e9" fill-opacity="0.5" stroke="#606060" stroke-width=".5" x="0" y="0" width="60" height="60"/>
  <use id="zoomplus" xlink:href="#zoomPlus" x="17" y="9" onmousedown="handleZoom(evt,'in')"/>
  <use id="zoomminus" xlink:href="#zoomMin" x="42" y="9" onmousedown="handleZoom(evt,'out')"/>
  <use id="reset" xlink:href="#resetDef" x="30" y="36" onmousedown="handleReset()"/>
   <use id="arrowup" xlink:href="#arrowUp" x="0" y="0" onmousedown="handlePan(0,-1)"/>
  <use id="arrowright" xlink:href="#arrowRight" x="0" y="0" onmousedown="handlePan(1,0)"/>
  <use id="arrowdown" xlink:href="#arrowDown" x="0" y="0" onmousedown="handlePan(0,1)"/>
  <use id="arrowleft" xlink:href="#arrowLeft" x="0" y="0" onmousedown="handlePan(-1,0)"/>
</g>
<svg viewBox="0 0 15 15" width="100%" height="30px" preserveAspectRatio="xMaxYMin meet">
 <g id="arrow_out" transform="scale(0.3 0.3)">
  <a xlink:href="namespacem__bubbles_ab94791da6f5cbc767853c8c5208a3eb0_cgraph_org.svg" target="_base">
   <rect id="button" ry="5" rx="5" y="6" x="6" height="38" width="38"
        fill="#f2f5e9" fill-opacity="0.5" stroke="#606060" stroke-width="1.0"/>
   <path id="arrow"
     d="M 11.500037,31.436501 C 11.940474,20.09759 22.043105,11.32322 32.158766,21.979434 L 37.068811,17.246167 C 37.068811,17.246167 37.088388,32 37.088388,32 L 22.160133,31.978069 C 22.160133,31.978069 26.997745,27.140456 26.997745,27.140456 C 18.528582,18.264221 13.291696,25.230495 11.500037,31.436501 z"
     style="fill:#404040;"/>
  </a>
 </g>
</svg>

<style type='text/css'>
<![CDATA[
[data-mouse-over-selected='false'] { opacity: 0.7; }
[data-mouse-over-selected='true']  { opacity: 1.0; }
]]>
</style>
<script type="application/ecmascript"><![CDATA[
document.addEventListener('DOMContentLoaded', (event) => {
  highlightEdges();
  highlightAdjacentNodes();
});
]]></script>
</svg>
