<?xml version="1.0" encoding="UTF-8" standalone="no"?>
<!DOCTYPE svg PUBLIC "-//W3C//DTD SVG 1.1//EN"
 "http://www.w3.org/Graphics/SVG/1.1/DTD/svg11.dtd">
<!-- Generated by graphviz version 2.43.0 (0)
 -->
<!-- Title: m_bubbles_el::s_update_lagrange_tdv_rk Pages: 1 -->
<svg width="323pt" height="182pt"
 viewBox="0.00 0.00 323.00 182.00" xmlns="http://www.w3.org/2000/svg" xmlns:xlink="http://www.w3.org/1999/xlink">

<svg id="main" version="1.1" xmlns="http://www.w3.org/2000/svg" xmlns:xlink="http://www.w3.org/1999/xlink" xml:space="preserve">

<style type="text/css"><![CDATA[
.node, .edge {opacity: 0.7;}
.node.selected, .edge.selected {opacity: 1;}
.edge:hover path { stroke: red; }
.edge:hover polygon { stroke: red; fill: red; }
]]></style>
<script type="application/ecmascript" xlink:href="svg.min.js"/>
<svg id="graph" class="graph">
<g id="graph0" class="graph" transform="scale(1 1) rotate(0) translate(4 178)">
<title>m_bubbles_el::s_update_lagrange_tdv_rk</title>
<!-- Node1 -->
<g id="Node000001" class="node">
<title>Node1</title>
<g id="a_Node000001"><a xlink:title="This subroutine updates the Lagrange variables using the tvd RK time steppers. The time derivative of...">
<polygon fill="#999999" stroke="#666666" points="134,-102 0,-102 0,-72 134,-72 134,-102"/>
<text text-anchor="start" x="8" y="-90" font-family="Helvetica,sans-Serif" font-size="10.00">m_bubbles_el::s_update</text>
<text text-anchor="middle" x="67" y="-79" font-family="Helvetica,sans-Serif" font-size="10.00">_lagrange_tdv_rk</text>
</a>
</g>
</g>
<!-- Node2 -->
<g id="Node000002" class="node">
<title>Node2</title>
<g id="a_Node000002"><a xlink:href="namespacem__bubbles__el.html#aadb79cf703ad58474131c83e3d601531" target="_top" xlink:title="This procedure calculates the maximum and minimum radius of each bubble.">
<polygon fill="white" stroke="#666666" points="315,-174 170,-174 170,-144 315,-144 315,-174"/>
<text text-anchor="start" x="178" y="-162" font-family="Helvetica,sans-Serif" font-size="10.00">m_bubbles_el::s_calculate</text>
<text text-anchor="middle" x="242.5" y="-151" font-family="Helvetica,sans-Serif" font-size="10.00">_lag_bubble_stats</text>
</a>
</g>
</g>
<!-- Node1&#45;&gt;Node2 -->
<g id="edge1_Node000001_Node000002" class="edge">
<title>Node1&#45;&gt;Node2</title>
<g id="a_edge1_Node000001_Node000002"><a xlink:title=" ">
<path fill="none" stroke="#63b8ff" d="M97.94,-102.22C118.06,-112.15 145.3,-125.08 170,-135 174.66,-136.87 179.54,-138.72 184.45,-140.52"/>
<polygon fill="#63b8ff" stroke="#63b8ff" points="183.32,-143.83 193.91,-143.89 185.67,-137.23 183.32,-143.83"/>
</a>
</g>
</g>
<!-- Node3 -->
<g id="Node000003" class="node">
<title>Node3</title>
<g id="a_Node000003"><a xlink:href="namespacem__bubbles__el.html#aa0c5b6674d08854ad7c1b0947c8dc9af" target="_top" xlink:title="This subroutine transfer data into the temporal variables.">
<polygon fill="white" stroke="#666666" points="312,-126 173,-126 173,-96 312,-96 312,-126"/>
<text text-anchor="start" x="181" y="-114" font-family="Helvetica,sans-Serif" font-size="10.00">m_bubbles_el::s_transfer</text>
<text text-anchor="middle" x="242.5" y="-103" font-family="Helvetica,sans-Serif" font-size="10.00">_data_to_tmp</text>
</a>
</g>
</g>
<!-- Node1&#45;&gt;Node3 -->
<g id="edge2_Node000001_Node000003" class="edge">
<title>Node1&#45;&gt;Node3</title>
<g id="a_edge2_Node000001_Node000003"><a xlink:title=" ">
<path fill="none" stroke="#63b8ff" d="M134.09,-96.14C143.47,-97.44 153.19,-98.78 162.79,-100.11"/>
<polygon fill="#63b8ff" stroke="#63b8ff" points="162.33,-103.58 172.71,-101.48 163.29,-96.65 162.33,-103.58"/>
</a>
</g>
</g>
<!-- Node4 -->
<g id="Node000004" class="node">
<title>Node4</title>
<g id="a_Node000004"><a xlink:href="namespacem__bubbles__el.html#ad95a33b738403ed6a3b3c683da08d5e4" target="_top" xlink:title="Subroutine that writes on each time step the changes of the lagrangian bubbles.">
<polygon fill="white" stroke="#666666" points="305,-78 180,-78 180,-48 305,-48 305,-78"/>
<text text-anchor="start" x="188" y="-66" font-family="Helvetica,sans-Serif" font-size="10.00">m_bubbles_el::s_write</text>
<text text-anchor="middle" x="242.5" y="-55" font-family="Helvetica,sans-Serif" font-size="10.00">_lag_particles</text>
</a>
</g>
</g>
<!-- Node1&#45;&gt;Node4 -->
<g id="edge3_Node000001_Node000004" class="edge">
<title>Node1&#45;&gt;Node4</title>
<g id="a_edge3_Node000001_Node000004"><a xlink:title=" ">
<path fill="none" stroke="#63b8ff" d="M134.09,-77.86C145.72,-76.25 157.87,-74.57 169.65,-72.94"/>
<polygon fill="#63b8ff" stroke="#63b8ff" points="170.45,-76.36 179.88,-71.52 169.49,-69.43 170.45,-76.36"/>
</a>
</g>
</g>
<!-- Node5 -->
<g id="Node000005" class="node">
<title>Node5</title>
<g id="a_Node000005"><a xlink:href="namespacem__bubbles__el.html#a995d5e4cf38eb4a0ba5b072914f523e9" target="_top" xlink:title="Subroutine that writes some useful statistics related to the volume fraction of the particles (void f...">
<polygon fill="white" stroke="#666666" points="305,-30 180,-30 180,0 305,0 305,-30"/>
<text text-anchor="start" x="188" y="-18" font-family="Helvetica,sans-Serif" font-size="10.00">m_bubbles_el::s_write</text>
<text text-anchor="middle" x="242.5" y="-7" font-family="Helvetica,sans-Serif" font-size="10.00">_void_evol</text>
</a>
</g>
</g>
<!-- Node1&#45;&gt;Node5 -->
<g id="edge4_Node000001_Node000005" class="edge">
<title>Node1&#45;&gt;Node5</title>
<g id="a_edge4_Node000001_Node000005"><a xlink:title=" ">
<path fill="none" stroke="#63b8ff" d="M97.94,-71.78C118.06,-61.85 145.3,-48.92 170,-39 174.66,-37.13 179.54,-35.28 184.45,-33.48"/>
<polygon fill="#63b8ff" stroke="#63b8ff" points="185.67,-36.77 193.91,-30.11 183.32,-30.17 185.67,-36.77"/>
</a>
</g>
</g>
</g>
</svg>
</svg>

<style type='text/css'>
<![CDATA[
[data-mouse-over-selected='false'] { opacity: 0.7; }
[data-mouse-over-selected='true']  { opacity: 1.0; }
]]>
</style>
<script type="application/ecmascript"><![CDATA[
document.addEventListener('DOMContentLoaded', (event) => {
  highlightEdges();
  highlightAdjacentNodes();
});
]]></script>
</svg>
