<?xml version="1.0" encoding="UTF-8" standalone="no"?>
<!DOCTYPE svg PUBLIC "-//W3C//DTD SVG 1.1//EN"
 "http://www.w3.org/Graphics/SVG/1.1/DTD/svg11.dtd">
<!-- Generated by graphviz version 2.43.0 (0)
 -->
<!-- Title: m_bubbles_el::s_initialize_bubbles_el_module Pages: 1 -->
<!--zoomable 364 -->

<svg id="main" version="1.1" xmlns="http://www.w3.org/2000/svg" xmlns:xlink="http://www.w3.org/1999/xlink" xml:space="preserve" onload="init(evt)">

<style type="text/css"><![CDATA[
.node, .edge {opacity: 0.7;}
.node.selected, .edge.selected {opacity: 1;}
.edge:hover path { stroke: red; }
.edge:hover polygon { stroke: red; fill: red; }
]]></style>

<defs>
  <circle id="rim" cx="0" cy="0" r="7"/>
  <circle id="rim2" cx="0" cy="0" r="3.5"/>
  <g id="zoomPlus">
    <use xlink:href="#rim" fill="#404040"><set attributeName="fill" to="#808080" begin="zoomplus.mouseover" end="zoomplus.mouseout"/></use>
    <path d="M-4,0h8M0,-4v8" fill="none" stroke="white" stroke-width="1.5" pointer-events="none"/>
  </g>
  <g id="zoomMin">
    <use xlink:href="#rim" fill="#404040"><set attributeName="fill" to="#808080" begin="zoomminus.mouseover" end="zoomminus.mouseout"/></use>
    <path d="M-4,0h8" fill="none" stroke="white" stroke-width="1.5" pointer-events="none"/>
  </g>
  <g id="arrowUp" transform="translate(30 24)">
    <use xlink:href="#rim"/>
    <path pointer-events="none" fill="none" stroke="white" stroke-width="1.5" d="M0,-3.0v7 M-2.5,-0.5L0,-3.0L2.5,-0.5"/>
  </g>
  <g id="arrowRight" transform="rotate(90) translate(36 -43)">
    <use xlink:href="#rim"/>
    <path pointer-events="none" fill="none" stroke="white" stroke-width="1.5" d="M0,-3.0v7 M-2.5,-0.5L0,-3.0L2.5,-0.5"/>
  </g>
  <g id="arrowDown" transform="rotate(180) translate(-30 -48)">
    <use xlink:href="#rim"/>
    <path pointer-events="none" fill="none" stroke="white" stroke-width="1.5" d="M0,-3.0v7 M-2.5,-0.5L0,-3.0L2.5,-0.5"/>
  </g>
  <g id="arrowLeft" transform="rotate(270) translate(-36 17)">
    <use xlink:href="#rim"/>
    <path pointer-events="none" fill="none" stroke="white" stroke-width="1.5" d="M0,-3.0v7 M-2.5,-0.5L0,-3.0L2.5,-0.5"/>
  </g>
  <g id="resetDef">
    <use xlink:href="#rim2" fill="#404040"><set attributeName="fill" to="#808080" begin="reset.mouseover" end="reset.mouseout"/></use>
  </g>
</defs>
<script type="application/ecmascript">
var viewWidth = 674;
var viewHeight = 364;
var sectionId = 'dynsection-13';
</script>
<script type="application/ecmascript" xlink:href="svg.min.js"/>
<svg id="graph" class="graph">
<g id="viewport">
<title>m_bubbles_el::s_initialize_bubbles_el_module</title>
<!-- Node1 -->
<g id="Node000001" class="node">
<title>Node1</title>
<g id="a_Node000001"><a xlink:title="Initializes the lagrangian subgrid bubble solver.">
<polygon fill="#999999" stroke="#666666" points="143,-174 0,-174 0,-144 143,-144 143,-174"/>
<text text-anchor="start" x="8" y="-162" font-family="Helvetica,sans-Serif" font-size="10.00">m_bubbles_el::s_initialize</text>
<text text-anchor="middle" x="71.5" y="-151" font-family="Helvetica,sans-Serif" font-size="10.00">_bubbles_el_module</text>
</a>
</g>
</g>
<!-- Node2 -->
<g id="Node000002" class="node">
<title>Node2</title>
<g id="a_Node000002"><a xlink:href="namespacem__bubbles__el.html#a3949f9675072f6d58218a03b46be1325" target="_top" xlink:title="The purpose of this procedure is to obtain the initial bubbles&#39; information.">
<polygon fill="white" stroke="#666666" points="301.5,-198 179.5,-198 179.5,-168 301.5,-168 301.5,-198"/>
<text text-anchor="start" x="187.5" y="-186" font-family="Helvetica,sans-Serif" font-size="10.00">m_bubbles_el::s_read</text>
<text text-anchor="middle" x="240.5" y="-175" font-family="Helvetica,sans-Serif" font-size="10.00">_input_bubbles</text>
</a>
</g>
</g>
<!-- Node1&#45;&gt;Node2 -->
<g id="edge1_Node000001_Node000002" class="edge">
<title>Node1&#45;&gt;Node2</title>
<g id="a_edge1_Node000001_Node000002"><a xlink:title=" ">
<path fill="none" stroke="#63b8ff" d="M143.32,-169.18C151.95,-170.42 160.76,-171.68 169.38,-172.92"/>
<polygon fill="#63b8ff" stroke="#63b8ff" points="168.98,-176.4 179.38,-174.36 169.98,-169.47 168.98,-176.4"/>
</a>
</g>
</g>
<!-- Node12 -->
<g id="Node000012" class="node">
<title>Node12</title>
<g id="a_Node000012"><a xlink:href="namespacem__bubbles__el.html#a102735026dc3b11c9883673d8143144b" target="_top" xlink:title="The purpose of this procedure is to start lagrange bubble parameters applying nondimensionalization i...">
<polygon fill="white" stroke="#666666" points="302,-150 179,-150 179,-120 302,-120 302,-150"/>
<text text-anchor="start" x="187" y="-138" font-family="Helvetica,sans-Serif" font-size="10.00">m_bubbles_el::s_start</text>
<text text-anchor="middle" x="240.5" y="-127" font-family="Helvetica,sans-Serif" font-size="10.00">_lagrange_inputs</text>
</a>
</g>
</g>
<!-- Node1&#45;&gt;Node12 -->
<g id="edge14_Node000001_Node000012" class="edge">
<title>Node1&#45;&gt;Node12</title>
<g id="a_edge14_Node000001_Node000012"><a xlink:title=" ">
<path fill="none" stroke="#63b8ff" d="M143.32,-148.82C151.73,-147.61 160.31,-146.38 168.72,-145.17"/>
<polygon fill="#63b8ff" stroke="#63b8ff" points="169.46,-148.6 178.86,-143.72 168.46,-141.67 169.46,-148.6"/>
</a>
</g>
</g>
<!-- Node3 -->
<g id="Node000003" class="node">
<title>Node3</title>
<g id="a_Node000003"><a xlink:href="namespacem__bubbles__el.html#a5c35a2029c31e5cf38948feea44a101a" target="_top" xlink:title="The purpose of this procedure is to determine if the lagrangian bubble is located in the physical dom...">
<polygon fill="white" stroke="#666666" points="653,-187 526,-187 526,-157 653,-157 653,-187"/>
<text text-anchor="start" x="534" y="-175" font-family="Helvetica,sans-Serif" font-size="10.00">m_bubbles_el::particle</text>
<text text-anchor="middle" x="589.5" y="-164" font-family="Helvetica,sans-Serif" font-size="10.00">_in_domain_physical</text>
</a>
</g>
</g>
<!-- Node2&#45;&gt;Node3 -->
<g id="edge2_Node000002_Node000003" class="edge">
<title>Node2&#45;&gt;Node3</title>
<g id="a_edge2_Node000002_Node000003"><a xlink:title=" ">
<path fill="none" stroke="#63b8ff" d="M264.14,-198.04C283,-209.61 311.04,-224.67 338,-231 398.14,-245.13 417.04,-245.89 477,-231 506.89,-223.58 537.59,-206.51 559.19,-192.63"/>
<polygon fill="#63b8ff" stroke="#63b8ff" points="561.14,-195.53 567.57,-187.11 557.29,-189.68 561.14,-195.53"/>
</a>
</g>
</g>
<!-- Node4 -->
<g id="Node000004" class="node">
<title>Node4</title>
<g id="a_Node000004"><a xlink:href="namespacem__bubbles__el.html#a4f042d2a68a99bf08f3b487232dcbeaf" target="_top" xlink:title="The purpose of this procedure is to obtain the information of the bubbles when starting fresh.">
<polygon fill="white" stroke="#666666" points="467,-356 348,-356 348,-326 467,-326 467,-356"/>
<text text-anchor="start" x="356" y="-344" font-family="Helvetica,sans-Serif" font-size="10.00">m_bubbles_el::s_add</text>
<text text-anchor="middle" x="407.5" y="-333" font-family="Helvetica,sans-Serif" font-size="10.00">_bubbles</text>
</a>
</g>
</g>
<!-- Node2&#45;&gt;Node4 -->
<g id="edge4_Node000002_Node000004" class="edge">
<title>Node2&#45;&gt;Node4</title>
<g id="a_edge4_Node000002_Node000004"><a xlink:title=" ">
<path fill="none" stroke="#63b8ff" d="M248.52,-198.19C262.01,-225.76 294.14,-284.22 338,-317 339.85,-318.38 341.78,-319.68 343.77,-320.92"/>
<polygon fill="#63b8ff" stroke="#63b8ff" points="342.41,-324.16 352.86,-325.88 345.76,-318.02 342.41,-324.16"/>
</a>
</g>
</g>
<!-- Node6 -->
<g id="Node000006" class="node">
<title>Node6</title>
<g id="a_Node000006"><a xlink:href="namespacem__bubbles__el.html#a73d29f366d826f822f780ebdcc3660ba" target="_top" xlink:title="The purpose of this procedure is to obtain the information of the bubbles from a restart point.">
<polygon fill="white" stroke="#666666" points="474,-308 341,-308 341,-278 474,-278 474,-308"/>
<text text-anchor="start" x="349" y="-296" font-family="Helvetica,sans-Serif" font-size="10.00">m_bubbles_el::s_restart</text>
<text text-anchor="middle" x="407.5" y="-285" font-family="Helvetica,sans-Serif" font-size="10.00">_bubbles</text>
</a>
</g>
</g>
<!-- Node2&#45;&gt;Node6 -->
<g id="edge6_Node000002_Node000006" class="edge">
<title>Node2&#45;&gt;Node6</title>
<g id="a_edge6_Node000002_Node000006"><a xlink:title=" ">
<path fill="none" stroke="#63b8ff" d="M256.44,-198.02C274.52,-215.58 306.47,-244.7 338,-264 343.7,-267.49 349.89,-270.75 356.14,-273.74"/>
<polygon fill="#63b8ff" stroke="#63b8ff" points="354.75,-276.95 365.3,-277.91 357.65,-270.58 354.75,-276.95"/>
</a>
</g>
</g>
<!-- Node7 -->
<g id="Node000007" class="node">
<title>Node7</title>
<g id="a_Node000007"><a xlink:href="namespacem__bubbles__el.html#a7e80211bc6335e01d4b15fa5f6ed2652" target="_top" xlink:title="The purpose of this subroutine is to smear the effect of the bubbles in the Eulerian framework.">
<polygon fill="white" stroke="#666666" points="473,-222 342,-222 342,-192 473,-192 473,-222"/>
<text text-anchor="start" x="350" y="-210" font-family="Helvetica,sans-Serif" font-size="10.00">m_bubbles_el::s_smear</text>
<text text-anchor="middle" x="407.5" y="-199" font-family="Helvetica,sans-Serif" font-size="10.00">_voidfraction</text>
</a>
</g>
</g>
<!-- Node2&#45;&gt;Node7 -->
<g id="edge8_Node000002_Node000007" class="edge">
<title>Node2&#45;&gt;Node7</title>
<g id="a_edge8_Node000002_Node000007"><a xlink:title=" ">
<path fill="none" stroke="#63b8ff" d="M301.54,-191.73C311.35,-193.16 321.62,-194.65 331.74,-196.13"/>
<polygon fill="#63b8ff" stroke="#63b8ff" points="331.38,-199.61 341.78,-197.59 332.39,-192.68 331.38,-199.61"/>
</a>
</g>
</g>
<!-- Node8 -->
<g id="Node000008" class="node">
<title>Node8</title>
<g id="a_Node000008"><a xlink:href="namespacem__bubbles__el.html#aa0c5b6674d08854ad7c1b0947c8dc9af" target="_top" xlink:title="This subroutine transfer data into the temporal variables.">
<polygon fill="white" stroke="#666666" points="477,-174 338,-174 338,-144 477,-144 477,-174"/>
<text text-anchor="start" x="346" y="-162" font-family="Helvetica,sans-Serif" font-size="10.00">m_bubbles_el::s_transfer</text>
<text text-anchor="middle" x="407.5" y="-151" font-family="Helvetica,sans-Serif" font-size="10.00">_data_to_tmp</text>
</a>
</g>
</g>
<!-- Node2&#45;&gt;Node8 -->
<g id="edge9_Node000002_Node000008" class="edge">
<title>Node2&#45;&gt;Node8</title>
<g id="a_edge9_Node000002_Node000008"><a xlink:title=" ">
<path fill="none" stroke="#63b8ff" d="M301.54,-174.27C310.1,-173.02 319.02,-171.72 327.88,-170.44"/>
<polygon fill="#63b8ff" stroke="#63b8ff" points="328.45,-173.89 337.84,-168.99 327.44,-166.96 328.45,-173.89"/>
</a>
</g>
</g>
<!-- Node9 -->
<g id="Node000009" class="node">
<title>Node9</title>
<g id="a_Node000009"><a xlink:href="namespacem__bubbles__el.html#ad95a33b738403ed6a3b3c683da08d5e4" target="_top" xlink:title="Subroutine that writes on each time step the changes of the lagrangian bubbles.">
<polygon fill="white" stroke="#666666" points="470,-126 345,-126 345,-96 470,-96 470,-126"/>
<text text-anchor="start" x="353" y="-114" font-family="Helvetica,sans-Serif" font-size="10.00">m_bubbles_el::s_write</text>
<text text-anchor="middle" x="407.5" y="-103" font-family="Helvetica,sans-Serif" font-size="10.00">_lag_particles</text>
</a>
</g>
</g>
<!-- Node2&#45;&gt;Node9 -->
<g id="edge10_Node000002_Node000009" class="edge">
<title>Node2&#45;&gt;Node9</title>
<g id="a_edge10_Node000002_Node000009"><a xlink:title=" ">
<path fill="none" stroke="#63b8ff" d="M283.03,-167.87C289.48,-165.14 296,-162.15 302,-159 319.03,-150.07 320.79,-143.58 338,-135 341.58,-133.22 345.32,-131.51 349.13,-129.88"/>
<polygon fill="#63b8ff" stroke="#63b8ff" points="350.74,-133.01 358.69,-126.01 348.11,-126.52 350.74,-133.01"/>
</a>
</g>
</g>
<!-- Node10 -->
<g id="Node000010" class="node">
<title>Node10</title>
<g id="a_Node000010"><a xlink:href="namespacem__bubbles__el.html#a380e92c53e3fc9298b7443a4fe7ac7af" target="_top" xlink:title="Subroutine that writes the restarting files for the particles in the lagrangian solver.">
<polygon fill="white" stroke="#666666" points="470,-78 345,-78 345,-48 470,-48 470,-78"/>
<text text-anchor="start" x="353" y="-66" font-family="Helvetica,sans-Serif" font-size="10.00">m_bubbles_el::s_write</text>
<text text-anchor="middle" x="407.5" y="-55" font-family="Helvetica,sans-Serif" font-size="10.00">_restart_lag_bubbles</text>
</a>
</g>
</g>
<!-- Node2&#45;&gt;Node10 -->
<g id="edge11_Node000002_Node000010" class="edge">
<title>Node2&#45;&gt;Node10</title>
<g id="a_edge11_Node000002_Node000010"><a xlink:title=" ">
<path fill="none" stroke="#63b8ff" d="M289.41,-167.97C293.95,-165.41 298.25,-162.44 302,-159 328.36,-134.81 311.15,-110.65 338,-87 339.33,-85.83 340.73,-84.71 342.17,-83.65"/>
<polygon fill="#63b8ff" stroke="#63b8ff" points="344.33,-86.42 350.91,-78.12 340.59,-80.5 344.33,-86.42"/>
</a>
</g>
</g>
<!-- Node11 -->
<g id="Node000011" class="node">
<title>Node11</title>
<g id="a_Node000011"><a xlink:href="namespacem__bubbles__el.html#a995d5e4cf38eb4a0ba5b072914f523e9" target="_top" xlink:title="Subroutine that writes some useful statistics related to the volume fraction of the particles (void f...">
<polygon fill="white" stroke="#666666" points="470,-30 345,-30 345,0 470,0 470,-30"/>
<text text-anchor="start" x="353" y="-18" font-family="Helvetica,sans-Serif" font-size="10.00">m_bubbles_el::s_write</text>
<text text-anchor="middle" x="407.5" y="-7" font-family="Helvetica,sans-Serif" font-size="10.00">_void_evol</text>
</a>
</g>
</g>
<!-- Node2&#45;&gt;Node11 -->
<g id="edge13_Node000002_Node000011" class="edge">
<title>Node2&#45;&gt;Node11</title>
<g id="a_edge13_Node000002_Node000011"><a xlink:title=" ">
<path fill="none" stroke="#63b8ff" d="M291.21,-167.87C295.19,-165.35 298.87,-162.41 302,-159 339.64,-117.97 299.53,-79.26 338,-39 338.93,-38.03 339.9,-37.09 340.91,-36.2"/>
<polygon fill="#63b8ff" stroke="#63b8ff" points="343.3,-38.79 349.28,-30.04 339.15,-33.15 343.3,-38.79"/>
</a>
</g>
</g>
<!-- Node3&#45;&gt;Node3 -->
<g id="edge3_Node000003_Node000003" class="edge">
<title>Node3&#45;&gt;Node3</title>
<g id="a_edge3_Node000003_Node000003"><a xlink:title=" ">
<path fill="none" stroke="#63b8ff" d="M557.51,-187.28C550.4,-196.41 561.06,-205 589.5,-205 606.38,-205 617,-201.97 621.36,-197.6"/>
<polygon fill="#63b8ff" stroke="#63b8ff" points="624.86,-197.32 621.49,-187.28 617.86,-197.23 624.86,-197.32"/>
</a>
</g>
</g>
<!-- Node5 -->
<g id="Node000005" class="node">
<title>Node5</title>
<g id="a_Node000005"><a xlink:href="namespacem__bubbles__el.html#a93deacaab9de2a6822b37b9fdc186963" target="_top" xlink:title="This subroutine returns the computational coordinate of the cell for the given position.">
<polygon fill="white" stroke="#666666" points="666,-326.5 513,-326.5 513,-307.5 666,-307.5 666,-326.5"/>
<text text-anchor="middle" x="589.5" y="-314.5" font-family="Helvetica,sans-Serif" font-size="10.00">m_bubbles_el::s_locate_cell</text>
</a>
</g>
</g>
<!-- Node4&#45;&gt;Node5 -->
<g id="edge5_Node000004_Node000005" class="edge">
<title>Node4&#45;&gt;Node5</title>
<g id="a_edge5_Node000004_Node000005"><a xlink:title=" ">
<path fill="none" stroke="#63b8ff" d="M467.44,-333.14C480.1,-331.45 493.7,-329.64 507.05,-327.86"/>
<polygon fill="#63b8ff" stroke="#63b8ff" points="507.74,-331.3 517.19,-326.51 506.81,-324.36 507.74,-331.3"/>
</a>
</g>
</g>
<!-- Node6&#45;&gt;Node5 -->
<g id="edge7_Node000006_Node000005" class="edge">
<title>Node6&#45;&gt;Node5</title>
<g id="a_edge7_Node000006_Node000005"><a xlink:title=" ">
<path fill="none" stroke="#63b8ff" d="M474.25,-301.77C484.94,-303.19 496.12,-304.68 507.12,-306.15"/>
<polygon fill="#63b8ff" stroke="#63b8ff" points="506.79,-309.64 517.16,-307.49 507.72,-302.7 506.79,-309.64"/>
</a>
</g>
</g>
<!-- Node10&#45;&gt;Node3 -->
<g id="edge12_Node000010_Node000003" class="edge">
<title>Node10&#45;&gt;Node3</title>
<g id="a_edge12_Node000010_Node000003"><a xlink:title=" ">
<path fill="none" stroke="#63b8ff" d="M457.59,-78.07C464.26,-80.73 470.9,-83.71 477,-87 509.68,-104.61 543,-131.41 564.59,-150.19"/>
<polygon fill="#63b8ff" stroke="#63b8ff" points="562.45,-152.97 572.27,-156.96 567.09,-147.72 562.45,-152.97"/>
</a>
</g>
</g>
</g>
</svg>

<g id="navigator" transform="translate(0 0)" fill="#404254">
  <rect fill="#f2f5e9" fill-opacity="0.5" stroke="#606060" stroke-width=".5" x="0" y="0" width="60" height="60"/>
  <use id="zoomplus" xlink:href="#zoomPlus" x="17" y="9" onmousedown="handleZoom(evt,'in')"/>
  <use id="zoomminus" xlink:href="#zoomMin" x="42" y="9" onmousedown="handleZoom(evt,'out')"/>
  <use id="reset" xlink:href="#resetDef" x="30" y="36" onmousedown="handleReset()"/>
   <use id="arrowup" xlink:href="#arrowUp" x="0" y="0" onmousedown="handlePan(0,-1)"/>
  <use id="arrowright" xlink:href="#arrowRight" x="0" y="0" onmousedown="handlePan(1,0)"/>
  <use id="arrowdown" xlink:href="#arrowDown" x="0" y="0" onmousedown="handlePan(0,1)"/>
  <use id="arrowleft" xlink:href="#arrowLeft" x="0" y="0" onmousedown="handlePan(-1,0)"/>
</g>
<svg viewBox="0 0 15 15" width="100%" height="30px" preserveAspectRatio="xMaxYMin meet">
 <g id="arrow_out" transform="scale(0.3 0.3)">
  <a xlink:href="namespacem__bubbles__el_a515d55616253e3cc9d9243899e2dcea3_cgraph_org.svg" target="_base">
   <rect id="button" ry="5" rx="5" y="6" x="6" height="38" width="38"
        fill="#f2f5e9" fill-opacity="0.5" stroke="#606060" stroke-width="1.0"/>
   <path id="arrow"
     d="M 11.500037,31.436501 C 11.940474,20.09759 22.043105,11.32322 32.158766,21.979434 L 37.068811,17.246167 C 37.068811,17.246167 37.088388,32 37.088388,32 L 22.160133,31.978069 C 22.160133,31.978069 26.997745,27.140456 26.997745,27.140456 C 18.528582,18.264221 13.291696,25.230495 11.500037,31.436501 z"
     style="fill:#404040;"/>
  </a>
 </g>
</svg>

<style type='text/css'>
<![CDATA[
[data-mouse-over-selected='false'] { opacity: 0.7; }
[data-mouse-over-selected='true']  { opacity: 1.0; }
]]>
</style>
<script type="application/ecmascript"><![CDATA[
document.addEventListener('DOMContentLoaded', (event) => {
  highlightEdges();
  highlightAdjacentNodes();
});
]]></script>
</svg>
