<?xml version="1.0" encoding="UTF-8" standalone="no"?>
<!DOCTYPE svg PUBLIC "-//W3C//DTD SVG 1.1//EN"
 "http://www.w3.org/Graphics/SVG/1.1/DTD/svg11.dtd">
<!-- Generated by graphviz version 2.43.0 (0)
 -->
<!-- Title: m_compute_cbc::s_compute_nonreflecting_subsonic_outflow_l Pages: 1 -->
<svg width="348pt" height="220pt"
 viewBox="0.00 0.00 348.00 219.50" xmlns="http://www.w3.org/2000/svg" xmlns:xlink="http://www.w3.org/1999/xlink">
<g id="graph0" class="graph" transform="scale(1 1) rotate(0) translate(4 215.5)">
<title>m_compute_cbc::s_compute_nonreflecting_subsonic_outflow_l</title>
<!-- Node1 -->
<g id="Node000001" class="node">
<title>Node1</title>
<g id="a_Node000001"><a xlink:title="Nonreflecting subsonic outflow CBC (Thompson 1990, pg. 454)">
<polygon fill="#999999" stroke="#666666" points="155,-131.5 0,-131.5 0,-90.5 155,-90.5 155,-131.5"/>
<text text-anchor="start" x="8" y="-119.5" font-family="Helvetica,sans-Serif" font-size="10.00">m_compute_cbc::s_compute</text>
<text text-anchor="start" x="8" y="-108.5" font-family="Helvetica,sans-Serif" font-size="10.00">_nonreflecting_subsonic</text>
<text text-anchor="middle" x="77.5" y="-97.5" font-family="Helvetica,sans-Serif" font-size="10.00">_outflow_l</text>
</a>
</g>
</g>
<!-- Node2 -->
<g id="Node000002" class="node">
<title>Node2</title>
<g id="a_Node000002"><a xlink:href="namespacem__compute__cbc.html#a43a95a8f5fba461f1a1aa5f8b69e7a89" target="_top" xlink:title="Base L1 calculation.">
<polygon fill="white" stroke="#666666" points="340,-211.5 191,-211.5 191,-192.5 340,-192.5 340,-211.5"/>
<text text-anchor="middle" x="265.5" y="-199.5" font-family="Helvetica,sans-Serif" font-size="10.00">m_compute_cbc::f_base_l1</text>
</a>
</g>
</g>
<!-- Node1&#45;&gt;Node2 -->
<g id="edge1_Node000001_Node000002" class="edge">
<title>Node1&#45;&gt;Node2</title>
<g id="a_edge1_Node000001_Node000002"><a xlink:title=" ">
<path fill="none" stroke="#63b8ff" d="M105.32,-131.63C127.3,-147.66 159.75,-169.38 191,-183 196.5,-185.4 202.36,-187.54 208.28,-189.45"/>
<polygon fill="#63b8ff" stroke="#63b8ff" points="207.68,-192.92 218.26,-192.43 209.69,-186.21 207.68,-192.92"/>
</a>
</g>
</g>
<!-- Node3 -->
<g id="Node000003" class="node">
<title>Node3</title>
<g id="a_Node000003"><a xlink:href="namespacem__compute__cbc.html#a74880092326e75470a2d9c280b7a04ac" target="_top" xlink:title="Fill advection L variables.">
<polygon fill="white" stroke="#666666" points="328,-174 203,-174 203,-144 328,-144 328,-174"/>
<text text-anchor="start" x="211" y="-162" font-family="Helvetica,sans-Serif" font-size="10.00">m_compute_cbc::s_fill</text>
<text text-anchor="middle" x="265.5" y="-151" font-family="Helvetica,sans-Serif" font-size="10.00">_advection_l</text>
</a>
</g>
</g>
<!-- Node1&#45;&gt;Node3 -->
<g id="edge2_Node000001_Node000003" class="edge">
<title>Node1&#45;&gt;Node3</title>
<g id="a_edge2_Node000001_Node000003"><a xlink:title=" ">
<path fill="none" stroke="#63b8ff" d="M155.23,-130.8C168.78,-134.3 182.82,-137.92 196.12,-141.35"/>
<polygon fill="#63b8ff" stroke="#63b8ff" points="195.58,-144.83 206.14,-143.94 197.33,-138.05 195.58,-144.83"/>
</a>
</g>
</g>
<!-- Node4 -->
<g id="Node000004" class="node">
<title>Node4</title>
<g id="a_Node000004"><a xlink:href="namespacem__compute__cbc.html#a3a8fd829927ab2218f570d97cbb7087b" target="_top" xlink:title="Fill chemistry L variables.">
<polygon fill="white" stroke="#666666" points="328,-126 203,-126 203,-96 328,-96 328,-126"/>
<text text-anchor="start" x="211" y="-114" font-family="Helvetica,sans-Serif" font-size="10.00">m_compute_cbc::s_fill</text>
<text text-anchor="middle" x="265.5" y="-103" font-family="Helvetica,sans-Serif" font-size="10.00">_chemistry_l</text>
</a>
</g>
</g>
<!-- Node1&#45;&gt;Node4 -->
<g id="edge3_Node000001_Node000004" class="edge">
<title>Node1&#45;&gt;Node4</title>
<g id="a_edge3_Node000001_Node000004"><a xlink:title=" ">
<path fill="none" stroke="#63b8ff" d="M155.23,-111C167.66,-111 180.49,-111 192.79,-111"/>
<polygon fill="#63b8ff" stroke="#63b8ff" points="192.99,-114.5 202.99,-111 192.99,-107.5 192.99,-114.5"/>
</a>
</g>
</g>
<!-- Node5 -->
<g id="Node000005" class="node">
<title>Node5</title>
<g id="a_Node000005"><a xlink:href="namespacem__compute__cbc.html#addf675a0a09c1ee2cb72c190fa2c55f4" target="_top" xlink:title="Fill density L variables.">
<polygon fill="white" stroke="#666666" points="328,-78 203,-78 203,-48 328,-48 328,-78"/>
<text text-anchor="start" x="211" y="-66" font-family="Helvetica,sans-Serif" font-size="10.00">m_compute_cbc::s_fill</text>
<text text-anchor="middle" x="265.5" y="-55" font-family="Helvetica,sans-Serif" font-size="10.00">_density_l</text>
</a>
</g>
</g>
<!-- Node1&#45;&gt;Node5 -->
<g id="edge4_Node000001_Node000005" class="edge">
<title>Node1&#45;&gt;Node5</title>
<g id="a_edge4_Node000001_Node000005"><a xlink:title=" ">
<path fill="none" stroke="#63b8ff" d="M155.23,-91.2C168.78,-87.7 182.82,-84.08 196.12,-80.65"/>
<polygon fill="#63b8ff" stroke="#63b8ff" points="197.33,-83.95 206.14,-78.06 195.58,-77.17 197.33,-83.95"/>
</a>
</g>
</g>
<!-- Node6 -->
<g id="Node000006" class="node">
<title>Node6</title>
<g id="a_Node000006"><a xlink:href="namespacem__compute__cbc.html#a8b8ae8cdb983562cf41f680526885fde" target="_top" xlink:title="Fill velocity L variables.">
<polygon fill="white" stroke="#666666" points="328,-30 203,-30 203,0 328,0 328,-30"/>
<text text-anchor="start" x="211" y="-18" font-family="Helvetica,sans-Serif" font-size="10.00">m_compute_cbc::s_fill</text>
<text text-anchor="middle" x="265.5" y="-7" font-family="Helvetica,sans-Serif" font-size="10.00">_velocity_l</text>
</a>
</g>
</g>
<!-- Node1&#45;&gt;Node6 -->
<g id="edge5_Node000001_Node000006" class="edge">
<title>Node1&#45;&gt;Node6</title>
<g id="a_edge5_Node000001_Node000006"><a xlink:title=" ">
<path fill="none" stroke="#63b8ff" d="M106.47,-90.25C128.56,-74.58 160.61,-53.4 191,-39 195,-37.11 199.18,-35.3 203.44,-33.6"/>
<polygon fill="#63b8ff" stroke="#63b8ff" points="204.74,-36.85 212.84,-30.02 202.25,-30.3 204.74,-36.85"/>
</a>
</g>
</g>
</g>
</svg>
