<?xml version="1.0" encoding="UTF-8" standalone="no"?>
<!DOCTYPE svg PUBLIC "-//W3C//DTD SVG 1.1//EN"
 "http://www.w3.org/Graphics/SVG/1.1/DTD/svg11.dtd">
<!-- Generated by graphviz version 2.43.0 (0)
 -->
<!-- Title: m_bubbles_el::s_compute_bubble_el_dynamics Pages: 1 -->
<svg width="330pt" height="76pt"
 viewBox="0.00 0.00 330.00 75.50" xmlns="http://www.w3.org/2000/svg" xmlns:xlink="http://www.w3.org/1999/xlink">
<g id="graph0" class="graph" transform="scale(1 1) rotate(0) translate(4 71.5)">
<title>m_bubbles_el::s_compute_bubble_el_dynamics</title>
<!-- Node1 -->
<g id="Node000001" class="node">
<title>Node1</title>
<g id="a_Node000001"><a xlink:title="Contains the bubble dynamics subroutines.">
<polygon fill="#999999" stroke="#666666" points="143,-45.5 0,-45.5 0,-15.5 143,-15.5 143,-45.5"/>
<text text-anchor="start" x="8" y="-33.5" font-family="Helvetica,sans-Serif" font-size="10.00">m_bubbles_el::s_compute</text>
<text text-anchor="middle" x="71.5" y="-22.5" font-family="Helvetica,sans-Serif" font-size="10.00">_bubble_el_dynamics</text>
</a>
</g>
</g>
<!-- Node2 -->
<g id="Node000002" class="node">
<title>Node2</title>
<g id="a_Node000002"><a xlink:href="namespacem__bubbles__el.html#a941dbe4bd6563db98c1396eaeec78f93" target="_top" xlink:title="This procedure computes the speed of sound from a given driving pressure.">
<polygon fill="white" stroke="#666666" points="322,-67.5 179,-67.5 179,-37.5 322,-37.5 322,-67.5"/>
<text text-anchor="start" x="187" y="-55.5" font-family="Helvetica,sans-Serif" font-size="10.00">m_bubbles_el::s_compute</text>
<text text-anchor="middle" x="250.5" y="-44.5" font-family="Helvetica,sans-Serif" font-size="10.00">_cson_from_pinf</text>
</a>
</g>
</g>
<!-- Node1&#45;&gt;Node2 -->
<g id="edge1_Node000001_Node000002" class="edge">
<title>Node1&#45;&gt;Node2</title>
<g id="a_edge1_Node000001_Node000002"><a xlink:title=" ">
<path fill="none" stroke="#63b8ff" d="M143.22,-39.29C151.66,-40.34 160.33,-41.42 168.9,-42.48"/>
<polygon fill="#63b8ff" stroke="#63b8ff" points="168.54,-45.96 178.89,-43.72 169.4,-39.02 168.54,-45.96"/>
</a>
</g>
</g>
<!-- Node3 -->
<g id="Node000003" class="node">
<title>Node3</title>
<g id="a_Node000003"><a xlink:href="namespacem__bubbles__el.html#afe5c1d9044b73531faaf8e9406a6082c" target="_top" xlink:title="The purpose of this procedure is obtain the bubble driving pressure p_inf.">
<polygon fill="white" stroke="#666666" points="320.5,-19 180.5,-19 180.5,0 320.5,0 320.5,-19"/>
<text text-anchor="middle" x="250.5" y="-7" font-family="Helvetica,sans-Serif" font-size="10.00">m_bubbles_el::s_get_pinf</text>
</a>
</g>
</g>
<!-- Node1&#45;&gt;Node3 -->
<g id="edge2_Node000001_Node000003" class="edge">
<title>Node1&#45;&gt;Node3</title>
<g id="a_edge2_Node000001_Node000003"><a xlink:title=" ">
<path fill="none" stroke="#63b8ff" d="M143.22,-22.11C152.1,-21.06 161.24,-19.97 170.24,-18.9"/>
<polygon fill="#63b8ff" stroke="#63b8ff" points="170.82,-22.36 180.34,-17.71 169.99,-15.41 170.82,-22.36"/>
</a>
</g>
</g>
</g>
</svg>
