<?xml version="1.0" encoding="UTF-8" standalone="no"?>
<!DOCTYPE svg PUBLIC "-//W3C//DTD SVG 1.1//EN"
 "http://www.w3.org/Graphics/SVG/1.1/DTD/svg11.dtd">
<!-- Generated by graphviz version 2.43.0 (0)
 -->
<!-- Title: m_cbc::s_initialize_cbc_module Pages: 1 -->
<svg width="496pt" height="76pt"
 viewBox="0.00 0.00 496.00 75.50" xmlns="http://www.w3.org/2000/svg" xmlns:xlink="http://www.w3.org/1999/xlink">
<g id="graph0" class="graph" transform="scale(1 1) rotate(0) translate(4 71.5)">
<title>m_cbc::s_initialize_cbc_module</title>
<!-- Node1 -->
<g id="Node000001" class="node">
<title>Node1</title>
<g id="a_Node000001"><a xlink:title="The computation of parameters, the allocation of memory, the association of pointers and/or the execu...">
<polygon fill="#999999" stroke="#666666" points="107,-51 0,-51 0,-21 107,-21 107,-51"/>
<text text-anchor="start" x="8" y="-39" font-family="Helvetica,sans-Serif" font-size="10.00">m_cbc::s_initialize</text>
<text text-anchor="middle" x="53.5" y="-28" font-family="Helvetica,sans-Serif" font-size="10.00">_cbc_module</text>
</a>
</g>
</g>
<!-- Node2 -->
<g id="Node000002" class="node">
<title>Node2</title>
<g id="a_Node000002"><a xlink:href="namespacem__cbc.html#a38160b454562d74625f00b98cd204841" target="_top" xlink:title=" ">
<polygon fill="white" stroke="#666666" points="307,-67.5 143,-67.5 143,-48.5 307,-48.5 307,-67.5"/>
<text text-anchor="middle" x="225" y="-55.5" font-family="Helvetica,sans-Serif" font-size="10.00">m_cbc::s_any_cbc_boundaries</text>
</a>
</g>
</g>
<!-- Node1&#45;&gt;Node2 -->
<g id="edge1_Node000001_Node000002" class="edge">
<title>Node1&#45;&gt;Node2</title>
<g id="a_edge1_Node000001_Node000002"><a xlink:title=" ">
<path fill="none" stroke="#63b8ff" d="M107.2,-42.84C117.88,-44.23 129.34,-45.71 140.78,-47.2"/>
<polygon fill="#63b8ff" stroke="#63b8ff" points="140.42,-50.68 150.79,-48.5 141.32,-43.74 140.42,-50.68"/>
</a>
</g>
</g>
<!-- Node3 -->
<g id="Node000003" class="node">
<title>Node3</title>
<g id="a_Node000003"><a xlink:href="namespacem__cbc.html#a460b0f51b92de710648d9088801b1cde" target="_top" xlink:title="Compute CBC coefficients.">
<polygon fill="white" stroke="#666666" points="289.5,-30 160.5,-30 160.5,0 289.5,0 289.5,-30"/>
<text text-anchor="start" x="168.5" y="-18" font-family="Helvetica,sans-Serif" font-size="10.00">m_cbc::s_compute_cbc</text>
<text text-anchor="middle" x="225" y="-7" font-family="Helvetica,sans-Serif" font-size="10.00">_coefficients</text>
</a>
</g>
</g>
<!-- Node1&#45;&gt;Node3 -->
<g id="edge2_Node000001_Node000003" class="edge">
<title>Node1&#45;&gt;Node3</title>
<g id="a_edge2_Node000001_Node000003"><a xlink:title=" ">
<path fill="none" stroke="#63b8ff" d="M107.2,-29.47C120.86,-27.78 135.82,-25.92 150.35,-24.13"/>
<polygon fill="#63b8ff" stroke="#63b8ff" points="150.81,-27.59 160.31,-22.89 149.95,-20.65 150.81,-27.59"/>
</a>
</g>
</g>
<!-- Node4 -->
<g id="Node000004" class="node">
<title>Node4</title>
<g id="a_Node000004"><a xlink:href="namespacem__cbc.html#a0860f3f0c146b497f05ed57e07e0d4d9" target="_top" xlink:title=" ">
<polygon fill="white" stroke="#666666" points="488,-30 343,-30 343,0 488,0 488,-30"/>
<text text-anchor="start" x="351" y="-18" font-family="Helvetica,sans-Serif" font-size="10.00">m_cbc::s_associate</text>
<text text-anchor="middle" x="415.5" y="-7" font-family="Helvetica,sans-Serif" font-size="10.00">_cbc_coefficients_pointers</text>
</a>
</g>
</g>
<!-- Node3&#45;&gt;Node4 -->
<g id="edge3_Node000003_Node000004" class="edge">
<title>Node3&#45;&gt;Node4</title>
<g id="a_edge3_Node000003_Node000004"><a xlink:title=" ">
<path fill="none" stroke="#63b8ff" d="M289.55,-15C303.32,-15 318.06,-15 332.41,-15"/>
<polygon fill="#63b8ff" stroke="#63b8ff" points="332.78,-18.5 342.78,-15 332.78,-11.5 332.78,-18.5"/>
</a>
</g>
</g>
</g>
</svg>
