<?xml version="1.0" encoding="UTF-8" standalone="no"?>
<!DOCTYPE svg PUBLIC "-//W3C//DTD SVG 1.1//EN"
 "http://www.w3.org/Graphics/SVG/1.1/DTD/svg11.dtd">
<!-- Generated by graphviz version 2.43.0 (0)
 -->
<!-- Title: m_bubbles::f_rddot Pages: 1 -->
<!--zoomable 485 -->

<svg id="main" version="1.1" xmlns="http://www.w3.org/2000/svg" xmlns:xlink="http://www.w3.org/1999/xlink" xml:space="preserve" onload="init(evt)">

<style type="text/css"><![CDATA[
.node, .edge {opacity: 0.7;}
.node.selected, .edge.selected {opacity: 1;}
.edge:hover path { stroke: red; }
.edge:hover polygon { stroke: red; fill: red; }
]]></style>

<defs>
  <circle id="rim" cx="0" cy="0" r="7"/>
  <circle id="rim2" cx="0" cy="0" r="3.5"/>
  <g id="zoomPlus">
    <use xlink:href="#rim" fill="#404040"><set attributeName="fill" to="#808080" begin="zoomplus.mouseover" end="zoomplus.mouseout"/></use>
    <path d="M-4,0h8M0,-4v8" fill="none" stroke="white" stroke-width="1.5" pointer-events="none"/>
  </g>
  <g id="zoomMin">
    <use xlink:href="#rim" fill="#404040"><set attributeName="fill" to="#808080" begin="zoomminus.mouseover" end="zoomminus.mouseout"/></use>
    <path d="M-4,0h8" fill="none" stroke="white" stroke-width="1.5" pointer-events="none"/>
  </g>
  <g id="arrowUp" transform="translate(30 24)">
    <use xlink:href="#rim"/>
    <path pointer-events="none" fill="none" stroke="white" stroke-width="1.5" d="M0,-3.0v7 M-2.5,-0.5L0,-3.0L2.5,-0.5"/>
  </g>
  <g id="arrowRight" transform="rotate(90) translate(36 -43)">
    <use xlink:href="#rim"/>
    <path pointer-events="none" fill="none" stroke="white" stroke-width="1.5" d="M0,-3.0v7 M-2.5,-0.5L0,-3.0L2.5,-0.5"/>
  </g>
  <g id="arrowDown" transform="rotate(180) translate(-30 -48)">
    <use xlink:href="#rim"/>
    <path pointer-events="none" fill="none" stroke="white" stroke-width="1.5" d="M0,-3.0v7 M-2.5,-0.5L0,-3.0L2.5,-0.5"/>
  </g>
  <g id="arrowLeft" transform="rotate(270) translate(-36 17)">
    <use xlink:href="#rim"/>
    <path pointer-events="none" fill="none" stroke="white" stroke-width="1.5" d="M0,-3.0v7 M-2.5,-0.5L0,-3.0L2.5,-0.5"/>
  </g>
  <g id="resetDef">
    <use xlink:href="#rim2" fill="#404040"><set attributeName="fill" to="#808080" begin="reset.mouseover" end="reset.mouseout"/></use>
  </g>
</defs>
<script type="application/ecmascript">
var viewWidth = 615;
var viewHeight = 485;
var sectionId = 'dynsection-14';
</script>
<script type="application/ecmascript" xlink:href="svg.min.js"/>
<svg id="graph" class="graph">
<g id="viewport">
<title>m_bubbles::f_rddot</title>
<!-- Node1 -->
<g id="Node000001" class="node">
<title>Node1</title>
<g id="a_Node000001"><a xlink:title="Function that computes the bubble radial acceleration based on bubble models.">
<polygon fill="#999999" stroke="#666666" points="110,-239 0,-239 0,-220 110,-220 110,-239"/>
<text text-anchor="middle" x="55" y="-227" font-family="Helvetica,sans-Serif" font-size="10.00">m_bubbles::f_rddot</text>
</a>
</g>
</g>
<!-- Node1&#45;&gt;Node1 -->
<g id="edge15_Node000001_Node000001" class="edge">
<title>Node1&#45;&gt;Node1</title>
<g id="a_edge15_Node000001_Node000001"><a xlink:title=" ">
<path fill="none" stroke="#63b8ff" d="M30.96,-239.08C19.26,-247.73 27.27,-257 55,-257 73.2,-257 82.9,-253.01 84.12,-247.82"/>
<polygon fill="#63b8ff" stroke="#63b8ff" points="87.09,-245.97 79.04,-239.08 81.04,-249.49 87.09,-245.97"/>
</a>
</g>
</g>
<!-- Node2 -->
<g id="Node000002" class="node">
<title>Node2</title>
<g id="a_Node000002"><a xlink:href="namespacem__bubbles.html#aae7ae64f879a97d643b2d7bd9541d21d" target="_top" xlink:title="Function that computes the sound speed for the bubble.">
<polygon fill="white" stroke="#666666" points="265,-459 158,-459 158,-440 265,-440 265,-459"/>
<text text-anchor="middle" x="211.5" y="-447" font-family="Helvetica,sans-Serif" font-size="10.00">m_bubbles::f_cgas</text>
</a>
</g>
</g>
<!-- Node1&#45;&gt;Node2 -->
<g id="edge1_Node000001_Node000002" class="edge">
<title>Node1&#45;&gt;Node2</title>
<g id="a_edge1_Node000001_Node000002"><a xlink:title=" ">
<path fill="none" stroke="#63b8ff" d="M57.38,-239.23C62.5,-271.75 83.5,-377.58 146,-431.5 147.36,-432.67 148.79,-433.77 150.28,-434.8"/>
<polygon fill="#63b8ff" stroke="#63b8ff" points="148.92,-438.05 159.35,-439.94 152.38,-431.96 148.92,-438.05"/>
</a>
</g>
</g>
<!-- Node3 -->
<g id="Node000003" class="node">
<title>Node3</title>
<g id="a_Node000003"><a xlink:href="namespacem__bubbles.html#a18ae4c4ee0f2b0d92b8dfe7eb02d09ef" target="_top" xlink:title="Function that computes that bubble wall pressure for Gilmore bubbles.">
<polygon fill="white" stroke="#666666" points="266.5,-404 156.5,-404 156.5,-385 266.5,-385 266.5,-404"/>
<text text-anchor="middle" x="211.5" y="-392" font-family="Helvetica,sans-Serif" font-size="10.00">m_bubbles::f_cpbw</text>
</a>
</g>
</g>
<!-- Node1&#45;&gt;Node3 -->
<g id="edge3_Node000001_Node000003" class="edge">
<title>Node1&#45;&gt;Node3</title>
<g id="a_edge3_Node000001_Node000003"><a xlink:title=" ">
<path fill="none" stroke="#63b8ff" d="M59.07,-239.11C67.96,-265.39 96.33,-338.99 146,-376.5 147.85,-377.89 149.8,-379.18 151.82,-380.37"/>
<polygon fill="#63b8ff" stroke="#63b8ff" points="150.59,-383.66 161.1,-384.96 153.69,-377.39 150.59,-383.66"/>
</a>
</g>
</g>
<!-- Node4 -->
<g id="Node000004" class="node">
<title>Node4</title>
<g id="a_Node000004"><a xlink:href="namespacem__bubbles.html#a81ceea09547775d9e7e50dbd6bf7386f" target="_top" xlink:title="Function that computes the bubble wall pressure for Keller–Miksis bubbles.">
<polygon fill="white" stroke="#666666" points="277,-349 146,-349 146,-330 277,-330 277,-349"/>
<text text-anchor="middle" x="211.5" y="-337" font-family="Helvetica,sans-Serif" font-size="10.00">m_bubbles::f_cpbw_km</text>
</a>
</g>
</g>
<!-- Node1&#45;&gt;Node4 -->
<g id="edge5_Node000001_Node000004" class="edge">
<title>Node1&#45;&gt;Node4</title>
<g id="a_edge5_Node000001_Node000004"><a xlink:title=" ">
<path fill="none" stroke="#63b8ff" d="M62.72,-239.19C76.24,-257.97 108.69,-299.43 146,-321.5 148.85,-323.19 151.87,-324.72 154.98,-326.12"/>
<polygon fill="#63b8ff" stroke="#63b8ff" points="153.92,-329.46 164.51,-329.9 156.5,-322.96 153.92,-329.46"/>
</a>
</g>
</g>
<!-- Node7 -->
<g id="Node000007" class="node">
<title>Node7</title>
<g id="a_Node000007"><a xlink:href="namespacem__bubbles.html#a14183fd210b702c60dd2d95a6f4c8e7b" target="_top" xlink:title="Function that computes the time derivative of the driving pressure.">
<polygon fill="white" stroke="#666666" points="274,-294 149,-294 149,-275 274,-275 274,-294"/>
<text text-anchor="middle" x="211.5" y="-282" font-family="Helvetica,sans-Serif" font-size="10.00">m_bubbles::f_cpinfdot</text>
</a>
</g>
</g>
<!-- Node1&#45;&gt;Node7 -->
<g id="edge9_Node000001_Node000007" class="edge">
<title>Node1&#45;&gt;Node7</title>
<g id="a_edge9_Node000001_Node000007"><a xlink:title=" ">
<path fill="none" stroke="#63b8ff" d="M77.19,-239.04C95.26,-246.98 122.04,-258.26 146,-266.5 151.63,-268.44 157.6,-270.32 163.53,-272.09"/>
<polygon fill="#63b8ff" stroke="#63b8ff" points="162.85,-275.54 173.43,-274.96 164.8,-268.82 162.85,-275.54"/>
</a>
</g>
</g>
<!-- Node8 -->
<g id="Node000008" class="node">
<title>Node8</title>
<g id="a_Node000008"><a xlink:href="namespacem__bubbles.html#a3a49f60f2fa78d27a675690063d3f9ea" target="_top" xlink:title="Function that computes the bubble enthalpy.">
<polygon fill="white" stroke="#666666" points="257,-239 166,-239 166,-220 257,-220 257,-239"/>
<text text-anchor="middle" x="211.5" y="-227" font-family="Helvetica,sans-Serif" font-size="10.00">m_bubbles::f_h</text>
</a>
</g>
</g>
<!-- Node1&#45;&gt;Node8 -->
<g id="edge11_Node000001_Node000008" class="edge">
<title>Node1&#45;&gt;Node8</title>
<g id="a_edge11_Node000001_Node000008"><a xlink:title=" ">
<path fill="none" stroke="#63b8ff" d="M110.04,-229.5C124.88,-229.5 140.99,-229.5 155.87,-229.5"/>
<polygon fill="#63b8ff" stroke="#63b8ff" points="155.95,-233 165.95,-229.5 155.95,-226 155.95,-233"/>
</a>
</g>
</g>
<!-- Node9 -->
<g id="Node000009" class="node">
<title>Node9</title>
<g id="a_Node000009"><a xlink:href="namespacem__bubbles.html#ac276af3c9b464b21aa811729baa84ed8" target="_top" xlink:title="Function that computes the time derivative of the enthalpy.">
<polygon fill="white" stroke="#666666" points="265,-184 158,-184 158,-165 265,-165 265,-184"/>
<text text-anchor="middle" x="211.5" y="-172" font-family="Helvetica,sans-Serif" font-size="10.00">m_bubbles::f_hdot</text>
</a>
</g>
</g>
<!-- Node1&#45;&gt;Node9 -->
<g id="edge13_Node000001_Node000009" class="edge">
<title>Node1&#45;&gt;Node9</title>
<g id="a_edge13_Node000001_Node000009"><a xlink:title=" ">
<path fill="none" stroke="#63b8ff" d="M82.91,-219.92C108.2,-210.92 146.24,-197.38 174.2,-187.42"/>
<polygon fill="#63b8ff" stroke="#63b8ff" points="175.39,-190.71 183.64,-184.06 173.04,-184.12 175.39,-190.71"/>
</a>
</g>
</g>
<!-- Node10 -->
<g id="Node000010" class="node">
<title>Node10</title>
<g id="a_Node000010"><a xlink:href="namespacem__bubbles.html#a715af22ce26819c30d2d4f4e4e5ab0b4" target="_top" xlink:title="Function that computes the bubble radial acceleration.">
<polygon fill="white" stroke="#666666" points="272.5,-129 150.5,-129 150.5,-110 272.5,-110 272.5,-129"/>
<text text-anchor="middle" x="211.5" y="-117" font-family="Helvetica,sans-Serif" font-size="10.00">m_bubbles::f_rddot_g</text>
</a>
</g>
</g>
<!-- Node1&#45;&gt;Node10 -->
<g id="edge16_Node000001_Node000010" class="edge">
<title>Node1&#45;&gt;Node10</title>
<g id="a_edge16_Node000001_Node000010"><a xlink:title=" ">
<path fill="none" stroke="#63b8ff" d="M66.64,-219.92C83.05,-205.37 115.8,-177.21 146,-156.5 157.76,-148.43 171.38,-140.44 183.07,-133.96"/>
<polygon fill="#63b8ff" stroke="#63b8ff" points="184.85,-136.97 191.95,-129.11 181.5,-130.83 184.85,-136.97"/>
</a>
</g>
</g>
<!-- Node11 -->
<g id="Node000011" class="node">
<title>Node11</title>
<g id="a_Node000011"><a xlink:href="namespacem__bubbles.html#a83c550e90a8910cec7e95683ebd1ef35" target="_top" xlink:title="Function that computes the bubble radial acceleration for Keller–Miksis bubbles.">
<polygon fill="white" stroke="#666666" points="277,-74 146,-74 146,-55 277,-55 277,-74"/>
<text text-anchor="middle" x="211.5" y="-62" font-family="Helvetica,sans-Serif" font-size="10.00">m_bubbles::f_rddot_km</text>
</a>
</g>
</g>
<!-- Node1&#45;&gt;Node11 -->
<g id="edge18_Node000001_Node000011" class="edge">
<title>Node1&#45;&gt;Node11</title>
<g id="a_edge18_Node000001_Node000011"><a xlink:title=" ">
<path fill="none" stroke="#63b8ff" d="M60.91,-219.75C72.86,-196.79 105.45,-138.48 146,-101.5 155.84,-92.53 168.21,-84.78 179.49,-78.73"/>
<polygon fill="#63b8ff" stroke="#63b8ff" points="181.32,-81.72 188.62,-74.05 178.13,-75.49 181.32,-81.72"/>
</a>
</g>
</g>
<!-- Node12 -->
<g id="Node000012" class="node">
<title>Node12</title>
<g id="a_Node000012"><a xlink:href="namespacem__bubbles.html#af1d904ee7ec2c4fa5b6eecc8ac5d0b92" target="_top" xlink:title="Function that computes the bubble radial acceleration for Rayleigh&#45;Plesset bubbles.">
<polygon fill="white" stroke="#666666" points="274,-19 149,-19 149,0 274,0 274,-19"/>
<text text-anchor="middle" x="211.5" y="-7" font-family="Helvetica,sans-Serif" font-size="10.00">m_bubbles::f_rddot_rp</text>
</a>
</g>
</g>
<!-- Node1&#45;&gt;Node12 -->
<g id="edge21_Node000001_Node000012" class="edge">
<title>Node1&#45;&gt;Node12</title>
<g id="a_edge21_Node000001_Node000012"><a xlink:title=" ">
<path fill="none" stroke="#63b8ff" d="M58.51,-219.99C66.63,-190.82 94.64,-101.24 146,-46.5 154.76,-37.16 166.42,-29.5 177.42,-23.62"/>
<polygon fill="#63b8ff" stroke="#63b8ff" points="179.05,-26.72 186.42,-19.11 175.91,-20.46 179.05,-26.72"/>
</a>
</g>
</g>
<!-- Node2&#45;&gt;Node2 -->
<g id="edge2_Node000002_Node000002" class="edge">
<title>Node2&#45;&gt;Node2</title>
<g id="a_edge2_Node000002_Node000002"><a xlink:title=" ">
<path fill="none" stroke="#63b8ff" d="M187.46,-459.08C175.76,-467.73 183.77,-477 211.5,-477 229.7,-477 239.4,-473.01 240.62,-467.82"/>
<polygon fill="#63b8ff" stroke="#63b8ff" points="243.59,-465.97 235.54,-459.08 237.54,-469.49 243.59,-465.97"/>
</a>
</g>
</g>
<!-- Node3&#45;&gt;Node3 -->
<g id="edge4_Node000003_Node000003" class="edge">
<title>Node3&#45;&gt;Node3</title>
<g id="a_edge4_Node000003_Node000003"><a xlink:title=" ">
<path fill="none" stroke="#63b8ff" d="M187.46,-404.08C175.76,-412.73 183.77,-422 211.5,-422 229.7,-422 239.4,-418.01 240.62,-412.82"/>
<polygon fill="#63b8ff" stroke="#63b8ff" points="243.59,-410.97 235.54,-404.08 237.54,-414.49 243.59,-410.97"/>
</a>
</g>
</g>
<!-- Node4&#45;&gt;Node4 -->
<g id="edge6_Node000004_Node000004" class="edge">
<title>Node4&#45;&gt;Node4</title>
<g id="a_edge6_Node000004_Node000004"><a xlink:title=" ">
<path fill="none" stroke="#63b8ff" d="M187.46,-349.08C175.76,-357.73 183.77,-367 211.5,-367 229.7,-367 239.4,-363.01 240.62,-357.82"/>
<polygon fill="#63b8ff" stroke="#63b8ff" points="243.59,-355.97 235.54,-349.08 237.54,-359.49 243.59,-355.97"/>
</a>
</g>
</g>
<!-- Node5 -->
<g id="Node000005" class="node">
<title>Node5</title>
<g id="a_Node000005"><a xlink:href="namespacem__helper__basic.html#af1b06a05daa43f724ac3b0ff2f97db14" target="_top" xlink:title="Checks if a real(wp) variable is of default value.">
<polygon fill="white" stroke="#666666" points="429,-216.5 313,-216.5 313,-186.5 429,-186.5 429,-216.5"/>
<text text-anchor="start" x="321" y="-204.5" font-family="Helvetica,sans-Serif" font-size="10.00">m_helper_basic::f_is</text>
<text text-anchor="middle" x="371" y="-193.5" font-family="Helvetica,sans-Serif" font-size="10.00">_default</text>
</a>
</g>
</g>
<!-- Node4&#45;&gt;Node5 -->
<g id="edge7_Node000004_Node000005" class="edge">
<title>Node4&#45;&gt;Node5</title>
<g id="a_edge7_Node000004_Node000005"><a xlink:title=" ">
<path fill="none" stroke="#63b8ff" d="M260.2,-329.98C266.13,-327.72 271.89,-324.94 277,-321.5 313.79,-296.77 342.38,-252.75 357.66,-225.45"/>
<polygon fill="#63b8ff" stroke="#63b8ff" points="360.8,-227.01 362.51,-216.55 354.65,-223.66 360.8,-227.01"/>
</a>
</g>
</g>
<!-- Node6 -->
<g id="Node000006" class="node">
<title>Node6</title>
<g id="a_Node000006"><a xlink:href="namespacem__helper__basic.html#a3f0eae73a833f30924d4b2665a13a429" target="_top" xlink:title="This procedure checks if two floating point numbers of wp are within tolerance.">
<polygon fill="white" stroke="#666666" points="607,-216.5 465,-216.5 465,-186.5 607,-186.5 607,-216.5"/>
<text text-anchor="start" x="473" y="-204.5" font-family="Helvetica,sans-Serif" font-size="10.00">m_helper_basic::f_approx</text>
<text text-anchor="middle" x="536" y="-193.5" font-family="Helvetica,sans-Serif" font-size="10.00">_equal</text>
</a>
</g>
</g>
<!-- Node5&#45;&gt;Node6 -->
<g id="edge8_Node000005_Node000006" class="edge">
<title>Node5&#45;&gt;Node6</title>
<g id="a_edge8_Node000005_Node000006"><a xlink:title=" ">
<path fill="none" stroke="#63b8ff" d="M429.01,-201.5C437.32,-201.5 446.01,-201.5 454.68,-201.5"/>
<polygon fill="#63b8ff" stroke="#63b8ff" points="454.83,-205 464.83,-201.5 454.83,-198 454.83,-205"/>
</a>
</g>
</g>
<!-- Node7&#45;&gt;Node7 -->
<g id="edge10_Node000007_Node000007" class="edge">
<title>Node7&#45;&gt;Node7</title>
<g id="a_edge10_Node000007_Node000007"><a xlink:title=" ">
<path fill="none" stroke="#63b8ff" d="M187.46,-294.08C175.76,-302.73 183.77,-312 211.5,-312 229.7,-312 239.4,-308.01 240.62,-302.82"/>
<polygon fill="#63b8ff" stroke="#63b8ff" points="243.59,-300.97 235.54,-294.08 237.54,-304.49 243.59,-300.97"/>
</a>
</g>
</g>
<!-- Node8&#45;&gt;Node8 -->
<g id="edge12_Node000008_Node000008" class="edge">
<title>Node8&#45;&gt;Node8</title>
<g id="a_edge12_Node000008_Node000008"><a xlink:title=" ">
<path fill="none" stroke="#63b8ff" d="M187.46,-239.08C175.76,-247.73 183.77,-257 211.5,-257 229.7,-257 239.4,-253.01 240.62,-247.82"/>
<polygon fill="#63b8ff" stroke="#63b8ff" points="243.59,-245.97 235.54,-239.08 237.54,-249.49 243.59,-245.97"/>
</a>
</g>
</g>
<!-- Node9&#45;&gt;Node9 -->
<g id="edge14_Node000009_Node000009" class="edge">
<title>Node9&#45;&gt;Node9</title>
<g id="a_edge14_Node000009_Node000009"><a xlink:title=" ">
<path fill="none" stroke="#63b8ff" d="M187.46,-184.08C175.76,-192.73 183.77,-202 211.5,-202 229.7,-202 239.4,-198.01 240.62,-192.82"/>
<polygon fill="#63b8ff" stroke="#63b8ff" points="243.59,-190.97 235.54,-184.08 237.54,-194.49 243.59,-190.97"/>
</a>
</g>
</g>
<!-- Node10&#45;&gt;Node10 -->
<g id="edge17_Node000010_Node000010" class="edge">
<title>Node10&#45;&gt;Node10</title>
<g id="a_edge17_Node000010_Node000010"><a xlink:title=" ">
<path fill="none" stroke="#63b8ff" d="M187.46,-129.08C175.76,-137.73 183.77,-147 211.5,-147 229.7,-147 239.4,-143.01 240.62,-137.82"/>
<polygon fill="#63b8ff" stroke="#63b8ff" points="243.59,-135.97 235.54,-129.08 237.54,-139.49 243.59,-135.97"/>
</a>
</g>
</g>
<!-- Node11&#45;&gt;Node5 -->
<g id="edge19_Node000011_Node000005" class="edge">
<title>Node11&#45;&gt;Node5</title>
<g id="a_edge19_Node000011_Node000005"><a xlink:title=" ">
<path fill="none" stroke="#63b8ff" d="M232.67,-74.07C245.91,-80.82 263.25,-90.58 277,-101.5 306.01,-124.54 334.25,-156.71 351.86,-178.28"/>
<polygon fill="#63b8ff" stroke="#63b8ff" points="349.29,-180.67 358.28,-186.26 354.74,-176.28 349.29,-180.67"/>
</a>
</g>
</g>
<!-- Node11&#45;&gt;Node11 -->
<g id="edge20_Node000011_Node000011" class="edge">
<title>Node11&#45;&gt;Node11</title>
<g id="a_edge20_Node000011_Node000011"><a xlink:title=" ">
<path fill="none" stroke="#63b8ff" d="M187.46,-74.08C175.76,-82.73 183.77,-92 211.5,-92 229.7,-92 239.4,-88.01 240.62,-82.82"/>
<polygon fill="#63b8ff" stroke="#63b8ff" points="243.59,-80.97 235.54,-74.08 237.54,-84.49 243.59,-80.97"/>
</a>
</g>
</g>
<!-- Node12&#45;&gt;Node12 -->
<g id="edge22_Node000012_Node000012" class="edge">
<title>Node12&#45;&gt;Node12</title>
<g id="a_edge22_Node000012_Node000012"><a xlink:title=" ">
<path fill="none" stroke="#63b8ff" d="M187.46,-19.08C175.76,-27.73 183.77,-37 211.5,-37 229.7,-37 239.4,-33.01 240.62,-27.82"/>
<polygon fill="#63b8ff" stroke="#63b8ff" points="243.59,-25.97 235.54,-19.08 237.54,-29.49 243.59,-25.97"/>
</a>
</g>
</g>
</g>
</svg>

<g id="navigator" transform="translate(0 0)" fill="#404254">
  <rect fill="#f2f5e9" fill-opacity="0.5" stroke="#606060" stroke-width=".5" x="0" y="0" width="60" height="60"/>
  <use id="zoomplus" xlink:href="#zoomPlus" x="17" y="9" onmousedown="handleZoom(evt,'in')"/>
  <use id="zoomminus" xlink:href="#zoomMin" x="42" y="9" onmousedown="handleZoom(evt,'out')"/>
  <use id="reset" xlink:href="#resetDef" x="30" y="36" onmousedown="handleReset()"/>
   <use id="arrowup" xlink:href="#arrowUp" x="0" y="0" onmousedown="handlePan(0,-1)"/>
  <use id="arrowright" xlink:href="#arrowRight" x="0" y="0" onmousedown="handlePan(1,0)"/>
  <use id="arrowdown" xlink:href="#arrowDown" x="0" y="0" onmousedown="handlePan(0,1)"/>
  <use id="arrowleft" xlink:href="#arrowLeft" x="0" y="0" onmousedown="handlePan(-1,0)"/>
</g>
<svg viewBox="0 0 15 15" width="100%" height="30px" preserveAspectRatio="xMaxYMin meet">
 <g id="arrow_out" transform="scale(0.3 0.3)">
  <a xlink:href="namespacem__bubbles_a5df386bacf57fa1f7799b9aad47a4f94_cgraph_org.svg" target="_base">
   <rect id="button" ry="5" rx="5" y="6" x="6" height="38" width="38"
        fill="#f2f5e9" fill-opacity="0.5" stroke="#606060" stroke-width="1.0"/>
   <path id="arrow"
     d="M 11.500037,31.436501 C 11.940474,20.09759 22.043105,11.32322 32.158766,21.979434 L 37.068811,17.246167 C 37.068811,17.246167 37.088388,32 37.088388,32 L 22.160133,31.978069 C 22.160133,31.978069 26.997745,27.140456 26.997745,27.140456 C 18.528582,18.264221 13.291696,25.230495 11.500037,31.436501 z"
     style="fill:#404040;"/>
  </a>
 </g>
</svg>

<style type='text/css'>
<![CDATA[
[data-mouse-over-selected='false'] { opacity: 0.7; }
[data-mouse-over-selected='true']  { opacity: 1.0; }
]]>
</style>
<script type="application/ecmascript"><![CDATA[
document.addEventListener('DOMContentLoaded', (event) => {
  highlightEdges();
  highlightAdjacentNodes();
});
]]></script>
</svg>
