<?xml version="1.0" encoding="UTF-8" standalone="no"?>
<!DOCTYPE svg PUBLIC "-//W3C//DTD SVG 1.1//EN"
 "http://www.w3.org/Graphics/SVG/1.1/DTD/svg11.dtd">
<!-- Generated by graphviz version 2.43.0 (0)
 -->
<!-- Title: m_pressure_relaxation::s_pressure_relaxation_procedure Pages: 1 -->
<svg width="502pt" height="212pt"
 viewBox="0.00 0.00 502.00 211.50" xmlns="http://www.w3.org/2000/svg" xmlns:xlink="http://www.w3.org/1999/xlink">
<g id="graph0" class="graph" transform="scale(1 1) rotate(0) translate(4 207.5)">
<title>m_pressure_relaxation::s_pressure_relaxation_procedure</title>
<!-- Node1 -->
<g id="Node000001" class="node">
<title>Node1</title>
<g id="a_Node000001"><a xlink:title="The main pressure relaxation procedure.">
<polygon fill="#999999" stroke="#666666" points="130,-125.5 0,-125.5 0,-84.5 130,-84.5 130,-125.5"/>
<text text-anchor="start" x="8" y="-113.5" font-family="Helvetica,sans-Serif" font-size="10.00">m_pressure_relaxation</text>
<text text-anchor="start" x="8" y="-102.5" font-family="Helvetica,sans-Serif" font-size="10.00">::s_pressure_relaxation</text>
<text text-anchor="middle" x="65" y="-91.5" font-family="Helvetica,sans-Serif" font-size="10.00">_procedure</text>
</a>
</g>
</g>
<!-- Node2 -->
<g id="Node000002" class="node">
<title>Node2</title>
<g id="a_Node000002"><a xlink:href="namespacem__pressure__relaxation.html#a0309be5eeaf0deee072db7dbc09263f8" target="_top" xlink:title="Process pressure relaxation for a single cell.">
<polygon fill="white" stroke="#666666" points="294,-120 166,-120 166,-90 294,-90 294,-120"/>
<text text-anchor="start" x="174" y="-108" font-family="Helvetica,sans-Serif" font-size="10.00">m_pressure_relaxation</text>
<text text-anchor="middle" x="230" y="-97" font-family="Helvetica,sans-Serif" font-size="10.00">::s_relax_cell_pressure</text>
</a>
</g>
</g>
<!-- Node1&#45;&gt;Node2 -->
<g id="edge1_Node000001_Node000002" class="edge">
<title>Node1&#45;&gt;Node2</title>
<g id="a_edge1_Node000001_Node000002"><a xlink:title=" ">
<path fill="none" stroke="#63b8ff" d="M130.42,-105C138.71,-105 147.24,-105 155.66,-105"/>
<polygon fill="#63b8ff" stroke="#63b8ff" points="155.85,-108.5 165.85,-105 155.85,-101.5 155.85,-108.5"/>
</a>
</g>
</g>
<!-- Node3 -->
<g id="Node000003" class="node">
<title>Node3</title>
<g id="a_Node000003"><a xlink:href="namespacem__pressure__relaxation.html#ac7fb6cfbc55c02e534ce7785d1413e3a" target="_top" xlink:title="Correct internal energies using equilibrated pressure.">
<polygon fill="white" stroke="#666666" points="476,-203.5 348,-203.5 348,-162.5 476,-162.5 476,-203.5"/>
<text text-anchor="start" x="356" y="-191.5" font-family="Helvetica,sans-Serif" font-size="10.00">m_pressure_relaxation</text>
<text text-anchor="start" x="356" y="-180.5" font-family="Helvetica,sans-Serif" font-size="10.00">::s_correct_internal</text>
<text text-anchor="middle" x="412" y="-169.5" font-family="Helvetica,sans-Serif" font-size="10.00">_energies</text>
</a>
</g>
</g>
<!-- Node2&#45;&gt;Node3 -->
<g id="edge2_Node000002_Node000003" class="edge">
<title>Node2&#45;&gt;Node3</title>
<g id="a_edge2_Node000002_Node000003"><a xlink:title=" ">
<path fill="none" stroke="#63b8ff" d="M260.11,-120.04C279.66,-129.9 306.1,-142.81 330,-153 334.42,-154.89 339.01,-156.77 343.65,-158.62"/>
<polygon fill="#63b8ff" stroke="#63b8ff" points="342.62,-161.98 353.21,-162.37 345.17,-155.46 342.62,-161.98"/>
</a>
</g>
</g>
<!-- Node4 -->
<g id="Node000004" class="node">
<title>Node4</title>
<g id="a_Node000004"><a xlink:href="namespacem__pressure__relaxation.html#ad8109f147fed183aed390197702d14f2" target="_top" xlink:title="Correct volume fractions to physical bounds.">
<polygon fill="white" stroke="#666666" points="490.5,-144 333.5,-144 333.5,-114 490.5,-114 490.5,-144"/>
<text text-anchor="start" x="341.5" y="-132" font-family="Helvetica,sans-Serif" font-size="10.00">m_pressure_relaxation</text>
<text text-anchor="middle" x="412" y="-121" font-family="Helvetica,sans-Serif" font-size="10.00">::s_correct_volume_fractions</text>
</a>
</g>
</g>
<!-- Node2&#45;&gt;Node4 -->
<g id="edge3_Node000002_Node000004" class="edge">
<title>Node2&#45;&gt;Node4</title>
<g id="a_edge3_Node000002_Node000004"><a xlink:title=" ">
<path fill="none" stroke="#63b8ff" d="M294.21,-113.43C303.61,-114.68 313.43,-115.99 323.22,-117.3"/>
<polygon fill="#63b8ff" stroke="#63b8ff" points="323.02,-120.8 333.4,-118.65 323.95,-113.86 323.02,-120.8"/>
</a>
</g>
</g>
<!-- Node5 -->
<g id="Node000005" class="node">
<title>Node5</title>
<g id="a_Node000005"><a xlink:href="namespacem__pressure__relaxation.html#a566c14d339da8a3f80624c6cf9aaa007" target="_top" xlink:title="Main pressure equilibration using Newton&#45;Raphson.">
<polygon fill="white" stroke="#666666" points="478.5,-96 345.5,-96 345.5,-66 478.5,-66 478.5,-96"/>
<text text-anchor="start" x="353.5" y="-84" font-family="Helvetica,sans-Serif" font-size="10.00">m_pressure_relaxation</text>
<text text-anchor="middle" x="412" y="-73" font-family="Helvetica,sans-Serif" font-size="10.00">::s_equilibrate_pressure</text>
</a>
</g>
</g>
<!-- Node2&#45;&gt;Node5 -->
<g id="edge4_Node000002_Node000005" class="edge">
<title>Node2&#45;&gt;Node5</title>
<g id="a_edge4_Node000002_Node000005"><a xlink:title=" ">
<path fill="none" stroke="#63b8ff" d="M294.21,-96.57C307.37,-94.82 321.36,-92.95 334.93,-91.14"/>
<polygon fill="#63b8ff" stroke="#63b8ff" points="335.75,-94.56 345.2,-89.77 334.82,-87.63 335.75,-94.56"/>
</a>
</g>
</g>
<!-- Node6 -->
<g id="Node000006" class="node">
<title>Node6</title>
<g id="a_Node000006"><a xlink:href="namespacem__pressure__relaxation.html#a6270935d5b7ee5e6a12099873d9532d8" target="_top" xlink:title="Check if pressure relaxation is needed for this cell.">
<polygon fill="white" stroke="#666666" points="494,-30 330,-30 330,0 494,0 494,-30"/>
<text text-anchor="start" x="338" y="-18" font-family="Helvetica,sans-Serif" font-size="10.00">m_pressure_relaxation</text>
<text text-anchor="middle" x="412" y="-7" font-family="Helvetica,sans-Serif" font-size="10.00">::s_needs_pressure_relaxation</text>
</a>
</g>
</g>
<!-- Node2&#45;&gt;Node6 -->
<g id="edge5_Node000002_Node000006" class="edge">
<title>Node2&#45;&gt;Node6</title>
<g id="a_edge5_Node000002_Node000006"><a xlink:title=" ">
<path fill="none" stroke="#63b8ff" d="M261.13,-89.94C291.5,-74.75 338.52,-51.24 371.78,-34.61"/>
<polygon fill="#63b8ff" stroke="#63b8ff" points="373.39,-37.72 380.77,-30.11 370.26,-31.45 373.39,-37.72"/>
</a>
</g>
</g>
<!-- Node6&#45;&gt;Node6 -->
<g id="edge6_Node000006_Node000006" class="edge">
<title>Node6&#45;&gt;Node6</title>
<g id="a_edge6_Node000006_Node000006"><a xlink:title=" ">
<path fill="none" stroke="#63b8ff" d="M380.01,-30.28C372.9,-39.41 383.56,-48 412,-48 428.88,-48 439.5,-44.97 443.86,-40.6"/>
<polygon fill="#63b8ff" stroke="#63b8ff" points="447.36,-40.32 443.99,-30.28 440.36,-40.23 447.36,-40.32"/>
</a>
</g>
</g>
</g>
</svg>
