<?xml version="1.0" encoding="UTF-8" standalone="no"?>
<!DOCTYPE svg PUBLIC "-//W3C//DTD SVG 1.1//EN"
 "http://www.w3.org/Graphics/SVG/1.1/DTD/svg11.dtd">
<!-- Generated by graphviz version 2.43.0 (0)
 -->
<!-- Title: m_mpi_common::s_mpi_barrier Pages: 1 -->
<svg width="706pt" height="86pt"
 viewBox="0.00 0.00 706.00 86.00" xmlns="http://www.w3.org/2000/svg" xmlns:xlink="http://www.w3.org/1999/xlink">
<g id="graph0" class="graph" transform="scale(1 1) rotate(0) translate(4 82)">
<title>m_mpi_common::s_mpi_barrier</title>
<!-- Node1 -->
<g id="Node000001" class="node">
<title>Node1</title>
<g id="a_Node000001"><a xlink:title="Halts all processes until all have reached barrier.">
<polygon fill="#999999" stroke="#666666" points="698,-53 564,-53 564,-23 698,-23 698,-53"/>
<text text-anchor="start" x="572" y="-41" font-family="Helvetica,sans-Serif" font-size="10.00">m_mpi_common::s_mpi</text>
<text text-anchor="middle" x="631" y="-30" font-family="Helvetica,sans-Serif" font-size="10.00">_barrier</text>
</a>
</g>
</g>
<!-- Node2 -->
<g id="Node000002" class="node">
<title>Node2</title>
<g id="a_Node000002"><a xlink:href="namespacem__start__up.html#a3226ddf0c64cff078579641fda52781d" target="_top" xlink:title=" ">
<polygon fill="white" stroke="#666666" points="528,-76 417,-76 417,-46 528,-46 528,-76"/>
<text text-anchor="start" x="425" y="-64" font-family="Helvetica,sans-Serif" font-size="10.00">m_start_up::s_read</text>
<text text-anchor="middle" x="472.5" y="-53" font-family="Helvetica,sans-Serif" font-size="10.00">_parallel_data_files</text>
</a>
</g>
</g>
<!-- Node1&#45;&gt;Node2 -->
<g id="edge1_Node000001_Node000002" class="edge">
<title>Node1&#45;&gt;Node2</title>
<g id="a_edge1_Node000001_Node000002"><a xlink:title=" ">
<path fill="none" stroke="#63b8ff" d="M553.59,-49.23C545,-50.49 536.38,-51.76 528.14,-52.97"/>
<polygon fill="#63b8ff" stroke="#63b8ff" points="554.25,-52.67 563.63,-47.75 553.23,-45.75 554.25,-52.67"/>
</a>
</g>
</g>
<!-- Node6 -->
<g id="Node000006" class="node">
<title>Node6</title>
<g id="a_Node000006"><a xlink:href="namespacem__start__up.html#a39b74a3be1912601a03c3190b6dbf5b3" target="_top" xlink:title=" ">
<polygon fill="white" stroke="#666666" points="381,-30 255,-30 255,0 381,0 381,-30"/>
<text text-anchor="start" x="263" y="-18" font-family="Helvetica,sans-Serif" font-size="10.00">m_start_up::s_save</text>
<text text-anchor="middle" x="318" y="-7" font-family="Helvetica,sans-Serif" font-size="10.00">_performance_metrics</text>
</a>
</g>
</g>
<!-- Node1&#45;&gt;Node6 -->
<g id="edge5_Node000001_Node000006" class="edge">
<title>Node1&#45;&gt;Node6</title>
<g id="a_edge5_Node000001_Node000006"><a xlink:title=" ">
<path fill="none" stroke="#63b8ff" d="M553.62,-32.35C500.52,-28.42 430.65,-23.26 381,-19.59"/>
<polygon fill="#63b8ff" stroke="#63b8ff" points="553.43,-35.85 563.66,-33.09 553.95,-28.87 553.43,-35.85"/>
</a>
</g>
</g>
<!-- Node3 -->
<g id="Node000003" class="node">
<title>Node3</title>
<g id="a_Node000003"><a xlink:href="namespacem__start__up.html#a25f79bc2aae3d0302d4a97247d84f92a" target="_top" xlink:title="Read data files. Dispatch subroutine that replaces procedure pointer.">
<polygon fill="white" stroke="#666666" points="373,-78 263,-78 263,-48 373,-48 373,-78"/>
<text text-anchor="start" x="271" y="-66" font-family="Helvetica,sans-Serif" font-size="10.00">m_start_up::s_read</text>
<text text-anchor="middle" x="318" y="-55" font-family="Helvetica,sans-Serif" font-size="10.00">_data_files</text>
</a>
</g>
</g>
<!-- Node2&#45;&gt;Node3 -->
<g id="edge2_Node000002_Node000003" class="edge">
<title>Node2&#45;&gt;Node3</title>
<g id="a_edge2_Node000002_Node000003"><a xlink:title=" ">
<path fill="none" stroke="#63b8ff" d="M406.75,-61.85C395.59,-62 384.09,-62.15 373.24,-62.29"/>
<polygon fill="#63b8ff" stroke="#63b8ff" points="406.92,-65.35 416.87,-61.72 406.83,-58.35 406.92,-65.35"/>
</a>
</g>
</g>
<!-- Node4 -->
<g id="Node000004" class="node">
<title>Node4</title>
<g id="a_Node000004"><a xlink:href="namespacem__start__up.html#a1fb7a3f9d412acd2a9cbcfe8b45006dd" target="_top" xlink:title=" ">
<polygon fill="white" stroke="#666666" points="219,-76 89,-76 89,-46 219,-46 219,-76"/>
<text text-anchor="start" x="97" y="-64" font-family="Helvetica,sans-Serif" font-size="10.00">m_start_up::s_initialize</text>
<text text-anchor="middle" x="154" y="-53" font-family="Helvetica,sans-Serif" font-size="10.00">_modules</text>
</a>
</g>
</g>
<!-- Node3&#45;&gt;Node4 -->
<g id="edge3_Node000003_Node000004" class="edge">
<title>Node3&#45;&gt;Node4</title>
<g id="a_edge3_Node000003_Node000004"><a xlink:title=" ">
<path fill="none" stroke="#63b8ff" d="M252.27,-62.2C241.33,-62.07 229.98,-61.93 219.06,-61.79"/>
<polygon fill="#63b8ff" stroke="#63b8ff" points="252.56,-65.7 262.61,-62.33 252.65,-58.71 252.56,-65.7"/>
</a>
</g>
</g>
<!-- Node5 -->
<g id="Node000005" class="node">
<title>Node5</title>
<g id="a_Node000005"><a xlink:href="p__main_8fpp_8f90.html#aeec10ee8e2940c953967da3e374e1579" target="_top" xlink:title="Quasi&#45;conservative, shock&#45; and interface&#45; capturing finite&#45;volume scheme for the multicomponent Navie...">
<polygon fill="white" stroke="#666666" points="53,-47.5 0,-47.5 0,-28.5 53,-28.5 53,-47.5"/>
<text text-anchor="middle" x="26.5" y="-35.5" font-family="Helvetica,sans-Serif" font-size="10.00">p_main</text>
</a>
</g>
</g>
<!-- Node4&#45;&gt;Node5 -->
<g id="edge4_Node000004_Node000005" class="edge">
<title>Node4&#45;&gt;Node5</title>
<g id="a_edge4_Node000004_Node000005"><a xlink:title=" ">
<path fill="none" stroke="#63b8ff" d="M78.74,-47.39C69.58,-45.71 60.76,-44.09 53.09,-42.69"/>
<polygon fill="#63b8ff" stroke="#63b8ff" points="78.31,-50.87 88.78,-49.23 79.57,-43.99 78.31,-50.87"/>
</a>
</g>
</g>
<!-- Node6&#45;&gt;Node5 -->
<g id="edge6_Node000006_Node000005" class="edge">
<title>Node6&#45;&gt;Node5</title>
<g id="a_edge6_Node000006_Node000005"><a xlink:title=" ">
<path fill="none" stroke="#63b8ff" d="M244.71,-20.74C182.31,-25.7 95.71,-32.58 53.17,-35.96"/>
<polygon fill="#63b8ff" stroke="#63b8ff" points="245.2,-24.22 254.89,-19.93 244.65,-17.24 245.2,-24.22"/>
</a>
</g>
</g>
</g>
</svg>
