<?xml version="1.0" encoding="UTF-8" standalone="no"?>
<!DOCTYPE svg PUBLIC "-//W3C//DTD SVG 1.1//EN"
 "http://www.w3.org/Graphics/SVG/1.1/DTD/svg11.dtd">
<!-- Generated by graphviz version 2.43.0 (0)
 -->
<!-- Title: m_model::f_read_line Pages: 1 -->
<svg width="1099pt" height="114pt"
 viewBox="0.00 0.00 1099.00 113.50" xmlns="http://www.w3.org/2000/svg" xmlns:xlink="http://www.w3.org/1999/xlink">
<g id="graph0" class="graph" transform="scale(1 1) rotate(0) translate(4 109.5)">
<title>m_model::f_read_line</title>
<!-- Node1 -->
<g id="Node000001" class="node">
<title>Node1</title>
<g id="a_Node000001"><a xlink:title=" ">
<polygon fill="#999999" stroke="#666666" points="1091,-67.5 969,-67.5 969,-48.5 1091,-48.5 1091,-67.5"/>
<text text-anchor="middle" x="1030" y="-55.5" font-family="Helvetica,sans-Serif" font-size="10.00">m_model::f_read_line</text>
</a>
</g>
</g>
<!-- Node2 -->
<g id="Node000002" class="node">
<title>Node2</title>
<g id="a_Node000002"><a xlink:href="namespacem__model.html#a33ad862ed39fa4f0a0364389cf9a0821" target="_top" xlink:title="This procedure reads an OBJ file.">
<polygon fill="white" stroke="#666666" points="756,-105.5 635,-105.5 635,-86.5 756,-86.5 756,-105.5"/>
<text text-anchor="middle" x="695.5" y="-93.5" font-family="Helvetica,sans-Serif" font-size="10.00">m_model::s_read_obj</text>
</a>
</g>
</g>
<!-- Node1&#45;&gt;Node2 -->
<g id="edge1_Node000001_Node000002" class="edge">
<title>Node1&#45;&gt;Node2</title>
<g id="a_edge1_Node000001_Node000002"><a xlink:title=" ">
<path fill="none" stroke="#63b8ff" d="M958.72,-66.06C950.06,-67.05 941.33,-68.05 933,-69 872.85,-75.88 804.09,-83.73 756.28,-89.18"/>
<polygon fill="#63b8ff" stroke="#63b8ff" points="959.29,-69.51 968.83,-64.9 958.5,-62.56 959.29,-69.51"/>
</a>
</g>
</g>
<!-- Node6 -->
<g id="Node000006" class="node">
<title>Node6</title>
<g id="a_Node000006"><a xlink:href="namespacem__model.html#ad7e72764fdcd2dac89b5e91d0d7db271" target="_top" xlink:title="This procedure reads an ASCII STL file.">
<polygon fill="white" stroke="#666666" points="754.5,-68 636.5,-68 636.5,-38 754.5,-38 754.5,-68"/>
<text text-anchor="start" x="644.5" y="-56" font-family="Helvetica,sans-Serif" font-size="10.00">m_model::s_read_stl</text>
<text text-anchor="middle" x="695.5" y="-45" font-family="Helvetica,sans-Serif" font-size="10.00">_ascii</text>
</a>
</g>
</g>
<!-- Node1&#45;&gt;Node6 -->
<g id="edge5_Node000001_Node000006" class="edge">
<title>Node1&#45;&gt;Node6</title>
<g id="a_edge5_Node000001_Node000006"><a xlink:title=" ">
<path fill="none" stroke="#63b8ff" d="M958.53,-56.94C897.86,-56.03 811.36,-54.73 754.59,-53.87"/>
<polygon fill="#63b8ff" stroke="#63b8ff" points="958.74,-60.44 968.79,-57.09 958.84,-53.44 958.74,-60.44"/>
</a>
</g>
</g>
<!-- Node8 -->
<g id="Node000008" class="node">
<title>Node8</title>
<g id="a_Node000008"><a xlink:href="namespacem__model.html#a532686157e0170dfff866cafe2162e9b" target="_top" xlink:title=" ">
<polygon fill="white" stroke="#666666" points="933,-30 792,-30 792,0 933,0 933,-30"/>
<text text-anchor="start" x="800" y="-18" font-family="Helvetica,sans-Serif" font-size="10.00">m_model::s_skip_ignored</text>
<text text-anchor="middle" x="862.5" y="-7" font-family="Helvetica,sans-Serif" font-size="10.00">_lines</text>
</a>
</g>
</g>
<!-- Node1&#45;&gt;Node8 -->
<g id="edge8_Node000001_Node000008" class="edge">
<title>Node1&#45;&gt;Node8</title>
<g id="a_edge8_Node000001_Node000008"><a xlink:title=" ">
<path fill="none" stroke="#63b8ff" d="M982.37,-45.88C963.39,-40.95 941.25,-35.2 921.26,-30.01"/>
<polygon fill="#63b8ff" stroke="#63b8ff" points="981.71,-49.33 992.27,-48.46 983.47,-42.55 981.71,-49.33"/>
</a>
</g>
</g>
<!-- Node3 -->
<g id="Node000003" class="node">
<title>Node3</title>
<g id="a_Node000003"><a xlink:href="namespacem__model.html#a8df07f3e9d228d00fef27cae7484d81e" target="_top" xlink:title="This procedure reads a mesh from a file.">
<polygon fill="white" stroke="#666666" points="445,-83.5 310,-83.5 310,-64.5 445,-64.5 445,-83.5"/>
<text text-anchor="middle" x="377.5" y="-71.5" font-family="Helvetica,sans-Serif" font-size="10.00">m_model::f_model_read</text>
</a>
</g>
</g>
<!-- Node2&#45;&gt;Node3 -->
<g id="edge2_Node000002_Node000003" class="edge">
<title>Node2&#45;&gt;Node3</title>
<g id="a_edge2_Node000002_Node000003"><a xlink:title=" ">
<path fill="none" stroke="#63b8ff" d="M624.61,-91.13C571.12,-87.41 497.84,-82.31 445.17,-78.64"/>
<polygon fill="#63b8ff" stroke="#63b8ff" points="624.47,-94.63 634.69,-91.84 624.96,-87.65 624.47,-94.63"/>
</a>
</g>
</g>
<!-- Node4 -->
<g id="Node000004" class="node">
<title>Node4</title>
<g id="a_Node000004"><a xlink:href="namespacem__ib__patches.html#ab91168784d19567f4abbf082eef50996" target="_top" xlink:title="The STL patch is a 2/3D geometry that is imported from an STL file.">
<polygon fill="white" stroke="#666666" points="274,-89 164,-89 164,-59 274,-59 274,-89"/>
<text text-anchor="start" x="172" y="-77" font-family="Helvetica,sans-Serif" font-size="10.00">m_ib_patches::s_ib</text>
<text text-anchor="middle" x="219" y="-66" font-family="Helvetica,sans-Serif" font-size="10.00">_model</text>
</a>
</g>
</g>
<!-- Node3&#45;&gt;Node4 -->
<g id="edge3_Node000003_Node000004" class="edge">
<title>Node3&#45;&gt;Node4</title>
<g id="a_edge3_Node000003_Node000004"><a xlink:title=" ">
<path fill="none" stroke="#63b8ff" d="M299.66,-74C291.1,-74 282.52,-74 274.33,-74"/>
<polygon fill="#63b8ff" stroke="#63b8ff" points="299.68,-77.5 309.68,-74 299.68,-70.5 299.68,-77.5"/>
</a>
</g>
</g>
<!-- Node5 -->
<g id="Node000005" class="node">
<title>Node5</title>
<g id="a_Node000005"><a xlink:href="namespacem__ib__patches.html#a0540992ae9a59ea772d591a5fa9a63fb" target="_top" xlink:title=" ">
<polygon fill="white" stroke="#666666" points="128,-89 0,-89 0,-59 128,-59 128,-89"/>
<text text-anchor="start" x="8" y="-77" font-family="Helvetica,sans-Serif" font-size="10.00">m_ib_patches::s_apply</text>
<text text-anchor="middle" x="64" y="-66" font-family="Helvetica,sans-Serif" font-size="10.00">_ib_patches</text>
</a>
</g>
</g>
<!-- Node4&#45;&gt;Node5 -->
<g id="edge4_Node000004_Node000005" class="edge">
<title>Node4&#45;&gt;Node5</title>
<g id="a_edge4_Node000004_Node000005"><a xlink:title=" ">
<path fill="none" stroke="#63b8ff" d="M153.49,-74C145.08,-74 136.47,-74 128.08,-74"/>
<polygon fill="#63b8ff" stroke="#63b8ff" points="153.63,-77.5 163.63,-74 153.63,-70.5 153.63,-77.5"/>
</a>
</g>
</g>
<!-- Node7 -->
<g id="Node000007" class="node">
<title>Node7</title>
<g id="a_Node000007"><a xlink:href="namespacem__model.html#a6f7ded1a2960fcf521c5892b8b1b850b" target="_top" xlink:title="This procedure reads an STL file.">
<polygon fill="white" stroke="#666666" points="599,-64.5 481,-64.5 481,-45.5 599,-45.5 599,-64.5"/>
<text text-anchor="middle" x="540" y="-52.5" font-family="Helvetica,sans-Serif" font-size="10.00">m_model::s_read_stl</text>
</a>
</g>
</g>
<!-- Node6&#45;&gt;Node7 -->
<g id="edge6_Node000006_Node000007" class="edge">
<title>Node6&#45;&gt;Node7</title>
<g id="a_edge6_Node000006_Node000007"><a xlink:title=" ">
<path fill="none" stroke="#63b8ff" d="M626.32,-53.89C617.24,-54.01 608,-54.13 599.11,-54.24"/>
<polygon fill="#63b8ff" stroke="#63b8ff" points="626.51,-57.39 636.47,-53.76 626.42,-50.39 626.51,-57.39"/>
</a>
</g>
</g>
<!-- Node7&#45;&gt;Node3 -->
<g id="edge7_Node000007_Node000003" class="edge">
<title>Node7&#45;&gt;Node3</title>
<g id="a_edge7_Node000007_Node000003"><a xlink:title=" ">
<path fill="none" stroke="#63b8ff" d="M470.44,-63.12C462.01,-64.11 453.41,-65.13 445.01,-66.13"/>
<polygon fill="#63b8ff" stroke="#63b8ff" points="471.08,-66.56 480.6,-61.91 470.26,-59.61 471.08,-66.56"/>
</a>
</g>
</g>
<!-- Node8&#45;&gt;Node6 -->
<g id="edge9_Node000008_Node000006" class="edge">
<title>Node8&#45;&gt;Node6</title>
<g id="a_edge9_Node000008_Node000006"><a xlink:title=" ">
<path fill="none" stroke="#63b8ff" d="M786.51,-32.27C775.78,-34.74 764.89,-37.25 754.55,-39.63"/>
<polygon fill="#63b8ff" stroke="#63b8ff" points="787.33,-35.67 796.29,-30.02 785.76,-28.85 787.33,-35.67"/>
</a>
</g>
</g>
</g>
</svg>
