<?xml version="1.0" encoding="UTF-8" standalone="no"?>
<!DOCTYPE svg PUBLIC "-//W3C//DTD SVG 1.1//EN"
 "http://www.w3.org/Graphics/SVG/1.1/DTD/svg11.dtd">
<!-- Generated by graphviz version 2.43.0 (0)
 -->
<!-- Title: m_helper::s_int_to_str Pages: 1 -->
<svg width="910pt" height="338pt"
 viewBox="0.00 0.00 910.00 338.00" xmlns="http://www.w3.org/2000/svg" xmlns:xlink="http://www.w3.org/1999/xlink">
<g id="graph0" class="graph" transform="scale(1 1) rotate(0) translate(4 334)">
<title>m_helper::s_int_to_str</title>
<!-- Node1 -->
<g id="Node000001" class="node">
<title>Node1</title>
<g id="a_Node000001"><a xlink:title=" ">
<polygon fill="#999999" stroke="#666666" points="902,-168.5 777,-168.5 777,-149.5 902,-149.5 902,-168.5"/>
<text text-anchor="middle" x="839.5" y="-156.5" font-family="Helvetica,sans-Serif" font-size="10.00">m_helper::s_int_to_str</text>
</a>
</g>
</g>
<!-- Node2 -->
<g id="Node000002" class="node">
<title>Node2</title>
<g id="a_Node000002"><a xlink:href="namespacem__checker.html#ae53e7ca604c26ab0fe74b9043602d4fd" target="_top" xlink:title="Checks constraints on acoustic_source parameters.">
<polygon fill="white" stroke="#666666" points="721.5,-330 604.5,-330 604.5,-300 721.5,-300 721.5,-330"/>
<text text-anchor="start" x="612.5" y="-318" font-family="Helvetica,sans-Serif" font-size="10.00">m_checker::s_check</text>
<text text-anchor="middle" x="663" y="-307" font-family="Helvetica,sans-Serif" font-size="10.00">_inputs_acoustic_src</text>
</a>
</g>
</g>
<!-- Node1&#45;&gt;Node2 -->
<g id="edge1_Node000001_Node000002" class="edge">
<title>Node1&#45;&gt;Node2</title>
<g id="a_edge1_Node000001_Node000002"><a xlink:title=" ">
<path fill="none" stroke="#63b8ff" d="M829.5,-177.9C814.91,-206.56 783.38,-260.84 741,-291 735.18,-295.14 728.62,-298.58 721.86,-301.44"/>
<polygon fill="#63b8ff" stroke="#63b8ff" points="832.81,-179.11 834.1,-168.6 826.53,-176.01 832.81,-179.11"/>
</a>
</g>
</g>
<!-- Node7 -->
<g id="Node000007" class="node">
<title>Node7</title>
<g id="a_Node000007"><a xlink:href="namespacem__checker.html#a96654b50668ae39c0b9eca1426a3fe56" target="_top" xlink:title=" ">
<polygon fill="white" stroke="#666666" points="720,-282 606,-282 606,-252 720,-252 720,-282"/>
<text text-anchor="start" x="614" y="-270" font-family="Helvetica,sans-Serif" font-size="10.00">m_checker::s_check</text>
<text text-anchor="middle" x="663" y="-259" font-family="Helvetica,sans-Serif" font-size="10.00">_inputs_muscl</text>
</a>
</g>
</g>
<!-- Node1&#45;&gt;Node7 -->
<g id="edge6_Node000001_Node000007" class="edge">
<title>Node1&#45;&gt;Node7</title>
<g id="a_edge6_Node000001_Node000007"><a xlink:title=" ">
<path fill="none" stroke="#63b8ff" d="M822.93,-176.09C804.89,-194.94 773.48,-224.98 741,-243 734.51,-246.6 727.41,-249.74 720.22,-252.45"/>
<polygon fill="#63b8ff" stroke="#63b8ff" points="825.51,-178.45 829.8,-168.76 820.41,-173.66 825.51,-178.45"/>
</a>
</g>
</g>
<!-- Node8 -->
<g id="Node000008" class="node">
<title>Node8</title>
<g id="a_Node000008"><a xlink:href="namespacem__checker__common.html#a20cb17f4b2111c489c7a31856a149b32" target="_top" xlink:title="Checks constraints on the stiffened equation of state fluids parameters. Called by s_check_inputs_com...">
<polygon fill="white" stroke="#666666" points="741,-126 585,-126 585,-96 741,-96 741,-126"/>
<text text-anchor="start" x="593" y="-114" font-family="Helvetica,sans-Serif" font-size="10.00">m_checker_common::s</text>
<text text-anchor="middle" x="663" y="-103" font-family="Helvetica,sans-Serif" font-size="10.00">_check_inputs_stiffened_eos</text>
</a>
</g>
</g>
<!-- Node1&#45;&gt;Node8 -->
<g id="edge8_Node000001_Node000008" class="edge">
<title>Node1&#45;&gt;Node8</title>
<g id="a_edge8_Node000001_Node000008"><a xlink:title=" ">
<path fill="none" stroke="#63b8ff" d="M793.82,-146.71C770.96,-140.42 742.92,-132.71 718.76,-126.06"/>
<polygon fill="#63b8ff" stroke="#63b8ff" points="793.04,-150.12 803.61,-149.4 794.89,-143.37 793.04,-150.12"/>
</a>
</g>
</g>
<!-- Node10 -->
<g id="Node000010" class="node">
<title>Node10</title>
<g id="a_Node000010"><a xlink:href="namespacem__checker.html#a45be1868d8f0598be1781280e39078d3" target="_top" xlink:title="Checks constraints on viscosity parameters (fluid_pp(i)Re(1:2)) of the stiffened gas equation of stat...">
<polygon fill="white" stroke="#666666" points="724,-233.5 602,-233.5 602,-192.5 724,-192.5 724,-233.5"/>
<text text-anchor="start" x="610" y="-221.5" font-family="Helvetica,sans-Serif" font-size="10.00">m_checker::s_check</text>
<text text-anchor="start" x="610" y="-210.5" font-family="Helvetica,sans-Serif" font-size="10.00">_inputs_stiffened_eos</text>
<text text-anchor="middle" x="663" y="-199.5" font-family="Helvetica,sans-Serif" font-size="10.00">_viscosity</text>
</a>
</g>
</g>
<!-- Node1&#45;&gt;Node10 -->
<g id="edge11_Node000001_Node000010" class="edge">
<title>Node1&#45;&gt;Node10</title>
<g id="a_edge11_Node000001_Node000010"><a xlink:title=" ">
<path fill="none" stroke="#63b8ff" d="M798.05,-171.52C776.1,-178.31 748.54,-186.84 724.13,-194.39"/>
<polygon fill="#63b8ff" stroke="#63b8ff" points="799.19,-174.83 807.7,-168.53 797.12,-168.14 799.19,-174.83"/>
</a>
</g>
</g>
<!-- Node11 -->
<g id="Node000011" class="node">
<title>Node11</title>
<g id="a_Node000011"><a xlink:href="namespacem__checker.html#a8abd19271bbd3a0d8a4b445f1e7dba57" target="_top" xlink:title="Checks constraints on WENO scheme parameters.">
<polygon fill="white" stroke="#666666" points="720,-174 606,-174 606,-144 720,-144 720,-174"/>
<text text-anchor="start" x="614" y="-162" font-family="Helvetica,sans-Serif" font-size="10.00">m_checker::s_check</text>
<text text-anchor="middle" x="663" y="-151" font-family="Helvetica,sans-Serif" font-size="10.00">_inputs_weno</text>
</a>
</g>
</g>
<!-- Node1&#45;&gt;Node11 -->
<g id="edge13_Node000001_Node000011" class="edge">
<title>Node1&#45;&gt;Node11</title>
<g id="a_edge13_Node000001_Node000011"><a xlink:title=" ">
<path fill="none" stroke="#63b8ff" d="M766.84,-159C751.22,-159 734.92,-159 720.02,-159"/>
<polygon fill="#63b8ff" stroke="#63b8ff" points="766.98,-162.5 776.98,-159 766.98,-155.5 766.98,-162.5"/>
</a>
</g>
</g>
<!-- Node12 -->
<g id="Node000012" class="node">
<title>Node12</title>
<g id="a_Node000012"><a xlink:href="namespacem__checker__common.html#abf7ee76feb76e0dfa1301860374be234" target="_top" xlink:title=" ">
<polygon fill="white" stroke="#666666" points="727,-78 599,-78 599,-48 727,-48 727,-78"/>
<text text-anchor="start" x="607" y="-66" font-family="Helvetica,sans-Serif" font-size="10.00">m_checker_common::s</text>
<text text-anchor="middle" x="663" y="-55" font-family="Helvetica,sans-Serif" font-size="10.00">_check_total_cells</text>
</a>
</g>
</g>
<!-- Node1&#45;&gt;Node12 -->
<g id="edge15_Node000001_Node000012" class="edge">
<title>Node1&#45;&gt;Node12</title>
<g id="a_edge15_Node000001_Node000012"><a xlink:title=" ">
<path fill="none" stroke="#63b8ff" d="M820.17,-142.51C801.44,-126.41 770.95,-102.18 741,-87 734.38,-83.64 727.2,-80.65 719.98,-78.01"/>
<polygon fill="#63b8ff" stroke="#63b8ff" points="818.07,-145.32 827.9,-149.27 822.67,-140.05 818.07,-145.32"/>
</a>
</g>
</g>
<!-- Node13 -->
<g id="Node000013" class="node">
<title>Node13</title>
<g id="a_Node000013"><a xlink:href="namespacem__data__output.html#a70eef01cb0dda6dd292ddc4b63544be5" target="_top" xlink:title="The goal of this subroutine is to output the grid and conservative variables data files for given tim...">
<polygon fill="white" stroke="#666666" points="728.5,-30 597.5,-30 597.5,0 728.5,0 728.5,-30"/>
<text text-anchor="start" x="605.5" y="-18" font-family="Helvetica,sans-Serif" font-size="10.00">m_data_output::s_write</text>
<text text-anchor="middle" x="663" y="-7" font-family="Helvetica,sans-Serif" font-size="10.00">_parallel_data_files</text>
</a>
</g>
</g>
<!-- Node1&#45;&gt;Node13 -->
<g id="edge17_Node000001_Node000013" class="edge">
<title>Node1&#45;&gt;Node13</title>
<g id="a_edge17_Node000001_Node000013"><a xlink:title=" ">
<path fill="none" stroke="#63b8ff" d="M828.17,-140.33C812.64,-113.94 780.81,-65.96 741,-39 735.9,-35.55 730.28,-32.57 724.46,-30.01"/>
<polygon fill="#63b8ff" stroke="#63b8ff" points="825.3,-142.36 833.31,-149.29 831.37,-138.88 825.3,-142.36"/>
</a>
</g>
</g>
<!-- Node3 -->
<g id="Node000003" class="node">
<title>Node3</title>
<g id="a_Node000003"><a xlink:href="namespacem__checker.html#a214e05cb46bc7c3e0dbe55fdc433c072" target="_top" xlink:title="Checks compatibility of parameters in the input file. Used by the simulation stage.">
<polygon fill="white" stroke="#666666" points="539,-228 425,-228 425,-198 539,-198 539,-228"/>
<text text-anchor="start" x="433" y="-216" font-family="Helvetica,sans-Serif" font-size="10.00">m_checker::s_check</text>
<text text-anchor="middle" x="482" y="-205" font-family="Helvetica,sans-Serif" font-size="10.00">_inputs</text>
</a>
</g>
</g>
<!-- Node2&#45;&gt;Node3 -->
<g id="edge2_Node000002_Node000003" class="edge">
<title>Node2&#45;&gt;Node3</title>
<g id="a_edge2_Node000002_Node000003"><a xlink:title=" ">
<path fill="none" stroke="#63b8ff" d="M596.02,-296.16C592.24,-294.55 588.54,-292.83 585,-291 551.74,-273.79 518.2,-245.58 499.08,-228.21"/>
<polygon fill="#63b8ff" stroke="#63b8ff" points="594.97,-299.51 605.56,-299.94 597.55,-293 594.97,-299.51"/>
</a>
</g>
</g>
<!-- Node4 -->
<g id="Node000004" class="node">
<title>Node4</title>
<g id="a_Node000004"><a xlink:href="namespacem__start__up.html#ad26e747c87bb6bcf4c9d6baa21d044c1" target="_top" xlink:title="The goal of this procedure is to verify that each of the user provided inputs is valid and that their...">
<polygon fill="white" stroke="#666666" points="379,-102 263,-102 263,-72 379,-72 379,-102"/>
<text text-anchor="start" x="271" y="-90" font-family="Helvetica,sans-Serif" font-size="10.00">m_start_up::s_check</text>
<text text-anchor="middle" x="321" y="-79" font-family="Helvetica,sans-Serif" font-size="10.00">_input_file</text>
</a>
</g>
</g>
<!-- Node3&#45;&gt;Node4 -->
<g id="edge3_Node000003_Node000004" class="edge">
<title>Node3&#45;&gt;Node4</title>
<g id="a_edge3_Node000003_Node000004"><a xlink:title=" ">
<path fill="none" stroke="#63b8ff" d="M453.75,-191.41C421.71,-166.01 369.34,-124.51 341.25,-102.25"/>
<polygon fill="#63b8ff" stroke="#63b8ff" points="451.81,-194.33 461.82,-197.8 456.16,-188.85 451.81,-194.33"/>
</a>
</g>
</g>
<!-- Node5 -->
<g id="Node000005" class="node">
<title>Node5</title>
<g id="a_Node000005"><a xlink:href="namespacem__start__up.html#ab64542f13c680e17ce8879c77c65c0e0" target="_top" xlink:title=" ">
<polygon fill="white" stroke="#666666" points="223,-95 93,-95 93,-65 223,-65 223,-95"/>
<text text-anchor="start" x="101" y="-83" font-family="Helvetica,sans-Serif" font-size="10.00">m_start_up::s_initialize</text>
<text text-anchor="middle" x="158" y="-72" font-family="Helvetica,sans-Serif" font-size="10.00">_mpi_domain</text>
</a>
</g>
</g>
<!-- Node4&#45;&gt;Node5 -->
<g id="edge4_Node000004_Node000005" class="edge">
<title>Node4&#45;&gt;Node5</title>
<g id="a_edge4_Node000004_Node000005"><a xlink:title=" ">
<path fill="none" stroke="#63b8ff" d="M252.71,-84.07C242.93,-83.65 232.88,-83.21 223.16,-82.79"/>
<polygon fill="#63b8ff" stroke="#63b8ff" points="252.64,-87.57 262.78,-84.51 252.95,-80.58 252.64,-87.57"/>
</a>
</g>
</g>
<!-- Node6 -->
<g id="Node000006" class="node">
<title>Node6</title>
<g id="a_Node000006"><a xlink:href="p__main_8fpp_8f90.html#aeec10ee8e2940c953967da3e374e1579" target="_top" xlink:title="Quasi&#45;conservative, shock&#45; and interface&#45; capturing finite&#45;volume scheme for the multicomponent Navie...">
<polygon fill="white" stroke="#666666" points="53,-66.5 0,-66.5 0,-47.5 53,-47.5 53,-66.5"/>
<text text-anchor="middle" x="26.5" y="-54.5" font-family="Helvetica,sans-Serif" font-size="10.00">p_main</text>
</a>
</g>
</g>
<!-- Node5&#45;&gt;Node6 -->
<g id="edge5_Node000005_Node000006" class="edge">
<title>Node5&#45;&gt;Node6</title>
<g id="a_edge5_Node000005_Node000006"><a xlink:title=" ">
<path fill="none" stroke="#63b8ff" d="M82.52,-66.77C72.04,-64.91 61.91,-63.11 53.26,-61.58"/>
<polygon fill="#63b8ff" stroke="#63b8ff" points="82.17,-70.26 92.63,-68.57 83.4,-63.37 82.17,-70.26"/>
</a>
</g>
</g>
<!-- Node7&#45;&gt;Node3 -->
<g id="edge7_Node000007_Node000003" class="edge">
<title>Node7&#45;&gt;Node3</title>
<g id="a_edge7_Node000007_Node000003"><a xlink:title=" ">
<path fill="none" stroke="#63b8ff" d="M602.35,-249C579.82,-242.21 554.45,-234.55 532.9,-228.05"/>
<polygon fill="#63b8ff" stroke="#63b8ff" points="601.55,-252.42 612.14,-251.96 603.58,-245.72 601.55,-252.42"/>
</a>
</g>
</g>
<!-- Node9 -->
<g id="Node000009" class="node">
<title>Node9</title>
<g id="a_Node000009"><a xlink:href="namespacem__checker__common.html#a37b5025d5e6ffafc4cb5f417387c21b8" target="_top" xlink:title="Checks compatibility of parameters in the input file. Used by all three stages.">
<polygon fill="white" stroke="#666666" points="549,-102 415,-102 415,-72 549,-72 549,-102"/>
<text text-anchor="start" x="423" y="-90" font-family="Helvetica,sans-Serif" font-size="10.00">m_checker_common::s</text>
<text text-anchor="middle" x="482" y="-79" font-family="Helvetica,sans-Serif" font-size="10.00">_check_inputs_common</text>
</a>
</g>
</g>
<!-- Node8&#45;&gt;Node9 -->
<g id="edge9_Node000008_Node000009" class="edge">
<title>Node8&#45;&gt;Node9</title>
<g id="a_edge9_Node000008_Node000009"><a xlink:title=" ">
<path fill="none" stroke="#63b8ff" d="M574.68,-99.29C566.04,-98.13 557.37,-96.97 549,-95.85"/>
<polygon fill="#63b8ff" stroke="#63b8ff" points="574.41,-102.79 584.79,-100.65 575.34,-95.85 574.41,-102.79"/>
</a>
</g>
</g>
<!-- Node9&#45;&gt;Node4 -->
<g id="edge10_Node000009_Node000004" class="edge">
<title>Node9&#45;&gt;Node4</title>
<g id="a_edge10_Node000009_Node000004"><a xlink:title=" ">
<path fill="none" stroke="#63b8ff" d="M404.87,-87C396.24,-87 387.56,-87 379.24,-87"/>
<polygon fill="#63b8ff" stroke="#63b8ff" points="404.95,-90.5 414.95,-87 404.95,-83.5 404.95,-90.5"/>
</a>
</g>
</g>
<!-- Node10&#45;&gt;Node3 -->
<g id="edge12_Node000010_Node000003" class="edge">
<title>Node10&#45;&gt;Node3</title>
<g id="a_edge12_Node000010_Node000003"><a xlink:title=" ">
<path fill="none" stroke="#63b8ff" d="M591.74,-213C574.24,-213 555.72,-213 539.02,-213"/>
<polygon fill="#63b8ff" stroke="#63b8ff" points="591.9,-216.5 601.9,-213 591.9,-209.5 591.9,-216.5"/>
</a>
</g>
</g>
<!-- Node11&#45;&gt;Node3 -->
<g id="edge14_Node000011_Node000003" class="edge">
<title>Node11&#45;&gt;Node3</title>
<g id="a_edge14_Node000011_Node000003"><a xlink:title=" ">
<path fill="none" stroke="#63b8ff" d="M602.35,-177C579.82,-183.79 554.45,-191.45 532.9,-197.95"/>
<polygon fill="#63b8ff" stroke="#63b8ff" points="603.58,-180.28 612.14,-174.04 601.55,-173.58 603.58,-180.28"/>
</a>
</g>
</g>
<!-- Node12&#45;&gt;Node9 -->
<g id="edge16_Node000012_Node000009" class="edge">
<title>Node12&#45;&gt;Node9</title>
<g id="a_edge16_Node000012_Node000009"><a xlink:title=" ">
<path fill="none" stroke="#63b8ff" d="M588.94,-72.8C575.78,-74.56 562.13,-76.39 549.18,-78.13"/>
<polygon fill="#63b8ff" stroke="#63b8ff" points="589.45,-76.26 598.89,-71.46 588.51,-69.32 589.45,-76.26"/>
</a>
</g>
</g>
<!-- Node14 -->
<g id="Node000014" class="node">
<title>Node14</title>
<g id="a_Node000014"><a xlink:href="namespacem__data__output.html#a9eea8de093f055adb3b786bff3cab2d8" target="_top" xlink:title="Write data files. Dispatch subroutine that replaces procedure pointer.">
<polygon fill="white" stroke="#666666" points="547.5,-42 416.5,-42 416.5,-12 547.5,-12 547.5,-42"/>
<text text-anchor="start" x="424.5" y="-30" font-family="Helvetica,sans-Serif" font-size="10.00">m_data_output::s_write</text>
<text text-anchor="middle" x="482" y="-19" font-family="Helvetica,sans-Serif" font-size="10.00">_data_files</text>
</a>
</g>
</g>
<!-- Node13&#45;&gt;Node14 -->
<g id="edge18_Node000013_Node000014" class="edge">
<title>Node13&#45;&gt;Node14</title>
<g id="a_edge18_Node000013_Node000014"><a xlink:title=" ">
<path fill="none" stroke="#63b8ff" d="M587.36,-20C574.13,-20.89 560.45,-21.81 547.53,-22.67"/>
<polygon fill="#63b8ff" stroke="#63b8ff" points="587.63,-23.49 597.38,-19.33 587.17,-16.51 587.63,-23.49"/>
</a>
</g>
</g>
<!-- Node15 -->
<g id="Node000015" class="node">
<title>Node15</title>
<g id="a_Node000015"><a xlink:href="namespacem__start__up.html#a47ade6ffcd98aafcccf10910f626142d" target="_top" xlink:title=" ">
<polygon fill="white" stroke="#666666" points="227,-45.5 89,-45.5 89,-26.5 227,-26.5 227,-45.5"/>
<text text-anchor="middle" x="158" y="-33.5" font-family="Helvetica,sans-Serif" font-size="10.00">m_start_up::s_save_data</text>
</a>
</g>
</g>
<!-- Node14&#45;&gt;Node15 -->
<g id="edge19_Node000014_Node000015" class="edge">
<title>Node14&#45;&gt;Node15</title>
<g id="a_edge19_Node000014_Node000015"><a xlink:title=" ">
<path fill="none" stroke="#63b8ff" d="M406,-29.1C351.89,-30.61 279.43,-32.63 227,-34.1"/>
<polygon fill="#63b8ff" stroke="#63b8ff" points="406.33,-32.59 416.23,-28.81 406.13,-25.59 406.33,-32.59"/>
</a>
</g>
</g>
<!-- Node15&#45;&gt;Node6 -->
<g id="edge20_Node000015_Node000006" class="edge">
<title>Node15&#45;&gt;Node6</title>
<g id="a_edge20_Node000015_Node000006"><a xlink:title=" ">
<path fill="none" stroke="#63b8ff" d="M88.29,-47.14C75.8,-49.17 63.51,-51.16 53.28,-52.82"/>
<polygon fill="#63b8ff" stroke="#63b8ff" points="89,-50.57 98.31,-45.52 87.88,-43.66 89,-50.57"/>
</a>
</g>
</g>
</g>
</svg>
