<?xml version="1.0" encoding="UTF-8" standalone="no"?>
<!DOCTYPE svg PUBLIC "-//W3C//DTD SVG 1.1//EN"
 "http://www.w3.org/Graphics/SVG/1.1/DTD/svg11.dtd">
<!-- Generated by graphviz version 2.43.0 (0)
 -->
<!-- Title: m_bubbles::s_advance_substep Pages: 1 -->
<svg width="813pt" height="605pt"
 viewBox="0.00 0.00 813.00 604.81" xmlns="http://www.w3.org/2000/svg" xmlns:xlink="http://www.w3.org/1999/xlink">
<g id="graph0" class="graph" transform="scale(1 1) rotate(0) translate(4 600.81)">
<title>m_bubbles::s_advance_substep</title>
<!-- Node1 -->
<g id="Node000001" class="node">
<title>Node1</title>
<g id="a_Node000001"><a xlink:title="Integrate bubble variables over the given time step size, h, using a third&#45;order accurate embedded Ru...">
<polygon fill="#999999" stroke="#666666" points="128,-336.5 0,-336.5 0,-306.5 128,-306.5 128,-336.5"/>
<text text-anchor="start" x="8" y="-324.5" font-family="Helvetica,sans-Serif" font-size="10.00">m_bubbles::s_advance</text>
<text text-anchor="middle" x="64" y="-313.5" font-family="Helvetica,sans-Serif" font-size="10.00">_substep</text>
</a>
</g>
</g>
<!-- Node2 -->
<g id="Node000002" class="node">
<title>Node2</title>
<g id="a_Node000002"><a xlink:href="namespacem__helper__basic.html#a3f0eae73a833f30924d4b2665a13a429" target="_top" xlink:title="This procedure checks if two floating point numbers of wp are within tolerance.">
<polygon fill="white" stroke="#666666" points="805,-529.5 663,-529.5 663,-499.5 805,-499.5 805,-529.5"/>
<text text-anchor="start" x="671" y="-517.5" font-family="Helvetica,sans-Serif" font-size="10.00">m_helper_basic::f_approx</text>
<text text-anchor="middle" x="734" y="-506.5" font-family="Helvetica,sans-Serif" font-size="10.00">_equal</text>
</a>
</g>
</g>
<!-- Node1&#45;&gt;Node2 -->
<g id="edge1_Node000001_Node000002" class="edge">
<title>Node1&#45;&gt;Node2</title>
<g id="a_edge1_Node000001_Node000002"><a xlink:title=" ">
<path fill="none" stroke="#63b8ff" d="M75.04,-336.83C107.04,-384.11 212.23,-527.57 342,-578.5 464.56,-626.6 622.43,-566.99 694.29,-533.85"/>
<polygon fill="#63b8ff" stroke="#63b8ff" points="695.87,-536.98 703.44,-529.56 692.9,-530.64 695.87,-536.98"/>
</a>
</g>
</g>
<!-- Node3 -->
<g id="Node000003" class="node">
<title>Node3</title>
<g id="a_Node000003"><a xlink:href="namespacem__bubbles.html#a5df386bacf57fa1f7799b9aad47a4f94" target="_top" xlink:title="Function that computes the bubble radial acceleration based on bubble models.">
<polygon fill="white" stroke="#666666" points="290,-331 180,-331 180,-312 290,-312 290,-331"/>
<text text-anchor="middle" x="235" y="-319" font-family="Helvetica,sans-Serif" font-size="10.00">m_bubbles::f_rddot</text>
</a>
</g>
</g>
<!-- Node1&#45;&gt;Node3 -->
<g id="edge2_Node000001_Node000003" class="edge">
<title>Node1&#45;&gt;Node3</title>
<g id="a_edge2_Node000001_Node000003"><a xlink:title=" ">
<path fill="none" stroke="#63b8ff" d="M128.41,-321.5C141.92,-321.5 156.2,-321.5 169.74,-321.5"/>
<polygon fill="#63b8ff" stroke="#63b8ff" points="169.92,-325 179.92,-321.5 169.92,-318 169.92,-325"/>
</a>
</g>
</g>
<!-- Node14 -->
<g id="Node000014" class="node">
<title>Node14</title>
<g id="a_Node000014"><a xlink:href="namespacem__bubbles.html#a88a8daa59a9552119dcf580be1833920" target="_top" xlink:title="Changes of pressure and vapor mass in the lagrange bubbles.">
<polygon fill="white" stroke="#666666" points="306,-56 164,-56 164,-37 306,-37 306,-56"/>
<text text-anchor="middle" x="235" y="-44" font-family="Helvetica,sans-Serif" font-size="10.00">m_bubbles::s_advance_el</text>
</a>
</g>
</g>
<!-- Node1&#45;&gt;Node14 -->
<g id="edge25_Node000001_Node000014" class="edge">
<title>Node1&#45;&gt;Node14</title>
<g id="a_edge25_Node000001_Node000014"><a xlink:title=" ">
<path fill="none" stroke="#63b8ff" d="M74.33,-306.32C103.26,-259.25 191.4,-115.82 222.77,-64.78"/>
<polygon fill="#63b8ff" stroke="#63b8ff" points="225.84,-66.46 228.09,-56.11 219.88,-62.8 225.84,-66.46"/>
</a>
</g>
</g>
<!-- Node3&#45;&gt;Node3 -->
<g id="edge17_Node000003_Node000003" class="edge">
<title>Node3&#45;&gt;Node3</title>
<g id="a_edge17_Node000003_Node000003"><a xlink:title=" ">
<path fill="none" stroke="#63b8ff" d="M208.8,-331.08C196.05,-339.73 204.79,-349 235,-349 255.3,-349 265.9,-344.82 266.81,-339.45"/>
<polygon fill="#63b8ff" stroke="#63b8ff" points="269.68,-337.44 261.2,-331.08 263.86,-341.34 269.68,-337.44"/>
</a>
</g>
</g>
<!-- Node4 -->
<g id="Node000004" class="node">
<title>Node4</title>
<g id="a_Node000004"><a xlink:href="namespacem__bubbles.html#aae7ae64f879a97d643b2d7bd9541d21d" target="_top" xlink:title="Function that computes the sound speed for the bubble.">
<polygon fill="white" stroke="#666666" points="462,-551 355,-551 355,-532 462,-532 462,-551"/>
<text text-anchor="middle" x="408.5" y="-539" font-family="Helvetica,sans-Serif" font-size="10.00">m_bubbles::f_cgas</text>
</a>
</g>
</g>
<!-- Node3&#45;&gt;Node4 -->
<g id="edge3_Node000003_Node000004" class="edge">
<title>Node3&#45;&gt;Node4</title>
<g id="a_edge3_Node000003_Node000004"><a xlink:title=" ">
<path fill="none" stroke="#63b8ff" d="M238.18,-331.28C245.99,-363.92 275.68,-470.1 342,-523.5 343.58,-524.78 345.25,-525.96 346.99,-527.06"/>
<polygon fill="#63b8ff" stroke="#63b8ff" points="345.64,-530.31 356.11,-531.9 348.92,-524.13 345.64,-530.31"/>
</a>
</g>
</g>
<!-- Node5 -->
<g id="Node000005" class="node">
<title>Node5</title>
<g id="a_Node000005"><a xlink:href="namespacem__bubbles.html#a18ae4c4ee0f2b0d92b8dfe7eb02d09ef" target="_top" xlink:title="Function that computes that bubble wall pressure for Gilmore bubbles.">
<polygon fill="white" stroke="#666666" points="463.5,-496 353.5,-496 353.5,-477 463.5,-477 463.5,-496"/>
<text text-anchor="middle" x="408.5" y="-484" font-family="Helvetica,sans-Serif" font-size="10.00">m_bubbles::f_cpbw</text>
</a>
</g>
</g>
<!-- Node3&#45;&gt;Node5 -->
<g id="edge5_Node000003_Node000005" class="edge">
<title>Node3&#45;&gt;Node5</title>
<g id="a_edge5_Node000003_Node000005"><a xlink:title=" ">
<path fill="none" stroke="#63b8ff" d="M240.11,-331.13C251.87,-357.46 288.25,-431.16 342,-468.5 344.24,-470.05 346.61,-471.48 349.06,-472.77"/>
<polygon fill="#63b8ff" stroke="#63b8ff" points="347.71,-476.01 358.27,-476.96 350.61,-469.63 347.71,-476.01"/>
</a>
</g>
</g>
<!-- Node6 -->
<g id="Node000006" class="node">
<title>Node6</title>
<g id="a_Node000006"><a xlink:href="namespacem__bubbles.html#a81ceea09547775d9e7e50dbd6bf7386f" target="_top" xlink:title="Function that computes the bubble wall pressure for Keller–Miksis bubbles.">
<polygon fill="white" stroke="#666666" points="474,-441 343,-441 343,-422 474,-422 474,-441"/>
<text text-anchor="middle" x="408.5" y="-429" font-family="Helvetica,sans-Serif" font-size="10.00">m_bubbles::f_cpbw_km</text>
</a>
</g>
</g>
<!-- Node3&#45;&gt;Node6 -->
<g id="edge7_Node000003_Node000006" class="edge">
<title>Node3&#45;&gt;Node6</title>
<g id="a_edge7_Node000003_Node000006"><a xlink:title=" ">
<path fill="none" stroke="#63b8ff" d="M244.31,-331.15C260.94,-349.86 300.32,-391.19 342,-413.5 345.47,-415.36 349.15,-417.04 352.92,-418.55"/>
<polygon fill="#63b8ff" stroke="#63b8ff" points="351.83,-421.88 362.42,-421.99 354.21,-415.3 351.83,-421.88"/>
</a>
</g>
</g>
<!-- Node8 -->
<g id="Node000008" class="node">
<title>Node8</title>
<g id="a_Node000008"><a xlink:href="namespacem__bubbles.html#a14183fd210b702c60dd2d95a6f4c8e7b" target="_top" xlink:title="Function that computes the time derivative of the driving pressure.">
<polygon fill="white" stroke="#666666" points="471,-386 346,-386 346,-367 471,-367 471,-386"/>
<text text-anchor="middle" x="408.5" y="-374" font-family="Helvetica,sans-Serif" font-size="10.00">m_bubbles::f_cpinfdot</text>
</a>
</g>
</g>
<!-- Node3&#45;&gt;Node8 -->
<g id="edge11_Node000003_Node000008" class="edge">
<title>Node3&#45;&gt;Node8</title>
<g id="a_edge11_Node000003_Node000008"><a xlink:title=" ">
<path fill="none" stroke="#63b8ff" d="M261.97,-331.12C283.33,-338.89 314.46,-349.92 342,-358.5 348.13,-360.41 354.62,-362.32 361.04,-364.15"/>
<polygon fill="#63b8ff" stroke="#63b8ff" points="360.42,-367.61 370.99,-366.94 362.31,-360.87 360.42,-367.61"/>
</a>
</g>
</g>
<!-- Node9 -->
<g id="Node000009" class="node">
<title>Node9</title>
<g id="a_Node000009"><a xlink:href="namespacem__bubbles.html#a3a49f60f2fa78d27a675690063d3f9ea" target="_top" xlink:title="Function that computes the bubble enthalpy.">
<polygon fill="white" stroke="#666666" points="454,-331 363,-331 363,-312 454,-312 454,-331"/>
<text text-anchor="middle" x="408.5" y="-319" font-family="Helvetica,sans-Serif" font-size="10.00">m_bubbles::f_h</text>
</a>
</g>
</g>
<!-- Node3&#45;&gt;Node9 -->
<g id="edge13_Node000003_Node000009" class="edge">
<title>Node3&#45;&gt;Node9</title>
<g id="a_edge13_Node000003_Node000009"><a xlink:title=" ">
<path fill="none" stroke="#63b8ff" d="M290.26,-321.5C310.15,-321.5 332.67,-321.5 352.61,-321.5"/>
<polygon fill="#63b8ff" stroke="#63b8ff" points="352.78,-325 362.78,-321.5 352.78,-318 352.78,-325"/>
</a>
</g>
</g>
<!-- Node10 -->
<g id="Node000010" class="node">
<title>Node10</title>
<g id="a_Node000010"><a xlink:href="namespacem__bubbles.html#ac276af3c9b464b21aa811729baa84ed8" target="_top" xlink:title="Function that computes the time derivative of the enthalpy.">
<polygon fill="white" stroke="#666666" points="462,-276 355,-276 355,-257 462,-257 462,-276"/>
<text text-anchor="middle" x="408.5" y="-264" font-family="Helvetica,sans-Serif" font-size="10.00">m_bubbles::f_hdot</text>
</a>
</g>
</g>
<!-- Node3&#45;&gt;Node10 -->
<g id="edge15_Node000003_Node000010" class="edge">
<title>Node3&#45;&gt;Node10</title>
<g id="a_edge15_Node000003_Node000010"><a xlink:title=" ">
<path fill="none" stroke="#63b8ff" d="M265.87,-311.92C294.19,-302.84 336.91,-289.14 368.02,-279.16"/>
<polygon fill="#63b8ff" stroke="#63b8ff" points="369.23,-282.45 377.68,-276.06 367.09,-275.78 369.23,-282.45"/>
</a>
</g>
</g>
<!-- Node11 -->
<g id="Node000011" class="node">
<title>Node11</title>
<g id="a_Node000011"><a xlink:href="namespacem__bubbles.html#a715af22ce26819c30d2d4f4e4e5ab0b4" target="_top" xlink:title="Function that computes the bubble radial acceleration.">
<polygon fill="white" stroke="#666666" points="469.5,-221 347.5,-221 347.5,-202 469.5,-202 469.5,-221"/>
<text text-anchor="middle" x="408.5" y="-209" font-family="Helvetica,sans-Serif" font-size="10.00">m_bubbles::f_rddot_g</text>
</a>
</g>
</g>
<!-- Node3&#45;&gt;Node11 -->
<g id="edge18_Node000003_Node000011" class="edge">
<title>Node3&#45;&gt;Node11</title>
<g id="a_edge18_Node000003_Node000011"><a xlink:title=" ">
<path fill="none" stroke="#63b8ff" d="M249.13,-311.89C268.92,-297.55 307.7,-269.94 342,-248.5 354.41,-240.74 368.5,-232.69 380.43,-226.08"/>
<polygon fill="#63b8ff" stroke="#63b8ff" points="382.37,-229.01 389.46,-221.13 379.01,-222.87 382.37,-229.01"/>
</a>
</g>
</g>
<!-- Node12 -->
<g id="Node000012" class="node">
<title>Node12</title>
<g id="a_Node000012"><a xlink:href="namespacem__bubbles.html#a83c550e90a8910cec7e95683ebd1ef35" target="_top" xlink:title="Function that computes the bubble radial acceleration for Keller–Miksis bubbles.">
<polygon fill="white" stroke="#666666" points="474,-166 343,-166 343,-147 474,-147 474,-166"/>
<text text-anchor="middle" x="408.5" y="-154" font-family="Helvetica,sans-Serif" font-size="10.00">m_bubbles::f_rddot_km</text>
</a>
</g>
</g>
<!-- Node3&#45;&gt;Node12 -->
<g id="edge20_Node000003_Node000012" class="edge">
<title>Node3&#45;&gt;Node12</title>
<g id="a_edge20_Node000003_Node000012"><a xlink:title=" ">
<path fill="none" stroke="#63b8ff" d="M242.19,-311.81C257.14,-288.97 297.3,-230.9 342,-193.5 352.59,-184.64 365.61,-176.79 377.24,-170.62"/>
<polygon fill="#63b8ff" stroke="#63b8ff" points="378.88,-173.71 386.2,-166.05 375.7,-167.48 378.88,-173.71"/>
</a>
</g>
</g>
<!-- Node13 -->
<g id="Node000013" class="node">
<title>Node13</title>
<g id="a_Node000013"><a xlink:href="namespacem__bubbles.html#af1d904ee7ec2c4fa5b6eecc8ac5d0b92" target="_top" xlink:title="Function that computes the bubble radial acceleration for Rayleigh&#45;Plesset bubbles.">
<polygon fill="white" stroke="#666666" points="471,-111 346,-111 346,-92 471,-92 471,-111"/>
<text text-anchor="middle" x="408.5" y="-99" font-family="Helvetica,sans-Serif" font-size="10.00">m_bubbles::f_rddot_rp</text>
</a>
</g>
</g>
<!-- Node3&#45;&gt;Node13 -->
<g id="edge23_Node000003_Node000013" class="edge">
<title>Node3&#45;&gt;Node13</title>
<g id="a_edge23_Node000003_Node000013"><a xlink:title=" ">
<path fill="none" stroke="#63b8ff" d="M239.37,-311.91C250.12,-282.49 286.18,-192.21 342,-137.5 351.12,-128.56 362.91,-121.17 373.97,-115.46"/>
<polygon fill="#63b8ff" stroke="#63b8ff" points="375.55,-118.59 383.02,-111.07 372.49,-112.29 375.55,-118.59"/>
</a>
</g>
</g>
<!-- Node4&#45;&gt;Node4 -->
<g id="edge4_Node000004_Node000004" class="edge">
<title>Node4&#45;&gt;Node4</title>
<g id="a_edge4_Node000004_Node000004"><a xlink:title=" ">
<path fill="none" stroke="#63b8ff" d="M383.84,-551.08C371.84,-559.73 380.06,-569 408.5,-569 427.16,-569 437.12,-565.01 438.37,-559.82"/>
<polygon fill="#63b8ff" stroke="#63b8ff" points="441.29,-557.88 433.16,-551.08 435.27,-561.47 441.29,-557.88"/>
</a>
</g>
</g>
<!-- Node5&#45;&gt;Node5 -->
<g id="edge6_Node000005_Node000005" class="edge">
<title>Node5&#45;&gt;Node5</title>
<g id="a_edge6_Node000005_Node000005"><a xlink:title=" ">
<path fill="none" stroke="#63b8ff" d="M383.84,-496.08C371.84,-504.73 380.06,-514 408.5,-514 427.16,-514 437.12,-510.01 438.37,-504.82"/>
<polygon fill="#63b8ff" stroke="#63b8ff" points="441.29,-502.88 433.16,-496.08 435.27,-506.47 441.29,-502.88"/>
</a>
</g>
</g>
<!-- Node6&#45;&gt;Node6 -->
<g id="edge8_Node000006_Node000006" class="edge">
<title>Node6&#45;&gt;Node6</title>
<g id="a_edge8_Node000006_Node000006"><a xlink:title=" ">
<path fill="none" stroke="#63b8ff" d="M383.84,-441.08C371.84,-449.73 380.06,-459 408.5,-459 427.16,-459 437.12,-455.01 438.37,-449.82"/>
<polygon fill="#63b8ff" stroke="#63b8ff" points="441.29,-447.88 433.16,-441.08 435.27,-451.47 441.29,-447.88"/>
</a>
</g>
</g>
<!-- Node7 -->
<g id="Node000007" class="node">
<title>Node7</title>
<g id="a_Node000007"><a xlink:href="namespacem__helper__basic.html#af1b06a05daa43f724ac3b0ff2f97db14" target="_top" xlink:title="Checks if a real(wp) variable is of default value.">
<polygon fill="white" stroke="#666666" points="627,-446.5 511,-446.5 511,-416.5 627,-416.5 627,-446.5"/>
<text text-anchor="start" x="519" y="-434.5" font-family="Helvetica,sans-Serif" font-size="10.00">m_helper_basic::f_is</text>
<text text-anchor="middle" x="569" y="-423.5" font-family="Helvetica,sans-Serif" font-size="10.00">_default</text>
</a>
</g>
</g>
<!-- Node6&#45;&gt;Node7 -->
<g id="edge9_Node000006_Node000007" class="edge">
<title>Node6&#45;&gt;Node7</title>
<g id="a_edge9_Node000006_Node000007"><a xlink:title=" ">
<path fill="none" stroke="#63b8ff" d="M474.43,-431.5C483.09,-431.5 491.99,-431.5 500.69,-431.5"/>
<polygon fill="#63b8ff" stroke="#63b8ff" points="500.79,-435 510.79,-431.5 500.79,-428 500.79,-435"/>
</a>
</g>
</g>
<!-- Node7&#45;&gt;Node2 -->
<g id="edge10_Node000007_Node000002" class="edge">
<title>Node7&#45;&gt;Node2</title>
<g id="a_edge10_Node000007_Node000002"><a xlink:title=" ">
<path fill="none" stroke="#63b8ff" d="M599.52,-446.53C626.09,-460.06 665.32,-480.04 694.38,-494.83"/>
<polygon fill="#63b8ff" stroke="#63b8ff" points="692.93,-498.02 703.43,-499.44 696.1,-491.78 692.93,-498.02"/>
</a>
</g>
</g>
<!-- Node8&#45;&gt;Node8 -->
<g id="edge12_Node000008_Node000008" class="edge">
<title>Node8&#45;&gt;Node8</title>
<g id="a_edge12_Node000008_Node000008"><a xlink:title=" ">
<path fill="none" stroke="#63b8ff" d="M383.84,-386.08C371.84,-394.73 380.06,-404 408.5,-404 427.16,-404 437.12,-400.01 438.37,-394.82"/>
<polygon fill="#63b8ff" stroke="#63b8ff" points="441.29,-392.88 433.16,-386.08 435.27,-396.47 441.29,-392.88"/>
</a>
</g>
</g>
<!-- Node9&#45;&gt;Node9 -->
<g id="edge14_Node000009_Node000009" class="edge">
<title>Node9&#45;&gt;Node9</title>
<g id="a_edge14_Node000009_Node000009"><a xlink:title=" ">
<path fill="none" stroke="#63b8ff" d="M383.84,-331.08C371.84,-339.73 380.06,-349 408.5,-349 427.16,-349 437.12,-345.01 438.37,-339.82"/>
<polygon fill="#63b8ff" stroke="#63b8ff" points="441.29,-337.88 433.16,-331.08 435.27,-341.47 441.29,-337.88"/>
</a>
</g>
</g>
<!-- Node10&#45;&gt;Node10 -->
<g id="edge16_Node000010_Node000010" class="edge">
<title>Node10&#45;&gt;Node10</title>
<g id="a_edge16_Node000010_Node000010"><a xlink:title=" ">
<path fill="none" stroke="#63b8ff" d="M383.84,-276.08C371.84,-284.73 380.06,-294 408.5,-294 427.16,-294 437.12,-290.01 438.37,-284.82"/>
<polygon fill="#63b8ff" stroke="#63b8ff" points="441.29,-282.88 433.16,-276.08 435.27,-286.47 441.29,-282.88"/>
</a>
</g>
</g>
<!-- Node11&#45;&gt;Node11 -->
<g id="edge19_Node000011_Node000011" class="edge">
<title>Node11&#45;&gt;Node11</title>
<g id="a_edge19_Node000011_Node000011"><a xlink:title=" ">
<path fill="none" stroke="#63b8ff" d="M383.84,-221.08C371.84,-229.73 380.06,-239 408.5,-239 427.16,-239 437.12,-235.01 438.37,-229.82"/>
<polygon fill="#63b8ff" stroke="#63b8ff" points="441.29,-227.88 433.16,-221.08 435.27,-231.47 441.29,-227.88"/>
</a>
</g>
</g>
<!-- Node12&#45;&gt;Node7 -->
<g id="edge21_Node000012_Node000007" class="edge">
<title>Node12&#45;&gt;Node7</title>
<g id="a_edge21_Node000012_Node000007"><a xlink:title=" ">
<path fill="none" stroke="#63b8ff" d="M435.32,-166.11C448.69,-172.2 464.39,-181.27 475,-193.5 530.83,-257.85 555.23,-359.59 563.94,-406.41"/>
<polygon fill="#63b8ff" stroke="#63b8ff" points="560.5,-407.07 565.7,-416.3 567.39,-405.85 560.5,-407.07"/>
</a>
</g>
</g>
<!-- Node12&#45;&gt;Node12 -->
<g id="edge22_Node000012_Node000012" class="edge">
<title>Node12&#45;&gt;Node12</title>
<g id="a_edge22_Node000012_Node000012"><a xlink:title=" ">
<path fill="none" stroke="#63b8ff" d="M383.84,-166.08C371.84,-174.73 380.06,-184 408.5,-184 427.16,-184 437.12,-180.01 438.37,-174.82"/>
<polygon fill="#63b8ff" stroke="#63b8ff" points="441.29,-172.88 433.16,-166.08 435.27,-176.47 441.29,-172.88"/>
</a>
</g>
</g>
<!-- Node13&#45;&gt;Node13 -->
<g id="edge24_Node000013_Node000013" class="edge">
<title>Node13&#45;&gt;Node13</title>
<g id="a_edge24_Node000013_Node000013"><a xlink:title=" ">
<path fill="none" stroke="#63b8ff" d="M383.84,-111.08C371.84,-119.73 380.06,-129 408.5,-129 427.16,-129 437.12,-125.01 438.37,-119.82"/>
<polygon fill="#63b8ff" stroke="#63b8ff" points="441.29,-117.88 433.16,-111.08 435.27,-121.47 441.29,-117.88"/>
</a>
</g>
</g>
<!-- Node15 -->
<g id="Node000015" class="node">
<title>Node15</title>
<g id="a_Node000015"><a xlink:href="namespacem__bubbles.html#aecc13d05fd38ba5e6493ac81e64ada6d" target="_top" xlink:title="Function that computes the time derivative of the internal bubble pressure.">
<polygon fill="white" stroke="#666666" points="475,-56 342,-56 342,-37 475,-37 475,-56"/>
<text text-anchor="middle" x="408.5" y="-44" font-family="Helvetica,sans-Serif" font-size="10.00">m_bubbles::f_bpres_dot</text>
</a>
</g>
</g>
<!-- Node14&#45;&gt;Node15 -->
<g id="edge26_Node000014_Node000015" class="edge">
<title>Node14&#45;&gt;Node15</title>
<g id="a_edge26_Node000014_Node000015"><a xlink:title=" ">
<path fill="none" stroke="#63b8ff" d="M306.25,-46.5C314.6,-46.5 323.16,-46.5 331.58,-46.5"/>
<polygon fill="#63b8ff" stroke="#63b8ff" points="331.78,-50 341.78,-46.5 331.78,-43 331.78,-50"/>
</a>
</g>
</g>
<!-- Node16 -->
<g id="Node000016" class="node">
<title>Node16</title>
<g id="a_Node000016"><a xlink:href="namespacem__bubbles.html#adc4ba0b49d39dfb931c4b1b94af941bd" target="_top" xlink:title="Function that computes the vapour flux.">
<polygon fill="white" stroke="#666666" points="463.5,-19 353.5,-19 353.5,0 463.5,0 463.5,-19"/>
<text text-anchor="middle" x="408.5" y="-7" font-family="Helvetica,sans-Serif" font-size="10.00">m_bubbles::s_vflux</text>
</a>
</g>
</g>
<!-- Node14&#45;&gt;Node16 -->
<g id="edge28_Node000014_Node000016" class="edge">
<title>Node14&#45;&gt;Node16</title>
<g id="a_edge28_Node000014_Node000016"><a xlink:title=" ">
<path fill="none" stroke="#63b8ff" d="M280.17,-36.97C302.48,-32.16 329.76,-26.27 353.33,-21.19"/>
<polygon fill="#63b8ff" stroke="#63b8ff" points="354.15,-24.59 363.19,-19.06 352.67,-17.75 354.15,-24.59"/>
</a>
</g>
</g>
<!-- Node15&#45;&gt;Node15 -->
<g id="edge27_Node000015_Node000015" class="edge">
<title>Node15&#45;&gt;Node15</title>
<g id="a_edge27_Node000015_Node000015"><a xlink:title=" ">
<path fill="none" stroke="#63b8ff" d="M383.84,-56.08C371.84,-64.73 380.06,-74 408.5,-74 427.16,-74 437.12,-70.01 438.37,-64.82"/>
<polygon fill="#63b8ff" stroke="#63b8ff" points="441.29,-62.88 433.16,-56.08 435.27,-66.47 441.29,-62.88"/>
</a>
</g>
</g>
</g>
</svg>
