<?xml version="1.0" encoding="UTF-8" standalone="no"?>
<!DOCTYPE svg PUBLIC "-//W3C//DTD SVG 1.1//EN"
 "http://www.w3.org/Graphics/SVG/1.1/DTD/svg11.dtd">
<!-- Generated by graphviz version 2.43.0 (0)
 -->
<!-- Title: m_bubbles::f_cpbw_km Pages: 1 -->
<svg width="654pt" height="134pt"
 viewBox="0.00 0.00 654.00 134.00" xmlns="http://www.w3.org/2000/svg" xmlns:xlink="http://www.w3.org/1999/xlink">
<g id="graph0" class="graph" transform="scale(1 1) rotate(0) translate(4 130)">
<title>m_bubbles::f_cpbw_km</title>
<!-- Node1 -->
<g id="Node000001" class="node">
<title>Node1</title>
<g id="a_Node000001"><a xlink:title="Function that computes the bubble wall pressure for Keller–Miksis bubbles.">
<polygon fill="#999999" stroke="#666666" points="646,-48.5 515,-48.5 515,-29.5 646,-29.5 646,-48.5"/>
<text text-anchor="middle" x="580.5" y="-36.5" font-family="Helvetica,sans-Serif" font-size="10.00">m_bubbles::f_cpbw_km</text>
</a>
</g>
</g>
<!-- Node1&#45;&gt;Node1 -->
<g id="edge1_Node000001_Node000001" class="edge">
<title>Node1&#45;&gt;Node1</title>
<g id="a_edge1_Node000001_Node000001"><a xlink:title=" ">
<path fill="none" stroke="#63b8ff" d="M611.11,-57.32C609.83,-62.51 599.63,-66.5 580.5,-66.5 551.35,-66.5 542.93,-57.23 555.22,-48.58"/>
<polygon fill="#63b8ff" stroke="#63b8ff" points="613.98,-55.29 605.78,-48.58 608,-58.94 613.98,-55.29"/>
</a>
</g>
</g>
<!-- Node2 -->
<g id="Node000002" class="node">
<title>Node2</title>
<g id="a_Node000002"><a xlink:href="namespacem__bubbles.html#a5df386bacf57fa1f7799b9aad47a4f94" target="_top" xlink:title="Function that computes the bubble radial acceleration based on bubble models.">
<polygon fill="white" stroke="#666666" points="471.5,-72.5 361.5,-72.5 361.5,-53.5 471.5,-53.5 471.5,-72.5"/>
<text text-anchor="middle" x="416.5" y="-60.5" font-family="Helvetica,sans-Serif" font-size="10.00">m_bubbles::f_rddot</text>
</a>
</g>
</g>
<!-- Node1&#45;&gt;Node2 -->
<g id="edge2_Node000001_Node000002" class="edge">
<title>Node1&#45;&gt;Node2</title>
<g id="a_edge2_Node000001_Node000002"><a xlink:title=" ">
<path fill="none" stroke="#63b8ff" d="M504.8,-50.07C493.61,-51.72 482.26,-53.41 471.6,-54.98"/>
<polygon fill="#63b8ff" stroke="#63b8ff" points="505.63,-53.48 515.01,-48.55 504.6,-46.56 505.63,-53.48"/>
</a>
</g>
</g>
<!-- Node6 -->
<g id="Node000006" class="node">
<title>Node6</title>
<g id="a_Node000006"><a xlink:href="namespacem__riemann__solvers.html#a6c9d70572e9b98586bab20b028557a5a" target="_top" xlink:title="This procedure is the implementation of the Harten, Lax, van Leer, and contact (HLLC) approximate Rie...">
<polygon fill="white" stroke="#666666" points="479,-33 354,-33 354,-3 479,-3 479,-33"/>
<text text-anchor="start" x="362" y="-21" font-family="Helvetica,sans-Serif" font-size="10.00">m_riemann_solvers::</text>
<text text-anchor="middle" x="416.5" y="-10" font-family="Helvetica,sans-Serif" font-size="10.00">s_hllc_riemann_solver</text>
</a>
</g>
</g>
<!-- Node1&#45;&gt;Node6 -->
<g id="edge8_Node000001_Node000006" class="edge">
<title>Node1&#45;&gt;Node6</title>
<g id="a_edge8_Node000001_Node000006"><a xlink:title=" ">
<path fill="none" stroke="#63b8ff" d="M504.58,-29.29C496.03,-28.18 487.4,-27.06 479.05,-25.98"/>
<polygon fill="#63b8ff" stroke="#63b8ff" points="504.17,-32.76 514.54,-30.58 505.07,-25.82 504.17,-32.76"/>
</a>
</g>
</g>
<!-- Node2&#45;&gt;Node2 -->
<g id="edge3_Node000002_Node000002" class="edge">
<title>Node2&#45;&gt;Node2</title>
<g id="a_edge3_Node000002_Node000002"><a xlink:title=" ">
<path fill="none" stroke="#63b8ff" d="M446.74,-81.32C445.48,-86.51 435.4,-90.5 416.5,-90.5 387.71,-90.5 379.38,-81.23 391.53,-72.58"/>
<polygon fill="#63b8ff" stroke="#63b8ff" points="449.63,-79.34 441.47,-72.58 443.64,-82.95 449.63,-79.34"/>
</a>
</g>
</g>
<!-- Node3 -->
<g id="Node000003" class="node">
<title>Node3</title>
<g id="a_Node000003"><a xlink:href="namespacem__bubbles.html#a7be720440d2181f83a799ae0d9f610e7" target="_top" xlink:title="Integrate bubble variables over the given time step size, h, using a third&#45;order accurate embedded Ru...">
<polygon fill="white" stroke="#666666" points="318,-126 190,-126 190,-96 318,-96 318,-126"/>
<text text-anchor="start" x="198" y="-114" font-family="Helvetica,sans-Serif" font-size="10.00">m_bubbles::s_advance</text>
<text text-anchor="middle" x="254" y="-103" font-family="Helvetica,sans-Serif" font-size="10.00">_substep</text>
</a>
</g>
</g>
<!-- Node2&#45;&gt;Node3 -->
<g id="edge4_Node000002_Node000003" class="edge">
<title>Node2&#45;&gt;Node3</title>
<g id="a_edge4_Node000002_Node000003"><a xlink:title=" ">
<path fill="none" stroke="#63b8ff" d="M373.56,-75.54C352.68,-81.79 327.29,-89.38 305.37,-95.94"/>
<polygon fill="#63b8ff" stroke="#63b8ff" points="374.83,-78.82 383.41,-72.6 372.82,-72.11 374.83,-78.82"/>
</a>
</g>
</g>
<!-- Node5 -->
<g id="Node000005" class="node">
<title>Node5</title>
<g id="a_Node000005"><a xlink:href="namespacem__bubbles.html#a4b48725a84a60c73af7e378ffc3d3438" target="_top" xlink:title="Choose the initial time step size for the adaptive time stepping routine (See Heirer,...">
<polygon fill="white" stroke="#666666" points="311,-78 197,-78 197,-48 311,-48 311,-78"/>
<text text-anchor="start" x="205" y="-66" font-family="Helvetica,sans-Serif" font-size="10.00">m_bubbles::s_initial</text>
<text text-anchor="middle" x="254" y="-55" font-family="Helvetica,sans-Serif" font-size="10.00">_substep_h</text>
</a>
</g>
</g>
<!-- Node2&#45;&gt;Node5 -->
<g id="edge6_Node000002_Node000005" class="edge">
<title>Node2&#45;&gt;Node5</title>
<g id="a_edge6_Node000002_Node000005"><a xlink:title=" ">
<path fill="none" stroke="#63b8ff" d="M350.8,-63C337.68,-63 323.99,-63 311.2,-63"/>
<polygon fill="#63b8ff" stroke="#63b8ff" points="351.16,-66.5 361.16,-63 351.16,-59.5 351.16,-66.5"/>
</a>
</g>
</g>
<!-- Node4 -->
<g id="Node000004" class="node">
<title>Node4</title>
<g id="a_Node000004"><a xlink:href="namespacem__bubbles.html#aa3f121904646f4ccb1d1ecd65b634643" target="_top" xlink:title="Adaptive time stepping routine for subgrid bubbles (See Heirer, E. Hairer S.P.Nørsett G....">
<polygon fill="white" stroke="#666666" points="154,-96.5 0,-96.5 0,-77.5 154,-77.5 154,-96.5"/>
<text text-anchor="middle" x="77" y="-84.5" font-family="Helvetica,sans-Serif" font-size="10.00">m_bubbles::s_advance_step</text>
</a>
</g>
</g>
<!-- Node3&#45;&gt;Node4 -->
<g id="edge5_Node000003_Node000004" class="edge">
<title>Node3&#45;&gt;Node4</title>
<g id="a_edge5_Node000003_Node000004"><a xlink:title=" ">
<path fill="none" stroke="#63b8ff" d="M179.66,-100.94C168.94,-99.47 157.94,-97.96 147.31,-96.5"/>
<polygon fill="#63b8ff" stroke="#63b8ff" points="179.44,-104.44 189.82,-102.34 180.39,-97.51 179.44,-104.44"/>
</a>
</g>
</g>
<!-- Node5&#45;&gt;Node4 -->
<g id="edge7_Node000005_Node000004" class="edge">
<title>Node5&#45;&gt;Node4</title>
<g id="a_edge7_Node000005_Node000004"><a xlink:title=" ">
<path fill="none" stroke="#63b8ff" d="M186.56,-72.11C173.75,-73.87 160.31,-75.71 147.41,-77.48"/>
<polygon fill="#63b8ff" stroke="#63b8ff" points="187.23,-75.55 196.67,-70.73 186.28,-68.62 187.23,-75.55"/>
</a>
</g>
</g>
<!-- Node7 -->
<g id="Node000007" class="node">
<title>Node7</title>
<g id="a_Node000007"><a xlink:href="namespacem__riemann__solvers.html#aff6e3d5abdabe6ce6fccbb7a081766e6" target="_top" xlink:title="Dispatch to the subroutines that are utilized to compute the Riemann problem solution....">
<polygon fill="white" stroke="#666666" points="313.5,-30 194.5,-30 194.5,0 313.5,0 313.5,-30"/>
<text text-anchor="start" x="202.5" y="-18" font-family="Helvetica,sans-Serif" font-size="10.00">m_riemann_solvers::</text>
<text text-anchor="middle" x="254" y="-7" font-family="Helvetica,sans-Serif" font-size="10.00">s_riemann_solver</text>
</a>
</g>
</g>
<!-- Node6&#45;&gt;Node7 -->
<g id="edge9_Node000006_Node000007" class="edge">
<title>Node6&#45;&gt;Node7</title>
<g id="a_edge9_Node000006_Node000007"><a xlink:title=" ">
<path fill="none" stroke="#63b8ff" d="M343.85,-16.66C333.71,-16.47 323.38,-16.28 313.53,-16.09"/>
<polygon fill="#63b8ff" stroke="#63b8ff" points="343.84,-20.16 353.91,-16.85 343.97,-13.16 343.84,-20.16"/>
</a>
</g>
</g>
</g>
</svg>
