<?xml version="1.0" encoding="UTF-8" standalone="no"?>
<!DOCTYPE svg PUBLIC "-//W3C//DTD SVG 1.1//EN"
 "http://www.w3.org/Graphics/SVG/1.1/DTD/svg11.dtd">
<!-- Generated by graphviz version 2.43.0 (0)
 -->
<!-- Title: m_boundary_common::s_read_serial_boundary_condition_files Pages: 1 -->
<svg width="687pt" height="49pt"
 viewBox="0.00 0.00 687.00 49.00" xmlns="http://www.w3.org/2000/svg" xmlns:xlink="http://www.w3.org/1999/xlink">
<g id="graph0" class="graph" transform="scale(1 1) rotate(0) translate(4 45)">
<title>m_boundary_common::s_read_serial_boundary_condition_files</title>
<!-- Node1 -->
<g id="Node000001" class="node">
<title>Node1</title>
<g id="a_Node000001"><a xlink:title=" ">
<polygon fill="#999999" stroke="#666666" points="679,-41 547,-41 547,0 679,0 679,-41"/>
<text text-anchor="start" x="555" y="-29" font-family="Helvetica,sans-Serif" font-size="10.00">m_boundary_common::</text>
<text text-anchor="start" x="555" y="-18" font-family="Helvetica,sans-Serif" font-size="10.00">s_read_serial_boundary</text>
<text text-anchor="middle" x="613" y="-7" font-family="Helvetica,sans-Serif" font-size="10.00">_condition_files</text>
</a>
</g>
</g>
<!-- Node2 -->
<g id="Node000002" class="node">
<title>Node2</title>
<g id="a_Node000002"><a xlink:href="namespacem__start__up.html#a1bf604b2afd7b81737153114d92e7c80" target="_top" xlink:title=" ">
<polygon fill="white" stroke="#666666" points="511,-35.5 401,-35.5 401,-5.5 511,-5.5 511,-35.5"/>
<text text-anchor="start" x="409" y="-23.5" font-family="Helvetica,sans-Serif" font-size="10.00">m_start_up::s_read</text>
<text text-anchor="middle" x="456" y="-12.5" font-family="Helvetica,sans-Serif" font-size="10.00">_serial_data_files</text>
</a>
</g>
</g>
<!-- Node1&#45;&gt;Node2 -->
<g id="edge1_Node000001_Node000002" class="edge">
<title>Node1&#45;&gt;Node2</title>
<g id="a_edge1_Node000001_Node000002"><a xlink:title=" ">
<path fill="none" stroke="#63b8ff" d="M536.46,-20.5C528.01,-20.5 519.54,-20.5 511.43,-20.5"/>
<polygon fill="#63b8ff" stroke="#63b8ff" points="536.72,-24 546.72,-20.5 536.72,-17 536.72,-24"/>
</a>
</g>
</g>
<!-- Node3 -->
<g id="Node000003" class="node">
<title>Node3</title>
<g id="a_Node000003"><a xlink:href="namespacem__start__up.html#a25f79bc2aae3d0302d4a97247d84f92a" target="_top" xlink:title="Read data files. Dispatch subroutine that replaces procedure pointer.">
<polygon fill="white" stroke="#666666" points="365,-35.5 255,-35.5 255,-5.5 365,-5.5 365,-35.5"/>
<text text-anchor="start" x="263" y="-23.5" font-family="Helvetica,sans-Serif" font-size="10.00">m_start_up::s_read</text>
<text text-anchor="middle" x="310" y="-12.5" font-family="Helvetica,sans-Serif" font-size="10.00">_data_files</text>
</a>
</g>
</g>
<!-- Node2&#45;&gt;Node3 -->
<g id="edge2_Node000002_Node000003" class="edge">
<title>Node2&#45;&gt;Node3</title>
<g id="a_edge2_Node000002_Node000003"><a xlink:title=" ">
<path fill="none" stroke="#63b8ff" d="M390.73,-20.5C382.25,-20.5 373.62,-20.5 365.33,-20.5"/>
<polygon fill="#63b8ff" stroke="#63b8ff" points="390.97,-24 400.97,-20.5 390.97,-17 390.97,-24"/>
</a>
</g>
</g>
<!-- Node4 -->
<g id="Node000004" class="node">
<title>Node4</title>
<g id="a_Node000004"><a xlink:href="namespacem__start__up.html#a1fb7a3f9d412acd2a9cbcfe8b45006dd" target="_top" xlink:title=" ">
<polygon fill="white" stroke="#666666" points="219,-35.5 89,-35.5 89,-5.5 219,-5.5 219,-35.5"/>
<text text-anchor="start" x="97" y="-23.5" font-family="Helvetica,sans-Serif" font-size="10.00">m_start_up::s_initialize</text>
<text text-anchor="middle" x="154" y="-12.5" font-family="Helvetica,sans-Serif" font-size="10.00">_modules</text>
</a>
</g>
</g>
<!-- Node3&#45;&gt;Node4 -->
<g id="edge3_Node000003_Node000004" class="edge">
<title>Node3&#45;&gt;Node4</title>
<g id="a_edge3_Node000003_Node000004"><a xlink:title=" ">
<path fill="none" stroke="#63b8ff" d="M244.56,-20.5C236.13,-20.5 227.5,-20.5 219.08,-20.5"/>
<polygon fill="#63b8ff" stroke="#63b8ff" points="244.71,-24 254.71,-20.5 244.71,-17 244.71,-24"/>
</a>
</g>
</g>
<!-- Node5 -->
<g id="Node000005" class="node">
<title>Node5</title>
<g id="a_Node000005"><a xlink:href="p__main_8fpp_8f90.html#aeec10ee8e2940c953967da3e374e1579" target="_top" xlink:title="Quasi&#45;conservative, shock&#45; and interface&#45; capturing finite&#45;volume scheme for the multicomponent Navie...">
<polygon fill="white" stroke="#666666" points="53,-30 0,-30 0,-11 53,-11 53,-30"/>
<text text-anchor="middle" x="26.5" y="-18" font-family="Helvetica,sans-Serif" font-size="10.00">p_main</text>
</a>
</g>
</g>
<!-- Node4&#45;&gt;Node5 -->
<g id="edge4_Node000004_Node000005" class="edge">
<title>Node4&#45;&gt;Node5</title>
<g id="a_edge4_Node000004_Node000005"><a xlink:title=" ">
<path fill="none" stroke="#63b8ff" d="M78.74,-20.5C69.58,-20.5 60.76,-20.5 53.09,-20.5"/>
<polygon fill="#63b8ff" stroke="#63b8ff" points="78.78,-24 88.78,-20.5 78.78,-17 78.78,-24"/>
</a>
</g>
</g>
</g>
</svg>
