<?xml version="1.0" encoding="UTF-8" standalone="no"?>
<!DOCTYPE svg PUBLIC "-//W3C//DTD SVG 1.1//EN"
 "http://www.w3.org/Graphics/SVG/1.1/DTD/svg11.dtd">
<!-- Generated by graphviz version 2.43.0 (0)
 -->
<!-- Title: m_sim_helpers::s_compute_stability_from_dt Pages: 1 -->
<svg width="528pt" height="59pt"
 viewBox="0.00 0.00 528.00 59.00" xmlns="http://www.w3.org/2000/svg" xmlns:xlink="http://www.w3.org/1999/xlink">
<g id="graph0" class="graph" transform="scale(1 1) rotate(0) translate(4 55)">
<title>m_sim_helpers::s_compute_stability_from_dt</title>
<!-- Node1 -->
<g id="Node000001" class="node">
<title>Node1</title>
<g id="a_Node000001"><a xlink:title="Computes stability criterion for a specified dt.">
<polygon fill="#999999" stroke="#666666" points="150,-51 0,-51 0,-21 150,-21 150,-51"/>
<text text-anchor="start" x="8" y="-39" font-family="Helvetica,sans-Serif" font-size="10.00">m_sim_helpers::s_compute</text>
<text text-anchor="middle" x="75" y="-28" font-family="Helvetica,sans-Serif" font-size="10.00">_stability_from_dt</text>
</a>
</g>
</g>
<!-- Node2 -->
<g id="Node000002" class="node">
<title>Node2</title>
<g id="a_Node000002"><a xlink:href="namespacem__sim__helpers.html#ad18a9f401c1f61284b8ea5b3f9013a1a" target="_top" xlink:title="Computes the modified dtheta for Fourier filtering in azimuthal direction.">
<polygon fill="white" stroke="#666666" points="520,-51 371,-51 371,-21 520,-21 520,-51"/>
<text text-anchor="start" x="379" y="-39" font-family="Helvetica,sans-Serif" font-size="10.00">m_sim_helpers::f_compute</text>
<text text-anchor="middle" x="445.5" y="-28" font-family="Helvetica,sans-Serif" font-size="10.00">_filtered_dtheta</text>
</a>
</g>
</g>
<!-- Node1&#45;&gt;Node2 -->
<g id="edge1_Node000001_Node000002" class="edge">
<title>Node1&#45;&gt;Node2</title>
<g id="a_edge1_Node000001_Node000002"><a xlink:title=" ">
<path fill="none" stroke="#63b8ff" d="M150.25,-38.3C162.2,-38.59 174.44,-38.84 186,-39 252.22,-39.9 268.78,-39.91 335,-39 343.34,-38.89 352.03,-38.72 360.71,-38.53"/>
<polygon fill="#63b8ff" stroke="#63b8ff" points="360.96,-42.03 370.88,-38.29 360.8,-35.03 360.96,-42.03"/>
</a>
</g>
</g>
<!-- Node3 -->
<g id="Node000003" class="node">
<title>Node3</title>
<g id="a_Node000003"><a xlink:href="namespacem__sim__helpers.html#a88f43eb8b4a161228ed4db6d31de828d" target="_top" xlink:title="Computes inviscid CFL terms for multi&#45;dimensional cases (2D/3D only)">
<polygon fill="white" stroke="#666666" points="335,-30 186,-30 186,0 335,0 335,-30"/>
<text text-anchor="start" x="194" y="-18" font-family="Helvetica,sans-Serif" font-size="10.00">m_sim_helpers::f_compute</text>
<text text-anchor="middle" x="260.5" y="-7" font-family="Helvetica,sans-Serif" font-size="10.00">_multidim_cfl_terms</text>
</a>
</g>
</g>
<!-- Node1&#45;&gt;Node3 -->
<g id="edge2_Node000001_Node000003" class="edge">
<title>Node1&#45;&gt;Node3</title>
<g id="a_edge2_Node000001_Node000003"><a xlink:title=" ">
<path fill="none" stroke="#63b8ff" d="M150.11,-27.52C158.54,-26.55 167.19,-25.56 175.74,-24.59"/>
<polygon fill="#63b8ff" stroke="#63b8ff" points="176.18,-28.06 185.71,-23.44 175.38,-21.1 176.18,-28.06"/>
</a>
</g>
</g>
<!-- Node3&#45;&gt;Node2 -->
<g id="edge3_Node000003_Node000002" class="edge">
<title>Node3&#45;&gt;Node2</title>
<g id="a_edge3_Node000003_Node000002"><a xlink:title=" ">
<path fill="none" stroke="#63b8ff" d="M335.14,-23.45C343.57,-24.42 352.2,-25.41 360.74,-26.39"/>
<polygon fill="#63b8ff" stroke="#63b8ff" points="360.38,-29.87 370.71,-27.53 361.17,-22.92 360.38,-29.87"/>
</a>
</g>
</g>
</g>
</svg>
