<?xml version="1.0" encoding="UTF-8" standalone="no"?>
<!DOCTYPE svg PUBLIC "-//W3C//DTD SVG 1.1//EN"
 "http://www.w3.org/Graphics/SVG/1.1/DTD/svg11.dtd">
<!-- Generated by graphviz version 2.43.0 (0)
 -->
<!-- Title: m_start_up::s_finalize_modules Pages: 1 -->
<svg width="520pt" height="1174pt"
 viewBox="0.00 0.00 520.00 1174.00" xmlns="http://www.w3.org/2000/svg" xmlns:xlink="http://www.w3.org/1999/xlink">
<g id="graph0" class="graph" transform="scale(1 1) rotate(0) translate(4 1170)">
<title>m_start_up::s_finalize_modules</title>
<!-- Node1 -->
<g id="Node000001" class="node">
<title>Node1</title>
<g id="a_Node000001"><a xlink:title=" ">
<polygon fill="#999999" stroke="#666666" points="123,-603 0,-603 0,-573 123,-573 123,-603"/>
<text text-anchor="start" x="8" y="-591" font-family="Helvetica,sans-Serif" font-size="10.00">m_start_up::s_finalize</text>
<text text-anchor="middle" x="61.5" y="-580" font-family="Helvetica,sans-Serif" font-size="10.00">_modules</text>
</a>
</g>
</g>
<!-- Node2 -->
<g id="Node000002" class="node">
<title>Node2</title>
<g id="a_Node000002"><a xlink:href="namespacem__body__forces.html#adf9ca798003a8cc4fb2c278fd9756ce0" target="_top" xlink:title=" ">
<polygon fill="white" stroke="#666666" points="307,-1166 164,-1166 164,-1136 307,-1136 307,-1166"/>
<text text-anchor="start" x="172" y="-1154" font-family="Helvetica,sans-Serif" font-size="10.00">m_body_forces::s_finalize</text>
<text text-anchor="middle" x="235.5" y="-1143" font-family="Helvetica,sans-Serif" font-size="10.00">_body_forces_module</text>
</a>
</g>
</g>
<!-- Node1&#45;&gt;Node2 -->
<g id="edge1_Node000001_Node000002" class="edge">
<title>Node1&#45;&gt;Node2</title>
<g id="a_edge1_Node000001_Node000002"><a xlink:title=" ">
<path fill="none" stroke="#63b8ff" d="M63.15,-603.01C66.82,-681.64 87.53,-1045.53 159,-1127 159.75,-1127.85 160.53,-1128.68 161.33,-1129.47"/>
<polygon fill="#63b8ff" stroke="#63b8ff" points="159.27,-1132.31 169.25,-1135.86 163.67,-1126.86 159.27,-1132.31"/>
</a>
</g>
</g>
<!-- Node3 -->
<g id="Node000003" class="node">
<title>Node3</title>
<g id="a_Node000003"><a xlink:href="namespacem__boundary__common.html#a69dbc2d02c7be259c30ea62e603f9f4b" target="_top" xlink:title=" ">
<polygon fill="white" stroke="#666666" points="301,-1117.5 170,-1117.5 170,-1076.5 301,-1076.5 301,-1117.5"/>
<text text-anchor="start" x="178" y="-1105.5" font-family="Helvetica,sans-Serif" font-size="10.00">m_boundary_common::</text>
<text text-anchor="start" x="178" y="-1094.5" font-family="Helvetica,sans-Serif" font-size="10.00">s_finalize_boundary</text>
<text text-anchor="middle" x="235.5" y="-1083.5" font-family="Helvetica,sans-Serif" font-size="10.00">_common_module</text>
</a>
</g>
</g>
<!-- Node1&#45;&gt;Node3 -->
<g id="edge2_Node000001_Node000003" class="edge">
<title>Node1&#45;&gt;Node3</title>
<g id="a_edge2_Node000001_Node000003"><a xlink:title=" ">
<path fill="none" stroke="#63b8ff" d="M63.63,-603.16C69.39,-676.44 97.56,-993.42 159,-1067 159.99,-1068.18 161.03,-1069.32 162.12,-1070.42"/>
<polygon fill="#63b8ff" stroke="#63b8ff" points="160.02,-1073.22 169.92,-1077 164.54,-1067.88 160.02,-1073.22"/>
</a>
</g>
</g>
<!-- Node4 -->
<g id="Node000004" class="node">
<title>Node4</title>
<g id="a_Node000004"><a xlink:href="namespacem__cbc.html#aae4c997bc61332ed3b4bd983f1e1294c" target="_top" xlink:title="Module deallocation and/or disassociation procedures.">
<polygon fill="white" stroke="#666666" points="296.5,-1058 174.5,-1058 174.5,-1028 296.5,-1028 296.5,-1058"/>
<text text-anchor="start" x="182.5" y="-1046" font-family="Helvetica,sans-Serif" font-size="10.00">m_cbc::s_finalize_cbc</text>
<text text-anchor="middle" x="235.5" y="-1035" font-family="Helvetica,sans-Serif" font-size="10.00">_module</text>
</a>
</g>
</g>
<!-- Node1&#45;&gt;Node4 -->
<g id="edge3_Node000001_Node000004" class="edge">
<title>Node1&#45;&gt;Node4</title>
<g id="a_edge3_Node000001_Node000004"><a xlink:title=" ">
<path fill="none" stroke="#63b8ff" d="M63.88,-603.09C70.48,-671.92 100.86,-955.53 159,-1019 161.05,-1021.23 163.3,-1023.26 165.71,-1025.1"/>
<polygon fill="#63b8ff" stroke="#63b8ff" points="164.12,-1028.24 174.43,-1030.66 167.88,-1022.33 164.12,-1028.24"/>
</a>
</g>
</g>
<!-- Node6 -->
<g id="Node000006" class="node">
<title>Node6</title>
<g id="a_Node000006"><a xlink:href="namespacem__data__output.html#a81d3138233e0f1a797c930dbf9543d71" target="_top" xlink:title="Module deallocation and/or disassociation procedures.">
<polygon fill="white" stroke="#666666" points="306.5,-1010 164.5,-1010 164.5,-980 306.5,-980 306.5,-1010"/>
<text text-anchor="start" x="172.5" y="-998" font-family="Helvetica,sans-Serif" font-size="10.00">m_data_output::s_finalize</text>
<text text-anchor="middle" x="235.5" y="-987" font-family="Helvetica,sans-Serif" font-size="10.00">_data_output_module</text>
</a>
</g>
</g>
<!-- Node1&#45;&gt;Node6 -->
<g id="edge5_Node000001_Node000006" class="edge">
<title>Node1&#45;&gt;Node6</title>
<g id="a_edge5_Node000001_Node000006"><a xlink:title=" ">
<path fill="none" stroke="#63b8ff" d="M64.34,-603.1C72.42,-667.14 106.73,-915.44 159,-971 159.9,-971.96 160.84,-972.88 161.81,-973.76"/>
<polygon fill="#63b8ff" stroke="#63b8ff" points="159.78,-976.61 169.87,-979.84 164,-971.02 159.78,-976.61"/>
</a>
</g>
</g>
<!-- Node7 -->
<g id="Node000007" class="node">
<title>Node7</title>
<g id="a_Node000007"><a xlink:href="namespacem__derived__variables.html#ad5dfada9c933c6a4d3f9b41a8b7a98f9" target="_top" xlink:title="Deallocation procedures for the module.">
<polygon fill="white" stroke="#666666" points="295,-961.5 176,-961.5 176,-920.5 295,-920.5 295,-961.5"/>
<text text-anchor="start" x="184" y="-949.5" font-family="Helvetica,sans-Serif" font-size="10.00">m_derived_variables</text>
<text text-anchor="start" x="184" y="-938.5" font-family="Helvetica,sans-Serif" font-size="10.00">::s_finalize_derived</text>
<text text-anchor="middle" x="235.5" y="-927.5" font-family="Helvetica,sans-Serif" font-size="10.00">_variables_module</text>
</a>
</g>
</g>
<!-- Node1&#45;&gt;Node7 -->
<g id="edge6_Node000001_Node000007" class="edge">
<title>Node1&#45;&gt;Node7</title>
<g id="a_edge6_Node000001_Node000007"><a xlink:title=" ">
<path fill="none" stroke="#63b8ff" d="M62.54,-603.14C63.48,-653.81 73.28,-819.39 159,-912 161.53,-914.74 164.35,-917.22 167.37,-919.47"/>
<polygon fill="#63b8ff" stroke="#63b8ff" points="165.48,-922.41 175.78,-924.9 169.28,-916.53 165.48,-922.41"/>
</a>
</g>
</g>
<!-- Node8 -->
<g id="Node000008" class="node">
<title>Node8</title>
<g id="a_Node000008"><a xlink:href="namespacem__global__parameters.html#a16ad4c64940e4b092652f3c1c6df76c7" target="_top" xlink:title="Module deallocation and/or disassociation procedures.">
<polygon fill="white" stroke="#666666" points="297,-902.5 174,-902.5 174,-861.5 297,-861.5 297,-902.5"/>
<text text-anchor="start" x="182" y="-890.5" font-family="Helvetica,sans-Serif" font-size="10.00">m_global_parameters</text>
<text text-anchor="start" x="182" y="-879.5" font-family="Helvetica,sans-Serif" font-size="10.00">::s_finalize_global</text>
<text text-anchor="middle" x="235.5" y="-868.5" font-family="Helvetica,sans-Serif" font-size="10.00">_parameters_module</text>
</a>
</g>
</g>
<!-- Node1&#45;&gt;Node8 -->
<g id="edge7_Node000001_Node000008" class="edge">
<title>Node1&#45;&gt;Node8</title>
<g id="a_edge7_Node000001_Node000008"><a xlink:title=" ">
<path fill="none" stroke="#63b8ff" d="M63.77,-603.08C68.3,-647.33 87.38,-778.36 159,-852 161.03,-854.09 163.22,-856.03 165.54,-857.84"/>
<polygon fill="#63b8ff" stroke="#63b8ff" points="163.6,-860.76 173.83,-863.51 167.54,-854.98 163.6,-860.76"/>
</a>
</g>
</g>
<!-- Node9 -->
<g id="Node000009" class="node">
<title>Node9</title>
<g id="a_Node000009"><a xlink:href="namespacem__hyperelastic.html#a3cc4a7148de7e55c4d895a49e1564339" target="_top" xlink:title=" ">
<polygon fill="white" stroke="#666666" points="307,-843 164,-843 164,-813 307,-813 307,-843"/>
<text text-anchor="start" x="172" y="-831" font-family="Helvetica,sans-Serif" font-size="10.00">m_hyperelastic::s_finalize</text>
<text text-anchor="middle" x="235.5" y="-820" font-family="Helvetica,sans-Serif" font-size="10.00">_hyperelastic_module</text>
</a>
</g>
</g>
<!-- Node1&#45;&gt;Node9 -->
<g id="edge8_Node000001_Node000009" class="edge">
<title>Node1&#45;&gt;Node9</title>
<g id="a_edge8_Node000001_Node000009"><a xlink:title=" ">
<path fill="none" stroke="#63b8ff" d="M64.89,-603.05C71.87,-642.11 95.91,-747.63 159,-804 160.3,-805.17 161.67,-806.27 163.07,-807.33"/>
<polygon fill="#63b8ff" stroke="#63b8ff" points="161.3,-810.35 171.61,-812.8 165.08,-804.46 161.3,-810.35"/>
</a>
</g>
</g>
<!-- Node10 -->
<g id="Node000010" class="node">
<title>Node10</title>
<g id="a_Node000010"><a xlink:href="namespacem__hypoelastic.html#af55a4cd98f2c7efebc4d7d6730ca8aa5" target="_top" xlink:title=" ">
<polygon fill="white" stroke="#666666" points="305.5,-795 165.5,-795 165.5,-765 305.5,-765 305.5,-795"/>
<text text-anchor="start" x="173.5" y="-783" font-family="Helvetica,sans-Serif" font-size="10.00">m_hypoelastic::s_finalize</text>
<text text-anchor="middle" x="235.5" y="-772" font-family="Helvetica,sans-Serif" font-size="10.00">_hypoelastic_module</text>
</a>
</g>
</g>
<!-- Node1&#45;&gt;Node10 -->
<g id="edge9_Node000001_Node000010" class="edge">
<title>Node1&#45;&gt;Node10</title>
<g id="a_edge9_Node000001_Node000010"><a xlink:title=" ">
<path fill="none" stroke="#63b8ff" d="M66.97,-603.03C77.49,-635.77 106.89,-713.98 159,-756 160.61,-757.3 162.28,-758.52 164.02,-759.68"/>
<polygon fill="#63b8ff" stroke="#63b8ff" points="162.69,-762.96 173.1,-764.95 166.21,-756.9 162.69,-762.96"/>
</a>
</g>
</g>
<!-- Node11 -->
<g id="Node000011" class="node">
<title>Node11</title>
<g id="a_Node000011"><a xlink:href="namespacem__igr.html#a94a20e8b3b9baf56c5b890258c851513" target="_top" xlink:title=" ">
<polygon fill="white" stroke="#666666" points="292.5,-747 178.5,-747 178.5,-717 292.5,-717 292.5,-747"/>
<text text-anchor="start" x="186.5" y="-735" font-family="Helvetica,sans-Serif" font-size="10.00">m_igr::s_finalize_igr</text>
<text text-anchor="middle" x="235.5" y="-724" font-family="Helvetica,sans-Serif" font-size="10.00">_module</text>
</a>
</g>
</g>
<!-- Node1&#45;&gt;Node11 -->
<g id="edge10_Node000001_Node000011" class="edge">
<title>Node1&#45;&gt;Node11</title>
<g id="a_edge10_Node000001_Node000011"><a xlink:title=" ">
<path fill="none" stroke="#63b8ff" d="M70.76,-603.3C85.28,-628.74 117.76,-679.75 159,-708 162.23,-710.21 165.67,-712.23 169.24,-714.06"/>
<polygon fill="#63b8ff" stroke="#63b8ff" points="167.77,-717.24 178.32,-718.27 170.72,-710.89 167.77,-717.24"/>
</a>
</g>
</g>
<!-- Node12 -->
<g id="Node000012" class="node">
<title>Node12</title>
<g id="a_Node000012"><a xlink:href="namespacem__bubbles__el.html#ade4e00f6ff205074c51fac9ee67b5fc1" target="_top" xlink:title="The purpose of this subroutine is to deallocate variables.">
<polygon fill="white" stroke="#666666" points="303.5,-699 167.5,-699 167.5,-669 303.5,-669 303.5,-699"/>
<text text-anchor="start" x="175.5" y="-687" font-family="Helvetica,sans-Serif" font-size="10.00">m_bubbles_el::s_finalize</text>
<text text-anchor="middle" x="235.5" y="-676" font-family="Helvetica,sans-Serif" font-size="10.00">_lagrangian_solver</text>
</a>
</g>
</g>
<!-- Node1&#45;&gt;Node12 -->
<g id="edge11_Node000001_Node000012" class="edge">
<title>Node1&#45;&gt;Node12</title>
<g id="a_edge11_Node000001_Node000012"><a xlink:title=" ">
<path fill="none" stroke="#63b8ff" d="M79.12,-603.15C97.48,-619.2 128.5,-644.34 159,-660 162.55,-661.82 166.26,-663.54 170.05,-665.15"/>
<polygon fill="#63b8ff" stroke="#63b8ff" points="169.02,-668.5 179.6,-668.94 171.6,-662 169.02,-668.5"/>
</a>
</g>
</g>
<!-- Node13 -->
<g id="Node000013" class="node">
<title>Node13</title>
<g id="a_Node000013"><a xlink:href="namespacem__mhd.html#a0ac0931efb86c1853b8b707a355e2d7e" target="_top" xlink:title=" ">
<polygon fill="white" stroke="#666666" points="301.5,-651 169.5,-651 169.5,-621 301.5,-621 301.5,-651"/>
<text text-anchor="start" x="177.5" y="-639" font-family="Helvetica,sans-Serif" font-size="10.00">m_mhd::s_finalize_mhd</text>
<text text-anchor="middle" x="235.5" y="-628" font-family="Helvetica,sans-Serif" font-size="10.00">_powell_module</text>
</a>
</g>
</g>
<!-- Node1&#45;&gt;Node13 -->
<g id="edge12_Node000001_Node000013" class="edge">
<title>Node1&#45;&gt;Node13</title>
<g id="a_edge12_Node000001_Node000013"><a xlink:title=" ">
<path fill="none" stroke="#63b8ff" d="M116.45,-603.06C133.74,-607.88 153.05,-613.27 170.96,-618.27"/>
<polygon fill="#63b8ff" stroke="#63b8ff" points="170.17,-621.68 180.74,-621 172.05,-614.94 170.17,-621.68"/>
</a>
</g>
</g>
<!-- Node14 -->
<g id="Node000014" class="node">
<title>Node14</title>
<g id="a_Node000014"><a xlink:href="namespacem__mpi__common.html#ab9e557649b1fca986ee793073abae4d4" target="_top" xlink:title="Module deallocation and/or disassociation procedures.">
<polygon fill="white" stroke="#666666" points="310.5,-603 160.5,-603 160.5,-573 310.5,-573 310.5,-603"/>
<text text-anchor="start" x="168.5" y="-591" font-family="Helvetica,sans-Serif" font-size="10.00">m_mpi_common::s_finalize</text>
<text text-anchor="middle" x="235.5" y="-580" font-family="Helvetica,sans-Serif" font-size="10.00">_mpi_common_module</text>
</a>
</g>
</g>
<!-- Node1&#45;&gt;Node14 -->
<g id="edge13_Node000001_Node000014" class="edge">
<title>Node1&#45;&gt;Node14</title>
<g id="a_edge13_Node000001_Node000014"><a xlink:title=" ">
<path fill="none" stroke="#63b8ff" d="M123.14,-588C131.85,-588 140.95,-588 150.02,-588"/>
<polygon fill="#63b8ff" stroke="#63b8ff" points="150.23,-591.5 160.23,-588 150.23,-584.5 150.23,-591.5"/>
</a>
</g>
</g>
<!-- Node15 -->
<g id="Node000015" class="node">
<title>Node15</title>
<g id="a_Node000015"><a xlink:href="namespacem__mpi__proxy.html#ac984c84fe4140876d6600250af9807da" target="_top" xlink:title=" ">
<polygon fill="white" stroke="#666666" points="302.5,-555 168.5,-555 168.5,-525 302.5,-525 302.5,-555"/>
<text text-anchor="start" x="176.5" y="-543" font-family="Helvetica,sans-Serif" font-size="10.00">m_mpi_proxy::s_finalize</text>
<text text-anchor="middle" x="235.5" y="-532" font-family="Helvetica,sans-Serif" font-size="10.00">_mpi_proxy_module</text>
</a>
</g>
</g>
<!-- Node1&#45;&gt;Node15 -->
<g id="edge14_Node000001_Node000015" class="edge">
<title>Node1&#45;&gt;Node15</title>
<g id="a_edge14_Node000001_Node000015"><a xlink:title=" ">
<path fill="none" stroke="#63b8ff" d="M116.45,-572.94C133.74,-568.12 153.05,-562.73 170.96,-557.73"/>
<polygon fill="#63b8ff" stroke="#63b8ff" points="172.05,-561.06 180.74,-555 170.17,-554.32 172.05,-561.06"/>
</a>
</g>
</g>
<!-- Node16 -->
<g id="Node000016" class="node">
<title>Node16</title>
<g id="a_Node000016"><a xlink:href="namespacem__muscl.html#ae540ebf51b87d1fa181162a9c053d1c1" target="_top" xlink:title=" ">
<polygon fill="white" stroke="#666666" points="292,-507 179,-507 179,-477 292,-477 292,-507"/>
<text text-anchor="start" x="187" y="-495" font-family="Helvetica,sans-Serif" font-size="10.00">m_muscl::s_finalize</text>
<text text-anchor="middle" x="235.5" y="-484" font-family="Helvetica,sans-Serif" font-size="10.00">_muscl_module</text>
</a>
</g>
</g>
<!-- Node1&#45;&gt;Node16 -->
<g id="edge15_Node000001_Node000016" class="edge">
<title>Node1&#45;&gt;Node16</title>
<g id="a_edge15_Node000001_Node000016"><a xlink:title=" ">
<path fill="none" stroke="#63b8ff" d="M79.12,-572.85C97.48,-556.8 128.5,-531.66 159,-516 162.55,-514.18 166.26,-512.46 170.05,-510.85"/>
<polygon fill="#63b8ff" stroke="#63b8ff" points="171.6,-514 179.6,-507.06 169.02,-507.5 171.6,-514"/>
</a>
</g>
</g>
<!-- Node17 -->
<g id="Node000017" class="node">
<title>Node17</title>
<g id="a_Node000017"><a xlink:href="namespacem__phase__change.html#a14dd0bb1de0c3205491af730be9405f9" target="_top" xlink:title="This subroutine finalizes the phase change module.">
<polygon fill="white" stroke="#666666" points="312,-459 159,-459 159,-429 312,-429 312,-459"/>
<text text-anchor="start" x="167" y="-447" font-family="Helvetica,sans-Serif" font-size="10.00">m_phase_change::s_finalize</text>
<text text-anchor="middle" x="235.5" y="-436" font-family="Helvetica,sans-Serif" font-size="10.00">_relaxation_solver_module</text>
</a>
</g>
</g>
<!-- Node1&#45;&gt;Node17 -->
<g id="edge16_Node000001_Node000017" class="edge">
<title>Node1&#45;&gt;Node17</title>
<g id="a_edge16_Node000001_Node000017"><a xlink:title=" ">
<path fill="none" stroke="#63b8ff" d="M70.76,-572.7C85.28,-547.26 117.76,-496.25 159,-468 161.26,-466.45 163.63,-465 166.07,-463.63"/>
<polygon fill="#63b8ff" stroke="#63b8ff" points="167.81,-466.68 175.2,-459.08 164.69,-460.41 167.81,-466.68"/>
</a>
</g>
</g>
<!-- Node18 -->
<g id="Node000018" class="node">
<title>Node18</title>
<g id="a_Node000018"><a xlink:href="namespacem__rhs.html#aeefd0e45989eb229ad465d3f56cda6f9" target="_top" xlink:title="Module deallocation and/or disassociation procedures.">
<polygon fill="white" stroke="#666666" points="295,-411 176,-411 176,-381 295,-381 295,-411"/>
<text text-anchor="start" x="184" y="-399" font-family="Helvetica,sans-Serif" font-size="10.00">m_rhs::s_finalize_rhs</text>
<text text-anchor="middle" x="235.5" y="-388" font-family="Helvetica,sans-Serif" font-size="10.00">_module</text>
</a>
</g>
</g>
<!-- Node1&#45;&gt;Node18 -->
<g id="edge17_Node000001_Node000018" class="edge">
<title>Node1&#45;&gt;Node18</title>
<g id="a_edge17_Node000001_Node000018"><a xlink:title=" ">
<path fill="none" stroke="#63b8ff" d="M66.97,-572.97C77.49,-540.23 106.89,-462.02 159,-420 161.44,-418.03 164.04,-416.23 166.75,-414.57"/>
<polygon fill="#63b8ff" stroke="#63b8ff" points="168.59,-417.56 175.76,-409.76 165.29,-411.38 168.59,-417.56"/>
</a>
</g>
</g>
<!-- Node19 -->
<g id="Node000019" class="node">
<title>Node19</title>
<g id="a_Node000019"><a xlink:href="namespacem__riemann__solvers.html#a6649906000f121d43833493a8536987a" target="_top" xlink:title="Module deallocation and/or disassociation procedures.">
<polygon fill="white" stroke="#666666" points="310,-362.5 161,-362.5 161,-321.5 310,-321.5 310,-362.5"/>
<text text-anchor="start" x="169" y="-350.5" font-family="Helvetica,sans-Serif" font-size="10.00">m_riemann_solvers::</text>
<text text-anchor="start" x="169" y="-339.5" font-family="Helvetica,sans-Serif" font-size="10.00">s_finalize_riemann_solvers</text>
<text text-anchor="middle" x="235.5" y="-328.5" font-family="Helvetica,sans-Serif" font-size="10.00">_module</text>
</a>
</g>
</g>
<!-- Node1&#45;&gt;Node19 -->
<g id="edge18_Node000001_Node000019" class="edge">
<title>Node1&#45;&gt;Node19</title>
<g id="a_edge18_Node000001_Node000019"><a xlink:title=" ">
<path fill="none" stroke="#63b8ff" d="M65.17,-572.92C72.78,-534.23 98.08,-430.42 159,-372 160.26,-370.79 161.57,-369.63 162.94,-368.51"/>
<polygon fill="#63b8ff" stroke="#63b8ff" points="165.09,-371.27 171.18,-362.6 161.01,-365.59 165.09,-371.27"/>
</a>
</g>
</g>
<!-- Node20 -->
<g id="Node000020" class="node">
<title>Node20</title>
<g id="a_Node000020"><a xlink:href="namespacem__surface__tension.html#acfee64be67c2ca10b9e1ed0e759ed517" target="_top" xlink:title=" ">
<polygon fill="white" stroke="#666666" points="308,-303.5 163,-303.5 163,-262.5 308,-262.5 308,-303.5"/>
<text text-anchor="start" x="171" y="-291.5" font-family="Helvetica,sans-Serif" font-size="10.00">m_surface_tension::</text>
<text text-anchor="start" x="171" y="-280.5" font-family="Helvetica,sans-Serif" font-size="10.00">s_finalize_surface_tension</text>
<text text-anchor="middle" x="235.5" y="-269.5" font-family="Helvetica,sans-Serif" font-size="10.00">_module</text>
</a>
</g>
</g>
<!-- Node1&#45;&gt;Node20 -->
<g id="edge19_Node000001_Node000020" class="edge">
<title>Node1&#45;&gt;Node20</title>
<g id="a_edge19_Node000001_Node000020"><a xlink:title=" ">
<path fill="none" stroke="#63b8ff" d="M63.52,-572.96C67.37,-527.54 84.89,-390.2 159,-313 160.07,-311.89 161.18,-310.81 162.34,-309.78"/>
<polygon fill="#63b8ff" stroke="#63b8ff" points="164.7,-312.38 170.49,-303.51 160.43,-306.83 164.7,-312.38"/>
</a>
</g>
</g>
<!-- Node21 -->
<g id="Node000021" class="node">
<title>Node21</title>
<g id="a_Node000021"><a xlink:href="namespacem__time__steppers.html#aa8e209d6747df776d818d3d4320ccf4d" target="_top" xlink:title="Module deallocation and/or disassociation procedures.">
<polygon fill="white" stroke="#666666" points="301.5,-244.5 169.5,-244.5 169.5,-203.5 301.5,-203.5 301.5,-244.5"/>
<text text-anchor="start" x="177.5" y="-232.5" font-family="Helvetica,sans-Serif" font-size="10.00">m_time_steppers::s</text>
<text text-anchor="start" x="177.5" y="-221.5" font-family="Helvetica,sans-Serif" font-size="10.00">_finalize_time_steppers</text>
<text text-anchor="middle" x="235.5" y="-210.5" font-family="Helvetica,sans-Serif" font-size="10.00">_module</text>
</a>
</g>
</g>
<!-- Node1&#45;&gt;Node21 -->
<g id="edge20_Node000001_Node000021" class="edge">
<title>Node1&#45;&gt;Node21</title>
<g id="a_edge20_Node000001_Node000021"><a xlink:title=" ">
<path fill="none" stroke="#63b8ff" d="M62.42,-572.8C62.96,-521.16 71.59,-350.32 159,-254 159.91,-253 160.85,-252.04 161.83,-251.1"/>
<polygon fill="#63b8ff" stroke="#63b8ff" points="164.35,-253.56 169.91,-244.54 159.94,-248.12 164.35,-253.56"/>
</a>
</g>
</g>
<!-- Node22 -->
<g id="Node000022" class="node">
<title>Node22</title>
<g id="a_Node000022"><a xlink:href="namespacem__variables__conversion.html#aceaf9a1f34881d42e50dca63cbde506b" target="_top" xlink:title=" ">
<polygon fill="white" stroke="#666666" points="303,-185.5 168,-185.5 168,-144.5 303,-144.5 303,-185.5"/>
<text text-anchor="start" x="176" y="-173.5" font-family="Helvetica,sans-Serif" font-size="10.00">m_variables_conversion</text>
<text text-anchor="start" x="176" y="-162.5" font-family="Helvetica,sans-Serif" font-size="10.00">::s_finalize_variables</text>
<text text-anchor="middle" x="235.5" y="-151.5" font-family="Helvetica,sans-Serif" font-size="10.00">_conversion_module</text>
</a>
</g>
</g>
<!-- Node1&#45;&gt;Node22 -->
<g id="edge21_Node000001_Node000022" class="edge">
<title>Node1&#45;&gt;Node22</title>
<g id="a_edge21_Node000001_Node000022"><a xlink:title=" ">
<path fill="none" stroke="#63b8ff" d="M64.39,-572.6C72.67,-507.3 107.66,-253.93 159,-195 159.86,-194.01 160.76,-193.06 161.69,-192.13"/>
<polygon fill="#63b8ff" stroke="#63b8ff" points="164,-194.76 169.4,-185.64 159.5,-189.4 164,-194.76"/>
</a>
</g>
</g>
<!-- Node23 -->
<g id="Node000023" class="node">
<title>Node23</title>
<g id="a_Node000023"><a xlink:href="namespacem__viscous.html#aa3ef25c06b9615bed453231e9c9d69e9" target="_top" xlink:title=" ">
<polygon fill="white" stroke="#666666" points="295.5,-126 175.5,-126 175.5,-96 295.5,-96 295.5,-126"/>
<text text-anchor="start" x="183.5" y="-114" font-family="Helvetica,sans-Serif" font-size="10.00">m_viscous::s_finalize</text>
<text text-anchor="middle" x="235.5" y="-103" font-family="Helvetica,sans-Serif" font-size="10.00">_viscous_module</text>
</a>
</g>
</g>
<!-- Node1&#45;&gt;Node23 -->
<g id="edge22_Node000001_Node000023" class="edge">
<title>Node1&#45;&gt;Node23</title>
<g id="a_edge22_Node000001_Node000023"><a xlink:title=" ">
<path fill="none" stroke="#63b8ff" d="M63.75,-572.68C69.87,-501.44 98.76,-203.23 159,-136 161.38,-133.35 164.04,-130.98 166.91,-128.86"/>
<polygon fill="#63b8ff" stroke="#63b8ff" points="168.83,-131.78 175.47,-123.52 165.13,-125.84 168.83,-131.78"/>
</a>
</g>
</g>
<!-- Node24 -->
<g id="Node000024" class="node">
<title>Node24</title>
<g id="a_Node000024"><a xlink:href="namespacem__weno.html#afc23d265ba703e5a92adb409b67c22b3" target="_top" xlink:title="Module deallocation and/or disassociation procedures.">
<polygon fill="white" stroke="#666666" points="290.5,-78 180.5,-78 180.5,-48 290.5,-48 290.5,-78"/>
<text text-anchor="start" x="188.5" y="-66" font-family="Helvetica,sans-Serif" font-size="10.00">m_weno::s_finalize</text>
<text text-anchor="middle" x="235.5" y="-55" font-family="Helvetica,sans-Serif" font-size="10.00">_weno_module</text>
</a>
</g>
</g>
<!-- Node1&#45;&gt;Node24 -->
<g id="edge23_Node000001_Node000024" class="edge">
<title>Node1&#45;&gt;Node24</title>
<g id="a_edge23_Node000001_Node000024"><a xlink:title=" ">
<path fill="none" stroke="#63b8ff" d="M63.38,-572.81C68.05,-497.21 92.28,-162.06 159,-87 162.51,-83.05 166.66,-79.75 171.19,-76.99"/>
<polygon fill="#63b8ff" stroke="#63b8ff" points="172.99,-80 180.28,-72.31 169.79,-73.77 172.99,-80"/>
</a>
</g>
</g>
<!-- Node25 -->
<g id="Node000025" class="node">
<title>Node25</title>
<g id="a_Node000025"><a xlink:href="namespacem__mpi__common.html#a50d271a607262a2f55d7a00f7e692e38" target="_top" xlink:title="The subroutine finalizes the MPI execution environment.">
<polygon fill="white" stroke="#666666" points="302.5,-30 168.5,-30 168.5,0 302.5,0 302.5,-30"/>
<text text-anchor="start" x="176.5" y="-18" font-family="Helvetica,sans-Serif" font-size="10.00">m_mpi_common::s_mpi</text>
<text text-anchor="middle" x="235.5" y="-7" font-family="Helvetica,sans-Serif" font-size="10.00">_finalize</text>
</a>
</g>
</g>
<!-- Node1&#45;&gt;Node25 -->
<g id="edge24_Node000001_Node000025" class="edge">
<title>Node1&#45;&gt;Node25</title>
<g id="a_edge24_Node000001_Node000025"><a xlink:title=" ">
<path fill="none" stroke="#63b8ff" d="M63.09,-572.98C66.53,-493.45 86.3,-122.14 159,-39 159.75,-38.15 160.52,-37.32 161.33,-36.53"/>
<polygon fill="#63b8ff" stroke="#63b8ff" points="163.67,-39.14 169.24,-30.13 159.26,-33.69 163.67,-39.14"/>
</a>
</g>
</g>
<!-- Node5 -->
<g id="Node000005" class="node">
<title>Node5</title>
<g id="a_Node000005"><a xlink:href="namespacem__cbc.html#a38160b454562d74625f00b98cd204841" target="_top" xlink:title=" ">
<polygon fill="white" stroke="#666666" points="512,-1052.5 348,-1052.5 348,-1033.5 512,-1033.5 512,-1052.5"/>
<text text-anchor="middle" x="430" y="-1040.5" font-family="Helvetica,sans-Serif" font-size="10.00">m_cbc::s_any_cbc_boundaries</text>
</a>
</g>
</g>
<!-- Node4&#45;&gt;Node5 -->
<g id="edge4_Node000004_Node000005" class="edge">
<title>Node4&#45;&gt;Node5</title>
<g id="a_edge4_Node000004_Node000005"><a xlink:title=" ">
<path fill="none" stroke="#63b8ff" d="M296.62,-1043C309.67,-1043 323.75,-1043 337.7,-1043"/>
<polygon fill="#63b8ff" stroke="#63b8ff" points="337.81,-1046.5 347.81,-1043 337.81,-1039.5 337.81,-1046.5"/>
</a>
</g>
</g>
</g>
</svg>
