<?xml version="1.0" encoding="UTF-8" standalone="no"?>
<!DOCTYPE svg PUBLIC "-//W3C//DTD SVG 1.1//EN"
 "http://www.w3.org/Graphics/SVG/1.1/DTD/svg11.dtd">
<!-- Generated by graphviz version 2.43.0 (0)
 -->
<!-- Title: m_compute_cbc::f_base_l1 Pages: 1 -->
<svg width="362pt" height="313pt"
 viewBox="0.00 0.00 362.00 312.50" xmlns="http://www.w3.org/2000/svg" xmlns:xlink="http://www.w3.org/1999/xlink">
<g id="graph0" class="graph" transform="scale(1 1) rotate(0) translate(4 308.5)">
<title>m_compute_cbc::f_base_l1</title>
<!-- Node1 -->
<g id="Node000001" class="node">
<title>Node1</title>
<g id="a_Node000001"><a xlink:title="Base L1 calculation.">
<polygon fill="#999999" stroke="#666666" points="354,-155.5 205,-155.5 205,-136.5 354,-136.5 354,-155.5"/>
<text text-anchor="middle" x="279.5" y="-143.5" font-family="Helvetica,sans-Serif" font-size="10.00">m_compute_cbc::f_base_l1</text>
</a>
</g>
</g>
<!-- Node2 -->
<g id="Node000002" class="node">
<title>Node2</title>
<g id="a_Node000002"><a xlink:href="namespacem__compute__cbc.html#af5eba6e6375a336afacbaea4de5eca1b" target="_top" xlink:title="Constant pressure subsonic outflow CBC (Thompson 1990, pg. 455)">
<polygon fill="white" stroke="#666666" points="164,-304.5 5,-304.5 5,-263.5 164,-263.5 164,-304.5"/>
<text text-anchor="start" x="13" y="-292.5" font-family="Helvetica,sans-Serif" font-size="10.00">m_compute_cbc::s_compute</text>
<text text-anchor="start" x="13" y="-281.5" font-family="Helvetica,sans-Serif" font-size="10.00">_constant_pressure_subsonic</text>
<text text-anchor="middle" x="84.5" y="-270.5" font-family="Helvetica,sans-Serif" font-size="10.00">_outflow_l</text>
</a>
</g>
</g>
<!-- Node1&#45;&gt;Node2 -->
<g id="edge1_Node000001_Node000002" class="edge">
<title>Node1&#45;&gt;Node2</title>
<g id="a_edge1_Node000001_Node000002"><a xlink:title=" ">
<path fill="none" stroke="#63b8ff" d="M264.62,-163.89C245.43,-187.51 208.68,-229.03 169,-254 163.52,-257.45 157.6,-260.57 151.52,-263.38"/>
<polygon fill="#63b8ff" stroke="#63b8ff" points="267.58,-165.78 271.08,-155.78 262.11,-161.42 267.58,-165.78"/>
</a>
</g>
</g>
<!-- Node3 -->
<g id="Node000003" class="node">
<title>Node3</title>
<g id="a_Node000003"><a xlink:href="namespacem__compute__cbc.html#a732f45ecbd489ff15c2c8773d37c84d4" target="_top" xlink:title="Force&#45;free subsonic outflow CBC (Thompson 1990, pg. 454)">
<polygon fill="white" stroke="#666666" points="169,-245 0,-245 0,-215 169,-215 169,-245"/>
<text text-anchor="start" x="8" y="-233" font-family="Helvetica,sans-Serif" font-size="10.00">m_compute_cbc::s_compute</text>
<text text-anchor="middle" x="84.5" y="-222" font-family="Helvetica,sans-Serif" font-size="10.00">_force_free_subsonic_outflow_l</text>
</a>
</g>
</g>
<!-- Node1&#45;&gt;Node3 -->
<g id="edge2_Node000001_Node000003" class="edge">
<title>Node1&#45;&gt;Node3</title>
<g id="a_edge2_Node000001_Node000003"><a xlink:title=" ">
<path fill="none" stroke="#63b8ff" d="M254.9,-160.93C233.22,-174.16 199.87,-193.29 169,-206 161.05,-209.27 152.5,-212.28 144.01,-214.97"/>
<polygon fill="#63b8ff" stroke="#63b8ff" points="256.77,-163.89 263.44,-155.66 253.09,-157.94 256.77,-163.89"/>
</a>
</g>
</g>
<!-- Node4 -->
<g id="Node000004" class="node">
<title>Node4</title>
<g id="a_Node000004"><a xlink:href="namespacem__compute__cbc.html#aee809ea708c74d20194bf51453f6dfe8" target="_top" xlink:title="Nonreflecting subsonic inflow CBC (Thompson 1990, pg. 455)">
<polygon fill="white" stroke="#666666" points="162,-196.5 7,-196.5 7,-155.5 162,-155.5 162,-196.5"/>
<text text-anchor="start" x="15" y="-184.5" font-family="Helvetica,sans-Serif" font-size="10.00">m_compute_cbc::s_compute</text>
<text text-anchor="start" x="15" y="-173.5" font-family="Helvetica,sans-Serif" font-size="10.00">_nonreflecting_subsonic</text>
<text text-anchor="middle" x="84.5" y="-162.5" font-family="Helvetica,sans-Serif" font-size="10.00">_inflow_l</text>
</a>
</g>
</g>
<!-- Node1&#45;&gt;Node4 -->
<g id="edge3_Node000001_Node000004" class="edge">
<title>Node1&#45;&gt;Node4</title>
<g id="a_edge3_Node000001_Node000004"><a xlink:title=" ">
<path fill="none" stroke="#63b8ff" d="M207.19,-157.08C192.56,-159.36 177.1,-161.76 162.28,-164.07"/>
<polygon fill="#63b8ff" stroke="#63b8ff" points="207.82,-160.53 217.17,-155.53 206.75,-153.61 207.82,-160.53"/>
</a>
</g>
</g>
<!-- Node5 -->
<g id="Node000005" class="node">
<title>Node5</title>
<g id="a_Node000005"><a xlink:href="namespacem__compute__cbc.html#a68d5fa7a23a11a0a5bd698f3ce482cd1" target="_top" xlink:title="Nonreflecting subsonic outflow CBC (Thompson 1990, pg. 454)">
<polygon fill="white" stroke="#666666" points="162,-137.5 7,-137.5 7,-96.5 162,-96.5 162,-137.5"/>
<text text-anchor="start" x="15" y="-125.5" font-family="Helvetica,sans-Serif" font-size="10.00">m_compute_cbc::s_compute</text>
<text text-anchor="start" x="15" y="-114.5" font-family="Helvetica,sans-Serif" font-size="10.00">_nonreflecting_subsonic</text>
<text text-anchor="middle" x="84.5" y="-103.5" font-family="Helvetica,sans-Serif" font-size="10.00">_outflow_l</text>
</a>
</g>
</g>
<!-- Node1&#45;&gt;Node5 -->
<g id="edge4_Node000001_Node000005" class="edge">
<title>Node1&#45;&gt;Node5</title>
<g id="a_edge4_Node000001_Node000005"><a xlink:title=" ">
<path fill="none" stroke="#63b8ff" d="M204.97,-134.95C190.94,-132.84 176.23,-130.63 162.11,-128.51"/>
<polygon fill="#63b8ff" stroke="#63b8ff" points="204.63,-138.44 215.04,-136.46 205.67,-131.52 204.63,-138.44"/>
</a>
</g>
</g>
<!-- Node6 -->
<g id="Node000006" class="node">
<title>Node6</title>
<g id="a_Node000006"><a xlink:href="namespacem__compute__cbc.html#add8dc44b2079d6269d02cabca431cd03" target="_top" xlink:title="Slip wall CBC (Thompson 1990, pg. 451)">
<polygon fill="white" stroke="#666666" points="162,-78 7,-78 7,-48 162,-48 162,-78"/>
<text text-anchor="start" x="15" y="-66" font-family="Helvetica,sans-Serif" font-size="10.00">m_compute_cbc::s_compute</text>
<text text-anchor="middle" x="84.5" y="-55" font-family="Helvetica,sans-Serif" font-size="10.00">_slip_wall_l</text>
</a>
</g>
</g>
<!-- Node1&#45;&gt;Node6 -->
<g id="edge5_Node000001_Node000006" class="edge">
<title>Node1&#45;&gt;Node6</title>
<g id="a_edge5_Node000001_Node000006"><a xlink:title=" ">
<path fill="none" stroke="#63b8ff" d="M253.76,-131.09C232,-118.42 199.17,-100.37 169,-88 160.18,-84.38 150.64,-81.03 141.28,-78.04"/>
<polygon fill="#63b8ff" stroke="#63b8ff" points="252.26,-134.27 262.65,-136.33 255.81,-128.24 252.26,-134.27"/>
</a>
</g>
</g>
<!-- Node7 -->
<g id="Node000007" class="node">
<title>Node7</title>
<g id="a_Node000007"><a xlink:href="namespacem__compute__cbc.html#a92bf825d0b077db1831cfa1d18a34891" target="_top" xlink:title="Supersonic outflow CBC (Thompson 1990, pg. 453)">
<polygon fill="white" stroke="#666666" points="162,-30 7,-30 7,0 162,0 162,-30"/>
<text text-anchor="start" x="15" y="-18" font-family="Helvetica,sans-Serif" font-size="10.00">m_compute_cbc::s_compute</text>
<text text-anchor="middle" x="84.5" y="-7" font-family="Helvetica,sans-Serif" font-size="10.00">_supersonic_outflow_l</text>
</a>
</g>
</g>
<!-- Node1&#45;&gt;Node7 -->
<g id="edge6_Node000001_Node000007" class="edge">
<title>Node1&#45;&gt;Node7</title>
<g id="a_edge6_Node000001_Node000007"><a xlink:title=" ">
<path fill="none" stroke="#63b8ff" d="M265.1,-128.26C246.22,-104.49 209.54,-62.58 169,-39 163.13,-35.59 156.75,-32.63 150.21,-30.08"/>
<polygon fill="#63b8ff" stroke="#63b8ff" points="262.53,-130.66 271.43,-136.4 268.05,-126.36 262.53,-130.66"/>
</a>
</g>
</g>
</g>
</svg>
