<?xml version="1.0" encoding="UTF-8" standalone="no"?>
<!DOCTYPE svg PUBLIC "-//W3C//DTD SVG 1.1//EN"
 "http://www.w3.org/Graphics/SVG/1.1/DTD/svg11.dtd">
<!-- Generated by graphviz version 2.43.0 (0)
 -->
<!-- Title: m_bubbles_el::s_transfer_data_to_tmp Pages: 1 -->
<svg width="751pt" height="86pt"
 viewBox="0.00 0.00 751.00 86.00" xmlns="http://www.w3.org/2000/svg" xmlns:xlink="http://www.w3.org/1999/xlink">
<g id="graph0" class="graph" transform="scale(1 1) rotate(0) translate(4 82)">
<title>m_bubbles_el::s_transfer_data_to_tmp</title>
<!-- Node1 -->
<g id="Node000001" class="node">
<title>Node1</title>
<g id="a_Node000001"><a xlink:title="This subroutine transfer data into the temporal variables.">
<polygon fill="#999999" stroke="#666666" points="743,-54 604,-54 604,-24 743,-24 743,-54"/>
<text text-anchor="start" x="612" y="-42" font-family="Helvetica,sans-Serif" font-size="10.00">m_bubbles_el::s_transfer</text>
<text text-anchor="middle" x="673.5" y="-31" font-family="Helvetica,sans-Serif" font-size="10.00">_data_to_tmp</text>
</a>
</g>
</g>
<!-- Node2 -->
<g id="Node000002" class="node">
<title>Node2</title>
<g id="a_Node000002"><a xlink:href="namespacem__bubbles__el.html#a3949f9675072f6d58218a03b46be1325" target="_top" xlink:title="The purpose of this procedure is to obtain the initial bubbles&#39; information.">
<polygon fill="white" stroke="#666666" points="562,-78 440,-78 440,-48 562,-48 562,-78"/>
<text text-anchor="start" x="448" y="-66" font-family="Helvetica,sans-Serif" font-size="10.00">m_bubbles_el::s_read</text>
<text text-anchor="middle" x="501" y="-55" font-family="Helvetica,sans-Serif" font-size="10.00">_input_bubbles</text>
</a>
</g>
</g>
<!-- Node1&#45;&gt;Node2 -->
<g id="edge1_Node000001_Node000002" class="edge">
<title>Node1&#45;&gt;Node2</title>
<g id="a_edge1_Node000001_Node000002"><a xlink:title=" ">
<path fill="none" stroke="#63b8ff" d="M593.55,-50.11C582.97,-51.6 572.25,-53.11 562.06,-54.55"/>
<polygon fill="#63b8ff" stroke="#63b8ff" points="594.23,-53.55 603.64,-48.69 593.25,-46.62 594.23,-53.55"/>
</a>
</g>
</g>
<!-- Node6 -->
<g id="Node000006" class="node">
<title>Node6</title>
<g id="a_Node000006"><a xlink:href="namespacem__bubbles__el.html#a552ef563e0052a315b8d9cab7a0fe26d" target="_top" xlink:title="This subroutine updates the Lagrange variables using the tvd RK time steppers. The time derivative of...">
<polygon fill="white" stroke="#666666" points="568,-30 434,-30 434,0 568,0 568,-30"/>
<text text-anchor="start" x="442" y="-18" font-family="Helvetica,sans-Serif" font-size="10.00">m_bubbles_el::s_update</text>
<text text-anchor="middle" x="501" y="-7" font-family="Helvetica,sans-Serif" font-size="10.00">_lagrange_tdv_rk</text>
</a>
</g>
</g>
<!-- Node1&#45;&gt;Node6 -->
<g id="edge5_Node000001_Node000006" class="edge">
<title>Node1&#45;&gt;Node6</title>
<g id="a_edge5_Node000001_Node000006"><a xlink:title=" ">
<path fill="none" stroke="#63b8ff" d="M593.66,-27.9C585.1,-26.7 576.46,-25.48 568.07,-24.3"/>
<polygon fill="#63b8ff" stroke="#63b8ff" points="593.25,-31.38 603.64,-29.31 594.23,-24.45 593.25,-31.38"/>
</a>
</g>
</g>
<!-- Node3 -->
<g id="Node000003" class="node">
<title>Node3</title>
<g id="a_Node000003"><a xlink:href="namespacem__bubbles__el.html#a515d55616253e3cc9d9243899e2dcea3" target="_top" xlink:title="Initializes the lagrangian subgrid bubble solver.">
<polygon fill="white" stroke="#666666" points="398,-78 255,-78 255,-48 398,-48 398,-78"/>
<text text-anchor="start" x="263" y="-66" font-family="Helvetica,sans-Serif" font-size="10.00">m_bubbles_el::s_initialize</text>
<text text-anchor="middle" x="326.5" y="-55" font-family="Helvetica,sans-Serif" font-size="10.00">_bubbles_el_module</text>
</a>
</g>
</g>
<!-- Node2&#45;&gt;Node3 -->
<g id="edge2_Node000002_Node000003" class="edge">
<title>Node2&#45;&gt;Node3</title>
<g id="a_edge2_Node000002_Node000003"><a xlink:title=" ">
<path fill="none" stroke="#63b8ff" d="M429.46,-63C419.13,-63 408.49,-63 398.15,-63"/>
<polygon fill="#63b8ff" stroke="#63b8ff" points="429.67,-66.5 439.67,-63 429.67,-59.5 429.67,-66.5"/>
</a>
</g>
</g>
<!-- Node4 -->
<g id="Node000004" class="node">
<title>Node4</title>
<g id="a_Node000004"><a xlink:href="namespacem__start__up.html#a1fb7a3f9d412acd2a9cbcfe8b45006dd" target="_top" xlink:title=" ">
<polygon fill="white" stroke="#666666" points="219,-78 89,-78 89,-48 219,-48 219,-78"/>
<text text-anchor="start" x="97" y="-66" font-family="Helvetica,sans-Serif" font-size="10.00">m_start_up::s_initialize</text>
<text text-anchor="middle" x="154" y="-55" font-family="Helvetica,sans-Serif" font-size="10.00">_modules</text>
</a>
</g>
</g>
<!-- Node3&#45;&gt;Node4 -->
<g id="edge3_Node000003_Node000004" class="edge">
<title>Node3&#45;&gt;Node4</title>
<g id="a_edge3_Node000003_Node000004"><a xlink:title=" ">
<path fill="none" stroke="#63b8ff" d="M244.65,-63C236.06,-63 227.42,-63 219.07,-63"/>
<polygon fill="#63b8ff" stroke="#63b8ff" points="244.67,-66.5 254.67,-63 244.67,-59.5 244.67,-66.5"/>
</a>
</g>
</g>
<!-- Node5 -->
<g id="Node000005" class="node">
<title>Node5</title>
<g id="a_Node000005"><a xlink:href="p__main_8fpp_8f90.html#aeec10ee8e2940c953967da3e374e1579" target="_top" xlink:title="Quasi&#45;conservative, shock&#45; and interface&#45; capturing finite&#45;volume scheme for the multicomponent Navie...">
<polygon fill="white" stroke="#666666" points="53,-72.5 0,-72.5 0,-53.5 53,-53.5 53,-72.5"/>
<text text-anchor="middle" x="26.5" y="-60.5" font-family="Helvetica,sans-Serif" font-size="10.00">p_main</text>
</a>
</g>
</g>
<!-- Node4&#45;&gt;Node5 -->
<g id="edge4_Node000004_Node000005" class="edge">
<title>Node4&#45;&gt;Node5</title>
<g id="a_edge4_Node000004_Node000005"><a xlink:title=" ">
<path fill="none" stroke="#63b8ff" d="M78.74,-63C69.58,-63 60.76,-63 53.09,-63"/>
<polygon fill="#63b8ff" stroke="#63b8ff" points="78.78,-66.5 88.78,-63 78.78,-59.5 78.78,-66.5"/>
</a>
</g>
</g>
</g>
</svg>
