<?xml version="1.0" encoding="UTF-8" standalone="no"?>
<!DOCTYPE svg PUBLIC "-//W3C//DTD SVG 1.1//EN"
 "http://www.w3.org/Graphics/SVG/1.1/DTD/svg11.dtd">
<!-- Generated by graphviz version 2.43.0 (0)
 -->
<!-- Title: m_compute_cbc::s_fill_density_l Pages: 1 -->
<svg width="338pt" height="265pt"
 viewBox="0.00 0.00 338.00 264.50" xmlns="http://www.w3.org/2000/svg" xmlns:xlink="http://www.w3.org/1999/xlink">

<svg id="main" version="1.1" xmlns="http://www.w3.org/2000/svg" xmlns:xlink="http://www.w3.org/1999/xlink" xml:space="preserve">

<style type="text/css"><![CDATA[
.node, .edge {opacity: 0.7;}
.node.selected, .edge.selected {opacity: 1;}
.edge:hover path { stroke: red; }
.edge:hover polygon { stroke: red; fill: red; }
]]></style>
<script type="application/ecmascript" xlink:href="svg.min.js"/>
<svg id="graph" class="graph">
<g id="graph0" class="graph" transform="scale(1 1) rotate(0) translate(4 260.5)">
<title>m_compute_cbc::s_fill_density_l</title>
<!-- Node1 -->
<g id="Node000001" class="node">
<title>Node1</title>
<g id="a_Node000001"><a xlink:title="Fill density L variables.">
<polygon fill="#999999" stroke="#666666" points="330,-143 205,-143 205,-113 330,-113 330,-143"/>
<text text-anchor="start" x="213" y="-131" font-family="Helvetica,sans-Serif" font-size="10.00">m_compute_cbc::s_fill</text>
<text text-anchor="middle" x="267.5" y="-120" font-family="Helvetica,sans-Serif" font-size="10.00">_density_l</text>
</a>
</g>
</g>
<!-- Node2 -->
<g id="Node000002" class="node">
<title>Node2</title>
<g id="a_Node000002"><a xlink:href="namespacem__compute__cbc.html#af5eba6e6375a336afacbaea4de5eca1b" target="_top" xlink:title="Constant pressure subsonic outflow CBC (Thompson 1990, pg. 455)">
<polygon fill="white" stroke="#666666" points="164,-256.5 5,-256.5 5,-215.5 164,-215.5 164,-256.5"/>
<text text-anchor="start" x="13" y="-244.5" font-family="Helvetica,sans-Serif" font-size="10.00">m_compute_cbc::s_compute</text>
<text text-anchor="start" x="13" y="-233.5" font-family="Helvetica,sans-Serif" font-size="10.00">_constant_pressure_subsonic</text>
<text text-anchor="middle" x="84.5" y="-222.5" font-family="Helvetica,sans-Serif" font-size="10.00">_outflow_l</text>
</a>
</g>
</g>
<!-- Node1&#45;&gt;Node2 -->
<g id="edge1_Node000001_Node000002" class="edge">
<title>Node1&#45;&gt;Node2</title>
<g id="a_edge1_Node000001_Node000002"><a xlink:title=" ">
<path fill="none" stroke="#63b8ff" d="M243.65,-149.92C224.83,-167.04 196.81,-190.45 169,-206 162.95,-209.38 156.45,-212.5 149.84,-215.35"/>
<polygon fill="#63b8ff" stroke="#63b8ff" points="246.16,-152.37 251.13,-143.01 241.41,-147.23 246.16,-152.37"/>
</a>
</g>
</g>
<!-- Node3 -->
<g id="Node000003" class="node">
<title>Node3</title>
<g id="a_Node000003"><a xlink:href="namespacem__compute__cbc.html#a732f45ecbd489ff15c2c8773d37c84d4" target="_top" xlink:title="Force&#45;free subsonic outflow CBC (Thompson 1990, pg. 454)">
<polygon fill="white" stroke="#666666" points="169,-197 0,-197 0,-167 169,-167 169,-197"/>
<text text-anchor="start" x="8" y="-185" font-family="Helvetica,sans-Serif" font-size="10.00">m_compute_cbc::s_compute</text>
<text text-anchor="middle" x="84.5" y="-174" font-family="Helvetica,sans-Serif" font-size="10.00">_force_free_subsonic_outflow_l</text>
</a>
</g>
</g>
<!-- Node1&#45;&gt;Node3 -->
<g id="edge2_Node000001_Node000003" class="edge">
<title>Node1&#45;&gt;Node3</title>
<g id="a_edge2_Node000001_Node000003"><a xlink:title=" ">
<path fill="none" stroke="#63b8ff" d="M208.25,-146.12C195.34,-150.08 181.72,-154.22 169,-158 159.17,-160.92 148.67,-163.99 138.55,-166.91"/>
<polygon fill="#63b8ff" stroke="#63b8ff" points="209.42,-149.42 217.95,-143.13 207.37,-142.73 209.42,-149.42"/>
</a>
</g>
</g>
<!-- Node4 -->
<g id="Node000004" class="node">
<title>Node4</title>
<g id="a_Node000004"><a xlink:href="namespacem__compute__cbc.html#a34909ca05d46044d70c04c017aa103b9" target="_top" xlink:title="Nonreflecting subsonic buffer CBC (Thompson 1987, pg. 13)">
<polygon fill="white" stroke="#666666" points="162,-148.5 7,-148.5 7,-107.5 162,-107.5 162,-148.5"/>
<text text-anchor="start" x="15" y="-136.5" font-family="Helvetica,sans-Serif" font-size="10.00">m_compute_cbc::s_compute</text>
<text text-anchor="start" x="15" y="-125.5" font-family="Helvetica,sans-Serif" font-size="10.00">_nonreflecting_subsonic</text>
<text text-anchor="middle" x="84.5" y="-114.5" font-family="Helvetica,sans-Serif" font-size="10.00">_buffer_l</text>
</a>
</g>
</g>
<!-- Node1&#45;&gt;Node4 -->
<g id="edge3_Node000001_Node000004" class="edge">
<title>Node1&#45;&gt;Node4</title>
<g id="a_edge3_Node000001_Node000004"><a xlink:title=" ">
<path fill="none" stroke="#63b8ff" d="M194.84,-128C184.13,-128 173.05,-128 162.25,-128"/>
<polygon fill="#63b8ff" stroke="#63b8ff" points="194.97,-131.5 204.97,-128 194.97,-124.5 194.97,-131.5"/>
</a>
</g>
</g>
<!-- Node5 -->
<g id="Node000005" class="node">
<title>Node5</title>
<g id="a_Node000005"><a xlink:href="namespacem__compute__cbc.html#a68d5fa7a23a11a0a5bd698f3ce482cd1" target="_top" xlink:title="Nonreflecting subsonic outflow CBC (Thompson 1990, pg. 454)">
<polygon fill="white" stroke="#666666" points="162,-89.5 7,-89.5 7,-48.5 162,-48.5 162,-89.5"/>
<text text-anchor="start" x="15" y="-77.5" font-family="Helvetica,sans-Serif" font-size="10.00">m_compute_cbc::s_compute</text>
<text text-anchor="start" x="15" y="-66.5" font-family="Helvetica,sans-Serif" font-size="10.00">_nonreflecting_subsonic</text>
<text text-anchor="middle" x="84.5" y="-55.5" font-family="Helvetica,sans-Serif" font-size="10.00">_outflow_l</text>
</a>
</g>
</g>
<!-- Node1&#45;&gt;Node5 -->
<g id="edge4_Node000001_Node000005" class="edge">
<title>Node1&#45;&gt;Node5</title>
<g id="a_edge4_Node000001_Node000005"><a xlink:title=" ">
<path fill="none" stroke="#63b8ff" d="M210.65,-109.79C191.02,-103.39 168.82,-96.16 148.63,-89.58"/>
<polygon fill="#63b8ff" stroke="#63b8ff" points="209.77,-113.19 220.36,-112.96 211.93,-106.53 209.77,-113.19"/>
</a>
</g>
</g>
<!-- Node6 -->
<g id="Node000006" class="node">
<title>Node6</title>
<g id="a_Node000006"><a xlink:href="namespacem__compute__cbc.html#a92bf825d0b077db1831cfa1d18a34891" target="_top" xlink:title="Supersonic outflow CBC (Thompson 1990, pg. 453)">
<polygon fill="white" stroke="#666666" points="162,-30 7,-30 7,0 162,0 162,-30"/>
<text text-anchor="start" x="15" y="-18" font-family="Helvetica,sans-Serif" font-size="10.00">m_compute_cbc::s_compute</text>
<text text-anchor="middle" x="84.5" y="-7" font-family="Helvetica,sans-Serif" font-size="10.00">_supersonic_outflow_l</text>
</a>
</g>
</g>
<!-- Node1&#45;&gt;Node6 -->
<g id="edge5_Node000001_Node000006" class="edge">
<title>Node1&#45;&gt;Node6</title>
<g id="a_edge5_Node000001_Node000006"><a xlink:title=" ">
<path fill="none" stroke="#63b8ff" d="M246.59,-105.01C228.27,-85.17 199.39,-57.1 169,-40 162.27,-36.22 154.91,-32.95 147.44,-30.14"/>
<polygon fill="#63b8ff" stroke="#63b8ff" points="244.24,-107.62 253.54,-112.69 249.42,-102.92 244.24,-107.62"/>
</a>
</g>
</g>
</g>
</svg>
</svg>

<style type='text/css'>
<![CDATA[
[data-mouse-over-selected='false'] { opacity: 0.7; }
[data-mouse-over-selected='true']  { opacity: 1.0; }
]]>
</style>
<script type="application/ecmascript"><![CDATA[
document.addEventListener('DOMContentLoaded', (event) => {
  highlightEdges();
  highlightAdjacentNodes();
});
]]></script>
</svg>
