<?xml version="1.0" encoding="UTF-8" standalone="no"?>
<!DOCTYPE svg PUBLIC "-//W3C//DTD SVG 1.1//EN"
 "http://www.w3.org/Graphics/SVG/1.1/DTD/svg11.dtd">
<!-- Generated by graphviz version 2.43.0 (0)
 -->
<!-- Title: m_bubbles::f_bpres_dot Pages: 1 -->
<svg width="673pt" height="51pt"
 viewBox="0.00 0.00 673.00 50.50" xmlns="http://www.w3.org/2000/svg" xmlns:xlink="http://www.w3.org/1999/xlink">
<g id="graph0" class="graph" transform="scale(1 1) rotate(0) translate(4 46.5)">
<title>m_bubbles::f_bpres_dot</title>
<!-- Node1 -->
<g id="Node000001" class="node">
<title>Node1</title>
<g id="a_Node000001"><a xlink:title="Function that computes the time derivative of the internal bubble pressure.">
<polygon fill="#999999" stroke="#666666" points="665,-24.5 532,-24.5 532,-5.5 665,-5.5 665,-24.5"/>
<text text-anchor="middle" x="598.5" y="-12.5" font-family="Helvetica,sans-Serif" font-size="10.00">m_bubbles::f_bpres_dot</text>
</a>
</g>
</g>
<!-- Node1&#45;&gt;Node1 -->
<g id="edge1_Node000001_Node000001" class="edge">
<title>Node1&#45;&gt;Node1</title>
<g id="a_edge1_Node000001_Node000001"><a xlink:title=" ">
<path fill="none" stroke="#63b8ff" d="M630.69,-32.95C629.77,-38.32 619.04,-42.5 598.5,-42.5 567.93,-42.5 559.09,-33.23 571.99,-24.58"/>
<polygon fill="#63b8ff" stroke="#63b8ff" points="633.52,-30.89 625.01,-24.58 627.73,-34.82 633.52,-30.89"/>
</a>
</g>
</g>
<!-- Node2 -->
<g id="Node000002" class="node">
<title>Node2</title>
<g id="a_Node000002"><a xlink:href="namespacem__bubbles.html#ad2e1a7c7cf62b063d370eb787ff65917" target="_top" xlink:title="Changes of pressure and vapor mass in the lagrange bubbles.">
<polygon fill="white" stroke="#666666" points="496,-24.5 354,-24.5 354,-5.5 496,-5.5 496,-24.5"/>
<text text-anchor="middle" x="425" y="-12.5" font-family="Helvetica,sans-Serif" font-size="10.00">m_bubbles::s_advance_el</text>
</a>
</g>
</g>
<!-- Node1&#45;&gt;Node2 -->
<g id="edge2_Node000001_Node000002" class="edge">
<title>Node1&#45;&gt;Node2</title>
<g id="a_edge2_Node000001_Node000002"><a xlink:title=" ">
<path fill="none" stroke="#63b8ff" d="M521.5,-15C513.08,-15 504.54,-15 496.2,-15"/>
<polygon fill="#63b8ff" stroke="#63b8ff" points="521.68,-18.5 531.68,-15 521.68,-11.5 521.68,-18.5"/>
</a>
</g>
</g>
<!-- Node3 -->
<g id="Node000003" class="node">
<title>Node3</title>
<g id="a_Node000003"><a xlink:href="namespacem__bubbles.html#a58b32597dfaefbb21cf23ca74203c5ad" target="_top" xlink:title="Integrate bubble variables over the given time step size, h, using a third&#45;order accurate embedded Ru...">
<polygon fill="white" stroke="#666666" points="318,-30 190,-30 190,0 318,0 318,-30"/>
<text text-anchor="start" x="198" y="-18" font-family="Helvetica,sans-Serif" font-size="10.00">m_bubbles::s_advance</text>
<text text-anchor="middle" x="254" y="-7" font-family="Helvetica,sans-Serif" font-size="10.00">_substep</text>
</a>
</g>
</g>
<!-- Node2&#45;&gt;Node3 -->
<g id="edge3_Node000002_Node000003" class="edge">
<title>Node2&#45;&gt;Node3</title>
<g id="a_edge3_Node000002_Node000003"><a xlink:title=" ">
<path fill="none" stroke="#63b8ff" d="M343.78,-15C335.21,-15 326.57,-15 318.24,-15"/>
<polygon fill="#63b8ff" stroke="#63b8ff" points="343.8,-18.5 353.8,-15 343.8,-11.5 343.8,-18.5"/>
</a>
</g>
</g>
<!-- Node4 -->
<g id="Node000004" class="node">
<title>Node4</title>
<g id="a_Node000004"><a xlink:href="namespacem__bubbles.html#a8fa7693467966aebe329db289e1fd8e0" target="_top" xlink:title="Adaptive time stepping routine for subgrid bubbles (See Heirer, E. Hairer S.P.Nørsett G....">
<polygon fill="white" stroke="#666666" points="154,-24.5 0,-24.5 0,-5.5 154,-5.5 154,-24.5"/>
<text text-anchor="middle" x="77" y="-12.5" font-family="Helvetica,sans-Serif" font-size="10.00">m_bubbles::s_advance_step</text>
</a>
</g>
</g>
<!-- Node3&#45;&gt;Node4 -->
<g id="edge4_Node000003_Node000004" class="edge">
<title>Node3&#45;&gt;Node4</title>
<g id="a_edge4_Node000003_Node000004"><a xlink:title=" ">
<path fill="none" stroke="#63b8ff" d="M179.67,-15C171.26,-15 162.67,-15 154.22,-15"/>
<polygon fill="#63b8ff" stroke="#63b8ff" points="179.82,-18.5 189.82,-15 179.82,-11.5 179.82,-18.5"/>
</a>
</g>
</g>
</g>
</svg>
