<?xml version="1.0" encoding="UTF-8" standalone="no"?>
<!DOCTYPE svg PUBLIC "-//W3C//DTD SVG 1.1//EN"
 "http://www.w3.org/Graphics/SVG/1.1/DTD/svg11.dtd">
<!-- Generated by graphviz version 2.43.0 (0)
 -->
<!-- Title: m_pressure_relaxation::s_correct_internal_energies Pages: 1 -->
<svg width="466pt" height="49pt"
 viewBox="0.00 0.00 466.00 49.00" xmlns="http://www.w3.org/2000/svg" xmlns:xlink="http://www.w3.org/1999/xlink">
<g id="graph0" class="graph" transform="scale(1 1) rotate(0) translate(4 45)">
<title>m_pressure_relaxation::s_correct_internal_energies</title>
<!-- Node1 -->
<g id="Node000001" class="node">
<title>Node1</title>
<g id="a_Node000001"><a xlink:title="Correct internal energies using equilibrated pressure.">
<polygon fill="#999999" stroke="#666666" points="458,-41 330,-41 330,0 458,0 458,-41"/>
<text text-anchor="start" x="338" y="-29" font-family="Helvetica,sans-Serif" font-size="10.00">m_pressure_relaxation</text>
<text text-anchor="start" x="338" y="-18" font-family="Helvetica,sans-Serif" font-size="10.00">::s_correct_internal</text>
<text text-anchor="middle" x="394" y="-7" font-family="Helvetica,sans-Serif" font-size="10.00">_energies</text>
</a>
</g>
</g>
<!-- Node2 -->
<g id="Node000002" class="node">
<title>Node2</title>
<g id="a_Node000002"><a xlink:href="namespacem__pressure__relaxation.html#ab49d1c2d5e1c5bd43d0225aec811f549" target="_top" xlink:title="Process pressure relaxation for a single cell.">
<polygon fill="white" stroke="#666666" points="294,-35.5 166,-35.5 166,-5.5 294,-5.5 294,-35.5"/>
<text text-anchor="start" x="174" y="-23.5" font-family="Helvetica,sans-Serif" font-size="10.00">m_pressure_relaxation</text>
<text text-anchor="middle" x="230" y="-12.5" font-family="Helvetica,sans-Serif" font-size="10.00">::s_relax_cell_pressure</text>
</a>
</g>
</g>
<!-- Node1&#45;&gt;Node2 -->
<g id="edge1_Node000001_Node000002" class="edge">
<title>Node1&#45;&gt;Node2</title>
<g id="a_edge1_Node000001_Node000002"><a xlink:title=" ">
<path fill="none" stroke="#63b8ff" d="M319.63,-20.5C311.14,-20.5 302.53,-20.5 294.19,-20.5"/>
<polygon fill="#63b8ff" stroke="#63b8ff" points="319.9,-24 329.9,-20.5 319.9,-17 319.9,-24"/>
</a>
</g>
</g>
<!-- Node3 -->
<g id="Node000003" class="node">
<title>Node3</title>
<g id="a_Node000003"><a xlink:href="namespacem__pressure__relaxation.html#a37306a2fbe3887ca51eac1a59a2504ef" target="_top" xlink:title="The main pressure relaxation procedure.">
<polygon fill="white" stroke="#666666" points="130,-41 0,-41 0,0 130,0 130,-41"/>
<text text-anchor="start" x="8" y="-29" font-family="Helvetica,sans-Serif" font-size="10.00">m_pressure_relaxation</text>
<text text-anchor="start" x="8" y="-18" font-family="Helvetica,sans-Serif" font-size="10.00">::s_pressure_relaxation</text>
<text text-anchor="middle" x="65" y="-7" font-family="Helvetica,sans-Serif" font-size="10.00">_procedure</text>
</a>
</g>
</g>
<!-- Node2&#45;&gt;Node3 -->
<g id="edge2_Node000002_Node000003" class="edge">
<title>Node2&#45;&gt;Node3</title>
<g id="a_edge2_Node000002_Node000003"><a xlink:title=" ">
<path fill="none" stroke="#63b8ff" d="M155.97,-20.5C147.38,-20.5 138.66,-20.5 130.2,-20.5"/>
<polygon fill="#63b8ff" stroke="#63b8ff" points="155.98,-24 165.98,-20.5 155.98,-17 155.98,-24"/>
</a>
</g>
</g>
</g>
</svg>
