<?xml version="1.0" encoding="UTF-8" standalone="no"?>
<!DOCTYPE svg PUBLIC "-//W3C//DTD SVG 1.1//EN"
 "http://www.w3.org/Graphics/SVG/1.1/DTD/svg11.dtd">
<!-- Generated by graphviz version 2.43.0 (0)
 -->
<!-- Title: m_bubbles_el_kernels::s_gaussian Pages: 1 -->
<svg width="320pt" height="230pt"
 viewBox="0.00 0.00 320.00 230.00" xmlns="http://www.w3.org/2000/svg" xmlns:xlink="http://www.w3.org/1999/xlink">
<g id="graph0" class="graph" transform="scale(1 1) rotate(0) translate(4 226)">
<title>m_bubbles_el_kernels::s_gaussian</title>
<!-- Node1 -->
<g id="Node000001" class="node">
<title>Node1</title>
<g id="a_Node000001"><a xlink:title="The purpose of this procedure contains the algorithm to use the gaussian kernel function to map the e...">
<polygon fill="#999999" stroke="#666666" points="125,-126 0,-126 0,-96 125,-96 125,-126"/>
<text text-anchor="start" x="8" y="-114" font-family="Helvetica,sans-Serif" font-size="10.00">m_bubbles_el_kernels</text>
<text text-anchor="middle" x="62.5" y="-103" font-family="Helvetica,sans-Serif" font-size="10.00">::s_gaussian</text>
</a>
</g>
</g>
<!-- Node2 -->
<g id="Node000002" class="node">
<title>Node2</title>
<g id="a_Node000002"><a xlink:href="namespacem__bubbles__el__kernels.html#ad5fab3042313da1ba4a269e602df8dcd" target="_top" xlink:title="The purpose of this subroutine is to apply the gaussian kernel function for each bubble (Maeda and Co...">
<polygon fill="white" stroke="#666666" points="299,-222 174,-222 174,-192 299,-192 299,-222"/>
<text text-anchor="start" x="182" y="-210" font-family="Helvetica,sans-Serif" font-size="10.00">m_bubbles_el_kernels</text>
<text text-anchor="middle" x="236.5" y="-199" font-family="Helvetica,sans-Serif" font-size="10.00">::s_applygaussian</text>
</a>
</g>
</g>
<!-- Node1&#45;&gt;Node2 -->
<g id="edge1_Node000001_Node000002" class="edge">
<title>Node1&#45;&gt;Node2</title>
<g id="a_edge1_Node000001_Node000002"><a xlink:title=" ">
<path fill="none" stroke="#63b8ff" d="M80.33,-126.11C98.92,-142.13 130.29,-167.25 161,-183 164.5,-184.8 168.17,-186.5 171.92,-188.09"/>
<polygon fill="#63b8ff" stroke="#63b8ff" points="170.76,-191.4 181.35,-191.86 173.36,-184.9 170.76,-191.4"/>
</a>
</g>
</g>
<!-- Node3 -->
<g id="Node000003" class="node">
<title>Node3</title>
<g id="a_Node000003"><a xlink:href="namespacem__bubbles__el__kernels.html#aeaa9dace7dfb518e56548cfe146ca117" target="_top" xlink:title="The purpose of this subroutine is to check if the current cell is outside the computational domain or...">
<polygon fill="white" stroke="#666666" points="299,-174 174,-174 174,-144 299,-144 299,-174"/>
<text text-anchor="start" x="182" y="-162" font-family="Helvetica,sans-Serif" font-size="10.00">m_bubbles_el_kernels</text>
<text text-anchor="middle" x="236.5" y="-151" font-family="Helvetica,sans-Serif" font-size="10.00">::s_check_celloutside</text>
</a>
</g>
</g>
<!-- Node1&#45;&gt;Node3 -->
<g id="edge2_Node000001_Node000003" class="edge">
<title>Node1&#45;&gt;Node3</title>
<g id="a_edge2_Node000001_Node000003"><a xlink:title=" ">
<path fill="none" stroke="#63b8ff" d="M117.45,-126.06C134.74,-130.88 154.05,-136.27 171.96,-141.27"/>
<polygon fill="#63b8ff" stroke="#63b8ff" points="171.17,-144.68 181.74,-144 173.05,-137.94 171.17,-144.68"/>
</a>
</g>
</g>
<!-- Node4 -->
<g id="Node000004" class="node">
<title>Node4</title>
<g id="a_Node000004"><a xlink:href="namespacem__bubbles__el__kernels.html#aa33afd0528afd13ffd0b1921aab15ab3" target="_top" xlink:title="Calculates the standard deviation of the bubble being smeared in the Eulerian framework.">
<polygon fill="white" stroke="#666666" points="299,-126 174,-126 174,-96 299,-96 299,-126"/>
<text text-anchor="start" x="182" y="-114" font-family="Helvetica,sans-Serif" font-size="10.00">m_bubbles_el_kernels</text>
<text text-anchor="middle" x="236.5" y="-103" font-family="Helvetica,sans-Serif" font-size="10.00">::s_compute_stddsv</text>
</a>
</g>
</g>
<!-- Node1&#45;&gt;Node4 -->
<g id="edge3_Node000001_Node000004" class="edge">
<title>Node1&#45;&gt;Node4</title>
<g id="a_edge3_Node000001_Node000004"><a xlink:title=" ">
<path fill="none" stroke="#63b8ff" d="M125.11,-111C137.58,-111 150.8,-111 163.6,-111"/>
<polygon fill="#63b8ff" stroke="#63b8ff" points="163.74,-114.5 173.74,-111 163.74,-107.5 163.74,-114.5"/>
</a>
</g>
</g>
<!-- Node5 -->
<g id="Node000005" class="node">
<title>Node5</title>
<g id="a_Node000005"><a xlink:href="namespacem__bubbles__el__kernels.html#a79fc8a820fb70a95692f32d2cc320ae4" target="_top" xlink:title="This subroutine transforms the computational coordinates of the bubble from real type into integer.">
<polygon fill="white" stroke="#666666" points="299,-78 174,-78 174,-48 299,-48 299,-78"/>
<text text-anchor="start" x="182" y="-66" font-family="Helvetica,sans-Serif" font-size="10.00">m_bubbles_el_kernels</text>
<text text-anchor="middle" x="236.5" y="-55" font-family="Helvetica,sans-Serif" font-size="10.00">::s_get_cell</text>
</a>
</g>
</g>
<!-- Node1&#45;&gt;Node5 -->
<g id="edge4_Node000001_Node000005" class="edge">
<title>Node1&#45;&gt;Node5</title>
<g id="a_edge4_Node000001_Node000005"><a xlink:title=" ">
<path fill="none" stroke="#63b8ff" d="M117.45,-95.94C134.74,-91.12 154.05,-85.73 171.96,-80.73"/>
<polygon fill="#63b8ff" stroke="#63b8ff" points="173.05,-84.06 181.74,-78 171.17,-77.32 173.05,-84.06"/>
</a>
</g>
</g>
<!-- Node6 -->
<g id="Node000006" class="node">
<title>Node6</title>
<g id="a_Node000006"><a xlink:href="namespacem__bubbles__el__kernels.html#a324f93b6871e5d344e8abb0bdd980861" target="_top" xlink:title="This subroutine relocates the current cell, if it intersects a symmetric boundary.">
<polygon fill="white" stroke="#666666" points="312,-30 161,-30 161,0 312,0 312,-30"/>
<text text-anchor="start" x="169" y="-18" font-family="Helvetica,sans-Serif" font-size="10.00">m_bubbles_el_kernels</text>
<text text-anchor="middle" x="236.5" y="-7" font-family="Helvetica,sans-Serif" font-size="10.00">::s_shift_cell_symmetric_bc</text>
</a>
</g>
</g>
<!-- Node1&#45;&gt;Node6 -->
<g id="edge5_Node000001_Node000006" class="edge">
<title>Node1&#45;&gt;Node6</title>
<g id="a_edge5_Node000001_Node000006"><a xlink:title=" ">
<path fill="none" stroke="#63b8ff" d="M80.33,-95.89C98.92,-79.87 130.29,-54.75 161,-39 164.5,-37.2 168.17,-35.5 171.92,-33.91"/>
<polygon fill="#63b8ff" stroke="#63b8ff" points="173.36,-37.1 181.35,-30.14 170.76,-30.6 173.36,-37.1"/>
</a>
</g>
</g>
</g>
</svg>
