<?xml version="1.0" encoding="UTF-8" standalone="no"?>
<!DOCTYPE svg PUBLIC "-//W3C//DTD SVG 1.1//EN"
 "http://www.w3.org/Graphics/SVG/1.1/DTD/svg11.dtd">
<!-- Generated by graphviz version 2.43.0 (0)
 -->
<!-- Title: m_ib_patches::s_ib_cylinder Pages: 1 -->
<svg width="502pt" height="86pt"
 viewBox="0.00 0.00 502.00 86.00" xmlns="http://www.w3.org/2000/svg" xmlns:xlink="http://www.w3.org/1999/xlink">
<g id="graph0" class="graph" transform="scale(1 1) rotate(0) translate(4 82)">
<title>m_ib_patches::s_ib_cylinder</title>
<!-- Node1 -->
<g id="Node000001" class="node">
<title>Node1</title>
<g id="a_Node000001"><a xlink:title="The cylindrical patch is a 3D geometry that may be used, for example, in setting up a cylindrical sol...">
<polygon fill="#999999" stroke="#666666" points="110,-54 0,-54 0,-24 110,-24 110,-54"/>
<text text-anchor="start" x="8" y="-42" font-family="Helvetica,sans-Serif" font-size="10.00">m_ib_patches::s_ib</text>
<text text-anchor="middle" x="55" y="-31" font-family="Helvetica,sans-Serif" font-size="10.00">_cylinder</text>
</a>
</g>
</g>
<!-- Node2 -->
<g id="Node000002" class="node">
<title>Node2</title>
<g id="a_Node000002"><a xlink:href="namespacem__helper__basic.html#a345e205ced0b0674a22f59a2c1549eb4" target="_top" xlink:title="Checks if a real(wp) variable is of default value.">
<polygon fill="white" stroke="#666666" points="289,-78 173,-78 173,-48 289,-48 289,-78"/>
<text text-anchor="start" x="181" y="-66" font-family="Helvetica,sans-Serif" font-size="10.00">m_helper_basic::f_is</text>
<text text-anchor="middle" x="231" y="-55" font-family="Helvetica,sans-Serif" font-size="10.00">_default</text>
</a>
</g>
</g>
<!-- Node1&#45;&gt;Node2 -->
<g id="edge1_Node000001_Node000002" class="edge">
<title>Node1&#45;&gt;Node2</title>
<g id="a_edge1_Node000001_Node000002"><a xlink:title=" ">
<path fill="none" stroke="#63b8ff" d="M110.1,-46.46C126.78,-48.76 145.35,-51.32 162.8,-53.73"/>
<polygon fill="#63b8ff" stroke="#63b8ff" points="162.54,-57.23 172.92,-55.13 163.49,-50.29 162.54,-57.23"/>
</a>
</g>
</g>
<!-- Node4 -->
<g id="Node000004" class="node">
<title>Node4</title>
<g id="a_Node000004"><a xlink:href="namespacem__ib__patches.html#a6ca8587aa8d8a3a25ba76458486fb067" target="_top" xlink:title=" ">
<polygon fill="white" stroke="#666666" points="316,-30 146,-30 146,0 316,0 316,-30"/>
<text text-anchor="start" x="154" y="-18" font-family="Helvetica,sans-Serif" font-size="10.00">m_ib_patches::s_convert</text>
<text text-anchor="middle" x="231" y="-7" font-family="Helvetica,sans-Serif" font-size="10.00">_cylindrical_to_cartesian_coord</text>
</a>
</g>
</g>
<!-- Node1&#45;&gt;Node4 -->
<g id="edge3_Node000001_Node000004" class="edge">
<title>Node1&#45;&gt;Node4</title>
<g id="a_edge3_Node000001_Node000004"><a xlink:title=" ">
<path fill="none" stroke="#63b8ff" d="M110.1,-31.54C118.36,-30.4 127.09,-29.19 135.92,-27.98"/>
<polygon fill="#63b8ff" stroke="#63b8ff" points="136.47,-31.43 145.9,-26.6 135.52,-24.5 136.47,-31.43"/>
</a>
</g>
</g>
<!-- Node3 -->
<g id="Node000003" class="node">
<title>Node3</title>
<g id="a_Node000003"><a xlink:href="namespacem__helper__basic.html#a58590a12d49b9b884256a839f2be8610" target="_top" xlink:title="This procedure checks if two floating point numbers of wp are within tolerance.">
<polygon fill="white" stroke="#666666" points="494,-78 352,-78 352,-48 494,-48 494,-78"/>
<text text-anchor="start" x="360" y="-66" font-family="Helvetica,sans-Serif" font-size="10.00">m_helper_basic::f_approx</text>
<text text-anchor="middle" x="423" y="-55" font-family="Helvetica,sans-Serif" font-size="10.00">_equal</text>
</a>
</g>
</g>
<!-- Node2&#45;&gt;Node3 -->
<g id="edge2_Node000002_Node000003" class="edge">
<title>Node2&#45;&gt;Node3</title>
<g id="a_edge2_Node000002_Node000003"><a xlink:title=" ">
<path fill="none" stroke="#63b8ff" d="M289.01,-63C305.55,-63 323.92,-63 341.61,-63"/>
<polygon fill="#63b8ff" stroke="#63b8ff" points="341.92,-66.5 351.92,-63 341.92,-59.5 341.92,-66.5"/>
</a>
</g>
</g>
</g>
</svg>
