<?xml version="1.0" encoding="UTF-8" standalone="no"?>
<!DOCTYPE svg PUBLIC "-//W3C//DTD SVG 1.1//EN"
 "http://www.w3.org/Graphics/SVG/1.1/DTD/svg11.dtd">
<!-- Generated by graphviz version 2.43.0 (0)
 -->
<!-- Title: m_checker::s_check_inputs_acoustic_src Pages: 1 -->
<svg width="464pt" height="140pt"
 viewBox="0.00 0.00 464.00 139.65" xmlns="http://www.w3.org/2000/svg" xmlns:xlink="http://www.w3.org/1999/xlink">

<svg id="main" version="1.1" xmlns="http://www.w3.org/2000/svg" xmlns:xlink="http://www.w3.org/1999/xlink" xml:space="preserve">

<style type="text/css"><![CDATA[
.node, .edge {opacity: 0.7;}
.node.selected, .edge.selected {opacity: 1;}
.edge:hover path { stroke: red; }
.edge:hover polygon { stroke: red; fill: red; }
]]></style>
<script type="application/ecmascript" xlink:href="svg.min.js"/>
<svg id="graph" class="graph">
<g id="graph0" class="graph" transform="scale(1 1) rotate(0) translate(4 135.65)">
<title>m_checker::s_check_inputs_acoustic_src</title>
<!-- Node1 -->
<g id="Node000001" class="node">
<title>Node1</title>
<g id="a_Node000001"><a xlink:title="Checks constraints on acoustic_source parameters.">
<polygon fill="#999999" stroke="#666666" points="117,-91.5 0,-91.5 0,-61.5 117,-61.5 117,-91.5"/>
<text text-anchor="start" x="8" y="-79.5" font-family="Helvetica,sans-Serif" font-size="10.00">m_checker::s_check</text>
<text text-anchor="middle" x="58.5" y="-68.5" font-family="Helvetica,sans-Serif" font-size="10.00">_inputs_acoustic_src</text>
</a>
</g>
</g>
<!-- Node2 -->
<g id="Node000002" class="node">
<title>Node2</title>
<g id="a_Node000002"><a xlink:href="namespacem__helper__basic.html#a58590a12d49b9b884256a839f2be8610" target="_top" xlink:title="This procedure checks if two floating point numbers of wp are within tolerance.">
<polygon fill="white" stroke="#666666" points="456,-115.5 314,-115.5 314,-85.5 456,-85.5 456,-115.5"/>
<text text-anchor="start" x="322" y="-103.5" font-family="Helvetica,sans-Serif" font-size="10.00">m_helper_basic::f_approx</text>
<text text-anchor="middle" x="385" y="-92.5" font-family="Helvetica,sans-Serif" font-size="10.00">_equal</text>
</a>
</g>
</g>
<!-- Node1&#45;&gt;Node2 -->
<g id="edge1_Node000001_Node000002" class="edge">
<title>Node1&#45;&gt;Node2</title>
<g id="a_edge1_Node000001_Node000002"><a xlink:title=" ">
<path fill="none" stroke="#63b8ff" d="M81.37,-91.53C99.6,-103.1 126.75,-118.16 153,-124.5 209.9,-138.25 276.55,-128.69 323.6,-117.83"/>
<polygon fill="#63b8ff" stroke="#63b8ff" points="324.42,-121.23 333.33,-115.5 322.79,-114.43 324.42,-121.23"/>
</a>
</g>
</g>
<!-- Node3 -->
<g id="Node000003" class="node">
<title>Node3</title>
<g id="a_Node000003"><a xlink:href="namespacem__helper__basic.html#a345e205ced0b0674a22f59a2c1549eb4" target="_top" xlink:title="Checks if a real(wp) variable is of default value.">
<polygon fill="white" stroke="#666666" points="273.5,-115.5 157.5,-115.5 157.5,-85.5 273.5,-85.5 273.5,-115.5"/>
<text text-anchor="start" x="165.5" y="-103.5" font-family="Helvetica,sans-Serif" font-size="10.00">m_helper_basic::f_is</text>
<text text-anchor="middle" x="215.5" y="-92.5" font-family="Helvetica,sans-Serif" font-size="10.00">_default</text>
</a>
</g>
</g>
<!-- Node1&#45;&gt;Node3 -->
<g id="edge2_Node000001_Node000003" class="edge">
<title>Node1&#45;&gt;Node3</title>
<g id="a_edge2_Node000001_Node000003"><a xlink:title=" ">
<path fill="none" stroke="#63b8ff" d="M117.22,-85.44C127.03,-86.96 137.29,-88.55 147.32,-90.1"/>
<polygon fill="#63b8ff" stroke="#63b8ff" points="146.83,-93.56 157.25,-91.64 147.9,-86.65 146.83,-93.56"/>
</a>
</g>
</g>
<!-- Node4 -->
<g id="Node000004" class="node">
<title>Node4</title>
<g id="a_Node000004"><a xlink:href="namespacem__helper__basic.html#a8f17ba5c5fd6ae301c3c5ebd3c15dcd3" target="_top" xlink:title="Checks if a real(wp) variable is an integer.">
<polygon fill="white" stroke="#666666" points="273.5,-67.5 157.5,-67.5 157.5,-37.5 273.5,-37.5 273.5,-67.5"/>
<text text-anchor="start" x="165.5" y="-55.5" font-family="Helvetica,sans-Serif" font-size="10.00">m_helper_basic::f_is</text>
<text text-anchor="middle" x="215.5" y="-44.5" font-family="Helvetica,sans-Serif" font-size="10.00">_integer</text>
</a>
</g>
</g>
<!-- Node1&#45;&gt;Node4 -->
<g id="edge4_Node000001_Node000004" class="edge">
<title>Node1&#45;&gt;Node4</title>
<g id="a_edge4_Node000001_Node000004"><a xlink:title=" ">
<path fill="none" stroke="#63b8ff" d="M117.22,-67.56C127.03,-66.04 137.29,-64.45 147.32,-62.9"/>
<polygon fill="#63b8ff" stroke="#63b8ff" points="147.9,-66.35 157.25,-61.36 146.83,-59.44 147.9,-66.35"/>
</a>
</g>
</g>
<!-- Node5 -->
<g id="Node000005" class="node">
<title>Node5</title>
<g id="a_Node000005"><a xlink:href="namespacem__helper.html#a6b74248bdd19bc6b0b43f757a3212275" target="_top" xlink:title=" ">
<polygon fill="white" stroke="#666666" points="278,-19 153,-19 153,0 278,0 278,-19"/>
<text text-anchor="middle" x="215.5" y="-7" font-family="Helvetica,sans-Serif" font-size="10.00">m_helper::s_int_to_str</text>
</a>
</g>
</g>
<!-- Node1&#45;&gt;Node5 -->
<g id="edge6_Node000001_Node000005" class="edge">
<title>Node1&#45;&gt;Node5</title>
<g id="a_edge6_Node000001_Node000005"><a xlink:title=" ">
<path fill="none" stroke="#63b8ff" d="M85.92,-61.36C104.33,-51.21 129.68,-38 153,-28.5 158.5,-26.26 164.37,-24.13 170.22,-22.16"/>
<polygon fill="#63b8ff" stroke="#63b8ff" points="171.53,-25.41 179.97,-19.01 169.38,-18.75 171.53,-25.41"/>
</a>
</g>
</g>
<!-- Node3&#45;&gt;Node2 -->
<g id="edge3_Node000003_Node000002" class="edge">
<title>Node3&#45;&gt;Node2</title>
<g id="a_edge3_Node000003_Node000002"><a xlink:title=" ">
<path fill="none" stroke="#63b8ff" d="M273.68,-100.5C283.34,-100.5 293.54,-100.5 303.66,-100.5"/>
<polygon fill="#63b8ff" stroke="#63b8ff" points="303.75,-104 313.75,-100.5 303.75,-97 303.75,-104"/>
</a>
</g>
</g>
<!-- Node4&#45;&gt;Node2 -->
<g id="edge5_Node000004_Node000002" class="edge">
<title>Node4&#45;&gt;Node2</title>
<g id="a_edge5_Node000004_Node000002"><a xlink:title=" ">
<path fill="none" stroke="#63b8ff" d="M269.04,-67.56C285.72,-72.34 304.33,-77.67 321.63,-82.63"/>
<polygon fill="#63b8ff" stroke="#63b8ff" points="321.07,-86.11 331.65,-85.5 323,-79.38 321.07,-86.11"/>
</a>
</g>
</g>
</g>
</svg>
</svg>

<style type='text/css'>
<![CDATA[
[data-mouse-over-selected='false'] { opacity: 0.7; }
[data-mouse-over-selected='true']  { opacity: 1.0; }
]]>
</style>
<script type="application/ecmascript"><![CDATA[
document.addEventListener('DOMContentLoaded', (event) => {
  highlightEdges();
  highlightAdjacentNodes();
});
]]></script>
</svg>
