<?xml version="1.0" encoding="UTF-8" standalone="no"?>
<!DOCTYPE svg PUBLIC "-//W3C//DTD SVG 1.1//EN"
 "http://www.w3.org/Graphics/SVG/1.1/DTD/svg11.dtd">
<!-- Generated by graphviz version 2.43.0 (0)
 -->
<!-- Title: m_boundary_common::s_create_mpi_types Pages: 1 -->
<svg width="868pt" height="108pt"
 viewBox="0.00 0.00 868.00 108.00" xmlns="http://www.w3.org/2000/svg" xmlns:xlink="http://www.w3.org/1999/xlink">
<g id="graph0" class="graph" transform="scale(1 1) rotate(0) translate(4 104)">
<title>m_boundary_common::s_create_mpi_types</title>
<!-- Node1 -->
<g id="Node000001" class="node">
<title>Node1</title>
<g id="a_Node000001"><a xlink:title=" ">
<polygon fill="#999999" stroke="#666666" points="860,-64.5 729,-64.5 729,-34.5 860,-34.5 860,-64.5"/>
<text text-anchor="start" x="737" y="-52.5" font-family="Helvetica,sans-Serif" font-size="10.00">m_boundary_common::</text>
<text text-anchor="middle" x="794.5" y="-41.5" font-family="Helvetica,sans-Serif" font-size="10.00">s_create_mpi_types</text>
</a>
</g>
</g>
<!-- Node2 -->
<g id="Node000002" class="node">
<title>Node2</title>
<g id="a_Node000002"><a xlink:href="namespacem__boundary__common.html#a81909d1af9c5476df6c091b1e714ca99" target="_top" xlink:title=" ">
<polygon fill="white" stroke="#666666" points="691.5,-100 549.5,-100 549.5,-59 691.5,-59 691.5,-100"/>
<text text-anchor="start" x="557.5" y="-88" font-family="Helvetica,sans-Serif" font-size="10.00">m_boundary_common::</text>
<text text-anchor="start" x="557.5" y="-77" font-family="Helvetica,sans-Serif" font-size="10.00">s_read_parallel_boundary</text>
<text text-anchor="middle" x="620.5" y="-66" font-family="Helvetica,sans-Serif" font-size="10.00">_condition_files</text>
</a>
</g>
</g>
<!-- Node1&#45;&gt;Node2 -->
<g id="edge1_Node000001_Node000002" class="edge">
<title>Node1&#45;&gt;Node2</title>
<g id="a_edge1_Node000001_Node000002"><a xlink:title=" ">
<path fill="none" stroke="#63b8ff" d="M718.84,-62.52C709.79,-64.1 700.57,-65.71 691.58,-67.28"/>
<polygon fill="#63b8ff" stroke="#63b8ff" points="719.71,-65.92 728.96,-60.76 718.51,-59.03 719.71,-65.92"/>
</a>
</g>
</g>
<!-- Node7 -->
<g id="Node000007" class="node">
<title>Node7</title>
<g id="a_Node000007"><a xlink:href="namespacem__boundary__common.html#a2aefea0840d9c981126f0fa7f5087d8f" target="_top" xlink:title=" ">
<polygon fill="white" stroke="#666666" points="693,-41 548,-41 548,0 693,0 693,-41"/>
<text text-anchor="start" x="556" y="-29" font-family="Helvetica,sans-Serif" font-size="10.00">m_boundary_common::</text>
<text text-anchor="start" x="556" y="-18" font-family="Helvetica,sans-Serif" font-size="10.00">s_write_parallel_boundary</text>
<text text-anchor="middle" x="620.5" y="-7" font-family="Helvetica,sans-Serif" font-size="10.00">_condition_files</text>
</a>
</g>
</g>
<!-- Node1&#45;&gt;Node7 -->
<g id="edge6_Node000001_Node000007" class="edge">
<title>Node1&#45;&gt;Node7</title>
<g id="a_edge6_Node000001_Node000007"><a xlink:title=" ">
<path fill="none" stroke="#63b8ff" d="M718.96,-36.93C710.35,-35.48 701.6,-34 693.03,-32.56"/>
<polygon fill="#63b8ff" stroke="#63b8ff" points="718.52,-40.41 728.96,-38.62 719.69,-33.51 718.52,-40.41"/>
</a>
</g>
</g>
<!-- Node3 -->
<g id="Node000003" class="node">
<title>Node3</title>
<g id="a_Node000003"><a xlink:href="namespacem__start__up.html#a3226ddf0c64cff078579641fda52781d" target="_top" xlink:title=" ">
<polygon fill="white" stroke="#666666" points="512,-94.5 401,-94.5 401,-64.5 512,-64.5 512,-94.5"/>
<text text-anchor="start" x="409" y="-82.5" font-family="Helvetica,sans-Serif" font-size="10.00">m_start_up::s_read</text>
<text text-anchor="middle" x="456.5" y="-71.5" font-family="Helvetica,sans-Serif" font-size="10.00">_parallel_data_files</text>
</a>
</g>
</g>
<!-- Node2&#45;&gt;Node3 -->
<g id="edge2_Node000002_Node000003" class="edge">
<title>Node2&#45;&gt;Node3</title>
<g id="a_edge2_Node000002_Node000003"><a xlink:title=" ">
<path fill="none" stroke="#63b8ff" d="M539.39,-79.5C530.14,-79.5 520.89,-79.5 512.09,-79.5"/>
<polygon fill="#63b8ff" stroke="#63b8ff" points="539.39,-83 549.39,-79.5 539.39,-76 539.39,-83"/>
</a>
</g>
</g>
<!-- Node4 -->
<g id="Node000004" class="node">
<title>Node4</title>
<g id="a_Node000004"><a xlink:href="namespacem__start__up.html#a25f79bc2aae3d0302d4a97247d84f92a" target="_top" xlink:title="Read data files. Dispatch subroutine that replaces procedure pointer.">
<polygon fill="white" stroke="#666666" points="365,-94.5 255,-94.5 255,-64.5 365,-64.5 365,-94.5"/>
<text text-anchor="start" x="263" y="-82.5" font-family="Helvetica,sans-Serif" font-size="10.00">m_start_up::s_read</text>
<text text-anchor="middle" x="310" y="-71.5" font-family="Helvetica,sans-Serif" font-size="10.00">_data_files</text>
</a>
</g>
</g>
<!-- Node3&#45;&gt;Node4 -->
<g id="edge3_Node000003_Node000004" class="edge">
<title>Node3&#45;&gt;Node4</title>
<g id="a_edge3_Node000003_Node000004"><a xlink:title=" ">
<path fill="none" stroke="#63b8ff" d="M390.62,-79.5C382.13,-79.5 373.51,-79.5 365.23,-79.5"/>
<polygon fill="#63b8ff" stroke="#63b8ff" points="390.87,-83 400.87,-79.5 390.87,-76 390.87,-83"/>
</a>
</g>
</g>
<!-- Node5 -->
<g id="Node000005" class="node">
<title>Node5</title>
<g id="a_Node000005"><a xlink:href="namespacem__start__up.html#a1fb7a3f9d412acd2a9cbcfe8b45006dd" target="_top" xlink:title=" ">
<polygon fill="white" stroke="#666666" points="219,-94.5 89,-94.5 89,-64.5 219,-64.5 219,-94.5"/>
<text text-anchor="start" x="97" y="-82.5" font-family="Helvetica,sans-Serif" font-size="10.00">m_start_up::s_initialize</text>
<text text-anchor="middle" x="154" y="-71.5" font-family="Helvetica,sans-Serif" font-size="10.00">_modules</text>
</a>
</g>
</g>
<!-- Node4&#45;&gt;Node5 -->
<g id="edge4_Node000004_Node000005" class="edge">
<title>Node4&#45;&gt;Node5</title>
<g id="a_edge4_Node000004_Node000005"><a xlink:title=" ">
<path fill="none" stroke="#63b8ff" d="M244.56,-79.5C236.13,-79.5 227.5,-79.5 219.08,-79.5"/>
<polygon fill="#63b8ff" stroke="#63b8ff" points="244.71,-83 254.71,-79.5 244.71,-76 244.71,-83"/>
</a>
</g>
</g>
<!-- Node6 -->
<g id="Node000006" class="node">
<title>Node6</title>
<g id="a_Node000006"><a xlink:href="p__main_8fpp_8f90.html#aeec10ee8e2940c953967da3e374e1579" target="_top" xlink:title="Quasi&#45;conservative, shock&#45; and interface&#45; capturing finite&#45;volume scheme for the multicomponent Navie...">
<polygon fill="white" stroke="#666666" points="53,-89 0,-89 0,-70 53,-70 53,-89"/>
<text text-anchor="middle" x="26.5" y="-77" font-family="Helvetica,sans-Serif" font-size="10.00">p_main</text>
</a>
</g>
</g>
<!-- Node5&#45;&gt;Node6 -->
<g id="edge5_Node000005_Node000006" class="edge">
<title>Node5&#45;&gt;Node6</title>
<g id="a_edge5_Node000005_Node000006"><a xlink:title=" ">
<path fill="none" stroke="#63b8ff" d="M78.74,-79.5C69.58,-79.5 60.76,-79.5 53.09,-79.5"/>
<polygon fill="#63b8ff" stroke="#63b8ff" points="78.78,-83 88.78,-79.5 78.78,-76 78.78,-83"/>
</a>
</g>
</g>
</g>
</svg>
