<?xml version="1.0" encoding="UTF-8" standalone="no"?>
<!DOCTYPE svg PUBLIC "-//W3C//DTD SVG 1.1//EN"
 "http://www.w3.org/Graphics/SVG/1.1/DTD/svg11.dtd">
<!-- Generated by graphviz version 2.43.0 (0)
 -->
<!-- Title: m_bubbles::s_advance_el Pages: 1 -->
<svg width="319pt" height="82pt"
 viewBox="0.00 0.00 319.00 82.00" xmlns="http://www.w3.org/2000/svg" xmlns:xlink="http://www.w3.org/1999/xlink">
<g id="graph0" class="graph" transform="scale(1 1) rotate(0) translate(4 78)">
<title>m_bubbles::s_advance_el</title>
<!-- Node1 -->
<g id="Node000001" class="node">
<title>Node1</title>
<g id="a_Node000001"><a xlink:title="Changes of pressure and vapor mass in the lagrange bubbles.">
<polygon fill="#999999" stroke="#666666" points="142,-37 0,-37 0,-18 142,-18 142,-37"/>
<text text-anchor="middle" x="71" y="-25" font-family="Helvetica,sans-Serif" font-size="10.00">m_bubbles::s_advance_el</text>
</a>
</g>
</g>
<!-- Node2 -->
<g id="Node000002" class="node">
<title>Node2</title>
<g id="a_Node000002"><a xlink:href="namespacem__bubbles.html#a22f490c17625fc147198d72ac271cdc6" target="_top" xlink:title="Function that computes the time derivative of the internal bubble pressure.">
<polygon fill="white" stroke="#666666" points="311,-56 178,-56 178,-37 311,-37 311,-56"/>
<text text-anchor="middle" x="244.5" y="-44" font-family="Helvetica,sans-Serif" font-size="10.00">m_bubbles::f_bpres_dot</text>
</a>
</g>
</g>
<!-- Node1&#45;&gt;Node2 -->
<g id="edge1_Node000001_Node000002" class="edge">
<title>Node1&#45;&gt;Node2</title>
<g id="a_edge1_Node000001_Node000002"><a xlink:title=" ">
<path fill="none" stroke="#63b8ff" d="M142.25,-35.28C150.6,-36.21 159.16,-37.16 167.58,-38.09"/>
<polygon fill="#63b8ff" stroke="#63b8ff" points="167.45,-41.6 177.78,-39.22 168.22,-34.64 167.45,-41.6"/>
</a>
</g>
</g>
<!-- Node3 -->
<g id="Node000003" class="node">
<title>Node3</title>
<g id="a_Node000003"><a xlink:href="namespacem__bubbles.html#a5330f81530c36486d6a4aa540f2e76e3" target="_top" xlink:title="Function that computes the vapour flux.">
<polygon fill="white" stroke="#666666" points="299.5,-19 189.5,-19 189.5,0 299.5,0 299.5,-19"/>
<text text-anchor="middle" x="244.5" y="-7" font-family="Helvetica,sans-Serif" font-size="10.00">m_bubbles::s_vflux</text>
</a>
</g>
</g>
<!-- Node1&#45;&gt;Node3 -->
<g id="edge3_Node000001_Node000003" class="edge">
<title>Node1&#45;&gt;Node3</title>
<g id="a_edge3_Node000001_Node000003"><a xlink:title=" ">
<path fill="none" stroke="#63b8ff" d="M142.25,-20.13C154.54,-18.84 167.26,-17.5 179.37,-16.23"/>
<polygon fill="#63b8ff" stroke="#63b8ff" points="179.79,-19.71 189.37,-15.18 179.06,-12.74 179.79,-19.71"/>
</a>
</g>
</g>
<!-- Node2&#45;&gt;Node2 -->
<g id="edge2_Node000002_Node000002" class="edge">
<title>Node2&#45;&gt;Node2</title>
<g id="a_edge2_Node000002_Node000002"><a xlink:title=" ">
<path fill="none" stroke="#63b8ff" d="M217.99,-56.08C205.09,-64.73 213.93,-74 244.5,-74 265.04,-74 275.77,-69.82 276.69,-64.45"/>
<polygon fill="#63b8ff" stroke="#63b8ff" points="279.52,-62.39 271.01,-56.08 273.73,-66.32 279.52,-62.39"/>
</a>
</g>
</g>
</g>
</svg>
