<?xml version="1.0" encoding="UTF-8" standalone="no"?>
<!DOCTYPE svg PUBLIC "-//W3C//DTD SVG 1.1//EN"
 "http://www.w3.org/Graphics/SVG/1.1/DTD/svg11.dtd">
<!-- Generated by graphviz version 2.43.0 (0)
 -->
<!-- Title: m_riemann_solvers::s_riemann_solver Pages: 1 -->
<!--zoomable 502 -->

<svg id="main" version="1.1" xmlns="http://www.w3.org/2000/svg" xmlns:xlink="http://www.w3.org/1999/xlink" xml:space="preserve" onload="init(evt)">

<style type="text/css"><![CDATA[
.node, .edge {opacity: 0.7;}
.node.selected, .edge.selected {opacity: 1;}
.edge:hover path { stroke: red; }
.edge:hover polygon { stroke: red; fill: red; }
]]></style>

<defs>
  <circle id="rim" cx="0" cy="0" r="7"/>
  <circle id="rim2" cx="0" cy="0" r="3.5"/>
  <g id="zoomPlus">
    <use xlink:href="#rim" fill="#404040"><set attributeName="fill" to="#808080" begin="zoomplus.mouseover" end="zoomplus.mouseout"/></use>
    <path d="M-4,0h8M0,-4v8" fill="none" stroke="white" stroke-width="1.5" pointer-events="none"/>
  </g>
  <g id="zoomMin">
    <use xlink:href="#rim" fill="#404040"><set attributeName="fill" to="#808080" begin="zoomminus.mouseover" end="zoomminus.mouseout"/></use>
    <path d="M-4,0h8" fill="none" stroke="white" stroke-width="1.5" pointer-events="none"/>
  </g>
  <g id="arrowUp" transform="translate(30 24)">
    <use xlink:href="#rim"/>
    <path pointer-events="none" fill="none" stroke="white" stroke-width="1.5" d="M0,-3.0v7 M-2.5,-0.5L0,-3.0L2.5,-0.5"/>
  </g>
  <g id="arrowRight" transform="rotate(90) translate(36 -43)">
    <use xlink:href="#rim"/>
    <path pointer-events="none" fill="none" stroke="white" stroke-width="1.5" d="M0,-3.0v7 M-2.5,-0.5L0,-3.0L2.5,-0.5"/>
  </g>
  <g id="arrowDown" transform="rotate(180) translate(-30 -48)">
    <use xlink:href="#rim"/>
    <path pointer-events="none" fill="none" stroke="white" stroke-width="1.5" d="M0,-3.0v7 M-2.5,-0.5L0,-3.0L2.5,-0.5"/>
  </g>
  <g id="arrowLeft" transform="rotate(270) translate(-36 17)">
    <use xlink:href="#rim"/>
    <path pointer-events="none" fill="none" stroke="white" stroke-width="1.5" d="M0,-3.0v7 M-2.5,-0.5L0,-3.0L2.5,-0.5"/>
  </g>
  <g id="resetDef">
    <use xlink:href="#rim2" fill="#404040"><set attributeName="fill" to="#808080" begin="reset.mouseover" end="reset.mouseout"/></use>
  </g>
</defs>
<script type="application/ecmascript">
var viewWidth = 873;
var viewHeight = 502;
var sectionId = 'dynsection-20';
</script>
<script type="application/ecmascript" xlink:href="svg.min.js"/>
<svg id="graph" class="graph">
<g id="viewport">
<title>m_riemann_solvers::s_riemann_solver</title>
<!-- Node1 -->
<g id="Node000001" class="node">
<title>Node1</title>
<g id="a_Node000001"><a xlink:title="Dispatch to the subroutines that are utilized to compute the Riemann problem solution....">
<polygon fill="#999999" stroke="#666666" points="119,-329.5 0,-329.5 0,-299.5 119,-299.5 119,-329.5"/>
<text text-anchor="start" x="8" y="-317.5" font-family="Helvetica,sans-Serif" font-size="10.00">m_riemann_solvers::</text>
<text text-anchor="middle" x="59.5" y="-306.5" font-family="Helvetica,sans-Serif" font-size="10.00">s_riemann_solver</text>
</a>
</g>
</g>
<!-- Node2 -->
<g id="Node000002" class="node">
<title>Node2</title>
<g id="a_Node000002"><a xlink:href="namespacem__riemann__solvers.html#a1b018ebed82e499a0589925651bba7a7" target="_top" xlink:title=" ">
<polygon fill="white" stroke="#666666" points="278,-305.5 158,-305.5 158,-275.5 278,-275.5 278,-305.5"/>
<text text-anchor="start" x="166" y="-293.5" font-family="Helvetica,sans-Serif" font-size="10.00">m_riemann_solvers::</text>
<text text-anchor="middle" x="218" y="-282.5" font-family="Helvetica,sans-Serif" font-size="10.00">s_hll_riemann_solver</text>
</a>
</g>
</g>
<!-- Node1&#45;&gt;Node2 -->
<g id="edge1_Node000001_Node000002" class="edge">
<title>Node1&#45;&gt;Node2</title>
<g id="a_edge1_Node000001_Node000002"><a xlink:title=" ">
<path fill="none" stroke="#63b8ff" d="M119.22,-305.5C128.62,-304.05 138.42,-302.55 148.03,-301.08"/>
<polygon fill="#63b8ff" stroke="#63b8ff" points="148.6,-304.53 157.95,-299.56 147.54,-297.61 148.6,-304.53"/>
</a>
</g>
</g>
<!-- Node14 -->
<g id="Node000014" class="node">
<title>Node14</title>
<g id="a_Node000014"><a xlink:href="namespacem__riemann__solvers.html#a6c9d70572e9b98586bab20b028557a5a" target="_top" xlink:title="This procedure is the implementation of the Harten, Lax, van Leer, and contact (HLLC) approximate Rie...">
<polygon fill="white" stroke="#666666" points="280.5,-254.5 155.5,-254.5 155.5,-224.5 280.5,-224.5 280.5,-254.5"/>
<text text-anchor="start" x="163.5" y="-242.5" font-family="Helvetica,sans-Serif" font-size="10.00">m_riemann_solvers::</text>
<text text-anchor="middle" x="218" y="-231.5" font-family="Helvetica,sans-Serif" font-size="10.00">s_hllc_riemann_solver</text>
</a>
</g>
</g>
<!-- Node1&#45;&gt;Node14 -->
<g id="edge13_Node000001_Node000014" class="edge">
<title>Node1&#45;&gt;Node14</title>
<g id="a_edge13_Node000001_Node000014"><a xlink:title=" ">
<path fill="none" stroke="#63b8ff" d="M89.23,-299.35C107.85,-289.67 132.69,-277.01 155,-266.5 160.44,-263.94 166.19,-261.32 171.9,-258.77"/>
<polygon fill="#63b8ff" stroke="#63b8ff" points="173.69,-261.8 181.43,-254.56 170.87,-255.4 173.69,-261.8"/>
</a>
</g>
</g>
<!-- Node19 -->
<g id="Node000019" class="node">
<title>Node19</title>
<g id="a_Node000019"><a xlink:href="namespacem__riemann__solvers.html#a00571de3c5571a731fbb093c00c77ed8" target="_top" xlink:title="HLLD Riemann solver resolves 5 of the 7 waves of MHD equations: 1 entropy wave, 2 Alfvén waves,...">
<polygon fill="white" stroke="#666666" points="281,-401.5 155,-401.5 155,-371.5 281,-371.5 281,-401.5"/>
<text text-anchor="start" x="163" y="-389.5" font-family="Helvetica,sans-Serif" font-size="10.00">m_riemann_solvers::</text>
<text text-anchor="middle" x="218" y="-378.5" font-family="Helvetica,sans-Serif" font-size="10.00">s_hlld_riemann_solver</text>
</a>
</g>
</g>
<!-- Node1&#45;&gt;Node19 -->
<g id="edge26_Node000001_Node000019" class="edge">
<title>Node1&#45;&gt;Node19</title>
<g id="a_edge26_Node000001_Node000019"><a xlink:title=" ">
<path fill="none" stroke="#63b8ff" d="M88.26,-329.53C106.9,-339.39 132.15,-352.3 155,-362.5 158.85,-364.22 162.87,-365.94 166.93,-367.62"/>
<polygon fill="#63b8ff" stroke="#63b8ff" points="165.82,-370.95 176.4,-371.46 168.45,-364.46 165.82,-370.95"/>
</a>
</g>
</g>
<!-- Node20 -->
<g id="Node000020" class="node">
<title>Node20</title>
<g id="a_Node000020"><a xlink:href="namespacem__riemann__solvers.html#a9874501694c99874d02ce0eefa258ce9" target="_top" xlink:title=" ">
<polygon fill="white" stroke="#666666" points="277.5,-353.5 158.5,-353.5 158.5,-323.5 277.5,-323.5 277.5,-353.5"/>
<text text-anchor="start" x="166.5" y="-341.5" font-family="Helvetica,sans-Serif" font-size="10.00">m_riemann_solvers::</text>
<text text-anchor="middle" x="218" y="-330.5" font-family="Helvetica,sans-Serif" font-size="10.00">s_lf_riemann_solver</text>
</a>
</g>
</g>
<!-- Node1&#45;&gt;Node20 -->
<g id="edge32_Node000001_Node000020" class="edge">
<title>Node1&#45;&gt;Node20</title>
<g id="a_edge32_Node000001_Node000020"><a xlink:title=" ">
<path fill="none" stroke="#63b8ff" d="M119.22,-323.5C128.75,-324.97 138.69,-326.49 148.42,-327.98"/>
<polygon fill="#63b8ff" stroke="#63b8ff" points="148.06,-331.47 158.47,-329.52 149.12,-324.55 148.06,-331.47"/>
</a>
</g>
</g>
<!-- Node3 -->
<g id="Node000003" class="node">
<title>Node3</title>
<g id="a_Node000003"><a xlink:href="namespacem__chemistry.html#adcf7ea4e71da08b937a94689dc134882" target="_top" xlink:title=" ">
<polygon fill="white" stroke="#666666" points="491,-230.5 352,-230.5 352,-200.5 491,-200.5 491,-230.5"/>
<text text-anchor="start" x="360" y="-218.5" font-family="Helvetica,sans-Serif" font-size="10.00">m_chemistry::compute</text>
<text text-anchor="middle" x="421.5" y="-207.5" font-family="Helvetica,sans-Serif" font-size="10.00">_viscosity_and_inversion</text>
</a>
</g>
</g>
<!-- Node2&#45;&gt;Node3 -->
<g id="edge2_Node000002_Node000003" class="edge">
<title>Node2&#45;&gt;Node3</title>
<g id="a_edge2_Node000002_Node000003"><a xlink:title=" ">
<path fill="none" stroke="#63b8ff" d="M256.56,-275.42C264.75,-271.78 273.27,-267.72 281,-263.5 297.88,-254.29 299.35,-247.13 317,-239.5 324.93,-236.07 333.43,-233.09 342.02,-230.52"/>
<polygon fill="#63b8ff" stroke="#63b8ff" points="343.06,-233.86 351.73,-227.77 341.16,-227.12 343.06,-233.86"/>
</a>
</g>
</g>
<!-- Node4 -->
<g id="Node000004" class="node">
<title>Node4</title>
<g id="a_Node000004"><a xlink:href="namespacem__variables__conversion.html#a0c590a386e0e8b8fe3caef6c509d7694" target="_top" xlink:title=" ">
<polygon fill="white" stroke="#666666" points="526,-493.5 317,-493.5 317,-463.5 526,-463.5 526,-493.5"/>
<text text-anchor="start" x="325" y="-481.5" font-family="Helvetica,sans-Serif" font-size="10.00">m_variables_conversion</text>
<text text-anchor="middle" x="421.5" y="-470.5" font-family="Helvetica,sans-Serif" font-size="10.00">::s_compute_fast_magnetosonic_speed</text>
</a>
</g>
</g>
<!-- Node2&#45;&gt;Node4 -->
<g id="edge3_Node000002_Node000004" class="edge">
<title>Node2&#45;&gt;Node4</title>
<g id="a_edge3_Node000002_Node000004"><a xlink:title=" ">
<path fill="none" stroke="#63b8ff" d="M270.38,-305.56C274.31,-308.09 277.93,-311.05 281,-314.5 323.68,-362.52 271.03,-409.62 317,-454.5 317.97,-455.44 318.96,-456.35 319.98,-457.23"/>
<polygon fill="#63b8ff" stroke="#63b8ff" points="318.16,-460.23 328.3,-463.31 322.29,-454.58 318.16,-460.23"/>
</a>
</g>
</g>
<!-- Node5 -->
<g id="Node000005" class="node">
<title>Node5</title>
<g id="a_Node000005"><a xlink:href="namespacem__variables__conversion.html#a60ddc6ed73bfdd209a70ceda211e2cf7" target="_top" xlink:title=" ">
<polygon fill="white" stroke="#666666" points="501.5,-326.5 341.5,-326.5 341.5,-296.5 501.5,-296.5 501.5,-326.5"/>
<text text-anchor="start" x="349.5" y="-314.5" font-family="Helvetica,sans-Serif" font-size="10.00">m_variables_conversion</text>
<text text-anchor="middle" x="421.5" y="-303.5" font-family="Helvetica,sans-Serif" font-size="10.00">::s_compute_speed_of_sound</text>
</a>
</g>
</g>
<!-- Node2&#45;&gt;Node5 -->
<g id="edge4_Node000002_Node000005" class="edge">
<title>Node2&#45;&gt;Node5</title>
<g id="a_edge4_Node000002_Node000005"><a xlink:title=" ">
<path fill="none" stroke="#63b8ff" d="M278.1,-296.66C294.67,-298.39 313.08,-300.31 331.01,-302.17"/>
<polygon fill="#63b8ff" stroke="#63b8ff" points="330.88,-305.68 341.19,-303.23 331.61,-298.72 330.88,-305.68"/>
</a>
</g>
</g>
<!-- Node6 -->
<g id="Node000006" class="node">
<title>Node6</title>
<g id="a_Node000006"><a xlink:href="namespacem__riemann__solvers.html#a7f2bd0f420c6ce09d6363676d07c3c20" target="_top" xlink:title="Dispatch to the subroutines that are utilized to compute the viscous source fluxes for either Cartesi...">
<polygon fill="white" stroke="#666666" points="508,-182.5 335,-182.5 335,-152.5 508,-152.5 508,-182.5"/>
<text text-anchor="start" x="343" y="-170.5" font-family="Helvetica,sans-Serif" font-size="10.00">m_riemann_solvers::</text>
<text text-anchor="middle" x="421.5" y="-159.5" font-family="Helvetica,sans-Serif" font-size="10.00">s_compute_viscous_source_flux</text>
</a>
</g>
</g>
<!-- Node2&#45;&gt;Node6 -->
<g id="edge5_Node000002_Node000006" class="edge">
<title>Node2&#45;&gt;Node6</title>
<g id="a_edge5_Node000002_Node000006"><a xlink:title=" ">
<path fill="none" stroke="#63b8ff" d="M264.03,-275.44C270.17,-272.13 276.06,-268.19 281,-263.5 306.96,-238.88 288.9,-213.65 317,-191.5 319.8,-189.29 322.77,-187.28 325.86,-185.45"/>
<polygon fill="#63b8ff" stroke="#63b8ff" points="327.63,-188.47 334.88,-180.75 324.4,-182.27 327.63,-188.47"/>
</a>
</g>
</g>
<!-- Node11 -->
<g id="Node000011" class="node">
<title>Node11</title>
<g id="a_Node000011"><a xlink:href="namespacem__riemann__solvers.html#a795bb7ed2c04ff8eed86a12927018b2c" target="_top" xlink:title="Deallocation and/or disassociation procedures that are needed to finalize the selected Riemann proble...">
<polygon fill="white" stroke="#666666" points="493,-278.5 350,-278.5 350,-248.5 493,-248.5 493,-278.5"/>
<text text-anchor="start" x="358" y="-266.5" font-family="Helvetica,sans-Serif" font-size="10.00">m_riemann_solvers::</text>
<text text-anchor="middle" x="421.5" y="-255.5" font-family="Helvetica,sans-Serif" font-size="10.00">s_finalize_riemann_solver</text>
</a>
</g>
</g>
<!-- Node2&#45;&gt;Node11 -->
<g id="edge10_Node000002_Node000011" class="edge">
<title>Node2&#45;&gt;Node11</title>
<g id="a_edge10_Node000002_Node000011"><a xlink:title=" ">
<path fill="none" stroke="#63b8ff" d="M278.1,-282.58C297.36,-280 319.08,-277.09 339.65,-274.33"/>
<polygon fill="#63b8ff" stroke="#63b8ff" points="340.2,-277.79 349.65,-272.99 339.27,-270.85 340.2,-277.79"/>
</a>
</g>
</g>
<!-- Node12 -->
<g id="Node000012" class="node">
<title>Node12</title>
<g id="a_Node000012"><a xlink:href="namespacem__riemann__solvers.html#a99ceccfbf2d02b81c21cddbe156af054" target="_top" xlink:title="The computation of parameters, the allocation of memory, the association of pointers and/or the execu...">
<polygon fill="white" stroke="#666666" points="481,-445 362,-445 362,-404 481,-404 481,-445"/>
<text text-anchor="start" x="370" y="-433" font-family="Helvetica,sans-Serif" font-size="10.00">m_riemann_solvers::</text>
<text text-anchor="start" x="370" y="-422" font-family="Helvetica,sans-Serif" font-size="10.00">s_initialize_riemann</text>
<text text-anchor="middle" x="421.5" y="-411" font-family="Helvetica,sans-Serif" font-size="10.00">_solver</text>
</a>
</g>
</g>
<!-- Node2&#45;&gt;Node12 -->
<g id="edge11_Node000002_Node000012" class="edge">
<title>Node2&#45;&gt;Node12</title>
<g id="a_edge11_Node000002_Node000012"><a xlink:title=" ">
<path fill="none" stroke="#63b8ff" d="M268.88,-305.59C273.27,-308.13 277.41,-311.08 281,-314.5 309.53,-341.67 287.2,-369.73 317,-395.5 327.01,-404.16 339.42,-410.24 352.13,-414.52"/>
<polygon fill="#63b8ff" stroke="#63b8ff" points="351.29,-417.92 361.87,-417.45 353.3,-411.21 351.29,-417.92"/>
</a>
</g>
</g>
<!-- Node13 -->
<g id="Node000013" class="node">
<title>Node13</title>
<g id="a_Node000013"><a xlink:href="namespacem__riemann__solvers.html#a44904d3bd77a85446482eacbe696bac3" target="_top" xlink:title="The purpose of this subroutine is to populate the buffers of the left and right Riemann states variab...">
<polygon fill="white" stroke="#666666" points="497,-386 346,-386 346,-345 497,-345 497,-386"/>
<text text-anchor="start" x="354" y="-374" font-family="Helvetica,sans-Serif" font-size="10.00">m_riemann_solvers::</text>
<text text-anchor="start" x="354" y="-363" font-family="Helvetica,sans-Serif" font-size="10.00">s_populate_riemann_states</text>
<text text-anchor="middle" x="421.5" y="-352" font-family="Helvetica,sans-Serif" font-size="10.00">_variables_buffers</text>
</a>
</g>
</g>
<!-- Node2&#45;&gt;Node13 -->
<g id="edge12_Node000002_Node000013" class="edge">
<title>Node2&#45;&gt;Node13</title>
<g id="a_edge12_Node000002_Node000013"><a xlink:title=" ">
<path fill="none" stroke="#63b8ff" d="M260.74,-305.61C267.59,-308.39 274.55,-311.4 281,-314.5 297.69,-322.54 299.98,-328.2 317,-335.5 323.18,-338.15 329.67,-340.65 336.25,-342.98"/>
<polygon fill="#63b8ff" stroke="#63b8ff" points="335.34,-346.37 345.94,-346.29 337.6,-339.75 335.34,-346.37"/>
</a>
</g>
</g>
<!-- Node7 -->
<g id="Node000007" class="node">
<title>Node7</title>
<g id="a_Node000007"><a xlink:href="namespacem__riemann__solvers.html#a7bdafa799b15d61a0a576114550f8a04" target="_top" xlink:title="Computes Cartesian viscous source flux contributions for momentum and energy. Calculates averaged vel...">
<polygon fill="white" stroke="#666666" points="684.5,-253 564.5,-253 564.5,-212 684.5,-212 684.5,-253"/>
<text text-anchor="start" x="572.5" y="-241" font-family="Helvetica,sans-Serif" font-size="10.00">m_riemann_solvers::</text>
<text text-anchor="start" x="572.5" y="-230" font-family="Helvetica,sans-Serif" font-size="10.00">s_compute_cartesian</text>
<text text-anchor="middle" x="624.5" y="-219" font-family="Helvetica,sans-Serif" font-size="10.00">_viscous_source_flux</text>
</a>
</g>
</g>
<!-- Node6&#45;&gt;Node7 -->
<g id="edge6_Node000006_Node000007" class="edge">
<title>Node6&#45;&gt;Node7</title>
<g id="a_edge6_Node000006_Node000007"><a xlink:title=" ">
<path fill="none" stroke="#63b8ff" d="M494.48,-182.52C505.13,-185.23 515.91,-188.23 526,-191.5 540.34,-196.14 555.5,-202.02 569.49,-207.86"/>
<polygon fill="#63b8ff" stroke="#63b8ff" points="568.39,-211.2 578.96,-211.89 571.13,-204.76 568.39,-211.2"/>
</a>
</g>
</g>
<!-- Node10 -->
<g id="Node000010" class="node">
<title>Node10</title>
<g id="a_Node000010"><a xlink:href="namespacem__riemann__solvers.html#aa75ecbe415e3a4be1603dc8d0067d291" target="_top" xlink:title="Computes cylindrical viscous source flux contributions for momentum and energy. Calculates Cartesian ...">
<polygon fill="white" stroke="#666666" points="687,-194 562,-194 562,-153 687,-153 687,-194"/>
<text text-anchor="start" x="570" y="-182" font-family="Helvetica,sans-Serif" font-size="10.00">m_riemann_solvers::</text>
<text text-anchor="start" x="570" y="-171" font-family="Helvetica,sans-Serif" font-size="10.00">s_compute_cylindrical</text>
<text text-anchor="middle" x="624.5" y="-160" font-family="Helvetica,sans-Serif" font-size="10.00">_viscous_source_flux</text>
</a>
</g>
</g>
<!-- Node6&#45;&gt;Node10 -->
<g id="edge9_Node000006_Node000010" class="edge">
<title>Node6&#45;&gt;Node10</title>
<g id="a_edge9_Node000006_Node000010"><a xlink:title=" ">
<path fill="none" stroke="#63b8ff" d="M508.03,-170.05C522.56,-170.49 537.52,-170.93 551.65,-171.36"/>
<polygon fill="#63b8ff" stroke="#63b8ff" points="551.68,-174.86 561.78,-171.66 551.89,-167.86 551.68,-174.86"/>
</a>
</g>
</g>
<!-- Node8 -->
<g id="Node000008" class="node">
<title>Node8</title>
<g id="a_Node000008"><a xlink:href="namespacem__riemann__solvers.html#a888df1dcacffdb4f223d333b381891f0" target="_top" xlink:title="Calculates bulk stress tensor components (diagonal only). tau_ii_bulk = (div_v) / Re_bulk....">
<polygon fill="white" stroke="#666666" points="860,-206 728,-206 728,-165 860,-165 860,-206"/>
<text text-anchor="start" x="736" y="-194" font-family="Helvetica,sans-Serif" font-size="10.00">m_riemann_solvers::</text>
<text text-anchor="start" x="736" y="-183" font-family="Helvetica,sans-Serif" font-size="10.00">s_calculate_bulk_stress</text>
<text text-anchor="middle" x="794" y="-172" font-family="Helvetica,sans-Serif" font-size="10.00">_tensor</text>
</a>
</g>
</g>
<!-- Node7&#45;&gt;Node8 -->
<g id="edge7_Node000007_Node000008" class="edge">
<title>Node7&#45;&gt;Node8</title>
<g id="a_edge7_Node000007_Node000008"><a xlink:title=" ">
<path fill="none" stroke="#63b8ff" d="M684.55,-215.93C695.41,-212.88 706.87,-209.67 718.12,-206.51"/>
<polygon fill="#63b8ff" stroke="#63b8ff" points="719.24,-209.83 727.92,-203.76 717.35,-203.09 719.24,-209.83"/>
</a>
</g>
</g>
<!-- Node9 -->
<g id="Node000009" class="node">
<title>Node9</title>
<g id="a_Node000009"><a xlink:href="namespacem__riemann__solvers.html#adbb342c6053c5e98214130df690694f5" target="_top" xlink:title="Calculates shear stress tensor components. tau_ij_shear = ( (dui/dxj + duj/dxi) &#45; (2/3)*(div_v)*delta...">
<polygon fill="white" stroke="#666666" points="863,-265 725,-265 725,-224 863,-224 863,-265"/>
<text text-anchor="start" x="733" y="-253" font-family="Helvetica,sans-Serif" font-size="10.00">m_riemann_solvers::</text>
<text text-anchor="start" x="733" y="-242" font-family="Helvetica,sans-Serif" font-size="10.00">s_calculate_shear_stress</text>
<text text-anchor="middle" x="794" y="-231" font-family="Helvetica,sans-Serif" font-size="10.00">_tensor</text>
</a>
</g>
</g>
<!-- Node7&#45;&gt;Node9 -->
<g id="edge8_Node000007_Node000009" class="edge">
<title>Node7&#45;&gt;Node9</title>
<g id="a_edge8_Node000007_Node000009"><a xlink:title=" ">
<path fill="none" stroke="#63b8ff" d="M684.55,-236.73C694.3,-237.43 704.54,-238.16 714.67,-238.89"/>
<polygon fill="#63b8ff" stroke="#63b8ff" points="714.52,-242.39 724.75,-239.61 715.02,-235.4 714.52,-242.39"/>
</a>
</g>
</g>
<!-- Node14&#45;&gt;Node3 -->
<g id="edge14_Node000014_Node000003" class="edge">
<title>Node14&#45;&gt;Node3</title>
<g id="a_edge14_Node000014_Node000003"><a xlink:title=" ">
<path fill="none" stroke="#63b8ff" d="M280.55,-232.17C299.86,-229.87 321.44,-227.3 341.77,-224.88"/>
<polygon fill="#63b8ff" stroke="#63b8ff" points="342.43,-228.32 351.94,-223.67 341.6,-221.37 342.43,-228.32"/>
</a>
</g>
</g>
<!-- Node14&#45;&gt;Node5 -->
<g id="edge21_Node000014_Node000005" class="edge">
<title>Node14&#45;&gt;Node5</title>
<g id="a_edge21_Node000014_Node000005"><a xlink:title=" ">
<path fill="none" stroke="#63b8ff" d="M255.72,-254.64C264.12,-258.34 272.94,-262.41 281,-266.5 297.52,-274.88 299.78,-280.66 317,-287.5 322.44,-289.66 328.11,-291.65 333.89,-293.48"/>
<polygon fill="#63b8ff" stroke="#63b8ff" points="333.09,-296.9 343.68,-296.42 335.11,-290.19 333.09,-296.9"/>
</a>
</g>
</g>
<!-- Node14&#45;&gt;Node6 -->
<g id="edge22_Node000014_Node000006" class="edge">
<title>Node14&#45;&gt;Node6</title>
<g id="a_edge22_Node000014_Node000006"><a xlink:title=" ">
<path fill="none" stroke="#63b8ff" d="M245.74,-224.34C265.04,-213.91 292.01,-200.39 317,-191.5 323.31,-189.26 329.9,-187.17 336.58,-185.24"/>
<polygon fill="#63b8ff" stroke="#63b8ff" points="337.7,-188.56 346.4,-182.51 335.83,-181.81 337.7,-188.56"/>
</a>
</g>
</g>
<!-- Node14&#45;&gt;Node11 -->
<g id="edge23_Node000014_Node000011" class="edge">
<title>Node14&#45;&gt;Node11</title>
<g id="a_edge23_Node000014_Node000011"><a xlink:title=" ">
<path fill="none" stroke="#63b8ff" d="M280.55,-246.83C299.18,-249.05 319.92,-251.52 339.62,-253.87"/>
<polygon fill="#63b8ff" stroke="#63b8ff" points="339.46,-257.37 349.8,-255.08 340.28,-250.42 339.46,-257.37"/>
</a>
</g>
</g>
<!-- Node14&#45;&gt;Node12 -->
<g id="edge24_Node000014_Node000012" class="edge">
<title>Node14&#45;&gt;Node12</title>
<g id="a_edge24_Node000014_Node000012"><a xlink:title=" ">
<path fill="none" stroke="#63b8ff" d="M266.42,-254.65C271.86,-257.9 276.92,-261.81 281,-266.5 320.07,-311.4 274.93,-353.39 317,-395.5 326.56,-405.07 339.01,-411.55 351.95,-415.92"/>
<polygon fill="#63b8ff" stroke="#63b8ff" points="351.31,-419.38 361.89,-418.86 353.3,-412.67 351.31,-419.38"/>
</a>
</g>
</g>
<!-- Node14&#45;&gt;Node13 -->
<g id="edge25_Node000014_Node000013" class="edge">
<title>Node14&#45;&gt;Node13</title>
<g id="a_edge25_Node000014_Node000013"><a xlink:title=" ">
<path fill="none" stroke="#63b8ff" d="M263.96,-254.64C270.11,-257.93 276.02,-261.86 281,-266.5 306.3,-290.09 290.24,-313.59 317,-335.5 322.82,-340.27 329.37,-344.28 336.27,-347.65"/>
<polygon fill="#63b8ff" stroke="#63b8ff" points="335.3,-351.05 345.87,-351.86 338.12,-344.64 335.3,-351.05"/>
</a>
</g>
</g>
<!-- Node15 -->
<g id="Node000015" class="node">
<title>Node15</title>
<g id="a_Node000015"><a xlink:href="namespacem__helper__basic.html#a58590a12d49b9b884256a839f2be8610" target="_top" xlink:title="This procedure checks if two floating point numbers of wp are within tolerance.">
<polygon fill="white" stroke="#666666" points="865,-127.5 723,-127.5 723,-97.5 865,-97.5 865,-127.5"/>
<text text-anchor="start" x="731" y="-115.5" font-family="Helvetica,sans-Serif" font-size="10.00">m_helper_basic::f_approx</text>
<text text-anchor="middle" x="794" y="-104.5" font-family="Helvetica,sans-Serif" font-size="10.00">_equal</text>
</a>
</g>
</g>
<!-- Node14&#45;&gt;Node15 -->
<g id="edge15_Node000014_Node000015" class="edge">
<title>Node14&#45;&gt;Node15</title>
<g id="a_edge15_Node000014_Node000015"><a xlink:title=" ">
<path fill="none" stroke="#63b8ff" d="M229.17,-224.14C244.95,-201.79 277.64,-161.08 317,-143.5 385.54,-112.89 595.69,-110.09 712.53,-111.06"/>
<polygon fill="#63b8ff" stroke="#63b8ff" points="712.82,-114.56 722.85,-111.16 712.88,-107.56 712.82,-114.56"/>
</a>
</g>
</g>
<!-- Node16 -->
<g id="Node000016" class="node">
<title>Node16</title>
<g id="a_Node000016"><a xlink:href="namespacem__bubbles.html#ac1068c3570e6fe9ee995e53786e0b9a6" target="_top" xlink:title="Function that computes the bubble wall pressure for Keller–Miksis bubbles.">
<polygon fill="white" stroke="#666666" points="487,-78 356,-78 356,-59 487,-59 487,-78"/>
<text text-anchor="middle" x="421.5" y="-66" font-family="Helvetica,sans-Serif" font-size="10.00">m_bubbles::f_cpbw_km</text>
</a>
</g>
</g>
<!-- Node14&#45;&gt;Node16 -->
<g id="edge16_Node000014_Node000016" class="edge">
<title>Node14&#45;&gt;Node16</title>
<g id="a_edge16_Node000014_Node000016"><a xlink:title=" ">
<path fill="none" stroke="#63b8ff" d="M226.95,-224.26C241.49,-197.72 274.79,-142.81 317,-110.5 333.92,-97.55 355.37,-87.98 374.36,-81.28"/>
<polygon fill="#63b8ff" stroke="#63b8ff" points="375.66,-84.53 384.02,-78.03 373.43,-77.9 375.66,-84.53"/>
</a>
</g>
</g>
<!-- Node18 -->
<g id="Node000018" class="node">
<title>Node18</title>
<g id="a_Node000018"><a xlink:href="namespacem__surface__tension.html#aacfdfb890f8ea30ba1207ddfdcd0992e" target="_top" xlink:title=" ">
<polygon fill="white" stroke="#666666" points="480,-41 363,-41 363,0 480,0 480,-41"/>
<text text-anchor="start" x="371" y="-29" font-family="Helvetica,sans-Serif" font-size="10.00">m_surface_tension::</text>
<text text-anchor="start" x="371" y="-18" font-family="Helvetica,sans-Serif" font-size="10.00">s_compute_capillary</text>
<text text-anchor="middle" x="421.5" y="-7" font-family="Helvetica,sans-Serif" font-size="10.00">_source_flux</text>
</a>
</g>
</g>
<!-- Node14&#45;&gt;Node18 -->
<g id="edge20_Node000014_Node000018" class="edge">
<title>Node14&#45;&gt;Node18</title>
<g id="a_edge20_Node000014_Node000018"><a xlink:title=" ">
<path fill="none" stroke="#63b8ff" d="M222.42,-224.3C231.33,-188.23 258.74,-96.99 317,-49.5 327.37,-41.04 340.06,-35.05 352.94,-30.8"/>
<polygon fill="#63b8ff" stroke="#63b8ff" points="354.21,-34.08 362.8,-27.88 352.22,-27.37 354.21,-34.08"/>
</a>
</g>
</g>
<!-- Node16&#45;&gt;Node16 -->
<g id="edge17_Node000016_Node000016" class="edge">
<title>Node16&#45;&gt;Node16</title>
<g id="a_edge17_Node000016_Node000016"><a xlink:title=" ">
<path fill="none" stroke="#63b8ff" d="M390.37,-78.08C375.22,-86.73 385.6,-96 421.5,-96 446.74,-96 459.37,-91.42 459.37,-85.69"/>
<polygon fill="#63b8ff" stroke="#63b8ff" points="461.89,-83.25 452.63,-78.08 456.65,-87.89 461.89,-83.25"/>
</a>
</g>
</g>
<!-- Node17 -->
<g id="Node000017" class="node">
<title>Node17</title>
<g id="a_Node000017"><a xlink:href="namespacem__helper__basic.html#a345e205ced0b0674a22f59a2c1549eb4" target="_top" xlink:title="Checks if a real(wp) variable is of default value.">
<polygon fill="white" stroke="#666666" points="682.5,-90.5 566.5,-90.5 566.5,-60.5 682.5,-60.5 682.5,-90.5"/>
<text text-anchor="start" x="574.5" y="-78.5" font-family="Helvetica,sans-Serif" font-size="10.00">m_helper_basic::f_is</text>
<text text-anchor="middle" x="624.5" y="-67.5" font-family="Helvetica,sans-Serif" font-size="10.00">_default</text>
</a>
</g>
</g>
<!-- Node16&#45;&gt;Node17 -->
<g id="edge18_Node000016_Node000017" class="edge">
<title>Node16&#45;&gt;Node17</title>
<g id="a_edge18_Node000016_Node000017"><a xlink:title=" ">
<path fill="none" stroke="#63b8ff" d="M487.2,-70.75C509.3,-71.52 534.05,-72.38 556.33,-73.16"/>
<polygon fill="#63b8ff" stroke="#63b8ff" points="556.26,-76.66 566.38,-73.51 556.5,-69.66 556.26,-76.66"/>
</a>
</g>
</g>
<!-- Node17&#45;&gt;Node15 -->
<g id="edge19_Node000017_Node000015" class="edge">
<title>Node17&#45;&gt;Node15</title>
<g id="a_edge19_Node000017_Node000015"><a xlink:title=" ">
<path fill="none" stroke="#63b8ff" d="M682.68,-88.13C693.05,-90.42 704.03,-92.85 714.89,-95.25"/>
<polygon fill="#63b8ff" stroke="#63b8ff" points="714.28,-98.7 724.8,-97.44 715.79,-91.86 714.28,-98.7"/>
</a>
</g>
</g>
<!-- Node19&#45;&gt;Node4 -->
<g id="edge27_Node000019_Node000004" class="edge">
<title>Node19&#45;&gt;Node4</title>
<g id="a_edge27_Node000019_Node000004"><a xlink:title=" ">
<path fill="none" stroke="#63b8ff" d="M236.53,-401.77C255.23,-417.29 286.33,-440.91 317,-454.5 321.73,-456.6 326.66,-458.52 331.7,-460.28"/>
<polygon fill="#63b8ff" stroke="#63b8ff" points="330.89,-463.7 341.48,-463.49 333.07,-457.05 330.89,-463.7"/>
</a>
</g>
</g>
<!-- Node19&#45;&gt;Node5 -->
<g id="edge28_Node000019_Node000005" class="edge">
<title>Node19&#45;&gt;Node5</title>
<g id="a_edge28_Node000019_Node000005"><a xlink:title=" ">
<path fill="none" stroke="#63b8ff" d="M262.34,-371.37C268.72,-368.67 275.12,-365.69 281,-362.5 298.34,-353.08 299.07,-344.75 317,-336.5 322.38,-334.02 328.03,-331.78 333.81,-329.74"/>
<polygon fill="#63b8ff" stroke="#63b8ff" points="335.21,-332.96 343.61,-326.51 333.02,-326.31 335.21,-332.96"/>
</a>
</g>
</g>
<!-- Node19&#45;&gt;Node11 -->
<g id="edge29_Node000019_Node000011" class="edge">
<title>Node19&#45;&gt;Node11</title>
<g id="a_edge29_Node000019_Node000011"><a xlink:title=" ">
<path fill="none" stroke="#63b8ff" d="M268.46,-371.48C272.99,-368.92 277.27,-365.95 281,-362.5 308.15,-337.4 288.15,-310.62 317,-287.5 323.9,-281.97 331.85,-277.67 340.21,-274.33"/>
<polygon fill="#63b8ff" stroke="#63b8ff" points="341.52,-277.58 349.79,-270.96 339.2,-270.98 341.52,-277.58"/>
</a>
</g>
</g>
<!-- Node19&#45;&gt;Node12 -->
<g id="edge30_Node000019_Node000012" class="edge">
<title>Node19&#45;&gt;Node12</title>
<g id="a_edge30_Node000019_Node000012"><a xlink:title=" ">
<path fill="none" stroke="#63b8ff" d="M281.1,-398.21C303.46,-402.43 328.82,-407.21 351.72,-411.53"/>
<polygon fill="#63b8ff" stroke="#63b8ff" points="351.23,-415 361.7,-413.41 352.53,-408.12 351.23,-415"/>
</a>
</g>
</g>
<!-- Node19&#45;&gt;Node13 -->
<g id="edge31_Node000019_Node000013" class="edge">
<title>Node19&#45;&gt;Node13</title>
<g id="a_edge31_Node000019_Node000013"><a xlink:title=" ">
<path fill="none" stroke="#63b8ff" d="M281.1,-380.03C298.37,-378.23 317.43,-376.24 335.76,-374.33"/>
<polygon fill="#63b8ff" stroke="#63b8ff" points="336.26,-377.8 345.85,-373.28 335.54,-370.84 336.26,-377.8"/>
</a>
</g>
</g>
<!-- Node20&#45;&gt;Node4 -->
<g id="edge33_Node000020_Node000004" class="edge">
<title>Node20&#45;&gt;Node4</title>
<g id="a_edge33_Node000020_Node000004"><a xlink:title=" ">
<path fill="none" stroke="#63b8ff" d="M269.34,-353.6C273.59,-356.13 277.57,-359.08 281,-362.5 312.1,-393.49 283.78,-425.79 317,-454.5 318.34,-455.66 319.73,-456.77 321.16,-457.83"/>
<polygon fill="#63b8ff" stroke="#63b8ff" points="319.44,-460.88 329.74,-463.34 323.22,-454.99 319.44,-460.88"/>
</a>
</g>
</g>
<!-- Node20&#45;&gt;Node5 -->
<g id="edge34_Node000020_Node000005" class="edge">
<title>Node20&#45;&gt;Node5</title>
<g id="a_edge34_Node000020_Node000005"><a xlink:title=" ">
<path fill="none" stroke="#63b8ff" d="M277.55,-330.65C294.32,-328.41 312.99,-325.91 331.15,-323.47"/>
<polygon fill="#63b8ff" stroke="#63b8ff" points="331.73,-326.93 341.18,-322.13 330.8,-319.99 331.73,-326.93"/>
</a>
</g>
</g>
<!-- Node20&#45;&gt;Node11 -->
<g id="edge35_Node000020_Node000011" class="edge">
<title>Node20&#45;&gt;Node11</title>
<g id="a_edge35_Node000020_Node000011"><a xlink:title=" ">
<path fill="none" stroke="#63b8ff" d="M262.39,-323.46C268.76,-320.75 275.15,-317.75 281,-314.5 298.49,-304.8 298.87,-295.94 317,-287.5 324.31,-284.1 332.14,-281.16 340.11,-278.62"/>
<polygon fill="#63b8ff" stroke="#63b8ff" points="341.27,-281.92 349.86,-275.72 339.28,-275.21 341.27,-281.92"/>
</a>
</g>
</g>
<!-- Node20&#45;&gt;Node12 -->
<g id="edge36_Node000020_Node000012" class="edge">
<title>Node20&#45;&gt;Node12</title>
<g id="a_edge36_Node000020_Node000012"><a xlink:title=" ">
<path fill="none" stroke="#63b8ff" d="M264,-353.61C269.88,-356.24 275.7,-359.21 281,-362.5 299.44,-373.95 298.03,-384.95 317,-395.5 327.87,-401.55 340.1,-406.41 352.25,-410.3"/>
<polygon fill="#63b8ff" stroke="#63b8ff" points="351.35,-413.69 361.94,-413.21 353.37,-406.98 351.35,-413.69"/>
</a>
</g>
</g>
<!-- Node20&#45;&gt;Node13 -->
<g id="edge37_Node000020_Node000013" class="edge">
<title>Node20&#45;&gt;Node13</title>
<g id="a_edge37_Node000020_Node000013"><a xlink:title=" ">
<path fill="none" stroke="#63b8ff" d="M277.55,-346.35C295.76,-348.79 316.21,-351.53 335.83,-354.15"/>
<polygon fill="#63b8ff" stroke="#63b8ff" points="335.62,-357.66 345.99,-355.52 336.55,-350.72 335.62,-357.66"/>
</a>
</g>
</g>
</g>
</svg>

<g id="navigator" transform="translate(0 0)" fill="#404254">
  <rect fill="#f2f5e9" fill-opacity="0.5" stroke="#606060" stroke-width=".5" x="0" y="0" width="60" height="60"/>
  <use id="zoomplus" xlink:href="#zoomPlus" x="17" y="9" onmousedown="handleZoom(evt,'in')"/>
  <use id="zoomminus" xlink:href="#zoomMin" x="42" y="9" onmousedown="handleZoom(evt,'out')"/>
  <use id="reset" xlink:href="#resetDef" x="30" y="36" onmousedown="handleReset()"/>
   <use id="arrowup" xlink:href="#arrowUp" x="0" y="0" onmousedown="handlePan(0,-1)"/>
  <use id="arrowright" xlink:href="#arrowRight" x="0" y="0" onmousedown="handlePan(1,0)"/>
  <use id="arrowdown" xlink:href="#arrowDown" x="0" y="0" onmousedown="handlePan(0,1)"/>
  <use id="arrowleft" xlink:href="#arrowLeft" x="0" y="0" onmousedown="handlePan(-1,0)"/>
</g>
<svg viewBox="0 0 15 15" width="100%" height="30px" preserveAspectRatio="xMaxYMin meet">
 <g id="arrow_out" transform="scale(0.3 0.3)">
  <a xlink:href="namespacem__riemann__solvers_aff6e3d5abdabe6ce6fccbb7a081766e6_cgraph_org.svg" target="_base">
   <rect id="button" ry="5" rx="5" y="6" x="6" height="38" width="38"
        fill="#f2f5e9" fill-opacity="0.5" stroke="#606060" stroke-width="1.0"/>
   <path id="arrow"
     d="M 11.500037,31.436501 C 11.940474,20.09759 22.043105,11.32322 32.158766,21.979434 L 37.068811,17.246167 C 37.068811,17.246167 37.088388,32 37.088388,32 L 22.160133,31.978069 C 22.160133,31.978069 26.997745,27.140456 26.997745,27.140456 C 18.528582,18.264221 13.291696,25.230495 11.500037,31.436501 z"
     style="fill:#404040;"/>
  </a>
 </g>
</svg>

<style type='text/css'>
<![CDATA[
[data-mouse-over-selected='false'] { opacity: 0.7; }
[data-mouse-over-selected='true']  { opacity: 1.0; }
]]>
</style>
<script type="application/ecmascript"><![CDATA[
document.addEventListener('DOMContentLoaded', (event) => {
  highlightEdges();
  highlightAdjacentNodes();
});
]]></script>
</svg>
