<?xml version="1.0" encoding="UTF-8" standalone="no"?>
<!DOCTYPE svg PUBLIC "-//W3C//DTD SVG 1.1//EN"
 "http://www.w3.org/Graphics/SVG/1.1/DTD/svg11.dtd">
<!-- Generated by graphviz version 2.43.0 (0)
 -->
<!-- Title: m_compute_cbc::s_compute_nonreflecting_subsonic_buffer_l Pages: 1 -->
<svg width="324pt" height="182pt"
 viewBox="0.00 0.00 324.00 182.00" xmlns="http://www.w3.org/2000/svg" xmlns:xlink="http://www.w3.org/1999/xlink">

<svg id="main" version="1.1" xmlns="http://www.w3.org/2000/svg" xmlns:xlink="http://www.w3.org/1999/xlink" xml:space="preserve">

<style type="text/css"><![CDATA[
.node, .edge {opacity: 0.7;}
.node.selected, .edge.selected {opacity: 1;}
.edge:hover path { stroke: red; }
.edge:hover polygon { stroke: red; fill: red; }
]]></style>
<script type="application/ecmascript" xlink:href="svg.min.js"/>
<svg id="graph" class="graph">
<g id="graph0" class="graph" transform="scale(1 1) rotate(0) translate(4 178)">
<title>m_compute_cbc::s_compute_nonreflecting_subsonic_buffer_l</title>
<!-- Node1 -->
<g id="Node000001" class="node">
<title>Node1</title>
<g id="a_Node000001"><a xlink:title="Nonreflecting subsonic buffer CBC (Thompson 1987, pg. 13)">
<polygon fill="#999999" stroke="#666666" points="155,-107.5 0,-107.5 0,-66.5 155,-66.5 155,-107.5"/>
<text text-anchor="start" x="8" y="-95.5" font-family="Helvetica,sans-Serif" font-size="10.00">m_compute_cbc::s_compute</text>
<text text-anchor="start" x="8" y="-84.5" font-family="Helvetica,sans-Serif" font-size="10.00">_nonreflecting_subsonic</text>
<text text-anchor="middle" x="77.5" y="-73.5" font-family="Helvetica,sans-Serif" font-size="10.00">_buffer_l</text>
</a>
</g>
</g>
<!-- Node2 -->
<g id="Node000002" class="node">
<title>Node2</title>
<g id="a_Node000002"><a xlink:href="namespacem__compute__cbc.html#a74880092326e75470a2d9c280b7a04ac" target="_top" xlink:title="Fill advection L variables.">
<polygon fill="white" stroke="#666666" points="316,-174 191,-174 191,-144 316,-144 316,-174"/>
<text text-anchor="start" x="199" y="-162" font-family="Helvetica,sans-Serif" font-size="10.00">m_compute_cbc::s_fill</text>
<text text-anchor="middle" x="253.5" y="-151" font-family="Helvetica,sans-Serif" font-size="10.00">_advection_l</text>
</a>
</g>
</g>
<!-- Node1&#45;&gt;Node2 -->
<g id="edge1_Node000001_Node000002" class="edge">
<title>Node1&#45;&gt;Node2</title>
<g id="a_edge1_Node000001_Node000002"><a xlink:title=" ">
<path fill="none" stroke="#63b8ff" d="M125.71,-107.53C145.78,-116.16 169.47,-126.21 191,-135 195.17,-136.7 199.51,-138.45 203.87,-140.19"/>
<polygon fill="#63b8ff" stroke="#63b8ff" points="202.8,-143.53 213.39,-143.95 205.37,-137.02 202.8,-143.53"/>
</a>
</g>
</g>
<!-- Node3 -->
<g id="Node000003" class="node">
<title>Node3</title>
<g id="a_Node000003"><a xlink:href="namespacem__compute__cbc.html#a3a8fd829927ab2218f570d97cbb7087b" target="_top" xlink:title="Fill chemistry L variables.">
<polygon fill="white" stroke="#666666" points="316,-126 191,-126 191,-96 316,-96 316,-126"/>
<text text-anchor="start" x="199" y="-114" font-family="Helvetica,sans-Serif" font-size="10.00">m_compute_cbc::s_fill</text>
<text text-anchor="middle" x="253.5" y="-103" font-family="Helvetica,sans-Serif" font-size="10.00">_chemistry_l</text>
</a>
</g>
</g>
<!-- Node1&#45;&gt;Node3 -->
<g id="edge2_Node000001_Node000003" class="edge">
<title>Node1&#45;&gt;Node3</title>
<g id="a_edge2_Node000001_Node000003"><a xlink:title=" ">
<path fill="none" stroke="#63b8ff" d="M155.07,-97.56C163.56,-98.73 172.19,-99.92 180.62,-101.09"/>
<polygon fill="#63b8ff" stroke="#63b8ff" points="180.4,-104.59 190.78,-102.49 181.36,-97.65 180.4,-104.59"/>
</a>
</g>
</g>
<!-- Node4 -->
<g id="Node000004" class="node">
<title>Node4</title>
<g id="a_Node000004"><a xlink:href="namespacem__compute__cbc.html#addf675a0a09c1ee2cb72c190fa2c55f4" target="_top" xlink:title="Fill density L variables.">
<polygon fill="white" stroke="#666666" points="316,-78 191,-78 191,-48 316,-48 316,-78"/>
<text text-anchor="start" x="199" y="-66" font-family="Helvetica,sans-Serif" font-size="10.00">m_compute_cbc::s_fill</text>
<text text-anchor="middle" x="253.5" y="-55" font-family="Helvetica,sans-Serif" font-size="10.00">_density_l</text>
</a>
</g>
</g>
<!-- Node1&#45;&gt;Node4 -->
<g id="edge3_Node000001_Node000004" class="edge">
<title>Node1&#45;&gt;Node4</title>
<g id="a_edge3_Node000001_Node000004"><a xlink:title=" ">
<path fill="none" stroke="#63b8ff" d="M155.07,-76.44C163.56,-75.27 172.19,-74.08 180.62,-72.91"/>
<polygon fill="#63b8ff" stroke="#63b8ff" points="181.36,-76.35 190.78,-71.51 180.4,-69.41 181.36,-76.35"/>
</a>
</g>
</g>
<!-- Node5 -->
<g id="Node000005" class="node">
<title>Node5</title>
<g id="a_Node000005"><a xlink:href="namespacem__compute__cbc.html#a8b8ae8cdb983562cf41f680526885fde" target="_top" xlink:title="Fill velocity L variables.">
<polygon fill="white" stroke="#666666" points="316,-30 191,-30 191,0 316,0 316,-30"/>
<text text-anchor="start" x="199" y="-18" font-family="Helvetica,sans-Serif" font-size="10.00">m_compute_cbc::s_fill</text>
<text text-anchor="middle" x="253.5" y="-7" font-family="Helvetica,sans-Serif" font-size="10.00">_velocity_l</text>
</a>
</g>
</g>
<!-- Node1&#45;&gt;Node5 -->
<g id="edge4_Node000001_Node000005" class="edge">
<title>Node1&#45;&gt;Node5</title>
<g id="a_edge4_Node000001_Node000005"><a xlink:title=" ">
<path fill="none" stroke="#63b8ff" d="M125.71,-66.47C145.78,-57.84 169.47,-47.79 191,-39 195.17,-37.3 199.51,-35.55 203.87,-33.81"/>
<polygon fill="#63b8ff" stroke="#63b8ff" points="205.37,-36.98 213.39,-30.05 202.8,-30.47 205.37,-36.98"/>
</a>
</g>
</g>
</g>
</svg>
</svg>

<style type='text/css'>
<![CDATA[
[data-mouse-over-selected='false'] { opacity: 0.7; }
[data-mouse-over-selected='true']  { opacity: 1.0; }
]]>
</style>
<script type="application/ecmascript"><![CDATA[
document.addEventListener('DOMContentLoaded', (event) => {
  highlightEdges();
  highlightAdjacentNodes();
});
]]></script>
</svg>
