<?xml version="1.0" encoding="UTF-8" standalone="no"?>
<!DOCTYPE svg PUBLIC "-//W3C//DTD SVG 1.1//EN"
 "http://www.w3.org/Graphics/SVG/1.1/DTD/svg11.dtd">
<!-- Generated by graphviz version 2.43.0 (0)
 -->
<!-- Title: m_ib_patches::s_ib_model Pages: 1 -->
<!--zoomable 642 -->

<svg id="main" version="1.1" xmlns="http://www.w3.org/2000/svg" xmlns:xlink="http://www.w3.org/1999/xlink" xml:space="preserve" onload="init(evt)">

<style type="text/css"><![CDATA[
.node, .edge {opacity: 0.7;}
.node.selected, .edge.selected {opacity: 1;}
.edge:hover path { stroke: red; }
.edge:hover polygon { stroke: red; fill: red; }
]]></style>

<defs>
  <circle id="rim" cx="0" cy="0" r="7"/>
  <circle id="rim2" cx="0" cy="0" r="3.5"/>
  <g id="zoomPlus">
    <use xlink:href="#rim" fill="#404040"><set attributeName="fill" to="#808080" begin="zoomplus.mouseover" end="zoomplus.mouseout"/></use>
    <path d="M-4,0h8M0,-4v8" fill="none" stroke="white" stroke-width="1.5" pointer-events="none"/>
  </g>
  <g id="zoomMin">
    <use xlink:href="#rim" fill="#404040"><set attributeName="fill" to="#808080" begin="zoomminus.mouseover" end="zoomminus.mouseout"/></use>
    <path d="M-4,0h8" fill="none" stroke="white" stroke-width="1.5" pointer-events="none"/>
  </g>
  <g id="arrowUp" transform="translate(30 24)">
    <use xlink:href="#rim"/>
    <path pointer-events="none" fill="none" stroke="white" stroke-width="1.5" d="M0,-3.0v7 M-2.5,-0.5L0,-3.0L2.5,-0.5"/>
  </g>
  <g id="arrowRight" transform="rotate(90) translate(36 -43)">
    <use xlink:href="#rim"/>
    <path pointer-events="none" fill="none" stroke="white" stroke-width="1.5" d="M0,-3.0v7 M-2.5,-0.5L0,-3.0L2.5,-0.5"/>
  </g>
  <g id="arrowDown" transform="rotate(180) translate(-30 -48)">
    <use xlink:href="#rim"/>
    <path pointer-events="none" fill="none" stroke="white" stroke-width="1.5" d="M0,-3.0v7 M-2.5,-0.5L0,-3.0L2.5,-0.5"/>
  </g>
  <g id="arrowLeft" transform="rotate(270) translate(-36 17)">
    <use xlink:href="#rim"/>
    <path pointer-events="none" fill="none" stroke="white" stroke-width="1.5" d="M0,-3.0v7 M-2.5,-0.5L0,-3.0L2.5,-0.5"/>
  </g>
  <g id="resetDef">
    <use xlink:href="#rim2" fill="#404040"><set attributeName="fill" to="#808080" begin="reset.mouseover" end="reset.mouseout"/></use>
  </g>
</defs>
<script type="application/ecmascript">
var viewWidth = 1045;
var viewHeight = 642;
var sectionId = 'dynsection-14';
</script>
<script type="application/ecmascript" xlink:href="svg.min.js"/>
<svg id="graph" class="graph">
<g id="viewport">
<title>m_ib_patches::s_ib_model</title>
<!-- Node1 -->
<g id="Node000001" class="node">
<title>Node1</title>
<g id="a_Node000001"><a xlink:title="The STL patch is a 2/3D geometry that is imported from an STL file.">
<polygon fill="#999999" stroke="#666666" points="110,-350.5 0,-350.5 0,-320.5 110,-320.5 110,-350.5"/>
<text text-anchor="start" x="8" y="-338.5" font-family="Helvetica,sans-Serif" font-size="10.00">m_ib_patches::s_ib</text>
<text text-anchor="middle" x="55" y="-327.5" font-family="Helvetica,sans-Serif" font-size="10.00">_model</text>
</a>
</g>
</g>
<!-- Node2 -->
<g id="Node000002" class="node">
<title>Node2</title>
<g id="a_Node000002"><a xlink:href="namespacem__model.html#ad647caaece8eaed017fde2e9bc6adcfc" target="_top" xlink:title="This procedure checks and labels edges shared by two or more triangles facets of the 2D STL model.">
<polygon fill="white" stroke="#666666" points="320,-634 163,-634 163,-615 320,-615 320,-634"/>
<text text-anchor="middle" x="241.5" y="-622" font-family="Helvetica,sans-Serif" font-size="10.00">m_model::f_check_boundary</text>
</a>
</g>
</g>
<!-- Node1&#45;&gt;Node2 -->
<g id="edge1_Node000001_Node000002" class="edge">
<title>Node1&#45;&gt;Node2</title>
<g id="a_edge1_Node000001_Node000002"><a xlink:title=" ">
<path fill="none" stroke="#63b8ff" d="M56.05,-350.63C57.1,-396.85 66.93,-537.26 146,-606.5 148.51,-608.7 151.21,-610.67 154.05,-612.42"/>
<polygon fill="#63b8ff" stroke="#63b8ff" points="152.45,-615.54 162.93,-617.08 155.7,-609.34 152.45,-615.54"/>
</a>
</g>
</g>
<!-- Node4 -->
<g id="Node000004" class="node">
<title>Node4</title>
<g id="a_Node000004"><a xlink:href="namespacem__model.html#a3ee8af8a4cc27c0eaa153acf3dafaed7" target="_top" xlink:title="This procedure check if interpolates is needed for 2D models.">
<polygon fill="white" stroke="#666666" points="337,-597 146,-597 146,-578 337,-578 337,-597"/>
<text text-anchor="middle" x="241.5" y="-585" font-family="Helvetica,sans-Serif" font-size="10.00">m_model::f_check_interpolation_2d</text>
</a>
</g>
</g>
<!-- Node1&#45;&gt;Node4 -->
<g id="edge3_Node000001_Node000004" class="edge">
<title>Node1&#45;&gt;Node4</title>
<g id="a_edge3_Node000001_Node000004"><a xlink:title=" ">
<path fill="none" stroke="#63b8ff" d="M56.95,-350.67C60.45,-392.69 76.35,-511.32 146,-569.5 147.37,-570.64 148.78,-571.72 150.24,-572.73"/>
<polygon fill="#63b8ff" stroke="#63b8ff" points="148.64,-575.85 159.03,-577.92 152.2,-569.82 148.64,-575.85"/>
</a>
</g>
</g>
<!-- Node5 -->
<g id="Node000005" class="node">
<title>Node5</title>
<g id="a_Node000005"><a xlink:href="namespacem__model.html#a04230917e3fc348c345172971beae832" target="_top" xlink:title="This procedure check if interpolates is needed for 3D models.">
<polygon fill="white" stroke="#666666" points="337,-560 146,-560 146,-541 337,-541 337,-560"/>
<text text-anchor="middle" x="241.5" y="-548" font-family="Helvetica,sans-Serif" font-size="10.00">m_model::f_check_interpolation_3d</text>
</a>
</g>
</g>
<!-- Node1&#45;&gt;Node5 -->
<g id="edge4_Node000001_Node000005" class="edge">
<title>Node1&#45;&gt;Node5</title>
<g id="a_edge4_Node000001_Node000005"><a xlink:title=" ">
<path fill="none" stroke="#63b8ff" d="M58.22,-350.61C64.51,-387.78 86.1,-484.1 146,-531.5 148.07,-533.14 150.24,-534.64 152.49,-536.03"/>
<polygon fill="#63b8ff" stroke="#63b8ff" points="151.07,-539.24 161.55,-540.8 154.33,-533.04 151.07,-539.24"/>
</a>
</g>
</g>
<!-- Node6 -->
<g id="Node000006" class="node">
<title>Node6</title>
<g id="a_Node000006"><a xlink:href="namespacem__ib__patches.html#ab89adde3ab3aaea942078016afce5f63" target="_top" xlink:title=" ">
<polygon fill="white" stroke="#666666" points="309.5,-522.5 173.5,-522.5 173.5,-492.5 309.5,-492.5 309.5,-522.5"/>
<text text-anchor="start" x="181.5" y="-510.5" font-family="Helvetica,sans-Serif" font-size="10.00">m_ib_patches::f_convert</text>
<text text-anchor="middle" x="241.5" y="-499.5" font-family="Helvetica,sans-Serif" font-size="10.00">_cyl_to_cart</text>
</a>
</g>
</g>
<!-- Node1&#45;&gt;Node6 -->
<g id="edge5_Node000001_Node000006" class="edge">
<title>Node1&#45;&gt;Node6</title>
<g id="a_edge5_Node000001_Node000006"><a xlink:title=" ">
<path fill="none" stroke="#63b8ff" d="M60.86,-350.77C71.31,-381.02 98.84,-448.64 146,-483.5 151.4,-487.49 157.39,-490.82 163.66,-493.6"/>
<polygon fill="#63b8ff" stroke="#63b8ff" points="162.43,-496.87 173.01,-497.28 164.99,-490.36 162.43,-496.87"/>
</a>
</g>
</g>
<!-- Node7 -->
<g id="Node000007" class="node">
<title>Node7</title>
<g id="a_Node000007"><a xlink:href="namespacem__helper.html#a3f23c479c463484544197a2681b2eb20" target="_top" xlink:title="This procedure creates a bounding box for a model.">
<polygon fill="white" stroke="#666666" points="310,-474 173,-474 173,-455 310,-455 310,-474"/>
<text text-anchor="middle" x="241.5" y="-462" font-family="Helvetica,sans-Serif" font-size="10.00">m_helper::f_create_bbox</text>
</a>
</g>
</g>
<!-- Node1&#45;&gt;Node7 -->
<g id="edge6_Node000001_Node000007" class="edge">
<title>Node1&#45;&gt;Node7</title>
<g id="a_edge6_Node000001_Node000007"><a xlink:title=" ">
<path fill="none" stroke="#63b8ff" d="M63.9,-350.76C77.3,-375 106.89,-421.96 146,-445.5 151.36,-448.73 157.18,-451.42 163.19,-453.66"/>
<polygon fill="#63b8ff" stroke="#63b8ff" points="162.19,-457.01 172.78,-456.82 164.38,-450.37 162.19,-457.01"/>
</a>
</g>
</g>
<!-- Node8 -->
<g id="Node000008" class="node">
<title>Node8</title>
<g id="a_Node000008"><a xlink:href="namespacem__helper.html#a219901621a5e432a918bbe476e746f0a" target="_top" xlink:title="This procedure creates a transformation matrix.">
<polygon fill="white" stroke="#666666" points="295.5,-436.5 187.5,-436.5 187.5,-406.5 295.5,-406.5 295.5,-436.5"/>
<text text-anchor="start" x="195.5" y="-424.5" font-family="Helvetica,sans-Serif" font-size="10.00">m_helper::f_create</text>
<text text-anchor="middle" x="241.5" y="-413.5" font-family="Helvetica,sans-Serif" font-size="10.00">_transform_matrix</text>
</a>
</g>
</g>
<!-- Node1&#45;&gt;Node8 -->
<g id="edge7_Node000001_Node000008" class="edge">
<title>Node1&#45;&gt;Node8</title>
<g id="a_edge7_Node000001_Node000008"><a xlink:title=" ">
<path fill="none" stroke="#63b8ff" d="M73.8,-350.62C91.17,-364.66 118.87,-385.19 146,-397.5 155.91,-402 166.81,-405.75 177.57,-408.85"/>
<polygon fill="#63b8ff" stroke="#63b8ff" points="176.81,-412.27 187.38,-411.51 178.65,-405.51 176.81,-412.27"/>
</a>
</g>
</g>
<!-- Node9 -->
<g id="Node000009" class="node">
<title>Node9</title>
<g id="a_Node000009"><a xlink:href="namespacem__model.html#a10949dff76cc66cec8dbc788770fe0b6" target="_top" xlink:title="This procedure determines the levelset distance of 2D models without interpolation.">
<polygon fill="white" stroke="#666666" points="301,-388 182,-388 182,-369 301,-369 301,-388"/>
<text text-anchor="middle" x="241.5" y="-376" font-family="Helvetica,sans-Serif" font-size="10.00">m_model::f_distance</text>
</a>
</g>
</g>
<!-- Node1&#45;&gt;Node9 -->
<g id="edge8_Node000001_Node000009" class="edge">
<title>Node1&#45;&gt;Node9</title>
<g id="a_edge8_Node000001_Node000009"><a xlink:title=" ">
<path fill="none" stroke="#63b8ff" d="M110.12,-350.52C121.91,-353.62 134.35,-356.78 146,-359.5 156.97,-362.06 168.7,-364.59 180.03,-366.92"/>
<polygon fill="#63b8ff" stroke="#63b8ff" points="179.36,-370.36 189.86,-368.92 180.76,-363.5 179.36,-370.36"/>
</a>
</g>
</g>
<!-- Node10 -->
<g id="Node000010" class="node">
<title>Node10</title>
<g id="a_Node000010"><a xlink:href="namespacem__model.html#a9fc09921d609e0e2cb7f0ee3837b382a" target="_top" xlink:title="This procedure determines the levelset distance and normals of the 3D models without interpolation.">
<polygon fill="white" stroke="#666666" points="301,-350.5 182,-350.5 182,-320.5 301,-320.5 301,-350.5"/>
<text text-anchor="start" x="190" y="-338.5" font-family="Helvetica,sans-Serif" font-size="10.00">m_model::f_distance</text>
<text text-anchor="middle" x="241.5" y="-327.5" font-family="Helvetica,sans-Serif" font-size="10.00">_normals_3d</text>
</a>
</g>
</g>
<!-- Node1&#45;&gt;Node10 -->
<g id="edge9_Node000001_Node000010" class="edge">
<title>Node1&#45;&gt;Node10</title>
<g id="a_edge9_Node000001_Node000010"><a xlink:title=" ">
<path fill="none" stroke="#63b8ff" d="M110.36,-335.5C129.54,-335.5 151.38,-335.5 171.61,-335.5"/>
<polygon fill="#63b8ff" stroke="#63b8ff" points="171.7,-339 181.7,-335.5 171.7,-332 171.7,-339"/>
</a>
</g>
</g>
<!-- Node11 -->
<g id="Node000011" class="node">
<title>Node11</title>
<g id="a_Node000011"><a xlink:href="namespacem__model.html#a8fbe3de821df8f6f44a14085b6d92825" target="_top" xlink:title="This procedure interpolates 2D models.">
<polygon fill="white" stroke="#666666" points="315.5,-302 167.5,-302 167.5,-283 315.5,-283 315.5,-302"/>
<text text-anchor="middle" x="241.5" y="-290" font-family="Helvetica,sans-Serif" font-size="10.00">m_model::f_interpolate_2d</text>
</a>
</g>
</g>
<!-- Node1&#45;&gt;Node11 -->
<g id="edge10_Node000001_Node000011" class="edge">
<title>Node1&#45;&gt;Node11</title>
<g id="a_edge10_Node000001_Node000011"><a xlink:title=" ">
<path fill="none" stroke="#63b8ff" d="M110.12,-320.48C121.91,-317.38 134.35,-314.22 146,-311.5 156.97,-308.94 168.7,-306.41 180.03,-304.08"/>
<polygon fill="#63b8ff" stroke="#63b8ff" points="180.76,-307.5 189.86,-302.08 179.36,-300.64 180.76,-307.5"/>
</a>
</g>
</g>
<!-- Node12 -->
<g id="Node000012" class="node">
<title>Node12</title>
<g id="a_Node000012"><a xlink:href="namespacem__model.html#ab11a7e2d8c7fb90dbf65f09daac84ebe" target="_top" xlink:title="This procedure interpolates 3D models.">
<polygon fill="white" stroke="#666666" points="315.5,-265 167.5,-265 167.5,-246 315.5,-246 315.5,-265"/>
<text text-anchor="middle" x="241.5" y="-253" font-family="Helvetica,sans-Serif" font-size="10.00">m_model::f_interpolate_3d</text>
</a>
</g>
</g>
<!-- Node1&#45;&gt;Node12 -->
<g id="edge11_Node000001_Node000012" class="edge">
<title>Node1&#45;&gt;Node12</title>
<g id="a_edge11_Node000001_Node000012"><a xlink:title=" ">
<path fill="none" stroke="#63b8ff" d="M73.71,-320.33C91.01,-306.31 118.67,-285.96 146,-274.5 152.22,-271.89 158.83,-269.63 165.54,-267.68"/>
<polygon fill="#63b8ff" stroke="#63b8ff" points="166.67,-271 175.42,-265.03 164.86,-264.24 166.67,-271"/>
</a>
</g>
</g>
<!-- Node14 -->
<g id="Node000014" class="node">
<title>Node14</title>
<g id="a_Node000014"><a xlink:href="namespacem__model.html#a2e12d4ef6eaf54b89389997b9669d061" target="_top" xlink:title="This procedure determines the levelset of interpolated 2D models.">
<polygon fill="white" stroke="#666666" points="310,-227.5 173,-227.5 173,-197.5 310,-197.5 310,-227.5"/>
<text text-anchor="start" x="181" y="-215.5" font-family="Helvetica,sans-Serif" font-size="10.00">m_model::f_interpolated</text>
<text text-anchor="middle" x="241.5" y="-204.5" font-family="Helvetica,sans-Serif" font-size="10.00">_distance</text>
</a>
</g>
</g>
<!-- Node1&#45;&gt;Node14 -->
<g id="edge13_Node000001_Node000014" class="edge">
<title>Node1&#45;&gt;Node14</title>
<g id="a_edge13_Node000001_Node000014"><a xlink:title=" ">
<path fill="none" stroke="#63b8ff" d="M65.68,-320.4C80.37,-298.71 110.41,-258.99 146,-237.5 151.43,-234.22 157.3,-231.36 163.35,-228.88"/>
<polygon fill="#63b8ff" stroke="#63b8ff" points="164.84,-232.05 172.98,-225.27 162.39,-225.5 164.84,-232.05"/>
</a>
</g>
</g>
<!-- Node15 -->
<g id="Node000015" class="node">
<title>Node15</title>
<g id="a_Node000015"><a xlink:href="namespacem__model.html#a40b54b3f9a65775ea1062c541dea09e3" target="_top" xlink:title="This procedure, recursively, finds whether a point is inside an octree.">
<polygon fill="white" stroke="#666666" points="302.5,-179.5 180.5,-179.5 180.5,-149.5 302.5,-149.5 302.5,-179.5"/>
<text text-anchor="start" x="188.5" y="-167.5" font-family="Helvetica,sans-Serif" font-size="10.00">m_model::f_model_is</text>
<text text-anchor="middle" x="241.5" y="-156.5" font-family="Helvetica,sans-Serif" font-size="10.00">_inside</text>
</a>
</g>
</g>
<!-- Node1&#45;&gt;Node15 -->
<g id="edge14_Node000001_Node000015" class="edge">
<title>Node1&#45;&gt;Node15</title>
<g id="a_edge14_Node000001_Node000015"><a xlink:title=" ">
<path fill="none" stroke="#63b8ff" d="M60.89,-320.33C71.39,-290.29 99.02,-223.12 146,-188.5 153.41,-183.04 161.93,-178.82 170.75,-175.56"/>
<polygon fill="#63b8ff" stroke="#63b8ff" points="172.01,-178.83 180.41,-172.38 169.82,-172.18 172.01,-178.83"/>
</a>
</g>
</g>
<!-- Node18 -->
<g id="Node000018" class="node">
<title>Node18</title>
<g id="a_Node000018"><a xlink:href="namespacem__model.html#a8df07f3e9d228d00fef27cae7484d81e" target="_top" xlink:title="This procedure reads a mesh from a file.">
<polygon fill="white" stroke="#666666" points="309,-131 174,-131 174,-112 309,-112 309,-131"/>
<text text-anchor="middle" x="241.5" y="-119" font-family="Helvetica,sans-Serif" font-size="10.00">m_model::f_model_read</text>
</a>
</g>
</g>
<!-- Node1&#45;&gt;Node18 -->
<g id="edge17_Node000001_Node000018" class="edge">
<title>Node1&#45;&gt;Node18</title>
<g id="a_edge17_Node000001_Node000018"><a xlink:title=" ">
<path fill="none" stroke="#63b8ff" d="M58.24,-320.47C64.6,-283.48 86.3,-187.64 146,-140.5 151.47,-136.18 157.66,-132.76 164.2,-130.07"/>
<polygon fill="#63b8ff" stroke="#63b8ff" points="165.71,-133.25 173.97,-126.62 163.38,-126.65 165.71,-133.25"/>
</a>
</g>
</g>
<!-- Node25 -->
<g id="Node000025" class="node">
<title>Node25</title>
<g id="a_Node000025"><a xlink:href="namespacem__model.html#a606330229ba698acbcaf4c8affadf9ac" target="_top" xlink:title="This procedure determines the levelset normals of 2D models without interpolation.">
<polygon fill="white" stroke="#666666" points="300,-94 183,-94 183,-75 300,-75 300,-94"/>
<text text-anchor="middle" x="241.5" y="-82" font-family="Helvetica,sans-Serif" font-size="10.00">m_model::f_normals</text>
</a>
</g>
</g>
<!-- Node1&#45;&gt;Node25 -->
<g id="edge26_Node000001_Node000025" class="edge">
<title>Node1&#45;&gt;Node25</title>
<g id="a_edge26_Node000001_Node000025"><a xlink:title=" ">
<path fill="none" stroke="#63b8ff" d="M57.03,-320.49C60.72,-278.92 77.08,-161.5 146,-103.5 153.78,-96.95 163.19,-92.44 173.01,-89.37"/>
<polygon fill="#63b8ff" stroke="#63b8ff" points="174.16,-92.69 182.93,-86.76 172.37,-85.92 174.16,-92.69"/>
</a>
</g>
</g>
<!-- Node26 -->
<g id="Node000026" class="node">
<title>Node26</title>
<g id="a_Node000026"><a xlink:href="namespacem__helper.html#a7a16907fa17bb126b2d32fe425f184db" target="_top" xlink:title="This procedure transforms a model by a matrix, one triangle at a time.">
<polygon fill="white" stroke="#666666" points="305,-53.5 178,-53.5 178,-23.5 305,-23.5 305,-53.5"/>
<text text-anchor="start" x="186" y="-41.5" font-family="Helvetica,sans-Serif" font-size="10.00">m_helper::s_transform</text>
<text text-anchor="middle" x="241.5" y="-30.5" font-family="Helvetica,sans-Serif" font-size="10.00">_model</text>
</a>
</g>
</g>
<!-- Node1&#45;&gt;Node26 -->
<g id="edge27_Node000001_Node000026" class="edge">
<title>Node1&#45;&gt;Node26</title>
<g id="a_edge27_Node000001_Node000026"><a xlink:title=" ">
<path fill="none" stroke="#63b8ff" d="M56.37,-320.41C58.33,-274.92 70.52,-137.77 146,-65.5 152.45,-59.33 160.21,-54.55 168.47,-50.85"/>
<polygon fill="#63b8ff" stroke="#63b8ff" points="169.94,-54.04 177.97,-47.13 167.39,-47.52 169.94,-54.04"/>
</a>
</g>
</g>
<!-- Node3 -->
<g id="Node000003" class="node">
<title>Node3</title>
<g id="a_Node000003"><a xlink:href="namespacem__model.html#a1b67a6f818bbb66937cfa4a17610aa88" target="_top" xlink:title="This procedure appends the edge end vertices to a temporary buffer.">
<polygon fill="white" stroke="#666666" points="517,-634 373,-634 373,-615 517,-615 517,-634"/>
<text text-anchor="middle" x="445" y="-622" font-family="Helvetica,sans-Serif" font-size="10.00">m_model::f_register_edge</text>
</a>
</g>
</g>
<!-- Node2&#45;&gt;Node3 -->
<g id="edge2_Node000002_Node000003" class="edge">
<title>Node2&#45;&gt;Node3</title>
<g id="a_edge2_Node000002_Node000003"><a xlink:title=" ">
<path fill="none" stroke="#63b8ff" d="M320.12,-624.5C334.03,-624.5 348.57,-624.5 362.59,-624.5"/>
<polygon fill="#63b8ff" stroke="#63b8ff" points="362.7,-628 372.7,-624.5 362.69,-621 362.7,-628"/>
</a>
</g>
</g>
<!-- Node13 -->
<g id="Node000013" class="node">
<title>Node13</title>
<g id="a_Node000013"><a xlink:href="namespacem__model.html#aae1e055ab4aa615705efdba08dab87c6" target="_top" xlink:title="This procedure calculates the barycentric facet area.">
<polygon fill="white" stroke="#666666" points="502.5,-265 387.5,-265 387.5,-246 502.5,-246 502.5,-265"/>
<text text-anchor="middle" x="445" y="-253" font-family="Helvetica,sans-Serif" font-size="10.00">m_model::f_tri_area</text>
</a>
</g>
</g>
<!-- Node12&#45;&gt;Node13 -->
<g id="edge12_Node000012_Node000013" class="edge">
<title>Node12&#45;&gt;Node13</title>
<g id="a_edge12_Node000012_Node000013"><a xlink:title=" ">
<path fill="none" stroke="#63b8ff" d="M315.53,-255.5C335.67,-255.5 357.42,-255.5 377.19,-255.5"/>
<polygon fill="#63b8ff" stroke="#63b8ff" points="377.33,-259 387.33,-255.5 377.33,-252 377.33,-259"/>
</a>
</g>
</g>
<!-- Node16 -->
<g id="Node000016" class="node">
<title>Node16</title>
<g id="a_Node000016"><a xlink:href="namespacem__model.html#ab28f04e28ca361b3bae1b257bfceb142" target="_top" xlink:title="This procedure checks if a ray intersects a triangle.">
<polygon fill="white" stroke="#666666" points="507.5,-201.5 382.5,-201.5 382.5,-171.5 507.5,-171.5 507.5,-201.5"/>
<text text-anchor="start" x="390.5" y="-189.5" font-family="Helvetica,sans-Serif" font-size="10.00">m_model::f_intersects</text>
<text text-anchor="middle" x="445" y="-178.5" font-family="Helvetica,sans-Serif" font-size="10.00">_triangle</text>
</a>
</g>
</g>
<!-- Node15&#45;&gt;Node16 -->
<g id="edge15_Node000015_Node000016" class="edge">
<title>Node15&#45;&gt;Node16</title>
<g id="a_edge15_Node000015_Node000016"><a xlink:title=" ">
<path fill="none" stroke="#63b8ff" d="M302.68,-171.07C324.6,-173.46 349.6,-176.19 372.42,-178.68"/>
<polygon fill="#63b8ff" stroke="#63b8ff" points="372.06,-182.17 382.38,-179.77 372.82,-175.21 372.06,-182.17"/>
</a>
</g>
</g>
<!-- Node17 -->
<g id="Node000017" class="node">
<title>Node17</title>
<g id="a_Node000017"><a xlink:href="namespacem__helper.html#aded4fe6025b2194ba0b5cc5a264af9ec" target="_top" xlink:title="This procedure computes the cross product of two vectors.">
<polygon fill="white" stroke="#666666" points="679,-196 576,-196 576,-177 679,-177 679,-196"/>
<text text-anchor="middle" x="627.5" y="-184" font-family="Helvetica,sans-Serif" font-size="10.00">m_helper::f_cross</text>
</a>
</g>
</g>
<!-- Node16&#45;&gt;Node17 -->
<g id="edge16_Node000016_Node000017" class="edge">
<title>Node16&#45;&gt;Node17</title>
<g id="a_edge16_Node000016_Node000017"><a xlink:title=" ">
<path fill="none" stroke="#63b8ff" d="M507.61,-186.5C526.4,-186.5 547.03,-186.5 565.76,-186.5"/>
<polygon fill="#63b8ff" stroke="#63b8ff" points="565.94,-190 575.94,-186.5 565.94,-183 565.94,-190"/>
</a>
</g>
</g>
<!-- Node19 -->
<g id="Node000019" class="node">
<title>Node19</title>
<g id="a_Node000019"><a xlink:href="namespacem__model.html#a33ad862ed39fa4f0a0364389cf9a0821" target="_top" xlink:title="This procedure reads an OBJ file.">
<polygon fill="white" stroke="#666666" points="869,-153 748,-153 748,-134 869,-134 869,-153"/>
<text text-anchor="middle" x="808.5" y="-141" font-family="Helvetica,sans-Serif" font-size="10.00">m_model::s_read_obj</text>
</a>
</g>
</g>
<!-- Node18&#45;&gt;Node19 -->
<g id="edge18_Node000018_Node000019" class="edge">
<title>Node18&#45;&gt;Node19</title>
<g id="a_edge18_Node000018_Node000019"><a xlink:title=" ">
<path fill="none" stroke="#63b8ff" d="M309.25,-124.1C416.89,-128.29 627.79,-136.5 737.48,-140.77"/>
<polygon fill="#63b8ff" stroke="#63b8ff" points="737.64,-144.28 747.77,-141.17 737.91,-137.29 737.64,-144.28"/>
</a>
</g>
</g>
<!-- Node21 -->
<g id="Node000021" class="node">
<title>Node21</title>
<g id="a_Node000021"><a xlink:href="namespacem__model.html#a6f7ded1a2960fcf521c5892b8b1b850b" target="_top" xlink:title="This procedure reads an STL file.">
<polygon fill="white" stroke="#666666" points="504,-110 386,-110 386,-91 504,-91 504,-110"/>
<text text-anchor="middle" x="445" y="-98" font-family="Helvetica,sans-Serif" font-size="10.00">m_model::s_read_stl</text>
</a>
</g>
</g>
<!-- Node18&#45;&gt;Node21 -->
<g id="edge20_Node000018_Node000021" class="edge">
<title>Node18&#45;&gt;Node21</title>
<g id="a_edge20_Node000018_Node000021"><a xlink:title=" ">
<path fill="none" stroke="#63b8ff" d="M309.04,-114.57C330.51,-112.33 354.34,-109.84 375.92,-107.59"/>
<polygon fill="#63b8ff" stroke="#63b8ff" points="376.41,-111.06 385.99,-106.55 375.68,-104.1 376.41,-111.06"/>
</a>
</g>
</g>
<!-- Node20 -->
<g id="Node000020" class="node">
<title>Node20</title>
<g id="a_Node000020"><a xlink:href="namespacem__model.html#a263c93e249409db2235bbc8e0458e4dc" target="_top" xlink:title=" ">
<polygon fill="white" stroke="#666666" points="1037,-115 915,-115 915,-96 1037,-96 1037,-115"/>
<text text-anchor="middle" x="976" y="-103" font-family="Helvetica,sans-Serif" font-size="10.00">m_model::f_read_line</text>
</a>
</g>
</g>
<!-- Node19&#45;&gt;Node20 -->
<g id="edge19_Node000019_Node000020" class="edge">
<title>Node19&#45;&gt;Node20</title>
<g id="a_edge19_Node000019_Node000020"><a xlink:title=" ">
<path fill="none" stroke="#63b8ff" d="M851.26,-133.91C873.2,-128.87 900.28,-122.66 923.51,-117.32"/>
<polygon fill="#63b8ff" stroke="#63b8ff" points="924.57,-120.67 933.54,-115.02 923.01,-113.85 924.57,-120.67"/>
</a>
</g>
</g>
<!-- Node22 -->
<g id="Node000022" class="node">
<title>Node22</title>
<g id="a_Node000022"><a xlink:href="namespacem__model.html#ad7e72764fdcd2dac89b5e91d0d7db271" target="_top" xlink:title="This procedure reads an ASCII STL file.">
<polygon fill="white" stroke="#666666" points="686.5,-115.5 568.5,-115.5 568.5,-85.5 686.5,-85.5 686.5,-115.5"/>
<text text-anchor="start" x="576.5" y="-103.5" font-family="Helvetica,sans-Serif" font-size="10.00">m_model::s_read_stl</text>
<text text-anchor="middle" x="627.5" y="-92.5" font-family="Helvetica,sans-Serif" font-size="10.00">_ascii</text>
</a>
</g>
</g>
<!-- Node21&#45;&gt;Node22 -->
<g id="edge21_Node000021_Node000022" class="edge">
<title>Node21&#45;&gt;Node22</title>
<g id="a_edge21_Node000021_Node000022"><a xlink:title=" ">
<path fill="none" stroke="#63b8ff" d="M504.1,-100.5C521.25,-100.5 540.17,-100.5 557.91,-100.5"/>
<polygon fill="#63b8ff" stroke="#63b8ff" points="558.19,-104 568.19,-100.5 558.19,-97 558.19,-104"/>
</a>
</g>
</g>
<!-- Node24 -->
<g id="Node000024" class="node">
<title>Node24</title>
<g id="a_Node000024"><a xlink:href="namespacem__model.html#ad948a8c9877b39e33d69ab80319ab235" target="_top" xlink:title="This procedure reads a binary STL file.">
<polygon fill="white" stroke="#666666" points="686.5,-67.5 568.5,-67.5 568.5,-37.5 686.5,-37.5 686.5,-67.5"/>
<text text-anchor="start" x="576.5" y="-55.5" font-family="Helvetica,sans-Serif" font-size="10.00">m_model::s_read_stl</text>
<text text-anchor="middle" x="627.5" y="-44.5" font-family="Helvetica,sans-Serif" font-size="10.00">_binary</text>
</a>
</g>
</g>
<!-- Node21&#45;&gt;Node24 -->
<g id="edge25_Node000021_Node000024" class="edge">
<title>Node21&#45;&gt;Node24</title>
<g id="a_edge25_Node000021_Node000024"><a xlink:title=" ">
<path fill="none" stroke="#63b8ff" d="M482.09,-90.9C504.35,-84.98 533.59,-77.21 559.92,-70.2"/>
<polygon fill="#63b8ff" stroke="#63b8ff" points="561.09,-73.52 569.86,-67.56 559.29,-66.75 561.09,-73.52"/>
</a>
</g>
</g>
<!-- Node22&#45;&gt;Node20 -->
<g id="edge22_Node000022_Node000020" class="edge">
<title>Node22&#45;&gt;Node20</title>
<g id="a_edge22_Node000022_Node000020"><a xlink:title=" ">
<path fill="none" stroke="#63b8ff" d="M686.89,-101.34C747.03,-102.21 840.78,-103.56 904.89,-104.49"/>
<polygon fill="#63b8ff" stroke="#63b8ff" points="904.87,-107.99 914.92,-104.63 904.97,-100.99 904.87,-107.99"/>
</a>
</g>
</g>
<!-- Node23 -->
<g id="Node000023" class="node">
<title>Node23</title>
<g id="a_Node000023"><a xlink:href="namespacem__model.html#a532686157e0170dfff866cafe2162e9b" target="_top" xlink:title=" ">
<polygon fill="white" stroke="#666666" points="879,-77.5 738,-77.5 738,-47.5 879,-47.5 879,-77.5"/>
<text text-anchor="start" x="746" y="-65.5" font-family="Helvetica,sans-Serif" font-size="10.00">m_model::s_skip_ignored</text>
<text text-anchor="middle" x="808.5" y="-54.5" font-family="Helvetica,sans-Serif" font-size="10.00">_lines</text>
</a>
</g>
</g>
<!-- Node22&#45;&gt;Node23 -->
<g id="edge23_Node000022_Node000023" class="edge">
<title>Node22&#45;&gt;Node23</title>
<g id="a_edge23_Node000022_Node000023"><a xlink:title=" ">
<path fill="none" stroke="#63b8ff" d="M686.62,-88.16C699.76,-85.37 713.94,-82.36 727.8,-79.42"/>
<polygon fill="#63b8ff" stroke="#63b8ff" points="728.76,-82.79 737.81,-77.29 727.3,-75.95 728.76,-82.79"/>
</a>
</g>
</g>
<!-- Node23&#45;&gt;Node20 -->
<g id="edge24_Node000023_Node000020" class="edge">
<title>Node23&#45;&gt;Node20</title>
<g id="a_edge24_Node000023_Node000020"><a xlink:title=" ">
<path fill="none" stroke="#63b8ff" d="M867.38,-77.54C887.3,-82.71 909.32,-88.44 928.24,-93.35"/>
<polygon fill="#63b8ff" stroke="#63b8ff" points="927.54,-96.79 938.1,-95.91 929.3,-90.01 927.54,-96.79"/>
</a>
</g>
</g>
<!-- Node27 -->
<g id="Node000027" class="node">
<title>Node27</title>
<g id="a_Node000027"><a xlink:href="namespacem__helper.html#a85cd0366d9a4adb1021d51e43c751568" target="_top" xlink:title="This procedure transforms a triangle by a matrix, one vertex at a time.">
<polygon fill="white" stroke="#666666" points="508.5,-48.5 381.5,-48.5 381.5,-18.5 508.5,-18.5 508.5,-48.5"/>
<text text-anchor="start" x="389.5" y="-36.5" font-family="Helvetica,sans-Serif" font-size="10.00">m_helper::s_transform</text>
<text text-anchor="middle" x="445" y="-25.5" font-family="Helvetica,sans-Serif" font-size="10.00">_triangle</text>
</a>
</g>
</g>
<!-- Node26&#45;&gt;Node27 -->
<g id="edge28_Node000026_Node000027" class="edge">
<title>Node26&#45;&gt;Node27</title>
<g id="a_edge28_Node000026_Node000027"><a xlink:title=" ">
<path fill="none" stroke="#63b8ff" d="M305.15,-36.95C326.1,-36.43 349.62,-35.84 371.26,-35.3"/>
<polygon fill="#63b8ff" stroke="#63b8ff" points="371.48,-38.8 381.39,-35.05 371.3,-31.8 371.48,-38.8"/>
</a>
</g>
</g>
<!-- Node28 -->
<g id="Node000028" class="node">
<title>Node28</title>
<g id="a_Node000028"><a xlink:href="namespacem__helper.html#a3ee9f718587c72c1a90eceb0afc4a238" target="_top" xlink:title="This procedure transforms a vector by a matrix.">
<polygon fill="white" stroke="#666666" points="702,-19 553,-19 553,0 702,0 702,-19"/>
<text text-anchor="middle" x="627.5" y="-7" font-family="Helvetica,sans-Serif" font-size="10.00">m_helper::s_transform_vec</text>
</a>
</g>
</g>
<!-- Node27&#45;&gt;Node28 -->
<g id="edge29_Node000027_Node000028" class="edge">
<title>Node27&#45;&gt;Node28</title>
<g id="a_edge29_Node000027_Node000028"><a xlink:title=" ">
<path fill="none" stroke="#63b8ff" d="M508.62,-25.17C520.32,-23.62 532.7,-21.97 544.86,-20.35"/>
<polygon fill="#63b8ff" stroke="#63b8ff" points="545.56,-23.79 555.01,-19 544.64,-16.85 545.56,-23.79"/>
</a>
</g>
</g>
</g>
</svg>

<g id="navigator" transform="translate(0 0)" fill="#404254">
  <rect fill="#f2f5e9" fill-opacity="0.5" stroke="#606060" stroke-width=".5" x="0" y="0" width="60" height="60"/>
  <use id="zoomplus" xlink:href="#zoomPlus" x="17" y="9" onmousedown="handleZoom(evt,'in')"/>
  <use id="zoomminus" xlink:href="#zoomMin" x="42" y="9" onmousedown="handleZoom(evt,'out')"/>
  <use id="reset" xlink:href="#resetDef" x="30" y="36" onmousedown="handleReset()"/>
   <use id="arrowup" xlink:href="#arrowUp" x="0" y="0" onmousedown="handlePan(0,-1)"/>
  <use id="arrowright" xlink:href="#arrowRight" x="0" y="0" onmousedown="handlePan(1,0)"/>
  <use id="arrowdown" xlink:href="#arrowDown" x="0" y="0" onmousedown="handlePan(0,1)"/>
  <use id="arrowleft" xlink:href="#arrowLeft" x="0" y="0" onmousedown="handlePan(-1,0)"/>
</g>
<svg viewBox="0 0 15 15" width="100%" height="30px" preserveAspectRatio="xMaxYMin meet">
 <g id="arrow_out" transform="scale(0.3 0.3)">
  <a xlink:href="namespacem__ib__patches_ab91168784d19567f4abbf082eef50996_cgraph_org.svg" target="_base">
   <rect id="button" ry="5" rx="5" y="6" x="6" height="38" width="38"
        fill="#f2f5e9" fill-opacity="0.5" stroke="#606060" stroke-width="1.0"/>
   <path id="arrow"
     d="M 11.500037,31.436501 C 11.940474,20.09759 22.043105,11.32322 32.158766,21.979434 L 37.068811,17.246167 C 37.068811,17.246167 37.088388,32 37.088388,32 L 22.160133,31.978069 C 22.160133,31.978069 26.997745,27.140456 26.997745,27.140456 C 18.528582,18.264221 13.291696,25.230495 11.500037,31.436501 z"
     style="fill:#404040;"/>
  </a>
 </g>
</svg>

<style type='text/css'>
<![CDATA[
[data-mouse-over-selected='false'] { opacity: 0.7; }
[data-mouse-over-selected='true']  { opacity: 1.0; }
]]>
</style>
<script type="application/ecmascript"><![CDATA[
document.addEventListener('DOMContentLoaded', (event) => {
  highlightEdges();
  highlightAdjacentNodes();
});
]]></script>
</svg>
