<?xml version="1.0" encoding="UTF-8" standalone="no"?>
<!DOCTYPE svg PUBLIC "-//W3C//DTD SVG 1.1//EN"
 "http://www.w3.org/Graphics/SVG/1.1/DTD/svg11.dtd">
<!-- Generated by graphviz version 2.43.0 (0)
 -->
<!-- Title: m_ibm::s_ibm_correct_state Pages: 1 -->
<svg width="293pt" height="76pt"
 viewBox="0.00 0.00 293.00 75.50" xmlns="http://www.w3.org/2000/svg" xmlns:xlink="http://www.w3.org/1999/xlink">
<g id="graph0" class="graph" transform="scale(1 1) rotate(0) translate(4 71.5)">
<title>m_ibm::s_ibm_correct_state</title>
<!-- Node1 -->
<g id="Node000001" class="node">
<title>Node1</title>
<g id="a_Node000001"><a xlink:title="Subroutine that updates the conservative variables at the ghost points.">
<polygon fill="#999999" stroke="#666666" points="125,-51 0,-51 0,-21 125,-21 125,-51"/>
<text text-anchor="start" x="8" y="-39" font-family="Helvetica,sans-Serif" font-size="10.00">m_ibm::s_ibm_correct</text>
<text text-anchor="middle" x="62.5" y="-28" font-family="Helvetica,sans-Serif" font-size="10.00">_state</text>
</a>
</g>
</g>
<!-- Node2 -->
<g id="Node000002" class="node">
<title>Node2</title>
<g id="a_Node000002"><a xlink:href="namespacem__ibm.html#aab8d353eb069986c7d611cee3bd19deb" target="_top" xlink:title=" ">
<polygon fill="white" stroke="#666666" points="285,-67.5 161,-67.5 161,-48.5 285,-48.5 285,-67.5"/>
<text text-anchor="middle" x="223" y="-55.5" font-family="Helvetica,sans-Serif" font-size="10.00">m_ibm::cross_product</text>
</a>
</g>
</g>
<!-- Node1&#45;&gt;Node2 -->
<g id="edge1_Node000001_Node000002" class="edge">
<title>Node1&#45;&gt;Node2</title>
<g id="a_edge1_Node000001_Node000002"><a xlink:title=" ">
<path fill="none" stroke="#63b8ff" d="M125.23,-44.57C133.67,-45.74 142.38,-46.95 150.96,-48.14"/>
<polygon fill="#63b8ff" stroke="#63b8ff" points="150.57,-51.62 160.96,-49.53 151.53,-44.69 150.57,-51.62"/>
</a>
</g>
</g>
<!-- Node3 -->
<g id="Node000003" class="node">
<title>Node3</title>
<g id="a_Node000003"><a xlink:href="namespacem__ibm.html#a389d54181e5d734b16be27f045637703" target="_top" xlink:title="Function that uses the interpolation coefficients and the current state at the cell centers in order ...">
<polygon fill="white" stroke="#666666" points="283,-30 163,-30 163,0 283,0 283,-30"/>
<text text-anchor="start" x="171" y="-18" font-family="Helvetica,sans-Serif" font-size="10.00">m_ibm::s_interpolate</text>
<text text-anchor="middle" x="223" y="-7" font-family="Helvetica,sans-Serif" font-size="10.00">_image_point</text>
</a>
</g>
</g>
<!-- Node1&#45;&gt;Node3 -->
<g id="edge2_Node000001_Node000003" class="edge">
<title>Node1&#45;&gt;Node3</title>
<g id="a_edge2_Node000001_Node000003"><a xlink:title=" ">
<path fill="none" stroke="#63b8ff" d="M125.23,-27.82C134.2,-26.63 143.48,-25.4 152.59,-24.2"/>
<polygon fill="#63b8ff" stroke="#63b8ff" points="153.32,-27.63 162.77,-22.85 152.4,-20.69 153.32,-27.63"/>
</a>
</g>
</g>
</g>
</svg>
