<?xml version="1.0" encoding="UTF-8" standalone="no"?>
<!DOCTYPE svg PUBLIC "-//W3C//DTD SVG 1.1//EN"
 "http://www.w3.org/Graphics/SVG/1.1/DTD/svg11.dtd">
<!-- Generated by graphviz version 2.43.0 (0)
 -->
<!-- Title: m_start_up::s_save_data Pages: 1 -->
<!--zoomable 649 -->

<svg id="main" version="1.1" xmlns="http://www.w3.org/2000/svg" xmlns:xlink="http://www.w3.org/1999/xlink" xml:space="preserve" onload="init(evt)">

<style type="text/css"><![CDATA[
.node, .edge {opacity: 0.7;}
.node.selected, .edge.selected {opacity: 1;}
.edge:hover path { stroke: red; }
.edge:hover polygon { stroke: red; fill: red; }
]]></style>

<defs>
  <circle id="rim" cx="0" cy="0" r="7"/>
  <circle id="rim2" cx="0" cy="0" r="3.5"/>
  <g id="zoomPlus">
    <use xlink:href="#rim" fill="#404040"><set attributeName="fill" to="#808080" begin="zoomplus.mouseover" end="zoomplus.mouseout"/></use>
    <path d="M-4,0h8M0,-4v8" fill="none" stroke="white" stroke-width="1.5" pointer-events="none"/>
  </g>
  <g id="zoomMin">
    <use xlink:href="#rim" fill="#404040"><set attributeName="fill" to="#808080" begin="zoomminus.mouseover" end="zoomminus.mouseout"/></use>
    <path d="M-4,0h8" fill="none" stroke="white" stroke-width="1.5" pointer-events="none"/>
  </g>
  <g id="arrowUp" transform="translate(30 24)">
    <use xlink:href="#rim"/>
    <path pointer-events="none" fill="none" stroke="white" stroke-width="1.5" d="M0,-3.0v7 M-2.5,-0.5L0,-3.0L2.5,-0.5"/>
  </g>
  <g id="arrowRight" transform="rotate(90) translate(36 -43)">
    <use xlink:href="#rim"/>
    <path pointer-events="none" fill="none" stroke="white" stroke-width="1.5" d="M0,-3.0v7 M-2.5,-0.5L0,-3.0L2.5,-0.5"/>
  </g>
  <g id="arrowDown" transform="rotate(180) translate(-30 -48)">
    <use xlink:href="#rim"/>
    <path pointer-events="none" fill="none" stroke="white" stroke-width="1.5" d="M0,-3.0v7 M-2.5,-0.5L0,-3.0L2.5,-0.5"/>
  </g>
  <g id="arrowLeft" transform="rotate(270) translate(-36 17)">
    <use xlink:href="#rim"/>
    <path pointer-events="none" fill="none" stroke="white" stroke-width="1.5" d="M0,-3.0v7 M-2.5,-0.5L0,-3.0L2.5,-0.5"/>
  </g>
  <g id="resetDef">
    <use xlink:href="#rim2" fill="#404040"><set attributeName="fill" to="#808080" begin="reset.mouseover" end="reset.mouseout"/></use>
  </g>
</defs>
<script type="application/ecmascript">
var viewWidth = 1089;
var viewHeight = 649;
var sectionId = 'dynsection-21';
</script>
<script type="application/ecmascript" xlink:href="svg.min.js"/>
<svg id="graph" class="graph">
<g id="viewport">
<title>m_start_up::s_save_data</title>
<!-- Node1 -->
<g id="Node000001" class="node">
<title>Node1</title>
<g id="a_Node000001"><a xlink:title=" ">
<polygon fill="#999999" stroke="#666666" points="138,-366 0,-366 0,-347 138,-347 138,-366"/>
<text text-anchor="middle" x="69" y="-354" font-family="Helvetica,sans-Serif" font-size="10.00">m_start_up::s_save_data</text>
</a>
</g>
</g>
<!-- Node2 -->
<g id="Node000002" class="node">
<title>Node2</title>
<g id="a_Node000002"><a xlink:href="namespacem__nvtx.html#acb0ad47c439f074b02a3cfc88817b9c7" target="_top" xlink:title=" ">
<polygon fill="white" stroke="#666666" points="304,-470 178,-470 178,-451 304,-451 304,-470"/>
<text text-anchor="middle" x="241" y="-458" font-family="Helvetica,sans-Serif" font-size="10.00">m_nvtx::nvtxendrange</text>
</a>
</g>
</g>
<!-- Node1&#45;&gt;Node2 -->
<g id="edge1_Node000001_Node000002" class="edge">
<title>Node1&#45;&gt;Node2</title>
<g id="a_edge1_Node000001_Node000002"><a xlink:title=" ">
<path fill="none" stroke="#63b8ff" d="M79.08,-366.16C96.08,-383.68 134.55,-420.82 174,-441.5 178.26,-443.73 182.82,-445.74 187.48,-447.53"/>
<polygon fill="#63b8ff" stroke="#63b8ff" points="186.52,-450.9 197.12,-450.9 188.83,-444.29 186.52,-450.9"/>
</a>
</g>
</g>
<!-- Node3 -->
<g id="Node000003" class="node">
<title>Node3</title>
<g id="a_Node000003"><a xlink:href="namespacem__nvtx.html#a9b922c5d5c93c41e0abcd4cf8c382861" target="_top" xlink:title=" ">
<polygon fill="white" stroke="#666666" points="306.5,-433 175.5,-433 175.5,-414 306.5,-414 306.5,-433"/>
<text text-anchor="middle" x="241" y="-421" font-family="Helvetica,sans-Serif" font-size="10.00">m_nvtx::nvtxstartrange</text>
</a>
</g>
</g>
<!-- Node1&#45;&gt;Node3 -->
<g id="edge2_Node000001_Node000003" class="edge">
<title>Node1&#45;&gt;Node3</title>
<g id="a_edge2_Node000001_Node000003"><a xlink:title=" ">
<path fill="none" stroke="#63b8ff" d="M88.42,-366.04C108.93,-376.42 143.25,-393.05 174,-404.5 180.09,-406.77 186.57,-408.93 193.01,-410.93"/>
<polygon fill="#63b8ff" stroke="#63b8ff" points="192.44,-414.41 203.02,-413.93 194.45,-407.7 192.44,-414.41"/>
</a>
</g>
</g>
<!-- Node4 -->
<g id="Node000004" class="node">
<title>Node4</title>
<g id="a_Node000004"><a xlink:href="namespacem__mpi__common.html#a04cfc0bdb377a0ce2f9fd478e4bb3807" target="_top" xlink:title="The subroutine terminates the MPI execution environment.">
<polygon fill="white" stroke="#666666" points="308,-395.5 174,-395.5 174,-365.5 308,-365.5 308,-395.5"/>
<text text-anchor="start" x="182" y="-383.5" font-family="Helvetica,sans-Serif" font-size="10.00">m_mpi_common::s_mpi</text>
<text text-anchor="middle" x="241" y="-372.5" font-family="Helvetica,sans-Serif" font-size="10.00">_abort</text>
</a>
</g>
</g>
<!-- Node1&#45;&gt;Node4 -->
<g id="edge3_Node000001_Node000004" class="edge">
<title>Node1&#45;&gt;Node4</title>
<g id="a_edge3_Node000001_Node000004"><a xlink:title=" ">
<path fill="none" stroke="#63b8ff" d="M137.68,-366.05C146.26,-367.27 155.09,-368.51 163.8,-369.74"/>
<polygon fill="#63b8ff" stroke="#63b8ff" points="163.55,-373.24 173.94,-371.17 164.53,-366.31 163.55,-373.24"/>
</a>
</g>
</g>
<!-- Node5 -->
<g id="Node000005" class="node">
<title>Node5</title>
<g id="a_Node000005"><a xlink:href="namespacem__data__output.html#a9eea8de093f055adb3b786bff3cab2d8" target="_top" xlink:title="Write data files. Dispatch subroutine that replaces procedure pointer.">
<polygon fill="white" stroke="#666666" points="306.5,-347.5 175.5,-347.5 175.5,-317.5 306.5,-317.5 306.5,-347.5"/>
<text text-anchor="start" x="183.5" y="-335.5" font-family="Helvetica,sans-Serif" font-size="10.00">m_data_output::s_write</text>
<text text-anchor="middle" x="241" y="-324.5" font-family="Helvetica,sans-Serif" font-size="10.00">_data_files</text>
</a>
</g>
</g>
<!-- Node1&#45;&gt;Node5 -->
<g id="edge4_Node000001_Node000005" class="edge">
<title>Node1&#45;&gt;Node5</title>
<g id="a_edge4_Node000001_Node000005"><a xlink:title=" ">
<path fill="none" stroke="#63b8ff" d="M137.68,-346.95C146.79,-345.66 156.18,-344.33 165.4,-343.03"/>
<polygon fill="#63b8ff" stroke="#63b8ff" points="165.91,-346.49 175.32,-341.63 164.93,-339.56 165.91,-346.49"/>
</a>
</g>
</g>
<!-- Node31 -->
<g id="Node000031" class="node">
<title>Node31</title>
<g id="a_Node000031"><a xlink:href="namespacem__bubbles__el.html#a00f224f76db49025f0c974450db5fb2f" target="_top" xlink:title="Subroutine that writes the maximum and minimum radius of each bubble.">
<polygon fill="white" stroke="#666666" points="303.5,-299.5 178.5,-299.5 178.5,-269.5 303.5,-269.5 303.5,-299.5"/>
<text text-anchor="start" x="186.5" y="-287.5" font-family="Helvetica,sans-Serif" font-size="10.00">m_bubbles_el::s_write</text>
<text text-anchor="middle" x="241" y="-276.5" font-family="Helvetica,sans-Serif" font-size="10.00">_lag_bubble_stats</text>
</a>
</g>
</g>
<!-- Node1&#45;&gt;Node31 -->
<g id="edge33_Node000001_Node000031" class="edge">
<title>Node1&#45;&gt;Node31</title>
<g id="a_edge33_Node000001_Node000031"><a xlink:title=" ">
<path fill="none" stroke="#63b8ff" d="M89.34,-346.98C110.06,-336.93 144.03,-320.84 174,-308.5 178.35,-306.71 182.89,-304.91 187.46,-303.15"/>
<polygon fill="#63b8ff" stroke="#63b8ff" points="188.73,-306.42 196.84,-299.61 186.25,-299.87 188.73,-306.42"/>
</a>
</g>
</g>
<!-- Node32 -->
<g id="Node000032" class="node">
<title>Node32</title>
<g id="a_Node000032"><a xlink:href="namespacem__bubbles__el.html#a380e92c53e3fc9298b7443a4fe7ac7af" target="_top" xlink:title="Subroutine that writes the restarting files for the particles in the lagrangian solver.">
<polygon fill="white" stroke="#666666" points="303.5,-251.5 178.5,-251.5 178.5,-221.5 303.5,-221.5 303.5,-251.5"/>
<text text-anchor="start" x="186.5" y="-239.5" font-family="Helvetica,sans-Serif" font-size="10.00">m_bubbles_el::s_write</text>
<text text-anchor="middle" x="241" y="-228.5" font-family="Helvetica,sans-Serif" font-size="10.00">_restart_lag_bubbles</text>
</a>
</g>
</g>
<!-- Node1&#45;&gt;Node32 -->
<g id="edge34_Node000001_Node000032" class="edge">
<title>Node1&#45;&gt;Node32</title>
<g id="a_edge34_Node000001_Node000032"><a xlink:title=" ">
<path fill="none" stroke="#63b8ff" d="M77.93,-346.99C94.16,-328.08 133.08,-285.43 174,-260.5 176.62,-258.9 179.37,-257.39 182.19,-255.95"/>
<polygon fill="#63b8ff" stroke="#63b8ff" points="183.81,-259.06 191.38,-251.65 180.84,-252.72 183.81,-259.06"/>
</a>
</g>
</g>
<!-- Node6 -->
<g id="Node000006" class="node">
<title>Node6</title>
<g id="a_Node000006"><a xlink:href="namespacem__data__output.html#a70eef01cb0dda6dd292ddc4b63544be5" target="_top" xlink:title="The goal of this subroutine is to output the grid and conservative variables data files for given tim...">
<polygon fill="white" stroke="#666666" points="475,-434.5 344,-434.5 344,-404.5 475,-404.5 475,-434.5"/>
<text text-anchor="start" x="352" y="-422.5" font-family="Helvetica,sans-Serif" font-size="10.00">m_data_output::s_write</text>
<text text-anchor="middle" x="409.5" y="-411.5" font-family="Helvetica,sans-Serif" font-size="10.00">_parallel_data_files</text>
</a>
</g>
</g>
<!-- Node5&#45;&gt;Node6 -->
<g id="edge5_Node000005_Node000006" class="edge">
<title>Node5&#45;&gt;Node6</title>
<g id="a_edge5_Node000005_Node000006"><a xlink:title=" ">
<path fill="none" stroke="#63b8ff" d="M287.26,-347.52C294.31,-350.27 301.43,-353.29 308,-356.5 332.87,-368.65 359.33,-385.41 378.85,-398.59"/>
<polygon fill="#63b8ff" stroke="#63b8ff" points="377.07,-401.61 387.31,-404.36 381.02,-395.83 377.07,-401.61"/>
</a>
</g>
</g>
<!-- Node21 -->
<g id="Node000021" class="node">
<title>Node21</title>
<g id="a_Node000021"><a xlink:href="namespacem__data__output.html#aa24a29afef33c331f912d6d57dbbc5fd" target="_top" xlink:title="The goal of this subroutine is to output the grid and conservative variables data files for given tim...">
<polygon fill="white" stroke="#666666" points="475,-332.5 344,-332.5 344,-302.5 475,-302.5 475,-332.5"/>
<text text-anchor="start" x="352" y="-320.5" font-family="Helvetica,sans-Serif" font-size="10.00">m_data_output::s_write</text>
<text text-anchor="middle" x="409.5" y="-309.5" font-family="Helvetica,sans-Serif" font-size="10.00">_serial_data_files</text>
</a>
</g>
</g>
<!-- Node5&#45;&gt;Node21 -->
<g id="edge21_Node000005_Node000021" class="edge">
<title>Node5&#45;&gt;Node21</title>
<g id="a_edge21_Node000005_Node000021"><a xlink:title=" ">
<path fill="none" stroke="#63b8ff" d="M306.85,-326.66C315.67,-325.86 324.79,-325.04 333.77,-324.23"/>
<polygon fill="#63b8ff" stroke="#63b8ff" points="334.18,-327.71 343.83,-323.33 333.55,-320.74 334.18,-327.71"/>
</a>
</g>
</g>
<!-- Node7 -->
<g id="Node000007" class="node">
<title>Node7</title>
<g id="a_Node000007"><a xlink:href="namespacem__delay__file__access.html#a9b90086a2cf6bbb569047c955d2e67fe" target="_top" xlink:title=" ">
<polygon fill="white" stroke="#666666" points="653.5,-562.5 536.5,-562.5 536.5,-532.5 653.5,-532.5 653.5,-562.5"/>
<text text-anchor="start" x="544.5" y="-550.5" font-family="Helvetica,sans-Serif" font-size="10.00">m_delay_file_access</text>
<text text-anchor="middle" x="595" y="-539.5" font-family="Helvetica,sans-Serif" font-size="10.00">::delayfileaccess</text>
</a>
</g>
</g>
<!-- Node6&#45;&gt;Node7 -->
<g id="edge6_Node000006_Node000007" class="edge">
<title>Node6&#45;&gt;Node7</title>
<g id="a_edge6_Node000006_Node000007"><a xlink:title=" ">
<path fill="none" stroke="#63b8ff" d="M421.37,-434.8C438.1,-457.27 472.33,-499.05 511,-522.5 515.95,-525.5 521.28,-528.16 526.77,-530.52"/>
<polygon fill="#63b8ff" stroke="#63b8ff" points="525.53,-533.79 536.12,-534.21 528.1,-527.28 525.53,-533.79"/>
</a>
</g>
</g>
<!-- Node8 -->
<g id="Node000008" class="node">
<title>Node8</title>
<g id="a_Node000008"><a xlink:href="namespacem__compile__specific.html#a9cf8c029e502931415929734c03f340d" target="_top" xlink:title="Inquires on the existence of a directory.">
<polygon fill="white" stroke="#666666" points="651.5,-380.5 538.5,-380.5 538.5,-350.5 651.5,-350.5 651.5,-380.5"/>
<text text-anchor="start" x="546.5" y="-368.5" font-family="Helvetica,sans-Serif" font-size="10.00">m_compile_specific</text>
<text text-anchor="middle" x="595" y="-357.5" font-family="Helvetica,sans-Serif" font-size="10.00">::my_inquire</text>
</a>
</g>
</g>
<!-- Node6&#45;&gt;Node8 -->
<g id="edge7_Node000006_Node000008" class="edge">
<title>Node6&#45;&gt;Node8</title>
<g id="a_edge7_Node000006_Node000008"><a xlink:title=" ">
<path fill="none" stroke="#63b8ff" d="M460.57,-404.46C476.67,-399.65 494.58,-394.33 511,-389.5 517.83,-387.49 524.97,-385.41 532.09,-383.34"/>
<polygon fill="#63b8ff" stroke="#63b8ff" points="533.11,-386.69 541.73,-380.54 531.16,-379.97 533.11,-386.69"/>
</a>
</g>
</g>
<!-- Node9 -->
<g id="Node000009" class="node">
<title>Node9</title>
<g id="a_Node000009"><a xlink:href="namespacem__compile__specific.html#aa1b4e12a20e09147a215c3b5018484b0" target="_top" xlink:title="Creates a directory and all its parents if it does not exist.">
<polygon fill="white" stroke="#666666" points="651.5,-332.5 538.5,-332.5 538.5,-302.5 651.5,-302.5 651.5,-332.5"/>
<text text-anchor="start" x="546.5" y="-320.5" font-family="Helvetica,sans-Serif" font-size="10.00">m_compile_specific</text>
<text text-anchor="middle" x="595" y="-309.5" font-family="Helvetica,sans-Serif" font-size="10.00">::s_create_directory</text>
</a>
</g>
</g>
<!-- Node6&#45;&gt;Node9 -->
<g id="edge8_Node000006_Node000009" class="edge">
<title>Node6&#45;&gt;Node9</title>
<g id="a_edge8_Node000006_Node000009"><a xlink:title=" ">
<path fill="none" stroke="#63b8ff" d="M425.91,-404.46C444.59,-387 477.73,-358.43 511,-341.5 516.61,-338.64 522.62,-336.08 528.74,-333.78"/>
<polygon fill="#63b8ff" stroke="#63b8ff" points="530.12,-337.01 538.41,-330.4 527.81,-330.4 530.12,-337.01"/>
</a>
</g>
</g>
<!-- Node10 -->
<g id="Node000010" class="node">
<title>Node10</title>
<g id="a_Node000010"><a xlink:href="namespacem__helper.html#adf827c606652ea511bd0befcc9164c03" target="_top" xlink:title=" ">
<polygon fill="white" stroke="#666666" points="679,-514 511,-514 511,-495 679,-495 679,-514"/>
<text text-anchor="middle" x="595" y="-502" font-family="Helvetica,sans-Serif" font-size="10.00">m_helper::s_downsample_data</text>
</a>
</g>
</g>
<!-- Node6&#45;&gt;Node10 -->
<g id="edge9_Node000006_Node000010" class="edge">
<title>Node6&#45;&gt;Node10</title>
<g id="a_edge9_Node000006_Node000010"><a xlink:title=" ">
<path fill="none" stroke="#63b8ff" d="M428.98,-434.58C448.31,-449.61 480.09,-472.32 511,-485.5 516.89,-488.01 523.16,-490.22 529.52,-492.15"/>
<polygon fill="#63b8ff" stroke="#63b8ff" points="528.96,-495.63 539.54,-494.96 530.86,-488.89 528.96,-495.63"/>
</a>
</g>
</g>
<!-- Node11 -->
<g id="Node000011" class="node">
<title>Node11</title>
<g id="a_Node000011"><a xlink:href="namespacem__helper.html#a6b74248bdd19bc6b0b43f757a3212275" target="_top" xlink:title=" ">
<polygon fill="white" stroke="#666666" points="657.5,-477 532.5,-477 532.5,-458 657.5,-458 657.5,-477"/>
<text text-anchor="middle" x="595" y="-465" font-family="Helvetica,sans-Serif" font-size="10.00">m_helper::s_int_to_str</text>
</a>
</g>
</g>
<!-- Node6&#45;&gt;Node11 -->
<g id="edge10_Node000006_Node000011" class="edge">
<title>Node6&#45;&gt;Node11</title>
<g id="a_edge10_Node000006_Node000011"><a xlink:title=" ">
<path fill="none" stroke="#63b8ff" d="M460.45,-434.51C476.53,-439.18 494.47,-444.23 511,-448.5 520.45,-450.94 530.55,-453.39 540.34,-455.68"/>
<polygon fill="#63b8ff" stroke="#63b8ff" points="539.85,-459.16 550.38,-458 541.43,-452.34 539.85,-459.16"/>
</a>
</g>
</g>
<!-- Node12 -->
<g id="Node000012" class="node">
<title>Node12</title>
<g id="a_Node000012"><a xlink:href="namespacem__boundary__common.html#a759354204f31b7b1ecce6258ffec6a5c" target="_top" xlink:title="The purpose of this procedure is to populate the buffers of the primitive variables,...">
<polygon fill="white" stroke="#666666" points="660.5,-440 529.5,-440 529.5,-399 660.5,-399 660.5,-440"/>
<text text-anchor="start" x="537.5" y="-428" font-family="Helvetica,sans-Serif" font-size="10.00">m_boundary_common::</text>
<text text-anchor="start" x="537.5" y="-417" font-family="Helvetica,sans-Serif" font-size="10.00">s_populate_variables</text>
<text text-anchor="middle" x="595" y="-406" font-family="Helvetica,sans-Serif" font-size="10.00">_buffers</text>
</a>
</g>
</g>
<!-- Node6&#45;&gt;Node12 -->
<g id="edge11_Node000006_Node000012" class="edge">
<title>Node6&#45;&gt;Node12</title>
<g id="a_edge11_Node000006_Node000012"><a xlink:title=" ">
<path fill="none" stroke="#63b8ff" d="M475.2,-419.5C489.45,-419.5 504.66,-419.5 519.27,-419.5"/>
<polygon fill="#63b8ff" stroke="#63b8ff" points="519.27,-423 529.27,-419.5 519.27,-416 519.27,-423"/>
</a>
</g>
</g>
<!-- Node13 -->
<g id="Node000013" class="node">
<title>Node13</title>
<g id="a_Node000013"><a xlink:href="namespacem__boundary__common.html#a9b74149e76bd88834b76c187501a4e8b" target="_top" xlink:title=" ">
<polygon fill="white" stroke="#666666" points="868.5,-640.5 737.5,-640.5 737.5,-610.5 868.5,-610.5 868.5,-640.5"/>
<text text-anchor="start" x="745.5" y="-628.5" font-family="Helvetica,sans-Serif" font-size="10.00">m_boundary_common::</text>
<text text-anchor="middle" x="803" y="-617.5" font-family="Helvetica,sans-Serif" font-size="10.00">s_axis</text>
</a>
</g>
</g>
<!-- Node12&#45;&gt;Node13 -->
<g id="edge12_Node000012_Node000013" class="edge">
<title>Node12&#45;&gt;Node13</title>
<g id="a_edge12_Node000012_Node000013"><a xlink:title=" ">
<path fill="none" stroke="#63b8ff" d="M660.78,-434.63C667.58,-438.3 673.87,-442.85 679,-448.5 724.48,-498.64 669.16,-546.68 715,-596.5 718.84,-600.67 723.3,-604.25 728.12,-607.31"/>
<polygon fill="#63b8ff" stroke="#63b8ff" points="726.71,-610.52 737.16,-612.28 730.08,-604.39 726.71,-610.52"/>
</a>
</g>
</g>
<!-- Node14 -->
<g id="Node000014" class="node">
<title>Node14</title>
<g id="a_Node000014"><a xlink:href="namespacem__boundary__common.html#abc80bead9c10f8e16f4743c3ce212049" target="_top" xlink:title=" ">
<polygon fill="white" stroke="#666666" points="868.5,-554.5 737.5,-554.5 737.5,-524.5 868.5,-524.5 868.5,-554.5"/>
<text text-anchor="start" x="745.5" y="-542.5" font-family="Helvetica,sans-Serif" font-size="10.00">m_boundary_common::</text>
<text text-anchor="middle" x="803" y="-531.5" font-family="Helvetica,sans-Serif" font-size="10.00">s_dirichlet</text>
</a>
</g>
</g>
<!-- Node12&#45;&gt;Node14 -->
<g id="edge13_Node000012_Node000014" class="edge">
<title>Node12&#45;&gt;Node14</title>
<g id="a_edge13_Node000012_Node000014"><a xlink:title=" ">
<path fill="none" stroke="#63b8ff" d="M660.73,-436.61C667.3,-439.91 673.55,-443.84 679,-448.5 704.7,-470.46 688.58,-494.42 715,-515.5 719.03,-518.72 723.46,-521.5 728.12,-523.91"/>
<polygon fill="#63b8ff" stroke="#63b8ff" points="726.78,-527.15 737.33,-528.11 729.68,-520.78 726.78,-527.15"/>
</a>
</g>
</g>
<!-- Node15 -->
<g id="Node000015" class="node">
<title>Node15</title>
<g id="a_Node000015"><a xlink:href="namespacem__boundary__common.html#a9cdab2f7fce344328a88551ae040c278" target="_top" xlink:title=" ">
<polygon fill="white" stroke="#666666" points="1077.5,-575.5 930.5,-575.5 930.5,-545.5 1077.5,-545.5 1077.5,-575.5"/>
<text text-anchor="start" x="938.5" y="-563.5" font-family="Helvetica,sans-Serif" font-size="10.00">m_boundary_common::</text>
<text text-anchor="middle" x="1004" y="-552.5" font-family="Helvetica,sans-Serif" font-size="10.00">s_ghost_cell_extrapolation</text>
</a>
</g>
</g>
<!-- Node12&#45;&gt;Node15 -->
<g id="edge15_Node000012_Node000015" class="edge">
<title>Node12&#45;&gt;Node15</title>
<g id="a_edge15_Node000012_Node000015"><a xlink:title=" ">
<path fill="none" stroke="#63b8ff" d="M660.84,-435.18C667.55,-438.75 673.8,-443.13 679,-448.5 716.25,-486.99 671.84,-531.79 715,-563.5 783.46,-613.81 887.91,-596.01 950.42,-578.36"/>
<polygon fill="#63b8ff" stroke="#63b8ff" points="951.47,-581.7 960.08,-575.54 949.5,-574.98 951.47,-581.7"/>
</a>
</g>
</g>
<!-- Node16 -->
<g id="Node000016" class="node">
<title>Node16</title>
<g id="a_Node000016"><a xlink:href="namespacem__boundary__common.html#a505e465e72df1ebdee385da3f52e128c" target="_top" xlink:title=" ">
<polygon fill="white" stroke="#666666" points="868.5,-506.5 737.5,-506.5 737.5,-476.5 868.5,-476.5 868.5,-506.5"/>
<text text-anchor="start" x="745.5" y="-494.5" font-family="Helvetica,sans-Serif" font-size="10.00">m_boundary_common::</text>
<text text-anchor="middle" x="803" y="-483.5" font-family="Helvetica,sans-Serif" font-size="10.00">s_no_slip_wall</text>
</a>
</g>
</g>
<!-- Node12&#45;&gt;Node16 -->
<g id="edge16_Node000012_Node000016" class="edge">
<title>Node12&#45;&gt;Node16</title>
<g id="a_edge16_Node000012_Node000016"><a xlink:title=" ">
<path fill="none" stroke="#63b8ff" d="M658.04,-440.03C665.17,-442.73 672.28,-445.57 679,-448.5 695.59,-455.73 698.18,-460.83 715,-467.5 720.1,-469.52 725.43,-471.44 730.83,-473.24"/>
<polygon fill="#63b8ff" stroke="#63b8ff" points="730.01,-476.65 740.6,-476.36 732.14,-469.99 730.01,-476.65"/>
</a>
</g>
</g>
<!-- Node17 -->
<g id="Node000017" class="node">
<title>Node17</title>
<g id="a_Node000017"><a xlink:href="namespacem__boundary__common.html#a66500df566e213f303e7e337de5665fc" target="_top" xlink:title=" ">
<polygon fill="white" stroke="#666666" points="868.5,-458.5 737.5,-458.5 737.5,-428.5 868.5,-428.5 868.5,-458.5"/>
<text text-anchor="start" x="745.5" y="-446.5" font-family="Helvetica,sans-Serif" font-size="10.00">m_boundary_common::</text>
<text text-anchor="middle" x="803" y="-435.5" font-family="Helvetica,sans-Serif" font-size="10.00">s_periodic</text>
</a>
</g>
</g>
<!-- Node12&#45;&gt;Node17 -->
<g id="edge17_Node000012_Node000017" class="edge">
<title>Node12&#45;&gt;Node17</title>
<g id="a_edge17_Node000012_Node000017"><a xlink:title=" ">
<path fill="none" stroke="#63b8ff" d="M660.61,-427.03C681.7,-429.48 705.29,-432.23 727.07,-434.77"/>
<polygon fill="#63b8ff" stroke="#63b8ff" points="726.92,-438.28 737.26,-435.96 727.73,-431.32 726.92,-438.28"/>
</a>
</g>
</g>
<!-- Node18 -->
<g id="Node000018" class="node">
<title>Node18</title>
<g id="a_Node000018"><a xlink:href="namespacem__boundary__common.html#ab3c9ab4474426f2bbdf90454dbf7711d" target="_top" xlink:title=" ">
<polygon fill="white" stroke="#666666" points="868.5,-410.5 737.5,-410.5 737.5,-380.5 868.5,-380.5 868.5,-410.5"/>
<text text-anchor="start" x="745.5" y="-398.5" font-family="Helvetica,sans-Serif" font-size="10.00">m_boundary_common::</text>
<text text-anchor="middle" x="803" y="-387.5" font-family="Helvetica,sans-Serif" font-size="10.00">s_qbmm_extrapolation</text>
</a>
</g>
</g>
<!-- Node12&#45;&gt;Node18 -->
<g id="edge18_Node000012_Node000018" class="edge">
<title>Node12&#45;&gt;Node18</title>
<g id="a_edge18_Node000012_Node000018"><a xlink:title=" ">
<path fill="none" stroke="#63b8ff" d="M660.61,-411.97C681.7,-409.52 705.29,-406.77 727.07,-404.23"/>
<polygon fill="#63b8ff" stroke="#63b8ff" points="727.73,-407.68 737.26,-403.04 726.92,-400.72 727.73,-407.68"/>
</a>
</g>
</g>
<!-- Node19 -->
<g id="Node000019" class="node">
<title>Node19</title>
<g id="a_Node000019"><a xlink:href="namespacem__boundary__common.html#a956b34bbd7704ada90409ea5714690dc" target="_top" xlink:title=" ">
<polygon fill="white" stroke="#666666" points="868.5,-362.5 737.5,-362.5 737.5,-332.5 868.5,-332.5 868.5,-362.5"/>
<text text-anchor="start" x="745.5" y="-350.5" font-family="Helvetica,sans-Serif" font-size="10.00">m_boundary_common::</text>
<text text-anchor="middle" x="803" y="-339.5" font-family="Helvetica,sans-Serif" font-size="10.00">s_slip_wall</text>
</a>
</g>
</g>
<!-- Node12&#45;&gt;Node19 -->
<g id="edge19_Node000012_Node000019" class="edge">
<title>Node12&#45;&gt;Node19</title>
<g id="a_edge19_Node000012_Node000019"><a xlink:title=" ">
<path fill="none" stroke="#63b8ff" d="M655.72,-398.86C663.61,-395.86 671.54,-392.7 679,-389.5 695.44,-382.45 698.3,-377.91 715,-371.5 720.44,-369.41 726.13,-367.43 731.88,-365.56"/>
<polygon fill="#63b8ff" stroke="#63b8ff" points="733.1,-368.84 741.6,-362.52 731.01,-362.16 733.1,-368.84"/>
</a>
</g>
</g>
<!-- Node20 -->
<g id="Node000020" class="node">
<title>Node20</title>
<g id="a_Node000020"><a xlink:href="namespacem__boundary__common.html#a5aa960eb27f5b03cd4dc33e583c69e67" target="_top" xlink:title=" ">
<polygon fill="white" stroke="#666666" points="868.5,-314.5 737.5,-314.5 737.5,-284.5 868.5,-284.5 868.5,-314.5"/>
<text text-anchor="start" x="745.5" y="-302.5" font-family="Helvetica,sans-Serif" font-size="10.00">m_boundary_common::</text>
<text text-anchor="middle" x="803" y="-291.5" font-family="Helvetica,sans-Serif" font-size="10.00">s_symmetry</text>
</a>
</g>
</g>
<!-- Node12&#45;&gt;Node20 -->
<g id="edge20_Node000012_Node000020" class="edge">
<title>Node12&#45;&gt;Node20</title>
<g id="a_edge20_Node000012_Node000020"><a xlink:title=" ">
<path fill="none" stroke="#63b8ff" d="M660.71,-401.54C667.28,-398.17 673.53,-394.19 679,-389.5 704.36,-367.74 688.82,-344.26 715,-323.5 719.04,-320.3 723.48,-317.52 728.15,-315.11"/>
<polygon fill="#63b8ff" stroke="#63b8ff" points="729.71,-318.25 737.36,-310.93 726.81,-311.88 729.71,-318.25"/>
</a>
</g>
</g>
<!-- Node14&#45;&gt;Node15 -->
<g id="edge14_Node000014_Node000015" class="edge">
<title>Node14&#45;&gt;Node15</title>
<g id="a_edge14_Node000014_Node000015"><a xlink:title=" ">
<path fill="none" stroke="#63b8ff" d="M868.61,-546.32C885.12,-548.06 903.09,-549.96 920.37,-551.78"/>
<polygon fill="#63b8ff" stroke="#63b8ff" points="920.13,-555.27 930.44,-552.84 920.86,-548.31 920.13,-555.27"/>
</a>
</g>
</g>
<!-- Node21&#45;&gt;Node8 -->
<g id="edge22_Node000021_Node000008" class="edge">
<title>Node21&#45;&gt;Node8</title>
<g id="a_edge22_Node000021_Node000008"><a xlink:title=" ">
<path fill="none" stroke="#63b8ff" d="M468.06,-332.56C487.21,-337.57 508.68,-343.18 528.39,-348.34"/>
<polygon fill="#63b8ff" stroke="#63b8ff" points="527.66,-351.76 538.22,-350.91 529.43,-344.99 527.66,-351.76"/>
</a>
</g>
</g>
<!-- Node21&#45;&gt;Node9 -->
<g id="edge31_Node000021_Node000009" class="edge">
<title>Node21&#45;&gt;Node9</title>
<g id="a_edge31_Node000021_Node000009"><a xlink:title=" ">
<path fill="none" stroke="#63b8ff" d="M475.2,-317.5C492.45,-317.5 511.1,-317.5 528.4,-317.5"/>
<polygon fill="#63b8ff" stroke="#63b8ff" points="528.41,-321 538.41,-317.5 528.41,-314 528.41,-321"/>
</a>
</g>
</g>
<!-- Node22 -->
<g id="Node000022" class="node">
<title>Node22</title>
<g id="a_Node000022"><a xlink:href="namespacem__variables__conversion.html#a7d567315b057c0da0cb37f89ef298031" target="_top" xlink:title="The following procedure handles the conversion between the conservative variables and the primitive v...">
<polygon fill="white" stroke="#666666" points="664,-239 526,-239 526,-198 664,-198 664,-239"/>
<text text-anchor="start" x="534" y="-227" font-family="Helvetica,sans-Serif" font-size="10.00">m_variables_conversion</text>
<text text-anchor="start" x="534" y="-216" font-family="Helvetica,sans-Serif" font-size="10.00">::s_convert_conservative</text>
<text text-anchor="middle" x="595" y="-205" font-family="Helvetica,sans-Serif" font-size="10.00">_to_primitive_variables</text>
</a>
</g>
</g>
<!-- Node21&#45;&gt;Node22 -->
<g id="edge23_Node000021_Node000022" class="edge">
<title>Node21&#45;&gt;Node22</title>
<g id="a_edge23_Node000021_Node000022"><a xlink:title=" ">
<path fill="none" stroke="#63b8ff" d="M438.37,-302.46C467.18,-286.92 512.66,-262.38 547.04,-243.84"/>
<polygon fill="#63b8ff" stroke="#63b8ff" points="548.83,-246.85 555.97,-239.02 545.5,-240.69 548.83,-246.85"/>
</a>
</g>
</g>
<!-- Node30 -->
<g id="Node000030" class="node">
<title>Node30</title>
<g id="a_Node000030"><a xlink:href="namespacem__compile__specific.html#a60af946dc5a6e9ece1327c7cb756c4a2" target="_top" xlink:title=" ">
<polygon fill="white" stroke="#666666" points="651.5,-179.5 538.5,-179.5 538.5,-149.5 651.5,-149.5 651.5,-179.5"/>
<text text-anchor="start" x="546.5" y="-167.5" font-family="Helvetica,sans-Serif" font-size="10.00">m_compile_specific</text>
<text text-anchor="middle" x="595" y="-156.5" font-family="Helvetica,sans-Serif" font-size="10.00">::s_delete_directory</text>
</a>
</g>
</g>
<!-- Node21&#45;&gt;Node30 -->
<g id="edge32_Node000021_Node000030" class="edge">
<title>Node21&#45;&gt;Node30</title>
<g id="a_edge32_Node000021_Node000030"><a xlink:title=" ">
<path fill="none" stroke="#63b8ff" d="M444.4,-302.44C455.3,-296.28 466.7,-288.28 475,-278.5 502.88,-245.65 479.07,-217.42 511,-188.5 516.15,-183.83 522.16,-180.07 528.55,-177.03"/>
<polygon fill="#63b8ff" stroke="#63b8ff" points="530.21,-180.14 538.12,-173.09 527.54,-173.66 530.21,-180.14"/>
</a>
</g>
</g>
<!-- Node23 -->
<g id="Node000023" class="node">
<title>Node23</title>
<g id="a_Node000023"><a xlink:href="namespacem__variables__conversion.html#a58c19a9ba2767016cd7c916cd52b8d0e" target="_top" xlink:title="This procedure conditionally calculates the appropriate pressure.">
<polygon fill="white" stroke="#666666" points="870.5,-266.5 735.5,-266.5 735.5,-236.5 870.5,-236.5 870.5,-266.5"/>
<text text-anchor="start" x="743.5" y="-254.5" font-family="Helvetica,sans-Serif" font-size="10.00">m_variables_conversion</text>
<text text-anchor="middle" x="803" y="-243.5" font-family="Helvetica,sans-Serif" font-size="10.00">::s_compute_pressure</text>
</a>
</g>
</g>
<!-- Node22&#45;&gt;Node23 -->
<g id="edge24_Node000022_Node000023" class="edge">
<title>Node22&#45;&gt;Node23</title>
<g id="a_edge24_Node000022_Node000023"><a xlink:title=" ">
<path fill="none" stroke="#63b8ff" d="M664.02,-229.4C683.67,-232.54 705.25,-236 725.39,-239.23"/>
<polygon fill="#63b8ff" stroke="#63b8ff" points="725.02,-242.71 735.45,-240.84 726.13,-235.8 725.02,-242.71"/>
</a>
</g>
</g>
<!-- Node24 -->
<g id="Node000024" class="node">
<title>Node24</title>
<g id="a_Node000024"><a xlink:href="namespacem__variables__conversion.html#a33d90a2c18d68289bfb220ab08f43d60" target="_top" xlink:title=" ">
<polygon fill="white" stroke="#666666" points="870.5,-218 735.5,-218 735.5,-177 870.5,-177 870.5,-218"/>
<text text-anchor="start" x="743.5" y="-206" font-family="Helvetica,sans-Serif" font-size="10.00">m_variables_conversion</text>
<text text-anchor="start" x="743.5" y="-195" font-family="Helvetica,sans-Serif" font-size="10.00">::s_convert_species_to</text>
<text text-anchor="middle" x="803" y="-184" font-family="Helvetica,sans-Serif" font-size="10.00">_mixture_variables_acc</text>
</a>
</g>
</g>
<!-- Node22&#45;&gt;Node24 -->
<g id="edge25_Node000022_Node000024" class="edge">
<title>Node22&#45;&gt;Node24</title>
<g id="a_edge25_Node000022_Node000024"><a xlink:title=" ">
<path fill="none" stroke="#63b8ff" d="M664.02,-211.57C683.67,-209.56 705.25,-207.36 725.39,-205.31"/>
<polygon fill="#63b8ff" stroke="#63b8ff" points="725.86,-208.78 735.45,-204.28 725.15,-201.82 725.86,-208.78"/>
</a>
</g>
</g>
<!-- Node25 -->
<g id="Node000025" class="node">
<title>Node25</title>
<g id="a_Node000025"><a xlink:href="namespacem__variables__conversion.html#abef936d296c3b3d80c28fdc6831b46fb" target="_top" xlink:title=" ">
<polygon fill="white" stroke="#666666" points="891,-159 715,-159 715,-118 891,-118 891,-159"/>
<text text-anchor="start" x="723" y="-147" font-family="Helvetica,sans-Serif" font-size="10.00">m_variables_conversion</text>
<text text-anchor="start" x="723" y="-136" font-family="Helvetica,sans-Serif" font-size="10.00">::s_convert_species_to</text>
<text text-anchor="middle" x="803" y="-125" font-family="Helvetica,sans-Serif" font-size="10.00">_mixture_variables_bubbles_acc</text>
</a>
</g>
</g>
<!-- Node22&#45;&gt;Node25 -->
<g id="edge26_Node000022_Node000025" class="edge">
<title>Node22&#45;&gt;Node25</title>
<g id="a_edge26_Node000022_Node000025"><a xlink:title=" ">
<path fill="none" stroke="#63b8ff" d="M656.81,-197.97C664.37,-194.99 671.92,-191.81 679,-188.5 695.78,-180.65 698.12,-175.14 715,-167.5 718.57,-165.88 722.26,-164.31 726.01,-162.79"/>
<polygon fill="#63b8ff" stroke="#63b8ff" points="727.38,-166.01 735.42,-159.11 724.83,-159.49 727.38,-166.01"/>
</a>
</g>
</g>
<!-- Node26 -->
<g id="Node000026" class="node">
<title>Node26</title>
<g id="a_Node000026"><a xlink:href="namespacem__variables__conversion.html#ad79dc943a9108e838d80bb2b264fba8e" target="_top" xlink:title="Dispatch to the s_convert_mixture_to_mixture_variables and s_convert_species_to_mixture_variables sub...">
<polygon fill="white" stroke="#666666" points="870.5,-100 735.5,-100 735.5,-59 870.5,-59 870.5,-100"/>
<text text-anchor="start" x="743.5" y="-88" font-family="Helvetica,sans-Serif" font-size="10.00">m_variables_conversion</text>
<text text-anchor="start" x="743.5" y="-77" font-family="Helvetica,sans-Serif" font-size="10.00">::s_convert_to_mixture</text>
<text text-anchor="middle" x="803" y="-66" font-family="Helvetica,sans-Serif" font-size="10.00">_variables</text>
</a>
</g>
</g>
<!-- Node22&#45;&gt;Node26 -->
<g id="edge27_Node000022_Node000026" class="edge">
<title>Node22&#45;&gt;Node26</title>
<g id="a_edge27_Node000022_Node000026"><a xlink:title=" ">
<path fill="none" stroke="#63b8ff" d="M664.36,-199.13C669.64,-196.08 674.62,-192.56 679,-188.5 707.6,-162 686.07,-134.64 715,-108.5 718.41,-105.41 722.17,-102.66 726.14,-100.19"/>
<polygon fill="#63b8ff" stroke="#63b8ff" points="728.06,-103.13 735.13,-95.25 724.68,-97 728.06,-103.13"/>
</a>
</g>
</g>
<!-- Node27 -->
<g id="Node000027" class="node">
<title>Node27</title>
<g id="a_Node000027"><a xlink:href="namespacem__variables__conversion.html#a8b30b668d9de48d0bf0d53fa56116847" target="_top" xlink:title="This subroutine is designed for the gamma/pi_inf model and provided a set of either conservative or p...">
<polygon fill="white" stroke="#666666" points="1071.5,-100 936.5,-100 936.5,-59 1071.5,-59 1071.5,-100"/>
<text text-anchor="start" x="944.5" y="-88" font-family="Helvetica,sans-Serif" font-size="10.00">m_variables_conversion</text>
<text text-anchor="start" x="944.5" y="-77" font-family="Helvetica,sans-Serif" font-size="10.00">::s_convert_mixture_to</text>
<text text-anchor="middle" x="1004" y="-66" font-family="Helvetica,sans-Serif" font-size="10.00">_mixture_variables</text>
</a>
</g>
</g>
<!-- Node26&#45;&gt;Node27 -->
<g id="edge28_Node000026_Node000027" class="edge">
<title>Node26&#45;&gt;Node27</title>
<g id="a_edge28_Node000026_Node000027"><a xlink:title=" ">
<path fill="none" stroke="#63b8ff" d="M870.54,-79.5C888.37,-79.5 907.79,-79.5 926.12,-79.5"/>
<polygon fill="#63b8ff" stroke="#63b8ff" points="926.18,-83 936.18,-79.5 926.18,-76 926.18,-83"/>
</a>
</g>
</g>
<!-- Node28 -->
<g id="Node000028" class="node">
<title>Node28</title>
<g id="a_Node000028"><a xlink:href="namespacem__variables__conversion.html#a7f3bffa0ba13432f79f095a78fcf6e5a" target="_top" xlink:title="This subroutine is designed for the volume fraction model and provided a set of either conservative o...">
<polygon fill="white" stroke="#666666" points="1071.5,-41 936.5,-41 936.5,0 1071.5,0 1071.5,-41"/>
<text text-anchor="start" x="944.5" y="-29" font-family="Helvetica,sans-Serif" font-size="10.00">m_variables_conversion</text>
<text text-anchor="start" x="944.5" y="-18" font-family="Helvetica,sans-Serif" font-size="10.00">::s_convert_species_to</text>
<text text-anchor="middle" x="1004" y="-7" font-family="Helvetica,sans-Serif" font-size="10.00">_mixture_variables</text>
</a>
</g>
</g>
<!-- Node26&#45;&gt;Node28 -->
<g id="edge29_Node000026_Node000028" class="edge">
<title>Node26&#45;&gt;Node28</title>
<g id="a_edge29_Node000026_Node000028"><a xlink:title=" ">
<path fill="none" stroke="#63b8ff" d="M870.54,-59.77C888.45,-54.46 907.97,-48.68 926.38,-43.22"/>
<polygon fill="#63b8ff" stroke="#63b8ff" points="927.59,-46.51 936.18,-40.31 925.6,-39.8 927.59,-46.51"/>
</a>
</g>
</g>
<!-- Node29 -->
<g id="Node000029" class="node">
<title>Node29</title>
<g id="a_Node000029"><a xlink:href="namespacem__variables__conversion.html#a57f893a44db2368e82339b2993a05ff4" target="_top" xlink:title="This procedure is used alongside with the gamma/pi_inf model to transfer the density,...">
<polygon fill="white" stroke="#666666" points="1081,-159 927,-159 927,-118 1081,-118 1081,-159"/>
<text text-anchor="start" x="935" y="-147" font-family="Helvetica,sans-Serif" font-size="10.00">m_variables_conversion</text>
<text text-anchor="start" x="935" y="-136" font-family="Helvetica,sans-Serif" font-size="10.00">::s_convert_species_to</text>
<text text-anchor="middle" x="1004" y="-125" font-family="Helvetica,sans-Serif" font-size="10.00">_mixture_variables_bubbles</text>
</a>
</g>
</g>
<!-- Node26&#45;&gt;Node29 -->
<g id="edge30_Node000026_Node000029" class="edge">
<title>Node26&#45;&gt;Node29</title>
<g id="a_edge30_Node000026_Node000029"><a xlink:title=" ">
<path fill="none" stroke="#63b8ff" d="M870.54,-99.23C887.7,-104.32 906.34,-109.84 924.06,-115.1"/>
<polygon fill="#63b8ff" stroke="#63b8ff" points="923.22,-118.5 933.8,-117.98 925.21,-111.78 923.22,-118.5"/>
</a>
</g>
</g>
<!-- Node33 -->
<g id="Node000033" class="node">
<title>Node33</title>
<g id="a_Node000033"><a xlink:href="namespacem__bubbles__el.html#aa52aa9bb64817bd3f73ed432fc85aaa0" target="_top" xlink:title="The purpose of this procedure is to determine if the lagrangian bubble is located in the physical dom...">
<polygon fill="white" stroke="#666666" points="473,-251.5 346,-251.5 346,-221.5 473,-221.5 473,-251.5"/>
<text text-anchor="start" x="354" y="-239.5" font-family="Helvetica,sans-Serif" font-size="10.00">m_bubbles_el::particle</text>
<text text-anchor="middle" x="409.5" y="-228.5" font-family="Helvetica,sans-Serif" font-size="10.00">_in_domain_physical</text>
</a>
</g>
</g>
<!-- Node32&#45;&gt;Node33 -->
<g id="edge35_Node000032_Node000033" class="edge">
<title>Node32&#45;&gt;Node33</title>
<g id="a_edge35_Node000032_Node000033"><a xlink:title=" ">
<path fill="none" stroke="#63b8ff" d="M303.53,-236.5C313.99,-236.5 324.94,-236.5 335.66,-236.5"/>
<polygon fill="#63b8ff" stroke="#63b8ff" points="335.84,-240 345.84,-236.5 335.84,-233 335.84,-240"/>
</a>
</g>
</g>
<!-- Node33&#45;&gt;Node33 -->
<g id="edge36_Node000033_Node000033" class="edge">
<title>Node33&#45;&gt;Node33</title>
<g id="a_edge36_Node000033_Node000033"><a xlink:title=" ">
<path fill="none" stroke="#63b8ff" d="M379.97,-251.78C373.41,-260.91 383.25,-269.5 409.5,-269.5 425.09,-269.5 434.89,-266.47 438.91,-262.1"/>
<polygon fill="#63b8ff" stroke="#63b8ff" points="442.41,-261.82 439.03,-251.78 435.41,-261.73 442.41,-261.82"/>
</a>
</g>
</g>
</g>
</svg>

<g id="navigator" transform="translate(0 0)" fill="#404254">
  <rect fill="#f2f5e9" fill-opacity="0.5" stroke="#606060" stroke-width=".5" x="0" y="0" width="60" height="60"/>
  <use id="zoomplus" xlink:href="#zoomPlus" x="17" y="9" onmousedown="handleZoom(evt,'in')"/>
  <use id="zoomminus" xlink:href="#zoomMin" x="42" y="9" onmousedown="handleZoom(evt,'out')"/>
  <use id="reset" xlink:href="#resetDef" x="30" y="36" onmousedown="handleReset()"/>
   <use id="arrowup" xlink:href="#arrowUp" x="0" y="0" onmousedown="handlePan(0,-1)"/>
  <use id="arrowright" xlink:href="#arrowRight" x="0" y="0" onmousedown="handlePan(1,0)"/>
  <use id="arrowdown" xlink:href="#arrowDown" x="0" y="0" onmousedown="handlePan(0,1)"/>
  <use id="arrowleft" xlink:href="#arrowLeft" x="0" y="0" onmousedown="handlePan(-1,0)"/>
</g>
<svg viewBox="0 0 15 15" width="100%" height="30px" preserveAspectRatio="xMaxYMin meet">
 <g id="arrow_out" transform="scale(0.3 0.3)">
  <a xlink:href="namespacem__start__up_a47ade6ffcd98aafcccf10910f626142d_cgraph_org.svg" target="_base">
   <rect id="button" ry="5" rx="5" y="6" x="6" height="38" width="38"
        fill="#f2f5e9" fill-opacity="0.5" stroke="#606060" stroke-width="1.0"/>
   <path id="arrow"
     d="M 11.500037,31.436501 C 11.940474,20.09759 22.043105,11.32322 32.158766,21.979434 L 37.068811,17.246167 C 37.068811,17.246167 37.088388,32 37.088388,32 L 22.160133,31.978069 C 22.160133,31.978069 26.997745,27.140456 26.997745,27.140456 C 18.528582,18.264221 13.291696,25.230495 11.500037,31.436501 z"
     style="fill:#404040;"/>
  </a>
 </g>
</svg>

<style type='text/css'>
<![CDATA[
[data-mouse-over-selected='false'] { opacity: 0.7; }
[data-mouse-over-selected='true']  { opacity: 1.0; }
]]>
</style>
<script type="application/ecmascript"><![CDATA[
document.addEventListener('DOMContentLoaded', (event) => {
  highlightEdges();
  highlightAdjacentNodes();
});
]]></script>
</svg>
