<?xml version="1.0" encoding="UTF-8" standalone="no"?>
<!DOCTYPE svg PUBLIC "-//W3C//DTD SVG 1.1//EN"
 "http://www.w3.org/Graphics/SVG/1.1/DTD/svg11.dtd">
<!-- Generated by graphviz version 2.43.0 (0)
 -->
<!-- Title: m_boundary_common::s_ghost_cell_extrapolation Pages: 1 -->
<svg width="1086pt" height="66pt"
 viewBox="0.00 0.00 1086.00 65.50" xmlns="http://www.w3.org/2000/svg" xmlns:xlink="http://www.w3.org/1999/xlink">
<g id="graph0" class="graph" transform="scale(1 1) rotate(0) translate(4 61.5)">
<title>m_boundary_common::s_ghost_cell_extrapolation</title>
<!-- Node1 -->
<g id="Node000001" class="node">
<title>Node1</title>
<g id="a_Node000001"><a xlink:title=" ">
<polygon fill="#999999" stroke="#666666" points="1078,-35.5 931,-35.5 931,-5.5 1078,-5.5 1078,-35.5"/>
<text text-anchor="start" x="939" y="-23.5" font-family="Helvetica,sans-Serif" font-size="10.00">m_boundary_common::</text>
<text text-anchor="middle" x="1004.5" y="-12.5" font-family="Helvetica,sans-Serif" font-size="10.00">s_ghost_cell_extrapolation</text>
</a>
</g>
</g>
<!-- Node2 -->
<g id="Node000002" class="node">
<title>Node2</title>
<g id="a_Node000002"><a xlink:href="namespacem__boundary__common.html#abc80bead9c10f8e16f4743c3ce212049" target="_top" xlink:title=" ">
<polygon fill="white" stroke="#666666" points="895,-57.5 764,-57.5 764,-27.5 895,-27.5 895,-57.5"/>
<text text-anchor="start" x="772" y="-45.5" font-family="Helvetica,sans-Serif" font-size="10.00">m_boundary_common::</text>
<text text-anchor="middle" x="829.5" y="-34.5" font-family="Helvetica,sans-Serif" font-size="10.00">s_dirichlet</text>
</a>
</g>
</g>
<!-- Node1&#45;&gt;Node2 -->
<g id="edge1_Node000001_Node000002" class="edge">
<title>Node1&#45;&gt;Node2</title>
<g id="a_edge1_Node000001_Node000002"><a xlink:title=" ">
<path fill="none" stroke="#63b8ff" d="M920.83,-31.01C912.24,-32.11 903.59,-33.21 895.23,-34.27"/>
<polygon fill="#63b8ff" stroke="#63b8ff" points="921.41,-34.47 930.88,-29.73 920.52,-27.52 921.41,-34.47"/>
</a>
</g>
</g>
<!-- Node3 -->
<g id="Node000003" class="node">
<title>Node3</title>
<g id="a_Node000003"><a xlink:href="namespacem__boundary__common.html#a759354204f31b7b1ecce6258ffec6a5c" target="_top" xlink:title="The purpose of this procedure is to populate the buffers of the primitive variables,...">
<polygon fill="white" stroke="#666666" points="728,-41 597,-41 597,0 728,0 728,-41"/>
<text text-anchor="start" x="605" y="-29" font-family="Helvetica,sans-Serif" font-size="10.00">m_boundary_common::</text>
<text text-anchor="start" x="605" y="-18" font-family="Helvetica,sans-Serif" font-size="10.00">s_populate_variables</text>
<text text-anchor="middle" x="662.5" y="-7" font-family="Helvetica,sans-Serif" font-size="10.00">_buffers</text>
</a>
</g>
</g>
<!-- Node1&#45;&gt;Node3 -->
<g id="edge7_Node000001_Node000003" class="edge">
<title>Node1&#45;&gt;Node3</title>
<g id="a_edge7_Node000001_Node000003"><a xlink:title=" ">
<path fill="none" stroke="#63b8ff" d="M920.69,-18.82C912.01,-18.69 903.33,-18.58 895,-18.5 836.78,-17.96 822.22,-17.92 764,-18.5 752.4,-18.62 740.04,-18.81 728.1,-19.02"/>
<polygon fill="#63b8ff" stroke="#63b8ff" points="920.79,-22.32 930.84,-18.98 920.9,-15.32 920.79,-22.32"/>
</a>
</g>
</g>
<!-- Node2&#45;&gt;Node3 -->
<g id="edge2_Node000002_Node000003" class="edge">
<title>Node2&#45;&gt;Node3</title>
<g id="a_edge2_Node000002_Node000003"><a xlink:title=" ">
<path fill="none" stroke="#63b8ff" d="M753.76,-32.53C745.18,-31.39 736.48,-30.23 728.05,-29.11"/>
<polygon fill="#63b8ff" stroke="#63b8ff" points="753.39,-36.02 763.76,-33.87 754.31,-29.08 753.39,-36.02"/>
</a>
</g>
</g>
<!-- Node4 -->
<g id="Node000004" class="node">
<title>Node4</title>
<g id="a_Node000004"><a xlink:href="namespacem__data__output.html#a70eef01cb0dda6dd292ddc4b63544be5" target="_top" xlink:title="The goal of this subroutine is to output the grid and conservative variables data files for given tim...">
<polygon fill="white" stroke="#666666" points="561,-35.5 430,-35.5 430,-5.5 561,-5.5 561,-35.5"/>
<text text-anchor="start" x="438" y="-23.5" font-family="Helvetica,sans-Serif" font-size="10.00">m_data_output::s_write</text>
<text text-anchor="middle" x="495.5" y="-12.5" font-family="Helvetica,sans-Serif" font-size="10.00">_parallel_data_files</text>
</a>
</g>
</g>
<!-- Node3&#45;&gt;Node4 -->
<g id="edge3_Node000003_Node000004" class="edge">
<title>Node3&#45;&gt;Node4</title>
<g id="a_edge3_Node000003_Node000004"><a xlink:title=" ">
<path fill="none" stroke="#63b8ff" d="M586.76,-20.5C578.18,-20.5 569.48,-20.5 561.05,-20.5"/>
<polygon fill="#63b8ff" stroke="#63b8ff" points="586.76,-24 596.76,-20.5 586.76,-17 586.76,-24"/>
</a>
</g>
</g>
<!-- Node5 -->
<g id="Node000005" class="node">
<title>Node5</title>
<g id="a_Node000005"><a xlink:href="namespacem__data__output.html#a9eea8de093f055adb3b786bff3cab2d8" target="_top" xlink:title="Write data files. Dispatch subroutine that replaces procedure pointer.">
<polygon fill="white" stroke="#666666" points="394,-35.5 263,-35.5 263,-5.5 394,-5.5 394,-35.5"/>
<text text-anchor="start" x="271" y="-23.5" font-family="Helvetica,sans-Serif" font-size="10.00">m_data_output::s_write</text>
<text text-anchor="middle" x="328.5" y="-12.5" font-family="Helvetica,sans-Serif" font-size="10.00">_data_files</text>
</a>
</g>
</g>
<!-- Node4&#45;&gt;Node5 -->
<g id="edge4_Node000004_Node000005" class="edge">
<title>Node4&#45;&gt;Node5</title>
<g id="a_edge4_Node000004_Node000005"><a xlink:title=" ">
<path fill="none" stroke="#63b8ff" d="M419.76,-20.5C411.18,-20.5 402.48,-20.5 394.05,-20.5"/>
<polygon fill="#63b8ff" stroke="#63b8ff" points="419.76,-24 429.76,-20.5 419.76,-17 419.76,-24"/>
</a>
</g>
</g>
<!-- Node6 -->
<g id="Node000006" class="node">
<title>Node6</title>
<g id="a_Node000006"><a xlink:href="namespacem__start__up.html#a47ade6ffcd98aafcccf10910f626142d" target="_top" xlink:title=" ">
<polygon fill="white" stroke="#666666" points="227,-30 89,-30 89,-11 227,-11 227,-30"/>
<text text-anchor="middle" x="158" y="-18" font-family="Helvetica,sans-Serif" font-size="10.00">m_start_up::s_save_data</text>
</a>
</g>
</g>
<!-- Node5&#45;&gt;Node6 -->
<g id="edge5_Node000005_Node000006" class="edge">
<title>Node5&#45;&gt;Node6</title>
<g id="a_edge5_Node000005_Node000006"><a xlink:title=" ">
<path fill="none" stroke="#63b8ff" d="M252.58,-20.5C244.11,-20.5 235.51,-20.5 227.13,-20.5"/>
<polygon fill="#63b8ff" stroke="#63b8ff" points="252.84,-24 262.84,-20.5 252.84,-17 252.84,-24"/>
</a>
</g>
</g>
<!-- Node7 -->
<g id="Node000007" class="node">
<title>Node7</title>
<g id="a_Node000007"><a xlink:href="p__main_8fpp_8f90.html#aeec10ee8e2940c953967da3e374e1579" target="_top" xlink:title="Quasi&#45;conservative, shock&#45; and interface&#45; capturing finite&#45;volume scheme for the multicomponent Navie...">
<polygon fill="white" stroke="#666666" points="53,-30 0,-30 0,-11 53,-11 53,-30"/>
<text text-anchor="middle" x="26.5" y="-18" font-family="Helvetica,sans-Serif" font-size="10.00">p_main</text>
</a>
</g>
</g>
<!-- Node6&#45;&gt;Node7 -->
<g id="edge6_Node000006_Node000007" class="edge">
<title>Node6&#45;&gt;Node7</title>
<g id="a_edge6_Node000006_Node000007"><a xlink:title=" ">
<path fill="none" stroke="#63b8ff" d="M78.81,-20.5C69.67,-20.5 60.91,-20.5 53.29,-20.5"/>
<polygon fill="#63b8ff" stroke="#63b8ff" points="78.84,-24 88.84,-20.5 78.84,-17 78.84,-24"/>
</a>
</g>
</g>
</g>
</svg>
