<?xml version="1.0" encoding="UTF-8" standalone="no"?>
<!DOCTYPE svg PUBLIC "-//W3C//DTD SVG 1.1//EN"
 "http://www.w3.org/Graphics/SVG/1.1/DTD/svg11.dtd">
<!-- Generated by graphviz version 2.43.0 (0)
 -->
<!-- Title: m_compute_cbc::s_compute_force_free_subsonic_outflow_l Pages: 1 -->
<svg width="362pt" height="172pt"
 viewBox="0.00 0.00 362.00 171.50" xmlns="http://www.w3.org/2000/svg" xmlns:xlink="http://www.w3.org/1999/xlink">

<svg id="main" version="1.1" xmlns="http://www.w3.org/2000/svg" xmlns:xlink="http://www.w3.org/1999/xlink" xml:space="preserve">

<style type="text/css"><![CDATA[
.node, .edge {opacity: 0.7;}
.node.selected, .edge.selected {opacity: 1;}
.edge:hover path { stroke: red; }
.edge:hover polygon { stroke: red; fill: red; }
]]></style>
<script type="application/ecmascript" xlink:href="svg.min.js"/>
<svg id="graph" class="graph">
<g id="graph0" class="graph" transform="scale(1 1) rotate(0) translate(4 167.5)">
<title>m_compute_cbc::s_compute_force_free_subsonic_outflow_l</title>
<!-- Node1 -->
<g id="Node000001" class="node">
<title>Node1</title>
<g id="a_Node000001"><a xlink:title="Force&#45;free subsonic outflow CBC (Thompson 1990, pg. 454)">
<polygon fill="#999999" stroke="#666666" points="169,-102 0,-102 0,-72 169,-72 169,-102"/>
<text text-anchor="start" x="8" y="-90" font-family="Helvetica,sans-Serif" font-size="10.00">m_compute_cbc::s_compute</text>
<text text-anchor="middle" x="84.5" y="-79" font-family="Helvetica,sans-Serif" font-size="10.00">_force_free_subsonic_outflow_l</text>
</a>
</g>
</g>
<!-- Node2 -->
<g id="Node000002" class="node">
<title>Node2</title>
<g id="a_Node000002"><a xlink:href="namespacem__compute__cbc.html#a43a95a8f5fba461f1a1aa5f8b69e7a89" target="_top" xlink:title="Base L1 calculation.">
<polygon fill="white" stroke="#666666" points="354,-163.5 205,-163.5 205,-144.5 354,-144.5 354,-163.5"/>
<text text-anchor="middle" x="279.5" y="-151.5" font-family="Helvetica,sans-Serif" font-size="10.00">m_compute_cbc::f_base_l1</text>
</a>
</g>
</g>
<!-- Node1&#45;&gt;Node2 -->
<g id="edge1_Node000001_Node000002" class="edge">
<title>Node1&#45;&gt;Node2</title>
<g id="a_edge1_Node000001_Node000002"><a xlink:title=" ">
<path fill="none" stroke="#63b8ff" d="M119.58,-102.05C143.25,-112.17 175.69,-125.37 205,-135 212.4,-137.43 220.29,-139.75 228.06,-141.88"/>
<polygon fill="#63b8ff" stroke="#63b8ff" points="227.23,-145.28 237.79,-144.47 229.03,-138.52 227.23,-145.28"/>
</a>
</g>
</g>
<!-- Node3 -->
<g id="Node000003" class="node">
<title>Node3</title>
<g id="a_Node000003"><a xlink:href="namespacem__compute__cbc.html#a74880092326e75470a2d9c280b7a04ac" target="_top" xlink:title="Fill advection L variables.">
<polygon fill="white" stroke="#666666" points="342,-126 217,-126 217,-96 342,-96 342,-126"/>
<text text-anchor="start" x="225" y="-114" font-family="Helvetica,sans-Serif" font-size="10.00">m_compute_cbc::s_fill</text>
<text text-anchor="middle" x="279.5" y="-103" font-family="Helvetica,sans-Serif" font-size="10.00">_advection_l</text>
</a>
</g>
</g>
<!-- Node1&#45;&gt;Node3 -->
<g id="edge2_Node000001_Node000003" class="edge">
<title>Node1&#45;&gt;Node3</title>
<g id="a_edge2_Node000001_Node000003"><a xlink:title=" ">
<path fill="none" stroke="#63b8ff" d="M169.03,-97.39C181.61,-98.95 194.48,-100.55 206.78,-102.08"/>
<polygon fill="#63b8ff" stroke="#63b8ff" points="206.6,-105.59 216.95,-103.35 207.46,-98.64 206.6,-105.59"/>
</a>
</g>
</g>
<!-- Node4 -->
<g id="Node000004" class="node">
<title>Node4</title>
<g id="a_Node000004"><a xlink:href="namespacem__compute__cbc.html#addf675a0a09c1ee2cb72c190fa2c55f4" target="_top" xlink:title="Fill density L variables.">
<polygon fill="white" stroke="#666666" points="342,-78 217,-78 217,-48 342,-48 342,-78"/>
<text text-anchor="start" x="225" y="-66" font-family="Helvetica,sans-Serif" font-size="10.00">m_compute_cbc::s_fill</text>
<text text-anchor="middle" x="279.5" y="-55" font-family="Helvetica,sans-Serif" font-size="10.00">_density_l</text>
</a>
</g>
</g>
<!-- Node1&#45;&gt;Node4 -->
<g id="edge3_Node000001_Node000004" class="edge">
<title>Node1&#45;&gt;Node4</title>
<g id="a_edge3_Node000001_Node000004"><a xlink:title=" ">
<path fill="none" stroke="#63b8ff" d="M169.03,-76.61C181.61,-75.05 194.48,-73.45 206.78,-71.92"/>
<polygon fill="#63b8ff" stroke="#63b8ff" points="207.46,-75.36 216.95,-70.65 206.6,-68.41 207.46,-75.36"/>
</a>
</g>
</g>
<!-- Node5 -->
<g id="Node000005" class="node">
<title>Node5</title>
<g id="a_Node000005"><a xlink:href="namespacem__compute__cbc.html#a8b8ae8cdb983562cf41f680526885fde" target="_top" xlink:title="Fill velocity L variables.">
<polygon fill="white" stroke="#666666" points="342,-30 217,-30 217,0 342,0 342,-30"/>
<text text-anchor="start" x="225" y="-18" font-family="Helvetica,sans-Serif" font-size="10.00">m_compute_cbc::s_fill</text>
<text text-anchor="middle" x="279.5" y="-7" font-family="Helvetica,sans-Serif" font-size="10.00">_velocity_l</text>
</a>
</g>
</g>
<!-- Node1&#45;&gt;Node5 -->
<g id="edge4_Node000001_Node000005" class="edge">
<title>Node1&#45;&gt;Node5</title>
<g id="a_edge4_Node000001_Node000005"><a xlink:title=" ">
<path fill="none" stroke="#63b8ff" d="M121.08,-71.99C144.72,-62.19 176.53,-49.35 205,-39 210.2,-37.11 215.64,-35.2 221.1,-33.34"/>
<polygon fill="#63b8ff" stroke="#63b8ff" points="222.54,-36.54 230.9,-30.03 220.3,-29.91 222.54,-36.54"/>
</a>
</g>
</g>
</g>
</svg>
</svg>

<style type='text/css'>
<![CDATA[
[data-mouse-over-selected='false'] { opacity: 0.7; }
[data-mouse-over-selected='true']  { opacity: 1.0; }
]]>
</style>
<script type="application/ecmascript"><![CDATA[
document.addEventListener('DOMContentLoaded', (event) => {
  highlightEdges();
  highlightAdjacentNodes();
});
]]></script>
</svg>
