<?xml version="1.0" encoding="UTF-8" standalone="no"?>
<!DOCTYPE svg PUBLIC "-//W3C//DTD SVG 1.1//EN"
 "http://www.w3.org/Graphics/SVG/1.1/DTD/svg11.dtd">
<!-- Generated by graphviz version 2.43.0 (0)
 -->
<!-- Title: m_bubbles_el_kernels::s_smoothfunction Pages: 1 -->
<svg width="481pt" height="230pt"
 viewBox="0.00 0.00 481.00 230.00" xmlns="http://www.w3.org/2000/svg" xmlns:xlink="http://www.w3.org/1999/xlink">

<svg id="main" version="1.1" xmlns="http://www.w3.org/2000/svg" xmlns:xlink="http://www.w3.org/1999/xlink" xml:space="preserve">

<style type="text/css"><![CDATA[
.node, .edge {opacity: 0.7;}
.node.selected, .edge.selected {opacity: 1;}
.edge:hover path { stroke: red; }
.edge:hover polygon { stroke: red; fill: red; }
]]></style>
<script type="application/ecmascript" xlink:href="svg.min.js"/>
<svg id="graph" class="graph">
<g id="graph0" class="graph" transform="scale(1 1) rotate(0) translate(4 226)">
<title>m_bubbles_el_kernels::s_smoothfunction</title>
<!-- Node1 -->
<g id="Node000001" class="node">
<title>Node1</title>
<g id="a_Node000001"><a xlink:title="The purpose of this subroutine is to smear the strength of the lagrangian bubbles into the Eulerian f...">
<polygon fill="#999999" stroke="#666666" points="125,-174 0,-174 0,-144 125,-144 125,-174"/>
<text text-anchor="start" x="8" y="-162" font-family="Helvetica,sans-Serif" font-size="10.00">m_bubbles_el_kernels</text>
<text text-anchor="middle" x="62.5" y="-151" font-family="Helvetica,sans-Serif" font-size="10.00">::s_smoothfunction</text>
</a>
</g>
</g>
<!-- Node2 -->
<g id="Node000002" class="node">
<title>Node2</title>
<g id="a_Node000002"><a xlink:href="namespacem__bubbles__el__kernels.html#af113cc86b3a1871d381e246c36d96762" target="_top" xlink:title="The purpose of this procedure contains the algorithm to use the delta kernel function to map the effe...">
<polygon fill="white" stroke="#666666" points="286,-210 161,-210 161,-180 286,-180 286,-210"/>
<text text-anchor="start" x="169" y="-198" font-family="Helvetica,sans-Serif" font-size="10.00">m_bubbles_el_kernels</text>
<text text-anchor="middle" x="223.5" y="-187" font-family="Helvetica,sans-Serif" font-size="10.00">::s_deltafunc</text>
</a>
</g>
</g>
<!-- Node1&#45;&gt;Node2 -->
<g id="edge1_Node000001_Node000002" class="edge">
<title>Node1&#45;&gt;Node2</title>
<g id="a_edge1_Node000001_Node000002"><a xlink:title=" ">
<path fill="none" stroke="#63b8ff" d="M125.43,-173.02C133.76,-174.91 142.37,-176.86 150.86,-178.78"/>
<polygon fill="#63b8ff" stroke="#63b8ff" points="150.21,-182.22 160.74,-181.02 151.76,-175.39 150.21,-182.22"/>
</a>
</g>
</g>
<!-- Node4 -->
<g id="Node000004" class="node">
<title>Node4</title>
<g id="a_Node000004"><a xlink:href="namespacem__bubbles__el__kernels.html#a4236a62c45846f9546a10a88a19e4eff" target="_top" xlink:title="The purpose of this procedure contains the algorithm to use the gaussian kernel function to map the e...">
<polygon fill="white" stroke="#666666" points="286,-150 161,-150 161,-120 286,-120 286,-150"/>
<text text-anchor="start" x="169" y="-138" font-family="Helvetica,sans-Serif" font-size="10.00">m_bubbles_el_kernels</text>
<text text-anchor="middle" x="223.5" y="-127" font-family="Helvetica,sans-Serif" font-size="10.00">::s_gaussian</text>
</a>
</g>
</g>
<!-- Node1&#45;&gt;Node4 -->
<g id="edge3_Node000001_Node000004" class="edge">
<title>Node1&#45;&gt;Node4</title>
<g id="a_edge3_Node000001_Node000004"><a xlink:title=" ">
<path fill="none" stroke="#63b8ff" d="M125.43,-149.65C133.67,-148.41 142.18,-147.12 150.58,-145.86"/>
<polygon fill="#63b8ff" stroke="#63b8ff" points="151.37,-149.28 160.74,-144.32 150.33,-142.35 151.37,-149.28"/>
</a>
</g>
</g>
<!-- Node3 -->
<g id="Node000003" class="node">
<title>Node3</title>
<g id="a_Node000003"><a xlink:href="namespacem__bubbles__el__kernels.html#ae949e3cc1b67de45cd774a28d8d98b19" target="_top" xlink:title="This subroutine transforms the computational coordinates of the bubble from real type into integer.">
<polygon fill="white" stroke="#666666" points="460,-222 335,-222 335,-192 460,-192 460,-222"/>
<text text-anchor="start" x="343" y="-210" font-family="Helvetica,sans-Serif" font-size="10.00">m_bubbles_el_kernels</text>
<text text-anchor="middle" x="397.5" y="-199" font-family="Helvetica,sans-Serif" font-size="10.00">::s_get_cell</text>
</a>
</g>
</g>
<!-- Node2&#45;&gt;Node3 -->
<g id="edge2_Node000002_Node000003" class="edge">
<title>Node2&#45;&gt;Node3</title>
<g id="a_edge2_Node000002_Node000003"><a xlink:title=" ">
<path fill="none" stroke="#63b8ff" d="M286.11,-199.3C298.58,-200.17 311.8,-201.09 324.6,-201.98"/>
<polygon fill="#63b8ff" stroke="#63b8ff" points="324.52,-205.49 334.74,-202.69 325.01,-198.5 324.52,-205.49"/>
</a>
</g>
</g>
<!-- Node4&#45;&gt;Node3 -->
<g id="edge7_Node000004_Node000003" class="edge">
<title>Node4&#45;&gt;Node3</title>
<g id="a_edge7_Node000004_Node000003"><a xlink:title=" ">
<path fill="none" stroke="#63b8ff" d="M252.58,-150.19C271.8,-160.24 298.04,-173.3 322,-183 326.76,-184.93 331.74,-186.81 336.76,-188.61"/>
<polygon fill="#63b8ff" stroke="#63b8ff" points="335.85,-192 346.45,-191.99 338.16,-185.39 335.85,-192"/>
</a>
</g>
</g>
<!-- Node5 -->
<g id="Node000005" class="node">
<title>Node5</title>
<g id="a_Node000005"><a xlink:href="namespacem__bubbles__el__kernels.html#a3a80d447e147039f919771f64753c7c6" target="_top" xlink:title="The purpose of this subroutine is to apply the gaussian kernel function for each bubble (Maeda and Co...">
<polygon fill="white" stroke="#666666" points="460,-174 335,-174 335,-144 460,-144 460,-174"/>
<text text-anchor="start" x="343" y="-162" font-family="Helvetica,sans-Serif" font-size="10.00">m_bubbles_el_kernels</text>
<text text-anchor="middle" x="397.5" y="-151" font-family="Helvetica,sans-Serif" font-size="10.00">::s_applygaussian</text>
</a>
</g>
</g>
<!-- Node4&#45;&gt;Node5 -->
<g id="edge4_Node000004_Node000005" class="edge">
<title>Node4&#45;&gt;Node5</title>
<g id="a_edge4_Node000004_Node000005"><a xlink:title=" ">
<path fill="none" stroke="#63b8ff" d="M286.11,-143.6C298.58,-145.34 311.8,-147.18 324.6,-148.97"/>
<polygon fill="#63b8ff" stroke="#63b8ff" points="324.35,-152.47 334.74,-150.38 325.32,-145.53 324.35,-152.47"/>
</a>
</g>
</g>
<!-- Node6 -->
<g id="Node000006" class="node">
<title>Node6</title>
<g id="a_Node000006"><a xlink:href="namespacem__bubbles__el__kernels.html#a3cab763fb4ff9f86bd275df5b08973ee" target="_top" xlink:title="The purpose of this subroutine is to check if the current cell is outside the computational domain or...">
<polygon fill="white" stroke="#666666" points="460,-126 335,-126 335,-96 460,-96 460,-126"/>
<text text-anchor="start" x="343" y="-114" font-family="Helvetica,sans-Serif" font-size="10.00">m_bubbles_el_kernels</text>
<text text-anchor="middle" x="397.5" y="-103" font-family="Helvetica,sans-Serif" font-size="10.00">::s_check_celloutside</text>
</a>
</g>
</g>
<!-- Node4&#45;&gt;Node6 -->
<g id="edge5_Node000004_Node000006" class="edge">
<title>Node4&#45;&gt;Node6</title>
<g id="a_edge5_Node000004_Node000006"><a xlink:title=" ">
<path fill="none" stroke="#63b8ff" d="M286.11,-126.4C298.58,-124.66 311.8,-122.82 324.6,-121.03"/>
<polygon fill="#63b8ff" stroke="#63b8ff" points="325.32,-124.47 334.74,-119.62 324.35,-117.53 325.32,-124.47"/>
</a>
</g>
</g>
<!-- Node7 -->
<g id="Node000007" class="node">
<title>Node7</title>
<g id="a_Node000007"><a xlink:href="namespacem__bubbles__el__kernels.html#ab520e33e8f83634d629331a30fe04ddf" target="_top" xlink:title="Calculates the standard deviation of the bubble being smeared in the Eulerian framework.">
<polygon fill="white" stroke="#666666" points="460,-78 335,-78 335,-48 460,-48 460,-78"/>
<text text-anchor="start" x="343" y="-66" font-family="Helvetica,sans-Serif" font-size="10.00">m_bubbles_el_kernels</text>
<text text-anchor="middle" x="397.5" y="-55" font-family="Helvetica,sans-Serif" font-size="10.00">::s_compute_stddsv</text>
</a>
</g>
</g>
<!-- Node4&#45;&gt;Node7 -->
<g id="edge6_Node000004_Node000007" class="edge">
<title>Node4&#45;&gt;Node7</title>
<g id="a_edge6_Node000004_Node000007"><a xlink:title=" ">
<path fill="none" stroke="#63b8ff" d="M252.58,-119.81C271.8,-109.76 298.04,-96.7 322,-87 326.76,-85.07 331.74,-83.19 336.76,-81.39"/>
<polygon fill="#63b8ff" stroke="#63b8ff" points="338.16,-84.61 346.45,-78.01 335.85,-78 338.16,-84.61"/>
</a>
</g>
</g>
<!-- Node8 -->
<g id="Node000008" class="node">
<title>Node8</title>
<g id="a_Node000008"><a xlink:href="namespacem__bubbles__el__kernels.html#aa3d9eceb02c1dcaf6b264ff716944828" target="_top" xlink:title="This subroutine relocates the current cell, if it intersects a symmetric boundary.">
<polygon fill="white" stroke="#666666" points="473,-30 322,-30 322,0 473,0 473,-30"/>
<text text-anchor="start" x="330" y="-18" font-family="Helvetica,sans-Serif" font-size="10.00">m_bubbles_el_kernels</text>
<text text-anchor="middle" x="397.5" y="-7" font-family="Helvetica,sans-Serif" font-size="10.00">::s_shift_cell_symmetric_bc</text>
</a>
</g>
</g>
<!-- Node4&#45;&gt;Node8 -->
<g id="edge8_Node000004_Node000008" class="edge">
<title>Node4&#45;&gt;Node8</title>
<g id="a_edge8_Node000004_Node000008"><a xlink:title=" ">
<path fill="none" stroke="#63b8ff" d="M236.07,-119.8C252.82,-98.76 285.83,-60.91 322,-39 324.79,-37.31 327.71,-35.73 330.71,-34.24"/>
<polygon fill="#63b8ff" stroke="#63b8ff" points="332.25,-37.39 339.92,-30.09 329.37,-31.01 332.25,-37.39"/>
</a>
</g>
</g>
</g>
</svg>
</svg>

<style type='text/css'>
<![CDATA[
[data-mouse-over-selected='false'] { opacity: 0.7; }
[data-mouse-over-selected='true']  { opacity: 1.0; }
]]>
</style>
<script type="application/ecmascript"><![CDATA[
document.addEventListener('DOMContentLoaded', (event) => {
  highlightEdges();
  highlightAdjacentNodes();
});
]]></script>
</svg>
