<?xml version="1.0" encoding="UTF-8" standalone="no"?>
<!DOCTYPE svg PUBLIC "-//W3C//DTD SVG 1.1//EN"
 "http://www.w3.org/Graphics/SVG/1.1/DTD/svg11.dtd">
<!-- Generated by graphviz version 2.43.0 (0)
 -->
<!-- Title: m_sim_helpers::f_compute_multidim_cfl_terms Pages: 1 -->
<svg width="510pt" height="86pt"
 viewBox="0.00 0.00 510.00 86.00" xmlns="http://www.w3.org/2000/svg" xmlns:xlink="http://www.w3.org/1999/xlink">
<g id="graph0" class="graph" transform="scale(1 1) rotate(0) translate(4 82)">
<title>m_sim_helpers::f_compute_multidim_cfl_terms</title>
<!-- Node1 -->
<g id="Node000001" class="node">
<title>Node1</title>
<g id="a_Node000001"><a xlink:title="Computes inviscid CFL terms for multi&#45;dimensional cases (2D/3D only)">
<polygon fill="#999999" stroke="#666666" points="502,-54 353,-54 353,-24 502,-24 502,-54"/>
<text text-anchor="start" x="361" y="-42" font-family="Helvetica,sans-Serif" font-size="10.00">m_sim_helpers::f_compute</text>
<text text-anchor="middle" x="427.5" y="-31" font-family="Helvetica,sans-Serif" font-size="10.00">_multidim_cfl_terms</text>
</a>
</g>
</g>
<!-- Node2 -->
<g id="Node000002" class="node">
<title>Node2</title>
<g id="a_Node000002"><a xlink:href="namespacem__sim__helpers.html#a3d187753f4e292887a3030707059b421" target="_top" xlink:title="Computes dt for a specified CFL number.">
<polygon fill="white" stroke="#666666" points="317,-78 167,-78 167,-48 317,-48 317,-78"/>
<text text-anchor="start" x="175" y="-66" font-family="Helvetica,sans-Serif" font-size="10.00">m_sim_helpers::s_compute</text>
<text text-anchor="middle" x="242" y="-55" font-family="Helvetica,sans-Serif" font-size="10.00">_dt_from_cfl</text>
</a>
</g>
</g>
<!-- Node1&#45;&gt;Node2 -->
<g id="edge1_Node000001_Node000002" class="edge">
<title>Node1&#45;&gt;Node2</title>
<g id="a_edge1_Node000001_Node000002"><a xlink:title=" ">
<path fill="none" stroke="#63b8ff" d="M342.91,-49.93C334.34,-51.05 325.66,-52.19 317.19,-53.3"/>
<polygon fill="#63b8ff" stroke="#63b8ff" points="343.46,-53.39 352.92,-48.62 342.55,-46.45 343.46,-53.39"/>
</a>
</g>
</g>
<!-- Node3 -->
<g id="Node000003" class="node">
<title>Node3</title>
<g id="a_Node000003"><a xlink:href="namespacem__sim__helpers.html#ad7c9828a95b779c9c011d9d052df9eaa" target="_top" xlink:title="Computes stability criterion for a specified dt.">
<polygon fill="white" stroke="#666666" points="317,-30 167,-30 167,0 317,0 317,-30"/>
<text text-anchor="start" x="175" y="-18" font-family="Helvetica,sans-Serif" font-size="10.00">m_sim_helpers::s_compute</text>
<text text-anchor="middle" x="242" y="-7" font-family="Helvetica,sans-Serif" font-size="10.00">_stability_from_dt</text>
</a>
</g>
</g>
<!-- Node1&#45;&gt;Node3 -->
<g id="edge2_Node000001_Node000003" class="edge">
<title>Node1&#45;&gt;Node3</title>
<g id="a_edge2_Node000001_Node000003"><a xlink:title=" ">
<path fill="none" stroke="#63b8ff" d="M342.91,-28.07C334.34,-26.95 325.66,-25.81 317.19,-24.7"/>
<polygon fill="#63b8ff" stroke="#63b8ff" points="342.55,-31.55 352.92,-29.38 343.46,-24.61 342.55,-31.55"/>
</a>
</g>
</g>
<!-- Node4 -->
<g id="Node000004" class="node">
<title>Node4</title>
<g id="a_Node000004"><a xlink:href="namespacem__data__output.html#ac4254f90208d2808b6b214e857e79d9a" target="_top" xlink:title="The goal of the procedure is to output to the run&#45;time information file the stability criteria extrem...">
<polygon fill="white" stroke="#666666" points="131,-30 0,-30 0,0 131,0 131,-30"/>
<text text-anchor="start" x="8" y="-18" font-family="Helvetica,sans-Serif" font-size="10.00">m_data_output::s_write</text>
<text text-anchor="middle" x="65.5" y="-7" font-family="Helvetica,sans-Serif" font-size="10.00">_run_time_information</text>
</a>
</g>
</g>
<!-- Node3&#45;&gt;Node4 -->
<g id="edge3_Node000003_Node000004" class="edge">
<title>Node3&#45;&gt;Node4</title>
<g id="a_edge3_Node000003_Node000004"><a xlink:title=" ">
<path fill="none" stroke="#63b8ff" d="M156.9,-15C148.27,-15 139.6,-15 131.23,-15"/>
<polygon fill="#63b8ff" stroke="#63b8ff" points="157,-18.5 167,-15 157,-11.5 157,-18.5"/>
</a>
</g>
</g>
</g>
</svg>
