<?xml version="1.0" encoding="UTF-8" standalone="no"?>
<!DOCTYPE svg PUBLIC "-//W3C//DTD SVG 1.1//EN"
 "http://www.w3.org/Graphics/SVG/1.1/DTD/svg11.dtd">
<!-- Generated by graphviz version 2.43.0 (0)
 -->
<!-- Title: m_bubbles_el_kernels::s_get_cell Pages: 1 -->
<svg width="455pt" height="86pt"
 viewBox="0.00 0.00 455.00 86.00" xmlns="http://www.w3.org/2000/svg" xmlns:xlink="http://www.w3.org/1999/xlink">
<g id="graph0" class="graph" transform="scale(1 1) rotate(0) translate(4 82)">
<title>m_bubbles_el_kernels::s_get_cell</title>
<!-- Node1 -->
<g id="Node000001" class="node">
<title>Node1</title>
<g id="a_Node000001"><a xlink:title="This subroutine transforms the computational coordinates of the bubble from real type into integer.">
<polygon fill="#999999" stroke="#666666" points="447,-54 322,-54 322,-24 447,-24 447,-54"/>
<text text-anchor="start" x="330" y="-42" font-family="Helvetica,sans-Serif" font-size="10.00">m_bubbles_el_kernels</text>
<text text-anchor="middle" x="384.5" y="-31" font-family="Helvetica,sans-Serif" font-size="10.00">::s_get_cell</text>
</a>
</g>
</g>
<!-- Node2 -->
<g id="Node000002" class="node">
<title>Node2</title>
<g id="a_Node000002"><a xlink:href="namespacem__bubbles__el__kernels.html#ab39120fb4dc29ef43dd574b0d9ffe3d6" target="_top" xlink:title="The purpose of this procedure contains the algorithm to use the delta kernel function to map the effe...">
<polygon fill="white" stroke="#666666" points="286,-78 161,-78 161,-48 286,-48 286,-78"/>
<text text-anchor="start" x="169" y="-66" font-family="Helvetica,sans-Serif" font-size="10.00">m_bubbles_el_kernels</text>
<text text-anchor="middle" x="223.5" y="-55" font-family="Helvetica,sans-Serif" font-size="10.00">::s_deltafunc</text>
</a>
</g>
</g>
<!-- Node1&#45;&gt;Node2 -->
<g id="edge1_Node000001_Node000002" class="edge">
<title>Node1&#45;&gt;Node2</title>
<g id="a_edge1_Node000001_Node000002"><a xlink:title=" ">
<path fill="none" stroke="#63b8ff" d="M311.41,-49.88C303.01,-51.15 294.5,-52.43 286.26,-53.68"/>
<polygon fill="#63b8ff" stroke="#63b8ff" points="312.21,-53.3 321.57,-48.35 311.16,-46.38 312.21,-53.3"/>
</a>
</g>
</g>
<!-- Node4 -->
<g id="Node000004" class="node">
<title>Node4</title>
<g id="a_Node000004"><a xlink:href="namespacem__bubbles__el__kernels.html#a5097cb745dea23438fba10e3cd45fb6c" target="_top" xlink:title="The purpose of this procedure contains the algorithm to use the gaussian kernel function to map the e...">
<polygon fill="white" stroke="#666666" points="286,-30 161,-30 161,0 286,0 286,-30"/>
<text text-anchor="start" x="169" y="-18" font-family="Helvetica,sans-Serif" font-size="10.00">m_bubbles_el_kernels</text>
<text text-anchor="middle" x="223.5" y="-7" font-family="Helvetica,sans-Serif" font-size="10.00">::s_gaussian</text>
</a>
</g>
</g>
<!-- Node1&#45;&gt;Node4 -->
<g id="edge3_Node000001_Node000004" class="edge">
<title>Node1&#45;&gt;Node4</title>
<g id="a_edge3_Node000001_Node000004"><a xlink:title=" ">
<path fill="none" stroke="#63b8ff" d="M311.41,-28.12C303.01,-26.85 294.5,-25.57 286.26,-24.32"/>
<polygon fill="#63b8ff" stroke="#63b8ff" points="311.16,-31.62 321.57,-29.65 312.21,-24.7 311.16,-31.62"/>
</a>
</g>
</g>
<!-- Node3 -->
<g id="Node000003" class="node">
<title>Node3</title>
<g id="a_Node000003"><a xlink:href="namespacem__bubbles__el__kernels.html#a0c4e638a7f4a6222f22325c28f10e73c" target="_top" xlink:title="The purpose of this subroutine is to smear the strength of the lagrangian bubbles into the Eulerian f...">
<polygon fill="white" stroke="#666666" points="125,-54 0,-54 0,-24 125,-24 125,-54"/>
<text text-anchor="start" x="8" y="-42" font-family="Helvetica,sans-Serif" font-size="10.00">m_bubbles_el_kernels</text>
<text text-anchor="middle" x="62.5" y="-31" font-family="Helvetica,sans-Serif" font-size="10.00">::s_smoothfunction</text>
</a>
</g>
</g>
<!-- Node2&#45;&gt;Node3 -->
<g id="edge2_Node000002_Node000003" class="edge">
<title>Node2&#45;&gt;Node3</title>
<g id="a_edge2_Node000002_Node000003"><a xlink:title=" ">
<path fill="none" stroke="#63b8ff" d="M150.41,-52.12C142.01,-50.85 133.5,-49.57 125.26,-48.32"/>
<polygon fill="#63b8ff" stroke="#63b8ff" points="150.16,-55.62 160.57,-53.65 151.21,-48.7 150.16,-55.62"/>
</a>
</g>
</g>
<!-- Node4&#45;&gt;Node3 -->
<g id="edge4_Node000004_Node000003" class="edge">
<title>Node4&#45;&gt;Node3</title>
<g id="a_edge4_Node000004_Node000003"><a xlink:title=" ">
<path fill="none" stroke="#63b8ff" d="M150.41,-25.88C142.01,-27.15 133.5,-28.43 125.26,-29.68"/>
<polygon fill="#63b8ff" stroke="#63b8ff" points="151.21,-29.3 160.57,-24.35 150.16,-22.38 151.21,-29.3"/>
</a>
</g>
</g>
</g>
</svg>
