<?xml version="1.0" encoding="UTF-8" standalone="no"?>
<!DOCTYPE svg PUBLIC "-//W3C//DTD SVG 1.1//EN"
 "http://www.w3.org/Graphics/SVG/1.1/DTD/svg11.dtd">
<!-- Generated by graphviz version 2.43.0 (0)
 -->
<!-- Title: m_start_up::s_read_parallel_data_files Pages: 1 -->
<svg width="479pt" height="290pt"
 viewBox="0.00 0.00 479.00 289.50" xmlns="http://www.w3.org/2000/svg" xmlns:xlink="http://www.w3.org/1999/xlink">

<svg id="main" version="1.1" xmlns="http://www.w3.org/2000/svg" xmlns:xlink="http://www.w3.org/1999/xlink" xml:space="preserve">

<style type="text/css"><![CDATA[
.node, .edge {opacity: 0.7;}
.node.selected, .edge.selected {opacity: 1;}
.edge:hover path { stroke: red; }
.edge:hover polygon { stroke: red; fill: red; }
]]></style>
<script type="application/ecmascript" xlink:href="svg.min.js"/>
<svg id="graph" class="graph">
<g id="graph0" class="graph" transform="scale(1 1) rotate(0) translate(4 285.5)">
<title>m_start_up::s_read_parallel_data_files</title>
<!-- Node1 -->
<g id="Node000001" class="node">
<title>Node1</title>
<g id="a_Node000001"><a xlink:title=" ">
<polygon fill="#999999" stroke="#666666" points="111,-161.5 0,-161.5 0,-131.5 111,-131.5 111,-161.5"/>
<text text-anchor="start" x="8" y="-149.5" font-family="Helvetica,sans-Serif" font-size="10.00">m_start_up::s_read</text>
<text text-anchor="middle" x="55.5" y="-138.5" font-family="Helvetica,sans-Serif" font-size="10.00">_parallel_data_files</text>
</a>
</g>
</g>
<!-- Node2 -->
<g id="Node000002" class="node">
<title>Node2</title>
<g id="a_Node000002"><a xlink:href="namespacem__boundary__common.html#af8621fd7814593e9a18ba4d1461723d0" target="_top" xlink:title=" ">
<polygon fill="white" stroke="#666666" points="296.5,-281.5 154.5,-281.5 154.5,-251.5 296.5,-251.5 296.5,-281.5"/>
<text text-anchor="start" x="162.5" y="-269.5" font-family="Helvetica,sans-Serif" font-size="10.00">m_boundary_common::</text>
<text text-anchor="middle" x="225.5" y="-258.5" font-family="Helvetica,sans-Serif" font-size="10.00">s_assign_default_bc_type</text>
</a>
</g>
</g>
<!-- Node1&#45;&gt;Node2 -->
<g id="edge1_Node000001_Node000002" class="edge">
<title>Node1&#45;&gt;Node2</title>
<g id="a_edge1_Node000001_Node000002"><a xlink:title=" ">
<path fill="none" stroke="#63b8ff" d="M66.95,-161.8C82.17,-182.94 112.4,-220.93 147,-242.5 149.75,-244.21 152.63,-245.81 155.6,-247.31"/>
<polygon fill="#63b8ff" stroke="#63b8ff" points="154.16,-250.5 164.71,-251.47 157.06,-244.13 154.16,-250.5"/>
</a>
</g>
</g>
<!-- Node3 -->
<g id="Node000003" class="node">
<title>Node3</title>
<g id="a_Node000003"><a xlink:href="namespacem__mpi__common.html#a2b579eba6293e56232ba5129614b5a18" target="_top" xlink:title=" ">
<polygon fill="white" stroke="#666666" points="304,-233.5 147,-233.5 147,-203.5 304,-203.5 304,-233.5"/>
<text text-anchor="start" x="155" y="-221.5" font-family="Helvetica,sans-Serif" font-size="10.00">m_mpi_common::s_initialize</text>
<text text-anchor="middle" x="225.5" y="-210.5" font-family="Helvetica,sans-Serif" font-size="10.00">_mpi_data</text>
</a>
</g>
</g>
<!-- Node1&#45;&gt;Node3 -->
<g id="edge2_Node000001_Node000003" class="edge">
<title>Node1&#45;&gt;Node3</title>
<g id="a_edge2_Node000001_Node000003"><a xlink:title=" ">
<path fill="none" stroke="#63b8ff" d="M82.01,-161.69C99.81,-171.87 124.34,-185.08 147,-194.5 151.68,-196.44 156.57,-198.32 161.52,-200.1"/>
<polygon fill="#63b8ff" stroke="#63b8ff" points="160.49,-203.44 171.08,-203.4 162.78,-196.83 160.49,-203.44"/>
</a>
</g>
</g>
<!-- Node4 -->
<g id="Node000004" class="node">
<title>Node4</title>
<g id="a_Node000004"><a xlink:href="namespacem__mpi__common.html#a564644bad898d940dc6caea3297bb424" target="_top" xlink:title=" ">
<polygon fill="white" stroke="#666666" points="304,-185.5 147,-185.5 147,-155.5 304,-155.5 304,-185.5"/>
<text text-anchor="start" x="155" y="-173.5" font-family="Helvetica,sans-Serif" font-size="10.00">m_mpi_common::s_initialize</text>
<text text-anchor="middle" x="225.5" y="-162.5" font-family="Helvetica,sans-Serif" font-size="10.00">_mpi_data_ds</text>
</a>
</g>
</g>
<!-- Node1&#45;&gt;Node4 -->
<g id="edge3_Node000001_Node000004" class="edge">
<title>Node1&#45;&gt;Node4</title>
<g id="a_edge3_Node000001_Node000004"><a xlink:title=" ">
<path fill="none" stroke="#63b8ff" d="M111.04,-154.29C119.33,-155.48 128.05,-156.72 136.83,-157.98"/>
<polygon fill="#63b8ff" stroke="#63b8ff" points="136.34,-161.44 146.73,-159.39 137.33,-154.51 136.34,-161.44"/>
</a>
</g>
</g>
<!-- Node5 -->
<g id="Node000005" class="node">
<title>Node5</title>
<g id="a_Node000005"><a xlink:href="namespacem__mpi__common.html#a04cfc0bdb377a0ce2f9fd478e4bb3807" target="_top" xlink:title="The subroutine terminates the MPI execution environment.">
<polygon fill="white" stroke="#666666" points="292.5,-137.5 158.5,-137.5 158.5,-107.5 292.5,-107.5 292.5,-137.5"/>
<text text-anchor="start" x="166.5" y="-125.5" font-family="Helvetica,sans-Serif" font-size="10.00">m_mpi_common::s_mpi</text>
<text text-anchor="middle" x="225.5" y="-114.5" font-family="Helvetica,sans-Serif" font-size="10.00">_abort</text>
</a>
</g>
</g>
<!-- Node1&#45;&gt;Node5 -->
<g id="edge4_Node000001_Node000005" class="edge">
<title>Node1&#45;&gt;Node5</title>
<g id="a_edge4_Node000001_Node000005"><a xlink:title=" ">
<path fill="none" stroke="#63b8ff" d="M111.04,-138.71C122.99,-137 135.84,-135.17 148.46,-133.36"/>
<polygon fill="#63b8ff" stroke="#63b8ff" points="149.09,-136.81 158.5,-131.93 148.1,-129.88 149.09,-136.81"/>
</a>
</g>
</g>
<!-- Node6 -->
<g id="Node000006" class="node">
<title>Node6</title>
<g id="a_Node000006"><a xlink:href="namespacem__mpi__common.html#a1073fc1fcb6f3b9394606d5c9285e9f0" target="_top" xlink:title="Halts all processes until all have reached barrier.">
<polygon fill="white" stroke="#666666" points="292.5,-89.5 158.5,-89.5 158.5,-59.5 292.5,-59.5 292.5,-89.5"/>
<text text-anchor="start" x="166.5" y="-77.5" font-family="Helvetica,sans-Serif" font-size="10.00">m_mpi_common::s_mpi</text>
<text text-anchor="middle" x="225.5" y="-66.5" font-family="Helvetica,sans-Serif" font-size="10.00">_barrier</text>
</a>
</g>
</g>
<!-- Node1&#45;&gt;Node6 -->
<g id="edge5_Node000001_Node000006" class="edge">
<title>Node1&#45;&gt;Node6</title>
<g id="a_edge5_Node000001_Node000006"><a xlink:title=" ">
<path fill="none" stroke="#63b8ff" d="M82.01,-131.31C99.81,-121.13 124.34,-107.92 147,-98.5 151.68,-96.56 156.57,-94.68 161.52,-92.9"/>
<polygon fill="#63b8ff" stroke="#63b8ff" points="162.78,-96.17 171.08,-89.6 160.49,-89.56 162.78,-96.17"/>
</a>
</g>
</g>
<!-- Node7 -->
<g id="Node000007" class="node">
<title>Node7</title>
<g id="a_Node000007"><a xlink:href="namespacem__boundary__common.html#a81909d1af9c5476df6c091b1e714ca99" target="_top" xlink:title=" ">
<polygon fill="white" stroke="#666666" points="296.5,-41 154.5,-41 154.5,0 296.5,0 296.5,-41"/>
<text text-anchor="start" x="162.5" y="-29" font-family="Helvetica,sans-Serif" font-size="10.00">m_boundary_common::</text>
<text text-anchor="start" x="162.5" y="-18" font-family="Helvetica,sans-Serif" font-size="10.00">s_read_parallel_boundary</text>
<text text-anchor="middle" x="225.5" y="-7" font-family="Helvetica,sans-Serif" font-size="10.00">_condition_files</text>
</a>
</g>
</g>
<!-- Node1&#45;&gt;Node7 -->
<g id="edge6_Node000001_Node000007" class="edge">
<title>Node1&#45;&gt;Node7</title>
<g id="a_edge6_Node000001_Node000007"><a xlink:title=" ">
<path fill="none" stroke="#63b8ff" d="M67.43,-131.18C82.97,-110.36 113.36,-73.13 147,-50.5 149.41,-48.88 151.93,-47.32 154.51,-45.84"/>
<polygon fill="#63b8ff" stroke="#63b8ff" points="156.33,-48.84 163.52,-41.05 153.04,-42.65 156.33,-48.84"/>
</a>
</g>
</g>
<!-- Node8 -->
<g id="Node000008" class="node">
<title>Node8</title>
<g id="a_Node000008"><a xlink:href="namespacem__boundary__common.html#ab5d422a797dcdf7a95587c937dbdf74c" target="_top" xlink:title=" ">
<polygon fill="white" stroke="#666666" points="471,-35.5 340,-35.5 340,-5.5 471,-5.5 471,-35.5"/>
<text text-anchor="start" x="348" y="-23.5" font-family="Helvetica,sans-Serif" font-size="10.00">m_boundary_common::</text>
<text text-anchor="middle" x="405.5" y="-12.5" font-family="Helvetica,sans-Serif" font-size="10.00">s_create_mpi_types</text>
</a>
</g>
</g>
<!-- Node7&#45;&gt;Node8 -->
<g id="edge7_Node000007_Node000008" class="edge">
<title>Node7&#45;&gt;Node8</title>
<g id="a_edge7_Node000007_Node000008"><a xlink:title=" ">
<path fill="none" stroke="#63b8ff" d="M296.59,-20.5C307.54,-20.5 318.89,-20.5 329.94,-20.5"/>
<polygon fill="#63b8ff" stroke="#63b8ff" points="329.98,-24 339.98,-20.5 329.98,-17 329.98,-24"/>
</a>
</g>
</g>
</g>
</svg>
</svg>

<style type='text/css'>
<![CDATA[
[data-mouse-over-selected='false'] { opacity: 0.7; }
[data-mouse-over-selected='true']  { opacity: 1.0; }
]]>
</style>
<script type="application/ecmascript"><![CDATA[
document.addEventListener('DOMContentLoaded', (event) => {
  highlightEdges();
  highlightAdjacentNodes();
});
]]></script>
</svg>
