<?xml version="1.0" encoding="UTF-8" standalone="no"?>
<!DOCTYPE svg PUBLIC "-//W3C//DTD SVG 1.1//EN"
 "http://www.w3.org/Graphics/SVG/1.1/DTD/svg11.dtd">
<!-- Generated by graphviz version 2.43.0 (0)
 -->
<!-- Title: m_start_up::s_read_data_files Pages: 1 -->
<svg width="625pt" height="398pt"
 viewBox="0.00 0.00 625.00 397.50" xmlns="http://www.w3.org/2000/svg" xmlns:xlink="http://www.w3.org/1999/xlink">
<g id="graph0" class="graph" transform="scale(1 1) rotate(0) translate(4 393.5)">
<title>m_start_up::s_read_data_files</title>
<!-- Node1 -->
<g id="Node000001" class="node">
<title>Node1</title>
<g id="a_Node000001"><a xlink:title="Read data files. Dispatch subroutine that replaces procedure pointer.">
<polygon fill="#999999" stroke="#666666" points="110,-233.5 0,-233.5 0,-203.5 110,-203.5 110,-233.5"/>
<text text-anchor="start" x="8" y="-221.5" font-family="Helvetica,sans-Serif" font-size="10.00">m_start_up::s_read</text>
<text text-anchor="middle" x="55" y="-210.5" font-family="Helvetica,sans-Serif" font-size="10.00">_data_files</text>
</a>
</g>
</g>
<!-- Node2 -->
<g id="Node000002" class="node">
<title>Node2</title>
<g id="a_Node000002"><a xlink:href="namespacem__start__up.html#a3226ddf0c64cff078579641fda52781d" target="_top" xlink:title=" ">
<polygon fill="white" stroke="#666666" points="257,-185.5 146,-185.5 146,-155.5 257,-155.5 257,-185.5"/>
<text text-anchor="start" x="154" y="-173.5" font-family="Helvetica,sans-Serif" font-size="10.00">m_start_up::s_read</text>
<text text-anchor="middle" x="201.5" y="-162.5" font-family="Helvetica,sans-Serif" font-size="10.00">_parallel_data_files</text>
</a>
</g>
</g>
<!-- Node1&#45;&gt;Node2 -->
<g id="edge1_Node000001_Node000002" class="edge">
<title>Node1&#45;&gt;Node2</title>
<g id="a_edge1_Node000001_Node000002"><a xlink:title=" ">
<path fill="none" stroke="#63b8ff" d="M101.32,-203.44C115.31,-198.8 130.87,-193.63 145.44,-188.79"/>
<polygon fill="#63b8ff" stroke="#63b8ff" points="146.95,-191.98 155.34,-185.5 144.74,-185.33 146.95,-191.98"/>
</a>
</g>
</g>
<!-- Node10 -->
<g id="Node000010" class="node">
<title>Node10</title>
<g id="a_Node000010"><a xlink:href="namespacem__start__up.html#a1bf604b2afd7b81737153114d92e7c80" target="_top" xlink:title=" ">
<polygon fill="white" stroke="#666666" points="256.5,-281.5 146.5,-281.5 146.5,-251.5 256.5,-251.5 256.5,-281.5"/>
<text text-anchor="start" x="154.5" y="-269.5" font-family="Helvetica,sans-Serif" font-size="10.00">m_start_up::s_read</text>
<text text-anchor="middle" x="201.5" y="-258.5" font-family="Helvetica,sans-Serif" font-size="10.00">_serial_data_files</text>
</a>
</g>
</g>
<!-- Node1&#45;&gt;Node10 -->
<g id="edge9_Node000001_Node000010" class="edge">
<title>Node1&#45;&gt;Node10</title>
<g id="a_edge9_Node000001_Node000010"><a xlink:title=" ">
<path fill="none" stroke="#63b8ff" d="M101.32,-233.56C115.31,-238.2 130.87,-243.37 145.44,-248.21"/>
<polygon fill="#63b8ff" stroke="#63b8ff" points="144.74,-251.67 155.34,-251.5 146.95,-245.02 144.74,-251.67"/>
</a>
</g>
</g>
<!-- Node3 -->
<g id="Node000003" class="node">
<title>Node3</title>
<g id="a_Node000003"><a xlink:href="namespacem__boundary__common.html#af8621fd7814593e9a18ba4d1461723d0" target="_top" xlink:title=" ">
<polygon fill="white" stroke="#666666" points="442.5,-281.5 300.5,-281.5 300.5,-251.5 442.5,-251.5 442.5,-281.5"/>
<text text-anchor="start" x="308.5" y="-269.5" font-family="Helvetica,sans-Serif" font-size="10.00">m_boundary_common::</text>
<text text-anchor="middle" x="371.5" y="-258.5" font-family="Helvetica,sans-Serif" font-size="10.00">s_assign_default_bc_type</text>
</a>
</g>
</g>
<!-- Node2&#45;&gt;Node3 -->
<g id="edge2_Node000002_Node000003" class="edge">
<title>Node2&#45;&gt;Node3</title>
<g id="a_edge2_Node000002_Node000003"><a xlink:title=" ">
<path fill="none" stroke="#63b8ff" d="M217.88,-185.75C234.93,-201.89 263.89,-227.11 293,-242.5 296.47,-244.34 300.11,-246.06 303.83,-247.66"/>
<polygon fill="#63b8ff" stroke="#63b8ff" points="302.64,-250.96 313.22,-251.44 305.24,-244.46 302.64,-250.96"/>
</a>
</g>
</g>
<!-- Node4 -->
<g id="Node000004" class="node">
<title>Node4</title>
<g id="a_Node000004"><a xlink:href="namespacem__mpi__common.html#a2b579eba6293e56232ba5129614b5a18" target="_top" xlink:title=" ">
<polygon fill="white" stroke="#666666" points="450,-185.5 293,-185.5 293,-155.5 450,-155.5 450,-185.5"/>
<text text-anchor="start" x="301" y="-173.5" font-family="Helvetica,sans-Serif" font-size="10.00">m_mpi_common::s_initialize</text>
<text text-anchor="middle" x="371.5" y="-162.5" font-family="Helvetica,sans-Serif" font-size="10.00">_mpi_data</text>
</a>
</g>
</g>
<!-- Node2&#45;&gt;Node4 -->
<g id="edge3_Node000002_Node000004" class="edge">
<title>Node2&#45;&gt;Node4</title>
<g id="a_edge3_Node000002_Node000004"><a xlink:title=" ">
<path fill="none" stroke="#63b8ff" d="M257.04,-170.5C265.24,-170.5 273.86,-170.5 282.54,-170.5"/>
<polygon fill="#63b8ff" stroke="#63b8ff" points="282.73,-174 292.73,-170.5 282.73,-167 282.73,-174"/>
</a>
</g>
</g>
<!-- Node5 -->
<g id="Node000005" class="node">
<title>Node5</title>
<g id="a_Node000005"><a xlink:href="namespacem__mpi__common.html#a564644bad898d940dc6caea3297bb424" target="_top" xlink:title=" ">
<polygon fill="white" stroke="#666666" points="450,-137.5 293,-137.5 293,-107.5 450,-107.5 450,-137.5"/>
<text text-anchor="start" x="301" y="-125.5" font-family="Helvetica,sans-Serif" font-size="10.00">m_mpi_common::s_initialize</text>
<text text-anchor="middle" x="371.5" y="-114.5" font-family="Helvetica,sans-Serif" font-size="10.00">_mpi_data_ds</text>
</a>
</g>
</g>
<!-- Node2&#45;&gt;Node5 -->
<g id="edge4_Node000002_Node000005" class="edge">
<title>Node2&#45;&gt;Node5</title>
<g id="a_edge4_Node000002_Node000005"><a xlink:title=" ">
<path fill="none" stroke="#63b8ff" d="M255.2,-155.44C271.93,-150.66 290.59,-145.33 307.95,-140.37"/>
<polygon fill="#63b8ff" stroke="#63b8ff" points="309.34,-143.61 317.99,-137.5 307.41,-136.88 309.34,-143.61"/>
</a>
</g>
</g>
<!-- Node6 -->
<g id="Node000006" class="node">
<title>Node6</title>
<g id="a_Node000006"><a xlink:href="namespacem__mpi__common.html#a04cfc0bdb377a0ce2f9fd478e4bb3807" target="_top" xlink:title="The subroutine terminates the MPI execution environment.">
<polygon fill="white" stroke="#666666" points="438.5,-233.5 304.5,-233.5 304.5,-203.5 438.5,-203.5 438.5,-233.5"/>
<text text-anchor="start" x="312.5" y="-221.5" font-family="Helvetica,sans-Serif" font-size="10.00">m_mpi_common::s_mpi</text>
<text text-anchor="middle" x="371.5" y="-210.5" font-family="Helvetica,sans-Serif" font-size="10.00">_abort</text>
</a>
</g>
</g>
<!-- Node2&#45;&gt;Node6 -->
<g id="edge5_Node000002_Node000006" class="edge">
<title>Node2&#45;&gt;Node6</title>
<g id="a_edge5_Node000002_Node000006"><a xlink:title=" ">
<path fill="none" stroke="#63b8ff" d="M255.2,-185.56C271.93,-190.34 290.59,-195.67 307.95,-200.63"/>
<polygon fill="#63b8ff" stroke="#63b8ff" points="307.41,-204.12 317.99,-203.5 309.34,-197.39 307.41,-204.12"/>
</a>
</g>
</g>
<!-- Node7 -->
<g id="Node000007" class="node">
<title>Node7</title>
<g id="a_Node000007"><a xlink:href="namespacem__mpi__common.html#a1073fc1fcb6f3b9394606d5c9285e9f0" target="_top" xlink:title="Halts all processes until all have reached barrier.">
<polygon fill="white" stroke="#666666" points="438.5,-89.5 304.5,-89.5 304.5,-59.5 438.5,-59.5 438.5,-89.5"/>
<text text-anchor="start" x="312.5" y="-77.5" font-family="Helvetica,sans-Serif" font-size="10.00">m_mpi_common::s_mpi</text>
<text text-anchor="middle" x="371.5" y="-66.5" font-family="Helvetica,sans-Serif" font-size="10.00">_barrier</text>
</a>
</g>
</g>
<!-- Node2&#45;&gt;Node7 -->
<g id="edge6_Node000002_Node000007" class="edge">
<title>Node2&#45;&gt;Node7</title>
<g id="a_edge6_Node000002_Node000007"><a xlink:title=" ">
<path fill="none" stroke="#63b8ff" d="M217.88,-155.25C234.93,-139.11 263.89,-113.89 293,-98.5 296.47,-96.66 300.11,-94.94 303.83,-93.34"/>
<polygon fill="#63b8ff" stroke="#63b8ff" points="305.24,-96.54 313.22,-89.56 302.64,-90.04 305.24,-96.54"/>
</a>
</g>
</g>
<!-- Node8 -->
<g id="Node000008" class="node">
<title>Node8</title>
<g id="a_Node000008"><a xlink:href="namespacem__boundary__common.html#a81909d1af9c5476df6c091b1e714ca99" target="_top" xlink:title=" ">
<polygon fill="white" stroke="#666666" points="442.5,-41 300.5,-41 300.5,0 442.5,0 442.5,-41"/>
<text text-anchor="start" x="308.5" y="-29" font-family="Helvetica,sans-Serif" font-size="10.00">m_boundary_common::</text>
<text text-anchor="start" x="308.5" y="-18" font-family="Helvetica,sans-Serif" font-size="10.00">s_read_parallel_boundary</text>
<text text-anchor="middle" x="371.5" y="-7" font-family="Helvetica,sans-Serif" font-size="10.00">_condition_files</text>
</a>
</g>
</g>
<!-- Node2&#45;&gt;Node8 -->
<g id="edge7_Node000002_Node000008" class="edge">
<title>Node2&#45;&gt;Node8</title>
<g id="a_edge7_Node000002_Node000008"><a xlink:title=" ">
<path fill="none" stroke="#63b8ff" d="M210.19,-155.46C223.72,-130.39 254.07,-79.91 293,-50.5 294.87,-49.09 296.82,-47.73 298.82,-46.43"/>
<polygon fill="#63b8ff" stroke="#63b8ff" points="301.06,-49.18 307.92,-41.1 297.52,-43.14 301.06,-49.18"/>
</a>
</g>
</g>
<!-- Node9 -->
<g id="Node000009" class="node">
<title>Node9</title>
<g id="a_Node000009"><a xlink:href="namespacem__boundary__common.html#ab5d422a797dcdf7a95587c937dbdf74c" target="_top" xlink:title=" ">
<polygon fill="white" stroke="#666666" points="617,-35.5 486,-35.5 486,-5.5 617,-5.5 617,-35.5"/>
<text text-anchor="start" x="494" y="-23.5" font-family="Helvetica,sans-Serif" font-size="10.00">m_boundary_common::</text>
<text text-anchor="middle" x="551.5" y="-12.5" font-family="Helvetica,sans-Serif" font-size="10.00">s_create_mpi_types</text>
</a>
</g>
</g>
<!-- Node8&#45;&gt;Node9 -->
<g id="edge8_Node000008_Node000009" class="edge">
<title>Node8&#45;&gt;Node9</title>
<g id="a_edge8_Node000008_Node000009"><a xlink:title=" ">
<path fill="none" stroke="#63b8ff" d="M442.59,-20.5C453.54,-20.5 464.89,-20.5 475.94,-20.5"/>
<polygon fill="#63b8ff" stroke="#63b8ff" points="475.98,-24 485.98,-20.5 475.98,-17 475.98,-24"/>
</a>
</g>
</g>
<!-- Node10&#45;&gt;Node3 -->
<g id="edge11_Node000010_Node000003" class="edge">
<title>Node10&#45;&gt;Node3</title>
<g id="a_edge11_Node000010_Node000003"><a xlink:title=" ">
<path fill="none" stroke="#63b8ff" d="M256.58,-266.5C267.23,-266.5 278.62,-266.5 289.92,-266.5"/>
<polygon fill="#63b8ff" stroke="#63b8ff" points="290.25,-270 300.25,-266.5 290.25,-263 290.25,-270"/>
</a>
</g>
</g>
<!-- Node10&#45;&gt;Node6 -->
<g id="edge12_Node000010_Node000006" class="edge">
<title>Node10&#45;&gt;Node6</title>
<g id="a_edge12_Node000010_Node000006"><a xlink:title=" ">
<path fill="none" stroke="#63b8ff" d="M255.2,-251.44C271.93,-246.66 290.59,-241.33 307.95,-236.37"/>
<polygon fill="#63b8ff" stroke="#63b8ff" points="309.34,-239.61 317.99,-233.5 307.41,-232.88 309.34,-239.61"/>
</a>
</g>
</g>
<!-- Node11 -->
<g id="Node000011" class="node">
<title>Node11</title>
<g id="a_Node000011"><a xlink:href="namespacem__compile__specific.html#a9cf8c029e502931415929734c03f340d" target="_top" xlink:title="Inquires on the existence of a directory.">
<polygon fill="white" stroke="#666666" points="428,-389.5 315,-389.5 315,-359.5 428,-359.5 428,-389.5"/>
<text text-anchor="start" x="323" y="-377.5" font-family="Helvetica,sans-Serif" font-size="10.00">m_compile_specific</text>
<text text-anchor="middle" x="371.5" y="-366.5" font-family="Helvetica,sans-Serif" font-size="10.00">::my_inquire</text>
</a>
</g>
</g>
<!-- Node10&#45;&gt;Node11 -->
<g id="edge10_Node000010_Node000011" class="edge">
<title>Node10&#45;&gt;Node11</title>
<g id="a_edge10_Node000010_Node000011"><a xlink:title=" ">
<path fill="none" stroke="#63b8ff" d="M215.03,-281.74C231.2,-300.47 261.08,-332.04 293,-350.5 296.88,-352.74 300.99,-354.8 305.21,-356.68"/>
<polygon fill="#63b8ff" stroke="#63b8ff" points="304.02,-359.97 314.6,-360.52 306.67,-353.49 304.02,-359.97"/>
</a>
</g>
</g>
<!-- Node12 -->
<g id="Node000012" class="node">
<title>Node12</title>
<g id="a_Node000012"><a xlink:href="namespacem__boundary__common.html#adfa0ae0acfddcffc6762f126d83ae3d0" target="_top" xlink:title=" ">
<polygon fill="white" stroke="#666666" points="437.5,-341 305.5,-341 305.5,-300 437.5,-300 437.5,-341"/>
<text text-anchor="start" x="313.5" y="-329" font-family="Helvetica,sans-Serif" font-size="10.00">m_boundary_common::</text>
<text text-anchor="start" x="313.5" y="-318" font-family="Helvetica,sans-Serif" font-size="10.00">s_read_serial_boundary</text>
<text text-anchor="middle" x="371.5" y="-307" font-family="Helvetica,sans-Serif" font-size="10.00">_condition_files</text>
</a>
</g>
</g>
<!-- Node10&#45;&gt;Node12 -->
<g id="edge13_Node000010_Node000012" class="edge">
<title>Node10&#45;&gt;Node12</title>
<g id="a_edge13_Node000010_Node000012"><a xlink:title=" ">
<path fill="none" stroke="#63b8ff" d="M249.3,-281.54C264.01,-286.27 280.63,-291.61 296.74,-296.79"/>
<polygon fill="#63b8ff" stroke="#63b8ff" points="296.1,-300.26 306.69,-299.99 298.24,-293.6 296.1,-300.26"/>
</a>
</g>
</g>
</g>
</svg>
