<?xml version="1.0" encoding="UTF-8" standalone="no"?>
<!DOCTYPE svg PUBLIC "-//W3C//DTD SVG 1.1//EN"
 "http://www.w3.org/Graphics/SVG/1.1/DTD/svg11.dtd">
<!-- Generated by graphviz version 2.43.0 (0)
 -->
<!-- Title: m_body_forces::s_compute_body_forces_rhs Pages: 1 -->
<svg width="344pt" height="86pt"
 viewBox="0.00 0.00 344.00 86.00" xmlns="http://www.w3.org/2000/svg" xmlns:xlink="http://www.w3.org/1999/xlink">
<g id="graph0" class="graph" transform="scale(1 1) rotate(0) translate(4 82)">
<title>m_body_forces::s_compute_body_forces_rhs</title>
<!-- Node1 -->
<g id="Node000001" class="node">
<title>Node1</title>
<g id="a_Node000001"><a xlink:title="This subroutine calculates the source term due to body forces so the system can be advanced in time.">
<polygon fill="#999999" stroke="#666666" points="150,-54 0,-54 0,-24 150,-24 150,-54"/>
<text text-anchor="start" x="8" y="-42" font-family="Helvetica,sans-Serif" font-size="10.00">m_body_forces::s_compute</text>
<text text-anchor="middle" x="75" y="-31" font-family="Helvetica,sans-Serif" font-size="10.00">_body_forces_rhs</text>
</a>
</g>
</g>
<!-- Node2 -->
<g id="Node000002" class="node">
<title>Node2</title>
<g id="a_Node000002"><a xlink:href="namespacem__body__forces.html#ab227c5ae90649946f0090c234e5d0163" target="_top" xlink:title="This subroutine computes the acceleration at time t.">
<polygon fill="white" stroke="#666666" points="336,-78 186,-78 186,-48 336,-48 336,-78"/>
<text text-anchor="start" x="194" y="-66" font-family="Helvetica,sans-Serif" font-size="10.00">m_body_forces::s_compute</text>
<text text-anchor="middle" x="261" y="-55" font-family="Helvetica,sans-Serif" font-size="10.00">_acceleration</text>
</a>
</g>
</g>
<!-- Node1&#45;&gt;Node2 -->
<g id="edge1_Node000001_Node000002" class="edge">
<title>Node1&#45;&gt;Node2</title>
<g id="a_edge1_Node000001_Node000002"><a xlink:title=" ">
<path fill="none" stroke="#63b8ff" d="M150.04,-48.66C158.51,-49.76 167.19,-50.89 175.78,-52.02"/>
<polygon fill="#63b8ff" stroke="#63b8ff" points="175.44,-55.5 185.81,-53.32 176.34,-48.56 175.44,-55.5"/>
</a>
</g>
</g>
<!-- Node3 -->
<g id="Node000003" class="node">
<title>Node3</title>
<g id="a_Node000003"><a xlink:href="namespacem__body__forces.html#a8d20d22747d67b572df90aa7e6446afd" target="_top" xlink:title="This subroutine calculates the mixture density at each cell center param q_cons_vf Conservative varia...">
<polygon fill="white" stroke="#666666" points="336,-30 186,-30 186,0 336,0 336,-30"/>
<text text-anchor="start" x="194" y="-18" font-family="Helvetica,sans-Serif" font-size="10.00">m_body_forces::s_compute</text>
<text text-anchor="middle" x="261" y="-7" font-family="Helvetica,sans-Serif" font-size="10.00">_mixture_density</text>
</a>
</g>
</g>
<!-- Node1&#45;&gt;Node3 -->
<g id="edge2_Node000001_Node000003" class="edge">
<title>Node1&#45;&gt;Node3</title>
<g id="a_edge2_Node000001_Node000003"><a xlink:title=" ">
<path fill="none" stroke="#63b8ff" d="M150.04,-29.34C158.51,-28.24 167.19,-27.11 175.78,-25.98"/>
<polygon fill="#63b8ff" stroke="#63b8ff" points="176.34,-29.44 185.81,-24.68 175.44,-22.5 176.34,-29.44"/>
</a>
</g>
</g>
</g>
</svg>
