<?xml version="1.0" encoding="UTF-8" standalone="no"?>
<!DOCTYPE svg PUBLIC "-//W3C//DTD SVG 1.1//EN"
 "http://www.w3.org/Graphics/SVG/1.1/DTD/svg11.dtd">
<!-- Generated by graphviz version 2.43.0 (0)
 -->
<!-- Title: m_mpi_common::s_mpi_abort Pages: 1 -->
<svg width="761pt" height="415pt"
 viewBox="0.00 0.00 761.00 414.68" xmlns="http://www.w3.org/2000/svg" xmlns:xlink="http://www.w3.org/1999/xlink">
<g id="graph0" class="graph" transform="scale(1 1) rotate(0) translate(4 410.68)">
<title>m_mpi_common::s_mpi_abort</title>
<!-- Node1 -->
<g id="Node000001" class="node">
<title>Node1</title>
<g id="a_Node000001"><a xlink:title="The subroutine terminates the MPI execution environment.">
<polygon fill="#999999" stroke="#666666" points="753,-202.68 619,-202.68 619,-172.68 753,-172.68 753,-202.68"/>
<text text-anchor="start" x="627" y="-190.68" font-family="Helvetica,sans-Serif" font-size="10.00">m_mpi_common::s_mpi</text>
<text text-anchor="middle" x="686" y="-179.68" font-family="Helvetica,sans-Serif" font-size="10.00">_abort</text>
</a>
</g>
</g>
<!-- Node2 -->
<g id="Node000002" class="node">
<title>Node2</title>
<g id="a_Node000002"><a xlink:href="namespacem__start__up.html#ad26e747c87bb6bcf4c9d6baa21d044c1" target="_top" xlink:title="The goal of this procedure is to verify that each of the user provided inputs is valid and that their...">
<polygon fill="white" stroke="#666666" points="564,-406.68 448,-406.68 448,-376.68 564,-376.68 564,-406.68"/>
<text text-anchor="start" x="456" y="-394.68" font-family="Helvetica,sans-Serif" font-size="10.00">m_start_up::s_check</text>
<text text-anchor="middle" x="506" y="-383.68" font-family="Helvetica,sans-Serif" font-size="10.00">_input_file</text>
</a>
</g>
</g>
<!-- Node1&#45;&gt;Node2 -->
<g id="edge1_Node000001_Node000002" class="edge">
<title>Node1&#45;&gt;Node2</title>
<g id="a_edge1_Node000001_Node000002"><a xlink:title=" ">
<path fill="none" stroke="#63b8ff" d="M677.47,-212.69C664.5,-251.53 634.29,-326.16 583,-367.68 577.41,-372.21 570.95,-375.89 564.21,-378.88"/>
<polygon fill="#63b8ff" stroke="#63b8ff" points="680.93,-213.34 680.67,-202.75 674.27,-211.19 680.93,-213.34"/>
</a>
</g>
</g>
<!-- Node5 -->
<g id="Node000005" class="node">
<title>Node5</title>
<g id="a_Node000005"><a xlink:href="namespacem__mhd.html#a2315d0f74ffac64e359f0051d13b6ce9" target="_top" xlink:title=" ">
<polygon fill="white" stroke="#666666" points="389.5,-116.68 266.5,-116.68 266.5,-86.68 389.5,-86.68 389.5,-116.68"/>
<text text-anchor="start" x="274.5" y="-104.68" font-family="Helvetica,sans-Serif" font-size="10.00">m_mhd::s_initialize</text>
<text text-anchor="middle" x="328" y="-93.68" font-family="Helvetica,sans-Serif" font-size="10.00">_mhd_powell_module</text>
</a>
</g>
</g>
<!-- Node1&#45;&gt;Node5 -->
<g id="edge4_Node000001_Node000005" class="edge">
<title>Node1&#45;&gt;Node5</title>
<g id="a_edge4_Node000001_Node000005"><a xlink:title=" ">
<path fill="none" stroke="#63b8ff" d="M661.98,-165.64C642.61,-148.61 613.27,-126.22 583,-115.68 519.7,-93.66 442.2,-92.83 389.57,-95.8"/>
<polygon fill="#63b8ff" stroke="#63b8ff" points="659.88,-168.46 669.65,-172.56 664.57,-163.26 659.88,-168.46"/>
</a>
</g>
</g>
<!-- Node7 -->
<g id="Node000007" class="node">
<title>Node7</title>
<g id="a_Node000007"><a xlink:href="namespacem__mpi__common.html#afe54fe25c12eda7afe195fbf0fa166fc" target="_top" xlink:title="The purpose of this procedure is to optimally decompose the computational domain among the available ...">
<polygon fill="white" stroke="#666666" points="583,-358.18 429,-358.18 429,-317.18 583,-317.18 583,-358.18"/>
<text text-anchor="start" x="437" y="-346.18" font-family="Helvetica,sans-Serif" font-size="10.00">m_mpi_common::s_mpi</text>
<text text-anchor="start" x="437" y="-335.18" font-family="Helvetica,sans-Serif" font-size="10.00">_decompose_computational</text>
<text text-anchor="middle" x="506" y="-324.18" font-family="Helvetica,sans-Serif" font-size="10.00">_domain</text>
</a>
</g>
</g>
<!-- Node1&#45;&gt;Node7 -->
<g id="edge7_Node000001_Node000007" class="edge">
<title>Node1&#45;&gt;Node7</title>
<g id="a_edge7_Node000001_Node000007"><a xlink:title=" ">
<path fill="none" stroke="#63b8ff" d="M670.09,-211.42C652.27,-238.08 620.16,-281.09 583,-307.68 578.16,-311.15 572.85,-314.29 567.38,-317.11"/>
<polygon fill="#63b8ff" stroke="#63b8ff" points="673.02,-213.34 675.57,-203.05 667.16,-209.5 673.02,-213.34"/>
</a>
</g>
</g>
<!-- Node8 -->
<g id="Node000008" class="node">
<title>Node8</title>
<g id="a_Node000008"><a xlink:href="namespacem__start__up.html#ae28835629de9baa7fd546672a0add0e5" target="_top" xlink:title=" ">
<polygon fill="white" stroke="#666666" points="221.5,-78.68 94.5,-78.68 94.5,-48.68 221.5,-48.68 221.5,-78.68"/>
<text text-anchor="start" x="102.5" y="-66.68" font-family="Helvetica,sans-Serif" font-size="10.00">m_start_up::s_perform</text>
<text text-anchor="middle" x="158" y="-55.68" font-family="Helvetica,sans-Serif" font-size="10.00">_time_step</text>
</a>
</g>
</g>
<!-- Node1&#45;&gt;Node8 -->
<g id="edge9_Node000001_Node000008" class="edge">
<title>Node1&#45;&gt;Node8</title>
<g id="a_edge9_Node000001_Node000008"><a xlink:title=" ">
<path fill="none" stroke="#63b8ff" d="M668.53,-164.54C650.5,-141.27 619.26,-106.63 583,-90.68 463.83,-38.28 307.44,-45.3 221.8,-54.72"/>
<polygon fill="#63b8ff" stroke="#63b8ff" points="665.75,-166.66 674.56,-172.54 671.34,-162.45 665.75,-166.66"/>
</a>
</g>
</g>
<!-- Node9 -->
<g id="Node000009" class="node">
<title>Node9</title>
<g id="a_Node000009"><a xlink:href="namespacem__mpi__common.html#a4d03f5fc95657b6bec1f89221295b0cc" target="_top" xlink:title=" ">
<polygon fill="white" stroke="#666666" points="582,-202.68 430,-202.68 430,-172.68 582,-172.68 582,-202.68"/>
<text text-anchor="start" x="438" y="-190.68" font-family="Helvetica,sans-Serif" font-size="10.00">m_mpi_common::s_prohibit</text>
<text text-anchor="middle" x="506" y="-179.68" font-family="Helvetica,sans-Serif" font-size="10.00">_abort</text>
</a>
</g>
</g>
<!-- Node1&#45;&gt;Node9 -->
<g id="edge11_Node000001_Node000009" class="edge">
<title>Node1&#45;&gt;Node9</title>
<g id="a_edge11_Node000001_Node000009"><a xlink:title=" ">
<path fill="none" stroke="#63b8ff" d="M608.75,-187.68C599.96,-187.68 591,-187.68 582.22,-187.68"/>
<polygon fill="#63b8ff" stroke="#63b8ff" points="608.97,-191.18 618.97,-187.68 608.97,-184.18 608.97,-191.18"/>
</a>
</g>
</g>
<!-- Node10 -->
<g id="Node000010" class="node">
<title>Node10</title>
<g id="a_Node000010"><a xlink:href="namespacem__start__up.html#aca5460fc186e7b82ea78484ae98c74a4" target="_top" xlink:title="The purpose of this procedure is to first verify that an input file has been made available by the us...">
<polygon fill="white" stroke="#666666" points="561,-298.68 451,-298.68 451,-268.68 561,-268.68 561,-298.68"/>
<text text-anchor="start" x="459" y="-286.68" font-family="Helvetica,sans-Serif" font-size="10.00">m_start_up::s_read</text>
<text text-anchor="middle" x="506" y="-275.68" font-family="Helvetica,sans-Serif" font-size="10.00">_input_file</text>
</a>
</g>
</g>
<!-- Node1&#45;&gt;Node10 -->
<g id="edge12_Node000001_Node000010" class="edge">
<title>Node1&#45;&gt;Node10</title>
<g id="a_edge12_Node000001_Node000010"><a xlink:title=" ">
<path fill="none" stroke="#63b8ff" d="M659.36,-209.17C639.54,-224.92 610.87,-245.87 583,-259.68 576.18,-263.06 568.79,-266.1 561.37,-268.78"/>
<polygon fill="#63b8ff" stroke="#63b8ff" points="661.7,-211.78 667.29,-202.78 657.31,-206.33 661.7,-211.78"/>
</a>
</g>
</g>
<!-- Node11 -->
<g id="Node000011" class="node">
<title>Node11</title>
<g id="a_Node000011"><a xlink:href="namespacem__start__up.html#a3226ddf0c64cff078579641fda52781d" target="_top" xlink:title=" ">
<polygon fill="white" stroke="#666666" points="561.5,-154.68 450.5,-154.68 450.5,-124.68 561.5,-124.68 561.5,-154.68"/>
<text text-anchor="start" x="458.5" y="-142.68" font-family="Helvetica,sans-Serif" font-size="10.00">m_start_up::s_read</text>
<text text-anchor="middle" x="506" y="-131.68" font-family="Helvetica,sans-Serif" font-size="10.00">_parallel_data_files</text>
</a>
</g>
</g>
<!-- Node1&#45;&gt;Node11 -->
<g id="edge14_Node000001_Node000011" class="edge">
<title>Node1&#45;&gt;Node11</title>
<g id="a_edge14_Node000001_Node000011"><a xlink:title=" ">
<path fill="none" stroke="#63b8ff" d="M619.41,-170C600.44,-164.88 579.95,-159.36 561.72,-154.44"/>
<polygon fill="#63b8ff" stroke="#63b8ff" points="618.6,-173.4 629.17,-172.63 620.42,-166.64 618.6,-173.4"/>
</a>
</g>
</g>
<!-- Node13 -->
<g id="Node000013" class="node">
<title>Node13</title>
<g id="a_Node000013"><a xlink:href="namespacem__start__up.html#a1bf604b2afd7b81737153114d92e7c80" target="_top" xlink:title=" ">
<polygon fill="white" stroke="#666666" points="561,-250.68 451,-250.68 451,-220.68 561,-220.68 561,-250.68"/>
<text text-anchor="start" x="459" y="-238.68" font-family="Helvetica,sans-Serif" font-size="10.00">m_start_up::s_read</text>
<text text-anchor="middle" x="506" y="-227.68" font-family="Helvetica,sans-Serif" font-size="10.00">_serial_data_files</text>
</a>
</g>
</g>
<!-- Node1&#45;&gt;Node13 -->
<g id="edge17_Node000001_Node000013" class="edge">
<title>Node1&#45;&gt;Node13</title>
<g id="a_edge17_Node000001_Node000013"><a xlink:title=" ">
<path fill="none" stroke="#63b8ff" d="M619.31,-205.4C600.16,-210.56 579.46,-216.14 561.11,-221.09"/>
<polygon fill="#63b8ff" stroke="#63b8ff" points="620.42,-208.72 629.17,-202.74 618.6,-201.96 620.42,-208.72"/>
</a>
</g>
</g>
<!-- Node14 -->
<g id="Node000014" class="node">
<title>Node14</title>
<g id="a_Node000014"><a xlink:href="namespacem__start__up.html#a47ade6ffcd98aafcccf10910f626142d" target="_top" xlink:title=" ">
<polygon fill="white" stroke="#666666" points="227,-30.18 89,-30.18 89,-11.18 227,-11.18 227,-30.18"/>
<text text-anchor="middle" x="158" y="-18.18" font-family="Helvetica,sans-Serif" font-size="10.00">m_start_up::s_save_data</text>
</a>
</g>
</g>
<!-- Node1&#45;&gt;Node14 -->
<g id="edge19_Node000001_Node000014" class="edge">
<title>Node1&#45;&gt;Node14</title>
<g id="a_edge19_Node000001_Node000014"><a xlink:title=" ">
<path fill="none" stroke="#63b8ff" d="M675,-163.45C660.2,-131.12 629.17,-74.98 583,-49.68 462.81,16.18 293.81,1.73 210.11,-11.16"/>
<polygon fill="#63b8ff" stroke="#63b8ff" points="671.82,-164.93 679.06,-172.67 678.23,-162.11 671.82,-164.93"/>
</a>
</g>
</g>
<!-- Node3 -->
<g id="Node000003" class="node">
<title>Node3</title>
<g id="a_Node000003"><a xlink:href="namespacem__start__up.html#ab64542f13c680e17ce8879c77c65c0e0" target="_top" xlink:title=" ">
<polygon fill="white" stroke="#666666" points="393,-325.68 263,-325.68 263,-295.68 393,-295.68 393,-325.68"/>
<text text-anchor="start" x="271" y="-313.68" font-family="Helvetica,sans-Serif" font-size="10.00">m_start_up::s_initialize</text>
<text text-anchor="middle" x="328" y="-302.68" font-family="Helvetica,sans-Serif" font-size="10.00">_mpi_domain</text>
</a>
</g>
</g>
<!-- Node2&#45;&gt;Node3 -->
<g id="edge2_Node000002_Node000003" class="edge">
<title>Node2&#45;&gt;Node3</title>
<g id="a_edge2_Node000002_Node000003"><a xlink:title=" ">
<path fill="none" stroke="#63b8ff" d="M442.57,-373.16C437.93,-371.42 433.37,-369.59 429,-367.68 401.53,-355.68 371.92,-338.17 352.11,-325.73"/>
<polygon fill="#63b8ff" stroke="#63b8ff" points="441.54,-376.51 452.13,-376.59 443.9,-369.92 441.54,-376.51"/>
</a>
</g>
</g>
<!-- Node4 -->
<g id="Node000004" class="node">
<title>Node4</title>
<g id="a_Node000004"><a xlink:href="p__main_8fpp_8f90.html#aeec10ee8e2940c953967da3e374e1579" target="_top" xlink:title="Quasi&#45;conservative, shock&#45; and interface&#45; capturing finite&#45;volume scheme for the multicomponent Navie...">
<polygon fill="white" stroke="#666666" points="53,-97.18 0,-97.18 0,-78.18 53,-78.18 53,-97.18"/>
<text text-anchor="middle" x="26.5" y="-85.18" font-family="Helvetica,sans-Serif" font-size="10.00">p_main</text>
</a>
</g>
</g>
<!-- Node3&#45;&gt;Node4 -->
<g id="edge3_Node000003_Node000004" class="edge">
<title>Node3&#45;&gt;Node4</title>
<g id="a_edge3_Node000003_Node000004"><a xlink:title=" ">
<path fill="none" stroke="#63b8ff" d="M298.02,-289.79C253.01,-257.24 163.7,-192.28 89,-135.68 71.73,-122.6 52.02,-107.12 39.67,-97.35"/>
<polygon fill="#63b8ff" stroke="#63b8ff" points="296,-292.65 306.16,-295.67 300.1,-286.97 296,-292.65"/>
</a>
</g>
</g>
<!-- Node6 -->
<g id="Node000006" class="node">
<title>Node6</title>
<g id="a_Node000006"><a xlink:href="namespacem__start__up.html#a1fb7a3f9d412acd2a9cbcfe8b45006dd" target="_top" xlink:title=" ">
<polygon fill="white" stroke="#666666" points="223,-126.68 93,-126.68 93,-96.68 223,-96.68 223,-126.68"/>
<text text-anchor="start" x="101" y="-114.68" font-family="Helvetica,sans-Serif" font-size="10.00">m_start_up::s_initialize</text>
<text text-anchor="middle" x="158" y="-103.68" font-family="Helvetica,sans-Serif" font-size="10.00">_modules</text>
</a>
</g>
</g>
<!-- Node5&#45;&gt;Node6 -->
<g id="edge5_Node000005_Node000006" class="edge">
<title>Node5&#45;&gt;Node6</title>
<g id="a_edge5_Node000005_Node000006"><a xlink:title=" ">
<path fill="none" stroke="#63b8ff" d="M256.03,-105.91C245.15,-106.56 233.97,-107.22 223.25,-107.86"/>
<polygon fill="#63b8ff" stroke="#63b8ff" points="256.57,-109.38 266.35,-105.29 256.16,-102.39 256.57,-109.38"/>
</a>
</g>
</g>
<!-- Node6&#45;&gt;Node4 -->
<g id="edge6_Node000006_Node000004" class="edge">
<title>Node6&#45;&gt;Node4</title>
<g id="a_edge6_Node000006_Node000004"><a xlink:title=" ">
<path fill="none" stroke="#63b8ff" d="M82.52,-97.88C72.04,-95.94 61.91,-94.06 53.26,-92.46"/>
<polygon fill="#63b8ff" stroke="#63b8ff" points="82.16,-101.37 92.63,-99.75 83.43,-94.49 82.16,-101.37"/>
</a>
</g>
</g>
<!-- Node7&#45;&gt;Node3 -->
<g id="edge8_Node000007_Node000003" class="edge">
<title>Node7&#45;&gt;Node3</title>
<g id="a_edge8_Node000007_Node000003"><a xlink:title=" ">
<path fill="none" stroke="#63b8ff" d="M418.74,-324.45C410.13,-323.13 401.49,-321.8 393.16,-320.53"/>
<polygon fill="#63b8ff" stroke="#63b8ff" points="418.41,-327.94 428.83,-326 419.47,-321.02 418.41,-327.94"/>
</a>
</g>
</g>
<!-- Node8&#45;&gt;Node4 -->
<g id="edge10_Node000008_Node000004" class="edge">
<title>Node8&#45;&gt;Node4</title>
<g id="a_edge10_Node000008_Node000004"><a xlink:title=" ">
<path fill="none" stroke="#63b8ff" d="M84.26,-77.16C73.07,-79.24 62.2,-81.25 53.02,-82.95"/>
<polygon fill="#63b8ff" stroke="#63b8ff" points="84.95,-80.6 94.15,-75.33 83.68,-73.71 84.95,-80.6"/>
</a>
</g>
</g>
<!-- Node10&#45;&gt;Node3 -->
<g id="edge13_Node000010_Node000003" class="edge">
<title>Node10&#45;&gt;Node3</title>
<g id="a_edge13_Node000010_Node000003"><a xlink:title=" ">
<path fill="none" stroke="#63b8ff" d="M440.76,-293.54C425.28,-295.91 408.74,-298.45 393.26,-300.83"/>
<polygon fill="#63b8ff" stroke="#63b8ff" points="441.4,-296.98 450.76,-292 440.34,-290.06 441.4,-296.98"/>
</a>
</g>
</g>
<!-- Node12 -->
<g id="Node000012" class="node">
<title>Node12</title>
<g id="a_Node000012"><a xlink:href="namespacem__start__up.html#a25f79bc2aae3d0302d4a97247d84f92a" target="_top" xlink:title="Read data files. Dispatch subroutine that replaces procedure pointer.">
<polygon fill="white" stroke="#666666" points="383,-164.68 273,-164.68 273,-134.68 383,-134.68 383,-164.68"/>
<text text-anchor="start" x="281" y="-152.68" font-family="Helvetica,sans-Serif" font-size="10.00">m_start_up::s_read</text>
<text text-anchor="middle" x="328" y="-141.68" font-family="Helvetica,sans-Serif" font-size="10.00">_data_files</text>
</a>
</g>
</g>
<!-- Node11&#45;&gt;Node12 -->
<g id="edge15_Node000011_Node000012" class="edge">
<title>Node11&#45;&gt;Node12</title>
<g id="a_edge15_Node000011_Node000012"><a xlink:title=" ">
<path fill="none" stroke="#63b8ff" d="M440.05,-143.37C421.31,-144.44 401.08,-145.59 383.08,-146.61"/>
<polygon fill="#63b8ff" stroke="#63b8ff" points="440.49,-146.85 450.28,-142.79 440.09,-139.87 440.49,-146.85"/>
</a>
</g>
</g>
<!-- Node12&#45;&gt;Node6 -->
<g id="edge16_Node000012_Node000006" class="edge">
<title>Node12&#45;&gt;Node6</title>
<g id="a_edge16_Node000012_Node000006"><a xlink:title=" ">
<path fill="none" stroke="#63b8ff" d="M263.1,-135.23C250.04,-132.28 236.31,-129.17 223.24,-126.21"/>
<polygon fill="#63b8ff" stroke="#63b8ff" points="262.39,-138.66 272.92,-137.45 263.94,-131.83 262.39,-138.66"/>
</a>
</g>
</g>
<!-- Node13&#45;&gt;Node12 -->
<g id="edge18_Node000013_Node000012" class="edge">
<title>Node13&#45;&gt;Node12</title>
<g id="a_edge18_Node000013_Node000012"><a xlink:title=" ">
<path fill="none" stroke="#63b8ff" d="M441.66,-217.02C437.33,-215.33 433.07,-213.55 429,-211.68 400.23,-198.47 369.64,-178.53 349.98,-164.85"/>
<polygon fill="#63b8ff" stroke="#63b8ff" points="440.62,-220.36 451.21,-220.55 443.05,-213.8 440.62,-220.36"/>
</a>
</g>
</g>
<!-- Node14&#45;&gt;Node4 -->
<g id="edge20_Node000014_Node000004" class="edge">
<title>Node14&#45;&gt;Node4</title>
<g id="a_edge20_Node000014_Node000004"><a xlink:title=" ">
<path fill="none" stroke="#63b8ff" d="M103.54,-33.45C98.52,-35.29 93.6,-37.36 89,-39.68 68.93,-49.82 49.03,-66.99 37.52,-77.81"/>
<polygon fill="#63b8ff" stroke="#63b8ff" points="104.88,-36.69 113.24,-30.18 102.65,-30.05 104.88,-36.69"/>
</a>
</g>
</g>
</g>
</svg>
