<?xml version="1.0" encoding="UTF-8" standalone="no"?>
<!DOCTYPE svg PUBLIC "-//W3C//DTD SVG 1.1//EN"
 "http://www.w3.org/Graphics/SVG/1.1/DTD/svg11.dtd">
<!-- Generated by graphviz version 2.43.0 (0)
 -->
<!-- Title: m_acoustic_src::s_source_spatial Pages: 1 -->
<svg width="327pt" height="134pt"
 viewBox="0.00 0.00 327.00 134.00" xmlns="http://www.w3.org/2000/svg" xmlns:xlink="http://www.w3.org/1999/xlink">
<g id="graph0" class="graph" transform="scale(1 1) rotate(0) translate(4 130)">
<title>m_acoustic_src::s_source_spatial</title>
<!-- Node1 -->
<g id="Node000001" class="node">
<title>Node1</title>
<g id="a_Node000001"><a xlink:title="This subroutine gives the spatial support of the acoustic source.">
<polygon fill="#999999" stroke="#666666" points="140,-78 0,-78 0,-48 140,-48 140,-78"/>
<text text-anchor="start" x="8" y="-66" font-family="Helvetica,sans-Serif" font-size="10.00">m_acoustic_src::s_source</text>
<text text-anchor="middle" x="70" y="-55" font-family="Helvetica,sans-Serif" font-size="10.00">_spatial</text>
</a>
</g>
</g>
<!-- Node2 -->
<g id="Node000002" class="node">
<title>Node2</title>
<g id="a_Node000002"><a xlink:href="namespacem__acoustic__src.html#a8b13d0bd1d29aa2e80b113d2b6c151aa" target="_top" xlink:title="This subroutine calculates the spatial support for planar acoustic sources in 1D, 2D,...">
<polygon fill="white" stroke="#666666" points="317.5,-126 177.5,-126 177.5,-96 317.5,-96 317.5,-126"/>
<text text-anchor="start" x="185.5" y="-114" font-family="Helvetica,sans-Serif" font-size="10.00">m_acoustic_src::s_source</text>
<text text-anchor="middle" x="247.5" y="-103" font-family="Helvetica,sans-Serif" font-size="10.00">_spatial_planar</text>
</a>
</g>
</g>
<!-- Node1&#45;&gt;Node2 -->
<g id="edge1_Node000001_Node000002" class="edge">
<title>Node1&#45;&gt;Node2</title>
<g id="a_edge1_Node000001_Node000002"><a xlink:title=" ">
<path fill="none" stroke="#63b8ff" d="M126.05,-78.06C143.77,-82.9 163.57,-88.32 181.92,-93.34"/>
<polygon fill="#63b8ff" stroke="#63b8ff" points="181.08,-96.74 191.65,-96 182.93,-89.98 181.08,-96.74"/>
</a>
</g>
</g>
<!-- Node3 -->
<g id="Node000003" class="node">
<title>Node3</title>
<g id="a_Node000003"><a xlink:href="namespacem__acoustic__src.html#ab03e57308bfd6b2fe2b3c6e9751cf875" target="_top" xlink:title="This subroutine calculates the spatial support for a single transducer in 2D, 2D axisymmetric,...">
<polygon fill="white" stroke="#666666" points="317.5,-78 177.5,-78 177.5,-48 317.5,-48 317.5,-78"/>
<text text-anchor="start" x="185.5" y="-66" font-family="Helvetica,sans-Serif" font-size="10.00">m_acoustic_src::s_source</text>
<text text-anchor="middle" x="247.5" y="-55" font-family="Helvetica,sans-Serif" font-size="10.00">_spatial_transducer</text>
</a>
</g>
</g>
<!-- Node1&#45;&gt;Node3 -->
<g id="edge2_Node000001_Node000003" class="edge">
<title>Node1&#45;&gt;Node3</title>
<g id="a_edge2_Node000001_Node000003"><a xlink:title=" ">
<path fill="none" stroke="#63b8ff" d="M140.11,-63C149.03,-63 158.22,-63 167.29,-63"/>
<polygon fill="#63b8ff" stroke="#63b8ff" points="167.45,-66.5 177.45,-63 167.45,-59.5 167.45,-66.5"/>
</a>
</g>
</g>
<!-- Node4 -->
<g id="Node000004" class="node">
<title>Node4</title>
<g id="a_Node000004"><a xlink:href="namespacem__acoustic__src.html#a75c527e914eb6b9a2b939f4ae1b491d4" target="_top" xlink:title="This subroutine calculates the spatial support for multiple transducers in 2D, 2D axisymmetric,...">
<polygon fill="white" stroke="#666666" points="319,-30 176,-30 176,0 319,0 319,-30"/>
<text text-anchor="start" x="184" y="-18" font-family="Helvetica,sans-Serif" font-size="10.00">m_acoustic_src::s_source</text>
<text text-anchor="middle" x="247.5" y="-7" font-family="Helvetica,sans-Serif" font-size="10.00">_spatial_transducer_array</text>
</a>
</g>
</g>
<!-- Node1&#45;&gt;Node4 -->
<g id="edge3_Node000001_Node000004" class="edge">
<title>Node1&#45;&gt;Node4</title>
<g id="a_edge3_Node000001_Node000004"><a xlink:title=" ">
<path fill="none" stroke="#63b8ff" d="M126.05,-47.94C143.77,-43.1 163.57,-37.68 181.92,-32.66"/>
<polygon fill="#63b8ff" stroke="#63b8ff" points="182.93,-36.02 191.65,-30 181.08,-29.26 182.93,-36.02"/>
</a>
</g>
</g>
</g>
</svg>
