<?xml version="1.0" encoding="UTF-8" standalone="no"?>
<!DOCTYPE svg PUBLIC "-//W3C//DTD SVG 1.1//EN"
 "http://www.w3.org/Graphics/SVG/1.1/DTD/svg11.dtd">
<!-- Generated by graphviz version 2.43.0 (0)
 -->
<!-- Title: m_riemann_solvers::s_hll_riemann_solver Pages: 1 -->
<!--zoomable 349 -->

<svg id="main" version="1.1" xmlns="http://www.w3.org/2000/svg" xmlns:xlink="http://www.w3.org/1999/xlink" xml:space="preserve" onload="init(evt)">

<style type="text/css"><![CDATA[
.node, .edge {opacity: 0.7;}
.node.selected, .edge.selected {opacity: 1;}
.edge:hover path { stroke: red; }
.edge:hover polygon { stroke: red; fill: red; }
]]></style>

<defs>
  <circle id="rim" cx="0" cy="0" r="7"/>
  <circle id="rim2" cx="0" cy="0" r="3.5"/>
  <g id="zoomPlus">
    <use xlink:href="#rim" fill="#404040"><set attributeName="fill" to="#808080" begin="zoomplus.mouseover" end="zoomplus.mouseout"/></use>
    <path d="M-4,0h8M0,-4v8" fill="none" stroke="white" stroke-width="1.5" pointer-events="none"/>
  </g>
  <g id="zoomMin">
    <use xlink:href="#rim" fill="#404040"><set attributeName="fill" to="#808080" begin="zoomminus.mouseover" end="zoomminus.mouseout"/></use>
    <path d="M-4,0h8" fill="none" stroke="white" stroke-width="1.5" pointer-events="none"/>
  </g>
  <g id="arrowUp" transform="translate(30 24)">
    <use xlink:href="#rim"/>
    <path pointer-events="none" fill="none" stroke="white" stroke-width="1.5" d="M0,-3.0v7 M-2.5,-0.5L0,-3.0L2.5,-0.5"/>
  </g>
  <g id="arrowRight" transform="rotate(90) translate(36 -43)">
    <use xlink:href="#rim"/>
    <path pointer-events="none" fill="none" stroke="white" stroke-width="1.5" d="M0,-3.0v7 M-2.5,-0.5L0,-3.0L2.5,-0.5"/>
  </g>
  <g id="arrowDown" transform="rotate(180) translate(-30 -48)">
    <use xlink:href="#rim"/>
    <path pointer-events="none" fill="none" stroke="white" stroke-width="1.5" d="M0,-3.0v7 M-2.5,-0.5L0,-3.0L2.5,-0.5"/>
  </g>
  <g id="arrowLeft" transform="rotate(270) translate(-36 17)">
    <use xlink:href="#rim"/>
    <path pointer-events="none" fill="none" stroke="white" stroke-width="1.5" d="M0,-3.0v7 M-2.5,-0.5L0,-3.0L2.5,-0.5"/>
  </g>
  <g id="resetDef">
    <use xlink:href="#rim2" fill="#404040"><set attributeName="fill" to="#808080" begin="reset.mouseover" end="reset.mouseout"/></use>
  </g>
</defs>
<script type="application/ecmascript">
var viewWidth = 708;
var viewHeight = 349;
var sectionId = 'dynsection-9';
</script>
<script type="application/ecmascript" xlink:href="svg.min.js"/>
<svg id="graph" class="graph">
<g id="viewport">
<title>m_riemann_solvers::s_hll_riemann_solver</title>
<!-- Node1 -->
<g id="Node000001" class="node">
<title>Node1</title>
<g id="a_Node000001"><a xlink:title=" ">
<polygon fill="#999999" stroke="#666666" points="120,-196.5 0,-196.5 0,-166.5 120,-166.5 120,-196.5"/>
<text text-anchor="start" x="8" y="-184.5" font-family="Helvetica,sans-Serif" font-size="10.00">m_riemann_solvers::</text>
<text text-anchor="middle" x="60" y="-173.5" font-family="Helvetica,sans-Serif" font-size="10.00">s_hll_riemann_solver</text>
</a>
</g>
</g>
<!-- Node2 -->
<g id="Node000002" class="node">
<title>Node2</title>
<g id="a_Node000002"><a xlink:href="namespacem__chemistry.html#adcf7ea4e71da08b937a94689dc134882" target="_top" xlink:title=" ">
<polygon fill="white" stroke="#666666" points="330,-340.5 191,-340.5 191,-310.5 330,-310.5 330,-340.5"/>
<text text-anchor="start" x="199" y="-328.5" font-family="Helvetica,sans-Serif" font-size="10.00">m_chemistry::compute</text>
<text text-anchor="middle" x="260.5" y="-317.5" font-family="Helvetica,sans-Serif" font-size="10.00">_viscosity_and_inversion</text>
</a>
</g>
</g>
<!-- Node1&#45;&gt;Node2 -->
<g id="edge1_Node000001_Node000002" class="edge">
<title>Node1&#45;&gt;Node2</title>
<g id="a_edge1_Node000001_Node000002"><a xlink:title=" ">
<path fill="none" stroke="#63b8ff" d="M68.61,-196.75C82.34,-222.59 113.8,-274.77 156,-301.5 163.72,-306.39 172.34,-310.29 181.21,-313.39"/>
<polygon fill="#63b8ff" stroke="#63b8ff" points="180.31,-316.78 190.9,-316.46 182.42,-310.11 180.31,-316.78"/>
</a>
</g>
</g>
<!-- Node3 -->
<g id="Node000003" class="node">
<title>Node3</title>
<g id="a_Node000003"><a xlink:href="namespacem__variables__conversion.html#a0c590a386e0e8b8fe3caef6c509d7694" target="_top" xlink:title=" ">
<polygon fill="white" stroke="#666666" points="365,-292.5 156,-292.5 156,-262.5 365,-262.5 365,-292.5"/>
<text text-anchor="start" x="164" y="-280.5" font-family="Helvetica,sans-Serif" font-size="10.00">m_variables_conversion</text>
<text text-anchor="middle" x="260.5" y="-269.5" font-family="Helvetica,sans-Serif" font-size="10.00">::s_compute_fast_magnetosonic_speed</text>
</a>
</g>
</g>
<!-- Node1&#45;&gt;Node3 -->
<g id="edge2_Node000001_Node000003" class="edge">
<title>Node1&#45;&gt;Node3</title>
<g id="a_edge2_Node000001_Node000003"><a xlink:title=" ">
<path fill="none" stroke="#63b8ff" d="M76.43,-196.53C94.18,-212.98 124.89,-238.92 156,-253.5 160.36,-255.54 164.91,-257.42 169.57,-259.14"/>
<polygon fill="#63b8ff" stroke="#63b8ff" points="168.65,-262.53 179.24,-262.47 170.92,-255.91 168.65,-262.53"/>
</a>
</g>
</g>
<!-- Node4 -->
<g id="Node000004" class="node">
<title>Node4</title>
<g id="a_Node000004"><a xlink:href="namespacem__variables__conversion.html#a60ddc6ed73bfdd209a70ceda211e2cf7" target="_top" xlink:title=" ">
<polygon fill="white" stroke="#666666" points="340.5,-244.5 180.5,-244.5 180.5,-214.5 340.5,-214.5 340.5,-244.5"/>
<text text-anchor="start" x="188.5" y="-232.5" font-family="Helvetica,sans-Serif" font-size="10.00">m_variables_conversion</text>
<text text-anchor="middle" x="260.5" y="-221.5" font-family="Helvetica,sans-Serif" font-size="10.00">::s_compute_speed_of_sound</text>
</a>
</g>
</g>
<!-- Node1&#45;&gt;Node4 -->
<g id="edge3_Node000001_Node000004" class="edge">
<title>Node1&#45;&gt;Node4</title>
<g id="a_edge3_Node000001_Node000004"><a xlink:title=" ">
<path fill="none" stroke="#63b8ff" d="M119.74,-196.53C131.73,-199.54 144.26,-202.66 156,-205.5 165.05,-207.69 174.55,-209.95 183.98,-212.17"/>
<polygon fill="#63b8ff" stroke="#63b8ff" points="183.22,-215.59 193.75,-214.46 184.81,-208.77 183.22,-215.59"/>
</a>
</g>
</g>
<!-- Node5 -->
<g id="Node000005" class="node">
<title>Node5</title>
<g id="a_Node000005"><a xlink:href="namespacem__riemann__solvers.html#a7f2bd0f420c6ce09d6363676d07c3c20" target="_top" xlink:title="Dispatch to the subroutines that are utilized to compute the viscous source fluxes for either Cartesi...">
<polygon fill="white" stroke="#666666" points="347,-196.5 174,-196.5 174,-166.5 347,-166.5 347,-196.5"/>
<text text-anchor="start" x="182" y="-184.5" font-family="Helvetica,sans-Serif" font-size="10.00">m_riemann_solvers::</text>
<text text-anchor="middle" x="260.5" y="-173.5" font-family="Helvetica,sans-Serif" font-size="10.00">s_compute_viscous_source_flux</text>
</a>
</g>
</g>
<!-- Node1&#45;&gt;Node5 -->
<g id="edge4_Node000001_Node000005" class="edge">
<title>Node1&#45;&gt;Node5</title>
<g id="a_edge4_Node000001_Node000005"><a xlink:title=" ">
<path fill="none" stroke="#63b8ff" d="M120.02,-181.5C133.76,-181.5 148.74,-181.5 163.62,-181.5"/>
<polygon fill="#63b8ff" stroke="#63b8ff" points="163.89,-185 173.89,-181.5 163.89,-178 163.89,-185"/>
</a>
</g>
</g>
<!-- Node10 -->
<g id="Node000010" class="node">
<title>Node10</title>
<g id="a_Node000010"><a xlink:href="namespacem__riemann__solvers.html#a795bb7ed2c04ff8eed86a12927018b2c" target="_top" xlink:title="Deallocation and/or disassociation procedures that are needed to finalize the selected Riemann proble...">
<polygon fill="white" stroke="#666666" points="332,-148.5 189,-148.5 189,-118.5 332,-118.5 332,-148.5"/>
<text text-anchor="start" x="197" y="-136.5" font-family="Helvetica,sans-Serif" font-size="10.00">m_riemann_solvers::</text>
<text text-anchor="middle" x="260.5" y="-125.5" font-family="Helvetica,sans-Serif" font-size="10.00">s_finalize_riemann_solver</text>
</a>
</g>
</g>
<!-- Node1&#45;&gt;Node10 -->
<g id="edge9_Node000001_Node000010" class="edge">
<title>Node1&#45;&gt;Node10</title>
<g id="a_edge9_Node000001_Node000010"><a xlink:title=" ">
<path fill="none" stroke="#63b8ff" d="M119.74,-166.47C131.73,-163.46 144.26,-160.34 156,-157.5 165.05,-155.31 174.55,-153.05 183.98,-150.83"/>
<polygon fill="#63b8ff" stroke="#63b8ff" points="184.81,-154.23 193.75,-148.54 183.22,-147.41 184.81,-154.23"/>
</a>
</g>
</g>
<!-- Node11 -->
<g id="Node000011" class="node">
<title>Node11</title>
<g id="a_Node000011"><a xlink:href="namespacem__riemann__solvers.html#a99ceccfbf2d02b81c21cddbe156af054" target="_top" xlink:title="The computation of parameters, the allocation of memory, the association of pointers and/or the execu...">
<polygon fill="white" stroke="#666666" points="320,-100 201,-100 201,-59 320,-59 320,-100"/>
<text text-anchor="start" x="209" y="-88" font-family="Helvetica,sans-Serif" font-size="10.00">m_riemann_solvers::</text>
<text text-anchor="start" x="209" y="-77" font-family="Helvetica,sans-Serif" font-size="10.00">s_initialize_riemann</text>
<text text-anchor="middle" x="260.5" y="-66" font-family="Helvetica,sans-Serif" font-size="10.00">_solver</text>
</a>
</g>
</g>
<!-- Node1&#45;&gt;Node11 -->
<g id="edge10_Node000001_Node000011" class="edge">
<title>Node1&#45;&gt;Node11</title>
<g id="a_edge10_Node000001_Node000011"><a xlink:title=" ">
<path fill="none" stroke="#63b8ff" d="M76.91,-166.48C94.84,-150.3 125.48,-124.82 156,-109.5 167.02,-103.97 179.22,-99.3 191.26,-95.41"/>
<polygon fill="#63b8ff" stroke="#63b8ff" points="192.34,-98.74 200.87,-92.46 190.28,-92.05 192.34,-98.74"/>
</a>
</g>
</g>
<!-- Node12 -->
<g id="Node000012" class="node">
<title>Node12</title>
<g id="a_Node000012"><a xlink:href="namespacem__riemann__solvers.html#a44904d3bd77a85446482eacbe696bac3" target="_top" xlink:title="The purpose of this subroutine is to populate the buffers of the left and right Riemann states variab...">
<polygon fill="white" stroke="#666666" points="336,-41 185,-41 185,0 336,0 336,-41"/>
<text text-anchor="start" x="193" y="-29" font-family="Helvetica,sans-Serif" font-size="10.00">m_riemann_solvers::</text>
<text text-anchor="start" x="193" y="-18" font-family="Helvetica,sans-Serif" font-size="10.00">s_populate_riemann_states</text>
<text text-anchor="middle" x="260.5" y="-7" font-family="Helvetica,sans-Serif" font-size="10.00">_variables_buffers</text>
</a>
</g>
</g>
<!-- Node1&#45;&gt;Node12 -->
<g id="edge11_Node000001_Node000012" class="edge">
<title>Node1&#45;&gt;Node12</title>
<g id="a_edge11_Node000001_Node000012"><a xlink:title=" ">
<path fill="none" stroke="#63b8ff" d="M67.71,-166.27C80.67,-138.67 111.8,-80.4 156,-49.5 161.99,-45.31 168.58,-41.72 175.43,-38.65"/>
<polygon fill="#63b8ff" stroke="#63b8ff" points="176.98,-41.8 184.91,-34.78 174.33,-35.32 176.98,-41.8"/>
</a>
</g>
</g>
<!-- Node6 -->
<g id="Node000006" class="node">
<title>Node6</title>
<g id="a_Node000006"><a xlink:href="namespacem__riemann__solvers.html#a7bdafa799b15d61a0a576114550f8a04" target="_top" xlink:title="Computes Cartesian viscous source flux contributions for momentum and energy. Calculates averaged vel...">
<polygon fill="white" stroke="#666666" points="523.5,-232 403.5,-232 403.5,-191 523.5,-191 523.5,-232"/>
<text text-anchor="start" x="411.5" y="-220" font-family="Helvetica,sans-Serif" font-size="10.00">m_riemann_solvers::</text>
<text text-anchor="start" x="411.5" y="-209" font-family="Helvetica,sans-Serif" font-size="10.00">s_compute_cartesian</text>
<text text-anchor="middle" x="463.5" y="-198" font-family="Helvetica,sans-Serif" font-size="10.00">_viscous_source_flux</text>
</a>
</g>
</g>
<!-- Node5&#45;&gt;Node6 -->
<g id="edge5_Node000005_Node000006" class="edge">
<title>Node5&#45;&gt;Node6</title>
<g id="a_edge5_Node000005_Node000006"><a xlink:title=" ">
<path fill="none" stroke="#63b8ff" d="M347.03,-194.27C362.49,-196.57 378.42,-198.95 393.34,-201.18"/>
<polygon fill="#63b8ff" stroke="#63b8ff" points="393.07,-204.68 403.48,-202.69 394.1,-197.75 393.07,-204.68"/>
</a>
</g>
</g>
<!-- Node9 -->
<g id="Node000009" class="node">
<title>Node9</title>
<g id="a_Node000009"><a xlink:href="namespacem__riemann__solvers.html#aa75ecbe415e3a4be1603dc8d0067d291" target="_top" xlink:title="Computes cylindrical viscous source flux contributions for momentum and energy. Calculates Cartesian ...">
<polygon fill="white" stroke="#666666" points="526,-173 401,-173 401,-132 526,-132 526,-173"/>
<text text-anchor="start" x="409" y="-161" font-family="Helvetica,sans-Serif" font-size="10.00">m_riemann_solvers::</text>
<text text-anchor="start" x="409" y="-150" font-family="Helvetica,sans-Serif" font-size="10.00">s_compute_cylindrical</text>
<text text-anchor="middle" x="463.5" y="-139" font-family="Helvetica,sans-Serif" font-size="10.00">_viscous_source_flux</text>
</a>
</g>
</g>
<!-- Node5&#45;&gt;Node9 -->
<g id="edge8_Node000005_Node000009" class="edge">
<title>Node5&#45;&gt;Node9</title>
<g id="a_edge8_Node000005_Node000009"><a xlink:title=" ">
<path fill="none" stroke="#63b8ff" d="M347.03,-169.16C361.56,-167.06 376.52,-164.9 390.65,-162.87"/>
<polygon fill="#63b8ff" stroke="#63b8ff" points="391.38,-166.3 400.78,-161.4 390.38,-159.37 391.38,-166.3"/>
</a>
</g>
</g>
<!-- Node7 -->
<g id="Node000007" class="node">
<title>Node7</title>
<g id="a_Node000007"><a xlink:href="namespacem__riemann__solvers.html#a888df1dcacffdb4f223d333b381891f0" target="_top" xlink:title="Calculates bulk stress tensor components (diagonal only). tau_ii_bulk = (div_v) / Re_bulk....">
<polygon fill="white" stroke="#666666" points="697,-262 565,-262 565,-221 697,-221 697,-262"/>
<text text-anchor="start" x="573" y="-250" font-family="Helvetica,sans-Serif" font-size="10.00">m_riemann_solvers::</text>
<text text-anchor="start" x="573" y="-239" font-family="Helvetica,sans-Serif" font-size="10.00">s_calculate_bulk_stress</text>
<text text-anchor="middle" x="631" y="-228" font-family="Helvetica,sans-Serif" font-size="10.00">_tensor</text>
</a>
</g>
</g>
<!-- Node6&#45;&gt;Node7 -->
<g id="edge6_Node000006_Node000007" class="edge">
<title>Node6&#45;&gt;Node7</title>
<g id="a_edge6_Node000006_Node000007"><a xlink:title=" ">
<path fill="none" stroke="#63b8ff" d="M523.78,-222.25C533.9,-224.08 544.54,-226.01 555,-227.9"/>
<polygon fill="#63b8ff" stroke="#63b8ff" points="554.5,-231.37 564.96,-229.71 555.75,-224.48 554.5,-231.37"/>
</a>
</g>
</g>
<!-- Node8 -->
<g id="Node000008" class="node">
<title>Node8</title>
<g id="a_Node000008"><a xlink:href="namespacem__riemann__solvers.html#adbb342c6053c5e98214130df690694f5" target="_top" xlink:title="Calculates shear stress tensor components. tau_ij_shear = ( (dui/dxj + duj/dxi) &#45; (2/3)*(div_v)*delta...">
<polygon fill="white" stroke="#666666" points="700,-203 562,-203 562,-162 700,-162 700,-203"/>
<text text-anchor="start" x="570" y="-191" font-family="Helvetica,sans-Serif" font-size="10.00">m_riemann_solvers::</text>
<text text-anchor="start" x="570" y="-180" font-family="Helvetica,sans-Serif" font-size="10.00">s_calculate_shear_stress</text>
<text text-anchor="middle" x="631" y="-169" font-family="Helvetica,sans-Serif" font-size="10.00">_tensor</text>
</a>
</g>
</g>
<!-- Node6&#45;&gt;Node8 -->
<g id="edge7_Node000006_Node000008" class="edge">
<title>Node6&#45;&gt;Node8</title>
<g id="a_edge7_Node000006_Node000008"><a xlink:title=" ">
<path fill="none" stroke="#63b8ff" d="M523.78,-201.11C532.84,-199.52 542.31,-197.87 551.7,-196.22"/>
<polygon fill="#63b8ff" stroke="#63b8ff" points="552.59,-199.62 561.84,-194.44 551.38,-192.72 552.59,-199.62"/>
</a>
</g>
</g>
</g>
</svg>

<g id="navigator" transform="translate(0 0)" fill="#404254">
  <rect fill="#f2f5e9" fill-opacity="0.5" stroke="#606060" stroke-width=".5" x="0" y="0" width="60" height="60"/>
  <use id="zoomplus" xlink:href="#zoomPlus" x="17" y="9" onmousedown="handleZoom(evt,'in')"/>
  <use id="zoomminus" xlink:href="#zoomMin" x="42" y="9" onmousedown="handleZoom(evt,'out')"/>
  <use id="reset" xlink:href="#resetDef" x="30" y="36" onmousedown="handleReset()"/>
   <use id="arrowup" xlink:href="#arrowUp" x="0" y="0" onmousedown="handlePan(0,-1)"/>
  <use id="arrowright" xlink:href="#arrowRight" x="0" y="0" onmousedown="handlePan(1,0)"/>
  <use id="arrowdown" xlink:href="#arrowDown" x="0" y="0" onmousedown="handlePan(0,1)"/>
  <use id="arrowleft" xlink:href="#arrowLeft" x="0" y="0" onmousedown="handlePan(-1,0)"/>
</g>
<svg viewBox="0 0 15 15" width="100%" height="30px" preserveAspectRatio="xMaxYMin meet">
 <g id="arrow_out" transform="scale(0.3 0.3)">
  <a xlink:href="namespacem__riemann__solvers_a1b018ebed82e499a0589925651bba7a7_cgraph_org.svg" target="_base">
   <rect id="button" ry="5" rx="5" y="6" x="6" height="38" width="38"
        fill="#f2f5e9" fill-opacity="0.5" stroke="#606060" stroke-width="1.0"/>
   <path id="arrow"
     d="M 11.500037,31.436501 C 11.940474,20.09759 22.043105,11.32322 32.158766,21.979434 L 37.068811,17.246167 C 37.068811,17.246167 37.088388,32 37.088388,32 L 22.160133,31.978069 C 22.160133,31.978069 26.997745,27.140456 26.997745,27.140456 C 18.528582,18.264221 13.291696,25.230495 11.500037,31.436501 z"
     style="fill:#404040;"/>
  </a>
 </g>
</svg>

<style type='text/css'>
<![CDATA[
[data-mouse-over-selected='false'] { opacity: 0.7; }
[data-mouse-over-selected='true']  { opacity: 1.0; }
]]>
</style>
<script type="application/ecmascript"><![CDATA[
document.addEventListener('DOMContentLoaded', (event) => {
  highlightEdges();
  highlightAdjacentNodes();
});
]]></script>
</svg>
