<?xml version="1.0" encoding="UTF-8" standalone="no"?>
<!DOCTYPE svg PUBLIC "-//W3C//DTD SVG 1.1//EN"
 "http://www.w3.org/Graphics/SVG/1.1/DTD/svg11.dtd">
<!-- Generated by graphviz version 2.43.0 (0)
 -->
<!-- Title: m_pressure_relaxation::s_relax_cell_pressure Pages: 1 -->
<svg width="336pt" height="212pt"
 viewBox="0.00 0.00 336.00 211.50" xmlns="http://www.w3.org/2000/svg" xmlns:xlink="http://www.w3.org/1999/xlink">

<svg id="main" version="1.1" xmlns="http://www.w3.org/2000/svg" xmlns:xlink="http://www.w3.org/1999/xlink" xml:space="preserve">

<style type="text/css"><![CDATA[
.node, .edge {opacity: 0.7;}
.node.selected, .edge.selected {opacity: 1;}
.edge:hover path { stroke: red; }
.edge:hover polygon { stroke: red; fill: red; }
]]></style>
<script type="application/ecmascript" xlink:href="svg.min.js"/>
<svg id="graph" class="graph">
<g id="graph0" class="graph" transform="scale(1 1) rotate(0) translate(4 207.5)">
<title>m_pressure_relaxation::s_relax_cell_pressure</title>
<!-- Node1 -->
<g id="Node000001" class="node">
<title>Node1</title>
<g id="a_Node000001"><a xlink:title="Process pressure relaxation for a single cell.">
<polygon fill="#999999" stroke="#666666" points="128,-120 0,-120 0,-90 128,-90 128,-120"/>
<text text-anchor="start" x="8" y="-108" font-family="Helvetica,sans-Serif" font-size="10.00">m_pressure_relaxation</text>
<text text-anchor="middle" x="64" y="-97" font-family="Helvetica,sans-Serif" font-size="10.00">::s_relax_cell_pressure</text>
</a>
</g>
</g>
<!-- Node2 -->
<g id="Node000002" class="node">
<title>Node2</title>
<g id="a_Node000002"><a xlink:href="namespacem__pressure__relaxation.html#aa0ab821cb4ad3bf1639d8163a10f2423" target="_top" xlink:title="Correct internal energies using equilibrated pressure.">
<polygon fill="white" stroke="#666666" points="310,-203.5 182,-203.5 182,-162.5 310,-162.5 310,-203.5"/>
<text text-anchor="start" x="190" y="-191.5" font-family="Helvetica,sans-Serif" font-size="10.00">m_pressure_relaxation</text>
<text text-anchor="start" x="190" y="-180.5" font-family="Helvetica,sans-Serif" font-size="10.00">::s_correct_internal</text>
<text text-anchor="middle" x="246" y="-169.5" font-family="Helvetica,sans-Serif" font-size="10.00">_energies</text>
</a>
</g>
</g>
<!-- Node1&#45;&gt;Node2 -->
<g id="edge1_Node000001_Node000002" class="edge">
<title>Node1&#45;&gt;Node2</title>
<g id="a_edge1_Node000001_Node000002"><a xlink:title=" ">
<path fill="none" stroke="#63b8ff" d="M94.11,-120.04C113.66,-129.9 140.1,-142.81 164,-153 168.42,-154.89 173.01,-156.77 177.65,-158.62"/>
<polygon fill="#63b8ff" stroke="#63b8ff" points="176.62,-161.98 187.21,-162.37 179.17,-155.46 176.62,-161.98"/>
</a>
</g>
</g>
<!-- Node3 -->
<g id="Node000003" class="node">
<title>Node3</title>
<g id="a_Node000003"><a xlink:href="namespacem__pressure__relaxation.html#a9efb0aa111b5e94e2f7dc321bdf8b29c" target="_top" xlink:title="Correct volume fractions to physical bounds.">
<polygon fill="white" stroke="#666666" points="324.5,-144 167.5,-144 167.5,-114 324.5,-114 324.5,-144"/>
<text text-anchor="start" x="175.5" y="-132" font-family="Helvetica,sans-Serif" font-size="10.00">m_pressure_relaxation</text>
<text text-anchor="middle" x="246" y="-121" font-family="Helvetica,sans-Serif" font-size="10.00">::s_correct_volume_fractions</text>
</a>
</g>
</g>
<!-- Node1&#45;&gt;Node3 -->
<g id="edge2_Node000001_Node000003" class="edge">
<title>Node1&#45;&gt;Node3</title>
<g id="a_edge2_Node000001_Node000003"><a xlink:title=" ">
<path fill="none" stroke="#63b8ff" d="M128.21,-113.43C137.61,-114.68 147.43,-115.99 157.22,-117.3"/>
<polygon fill="#63b8ff" stroke="#63b8ff" points="157.02,-120.8 167.4,-118.65 157.95,-113.86 157.02,-120.8"/>
</a>
</g>
</g>
<!-- Node4 -->
<g id="Node000004" class="node">
<title>Node4</title>
<g id="a_Node000004"><a xlink:href="namespacem__pressure__relaxation.html#aa5999e6e47695b35f389b756058f47e2" target="_top" xlink:title="Main pressure equilibration using Newton&#45;Raphson.">
<polygon fill="white" stroke="#666666" points="312.5,-96 179.5,-96 179.5,-66 312.5,-66 312.5,-96"/>
<text text-anchor="start" x="187.5" y="-84" font-family="Helvetica,sans-Serif" font-size="10.00">m_pressure_relaxation</text>
<text text-anchor="middle" x="246" y="-73" font-family="Helvetica,sans-Serif" font-size="10.00">::s_equilibrate_pressure</text>
</a>
</g>
</g>
<!-- Node1&#45;&gt;Node4 -->
<g id="edge3_Node000001_Node000004" class="edge">
<title>Node1&#45;&gt;Node4</title>
<g id="a_edge3_Node000001_Node000004"><a xlink:title=" ">
<path fill="none" stroke="#63b8ff" d="M128.21,-96.57C141.37,-94.82 155.36,-92.95 168.93,-91.14"/>
<polygon fill="#63b8ff" stroke="#63b8ff" points="169.75,-94.56 179.2,-89.77 168.82,-87.63 169.75,-94.56"/>
</a>
</g>
</g>
<!-- Node5 -->
<g id="Node000005" class="node">
<title>Node5</title>
<g id="a_Node000005"><a xlink:href="namespacem__pressure__relaxation.html#a34357ee84952de8358113733f6d457c0" target="_top" xlink:title="Check if pressure relaxation is needed for this cell.">
<polygon fill="white" stroke="#666666" points="328,-30 164,-30 164,0 328,0 328,-30"/>
<text text-anchor="start" x="172" y="-18" font-family="Helvetica,sans-Serif" font-size="10.00">m_pressure_relaxation</text>
<text text-anchor="middle" x="246" y="-7" font-family="Helvetica,sans-Serif" font-size="10.00">::s_needs_pressure_relaxation</text>
</a>
</g>
</g>
<!-- Node1&#45;&gt;Node5 -->
<g id="edge4_Node000001_Node000005" class="edge">
<title>Node1&#45;&gt;Node5</title>
<g id="a_edge4_Node000001_Node000005"><a xlink:title=" ">
<path fill="none" stroke="#63b8ff" d="M95.13,-89.94C125.5,-74.75 172.52,-51.24 205.78,-34.61"/>
<polygon fill="#63b8ff" stroke="#63b8ff" points="207.39,-37.72 214.77,-30.11 204.26,-31.45 207.39,-37.72"/>
</a>
</g>
</g>
<!-- Node5&#45;&gt;Node5 -->
<g id="edge5_Node000005_Node000005" class="edge">
<title>Node5&#45;&gt;Node5</title>
<g id="a_edge5_Node000005_Node000005"><a xlink:title=" ">
<path fill="none" stroke="#63b8ff" d="M214.01,-30.28C206.9,-39.41 217.56,-48 246,-48 262.88,-48 273.5,-44.97 277.86,-40.6"/>
<polygon fill="#63b8ff" stroke="#63b8ff" points="281.36,-40.32 277.99,-30.28 274.36,-40.23 281.36,-40.32"/>
</a>
</g>
</g>
</g>
</svg>
</svg>

<style type='text/css'>
<![CDATA[
[data-mouse-over-selected='false'] { opacity: 0.7; }
[data-mouse-over-selected='true']  { opacity: 1.0; }
]]>
</style>
<script type="application/ecmascript"><![CDATA[
document.addEventListener('DOMContentLoaded', (event) => {
  highlightEdges();
  highlightAdjacentNodes();
});
]]></script>
</svg>
