<?xml version="1.0" encoding="UTF-8" standalone="no"?>
<!DOCTYPE svg PUBLIC "-//W3C//DTD SVG 1.1//EN"
 "http://www.w3.org/Graphics/SVG/1.1/DTD/svg11.dtd">
<!-- Generated by graphviz version 2.43.0 (0)
 -->
<!-- Title: m_bubbles_el::s_write_restart_lag_bubbles Pages: 1 -->
<svg width="296pt" height="56pt"
 viewBox="0.00 0.00 296.00 56.00" xmlns="http://www.w3.org/2000/svg" xmlns:xlink="http://www.w3.org/1999/xlink">
<g id="graph0" class="graph" transform="scale(1 1) rotate(0) translate(4 52)">
<title>m_bubbles_el::s_write_restart_lag_bubbles</title>
<!-- Node1 -->
<g id="Node000001" class="node">
<title>Node1</title>
<g id="a_Node000001"><a xlink:title="Subroutine that writes the restarting files for the particles in the lagrangian solver.">
<polygon fill="#999999" stroke="#666666" points="125,-30 0,-30 0,0 125,0 125,-30"/>
<text text-anchor="start" x="8" y="-18" font-family="Helvetica,sans-Serif" font-size="10.00">m_bubbles_el::s_write</text>
<text text-anchor="middle" x="62.5" y="-7" font-family="Helvetica,sans-Serif" font-size="10.00">_restart_lag_bubbles</text>
</a>
</g>
</g>
<!-- Node2 -->
<g id="Node000002" class="node">
<title>Node2</title>
<g id="a_Node000002"><a xlink:href="namespacem__bubbles__el.html#a5c35a2029c31e5cf38948feea44a101a" target="_top" xlink:title="The purpose of this procedure is to determine if the lagrangian bubble is located in the physical dom...">
<polygon fill="white" stroke="#666666" points="288,-30 161,-30 161,0 288,0 288,-30"/>
<text text-anchor="start" x="169" y="-18" font-family="Helvetica,sans-Serif" font-size="10.00">m_bubbles_el::particle</text>
<text text-anchor="middle" x="224.5" y="-7" font-family="Helvetica,sans-Serif" font-size="10.00">_in_domain_physical</text>
</a>
</g>
</g>
<!-- Node1&#45;&gt;Node2 -->
<g id="edge1_Node000001_Node000002" class="edge">
<title>Node1&#45;&gt;Node2</title>
<g id="a_edge1_Node000001_Node000002"><a xlink:title=" ">
<path fill="none" stroke="#63b8ff" d="M125.36,-15C133.61,-15 142.14,-15 150.56,-15"/>
<polygon fill="#63b8ff" stroke="#63b8ff" points="150.75,-18.5 160.75,-15 150.75,-11.5 150.75,-18.5"/>
</a>
</g>
</g>
<!-- Node2&#45;&gt;Node2 -->
<g id="edge2_Node000002_Node000002" class="edge">
<title>Node2&#45;&gt;Node2</title>
<g id="a_edge2_Node000002_Node000002"><a xlink:title=" ">
<path fill="none" stroke="#63b8ff" d="M196.02,-30.28C189.7,-39.41 199.19,-48 224.5,-48 239.53,-48 248.98,-44.97 252.86,-40.6"/>
<polygon fill="#63b8ff" stroke="#63b8ff" points="256.36,-40.32 252.98,-30.28 249.36,-40.23 256.36,-40.32"/>
</a>
</g>
</g>
</g>
</svg>
