<?xml version="1.0" encoding="UTF-8" standalone="no"?>
<!DOCTYPE svg PUBLIC "-//W3C//DTD SVG 1.1//EN"
 "http://www.w3.org/Graphics/SVG/1.1/DTD/svg11.dtd">
<!-- Generated by graphviz version 2.43.0 (0)
 -->
<!-- Title: m_start_up::s_perform_time_step Pages: 1 -->
<!--zoomable 379 -->

<svg id="main" version="1.1" xmlns="http://www.w3.org/2000/svg" xmlns:xlink="http://www.w3.org/1999/xlink" xml:space="preserve" onload="init(evt)">

<style type="text/css"><![CDATA[
.node, .edge {opacity: 0.7;}
.node.selected, .edge.selected {opacity: 1;}
.edge:hover path { stroke: red; }
.edge:hover polygon { stroke: red; fill: red; }
]]></style>

<defs>
  <circle id="rim" cx="0" cy="0" r="7"/>
  <circle id="rim2" cx="0" cy="0" r="3.5"/>
  <g id="zoomPlus">
    <use xlink:href="#rim" fill="#404040"><set attributeName="fill" to="#808080" begin="zoomplus.mouseover" end="zoomplus.mouseout"/></use>
    <path d="M-4,0h8M0,-4v8" fill="none" stroke="white" stroke-width="1.5" pointer-events="none"/>
  </g>
  <g id="zoomMin">
    <use xlink:href="#rim" fill="#404040"><set attributeName="fill" to="#808080" begin="zoomminus.mouseover" end="zoomminus.mouseout"/></use>
    <path d="M-4,0h8" fill="none" stroke="white" stroke-width="1.5" pointer-events="none"/>
  </g>
  <g id="arrowUp" transform="translate(30 24)">
    <use xlink:href="#rim"/>
    <path pointer-events="none" fill="none" stroke="white" stroke-width="1.5" d="M0,-3.0v7 M-2.5,-0.5L0,-3.0L2.5,-0.5"/>
  </g>
  <g id="arrowRight" transform="rotate(90) translate(36 -43)">
    <use xlink:href="#rim"/>
    <path pointer-events="none" fill="none" stroke="white" stroke-width="1.5" d="M0,-3.0v7 M-2.5,-0.5L0,-3.0L2.5,-0.5"/>
  </g>
  <g id="arrowDown" transform="rotate(180) translate(-30 -48)">
    <use xlink:href="#rim"/>
    <path pointer-events="none" fill="none" stroke="white" stroke-width="1.5" d="M0,-3.0v7 M-2.5,-0.5L0,-3.0L2.5,-0.5"/>
  </g>
  <g id="arrowLeft" transform="rotate(270) translate(-36 17)">
    <use xlink:href="#rim"/>
    <path pointer-events="none" fill="none" stroke="white" stroke-width="1.5" d="M0,-3.0v7 M-2.5,-0.5L0,-3.0L2.5,-0.5"/>
  </g>
  <g id="resetDef">
    <use xlink:href="#rim2" fill="#404040"><set attributeName="fill" to="#808080" begin="reset.mouseover" end="reset.mouseout"/></use>
  </g>
</defs>
<script type="application/ecmascript">
var viewWidth = 708;
var viewHeight = 379;
var sectionId = 'dynsection-11';
</script>
<script type="application/ecmascript" xlink:href="svg.min.js"/>
<svg id="graph" class="graph">
<g id="viewport">
<title>m_start_up::s_perform_time_step</title>
<!-- Node1 -->
<g id="Node000001" class="node">
<title>Node1</title>
<g id="a_Node000001"><a xlink:title=" ">
<polygon fill="#999999" stroke="#666666" points="127,-210 0,-210 0,-180 127,-180 127,-210"/>
<text text-anchor="start" x="8" y="-198" font-family="Helvetica,sans-Serif" font-size="10.00">m_start_up::s_perform</text>
<text text-anchor="middle" x="63.5" y="-187" font-family="Helvetica,sans-Serif" font-size="10.00">_time_step</text>
</a>
</g>
</g>
<!-- Node2 -->
<g id="Node000002" class="node">
<title>Node2</title>
<g id="a_Node000002"><a xlink:href="namespacem__derived__variables.html#a516a9808b3446b7b45029f6451d02b3f" target="_top" xlink:title="Writes coherent body information, communication files, and probes.">
<polygon fill="white" stroke="#666666" points="298.5,-317.5 179.5,-317.5 179.5,-276.5 298.5,-276.5 298.5,-317.5"/>
<text text-anchor="start" x="187.5" y="-305.5" font-family="Helvetica,sans-Serif" font-size="10.00">m_derived_variables</text>
<text text-anchor="start" x="187.5" y="-294.5" font-family="Helvetica,sans-Serif" font-size="10.00">::s_compute_derived</text>
<text text-anchor="middle" x="239" y="-283.5" font-family="Helvetica,sans-Serif" font-size="10.00">_variables</text>
</a>
</g>
</g>
<!-- Node1&#45;&gt;Node2 -->
<g id="edge1_Node000001_Node000002" class="edge">
<title>Node1&#45;&gt;Node2</title>
<g id="a_edge1_Node000001_Node000002"><a xlink:title=" ">
<path fill="none" stroke="#63b8ff" d="M82.45,-210.27C101.51,-225.96 132.98,-250.37 163,-267 166.19,-268.77 169.51,-270.49 172.9,-272.15"/>
<polygon fill="#63b8ff" stroke="#63b8ff" points="171.44,-275.33 181.98,-276.41 174.41,-268.99 171.44,-275.33"/>
</a>
</g>
</g>
<!-- Node5 -->
<g id="Node000005" class="node">
<title>Node5</title>
<g id="a_Node000005"><a xlink:href="namespacem__time__steppers.html#ac56d2ccae6e6dbce231569d173aae88a" target="_top" xlink:title=" ">
<polygon fill="white" stroke="#666666" points="295.5,-258 182.5,-258 182.5,-228 295.5,-228 295.5,-258"/>
<text text-anchor="start" x="190.5" y="-246" font-family="Helvetica,sans-Serif" font-size="10.00">m_time_steppers::s</text>
<text text-anchor="middle" x="239" y="-235" font-family="Helvetica,sans-Serif" font-size="10.00">_compute_dt</text>
</a>
</g>
</g>
<!-- Node1&#45;&gt;Node5 -->
<g id="edge4_Node000001_Node000005" class="edge">
<title>Node1&#45;&gt;Node5</title>
<g id="a_edge4_Node000001_Node000005"><a xlink:title=" ">
<path fill="none" stroke="#63b8ff" d="M118.92,-210.06C136.36,-214.88 155.84,-220.27 173.9,-225.27"/>
<polygon fill="#63b8ff" stroke="#63b8ff" points="173.2,-228.7 183.77,-228 175.07,-221.96 173.2,-228.7"/>
</a>
</g>
</g>
<!-- Node6 -->
<g id="Node000006" class="node">
<title>Node6</title>
<g id="a_Node000006"><a xlink:href="namespacem__phase__change.html#a19a8a866830bfc285d631672287a851f" target="_top" xlink:title="This subroutine is created to activate either the pT&#45; (N fluids) or the pTg&#45;equilibrium (2 fluids for...">
<polygon fill="white" stroke="#666666" points="315,-210 163,-210 163,-180 315,-180 315,-210"/>
<text text-anchor="start" x="171" y="-198" font-family="Helvetica,sans-Serif" font-size="10.00">m_phase_change::s_infinite</text>
<text text-anchor="middle" x="239" y="-187" font-family="Helvetica,sans-Serif" font-size="10.00">_relaxation_k</text>
</a>
</g>
</g>
<!-- Node1&#45;&gt;Node6 -->
<g id="edge5_Node000001_Node000006" class="edge">
<title>Node1&#45;&gt;Node6</title>
<g id="a_edge5_Node000001_Node000006"><a xlink:title=" ">
<path fill="none" stroke="#63b8ff" d="M127.14,-195C135.44,-195 144.06,-195 152.67,-195"/>
<polygon fill="#63b8ff" stroke="#63b8ff" points="152.74,-198.5 162.74,-195 152.74,-191.5 152.74,-198.5"/>
</a>
</g>
</g>
<!-- Node13 -->
<g id="Node000013" class="node">
<title>Node13</title>
<g id="a_Node000013"><a xlink:href="namespacem__mpi__common.html#a04cfc0bdb377a0ce2f9fd478e4bb3807" target="_top" xlink:title="The subroutine terminates the MPI execution environment.">
<polygon fill="white" stroke="#666666" points="306,-162 172,-162 172,-132 306,-132 306,-162"/>
<text text-anchor="start" x="180" y="-150" font-family="Helvetica,sans-Serif" font-size="10.00">m_mpi_common::s_mpi</text>
<text text-anchor="middle" x="239" y="-139" font-family="Helvetica,sans-Serif" font-size="10.00">_abort</text>
</a>
</g>
</g>
<!-- Node1&#45;&gt;Node13 -->
<g id="edge12_Node000001_Node000013" class="edge">
<title>Node1&#45;&gt;Node13</title>
<g id="a_edge12_Node000001_Node000013"><a xlink:title=" ">
<path fill="none" stroke="#63b8ff" d="M118.92,-179.94C136.36,-175.12 155.84,-169.73 173.9,-164.73"/>
<polygon fill="#63b8ff" stroke="#63b8ff" points="175.07,-168.04 183.77,-162 173.2,-161.3 175.07,-168.04"/>
</a>
</g>
</g>
<!-- Node14 -->
<g id="Node000014" class="node">
<title>Node14</title>
<g id="a_Node000014"><a xlink:href="namespacem__time__steppers.html#ae8912bf24b14160a2d3b6f52595cb868" target="_top" xlink:title=" ">
<polygon fill="white" stroke="#666666" points="295.5,-98 182.5,-98 182.5,-68 295.5,-68 295.5,-98"/>
<text text-anchor="start" x="190.5" y="-86" font-family="Helvetica,sans-Serif" font-size="10.00">m_time_steppers::s</text>
<text text-anchor="middle" x="239" y="-75" font-family="Helvetica,sans-Serif" font-size="10.00">_tvd_rk</text>
</a>
</g>
</g>
<!-- Node1&#45;&gt;Node14 -->
<g id="edge13_Node000001_Node000014" class="edge">
<title>Node1&#45;&gt;Node14</title>
<g id="a_edge13_Node000001_Node000014"><a xlink:title=" ">
<path fill="none" stroke="#63b8ff" d="M83.56,-179.82C103,-164.64 134.3,-141.02 163,-123 174.24,-115.94 186.84,-108.91 198.46,-102.75"/>
<polygon fill="#63b8ff" stroke="#63b8ff" points="200.28,-105.75 207.52,-98.01 197.04,-99.54 200.28,-105.75"/>
</a>
</g>
</g>
<!-- Node3 -->
<g id="Node000003" class="node">
<title>Node3</title>
<g id="a_Node000003"><a xlink:href="namespacem__derived__variables.html#aeafec81c1b2cb37f1cea824b9fff4d9b" target="_top" xlink:title="This subroutine receives as inputs the indicator of the component of the acceleration that should be ...">
<polygon fill="white" stroke="#666666" points="491.5,-370.5 362.5,-370.5 362.5,-329.5 491.5,-329.5 491.5,-370.5"/>
<text text-anchor="start" x="370.5" y="-358.5" font-family="Helvetica,sans-Serif" font-size="10.00">m_derived_variables</text>
<text text-anchor="start" x="370.5" y="-347.5" font-family="Helvetica,sans-Serif" font-size="10.00">::s_derive_acceleration</text>
<text text-anchor="middle" x="427" y="-336.5" font-family="Helvetica,sans-Serif" font-size="10.00">_component</text>
</a>
</g>
</g>
<!-- Node2&#45;&gt;Node3 -->
<g id="edge2_Node000002_Node000003" class="edge">
<title>Node2&#45;&gt;Node3</title>
<g id="a_edge2_Node000002_Node000003"><a xlink:title=" ">
<path fill="none" stroke="#63b8ff" d="M298.6,-313.7C315.67,-318.56 334.54,-323.94 352.41,-329.03"/>
<polygon fill="#63b8ff" stroke="#63b8ff" points="351.64,-332.45 362.22,-331.83 353.56,-325.72 351.64,-332.45"/>
</a>
</g>
</g>
<!-- Node4 -->
<g id="Node000004" class="node">
<title>Node4</title>
<g id="a_Node000004"><a xlink:href="namespacem__derived__variables.html#a3eb66e46af47e787f79a01e2236779b0" target="_top" xlink:title="This subroutine is used together with the volume fraction model and when called upon,...">
<polygon fill="white" stroke="#666666" points="500,-311 354,-311 354,-281 500,-281 500,-311"/>
<text text-anchor="start" x="362" y="-299" font-family="Helvetica,sans-Serif" font-size="10.00">m_derived_variables</text>
<text text-anchor="middle" x="427" y="-288" font-family="Helvetica,sans-Serif" font-size="10.00">::s_derive_center_of_mass</text>
</a>
</g>
</g>
<!-- Node2&#45;&gt;Node4 -->
<g id="edge3_Node000002_Node000004" class="edge">
<title>Node2&#45;&gt;Node4</title>
<g id="a_edge3_Node000002_Node000004"><a xlink:title=" ">
<path fill="none" stroke="#63b8ff" d="M298.6,-296.68C312.87,-296.61 328.41,-296.52 343.56,-296.44"/>
<polygon fill="#63b8ff" stroke="#63b8ff" points="343.99,-299.94 353.97,-296.39 343.95,-292.94 343.99,-299.94"/>
</a>
</g>
</g>
<!-- Node7 -->
<g id="Node000007" class="node">
<title>Node7</title>
<g id="a_Node000007"><a xlink:href="namespacem__phase__change.html#a40fc0021e6742e8e4bd066690af9cfc7" target="_top" xlink:title="This auxiliary subroutine is created to activate the pT&#45;equilibrium for N fluids.">
<polygon fill="white" stroke="#666666" points="503,-260 351,-260 351,-230 503,-230 503,-260"/>
<text text-anchor="start" x="359" y="-248" font-family="Helvetica,sans-Serif" font-size="10.00">m_phase_change::s_infinite</text>
<text text-anchor="middle" x="427" y="-237" font-family="Helvetica,sans-Serif" font-size="10.00">_pt_relaxation_k</text>
</a>
</g>
</g>
<!-- Node6&#45;&gt;Node7 -->
<g id="edge6_Node000006_Node000007" class="edge">
<title>Node6&#45;&gt;Node7</title>
<g id="a_edge6_Node000006_Node000007"><a xlink:title=" ">
<path fill="none" stroke="#63b8ff" d="M295.81,-210C316.04,-215.44 339.08,-221.63 360.1,-227.28"/>
<polygon fill="#63b8ff" stroke="#63b8ff" points="359.35,-230.71 369.91,-229.92 361.16,-223.95 359.35,-230.71"/>
</a>
</g>
</g>
<!-- Node8 -->
<g id="Node000008" class="node">
<title>Node8</title>
<g id="a_Node000008"><a xlink:href="namespacem__phase__change.html#ac67afd4c4b80bf734eee0d1da1480e31" target="_top" xlink:title="This auxiliary subroutine is created to activate the pTg&#45;equilibrium for N fluids under pT and 2 flui...">
<polygon fill="white" stroke="#666666" points="503,-212 351,-212 351,-182 503,-182 503,-212"/>
<text text-anchor="start" x="359" y="-200" font-family="Helvetica,sans-Serif" font-size="10.00">m_phase_change::s_infinite</text>
<text text-anchor="middle" x="427" y="-189" font-family="Helvetica,sans-Serif" font-size="10.00">_ptg_relaxation_k</text>
</a>
</g>
</g>
<!-- Node6&#45;&gt;Node8 -->
<g id="edge7_Node000006_Node000008" class="edge">
<title>Node6&#45;&gt;Node8</title>
<g id="a_edge7_Node000006_Node000008"><a xlink:title=" ">
<path fill="none" stroke="#63b8ff" d="M315.12,-195.81C323.6,-195.9 332.28,-195.99 340.87,-196.08"/>
<polygon fill="#63b8ff" stroke="#63b8ff" points="340.87,-199.58 350.9,-196.19 340.94,-192.59 340.87,-199.58"/>
</a>
</g>
</g>
<!-- Node11 -->
<g id="Node000011" class="node">
<title>Node11</title>
<g id="a_Node000011"><a xlink:href="namespacem__phase__change.html#a1c6df16af0868f7d4004d427cc7cead9" target="_top" xlink:title="This auxiliary subroutine finds the Saturation temperature for a given saturation pressure through a ...">
<polygon fill="white" stroke="#666666" points="495.5,-163.5 358.5,-163.5 358.5,-144.5 495.5,-144.5 495.5,-163.5"/>
<text text-anchor="middle" x="427" y="-151.5" font-family="Helvetica,sans-Serif" font-size="10.00">m_phase_change::s_tsat</text>
</a>
</g>
</g>
<!-- Node6&#45;&gt;Node11 -->
<g id="edge10_Node000006_Node000011" class="edge">
<title>Node6&#45;&gt;Node11</title>
<g id="a_edge10_Node000006_Node000011"><a xlink:title=" ">
<path fill="none" stroke="#63b8ff" d="M308.2,-179.97C329.49,-175.27 352.65,-170.17 372.75,-165.74"/>
<polygon fill="#63b8ff" stroke="#63b8ff" points="373.64,-169.13 382.66,-163.55 372.14,-162.29 373.64,-169.13"/>
</a>
</g>
</g>
<!-- Node9 -->
<g id="Node000009" class="node">
<title>Node9</title>
<g id="a_Node000009"><a xlink:href="namespacem__phase__change.html#a9ff16bc40d4128d3e5eef593077b6a71" target="_top" xlink:title="This auxiliary subroutine calculates the 2 x 2 Jacobian and, its inverse and transpose to be used in ...">
<polygon fill="white" stroke="#666666" points="700,-260 539,-260 539,-230 700,-230 700,-260"/>
<text text-anchor="start" x="547" y="-248" font-family="Helvetica,sans-Serif" font-size="10.00">m_phase_change::s_compute</text>
<text text-anchor="middle" x="619.5" y="-237" font-family="Helvetica,sans-Serif" font-size="10.00">_jacobian_matrix</text>
</a>
</g>
</g>
<!-- Node8&#45;&gt;Node9 -->
<g id="edge8_Node000008_Node000009" class="edge">
<title>Node8&#45;&gt;Node9</title>
<g id="a_edge8_Node000008_Node000009"><a xlink:title=" ">
<path fill="none" stroke="#63b8ff" d="M487.75,-212.06C507.26,-216.97 529.08,-222.47 549.22,-227.54"/>
<polygon fill="#63b8ff" stroke="#63b8ff" points="548.41,-230.95 558.96,-230 550.12,-224.16 548.41,-230.95"/>
</a>
</g>
</g>
<!-- Node10 -->
<g id="Node000010" class="node">
<title>Node10</title>
<g id="a_Node000010"><a xlink:href="namespacem__phase__change.html#a60cd7a77a48d1910bcafb63c0dd87179" target="_top" xlink:title="This auxiliary subroutine computes the residue of the pTg&#45;equilibrium procedure.">
<polygon fill="white" stroke="#666666" points="700,-212 539,-212 539,-182 700,-182 700,-212"/>
<text text-anchor="start" x="547" y="-200" font-family="Helvetica,sans-Serif" font-size="10.00">m_phase_change::s_compute</text>
<text text-anchor="middle" x="619.5" y="-189" font-family="Helvetica,sans-Serif" font-size="10.00">_ptg_residue</text>
</a>
</g>
</g>
<!-- Node8&#45;&gt;Node10 -->
<g id="edge9_Node000008_Node000010" class="edge">
<title>Node8&#45;&gt;Node10</title>
<g id="a_edge9_Node000008_Node000010"><a xlink:title=" ">
<path fill="none" stroke="#63b8ff" d="M503.02,-197C511.47,-197 520.15,-197 528.77,-197"/>
<polygon fill="#63b8ff" stroke="#63b8ff" points="528.85,-200.5 538.85,-197 528.85,-193.5 528.85,-200.5"/>
</a>
</g>
</g>
<!-- Node12 -->
<g id="Node000012" class="node">
<title>Node12</title>
<g id="a_Node000012"><a xlink:href="namespacem__helper__basic.html#a3f0eae73a833f30924d4b2665a13a429" target="_top" xlink:title="This procedure checks if two floating point numbers of wp are within tolerance.">
<polygon fill="white" stroke="#666666" points="690.5,-164 548.5,-164 548.5,-134 690.5,-134 690.5,-164"/>
<text text-anchor="start" x="556.5" y="-152" font-family="Helvetica,sans-Serif" font-size="10.00">m_helper_basic::f_approx</text>
<text text-anchor="middle" x="619.5" y="-141" font-family="Helvetica,sans-Serif" font-size="10.00">_equal</text>
</a>
</g>
</g>
<!-- Node11&#45;&gt;Node12 -->
<g id="edge11_Node000011_Node000012" class="edge">
<title>Node11&#45;&gt;Node12</title>
<g id="a_edge11_Node000011_Node000012"><a xlink:title=" ">
<path fill="none" stroke="#63b8ff" d="M495.7,-152.22C509.47,-151.86 524.08,-151.48 538.23,-151.11"/>
<polygon fill="#63b8ff" stroke="#63b8ff" points="538.54,-154.6 548.44,-150.84 538.36,-147.6 538.54,-154.6"/>
</a>
</g>
</g>
<!-- Node15 -->
<g id="Node000015" class="node">
<title>Node15</title>
<g id="a_Node000015"><a xlink:href="namespacem__time__steppers.html#a478ee89172580cccd27e418731bc09b6" target="_top" xlink:title="Bubble source part in Strang operator splitting scheme.">
<polygon fill="white" stroke="#666666" points="486,-126 368,-126 368,-96 486,-96 486,-126"/>
<text text-anchor="start" x="376" y="-114" font-family="Helvetica,sans-Serif" font-size="10.00">m_time_steppers::s</text>
<text text-anchor="middle" x="427" y="-103" font-family="Helvetica,sans-Serif" font-size="10.00">_adaptive_dt_bubble</text>
</a>
</g>
</g>
<!-- Node14&#45;&gt;Node15 -->
<g id="edge14_Node000014_Node000015" class="edge">
<title>Node14&#45;&gt;Node15</title>
<g id="a_edge14_Node000014_Node000015"><a xlink:title=" ">
<path fill="none" stroke="#63b8ff" d="M295.55,-91.36C315.15,-94.31 337.41,-97.66 357.92,-100.75"/>
<polygon fill="#63b8ff" stroke="#63b8ff" points="357.42,-104.22 367.83,-102.24 358.46,-97.29 357.42,-104.22"/>
</a>
</g>
</g>
<!-- Node16 -->
<g id="Node000016" class="node">
<title>Node16</title>
<g id="a_Node000016"><a xlink:href="namespacem__time__steppers.html#a2238f553b1b6228709f9e3387d41cb01" target="_top" xlink:title="This subroutine applies the body forces source term at each Runge&#45;Kutta stage.">
<polygon fill="white" stroke="#666666" points="483.5,-78 370.5,-78 370.5,-48 483.5,-48 483.5,-78"/>
<text text-anchor="start" x="378.5" y="-66" font-family="Helvetica,sans-Serif" font-size="10.00">m_time_steppers::s</text>
<text text-anchor="middle" x="427" y="-55" font-family="Helvetica,sans-Serif" font-size="10.00">_apply_bodyforces</text>
</a>
</g>
</g>
<!-- Node14&#45;&gt;Node16 -->
<g id="edge15_Node000014_Node000016" class="edge">
<title>Node14&#45;&gt;Node16</title>
<g id="a_edge15_Node000014_Node000016"><a xlink:title=" ">
<path fill="none" stroke="#63b8ff" d="M295.55,-77.03C315.88,-74.84 339.08,-72.35 360.22,-70.07"/>
<polygon fill="#63b8ff" stroke="#63b8ff" points="360.84,-73.53 370.41,-68.98 360.09,-66.57 360.84,-73.53"/>
</a>
</g>
</g>
<!-- Node17 -->
<g id="Node000017" class="node">
<title>Node17</title>
<g id="a_Node000017"><a xlink:href="namespacem__time__steppers.html#a575aa7f95bf96994f49d81d71d19c192" target="_top" xlink:title="This subroutine saves the temporary q_prim_vf vector into the q_prim_ts vector that is then used in p...">
<polygon fill="white" stroke="#666666" points="483.5,-30 370.5,-30 370.5,0 483.5,0 483.5,-30"/>
<text text-anchor="start" x="378.5" y="-18" font-family="Helvetica,sans-Serif" font-size="10.00">m_time_steppers::s</text>
<text text-anchor="middle" x="427" y="-7" font-family="Helvetica,sans-Serif" font-size="10.00">_time_step_cycling</text>
</a>
</g>
</g>
<!-- Node14&#45;&gt;Node17 -->
<g id="edge16_Node000014_Node000017" class="edge">
<title>Node14&#45;&gt;Node17</title>
<g id="a_edge16_Node000014_Node000017"><a xlink:title=" ">
<path fill="none" stroke="#63b8ff" d="M276.26,-67.91C297.83,-59.11 325.82,-48.01 351,-39 356.44,-37.05 362.13,-35.09 367.84,-33.18"/>
<polygon fill="#63b8ff" stroke="#63b8ff" points="369.03,-36.48 377.42,-30.01 366.83,-29.83 369.03,-36.48"/>
</a>
</g>
</g>
</g>
</svg>

<g id="navigator" transform="translate(0 0)" fill="#404254">
  <rect fill="#f2f5e9" fill-opacity="0.5" stroke="#606060" stroke-width=".5" x="0" y="0" width="60" height="60"/>
  <use id="zoomplus" xlink:href="#zoomPlus" x="17" y="9" onmousedown="handleZoom(evt,'in')"/>
  <use id="zoomminus" xlink:href="#zoomMin" x="42" y="9" onmousedown="handleZoom(evt,'out')"/>
  <use id="reset" xlink:href="#resetDef" x="30" y="36" onmousedown="handleReset()"/>
   <use id="arrowup" xlink:href="#arrowUp" x="0" y="0" onmousedown="handlePan(0,-1)"/>
  <use id="arrowright" xlink:href="#arrowRight" x="0" y="0" onmousedown="handlePan(1,0)"/>
  <use id="arrowdown" xlink:href="#arrowDown" x="0" y="0" onmousedown="handlePan(0,1)"/>
  <use id="arrowleft" xlink:href="#arrowLeft" x="0" y="0" onmousedown="handlePan(-1,0)"/>
</g>
<svg viewBox="0 0 15 15" width="100%" height="30px" preserveAspectRatio="xMaxYMin meet">
 <g id="arrow_out" transform="scale(0.3 0.3)">
  <a xlink:href="namespacem__start__up_ae28835629de9baa7fd546672a0add0e5_cgraph_org.svg" target="_base">
   <rect id="button" ry="5" rx="5" y="6" x="6" height="38" width="38"
        fill="#f2f5e9" fill-opacity="0.5" stroke="#606060" stroke-width="1.0"/>
   <path id="arrow"
     d="M 11.500037,31.436501 C 11.940474,20.09759 22.043105,11.32322 32.158766,21.979434 L 37.068811,17.246167 C 37.068811,17.246167 37.088388,32 37.088388,32 L 22.160133,31.978069 C 22.160133,31.978069 26.997745,27.140456 26.997745,27.140456 C 18.528582,18.264221 13.291696,25.230495 11.500037,31.436501 z"
     style="fill:#404040;"/>
  </a>
 </g>
</svg>

<style type='text/css'>
<![CDATA[
[data-mouse-over-selected='false'] { opacity: 0.7; }
[data-mouse-over-selected='true']  { opacity: 1.0; }
]]>
</style>
<script type="application/ecmascript"><![CDATA[
document.addEventListener('DOMContentLoaded', (event) => {
  highlightEdges();
  highlightAdjacentNodes();
});
]]></script>
</svg>
