<?xml version="1.0" encoding="UTF-8" standalone="no"?>
<!DOCTYPE svg PUBLIC "-//W3C//DTD SVG 1.1//EN"
 "http://www.w3.org/Graphics/SVG/1.1/DTD/svg11.dtd">
<!-- Generated by graphviz version 2.43.0 (0)
 -->
<!-- Title: m_checker_common::s_check_inputs_stiffened_eos Pages: 1 -->
<svg width="503pt" height="76pt"
 viewBox="0.00 0.00 503.00 75.50" xmlns="http://www.w3.org/2000/svg" xmlns:xlink="http://www.w3.org/1999/xlink">
<g id="graph0" class="graph" transform="scale(1 1) rotate(0) translate(4 71.5)">
<title>m_checker_common::s_check_inputs_stiffened_eos</title>
<!-- Node1 -->
<g id="Node000001" class="node">
<title>Node1</title>
<g id="a_Node000001"><a xlink:title="Checks constraints on the stiffened equation of state fluids parameters. Called by s_check_inputs_com...">
<polygon fill="#999999" stroke="#666666" points="156,-45.5 0,-45.5 0,-15.5 156,-15.5 156,-45.5"/>
<text text-anchor="start" x="8" y="-33.5" font-family="Helvetica,sans-Serif" font-size="10.00">m_checker_common::s</text>
<text text-anchor="middle" x="78" y="-22.5" font-family="Helvetica,sans-Serif" font-size="10.00">_check_inputs_stiffened_eos</text>
</a>
</g>
</g>
<!-- Node2 -->
<g id="Node000002" class="node">
<title>Node2</title>
<g id="a_Node000002"><a xlink:href="namespacem__helper__basic.html#af1b06a05daa43f724ac3b0ff2f97db14" target="_top" xlink:title="Checks if a real(wp) variable is of default value.">
<polygon fill="white" stroke="#666666" points="312.5,-67.5 196.5,-67.5 196.5,-37.5 312.5,-37.5 312.5,-67.5"/>
<text text-anchor="start" x="204.5" y="-55.5" font-family="Helvetica,sans-Serif" font-size="10.00">m_helper_basic::f_is</text>
<text text-anchor="middle" x="254.5" y="-44.5" font-family="Helvetica,sans-Serif" font-size="10.00">_default</text>
</a>
</g>
</g>
<!-- Node1&#45;&gt;Node2 -->
<g id="edge1_Node000001_Node000002" class="edge">
<title>Node1&#45;&gt;Node2</title>
<g id="a_edge1_Node000001_Node000002"><a xlink:title=" ">
<path fill="none" stroke="#63b8ff" d="M156.05,-40.21C166.08,-41.48 176.29,-42.77 186.14,-44.01"/>
<polygon fill="#63b8ff" stroke="#63b8ff" points="185.9,-47.5 196.26,-45.28 186.77,-40.56 185.9,-47.5"/>
</a>
</g>
</g>
<!-- Node4 -->
<g id="Node000004" class="node">
<title>Node4</title>
<g id="a_Node000004"><a xlink:href="namespacem__helper.html#afd343d70a36c65cb7be86a183aa594ac" target="_top" xlink:title=" ">
<polygon fill="white" stroke="#666666" points="317,-19 192,-19 192,0 317,0 317,-19"/>
<text text-anchor="middle" x="254.5" y="-7" font-family="Helvetica,sans-Serif" font-size="10.00">m_helper::s_int_to_str</text>
</a>
</g>
</g>
<!-- Node1&#45;&gt;Node4 -->
<g id="edge3_Node000001_Node000004" class="edge">
<title>Node1&#45;&gt;Node4</title>
<g id="a_edge3_Node000001_Node000004"><a xlink:title=" ">
<path fill="none" stroke="#63b8ff" d="M156.05,-21.23C164.55,-20.2 173.18,-19.17 181.62,-18.15"/>
<polygon fill="#63b8ff" stroke="#63b8ff" points="182.28,-21.6 191.79,-16.93 181.44,-14.65 182.28,-21.6"/>
</a>
</g>
</g>
<!-- Node3 -->
<g id="Node000003" class="node">
<title>Node3</title>
<g id="a_Node000003"><a xlink:href="namespacem__helper__basic.html#a3f0eae73a833f30924d4b2665a13a429" target="_top" xlink:title="This procedure checks if two floating point numbers of wp are within tolerance.">
<polygon fill="white" stroke="#666666" points="495,-67.5 353,-67.5 353,-37.5 495,-37.5 495,-67.5"/>
<text text-anchor="start" x="361" y="-55.5" font-family="Helvetica,sans-Serif" font-size="10.00">m_helper_basic::f_approx</text>
<text text-anchor="middle" x="424" y="-44.5" font-family="Helvetica,sans-Serif" font-size="10.00">_equal</text>
</a>
</g>
</g>
<!-- Node2&#45;&gt;Node3 -->
<g id="edge2_Node000002_Node000003" class="edge">
<title>Node2&#45;&gt;Node3</title>
<g id="a_edge2_Node000002_Node000003"><a xlink:title=" ">
<path fill="none" stroke="#63b8ff" d="M312.68,-52.5C322.34,-52.5 332.54,-52.5 342.66,-52.5"/>
<polygon fill="#63b8ff" stroke="#63b8ff" points="342.75,-56 352.75,-52.5 342.75,-49 342.75,-56"/>
</a>
</g>
</g>
</g>
</svg>
