<?xml version="1.0" encoding="UTF-8" standalone="no"?>
<!DOCTYPE svg PUBLIC "-//W3C//DTD SVG 1.1//EN"
 "http://www.w3.org/Graphics/SVG/1.1/DTD/svg11.dtd">
<!-- Generated by graphviz version 2.43.0 (0)
 -->
<!-- Title: m_rhs::s_compute_rhs Pages: 1 -->
<svg width="521pt" height="194pt"
 viewBox="0.00 0.00 521.00 193.50" xmlns="http://www.w3.org/2000/svg" xmlns:xlink="http://www.w3.org/1999/xlink">
<g id="graph0" class="graph" transform="scale(1 1) rotate(0) translate(4 189.5)">
<title>m_rhs::s_compute_rhs</title>
<!-- Node1 -->
<g id="Node000001" class="node">
<title>Node1</title>
<g id="a_Node000001"><a xlink:title=" ">
<polygon fill="#999999" stroke="#666666" points="126,-108 0,-108 0,-89 126,-89 126,-108"/>
<text text-anchor="middle" x="63" y="-96" font-family="Helvetica,sans-Serif" font-size="10.00">m_rhs::s_compute_rhs</text>
</a>
</g>
</g>
<!-- Node2 -->
<g id="Node000002" class="node">
<title>Node2</title>
<g id="a_Node000002"><a xlink:href="namespacem__rhs.html#a2df6b2a1323afaca022b5ef77dd4c0e0" target="_top" xlink:title=" ">
<polygon fill="white" stroke="#666666" points="322,-185.5 162,-185.5 162,-155.5 322,-155.5 322,-185.5"/>
<text text-anchor="start" x="170" y="-173.5" font-family="Helvetica,sans-Serif" font-size="10.00">m_rhs::s_compute_additional</text>
<text text-anchor="middle" x="242" y="-162.5" font-family="Helvetica,sans-Serif" font-size="10.00">_physics_rhs</text>
</a>
</g>
</g>
<!-- Node1&#45;&gt;Node2 -->
<g id="edge1_Node000001_Node000002" class="edge">
<title>Node1&#45;&gt;Node2</title>
<g id="a_edge1_Node000001_Node000002"><a xlink:title=" ">
<path fill="none" stroke="#63b8ff" d="M81.32,-108.04C100.61,-118.42 132.92,-135.04 162,-146.5 167,-148.47 172.23,-150.38 177.52,-152.2"/>
<polygon fill="#63b8ff" stroke="#63b8ff" points="176.46,-155.54 187.06,-155.38 178.68,-148.9 176.46,-155.54"/>
</a>
</g>
</g>
<!-- Node3 -->
<g id="Node000003" class="node">
<title>Node3</title>
<g id="a_Node000003"><a xlink:href="namespacem__rhs.html#a5809a021c8e55e523aa8bfabb41a3e1e" target="_top" xlink:title=" ">
<polygon fill="white" stroke="#666666" points="321.5,-137.5 162.5,-137.5 162.5,-107.5 321.5,-107.5 321.5,-137.5"/>
<text text-anchor="start" x="170.5" y="-125.5" font-family="Helvetica,sans-Serif" font-size="10.00">m_rhs::s_compute_advection</text>
<text text-anchor="middle" x="242" y="-114.5" font-family="Helvetica,sans-Serif" font-size="10.00">_source_term</text>
</a>
</g>
</g>
<!-- Node1&#45;&gt;Node3 -->
<g id="edge2_Node000001_Node000003" class="edge">
<title>Node1&#45;&gt;Node3</title>
<g id="a_edge2_Node000001_Node000003"><a xlink:title=" ">
<path fill="none" stroke="#63b8ff" d="M126.4,-106.96C134.86,-108.11 143.67,-109.3 152.49,-110.5"/>
<polygon fill="#63b8ff" stroke="#63b8ff" points="152.03,-113.97 162.41,-111.84 152.97,-107.03 152.03,-113.97"/>
</a>
</g>
</g>
<!-- Node5 -->
<g id="Node000005" class="node">
<title>Node5</title>
<g id="a_Node000005"><a xlink:href="namespacem__rhs.html#a48c0b3313ccec916c5cb2652f8cad5b0" target="_top" xlink:title="The purpose of this procedure is to infinitely relax the pressures from the internal&#45;energy equations...">
<polygon fill="white" stroke="#666666" points="306,-89.5 178,-89.5 178,-59.5 306,-59.5 306,-89.5"/>
<text text-anchor="start" x="186" y="-77.5" font-family="Helvetica,sans-Serif" font-size="10.00">m_rhs::s_reconstruct</text>
<text text-anchor="middle" x="242" y="-66.5" font-family="Helvetica,sans-Serif" font-size="10.00">_cell_boundary_values</text>
</a>
</g>
</g>
<!-- Node1&#45;&gt;Node5 -->
<g id="edge4_Node000001_Node000005" class="edge">
<title>Node1&#45;&gt;Node5</title>
<g id="a_edge4_Node000001_Node000005"><a xlink:title=" ">
<path fill="none" stroke="#63b8ff" d="M126.4,-90.04C139.86,-88.21 154.2,-86.27 168.02,-84.4"/>
<polygon fill="#63b8ff" stroke="#63b8ff" points="168.53,-87.86 177.97,-83.05 167.59,-80.92 168.53,-87.86"/>
</a>
</g>
</g>
<!-- Node6 -->
<g id="Node000006" class="node">
<title>Node6</title>
<g id="a_Node000006"><a xlink:href="namespacem__rhs.html#a28b3de48d795ac9f0ec2d0c83ef50ef5" target="_top" xlink:title=" ">
<polygon fill="white" stroke="#666666" points="306,-41 178,-41 178,0 306,0 306,-41"/>
<text text-anchor="start" x="186" y="-29" font-family="Helvetica,sans-Serif" font-size="10.00">m_rhs::s_reconstruct</text>
<text text-anchor="start" x="186" y="-18" font-family="Helvetica,sans-Serif" font-size="10.00">_cell_boundary_values</text>
<text text-anchor="middle" x="242" y="-7" font-family="Helvetica,sans-Serif" font-size="10.00">_first_order</text>
</a>
</g>
</g>
<!-- Node1&#45;&gt;Node6 -->
<g id="edge5_Node000001_Node000006" class="edge">
<title>Node1&#45;&gt;Node6</title>
<g id="a_edge5_Node000001_Node000006"><a xlink:title=" ">
<path fill="none" stroke="#63b8ff" d="M82.19,-88.96C101.69,-78.89 133.67,-62.79 162,-50.5 166.4,-48.59 170.96,-46.69 175.57,-44.81"/>
<polygon fill="#63b8ff" stroke="#63b8ff" points="177.08,-47.97 185.06,-41 174.48,-41.47 177.08,-47.97"/>
</a>
</g>
</g>
<!-- Node4 -->
<g id="Node000004" class="node">
<title>Node4</title>
<g id="a_Node000004"><a xlink:href="m__rhs_8fpp_8f90.html#af45f15d6e6ca83c8ae92f98a2a72ff8d" target="_top" xlink:title=" ">
<polygon fill="white" stroke="#666666" points="513,-137.5 358,-137.5 358,-107.5 513,-107.5 513,-137.5"/>
<text text-anchor="start" x="366" y="-125.5" font-family="Helvetica,sans-Serif" font-size="10.00">s_add_directional_advection</text>
<text text-anchor="middle" x="435.5" y="-114.5" font-family="Helvetica,sans-Serif" font-size="10.00">_source_terms</text>
</a>
</g>
</g>
<!-- Node3&#45;&gt;Node4 -->
<g id="edge3_Node000003_Node000004" class="edge">
<title>Node3&#45;&gt;Node4</title>
<g id="a_edge3_Node000003_Node000004"><a xlink:title=" ">
<path fill="none" stroke="#63b8ff" d="M321.72,-122.5C330.32,-122.5 339.11,-122.5 347.8,-122.5"/>
<polygon fill="#63b8ff" stroke="#63b8ff" points="347.94,-126 357.94,-122.5 347.94,-119 347.94,-126"/>
</a>
</g>
</g>
</g>
</svg>
