<?xml version="1.0" encoding="UTF-8" standalone="no"?>
<!DOCTYPE svg PUBLIC "-//W3C//DTD SVG 1.1//EN"
 "http://www.w3.org/Graphics/SVG/1.1/DTD/svg11.dtd">
<!-- Generated by graphviz version 2.43.0 (0)
 -->
<!-- Title: m_sim_helpers::s_compute_enthalpy Pages: 1 -->
<svg width="370pt" height="108pt"
 viewBox="0.00 0.00 370.00 108.00" xmlns="http://www.w3.org/2000/svg" xmlns:xlink="http://www.w3.org/1999/xlink">
<g id="graph0" class="graph" transform="scale(1 1) rotate(0) translate(4 104)">
<title>m_sim_helpers::s_compute_enthalpy</title>
<!-- Node1 -->
<g id="Node000001" class="node">
<title>Node1</title>
<g id="a_Node000001"><a xlink:title="Computes enthalpy.">
<polygon fill="#999999" stroke="#666666" points="150,-64.5 0,-64.5 0,-34.5 150,-34.5 150,-64.5"/>
<text text-anchor="start" x="8" y="-52.5" font-family="Helvetica,sans-Serif" font-size="10.00">m_sim_helpers::s_compute</text>
<text text-anchor="middle" x="75" y="-41.5" font-family="Helvetica,sans-Serif" font-size="10.00">_enthalpy</text>
</a>
</g>
</g>
<!-- Node2 -->
<g id="Node000002" class="node">
<title>Node2</title>
<g id="a_Node000002"><a xlink:href="namespacem__variables__conversion.html#af1bda14464459b0fd9448dd8885741c7" target="_top" xlink:title=" ">
<polygon fill="white" stroke="#666666" points="341.5,-100 206.5,-100 206.5,-59 341.5,-59 341.5,-100"/>
<text text-anchor="start" x="214.5" y="-88" font-family="Helvetica,sans-Serif" font-size="10.00">m_variables_conversion</text>
<text text-anchor="start" x="214.5" y="-77" font-family="Helvetica,sans-Serif" font-size="10.00">::s_convert_species_to</text>
<text text-anchor="middle" x="274" y="-66" font-family="Helvetica,sans-Serif" font-size="10.00">_mixture_variables_acc</text>
</a>
</g>
</g>
<!-- Node1&#45;&gt;Node2 -->
<g id="edge1_Node000001_Node000002" class="edge">
<title>Node1&#45;&gt;Node2</title>
<g id="a_edge1_Node000001_Node000002"><a xlink:title=" ">
<path fill="none" stroke="#63b8ff" d="M150.2,-60.8C165.17,-63.08 180.95,-65.48 196.02,-67.78"/>
<polygon fill="#63b8ff" stroke="#63b8ff" points="195.91,-71.3 206.32,-69.35 196.96,-64.38 195.91,-71.3"/>
</a>
</g>
</g>
<!-- Node3 -->
<g id="Node000003" class="node">
<title>Node3</title>
<g id="a_Node000003"><a xlink:href="namespacem__variables__conversion.html#a26c6917f419e63e2c721b2e184cc955f" target="_top" xlink:title=" ">
<polygon fill="white" stroke="#666666" points="362,-41 186,-41 186,0 362,0 362,-41"/>
<text text-anchor="start" x="194" y="-29" font-family="Helvetica,sans-Serif" font-size="10.00">m_variables_conversion</text>
<text text-anchor="start" x="194" y="-18" font-family="Helvetica,sans-Serif" font-size="10.00">::s_convert_species_to</text>
<text text-anchor="middle" x="274" y="-7" font-family="Helvetica,sans-Serif" font-size="10.00">_mixture_variables_bubbles_acc</text>
</a>
</g>
</g>
<!-- Node1&#45;&gt;Node3 -->
<g id="edge2_Node000001_Node000003" class="edge">
<title>Node1&#45;&gt;Node3</title>
<g id="a_edge2_Node000001_Node000003"><a xlink:title=" ">
<path fill="none" stroke="#63b8ff" d="M150.2,-38.58C158.58,-37.34 167.22,-36.07 175.85,-34.8"/>
<polygon fill="#63b8ff" stroke="#63b8ff" points="176.57,-38.23 185.95,-33.31 175.55,-31.31 176.57,-38.23"/>
</a>
</g>
</g>
</g>
</svg>
