<?xml version="1.0" encoding="UTF-8" standalone="no"?>
<!DOCTYPE svg PUBLIC "-//W3C//DTD SVG 1.1//EN"
 "http://www.w3.org/Graphics/SVG/1.1/DTD/svg11.dtd">
<!-- Generated by graphviz version 2.43.0 (0)
 -->
<!-- Title: m_compute_cbc::s_compute_constant_pressure_subsonic_outflow_l Pages: 1 -->
<svg width="352pt" height="172pt"
 viewBox="0.00 0.00 352.00 171.50" xmlns="http://www.w3.org/2000/svg" xmlns:xlink="http://www.w3.org/1999/xlink">

<svg id="main" version="1.1" xmlns="http://www.w3.org/2000/svg" xmlns:xlink="http://www.w3.org/1999/xlink" xml:space="preserve">

<style type="text/css"><![CDATA[
.node, .edge {opacity: 0.7;}
.node.selected, .edge.selected {opacity: 1;}
.edge:hover path { stroke: red; }
.edge:hover polygon { stroke: red; fill: red; }
]]></style>
<script type="application/ecmascript" xlink:href="svg.min.js"/>
<svg id="graph" class="graph">
<g id="graph0" class="graph" transform="scale(1 1) rotate(0) translate(4 167.5)">
<title>m_compute_cbc::s_compute_constant_pressure_subsonic_outflow_l</title>
<!-- Node1 -->
<g id="Node000001" class="node">
<title>Node1</title>
<g id="a_Node000001"><a xlink:title="Constant pressure subsonic outflow CBC (Thompson 1990, pg. 455)">
<polygon fill="#999999" stroke="#666666" points="159,-107.5 0,-107.5 0,-66.5 159,-66.5 159,-107.5"/>
<text text-anchor="start" x="8" y="-95.5" font-family="Helvetica,sans-Serif" font-size="10.00">m_compute_cbc::s_compute</text>
<text text-anchor="start" x="8" y="-84.5" font-family="Helvetica,sans-Serif" font-size="10.00">_constant_pressure_subsonic</text>
<text text-anchor="middle" x="79.5" y="-73.5" font-family="Helvetica,sans-Serif" font-size="10.00">_outflow_l</text>
</a>
</g>
</g>
<!-- Node2 -->
<g id="Node000002" class="node">
<title>Node2</title>
<g id="a_Node000002"><a xlink:href="namespacem__compute__cbc.html#af9a8e23f0b643323989e4f191830d21b" target="_top" xlink:title="Base L1 calculation.">
<polygon fill="white" stroke="#666666" points="344,-163.5 195,-163.5 195,-144.5 344,-144.5 344,-163.5"/>
<text text-anchor="middle" x="269.5" y="-151.5" font-family="Helvetica,sans-Serif" font-size="10.00">m_compute_cbc::f_base_l1</text>
</a>
</g>
</g>
<!-- Node1&#45;&gt;Node2 -->
<g id="edge1_Node000001_Node000002" class="edge">
<title>Node1&#45;&gt;Node2</title>
<g id="a_edge1_Node000001_Node000002"><a xlink:title=" ">
<path fill="none" stroke="#63b8ff" d="M125.34,-107.56C146.24,-116.69 171.61,-127.12 195,-135 202.21,-137.43 209.9,-139.73 217.5,-141.83"/>
<polygon fill="#63b8ff" stroke="#63b8ff" points="216.81,-145.27 227.37,-144.48 218.62,-138.51 216.81,-145.27"/>
</a>
</g>
</g>
<!-- Node3 -->
<g id="Node000003" class="node">
<title>Node3</title>
<g id="a_Node000003"><a xlink:href="namespacem__compute__cbc.html#ac40d9d5da2bed3a0f612b5d7c4d77e70" target="_top" xlink:title="Fill advection L variables.">
<polygon fill="white" stroke="#666666" points="332,-126 207,-126 207,-96 332,-96 332,-126"/>
<text text-anchor="start" x="215" y="-114" font-family="Helvetica,sans-Serif" font-size="10.00">m_compute_cbc::s_fill</text>
<text text-anchor="middle" x="269.5" y="-103" font-family="Helvetica,sans-Serif" font-size="10.00">_advection_l</text>
</a>
</g>
</g>
<!-- Node1&#45;&gt;Node3 -->
<g id="edge2_Node000001_Node000003" class="edge">
<title>Node1&#45;&gt;Node3</title>
<g id="a_edge2_Node000001_Node000003"><a xlink:title=" ">
<path fill="none" stroke="#63b8ff" d="M159.14,-97.04C171.56,-98.62 184.35,-100.26 196.6,-101.82"/>
<polygon fill="#63b8ff" stroke="#63b8ff" points="196.39,-105.32 206.75,-103.12 197.28,-98.38 196.39,-105.32"/>
</a>
</g>
</g>
<!-- Node4 -->
<g id="Node000004" class="node">
<title>Node4</title>
<g id="a_Node000004"><a xlink:href="namespacem__compute__cbc.html#a6d0ed88994ea18c7f7fe1ad1f1a9ef60" target="_top" xlink:title="Fill density L variables.">
<polygon fill="white" stroke="#666666" points="332,-78 207,-78 207,-48 332,-48 332,-78"/>
<text text-anchor="start" x="215" y="-66" font-family="Helvetica,sans-Serif" font-size="10.00">m_compute_cbc::s_fill</text>
<text text-anchor="middle" x="269.5" y="-55" font-family="Helvetica,sans-Serif" font-size="10.00">_density_l</text>
</a>
</g>
</g>
<!-- Node1&#45;&gt;Node4 -->
<g id="edge3_Node000001_Node000004" class="edge">
<title>Node1&#45;&gt;Node4</title>
<g id="a_edge3_Node000001_Node000004"><a xlink:title=" ">
<path fill="none" stroke="#63b8ff" d="M159.14,-76.96C171.56,-75.38 184.35,-73.74 196.6,-72.18"/>
<polygon fill="#63b8ff" stroke="#63b8ff" points="197.28,-75.62 206.75,-70.88 196.39,-68.68 197.28,-75.62"/>
</a>
</g>
</g>
<!-- Node5 -->
<g id="Node000005" class="node">
<title>Node5</title>
<g id="a_Node000005"><a xlink:href="namespacem__compute__cbc.html#a3b69b2ff5978bfa8b3b315c867d27c9d" target="_top" xlink:title="Fill velocity L variables.">
<polygon fill="white" stroke="#666666" points="332,-30 207,-30 207,0 332,0 332,-30"/>
<text text-anchor="start" x="215" y="-18" font-family="Helvetica,sans-Serif" font-size="10.00">m_compute_cbc::s_fill</text>
<text text-anchor="middle" x="269.5" y="-7" font-family="Helvetica,sans-Serif" font-size="10.00">_velocity_l</text>
</a>
</g>
</g>
<!-- Node1&#45;&gt;Node5 -->
<g id="edge4_Node000001_Node000005" class="edge">
<title>Node1&#45;&gt;Node5</title>
<g id="a_edge4_Node000001_Node000005"><a xlink:title=" ">
<path fill="none" stroke="#63b8ff" d="M127.23,-66.4C147.85,-57.57 172.48,-47.38 195,-39 200.11,-37.1 205.45,-35.2 210.82,-33.34"/>
<polygon fill="#63b8ff" stroke="#63b8ff" points="212.12,-36.59 220.46,-30.06 209.87,-29.97 212.12,-36.59"/>
</a>
</g>
</g>
</g>
</svg>
</svg>

<style type='text/css'>
<![CDATA[
[data-mouse-over-selected='false'] { opacity: 0.7; }
[data-mouse-over-selected='true']  { opacity: 1.0; }
]]>
</style>
<script type="application/ecmascript"><![CDATA[
document.addEventListener('DOMContentLoaded', (event) => {
  highlightEdges();
  highlightAdjacentNodes();
});
]]></script>
</svg>
