<?xml version="1.0" encoding="UTF-8" standalone="no"?>
<!DOCTYPE svg PUBLIC "-//W3C//DTD SVG 1.1//EN"
 "http://www.w3.org/Graphics/SVG/1.1/DTD/svg11.dtd">
<!-- Generated by graphviz version 2.43.0 (0)
 -->
<!-- Title: m_boundary_common::s_create_mpi_types Pages: 1 -->
<svg width="911pt" height="125pt"
 viewBox="0.00 0.00 911.00 124.50" xmlns="http://www.w3.org/2000/svg" xmlns:xlink="http://www.w3.org/1999/xlink">
<g id="graph0" class="graph" transform="scale(1 1) rotate(0) translate(4 120.5)">
<title>m_boundary_common::s_create_mpi_types</title>
<!-- Node1 -->
<g id="Node000001" class="node">
<title>Node1</title>
<g id="a_Node000001"><a xlink:title=" ">
<polygon fill="#999999" stroke="#666666" points="903,-64.5 772,-64.5 772,-34.5 903,-34.5 903,-64.5"/>
<text text-anchor="start" x="780" y="-52.5" font-family="Helvetica,sans-Serif" font-size="10.00">m_boundary_common::</text>
<text text-anchor="middle" x="837.5" y="-41.5" font-family="Helvetica,sans-Serif" font-size="10.00">s_create_mpi_types</text>
</a>
</g>
</g>
<!-- Node2 -->
<g id="Node000002" class="node">
<title>Node2</title>
<g id="a_Node000002"><a xlink:href="namespacem__boundary__common.html#a81909d1af9c5476df6c091b1e714ca99" target="_top" xlink:title=" ">
<polygon fill="white" stroke="#666666" points="734.5,-100 592.5,-100 592.5,-59 734.5,-59 734.5,-100"/>
<text text-anchor="start" x="600.5" y="-88" font-family="Helvetica,sans-Serif" font-size="10.00">m_boundary_common::</text>
<text text-anchor="start" x="600.5" y="-77" font-family="Helvetica,sans-Serif" font-size="10.00">s_read_parallel_boundary</text>
<text text-anchor="middle" x="663.5" y="-66" font-family="Helvetica,sans-Serif" font-size="10.00">_condition_files</text>
</a>
</g>
</g>
<!-- Node1&#45;&gt;Node2 -->
<g id="edge1_Node000001_Node000002" class="edge">
<title>Node1&#45;&gt;Node2</title>
<g id="a_edge1_Node000001_Node000002"><a xlink:title=" ">
<path fill="none" stroke="#63b8ff" d="M761.84,-62.52C752.79,-64.1 743.57,-65.71 734.58,-67.28"/>
<polygon fill="#63b8ff" stroke="#63b8ff" points="762.71,-65.92 771.96,-60.76 761.51,-59.03 762.71,-65.92"/>
</a>
</g>
</g>
<!-- Node7 -->
<g id="Node000007" class="node">
<title>Node7</title>
<g id="a_Node000007"><a xlink:href="namespacem__boundary__common.html#a2aefea0840d9c981126f0fa7f5087d8f" target="_top" xlink:title=" ">
<polygon fill="white" stroke="#666666" points="736,-41 591,-41 591,0 736,0 736,-41"/>
<text text-anchor="start" x="599" y="-29" font-family="Helvetica,sans-Serif" font-size="10.00">m_boundary_common::</text>
<text text-anchor="start" x="599" y="-18" font-family="Helvetica,sans-Serif" font-size="10.00">s_write_parallel_boundary</text>
<text text-anchor="middle" x="663.5" y="-7" font-family="Helvetica,sans-Serif" font-size="10.00">_condition_files</text>
</a>
</g>
</g>
<!-- Node1&#45;&gt;Node7 -->
<g id="edge7_Node000001_Node000007" class="edge">
<title>Node1&#45;&gt;Node7</title>
<g id="a_edge7_Node000001_Node000007"><a xlink:title=" ">
<path fill="none" stroke="#63b8ff" d="M761.96,-36.93C753.35,-35.48 744.6,-34 736.03,-32.56"/>
<polygon fill="#63b8ff" stroke="#63b8ff" points="761.52,-40.41 771.96,-38.62 762.69,-33.51 761.52,-40.41"/>
</a>
</g>
</g>
<!-- Node3 -->
<g id="Node000003" class="node">
<title>Node3</title>
<g id="a_Node000003"><a xlink:href="namespacem__data__input.html#a1e9dfd5c6be77bbfa34abb90c77216b4" target="_top" xlink:title="This subroutine is called at each time&#45;step that has to be post&#45;processed in order to parallel&#45;read t...">
<polygon fill="white" stroke="#666666" points="555,-94.5 433,-94.5 433,-64.5 555,-64.5 555,-94.5"/>
<text text-anchor="start" x="441" y="-82.5" font-family="Helvetica,sans-Serif" font-size="10.00">m_data_input::s_read</text>
<text text-anchor="middle" x="494" y="-71.5" font-family="Helvetica,sans-Serif" font-size="10.00">_parallel_data_files</text>
</a>
</g>
</g>
<!-- Node2&#45;&gt;Node3 -->
<g id="edge2_Node000002_Node000003" class="edge">
<title>Node2&#45;&gt;Node3</title>
<g id="a_edge2_Node000002_Node000003"><a xlink:title=" ">
<path fill="none" stroke="#63b8ff" d="M582.22,-79.5C573.13,-79.5 563.98,-79.5 555.21,-79.5"/>
<polygon fill="#63b8ff" stroke="#63b8ff" points="582.44,-83 592.44,-79.5 582.44,-76 582.44,-83"/>
</a>
</g>
</g>
<!-- Node4 -->
<g id="Node000004" class="node">
<title>Node4</title>
<g id="a_Node000004"><a xlink:href="namespacem__data__input.html#a5746c07ce2bd024e906a721e6552443f" target="_top" xlink:title="Computation of parameters, allocation procedures, and/or any other tasks needed to properly setup the...">
<polygon fill="white" stroke="#666666" points="397,-116.5 255,-116.5 255,-86.5 397,-86.5 397,-116.5"/>
<text text-anchor="start" x="263" y="-104.5" font-family="Helvetica,sans-Serif" font-size="10.00">m_data_input::s_initialize</text>
<text text-anchor="middle" x="326" y="-93.5" font-family="Helvetica,sans-Serif" font-size="10.00">_data_input_module</text>
</a>
</g>
</g>
<!-- Node3&#45;&gt;Node4 -->
<g id="edge3_Node000003_Node000004" class="edge">
<title>Node3&#45;&gt;Node4</title>
<g id="a_edge3_Node000003_Node000004"><a xlink:title=" ">
<path fill="none" stroke="#63b8ff" d="M422.5,-88.84C414.13,-89.95 405.58,-91.09 397.21,-92.19"/>
<polygon fill="#63b8ff" stroke="#63b8ff" points="423.15,-92.29 432.6,-87.5 422.23,-85.35 423.15,-92.29"/>
</a>
</g>
</g>
<!-- Node5 -->
<g id="Node000005" class="node">
<title>Node5</title>
<g id="a_Node000005"><a xlink:href="namespacem__start__up.html#aea20fb8945d467b344a487cfe8213d99" target="_top" xlink:title=" ">
<polygon fill="white" stroke="#666666" points="219,-94.5 89,-94.5 89,-64.5 219,-64.5 219,-94.5"/>
<text text-anchor="start" x="97" y="-82.5" font-family="Helvetica,sans-Serif" font-size="10.00">m_start_up::s_initialize</text>
<text text-anchor="middle" x="154" y="-71.5" font-family="Helvetica,sans-Serif" font-size="10.00">_modules</text>
</a>
</g>
</g>
<!-- Node3&#45;&gt;Node5 -->
<g id="edge6_Node000003_Node000005" class="edge">
<title>Node3&#45;&gt;Node5</title>
<g id="a_edge6_Node000003_Node000005"><a xlink:title=" ">
<path fill="none" stroke="#63b8ff" d="M422.72,-77.87C414.06,-77.72 405.33,-77.59 397,-77.5 333.89,-76.84 318.11,-76.87 255,-77.5 243.37,-77.62 230.97,-77.81 219.01,-78.03"/>
<polygon fill="#63b8ff" stroke="#63b8ff" points="422.77,-81.37 432.83,-78.05 422.9,-74.37 422.77,-81.37"/>
</a>
</g>
</g>
<!-- Node4&#45;&gt;Node5 -->
<g id="edge4_Node000004_Node000005" class="edge">
<title>Node4&#45;&gt;Node5</title>
<g id="a_edge4_Node000004_Node000005"><a xlink:title=" ">
<path fill="none" stroke="#63b8ff" d="M244.85,-91.13C236.26,-90.02 227.61,-88.9 219.24,-87.81"/>
<polygon fill="#63b8ff" stroke="#63b8ff" points="244.51,-94.61 254.87,-92.42 245.4,-87.67 244.51,-94.61"/>
</a>
</g>
</g>
<!-- Node6 -->
<g id="Node000006" class="node">
<title>Node6</title>
<g id="a_Node000006"><a xlink:href="p__main_8fpp_8f90.html#aeec10ee8e2940c953967da3e374e1579" target="_top" xlink:title="The post&#45;process restructures raw unformatted data, outputted by the simulation, into a formatted dat...">
<polygon fill="white" stroke="#666666" points="53,-89 0,-89 0,-70 53,-70 53,-89"/>
<text text-anchor="middle" x="26.5" y="-77" font-family="Helvetica,sans-Serif" font-size="10.00">p_main</text>
</a>
</g>
</g>
<!-- Node5&#45;&gt;Node6 -->
<g id="edge5_Node000005_Node000006" class="edge">
<title>Node5&#45;&gt;Node6</title>
<g id="a_edge5_Node000005_Node000006"><a xlink:title=" ">
<path fill="none" stroke="#63b8ff" d="M78.74,-79.5C69.58,-79.5 60.76,-79.5 53.09,-79.5"/>
<polygon fill="#63b8ff" stroke="#63b8ff" points="78.78,-83 88.78,-79.5 78.78,-76 78.78,-83"/>
</a>
</g>
</g>
</g>
</svg>
