<?xml version="1.0" encoding="UTF-8" standalone="no"?>
<!DOCTYPE svg PUBLIC "-//W3C//DTD SVG 1.1//EN"
 "http://www.w3.org/Graphics/SVG/1.1/DTD/svg11.dtd">
<!-- Generated by graphviz version 2.43.0 (0)
 -->
<!-- Title: m_start_up::s_mpi_transpose_x2y Pages: 1 -->
<svg width="635pt" height="27pt"
 viewBox="0.00 0.00 635.00 27.00" xmlns="http://www.w3.org/2000/svg" xmlns:xlink="http://www.w3.org/1999/xlink">
<g id="graph0" class="graph" transform="scale(1 1) rotate(0) translate(4 23)">
<title>m_start_up::s_mpi_transpose_x2y</title>
<!-- Node1 -->
<g id="Node000001" class="node">
<title>Node1</title>
<g id="a_Node000001"><a xlink:title=" ">
<polygon fill="#999999" stroke="#666666" points="627,-19 444,-19 444,0 627,0 627,-19"/>
<text text-anchor="middle" x="535.5" y="-7" font-family="Helvetica,sans-Serif" font-size="10.00">m_start_up::s_mpi_transpose_x2y</text>
</a>
</g>
</g>
<!-- Node2 -->
<g id="Node000002" class="node">
<title>Node2</title>
<g id="a_Node000002"><a xlink:href="namespacem__start__up.html#a236e81379b1a1a1d2bc5b8015d79ec9b" target="_top" xlink:title=" ">
<polygon fill="white" stroke="#666666" points="408,-19 263,-19 263,0 408,0 408,-19"/>
<text text-anchor="middle" x="335.5" y="-7" font-family="Helvetica,sans-Serif" font-size="10.00">m_start_up::s_mpi_fft_fwd</text>
</a>
</g>
</g>
<!-- Node1&#45;&gt;Node2 -->
<g id="edge1_Node000001_Node000002" class="edge">
<title>Node1&#45;&gt;Node2</title>
<g id="a_edge1_Node000001_Node000002"><a xlink:title=" ">
<path fill="none" stroke="#63b8ff" d="M433.74,-9.5C425.08,-9.5 416.43,-9.5 408.07,-9.5"/>
<polygon fill="#63b8ff" stroke="#63b8ff" points="433.9,-13 443.9,-9.5 433.9,-6 433.9,-13"/>
</a>
</g>
</g>
<!-- Node3 -->
<g id="Node000003" class="node">
<title>Node3</title>
<g id="a_Node000003"><a xlink:href="namespacem__start__up.html#a029c0f28f15ce3aab7ada6d95db89688" target="_top" xlink:title=" ">
<polygon fill="white" stroke="#666666" points="227,-19 89,-19 89,0 227,0 227,-19"/>
<text text-anchor="middle" x="158" y="-7" font-family="Helvetica,sans-Serif" font-size="10.00">m_start_up::s_save_data</text>
</a>
</g>
</g>
<!-- Node2&#45;&gt;Node3 -->
<g id="edge2_Node000002_Node000003" class="edge">
<title>Node2&#45;&gt;Node3</title>
<g id="a_edge2_Node000002_Node000003"><a xlink:title=" ">
<path fill="none" stroke="#63b8ff" d="M252.79,-9.5C244.16,-9.5 235.46,-9.5 227.01,-9.5"/>
<polygon fill="#63b8ff" stroke="#63b8ff" points="252.86,-13 262.86,-9.5 252.86,-6 252.86,-13"/>
</a>
</g>
</g>
<!-- Node4 -->
<g id="Node000004" class="node">
<title>Node4</title>
<g id="a_Node000004"><a xlink:href="p__main_8fpp_8f90.html#aeec10ee8e2940c953967da3e374e1579" target="_top" xlink:title="The post&#45;process restructures raw unformatted data, outputted by the simulation, into a formatted dat...">
<polygon fill="white" stroke="#666666" points="53,-19 0,-19 0,0 53,0 53,-19"/>
<text text-anchor="middle" x="26.5" y="-7" font-family="Helvetica,sans-Serif" font-size="10.00">p_main</text>
</a>
</g>
</g>
<!-- Node3&#45;&gt;Node4 -->
<g id="edge3_Node000003_Node000004" class="edge">
<title>Node3&#45;&gt;Node4</title>
<g id="a_edge3_Node000003_Node000004"><a xlink:title=" ">
<path fill="none" stroke="#63b8ff" d="M78.81,-9.5C69.67,-9.5 60.91,-9.5 53.29,-9.5"/>
<polygon fill="#63b8ff" stroke="#63b8ff" points="78.84,-13 88.84,-9.5 78.84,-6 78.84,-13"/>
</a>
</g>
</g>
</g>
</svg>
