<?xml version="1.0" encoding="UTF-8" standalone="no"?>
<!DOCTYPE svg PUBLIC "-//W3C//DTD SVG 1.1//EN"
 "http://www.w3.org/Graphics/SVG/1.1/DTD/svg11.dtd">
<!-- Generated by graphviz version 2.43.0 (0)
 -->
<!-- Title: m_helper::f_gx Pages: 1 -->
<svg width="243pt" height="64pt"
 viewBox="0.00 0.00 243.00 64.00" xmlns="http://www.w3.org/2000/svg" xmlns:xlink="http://www.w3.org/1999/xlink">
<g id="graph0" class="graph" transform="scale(1 1) rotate(0) translate(4 60)">
<title>m_helper::f_gx</title>
<!-- Node1 -->
<g id="Node000001" class="node">
<title>Node1</title>
<g id="a_Node000001"><a xlink:title="This function is a helper function for the functions f_cut_on and f_cut_off.">
<polygon fill="#999999" stroke="#666666" points="235,-37 146,-37 146,-18 235,-18 235,-37"/>
<text text-anchor="middle" x="190.5" y="-25" font-family="Helvetica,sans-Serif" font-size="10.00">m_helper::f_gx</text>
</a>
</g>
</g>
<!-- Node2 -->
<g id="Node000002" class="node">
<title>Node2</title>
<g id="a_Node000002"><a xlink:href="namespacem__helper.html#aa9ba2d3fb1ef5e4a67288444a2d371c5" target="_top" xlink:title="This function calculates a smooth cut&#45;off function that is one for x values smaller than zero and goe...">
<polygon fill="white" stroke="#666666" points="110,-56 0,-56 0,-37 110,-37 110,-56"/>
<text text-anchor="middle" x="55" y="-44" font-family="Helvetica,sans-Serif" font-size="10.00">m_helper::f_cut_off</text>
</a>
</g>
</g>
<!-- Node1&#45;&gt;Node2 -->
<g id="edge1_Node000001_Node000002" class="edge">
<title>Node1&#45;&gt;Node2</title>
<g id="a_edge1_Node000001_Node000002"><a xlink:title=" ">
<path fill="none" stroke="#63b8ff" d="M135.68,-35.16C127.24,-36.36 118.52,-37.6 110.08,-38.8"/>
<polygon fill="#63b8ff" stroke="#63b8ff" points="136.38,-38.6 145.79,-33.72 135.39,-31.67 136.38,-38.6"/>
</a>
</g>
</g>
<!-- Node3 -->
<g id="Node000003" class="node">
<title>Node3</title>
<g id="a_Node000003"><a xlink:href="namespacem__helper.html#a413a13fad04174ecec58d6f51395d44c" target="_top" xlink:title="This function calculates a smooth cut&#45;on function that is zero for x values smaller than zero and goe...">
<polygon fill="white" stroke="#666666" points="110,-19 0,-19 0,0 110,0 110,-19"/>
<text text-anchor="middle" x="55" y="-7" font-family="Helvetica,sans-Serif" font-size="10.00">m_helper::f_cut_on</text>
</a>
</g>
</g>
<!-- Node1&#45;&gt;Node3 -->
<g id="edge2_Node000001_Node000003" class="edge">
<title>Node1&#45;&gt;Node3</title>
<g id="a_edge2_Node000001_Node000003"><a xlink:title=" ">
<path fill="none" stroke="#63b8ff" d="M135.68,-20.24C127.24,-19.11 118.52,-17.93 110.08,-16.79"/>
<polygon fill="#63b8ff" stroke="#63b8ff" points="135.41,-23.74 145.79,-21.61 136.34,-16.8 135.41,-23.74"/>
</a>
</g>
</g>
</g>
</svg>
