<?xml version="1.0" encoding="UTF-8" standalone="no"?>
<!DOCTYPE svg PUBLIC "-//W3C//DTD SVG 1.1//EN"
 "http://www.w3.org/Graphics/SVG/1.1/DTD/svg11.dtd">
<!-- Generated by graphviz version 2.43.0 (0)
 -->
<!-- Title: m_helper::s_int_to_str Pages: 1 -->
<!--zoomable 278 -->

<svg id="main" version="1.1" xmlns="http://www.w3.org/2000/svg" xmlns:xlink="http://www.w3.org/1999/xlink" xml:space="preserve" onload="init(evt)">

<style type="text/css"><![CDATA[
.node, .edge {opacity: 0.7;}
.node.selected, .edge.selected {opacity: 1;}
.edge:hover path { stroke: red; }
.edge:hover polygon { stroke: red; fill: red; }
]]></style>

<defs>
  <circle id="rim" cx="0" cy="0" r="7"/>
  <circle id="rim2" cx="0" cy="0" r="3.5"/>
  <g id="zoomPlus">
    <use xlink:href="#rim" fill="#404040"><set attributeName="fill" to="#808080" begin="zoomplus.mouseover" end="zoomplus.mouseout"/></use>
    <path d="M-4,0h8M0,-4v8" fill="none" stroke="white" stroke-width="1.5" pointer-events="none"/>
  </g>
  <g id="zoomMin">
    <use xlink:href="#rim" fill="#404040"><set attributeName="fill" to="#808080" begin="zoomminus.mouseover" end="zoomminus.mouseout"/></use>
    <path d="M-4,0h8" fill="none" stroke="white" stroke-width="1.5" pointer-events="none"/>
  </g>
  <g id="arrowUp" transform="translate(30 24)">
    <use xlink:href="#rim"/>
    <path pointer-events="none" fill="none" stroke="white" stroke-width="1.5" d="M0,-3.0v7 M-2.5,-0.5L0,-3.0L2.5,-0.5"/>
  </g>
  <g id="arrowRight" transform="rotate(90) translate(36 -43)">
    <use xlink:href="#rim"/>
    <path pointer-events="none" fill="none" stroke="white" stroke-width="1.5" d="M0,-3.0v7 M-2.5,-0.5L0,-3.0L2.5,-0.5"/>
  </g>
  <g id="arrowDown" transform="rotate(180) translate(-30 -48)">
    <use xlink:href="#rim"/>
    <path pointer-events="none" fill="none" stroke="white" stroke-width="1.5" d="M0,-3.0v7 M-2.5,-0.5L0,-3.0L2.5,-0.5"/>
  </g>
  <g id="arrowLeft" transform="rotate(270) translate(-36 17)">
    <use xlink:href="#rim"/>
    <path pointer-events="none" fill="none" stroke="white" stroke-width="1.5" d="M0,-3.0v7 M-2.5,-0.5L0,-3.0L2.5,-0.5"/>
  </g>
  <g id="resetDef">
    <use xlink:href="#rim2" fill="#404040"><set attributeName="fill" to="#808080" begin="reset.mouseover" end="reset.mouseout"/></use>
  </g>
</defs>
<script type="application/ecmascript">
var viewWidth = 928;
var viewHeight = 278;
var sectionId = 'dynsection-10';
</script>
<script type="application/ecmascript" xlink:href="svg.min.js"/>
<svg id="graph" class="graph">
<g id="viewport">
<title>m_helper::s_int_to_str</title>
<!-- Node1 -->
<g id="Node000001" class="node">
<title>Node1</title>
<g id="a_Node000001"><a xlink:title=" ">
<polygon fill="#999999" stroke="#666666" points="920,-144.5 795,-144.5 795,-125.5 920,-125.5 920,-144.5"/>
<text text-anchor="middle" x="857.5" y="-132.5" font-family="Helvetica,sans-Serif" font-size="10.00">m_helper::s_int_to_str</text>
</a>
</g>
</g>
<!-- Node2 -->
<g id="Node000002" class="node">
<title>Node2</title>
<g id="a_Node000002"><a xlink:href="namespacem__checker.html#ab1f225ac445817418d0a6bad521441e4" target="_top" xlink:title="Checks constraints on partial density parameters.">
<polygon fill="white" stroke="#666666" points="746,-270 616,-270 616,-240 746,-240 746,-270"/>
<text text-anchor="start" x="624" y="-258" font-family="Helvetica,sans-Serif" font-size="10.00">m_checker::s_check</text>
<text text-anchor="middle" x="681" y="-247" font-family="Helvetica,sans-Serif" font-size="10.00">_inputs_partial_density</text>
</a>
</g>
</g>
<!-- Node1&#45;&gt;Node2 -->
<g id="edge1_Node000001_Node000002" class="edge">
<title>Node1&#45;&gt;Node2</title>
<g id="a_edge1_Node000001_Node000002"><a xlink:title=" ">
<path fill="none" stroke="#63b8ff" d="M843.03,-152.67C825.78,-174.14 793.92,-210.07 759,-231 753.35,-234.38 747.19,-237.33 740.88,-239.89"/>
<polygon fill="#63b8ff" stroke="#63b8ff" points="845.87,-154.72 849.3,-144.7 840.37,-150.4 845.87,-154.72"/>
</a>
</g>
</g>
<!-- Node7 -->
<g id="Node000007" class="node">
<title>Node7</title>
<g id="a_Node000007"><a xlink:href="namespacem__checker.html#a194095c0cdc765b1f2487f18091bc3de" target="_top" xlink:title="Checks constraints on numerical Schlieren parameters (schlieren_wrt and schlieren_alpha)">
<polygon fill="white" stroke="#666666" points="738,-222 624,-222 624,-192 738,-192 738,-222"/>
<text text-anchor="start" x="632" y="-210" font-family="Helvetica,sans-Serif" font-size="10.00">m_checker::s_check</text>
<text text-anchor="middle" x="681" y="-199" font-family="Helvetica,sans-Serif" font-size="10.00">_inputs_schlieren</text>
</a>
</g>
</g>
<!-- Node1&#45;&gt;Node7 -->
<g id="edge6_Node000001_Node000007" class="edge">
<title>Node1&#45;&gt;Node7</title>
<g id="a_edge6_Node000001_Node000007"><a xlink:title=" ">
<path fill="none" stroke="#63b8ff" d="M830.17,-149.35C810.83,-159.55 783.73,-173.13 759,-183 751.07,-186.17 742.54,-189.19 734.16,-191.95"/>
<polygon fill="#63b8ff" stroke="#63b8ff" points="832.08,-152.3 839.26,-144.51 828.79,-146.12 832.08,-152.3"/>
</a>
</g>
</g>
<!-- Node8 -->
<g id="Node000008" class="node">
<title>Node8</title>
<g id="a_Node000008"><a xlink:href="namespacem__checker__common.html#a20cb17f4b2111c489c7a31856a149b32" target="_top" xlink:title="Checks constraints on the stiffened equation of state fluids parameters. Called by s_check_inputs_com...">
<polygon fill="white" stroke="#666666" points="759,-126 603,-126 603,-96 759,-96 759,-126"/>
<text text-anchor="start" x="611" y="-114" font-family="Helvetica,sans-Serif" font-size="10.00">m_checker_common::s</text>
<text text-anchor="middle" x="681" y="-103" font-family="Helvetica,sans-Serif" font-size="10.00">_check_inputs_stiffened_eos</text>
</a>
</g>
</g>
<!-- Node1&#45;&gt;Node8 -->
<g id="edge8_Node000001_Node000008" class="edge">
<title>Node1&#45;&gt;Node8</title>
<g id="a_edge8_Node000001_Node000008"><a xlink:title=" ">
<path fill="none" stroke="#63b8ff" d="M784.79,-125.14C776.34,-123.98 767.69,-122.79 759.17,-121.61"/>
<polygon fill="#63b8ff" stroke="#63b8ff" points="784.59,-128.64 794.98,-126.54 785.55,-121.71 784.59,-128.64"/>
</a>
</g>
</g>
<!-- Node10 -->
<g id="Node000010" class="node">
<title>Node10</title>
<g id="a_Node000010"><a xlink:href="namespacem__checker.html#a3e07afe0382fd5d7cf389d5ea158cf4b" target="_top" xlink:title="Checks constraints on volume fraction parameters.">
<polygon fill="white" stroke="#666666" points="749.5,-174 612.5,-174 612.5,-144 749.5,-144 749.5,-174"/>
<text text-anchor="start" x="620.5" y="-162" font-family="Helvetica,sans-Serif" font-size="10.00">m_checker::s_check</text>
<text text-anchor="middle" x="681" y="-151" font-family="Helvetica,sans-Serif" font-size="10.00">_inputs_volume_fraction</text>
</a>
</g>
</g>
<!-- Node1&#45;&gt;Node10 -->
<g id="edge11_Node000001_Node000010" class="edge">
<title>Node1&#45;&gt;Node10</title>
<g id="a_edge11_Node000001_Node000010"><a xlink:title=" ">
<path fill="none" stroke="#63b8ff" d="M784.9,-144.85C773.29,-146.44 761.31,-148.09 749.8,-149.68"/>
<polygon fill="#63b8ff" stroke="#63b8ff" points="785.55,-148.29 794.98,-143.46 784.59,-141.36 785.55,-148.29"/>
</a>
</g>
</g>
<!-- Node11 -->
<g id="Node000011" class="node">
<title>Node11</title>
<g id="a_Node000011"><a xlink:href="namespacem__checker__common.html#abf7ee76feb76e0dfa1301860374be234" target="_top" xlink:title=" ">
<polygon fill="white" stroke="#666666" points="745,-78 617,-78 617,-48 745,-48 745,-78"/>
<text text-anchor="start" x="625" y="-66" font-family="Helvetica,sans-Serif" font-size="10.00">m_checker_common::s</text>
<text text-anchor="middle" x="681" y="-55" font-family="Helvetica,sans-Serif" font-size="10.00">_check_total_cells</text>
</a>
</g>
</g>
<!-- Node1&#45;&gt;Node11 -->
<g id="edge13_Node000001_Node000011" class="edge">
<title>Node1&#45;&gt;Node11</title>
<g id="a_edge13_Node000001_Node000011"><a xlink:title=" ">
<path fill="none" stroke="#63b8ff" d="M830.17,-120.65C810.83,-110.45 783.73,-96.87 759,-87 751.07,-83.83 742.54,-80.81 734.16,-78.05"/>
<polygon fill="#63b8ff" stroke="#63b8ff" points="828.79,-123.88 839.26,-125.49 832.08,-117.7 828.79,-123.88"/>
</a>
</g>
</g>
<!-- Node12 -->
<g id="Node000012" class="node">
<title>Node12</title>
<g id="a_Node000012"><a xlink:href="namespacem__data__input.html#a5139fe69b24a1dc0e32b632e9bf5d0ee" target="_top" xlink:title="Helper subroutine to read parallel conservative variable data.">
<polygon fill="white" stroke="#666666" points="758,-30 604,-30 604,0 758,0 758,-30"/>
<text text-anchor="start" x="612" y="-18" font-family="Helvetica,sans-Serif" font-size="10.00">m_data_input::s_read</text>
<text text-anchor="middle" x="681" y="-7" font-family="Helvetica,sans-Serif" font-size="10.00">_parallel_conservative_data</text>
</a>
</g>
</g>
<!-- Node1&#45;&gt;Node12 -->
<g id="edge15_Node000001_Node000012" class="edge">
<title>Node1&#45;&gt;Node12</title>
<g id="a_edge15_Node000001_Node000012"><a xlink:title=" ">
<path fill="none" stroke="#63b8ff" d="M843.03,-117.33C825.78,-95.86 793.92,-59.93 759,-39 753.35,-35.62 747.19,-32.67 740.88,-30.11"/>
<polygon fill="#63b8ff" stroke="#63b8ff" points="840.37,-119.6 849.3,-125.3 845.87,-115.28 840.37,-119.6"/>
</a>
</g>
</g>
<!-- Node3 -->
<g id="Node000003" class="node">
<title>Node3</title>
<g id="a_Node000003"><a xlink:href="namespacem__checker.html#a214e05cb46bc7c3e0dbe55fdc433c072" target="_top" xlink:title="Checks compatibility of parameters in the input file. Used by the post_process stage.">
<polygon fill="white" stroke="#666666" points="557,-198 443,-198 443,-168 557,-168 557,-198"/>
<text text-anchor="start" x="451" y="-186" font-family="Helvetica,sans-Serif" font-size="10.00">m_checker::s_check</text>
<text text-anchor="middle" x="500" y="-175" font-family="Helvetica,sans-Serif" font-size="10.00">_inputs</text>
</a>
</g>
</g>
<!-- Node2&#45;&gt;Node3 -->
<g id="edge2_Node000002_Node000003" class="edge">
<title>Node2&#45;&gt;Node3</title>
<g id="a_edge2_Node000002_Node000003"><a xlink:title=" ">
<path fill="none" stroke="#63b8ff" d="M618.68,-236.73C613.35,-234.89 608.06,-232.97 603,-231 578.01,-221.28 550.56,-208.22 530.43,-198.17"/>
<polygon fill="#63b8ff" stroke="#63b8ff" points="617.71,-240.1 628.3,-239.96 619.94,-233.46 617.71,-240.1"/>
</a>
</g>
</g>
<!-- Node4 -->
<g id="Node000004" class="node">
<title>Node4</title>
<g id="a_Node000004"><a xlink:href="namespacem__start__up.html#a045a171a9b44005a0e190f9a99784853" target="_top" xlink:title="Checking that the user inputs make sense, i.e. that the individual choices are compatible with the co...">
<polygon fill="white" stroke="#666666" points="384,-125 268,-125 268,-95 384,-95 384,-125"/>
<text text-anchor="start" x="276" y="-113" font-family="Helvetica,sans-Serif" font-size="10.00">m_start_up::s_check</text>
<text text-anchor="middle" x="326" y="-102" font-family="Helvetica,sans-Serif" font-size="10.00">_input_file</text>
</a>
</g>
</g>
<!-- Node3&#45;&gt;Node4 -->
<g id="edge3_Node000003_Node000004" class="edge">
<title>Node3&#45;&gt;Node4</title>
<g id="a_edge3_Node000003_Node000004"><a xlink:title=" ">
<path fill="none" stroke="#63b8ff" d="M454.01,-163.91C425.49,-151.8 389.1,-136.36 362.59,-125.11"/>
<polygon fill="#63b8ff" stroke="#63b8ff" points="452.79,-167.19 463.36,-167.87 455.52,-160.75 452.79,-167.19"/>
</a>
</g>
</g>
<!-- Node5 -->
<g id="Node000005" class="node">
<title>Node5</title>
<g id="a_Node000005"><a xlink:href="namespacem__start__up.html#a43f2e386d1bd2f0f6212f31a97542b96" target="_top" xlink:title=" ">
<polygon fill="white" stroke="#666666" points="219,-123 89,-123 89,-93 219,-93 219,-123"/>
<text text-anchor="start" x="97" y="-111" font-family="Helvetica,sans-Serif" font-size="10.00">m_start_up::s_initialize</text>
<text text-anchor="middle" x="154" y="-100" font-family="Helvetica,sans-Serif" font-size="10.00">_mpi_domain</text>
</a>
</g>
</g>
<!-- Node4&#45;&gt;Node5 -->
<g id="edge4_Node000004_Node000005" class="edge">
<title>Node4&#45;&gt;Node5</title>
<g id="a_edge4_Node000004_Node000005"><a xlink:title=" ">
<path fill="none" stroke="#63b8ff" d="M257.87,-109.21C245.15,-109.06 231.88,-108.9 219.25,-108.76"/>
<polygon fill="#63b8ff" stroke="#63b8ff" points="257.88,-112.71 267.92,-109.33 257.96,-105.71 257.88,-112.71"/>
</a>
</g>
</g>
<!-- Node6 -->
<g id="Node000006" class="node">
<title>Node6</title>
<g id="a_Node000006"><a xlink:href="p__main_8fpp_8f90.html#aeec10ee8e2940c953967da3e374e1579" target="_top" xlink:title="The post&#45;process restructures raw unformatted data, outputted by the simulation, into a formatted dat...">
<polygon fill="white" stroke="#666666" points="53,-92.5 0,-92.5 0,-73.5 53,-73.5 53,-92.5"/>
<text text-anchor="middle" x="26.5" y="-80.5" font-family="Helvetica,sans-Serif" font-size="10.00">p_main</text>
</a>
</g>
</g>
<!-- Node5&#45;&gt;Node6 -->
<g id="edge5_Node000005_Node000006" class="edge">
<title>Node5&#45;&gt;Node6</title>
<g id="a_edge5_Node000005_Node000006"><a xlink:title=" ">
<path fill="none" stroke="#63b8ff" d="M78.74,-93.21C69.58,-91.38 60.76,-89.62 53.09,-88.1"/>
<polygon fill="#63b8ff" stroke="#63b8ff" points="78.29,-96.69 88.78,-95.21 79.66,-89.82 78.29,-96.69"/>
</a>
</g>
</g>
<!-- Node7&#45;&gt;Node3 -->
<g id="edge7_Node000007_Node000003" class="edge">
<title>Node7&#45;&gt;Node3</title>
<g id="a_edge7_Node000007_Node000003"><a xlink:title=" ">
<path fill="none" stroke="#63b8ff" d="M613.71,-198.11C595.16,-195.62 575.17,-192.94 557.25,-190.54"/>
<polygon fill="#63b8ff" stroke="#63b8ff" points="613.48,-201.61 623.85,-199.47 614.41,-194.67 613.48,-201.61"/>
</a>
</g>
</g>
<!-- Node9 -->
<g id="Node000009" class="node">
<title>Node9</title>
<g id="a_Node000009"><a xlink:href="namespacem__checker__common.html#a37b5025d5e6ffafc4cb5f417387c21b8" target="_top" xlink:title="Checks compatibility of parameters in the input file. Used by all three stages.">
<polygon fill="white" stroke="#666666" points="567,-125 433,-125 433,-95 567,-95 567,-125"/>
<text text-anchor="start" x="441" y="-113" font-family="Helvetica,sans-Serif" font-size="10.00">m_checker_common::s</text>
<text text-anchor="middle" x="500" y="-102" font-family="Helvetica,sans-Serif" font-size="10.00">_check_inputs_common</text>
</a>
</g>
</g>
<!-- Node8&#45;&gt;Node9 -->
<g id="edge9_Node000008_Node000009" class="edge">
<title>Node8&#45;&gt;Node9</title>
<g id="a_edge9_Node000008_Node000009"><a xlink:title=" ">
<path fill="none" stroke="#63b8ff" d="M592.68,-110.51C584.04,-110.46 575.37,-110.42 567,-110.37"/>
<polygon fill="#63b8ff" stroke="#63b8ff" points="592.77,-114.01 602.79,-110.57 592.81,-107.01 592.77,-114.01"/>
</a>
</g>
</g>
<!-- Node9&#45;&gt;Node4 -->
<g id="edge10_Node000009_Node000004" class="edge">
<title>Node9&#45;&gt;Node4</title>
<g id="a_edge10_Node000009_Node000004"><a xlink:title=" ">
<path fill="none" stroke="#63b8ff" d="M422.69,-110C409.74,-110 396.49,-110 384.14,-110"/>
<polygon fill="#63b8ff" stroke="#63b8ff" points="422.99,-113.5 432.99,-110 422.99,-106.5 422.99,-113.5"/>
</a>
</g>
</g>
<!-- Node10&#45;&gt;Node3 -->
<g id="edge12_Node000010_Node000003" class="edge">
<title>Node10&#45;&gt;Node3</title>
<g id="a_edge12_Node000010_Node000003"><a xlink:title=" ">
<path fill="none" stroke="#63b8ff" d="M602.4,-169.4C587.17,-171.45 571.46,-173.55 557.1,-175.48"/>
<polygon fill="#63b8ff" stroke="#63b8ff" points="602.88,-172.87 612.33,-168.07 601.95,-165.93 602.88,-172.87"/>
</a>
</g>
</g>
<!-- Node11&#45;&gt;Node9 -->
<g id="edge14_Node000011_Node000009" class="edge">
<title>Node11&#45;&gt;Node9</title>
<g id="a_edge14_Node000011_Node000009"><a xlink:title=" ">
<path fill="none" stroke="#63b8ff" d="M613.01,-80.59C594.98,-85.32 575.64,-90.4 558.2,-94.98"/>
<polygon fill="#63b8ff" stroke="#63b8ff" points="614.09,-83.93 622.87,-78 612.31,-77.15 614.09,-83.93"/>
</a>
</g>
</g>
<!-- Node13 -->
<g id="Node000013" class="node">
<title>Node13</title>
<g id="a_Node000013"><a xlink:href="namespacem__data__input.html#a1e9dfd5c6be77bbfa34abb90c77216b4" target="_top" xlink:title="This subroutine is called at each time&#45;step that has to be post&#45;processed in order to parallel&#45;read t...">
<polygon fill="white" stroke="#666666" points="561,-31 439,-31 439,-1 561,-1 561,-31"/>
<text text-anchor="start" x="447" y="-19" font-family="Helvetica,sans-Serif" font-size="10.00">m_data_input::s_read</text>
<text text-anchor="middle" x="500" y="-8" font-family="Helvetica,sans-Serif" font-size="10.00">_parallel_data_files</text>
</a>
</g>
</g>
<!-- Node12&#45;&gt;Node13 -->
<g id="edge16_Node000012_Node000013" class="edge">
<title>Node12&#45;&gt;Node13</title>
<g id="a_edge16_Node000012_Node000013"><a xlink:title=" ">
<path fill="none" stroke="#63b8ff" d="M593.74,-15.48C582.7,-15.54 571.61,-15.61 561.12,-15.66"/>
<polygon fill="#63b8ff" stroke="#63b8ff" points="593.85,-18.98 603.83,-15.43 593.81,-11.98 593.85,-18.98"/>
</a>
</g>
</g>
<!-- Node14 -->
<g id="Node000014" class="node">
<title>Node14</title>
<g id="a_Node000014"><a xlink:href="namespacem__data__input.html#a5746c07ce2bd024e906a721e6552443f" target="_top" xlink:title="Computation of parameters, allocation procedures, and/or any other tasks needed to properly setup the...">
<polygon fill="white" stroke="#666666" points="397,-74 255,-74 255,-44 397,-44 397,-74"/>
<text text-anchor="start" x="263" y="-62" font-family="Helvetica,sans-Serif" font-size="10.00">m_data_input::s_initialize</text>
<text text-anchor="middle" x="326" y="-51" font-family="Helvetica,sans-Serif" font-size="10.00">_data_input_module</text>
</a>
</g>
</g>
<!-- Node13&#45;&gt;Node14 -->
<g id="edge17_Node000013_Node000014" class="edge">
<title>Node13&#45;&gt;Node14</title>
<g id="a_edge17_Node000013_Node000014"><a xlink:title=" ">
<path fill="none" stroke="#63b8ff" d="M428.88,-33.53C415.03,-36.99 400.61,-40.6 387.12,-43.97"/>
<polygon fill="#63b8ff" stroke="#63b8ff" points="429.99,-36.86 438.84,-31.04 428.29,-30.07 429.99,-36.86"/>
</a>
</g>
</g>
<!-- Node15 -->
<g id="Node000015" class="node">
<title>Node15</title>
<g id="a_Node000015"><a xlink:href="namespacem__start__up.html#aea20fb8945d467b344a487cfe8213d99" target="_top" xlink:title=" ">
<polygon fill="white" stroke="#666666" points="219,-74 89,-74 89,-44 219,-44 219,-74"/>
<text text-anchor="start" x="97" y="-62" font-family="Helvetica,sans-Serif" font-size="10.00">m_start_up::s_initialize</text>
<text text-anchor="middle" x="154" y="-51" font-family="Helvetica,sans-Serif" font-size="10.00">_modules</text>
</a>
</g>
</g>
<!-- Node13&#45;&gt;Node15 -->
<g id="edge20_Node000013_Node000015" class="edge">
<title>Node13&#45;&gt;Node15</title>
<g id="a_edge20_Node000013_Node000015"><a xlink:title=" ">
<path fill="none" stroke="#63b8ff" d="M428.61,-18.54C379.69,-21.02 313.09,-25.83 255,-35 240.54,-37.28 225.08,-40.57 210.75,-43.97"/>
<polygon fill="#63b8ff" stroke="#63b8ff" points="428.96,-22.02 438.78,-18.04 428.62,-15.03 428.96,-22.02"/>
</a>
</g>
</g>
<!-- Node14&#45;&gt;Node15 -->
<g id="edge18_Node000014_Node000015" class="edge">
<title>Node14&#45;&gt;Node15</title>
<g id="a_edge18_Node000014_Node000015"><a xlink:title=" ">
<path fill="none" stroke="#63b8ff" d="M244.85,-59C236.26,-59 227.61,-59 219.24,-59"/>
<polygon fill="#63b8ff" stroke="#63b8ff" points="244.87,-62.5 254.87,-59 244.87,-55.5 244.87,-62.5"/>
</a>
</g>
</g>
<!-- Node15&#45;&gt;Node6 -->
<g id="edge19_Node000015_Node000006" class="edge">
<title>Node15&#45;&gt;Node6</title>
<g id="a_edge19_Node000015_Node000006"><a xlink:title=" ">
<path fill="none" stroke="#63b8ff" d="M78.74,-73.2C69.58,-74.95 60.76,-76.64 53.09,-78.11"/>
<polygon fill="#63b8ff" stroke="#63b8ff" points="79.61,-76.6 88.78,-71.28 78.3,-69.72 79.61,-76.6"/>
</a>
</g>
</g>
</g>
</svg>

<g id="navigator" transform="translate(0 0)" fill="#404254">
  <rect fill="#f2f5e9" fill-opacity="0.5" stroke="#606060" stroke-width=".5" x="0" y="0" width="60" height="60"/>
  <use id="zoomplus" xlink:href="#zoomPlus" x="17" y="9" onmousedown="handleZoom(evt,'in')"/>
  <use id="zoomminus" xlink:href="#zoomMin" x="42" y="9" onmousedown="handleZoom(evt,'out')"/>
  <use id="reset" xlink:href="#resetDef" x="30" y="36" onmousedown="handleReset()"/>
   <use id="arrowup" xlink:href="#arrowUp" x="0" y="0" onmousedown="handlePan(0,-1)"/>
  <use id="arrowright" xlink:href="#arrowRight" x="0" y="0" onmousedown="handlePan(1,0)"/>
  <use id="arrowdown" xlink:href="#arrowDown" x="0" y="0" onmousedown="handlePan(0,1)"/>
  <use id="arrowleft" xlink:href="#arrowLeft" x="0" y="0" onmousedown="handlePan(-1,0)"/>
</g>
<svg viewBox="0 0 15 15" width="100%" height="30px" preserveAspectRatio="xMaxYMin meet">
 <g id="arrow_out" transform="scale(0.3 0.3)">
  <a xlink:href="namespacem__helper_a6b74248bdd19bc6b0b43f757a3212275_icgraph_org.svg" target="_base">
   <rect id="button" ry="5" rx="5" y="6" x="6" height="38" width="38"
        fill="#f2f5e9" fill-opacity="0.5" stroke="#606060" stroke-width="1.0"/>
   <path id="arrow"
     d="M 11.500037,31.436501 C 11.940474,20.09759 22.043105,11.32322 32.158766,21.979434 L 37.068811,17.246167 C 37.068811,17.246167 37.088388,32 37.088388,32 L 22.160133,31.978069 C 22.160133,31.978069 26.997745,27.140456 26.997745,27.140456 C 18.528582,18.264221 13.291696,25.230495 11.500037,31.436501 z"
     style="fill:#404040;"/>
  </a>
 </g>
</svg>

<style type='text/css'>
<![CDATA[
[data-mouse-over-selected='false'] { opacity: 0.7; }
[data-mouse-over-selected='true']  { opacity: 1.0; }
]]>
</style>
<script type="application/ecmascript"><![CDATA[
document.addEventListener('DOMContentLoaded', (event) => {
  highlightEdges();
  highlightAdjacentNodes();
});
]]></script>
</svg>
