<?xml version="1.0" encoding="UTF-8" standalone="no"?>
<!DOCTYPE svg PUBLIC "-//W3C//DTD SVG 1.1//EN"
 "http://www.w3.org/Graphics/SVG/1.1/DTD/svg11.dtd">
<!-- Generated by graphviz version 2.43.0 (0)
 -->
<!-- Title: m_start_up::s_initialize_modules Pages: 1 -->
<svg width="1082pt" height="828pt"
 viewBox="0.00 0.00 1082.00 827.50" xmlns="http://www.w3.org/2000/svg" xmlns:xlink="http://www.w3.org/1999/xlink">
<g id="graph0" class="graph" transform="scale(1 1) rotate(0) translate(4 823.5)">
<title>m_start_up::s_initialize_modules</title>
<!-- Node1 -->
<g id="Node000001" class="node">
<title>Node1</title>
<g id="a_Node000001"><a xlink:title=" ">
<polygon fill="#999999" stroke="#666666" points="130,-305.5 0,-305.5 0,-275.5 130,-275.5 130,-305.5"/>
<text text-anchor="start" x="8" y="-293.5" font-family="Helvetica,sans-Serif" font-size="10.00">m_start_up::s_initialize</text>
<text text-anchor="middle" x="65" y="-282.5" font-family="Helvetica,sans-Serif" font-size="10.00">_modules</text>
</a>
</g>
</g>
<!-- Node2 -->
<g id="Node000002" class="node">
<title>Node2</title>
<g id="a_Node000002"><a xlink:href="namespacem__boundary__common.html#a564aec3ec22d27138a881ca6bf54d94d" target="_top" xlink:title=" ">
<polygon fill="white" stroke="#666666" points="310,-573 179,-573 179,-532 310,-532 310,-573"/>
<text text-anchor="start" x="187" y="-561" font-family="Helvetica,sans-Serif" font-size="10.00">m_boundary_common::</text>
<text text-anchor="start" x="187" y="-550" font-family="Helvetica,sans-Serif" font-size="10.00">s_initialize_boundary</text>
<text text-anchor="middle" x="244.5" y="-539" font-family="Helvetica,sans-Serif" font-size="10.00">_common_module</text>
</a>
</g>
</g>
<!-- Node1&#45;&gt;Node2 -->
<g id="edge1_Node000001_Node000002" class="edge">
<title>Node1&#45;&gt;Node2</title>
<g id="a_edge1_Node000001_Node000002"><a xlink:title=" ">
<path fill="none" stroke="#63b8ff" d="M68.75,-305.59C76.73,-345.37 103.41,-454.33 166,-517.5 169.18,-520.71 172.72,-523.66 176.47,-526.35"/>
<polygon fill="#63b8ff" stroke="#63b8ff" points="174.68,-529.37 184.98,-531.86 178.49,-523.49 174.68,-529.37"/>
</a>
</g>
</g>
<!-- Node3 -->
<g id="Node000003" class="node">
<title>Node3</title>
<g id="a_Node000003"><a xlink:href="namespacem__data__input.html#a5746c07ce2bd024e906a721e6552443f" target="_top" xlink:title="Computation of parameters, allocation procedures, and/or any other tasks needed to properly setup the...">
<polygon fill="white" stroke="#666666" points="315.5,-475.5 173.5,-475.5 173.5,-445.5 315.5,-445.5 315.5,-475.5"/>
<text text-anchor="start" x="181.5" y="-463.5" font-family="Helvetica,sans-Serif" font-size="10.00">m_data_input::s_initialize</text>
<text text-anchor="middle" x="244.5" y="-452.5" font-family="Helvetica,sans-Serif" font-size="10.00">_data_input_module</text>
</a>
</g>
</g>
<!-- Node1&#45;&gt;Node3 -->
<g id="edge2_Node000001_Node000003" class="edge">
<title>Node1&#45;&gt;Node3</title>
<g id="a_edge2_Node000001_Node000003"><a xlink:title=" ">
<path fill="none" stroke="#63b8ff" d="M73.06,-305.94C86.92,-334.61 120.34,-396.35 166,-431.5 170.67,-435.09 175.83,-438.28 181.2,-441.1"/>
<polygon fill="#63b8ff" stroke="#63b8ff" points="179.87,-444.34 190.4,-445.49 182.89,-438.02 179.87,-444.34"/>
</a>
</g>
</g>
<!-- Node5 -->
<g id="Node000005" class="node">
<title>Node5</title>
<g id="a_Node000005"><a xlink:href="namespacem__data__input.html#a1e9dfd5c6be77bbfa34abb90c77216b4" target="_top" xlink:title="This subroutine is called at each time&#45;step that has to be post&#45;processed in order to parallel&#45;read t...">
<polygon fill="white" stroke="#666666" points="489.5,-542.5 367.5,-542.5 367.5,-512.5 489.5,-512.5 489.5,-542.5"/>
<text text-anchor="start" x="375.5" y="-530.5" font-family="Helvetica,sans-Serif" font-size="10.00">m_data_input::s_read</text>
<text text-anchor="middle" x="428.5" y="-519.5" font-family="Helvetica,sans-Serif" font-size="10.00">_parallel_data_files</text>
</a>
</g>
</g>
<!-- Node1&#45;&gt;Node5 -->
<g id="edge37_Node000001_Node000005" class="edge">
<title>Node1&#45;&gt;Node5</title>
<g id="a_edge37_Node000001_Node000005"><a xlink:title=" ">
<path fill="none" stroke="#63b8ff" d="M68.96,-305.63C77.1,-342.83 103.49,-439.03 166,-484.5 195.77,-506.16 290.51,-517.54 357.36,-523.03"/>
<polygon fill="#63b8ff" stroke="#63b8ff" points="357.18,-526.53 367.42,-523.83 357.73,-519.55 357.18,-526.53"/>
</a>
</g>
</g>
<!-- Node17 -->
<g id="Node000017" class="node">
<title>Node17</title>
<g id="a_Node000017"><a xlink:href="namespacem__data__input.html#a94700a0b549ac60847be9f4f0ab94adf" target="_top" xlink:title="This subroutine is called at each time&#45;step that has to be post&#45;processed in order to read the raw da...">
<polygon fill="white" stroke="#666666" points="489.5,-432.5 367.5,-432.5 367.5,-402.5 489.5,-402.5 489.5,-432.5"/>
<text text-anchor="start" x="375.5" y="-420.5" font-family="Helvetica,sans-Serif" font-size="10.00">m_data_input::s_read</text>
<text text-anchor="middle" x="428.5" y="-409.5" font-family="Helvetica,sans-Serif" font-size="10.00">_serial_data_files</text>
</a>
</g>
</g>
<!-- Node1&#45;&gt;Node17 -->
<g id="edge38_Node000001_Node000017" class="edge">
<title>Node1&#45;&gt;Node17</title>
<g id="a_edge38_Node000001_Node000017"><a xlink:title=" ">
<path fill="none" stroke="#63b8ff" d="M74.73,-305.69C89.79,-330.22 123.17,-377.9 166,-398.5 225.83,-427.27 302.37,-429.42 357.15,-425.95"/>
<polygon fill="#63b8ff" stroke="#63b8ff" points="357.74,-429.42 367.47,-425.22 357.24,-422.44 357.74,-429.42"/>
</a>
</g>
</g>
<!-- Node21 -->
<g id="Node000021" class="node">
<title>Node21</title>
<g id="a_Node000021"><a xlink:href="namespacem__data__output.html#a62496dfe58afb9e18a8a1a58b64e155b" target="_top" xlink:title=" ">
<polygon fill="white" stroke="#666666" points="319,-389.5 170,-389.5 170,-359.5 319,-359.5 319,-389.5"/>
<text text-anchor="start" x="178" y="-377.5" font-family="Helvetica,sans-Serif" font-size="10.00">m_data_output::s_initialize</text>
<text text-anchor="middle" x="244.5" y="-366.5" font-family="Helvetica,sans-Serif" font-size="10.00">_data_output_module</text>
</a>
</g>
</g>
<!-- Node1&#45;&gt;Node21 -->
<g id="edge27_Node000001_Node000021" class="edge">
<title>Node1&#45;&gt;Node21</title>
<g id="a_edge27_Node000001_Node000021"><a xlink:title=" ">
<path fill="none" stroke="#63b8ff" d="M87.8,-305.68C107.52,-318.9 137.72,-337.86 166,-350.5 170.35,-352.45 174.91,-354.3 179.54,-356.04"/>
<polygon fill="#63b8ff" stroke="#63b8ff" points="178.51,-359.39 189.1,-359.48 180.87,-352.8 178.51,-359.39"/>
</a>
</g>
</g>
<!-- Node23 -->
<g id="Node000023" class="node">
<title>Node23</title>
<g id="a_Node000023"><a xlink:href="namespacem__derived__variables.html#a77b3f12eca15a93f0bbe8881f6bbcfd4" target="_top" xlink:title="Computation of parameters, allocation procedures, and/or any other tasks needed to properly setup the...">
<polygon fill="white" stroke="#666666" points="304,-341 185,-341 185,-300 304,-300 304,-341"/>
<text text-anchor="start" x="193" y="-329" font-family="Helvetica,sans-Serif" font-size="10.00">m_derived_variables</text>
<text text-anchor="start" x="193" y="-318" font-family="Helvetica,sans-Serif" font-size="10.00">::s_initialize_derived</text>
<text text-anchor="middle" x="244.5" y="-307" font-family="Helvetica,sans-Serif" font-size="10.00">_variables_module</text>
</a>
</g>
</g>
<!-- Node1&#45;&gt;Node23 -->
<g id="edge30_Node000001_Node000023" class="edge">
<title>Node1&#45;&gt;Node23</title>
<g id="a_edge30_Node000001_Node000023"><a xlink:title=" ">
<path fill="none" stroke="#63b8ff" d="M130.08,-301.33C144.6,-303.79 160.08,-306.4 174.79,-308.89"/>
<polygon fill="#63b8ff" stroke="#63b8ff" points="174.38,-312.37 184.83,-310.58 175.55,-305.47 174.38,-312.37"/>
</a>
</g>
</g>
<!-- Node24 -->
<g id="Node000024" class="node">
<title>Node24</title>
<g id="a_Node000024"><a xlink:href="namespacem__global__parameters.html#a7d78db66d7d2bd3001d7a7ef981b0d87" target="_top" xlink:title="Computation of parameters, allocation procedures, and/or any other tasks needed to properly setup the...">
<polygon fill="white" stroke="#666666" points="306,-282 183,-282 183,-241 306,-241 306,-282"/>
<text text-anchor="start" x="191" y="-270" font-family="Helvetica,sans-Serif" font-size="10.00">m_global_parameters</text>
<text text-anchor="start" x="191" y="-259" font-family="Helvetica,sans-Serif" font-size="10.00">::s_initialize_global</text>
<text text-anchor="middle" x="244.5" y="-248" font-family="Helvetica,sans-Serif" font-size="10.00">_parameters_module</text>
</a>
</g>
</g>
<!-- Node1&#45;&gt;Node24 -->
<g id="edge31_Node000001_Node000024" class="edge">
<title>Node1&#45;&gt;Node24</title>
<g id="a_edge31_Node000001_Node000024"><a xlink:title=" ">
<path fill="none" stroke="#63b8ff" d="M130.08,-280.03C143.91,-277.77 158.6,-275.37 172.66,-273.07"/>
<polygon fill="#63b8ff" stroke="#63b8ff" points="173.47,-276.49 182.77,-271.42 172.34,-269.58 173.47,-276.49"/>
</a>
</g>
</g>
<!-- Node25 -->
<g id="Node000025" class="node">
<title>Node25</title>
<g id="a_Node000025"><a xlink:href="namespacem__mpi__common.html#a056c92bf55bd24a6cb43936abd313f4e" target="_top" xlink:title="The computation of parameters, the allocation of memory, the association of pointers and/or the execu...">
<polygon fill="white" stroke="#666666" points="323,-222.5 166,-222.5 166,-192.5 323,-192.5 323,-222.5"/>
<text text-anchor="start" x="174" y="-210.5" font-family="Helvetica,sans-Serif" font-size="10.00">m_mpi_common::s_initialize</text>
<text text-anchor="middle" x="244.5" y="-199.5" font-family="Helvetica,sans-Serif" font-size="10.00">_mpi_common_module</text>
</a>
</g>
</g>
<!-- Node1&#45;&gt;Node25 -->
<g id="edge32_Node000001_Node000025" class="edge">
<title>Node1&#45;&gt;Node25</title>
<g id="a_edge32_Node000001_Node000025"><a xlink:title=" ">
<path fill="none" stroke="#63b8ff" d="M88.23,-275.34C107.98,-262.38 137.98,-243.9 166,-231.5 170.36,-229.57 174.92,-227.73 179.55,-225.99"/>
<polygon fill="#63b8ff" stroke="#63b8ff" points="180.89,-229.23 189.12,-222.57 178.53,-222.64 180.89,-229.23"/>
</a>
</g>
</g>
<!-- Node26 -->
<g id="Node000026" class="node">
<title>Node26</title>
<g id="a_Node000026"><a xlink:href="namespacem__mpi__proxy.html#a0f7cd4188db4d19ada06d7cb7334991d" target="_top" xlink:title="Computation of parameters, allocation procedures, and/or any other tasks needed to properly setup the...">
<polygon fill="white" stroke="#666666" points="315,-174.5 174,-174.5 174,-144.5 315,-144.5 315,-174.5"/>
<text text-anchor="start" x="182" y="-162.5" font-family="Helvetica,sans-Serif" font-size="10.00">m_mpi_proxy::s_initialize</text>
<text text-anchor="middle" x="244.5" y="-151.5" font-family="Helvetica,sans-Serif" font-size="10.00">_mpi_proxy_module</text>
</a>
</g>
</g>
<!-- Node1&#45;&gt;Node26 -->
<g id="edge33_Node000001_Node000026" class="edge">
<title>Node1&#45;&gt;Node26</title>
<g id="a_edge33_Node000001_Node000026"><a xlink:title=" ">
<path fill="none" stroke="#63b8ff" d="M76.14,-275.39C92.41,-252.27 126.57,-208.21 166,-183.5 168.75,-181.78 171.62,-180.18 174.59,-178.68"/>
<polygon fill="#63b8ff" stroke="#63b8ff" points="176.06,-181.85 183.69,-174.51 173.14,-175.49 176.06,-181.85"/>
</a>
</g>
</g>
<!-- Node27 -->
<g id="Node000027" class="node">
<title>Node27</title>
<g id="a_Node000027"><a xlink:href="namespacem__helper.html#a23ee37a0676e042dc2a2754df0c21f52" target="_top" xlink:title="Initializes non&#45;polydisperse bubble modeling.">
<polygon fill="white" stroke="#666666" points="305,-126.5 184,-126.5 184,-96.5 305,-96.5 305,-126.5"/>
<text text-anchor="start" x="192" y="-114.5" font-family="Helvetica,sans-Serif" font-size="10.00">m_helper::s_initialize</text>
<text text-anchor="middle" x="244.5" y="-103.5" font-family="Helvetica,sans-Serif" font-size="10.00">_nonpoly</text>
</a>
</g>
</g>
<!-- Node1&#45;&gt;Node27 -->
<g id="edge34_Node000001_Node000027" class="edge">
<title>Node1&#45;&gt;Node27</title>
<g id="a_edge34_Node000001_Node000027"><a xlink:title=" ">
<path fill="none" stroke="#63b8ff" d="M71.66,-275.2C83.94,-244.14 116,-173.44 166,-135.5 168.78,-133.39 171.74,-131.47 174.83,-129.71"/>
<polygon fill="#63b8ff" stroke="#63b8ff" points="176.46,-132.81 183.82,-125.19 173.31,-126.56 176.46,-132.81"/>
</a>
</g>
</g>
<!-- Node29 -->
<g id="Node000029" class="node">
<title>Node29</title>
<g id="a_Node000029"><a xlink:href="namespacem__variables__conversion.html#a7ebd3fab94230d88d603e76ac5435e05" target="_top" xlink:title="The computation of parameters, the allocation of memory, the association of pointers and/or the execu...">
<polygon fill="white" stroke="#666666" points="312,-78 177,-78 177,-37 312,-37 312,-78"/>
<text text-anchor="start" x="185" y="-66" font-family="Helvetica,sans-Serif" font-size="10.00">m_variables_conversion</text>
<text text-anchor="start" x="185" y="-55" font-family="Helvetica,sans-Serif" font-size="10.00">::s_initialize_variables</text>
<text text-anchor="middle" x="244.5" y="-44" font-family="Helvetica,sans-Serif" font-size="10.00">_conversion_module</text>
</a>
</g>
</g>
<!-- Node1&#45;&gt;Node29 -->
<g id="edge36_Node000001_Node000029" class="edge">
<title>Node1&#45;&gt;Node29</title>
<g id="a_edge36_Node000001_Node000029"><a xlink:title=" ">
<path fill="none" stroke="#63b8ff" d="M69.38,-275.47C78.48,-238.39 106.88,-141.61 166,-87.5 167.32,-86.29 168.69,-85.14 170.1,-84.02"/>
<polygon fill="#63b8ff" stroke="#63b8ff" points="172.41,-86.68 178.66,-78.12 168.44,-80.92 172.41,-86.68"/>
</a>
</g>
</g>
<!-- Node30 -->
<g id="Node000030" class="node">
<title>Node30</title>
<g id="a_Node000030"><a xlink:href="namespacem__helper.html#a67fb0dea37f746739e38f0fc900a9455" target="_top" xlink:title="Computes the Simpson weights for quadrature.">
<polygon fill="white" stroke="#666666" points="304.5,-19 184.5,-19 184.5,0 304.5,0 304.5,-19"/>
<text text-anchor="middle" x="244.5" y="-7" font-family="Helvetica,sans-Serif" font-size="10.00">m_helper::s_simpson</text>
</a>
</g>
</g>
<!-- Node1&#45;&gt;Node30 -->
<g id="edge39_Node000001_Node000030" class="edge">
<title>Node1&#45;&gt;Node30</title>
<g id="a_edge39_Node000001_Node000030"><a xlink:title=" ">
<path fill="none" stroke="#63b8ff" d="M66.99,-275.26C70.77,-230 88.36,-95.3 166,-27.5 168.82,-25.04 171.91,-22.9 175.18,-21.03"/>
<polygon fill="#63b8ff" stroke="#63b8ff" points="176.69,-24.19 184.21,-16.73 173.68,-17.87 176.69,-24.19"/>
</a>
</g>
</g>
<!-- Node4 -->
<g id="Node000004" class="node">
<title>Node4</title>
<g id="a_Node000004"><a xlink:href="namespacem__data__input.html#a0720f62ee34c602705db6ab4f9b7641e" target="_top" xlink:title="Helper subroutine to allocate field arrays for given dimensionality.">
<polygon fill="white" stroke="#666666" points="498,-480.5 359,-480.5 359,-450.5 498,-450.5 498,-480.5"/>
<text text-anchor="start" x="367" y="-468.5" font-family="Helvetica,sans-Serif" font-size="10.00">m_data_input::s_allocate</text>
<text text-anchor="middle" x="428.5" y="-457.5" font-family="Helvetica,sans-Serif" font-size="10.00">_field_arrays</text>
</a>
</g>
</g>
<!-- Node3&#45;&gt;Node4 -->
<g id="edge3_Node000003_Node000004" class="edge">
<title>Node3&#45;&gt;Node4</title>
<g id="a_edge3_Node000003_Node000004"><a xlink:title=" ">
<path fill="none" stroke="#63b8ff" d="M315.61,-462.43C326.49,-462.73 337.8,-463.04 348.86,-463.34"/>
<polygon fill="#63b8ff" stroke="#63b8ff" points="348.84,-466.84 358.93,-463.62 349.03,-459.84 348.84,-466.84"/>
</a>
</g>
</g>
<!-- Node3&#45;&gt;Node5 -->
<g id="edge4_Node000003_Node000005" class="edge">
<title>Node3&#45;&gt;Node5</title>
<g id="a_edge4_Node000003_Node000005"><a xlink:title=" ">
<path fill="none" stroke="#63b8ff" d="M286.34,-475.54C313.18,-485.42 348.48,-498.41 377.06,-508.93"/>
<polygon fill="#63b8ff" stroke="#63b8ff" points="375.88,-512.23 386.48,-512.4 378.3,-505.66 375.88,-512.23"/>
</a>
</g>
</g>
<!-- Node3&#45;&gt;Node17 -->
<g id="edge19_Node000003_Node000017" class="edge">
<title>Node3&#45;&gt;Node17</title>
<g id="a_edge19_Node000003_Node000017"><a xlink:title=" ">
<path fill="none" stroke="#63b8ff" d="M309.15,-445.46C324.77,-441.77 341.58,-437.8 357.48,-434.04"/>
<polygon fill="#63b8ff" stroke="#63b8ff" points="358.32,-437.44 367.24,-431.74 356.71,-430.63 358.32,-437.44"/>
</a>
</g>
</g>
<!-- Node6 -->
<g id="Node000006" class="node">
<title>Node6</title>
<g id="a_Node000006"><a xlink:href="namespacem__boundary__common.html#af8621fd7814593e9a18ba4d1461723d0" target="_top" xlink:title=" ">
<polygon fill="white" stroke="#666666" points="682,-513.5 540,-513.5 540,-483.5 682,-483.5 682,-513.5"/>
<text text-anchor="start" x="548" y="-501.5" font-family="Helvetica,sans-Serif" font-size="10.00">m_boundary_common::</text>
<text text-anchor="middle" x="611" y="-490.5" font-family="Helvetica,sans-Serif" font-size="10.00">s_assign_default_bc_type</text>
</a>
</g>
</g>
<!-- Node5&#45;&gt;Node6 -->
<g id="edge5_Node000005_Node000006" class="edge">
<title>Node5&#45;&gt;Node6</title>
<g id="a_edge5_Node000005_Node000006"><a xlink:title=" ">
<path fill="none" stroke="#63b8ff" d="M489.6,-517.84C502.43,-515.78 516.18,-513.57 529.64,-511.41"/>
<polygon fill="#63b8ff" stroke="#63b8ff" points="530.53,-514.81 539.84,-509.77 529.42,-507.9 530.53,-514.81"/>
</a>
</g>
</g>
<!-- Node7 -->
<g id="Node000007" class="node">
<title>Node7</title>
<g id="a_Node000007"><a xlink:href="namespacem__mpi__common.html#a04cfc0bdb377a0ce2f9fd478e4bb3807" target="_top" xlink:title="The subroutine terminates the MPI execution environment.">
<polygon fill="white" stroke="#666666" points="1062.5,-470.5 928.5,-470.5 928.5,-440.5 1062.5,-440.5 1062.5,-470.5"/>
<text text-anchor="start" x="936.5" y="-458.5" font-family="Helvetica,sans-Serif" font-size="10.00">m_mpi_common::s_mpi</text>
<text text-anchor="middle" x="995.5" y="-447.5" font-family="Helvetica,sans-Serif" font-size="10.00">_abort</text>
</a>
</g>
</g>
<!-- Node5&#45;&gt;Node7 -->
<g id="edge6_Node000005_Node000007" class="edge">
<title>Node5&#45;&gt;Node7</title>
<g id="a_edge6_Node000005_Node000007"><a xlink:title=" ">
<path fill="none" stroke="#63b8ff" d="M489.54,-540.59C544.37,-549.36 626.07,-554.22 688,-522.5 711.73,-510.34 700.58,-487.25 724,-474.5 783.38,-442.16 861.28,-440.13 918.22,-444.57"/>
<polygon fill="#63b8ff" stroke="#63b8ff" points="917.98,-448.07 928.24,-445.44 918.58,-441.09 917.98,-448.07"/>
</a>
</g>
</g>
<!-- Node8 -->
<g id="Node000008" class="node">
<title>Node8</title>
<g id="a_Node000008"><a xlink:href="namespacem__boundary__common.html#a81909d1af9c5476df6c091b1e714ca99" target="_top" xlink:title=" ">
<polygon fill="white" stroke="#666666" points="682,-742 540,-742 540,-701 682,-701 682,-742"/>
<text text-anchor="start" x="548" y="-730" font-family="Helvetica,sans-Serif" font-size="10.00">m_boundary_common::</text>
<text text-anchor="start" x="548" y="-719" font-family="Helvetica,sans-Serif" font-size="10.00">s_read_parallel_boundary</text>
<text text-anchor="middle" x="611" y="-708" font-family="Helvetica,sans-Serif" font-size="10.00">_condition_files</text>
</a>
</g>
</g>
<!-- Node5&#45;&gt;Node8 -->
<g id="edge7_Node000005_Node000008" class="edge">
<title>Node5&#45;&gt;Node8</title>
<g id="a_edge7_Node000005_Node000008"><a xlink:title=" ">
<path fill="none" stroke="#63b8ff" d="M443.66,-542.72C473.94,-575.27 545.35,-652.02 584.03,-693.58"/>
<polygon fill="#63b8ff" stroke="#63b8ff" points="581.47,-695.98 590.85,-700.92 586.6,-691.21 581.47,-695.98"/>
</a>
</g>
</g>
<!-- Node10 -->
<g id="Node000010" class="node">
<title>Node10</title>
<g id="a_Node000010"><a xlink:href="namespacem__data__input.html#a5139fe69b24a1dc0e32b632e9bf5d0ee" target="_top" xlink:title="Helper subroutine to read parallel conservative variable data.">
<polygon fill="white" stroke="#666666" points="688,-618.5 534,-618.5 534,-588.5 688,-588.5 688,-618.5"/>
<text text-anchor="start" x="542" y="-606.5" font-family="Helvetica,sans-Serif" font-size="10.00">m_data_input::s_read</text>
<text text-anchor="middle" x="611" y="-595.5" font-family="Helvetica,sans-Serif" font-size="10.00">_parallel_conservative_data</text>
</a>
</g>
</g>
<!-- Node5&#45;&gt;Node10 -->
<g id="edge9_Node000005_Node000010" class="edge">
<title>Node5&#45;&gt;Node10</title>
<g id="a_edge9_Node000005_Node000010"><a xlink:title=" ">
<path fill="none" stroke="#63b8ff" d="M465.16,-542.52C493.75,-554.55 534.03,-571.51 564.86,-584.5"/>
<polygon fill="#63b8ff" stroke="#63b8ff" points="563.53,-587.73 574.1,-588.39 566.25,-581.28 563.53,-587.73"/>
</a>
</g>
</g>
<!-- Node9 -->
<g id="Node000009" class="node">
<title>Node9</title>
<g id="a_Node000009"><a xlink:href="namespacem__boundary__common.html#ab5d422a797dcdf7a95587c937dbdf74c" target="_top" xlink:title=" ">
<polygon fill="white" stroke="#666666" points="868,-819.5 737,-819.5 737,-789.5 868,-789.5 868,-819.5"/>
<text text-anchor="start" x="745" y="-807.5" font-family="Helvetica,sans-Serif" font-size="10.00">m_boundary_common::</text>
<text text-anchor="middle" x="802.5" y="-796.5" font-family="Helvetica,sans-Serif" font-size="10.00">s_create_mpi_types</text>
</a>
</g>
</g>
<!-- Node8&#45;&gt;Node9 -->
<g id="edge8_Node000008_Node000009" class="edge">
<title>Node8&#45;&gt;Node9</title>
<g id="a_edge8_Node000008_Node000009"><a xlink:title=" ">
<path fill="none" stroke="#63b8ff" d="M647.01,-742.08C668.7,-754.29 697.4,-769.49 724,-780.5 728.68,-782.44 733.57,-784.3 738.53,-786.08"/>
<polygon fill="#63b8ff" stroke="#63b8ff" points="737.5,-789.43 748.09,-789.38 739.78,-782.81 737.5,-789.43"/>
</a>
</g>
</g>
<!-- Node10&#45;&gt;Node7 -->
<g id="edge13_Node000010_Node000007" class="edge">
<title>Node10&#45;&gt;Node7</title>
<g id="a_edge13_Node000010_Node000007"><a xlink:title=" ">
<path fill="none" stroke="#63b8ff" d="M677.7,-588.44C733.15,-574.62 813.99,-551.85 881,-522.5 910.6,-509.53 942.09,-490.48 964.38,-476"/>
<polygon fill="#63b8ff" stroke="#63b8ff" points="966.3,-478.92 972.74,-470.5 962.46,-473.07 966.3,-478.92"/>
</a>
</g>
</g>
<!-- Node11 -->
<g id="Node000011" class="node">
<title>Node11</title>
<g id="a_Node000011"><a xlink:href="namespacem__mpi__common.html#a2b579eba6293e56232ba5129614b5a18" target="_top" xlink:title=" ">
<polygon fill="white" stroke="#666666" points="1074,-615.5 917,-615.5 917,-585.5 1074,-585.5 1074,-615.5"/>
<text text-anchor="start" x="925" y="-603.5" font-family="Helvetica,sans-Serif" font-size="10.00">m_mpi_common::s_initialize</text>
<text text-anchor="middle" x="995.5" y="-592.5" font-family="Helvetica,sans-Serif" font-size="10.00">_mpi_data</text>
</a>
</g>
</g>
<!-- Node10&#45;&gt;Node11 -->
<g id="edge10_Node000010_Node000011" class="edge">
<title>Node10&#45;&gt;Node11</title>
<g id="a_edge10_Node000010_Node000011"><a xlink:title=" ">
<path fill="none" stroke="#63b8ff" d="M688.2,-599.64C700.18,-599.17 712.42,-598.76 724,-598.5 785.09,-597.14 853.96,-597.68 906.92,-598.54"/>
<polygon fill="#63b8ff" stroke="#63b8ff" points="906.89,-602.04 916.95,-598.71 907.01,-595.04 906.89,-602.04"/>
</a>
</g>
</g>
<!-- Node12 -->
<g id="Node000012" class="node">
<title>Node12</title>
<g id="a_Node000012"><a xlink:href="namespacem__mpi__common.html#a564644bad898d940dc6caea3297bb424" target="_top" xlink:title=" ">
<polygon fill="white" stroke="#666666" points="881,-771.5 724,-771.5 724,-741.5 881,-741.5 881,-771.5"/>
<text text-anchor="start" x="732" y="-759.5" font-family="Helvetica,sans-Serif" font-size="10.00">m_mpi_common::s_initialize</text>
<text text-anchor="middle" x="802.5" y="-748.5" font-family="Helvetica,sans-Serif" font-size="10.00">_mpi_data_ds</text>
</a>
</g>
</g>
<!-- Node10&#45;&gt;Node12 -->
<g id="edge11_Node000010_Node000012" class="edge">
<title>Node10&#45;&gt;Node12</title>
<g id="a_edge11_Node000010_Node000012"><a xlink:title=" ">
<path fill="none" stroke="#63b8ff" d="M624.86,-618.52C653.61,-652.1 720.88,-730.46 724,-732.5 726.43,-734.09 728.98,-735.57 731.6,-736.97"/>
<polygon fill="#63b8ff" stroke="#63b8ff" points="730.23,-740.19 740.76,-741.35 733.25,-733.88 730.23,-740.19"/>
</a>
</g>
</g>
<!-- Node13 -->
<g id="Node000013" class="node">
<title>Node13</title>
<g id="a_Node000013"><a xlink:href="namespacem__helper.html#afd343d70a36c65cb7be86a183aa594ac" target="_top" xlink:title=" ">
<polygon fill="white" stroke="#666666" points="865,-723 740,-723 740,-704 865,-704 865,-723"/>
<text text-anchor="middle" x="802.5" y="-711" font-family="Helvetica,sans-Serif" font-size="10.00">m_helper::s_int_to_str</text>
</a>
</g>
</g>
<!-- Node10&#45;&gt;Node13 -->
<g id="edge12_Node000010_Node000013" class="edge">
<title>Node10&#45;&gt;Node13</title>
<g id="a_edge12_Node000010_Node000013"><a xlink:title=" ">
<path fill="none" stroke="#63b8ff" d="M626.07,-618.51C645.95,-638.81 684.29,-674.76 724,-694.5 728.69,-696.83 733.68,-698.89 738.78,-700.7"/>
<polygon fill="#63b8ff" stroke="#63b8ff" points="738.09,-704.15 748.69,-703.89 740.24,-697.49 738.09,-704.15"/>
</a>
</g>
</g>
<!-- Node14 -->
<g id="Node000014" class="node">
<title>Node14</title>
<g id="a_Node000014"><a xlink:href="namespacem__mpi__common.html#a1073fc1fcb6f3b9394606d5c9285e9f0" target="_top" xlink:title="Halts all processes until all have reached barrier.">
<polygon fill="white" stroke="#666666" points="869.5,-685.5 735.5,-685.5 735.5,-655.5 869.5,-655.5 869.5,-685.5"/>
<text text-anchor="start" x="743.5" y="-673.5" font-family="Helvetica,sans-Serif" font-size="10.00">m_mpi_common::s_mpi</text>
<text text-anchor="middle" x="802.5" y="-662.5" font-family="Helvetica,sans-Serif" font-size="10.00">_barrier</text>
</a>
</g>
</g>
<!-- Node10&#45;&gt;Node14 -->
<g id="edge14_Node000010_Node000014" class="edge">
<title>Node10&#45;&gt;Node14</title>
<g id="a_edge14_Node000010_Node000014"><a xlink:title=" ">
<path fill="none" stroke="#63b8ff" d="M649.36,-618.56C671.03,-627.11 698.91,-637.81 724,-646.5 729.63,-648.45 735.51,-650.41 741.41,-652.32"/>
<polygon fill="#63b8ff" stroke="#63b8ff" points="740.72,-655.78 751.31,-655.49 742.86,-649.11 740.72,-655.78"/>
</a>
</g>
</g>
<!-- Node15 -->
<g id="Node000015" class="node">
<title>Node15</title>
<g id="a_Node000015"><a xlink:href="namespacem__data__input.html#af83b04522a4d96faabec6f8142f90e80" target="_top" xlink:title="Helper subroutine to read IB data files.">
<polygon fill="white" stroke="#666666" points="863.5,-513.5 741.5,-513.5 741.5,-483.5 863.5,-483.5 863.5,-513.5"/>
<text text-anchor="start" x="749.5" y="-501.5" font-family="Helvetica,sans-Serif" font-size="10.00">m_data_input::s_read</text>
<text text-anchor="middle" x="802.5" y="-490.5" font-family="Helvetica,sans-Serif" font-size="10.00">_ib_data_files</text>
</a>
</g>
</g>
<!-- Node10&#45;&gt;Node15 -->
<g id="edge15_Node000010_Node000015" class="edge">
<title>Node10&#45;&gt;Node15</title>
<g id="a_edge15_Node000010_Node000015"><a xlink:title=" ">
<path fill="none" stroke="#63b8ff" d="M637.39,-588.32C652.36,-579.17 671.52,-567.07 688,-555.5 704.59,-543.85 706.31,-537.39 724,-527.5 730.47,-523.89 737.47,-520.55 744.54,-517.53"/>
<polygon fill="#63b8ff" stroke="#63b8ff" points="746.22,-520.62 754.16,-513.61 743.58,-514.14 746.22,-520.62"/>
</a>
</g>
</g>
<!-- Node16 -->
<g id="Node000016" class="node">
<title>Node16</title>
<g id="a_Node000016"><a xlink:href="namespacem__data__input.html#a6e65911baddf566b7a796fadcea57495" target="_top" xlink:title="Helper subroutine to setup MPI data I/O parameters.">
<polygon fill="white" stroke="#666666" points="866,-637.5 739,-637.5 739,-607.5 866,-607.5 866,-637.5"/>
<text text-anchor="start" x="747" y="-625.5" font-family="Helvetica,sans-Serif" font-size="10.00">m_data_input::s_setup</text>
<text text-anchor="middle" x="802.5" y="-614.5" font-family="Helvetica,sans-Serif" font-size="10.00">_mpi_io_params</text>
</a>
</g>
</g>
<!-- Node10&#45;&gt;Node16 -->
<g id="edge17_Node000010_Node000016" class="edge">
<title>Node10&#45;&gt;Node16</title>
<g id="a_edge17_Node000010_Node000016"><a xlink:title=" ">
<path fill="none" stroke="#63b8ff" d="M688.26,-611.15C701.62,-612.49 715.49,-613.88 728.75,-615.21"/>
<polygon fill="#63b8ff" stroke="#63b8ff" points="728.45,-618.69 738.75,-616.21 729.15,-611.73 728.45,-618.69"/>
</a>
</g>
</g>
<!-- Node15&#45;&gt;Node7 -->
<g id="edge16_Node000015_Node000007" class="edge">
<title>Node15&#45;&gt;Node7</title>
<g id="a_edge16_Node000015_Node000007"><a xlink:title=" ">
<path fill="none" stroke="#63b8ff" d="M863.67,-484.95C881.02,-481.05 900.17,-476.74 918.35,-472.64"/>
<polygon fill="#63b8ff" stroke="#63b8ff" points="919.34,-476.01 928.33,-470.4 917.81,-469.18 919.34,-476.01"/>
</a>
</g>
</g>
<!-- Node16&#45;&gt;Node11 -->
<g id="edge18_Node000016_Node000011" class="edge">
<title>Node16&#45;&gt;Node11</title>
<g id="a_edge18_Node000016_Node000011"><a xlink:title=" ">
<path fill="none" stroke="#63b8ff" d="M866.04,-615.3C879.09,-613.79 893.06,-612.18 906.83,-610.6"/>
<polygon fill="#63b8ff" stroke="#63b8ff" points="907.26,-614.07 916.79,-609.45 906.46,-607.12 907.26,-614.07"/>
</a>
</g>
</g>
<!-- Node17&#45;&gt;Node6 -->
<g id="edge21_Node000017_Node000006" class="edge">
<title>Node17&#45;&gt;Node6</title>
<g id="a_edge21_Node000017_Node000006"><a xlink:title=" ">
<path fill="none" stroke="#63b8ff" d="M478.62,-432.52C485.28,-435.18 491.91,-438.18 498,-441.5 515.8,-451.2 516.34,-459.56 534,-469.5 540.43,-473.12 547.4,-476.47 554.42,-479.51"/>
<polygon fill="#63b8ff" stroke="#63b8ff" points="553.41,-482.88 563.99,-483.46 556.08,-476.41 553.41,-482.88"/>
</a>
</g>
</g>
<!-- Node17&#45;&gt;Node7 -->
<g id="edge22_Node000017_Node000007" class="edge">
<title>Node17&#45;&gt;Node7</title>
<g id="a_edge22_Node000017_Node000007"><a xlink:title=" ">
<path fill="none" stroke="#63b8ff" d="M489.84,-419.37C576.52,-422.36 741.23,-429.18 881,-441.5 892.97,-442.56 905.63,-443.89 917.98,-445.32"/>
<polygon fill="#63b8ff" stroke="#63b8ff" points="917.92,-448.84 928.26,-446.54 918.75,-441.89 917.92,-448.84"/>
</a>
</g>
</g>
<!-- Node17&#45;&gt;Node15 -->
<g id="edge25_Node000017_Node000015" class="edge">
<title>Node17&#45;&gt;Node15</title>
<g id="a_edge25_Node000017_Node000015"><a xlink:title=" ">
<path fill="none" stroke="#63b8ff" d="M489.68,-430.6C555.73,-444.99 661.63,-468.04 731.38,-483.23"/>
<polygon fill="#63b8ff" stroke="#63b8ff" points="730.89,-486.71 741.4,-485.41 732.38,-479.87 730.89,-486.71"/>
</a>
</g>
</g>
<!-- Node18 -->
<g id="Node000018" class="node">
<title>Node18</title>
<g id="a_Node000018"><a xlink:href="namespacem__compile__specific.html#a9cf8c029e502931415929734c03f340d" target="_top" xlink:title="Inquires on the existence of a directory.">
<polygon fill="white" stroke="#666666" points="667.5,-281.5 554.5,-281.5 554.5,-251.5 667.5,-251.5 667.5,-281.5"/>
<text text-anchor="start" x="562.5" y="-269.5" font-family="Helvetica,sans-Serif" font-size="10.00">m_compile_specific</text>
<text text-anchor="middle" x="611" y="-258.5" font-family="Helvetica,sans-Serif" font-size="10.00">::my_inquire</text>
</a>
</g>
</g>
<!-- Node17&#45;&gt;Node18 -->
<g id="edge20_Node000017_Node000018" class="edge">
<title>Node17&#45;&gt;Node18</title>
<g id="a_edge20_Node000017_Node000018"><a xlink:title=" ">
<path fill="none" stroke="#63b8ff" d="M479.08,-402.4C486.05,-398.68 492.66,-394.11 498,-388.5 530.01,-354.9 500.44,-322.54 534,-290.5 537.36,-287.3 541.14,-284.52 545.17,-282.11"/>
<polygon fill="#63b8ff" stroke="#63b8ff" points="547.04,-285.09 554.35,-277.42 543.86,-278.86 547.04,-285.09"/>
</a>
</g>
</g>
<!-- Node19 -->
<g id="Node000019" class="node">
<title>Node19</title>
<g id="a_Node000019"><a xlink:href="namespacem__data__input.html#a888fdc1ceb8dcce14220719df6a6f23f" target="_top" xlink:title="Helper subroutine to read grid data files for a given direction.">
<polygon fill="white" stroke="#666666" points="672,-389.5 550,-389.5 550,-359.5 672,-359.5 672,-389.5"/>
<text text-anchor="start" x="558" y="-377.5" font-family="Helvetica,sans-Serif" font-size="10.00">m_data_input::s_read</text>
<text text-anchor="middle" x="611" y="-366.5" font-family="Helvetica,sans-Serif" font-size="10.00">_grid_data_direction</text>
</a>
</g>
</g>
<!-- Node17&#45;&gt;Node19 -->
<g id="edge23_Node000017_Node000019" class="edge">
<title>Node17&#45;&gt;Node19</title>
<g id="a_edge23_Node000017_Node000019"><a xlink:title=" ">
<path fill="none" stroke="#63b8ff" d="M489.6,-403.18C505.66,-399.36 523.14,-395.19 539.69,-391.25"/>
<polygon fill="#63b8ff" stroke="#63b8ff" points="540.93,-394.55 549.85,-388.83 539.31,-387.74 540.93,-394.55"/>
</a>
</g>
</g>
<!-- Node20 -->
<g id="Node000020" class="node">
<title>Node20</title>
<g id="a_Node000020"><a xlink:href="namespacem__boundary__common.html#adfa0ae0acfddcffc6762f126d83ae3d0" target="_top" xlink:title=" ">
<polygon fill="white" stroke="#666666" points="677,-341 545,-341 545,-300 677,-300 677,-341"/>
<text text-anchor="start" x="553" y="-329" font-family="Helvetica,sans-Serif" font-size="10.00">m_boundary_common::</text>
<text text-anchor="start" x="553" y="-318" font-family="Helvetica,sans-Serif" font-size="10.00">s_read_serial_boundary</text>
<text text-anchor="middle" x="611" y="-307" font-family="Helvetica,sans-Serif" font-size="10.00">_condition_files</text>
</a>
</g>
</g>
<!-- Node17&#45;&gt;Node20 -->
<g id="edge26_Node000017_Node000020" class="edge">
<title>Node17&#45;&gt;Node20</title>
<g id="a_edge26_Node000017_Node000020"><a xlink:title=" ">
<path fill="none" stroke="#63b8ff" d="M472.59,-402.47C481.36,-398.54 490.25,-393.87 498,-388.5 517.12,-375.24 514.72,-363.52 534,-350.5 536.37,-348.9 538.84,-347.36 541.37,-345.9"/>
<polygon fill="#63b8ff" stroke="#63b8ff" points="543.05,-348.97 550.21,-341.15 539.74,-342.8 543.05,-348.97"/>
</a>
</g>
</g>
<!-- Node19&#45;&gt;Node7 -->
<g id="edge24_Node000019_Node000007" class="edge">
<title>Node19&#45;&gt;Node7</title>
<g id="a_edge24_Node000019_Node000007"><a xlink:title=" ">
<path fill="none" stroke="#63b8ff" d="M672.06,-375.47C727.27,-377.65 810.92,-384.22 881,-403.5 908.25,-411 937.18,-424.34 959.01,-435.64"/>
<polygon fill="#63b8ff" stroke="#63b8ff" points="957.43,-438.76 967.91,-440.33 960.7,-432.57 957.43,-438.76"/>
</a>
</g>
</g>
<!-- Node21&#45;&gt;Node18 -->
<g id="edge28_Node000021_Node000018" class="edge">
<title>Node21&#45;&gt;Node18</title>
<g id="a_edge28_Node000021_Node000018"><a xlink:title=" ">
<path fill="none" stroke="#63b8ff" d="M319.01,-386.52C372.75,-391.37 445.17,-389.37 498,-355.5 525.8,-337.68 508.44,-311.4 534,-290.5 537.47,-287.66 541.27,-285.16 545.28,-282.95"/>
<polygon fill="#63b8ff" stroke="#63b8ff" points="546.83,-286.09 554.3,-278.58 543.78,-279.79 546.83,-286.09"/>
</a>
</g>
</g>
<!-- Node22 -->
<g id="Node000022" class="node">
<title>Node22</title>
<g id="a_Node000022"><a xlink:href="namespacem__compile__specific.html#aa1b4e12a20e09147a215c3b5018484b0" target="_top" xlink:title="Creates a directory and all its parents if it does not exist.">
<polygon fill="white" stroke="#666666" points="485,-346.5 372,-346.5 372,-316.5 485,-316.5 485,-346.5"/>
<text text-anchor="start" x="380" y="-334.5" font-family="Helvetica,sans-Serif" font-size="10.00">m_compile_specific</text>
<text text-anchor="middle" x="428.5" y="-323.5" font-family="Helvetica,sans-Serif" font-size="10.00">::s_create_directory</text>
</a>
</g>
</g>
<!-- Node21&#45;&gt;Node22 -->
<g id="edge29_Node000021_Node000022" class="edge">
<title>Node21&#45;&gt;Node22</title>
<g id="a_edge29_Node000021_Node000022"><a xlink:title=" ">
<path fill="none" stroke="#63b8ff" d="M309.15,-359.46C326.21,-355.43 344.67,-351.07 361.83,-347.02"/>
<polygon fill="#63b8ff" stroke="#63b8ff" points="362.83,-350.37 371.76,-344.67 361.22,-343.56 362.83,-350.37"/>
</a>
</g>
</g>
<!-- Node28 -->
<g id="Node000028" class="node">
<title>Node28</title>
<g id="a_Node000028"><a xlink:href="namespacem__helper.html#ac1336e267ccea00e591824e9974f6188" target="_top" xlink:title="Computes the transfer coefficient for the non&#45;polytropic bubble compression process.">
<polygon fill="white" stroke="#666666" points="492.5,-121 364.5,-121 364.5,-102 492.5,-102 492.5,-121"/>
<text text-anchor="middle" x="428.5" y="-109" font-family="Helvetica,sans-Serif" font-size="10.00">m_helper::s_transcoeff</text>
</a>
</g>
</g>
<!-- Node27&#45;&gt;Node28 -->
<g id="edge35_Node000027_Node000028" class="edge">
<title>Node27&#45;&gt;Node28</title>
<g id="a_edge35_Node000027_Node000028"><a xlink:title=" ">
<path fill="none" stroke="#63b8ff" d="M305.09,-111.5C320.8,-111.5 337.94,-111.5 354.28,-111.5"/>
<polygon fill="#63b8ff" stroke="#63b8ff" points="354.33,-115 364.33,-111.5 354.33,-108 354.33,-115"/>
</a>
</g>
</g>
</g>
</svg>
