<?xml version="1.0" encoding="UTF-8" standalone="no"?>
<!DOCTYPE svg PUBLIC "-//W3C//DTD SVG 1.1//EN"
 "http://www.w3.org/Graphics/SVG/1.1/DTD/svg11.dtd">
<!-- Generated by graphviz version 2.43.0 (0)
 -->
<!-- Title: m_data_input::s_read_parallel_conservative_data Pages: 1 -->
<!--zoomable 296 -->

<svg id="main" version="1.1" xmlns="http://www.w3.org/2000/svg" xmlns:xlink="http://www.w3.org/1999/xlink" xml:space="preserve" onload="init(evt)">

<style type="text/css"><![CDATA[
.node, .edge {opacity: 0.7;}
.node.selected, .edge.selected {opacity: 1;}
.edge:hover path { stroke: red; }
.edge:hover polygon { stroke: red; fill: red; }
]]></style>

<defs>
  <circle id="rim" cx="0" cy="0" r="7"/>
  <circle id="rim2" cx="0" cy="0" r="3.5"/>
  <g id="zoomPlus">
    <use xlink:href="#rim" fill="#404040"><set attributeName="fill" to="#808080" begin="zoomplus.mouseover" end="zoomplus.mouseout"/></use>
    <path d="M-4,0h8M0,-4v8" fill="none" stroke="white" stroke-width="1.5" pointer-events="none"/>
  </g>
  <g id="zoomMin">
    <use xlink:href="#rim" fill="#404040"><set attributeName="fill" to="#808080" begin="zoomminus.mouseover" end="zoomminus.mouseout"/></use>
    <path d="M-4,0h8" fill="none" stroke="white" stroke-width="1.5" pointer-events="none"/>
  </g>
  <g id="arrowUp" transform="translate(30 24)">
    <use xlink:href="#rim"/>
    <path pointer-events="none" fill="none" stroke="white" stroke-width="1.5" d="M0,-3.0v7 M-2.5,-0.5L0,-3.0L2.5,-0.5"/>
  </g>
  <g id="arrowRight" transform="rotate(90) translate(36 -43)">
    <use xlink:href="#rim"/>
    <path pointer-events="none" fill="none" stroke="white" stroke-width="1.5" d="M0,-3.0v7 M-2.5,-0.5L0,-3.0L2.5,-0.5"/>
  </g>
  <g id="arrowDown" transform="rotate(180) translate(-30 -48)">
    <use xlink:href="#rim"/>
    <path pointer-events="none" fill="none" stroke="white" stroke-width="1.5" d="M0,-3.0v7 M-2.5,-0.5L0,-3.0L2.5,-0.5"/>
  </g>
  <g id="arrowLeft" transform="rotate(270) translate(-36 17)">
    <use xlink:href="#rim"/>
    <path pointer-events="none" fill="none" stroke="white" stroke-width="1.5" d="M0,-3.0v7 M-2.5,-0.5L0,-3.0L2.5,-0.5"/>
  </g>
  <g id="resetDef">
    <use xlink:href="#rim2" fill="#404040"><set attributeName="fill" to="#808080" begin="reset.mouseover" end="reset.mouseout"/></use>
  </g>
</defs>
<script type="application/ecmascript">
var viewWidth = 548;
var viewHeight = 296;
var sectionId = 'dynsection-7';
</script>
<script type="application/ecmascript" xlink:href="svg.min.js"/>
<svg id="graph" class="graph">
<g id="viewport">
<title>m_data_input::s_read_parallel_conservative_data</title>
<!-- Node1 -->
<g id="Node000001" class="node">
<title>Node1</title>
<g id="a_Node000001"><a xlink:title="Helper subroutine to read parallel conservative variable data.">
<polygon fill="#999999" stroke="#666666" points="154,-159 0,-159 0,-129 154,-129 154,-159"/>
<text text-anchor="start" x="8" y="-147" font-family="Helvetica,sans-Serif" font-size="10.00">m_data_input::s_read</text>
<text text-anchor="middle" x="77" y="-136" font-family="Helvetica,sans-Serif" font-size="10.00">_parallel_conservative_data</text>
</a>
</g>
</g>
<!-- Node2 -->
<g id="Node000002" class="node">
<title>Node2</title>
<g id="a_Node000002"><a xlink:href="namespacem__mpi__common.html#a2b579eba6293e56232ba5129614b5a18" target="_top" xlink:title=" ">
<polygon fill="white" stroke="#666666" points="540,-223 383,-223 383,-193 540,-193 540,-223"/>
<text text-anchor="start" x="391" y="-211" font-family="Helvetica,sans-Serif" font-size="10.00">m_mpi_common::s_initialize</text>
<text text-anchor="middle" x="461.5" y="-200" font-family="Helvetica,sans-Serif" font-size="10.00">_mpi_data</text>
</a>
</g>
</g>
<!-- Node1&#45;&gt;Node2 -->
<g id="edge1_Node000001_Node000002" class="edge">
<title>Node1&#45;&gt;Node2</title>
<g id="a_edge1_Node000001_Node000002"><a xlink:title=" ">
<path fill="none" stroke="#63b8ff" d="M154.25,-143.71C208.59,-144.94 283.05,-149.56 347,-164 371.85,-169.61 398.46,-179.69 419.67,-188.79"/>
<polygon fill="#63b8ff" stroke="#63b8ff" points="418.44,-192.07 429,-192.88 421.25,-185.66 418.44,-192.07"/>
</a>
</g>
</g>
<!-- Node3 -->
<g id="Node000003" class="node">
<title>Node3</title>
<g id="a_Node000003"><a xlink:href="namespacem__mpi__common.html#a564644bad898d940dc6caea3297bb424" target="_top" xlink:title=" ">
<polygon fill="white" stroke="#666666" points="347,-240 190,-240 190,-210 347,-210 347,-240"/>
<text text-anchor="start" x="198" y="-228" font-family="Helvetica,sans-Serif" font-size="10.00">m_mpi_common::s_initialize</text>
<text text-anchor="middle" x="268.5" y="-217" font-family="Helvetica,sans-Serif" font-size="10.00">_mpi_data_ds</text>
</a>
</g>
</g>
<!-- Node1&#45;&gt;Node3 -->
<g id="edge2_Node000001_Node000003" class="edge">
<title>Node1&#45;&gt;Node3</title>
<g id="a_edge2_Node000001_Node000003"><a xlink:title=" ">
<path fill="none" stroke="#63b8ff" d="M104.56,-159.14C126.88,-171.47 159.88,-188.77 190,-201 194.77,-202.94 199.76,-204.81 204.81,-206.6"/>
<polygon fill="#63b8ff" stroke="#63b8ff" points="203.95,-210 214.55,-209.93 206.22,-203.38 203.95,-210"/>
</a>
</g>
</g>
<!-- Node4 -->
<g id="Node000004" class="node">
<title>Node4</title>
<g id="a_Node000004"><a xlink:href="namespacem__helper.html#afd343d70a36c65cb7be86a183aa594ac" target="_top" xlink:title=" ">
<polygon fill="white" stroke="#666666" points="331,-191.5 206,-191.5 206,-172.5 331,-172.5 331,-191.5"/>
<text text-anchor="middle" x="268.5" y="-179.5" font-family="Helvetica,sans-Serif" font-size="10.00">m_helper::s_int_to_str</text>
</a>
</g>
</g>
<!-- Node1&#45;&gt;Node4 -->
<g id="edge3_Node000001_Node000004" class="edge">
<title>Node1&#45;&gt;Node4</title>
<g id="a_edge3_Node000001_Node000004"><a xlink:title=" ">
<path fill="none" stroke="#63b8ff" d="M152.9,-159.02C171.92,-162.83 192.07,-166.87 210.08,-170.48"/>
<polygon fill="#63b8ff" stroke="#63b8ff" points="209.63,-173.96 220.12,-172.5 211,-167.1 209.63,-173.96"/>
</a>
</g>
</g>
<!-- Node5 -->
<g id="Node000005" class="node">
<title>Node5</title>
<g id="a_Node000005"><a xlink:href="namespacem__mpi__common.html#a04cfc0bdb377a0ce2f9fd478e4bb3807" target="_top" xlink:title="The subroutine terminates the MPI execution environment.">
<polygon fill="white" stroke="#666666" points="528.5,-52 394.5,-52 394.5,-22 528.5,-22 528.5,-52"/>
<text text-anchor="start" x="402.5" y="-40" font-family="Helvetica,sans-Serif" font-size="10.00">m_mpi_common::s_mpi</text>
<text text-anchor="middle" x="461.5" y="-29" font-family="Helvetica,sans-Serif" font-size="10.00">_abort</text>
</a>
</g>
</g>
<!-- Node1&#45;&gt;Node5 -->
<g id="edge4_Node000001_Node000005" class="edge">
<title>Node1&#45;&gt;Node5</title>
<g id="a_edge4_Node000001_Node000005"><a xlink:title=" ">
<path fill="none" stroke="#63b8ff" d="M97.83,-128.81C119.32,-113.19 155.22,-89.42 190,-77 253.13,-54.46 328.92,-44.61 384.19,-40.32"/>
<polygon fill="#63b8ff" stroke="#63b8ff" points="384.55,-43.8 394.27,-39.58 384.04,-36.82 384.55,-43.8"/>
</a>
</g>
</g>
<!-- Node6 -->
<g id="Node000006" class="node">
<title>Node6</title>
<g id="a_Node000006"><a xlink:href="namespacem__mpi__common.html#a1073fc1fcb6f3b9394606d5c9285e9f0" target="_top" xlink:title="Halts all processes until all have reached barrier.">
<polygon fill="white" stroke="#666666" points="335.5,-116 201.5,-116 201.5,-86 335.5,-86 335.5,-116"/>
<text text-anchor="start" x="209.5" y="-104" font-family="Helvetica,sans-Serif" font-size="10.00">m_mpi_common::s_mpi</text>
<text text-anchor="middle" x="268.5" y="-93" font-family="Helvetica,sans-Serif" font-size="10.00">_barrier</text>
</a>
</g>
</g>
<!-- Node1&#45;&gt;Node6 -->
<g id="edge5_Node000001_Node000006" class="edge">
<title>Node1&#45;&gt;Node6</title>
<g id="a_edge5_Node000001_Node000006"><a xlink:title=" ">
<path fill="none" stroke="#63b8ff" d="M144.28,-128.96C159.42,-125.52 175.64,-121.84 191.17,-118.32"/>
<polygon fill="#63b8ff" stroke="#63b8ff" points="192.28,-121.66 201.26,-116.03 190.73,-114.83 192.28,-121.66"/>
</a>
</g>
</g>
<!-- Node7 -->
<g id="Node000007" class="node">
<title>Node7</title>
<g id="a_Node000007"><a xlink:href="namespacem__data__input.html#af83b04522a4d96faabec6f8142f90e80" target="_top" xlink:title="Helper subroutine to read IB data files.">
<polygon fill="white" stroke="#666666" points="329.5,-30 207.5,-30 207.5,0 329.5,0 329.5,-30"/>
<text text-anchor="start" x="215.5" y="-18" font-family="Helvetica,sans-Serif" font-size="10.00">m_data_input::s_read</text>
<text text-anchor="middle" x="268.5" y="-7" font-family="Helvetica,sans-Serif" font-size="10.00">_ib_data_files</text>
</a>
</g>
</g>
<!-- Node1&#45;&gt;Node7 -->
<g id="edge6_Node000001_Node000007" class="edge">
<title>Node1&#45;&gt;Node7</title>
<g id="a_edge6_Node000001_Node000007"><a xlink:title=" ">
<path fill="none" stroke="#63b8ff" d="M91.46,-128.85C111.22,-107.41 150.06,-68.13 190,-44 195.95,-40.41 202.42,-37.14 208.99,-34.19"/>
<polygon fill="#63b8ff" stroke="#63b8ff" points="210.81,-37.23 218.66,-30.12 208.09,-30.78 210.81,-37.23"/>
</a>
</g>
</g>
<!-- Node8 -->
<g id="Node000008" class="node">
<title>Node8</title>
<g id="a_Node000008"><a xlink:href="namespacem__data__input.html#a6e65911baddf566b7a796fadcea57495" target="_top" xlink:title="Helper subroutine to setup MPI data I/O parameters.">
<polygon fill="white" stroke="#666666" points="332,-288 205,-288 205,-258 332,-258 332,-288"/>
<text text-anchor="start" x="213" y="-276" font-family="Helvetica,sans-Serif" font-size="10.00">m_data_input::s_setup</text>
<text text-anchor="middle" x="268.5" y="-265" font-family="Helvetica,sans-Serif" font-size="10.00">_mpi_io_params</text>
</a>
</g>
</g>
<!-- Node1&#45;&gt;Node8 -->
<g id="edge8_Node000001_Node000008" class="edge">
<title>Node1&#45;&gt;Node8</title>
<g id="a_edge8_Node000001_Node000008"><a xlink:title=" ">
<path fill="none" stroke="#63b8ff" d="M90.15,-159.14C109.15,-181.83 148.07,-224.61 190,-249 193.01,-250.75 196.17,-252.39 199.41,-253.92"/>
<polygon fill="#63b8ff" stroke="#63b8ff" points="198.16,-257.19 208.73,-257.95 200.94,-250.77 198.16,-257.19"/>
</a>
</g>
</g>
<!-- Node7&#45;&gt;Node5 -->
<g id="edge7_Node000007_Node000005" class="edge">
<title>Node7&#45;&gt;Node5</title>
<g id="a_edge7_Node000007_Node000005"><a xlink:title=" ">
<path fill="none" stroke="#63b8ff" d="M329.67,-21.93C347.02,-23.93 366.17,-26.13 384.35,-28.23"/>
<polygon fill="#63b8ff" stroke="#63b8ff" points="384,-31.71 394.33,-29.38 384.8,-24.76 384,-31.71"/>
</a>
</g>
</g>
<!-- Node8&#45;&gt;Node2 -->
<g id="edge9_Node000008_Node000002" class="edge">
<title>Node8&#45;&gt;Node2</title>
<g id="a_edge9_Node000008_Node000002"><a xlink:title=" ">
<path fill="none" stroke="#63b8ff" d="M319.22,-257.98C328.48,-255.07 338.05,-252 347,-249 368,-241.96 391.01,-233.74 410.78,-226.52"/>
<polygon fill="#63b8ff" stroke="#63b8ff" points="412.03,-229.8 420.21,-223.07 409.62,-223.22 412.03,-229.8"/>
</a>
</g>
</g>
</g>
</svg>

<g id="navigator" transform="translate(0 0)" fill="#404254">
  <rect fill="#f2f5e9" fill-opacity="0.5" stroke="#606060" stroke-width=".5" x="0" y="0" width="60" height="60"/>
  <use id="zoomplus" xlink:href="#zoomPlus" x="17" y="9" onmousedown="handleZoom(evt,'in')"/>
  <use id="zoomminus" xlink:href="#zoomMin" x="42" y="9" onmousedown="handleZoom(evt,'out')"/>
  <use id="reset" xlink:href="#resetDef" x="30" y="36" onmousedown="handleReset()"/>
   <use id="arrowup" xlink:href="#arrowUp" x="0" y="0" onmousedown="handlePan(0,-1)"/>
  <use id="arrowright" xlink:href="#arrowRight" x="0" y="0" onmousedown="handlePan(1,0)"/>
  <use id="arrowdown" xlink:href="#arrowDown" x="0" y="0" onmousedown="handlePan(0,1)"/>
  <use id="arrowleft" xlink:href="#arrowLeft" x="0" y="0" onmousedown="handlePan(-1,0)"/>
</g>
<svg viewBox="0 0 15 15" width="100%" height="30px" preserveAspectRatio="xMaxYMin meet">
 <g id="arrow_out" transform="scale(0.3 0.3)">
  <a xlink:href="namespacem__data__input_a5139fe69b24a1dc0e32b632e9bf5d0ee_cgraph_org.svg" target="_base">
   <rect id="button" ry="5" rx="5" y="6" x="6" height="38" width="38"
        fill="#f2f5e9" fill-opacity="0.5" stroke="#606060" stroke-width="1.0"/>
   <path id="arrow"
     d="M 11.500037,31.436501 C 11.940474,20.09759 22.043105,11.32322 32.158766,21.979434 L 37.068811,17.246167 C 37.068811,17.246167 37.088388,32 37.088388,32 L 22.160133,31.978069 C 22.160133,31.978069 26.997745,27.140456 26.997745,27.140456 C 18.528582,18.264221 13.291696,25.230495 11.500037,31.436501 z"
     style="fill:#404040;"/>
  </a>
 </g>
</svg>

<style type='text/css'>
<![CDATA[
[data-mouse-over-selected='false'] { opacity: 0.7; }
[data-mouse-over-selected='true']  { opacity: 1.0; }
]]>
</style>
<script type="application/ecmascript"><![CDATA[
document.addEventListener('DOMContentLoaded', (event) => {
  highlightEdges();
  highlightAdjacentNodes();
});
]]></script>
</svg>
