<?xml version="1.0" encoding="UTF-8" standalone="no"?>
<!DOCTYPE svg PUBLIC "-//W3C//DTD SVG 1.1//EN"
 "http://www.w3.org/Graphics/SVG/1.1/DTD/svg11.dtd">
<!-- Generated by graphviz version 2.43.0 (0)
 -->
<!-- Title: m_helper_basic::f_is_default Pages: 1 -->
<!--zoomable 457 -->

<svg id="main" version="1.1" xmlns="http://www.w3.org/2000/svg" xmlns:xlink="http://www.w3.org/1999/xlink" xml:space="preserve" onload="init(evt)">

<style type="text/css"><![CDATA[
.node, .edge {opacity: 0.7;}
.node.selected, .edge.selected {opacity: 1;}
.edge:hover path { stroke: red; }
.edge:hover polygon { stroke: red; fill: red; }
]]></style>

<defs>
  <circle id="rim" cx="0" cy="0" r="7"/>
  <circle id="rim2" cx="0" cy="0" r="3.5"/>
  <g id="zoomPlus">
    <use xlink:href="#rim" fill="#404040"><set attributeName="fill" to="#808080" begin="zoomplus.mouseover" end="zoomplus.mouseout"/></use>
    <path d="M-4,0h8M0,-4v8" fill="none" stroke="white" stroke-width="1.5" pointer-events="none"/>
  </g>
  <g id="zoomMin">
    <use xlink:href="#rim" fill="#404040"><set attributeName="fill" to="#808080" begin="zoomminus.mouseover" end="zoomminus.mouseout"/></use>
    <path d="M-4,0h8" fill="none" stroke="white" stroke-width="1.5" pointer-events="none"/>
  </g>
  <g id="arrowUp" transform="translate(30 24)">
    <use xlink:href="#rim"/>
    <path pointer-events="none" fill="none" stroke="white" stroke-width="1.5" d="M0,-3.0v7 M-2.5,-0.5L0,-3.0L2.5,-0.5"/>
  </g>
  <g id="arrowRight" transform="rotate(90) translate(36 -43)">
    <use xlink:href="#rim"/>
    <path pointer-events="none" fill="none" stroke="white" stroke-width="1.5" d="M0,-3.0v7 M-2.5,-0.5L0,-3.0L2.5,-0.5"/>
  </g>
  <g id="arrowDown" transform="rotate(180) translate(-30 -48)">
    <use xlink:href="#rim"/>
    <path pointer-events="none" fill="none" stroke="white" stroke-width="1.5" d="M0,-3.0v7 M-2.5,-0.5L0,-3.0L2.5,-0.5"/>
  </g>
  <g id="arrowLeft" transform="rotate(270) translate(-36 17)">
    <use xlink:href="#rim"/>
    <path pointer-events="none" fill="none" stroke="white" stroke-width="1.5" d="M0,-3.0v7 M-2.5,-0.5L0,-3.0L2.5,-0.5"/>
  </g>
  <g id="resetDef">
    <use xlink:href="#rim2" fill="#404040"><set attributeName="fill" to="#808080" begin="reset.mouseover" end="reset.mouseout"/></use>
  </g>
</defs>
<script type="application/ecmascript">
var viewWidth = 896;
var viewHeight = 457;
var sectionId = 'dynsection-4';
</script>
<script type="application/ecmascript" xlink:href="svg.min.js"/>
<svg id="graph" class="graph">
<g id="viewport">
<title>m_helper_basic::f_is_default</title>
<!-- Node1 -->
<g id="Node000001" class="node">
<title>Node1</title>
<g id="a_Node000001"><a xlink:title="Checks if a real(wp) variable is of default value.">
<polygon fill="#999999" stroke="#666666" points="888,-240 772,-240 772,-210 888,-210 888,-240"/>
<text text-anchor="start" x="780" y="-228" font-family="Helvetica,sans-Serif" font-size="10.00">m_helper_basic::f_is</text>
<text text-anchor="middle" x="830" y="-217" font-family="Helvetica,sans-Serif" font-size="10.00">_default</text>
</a>
</g>
</g>
<!-- Node2 -->
<g id="Node000002" class="node">
<title>Node2</title>
<g id="a_Node000002"><a xlink:href="namespacem__helper__basic.html#a2a51671bfbfddf6ecabbc9593be49e1d" target="_top" xlink:title="Checks if ALL elements of a real(wp) array are of default value.">
<polygon fill="white" stroke="#666666" points="716.5,-449 596.5,-449 596.5,-419 716.5,-419 716.5,-449"/>
<text text-anchor="start" x="604.5" y="-437" font-family="Helvetica,sans-Serif" font-size="10.00">m_helper_basic::f_all</text>
<text text-anchor="middle" x="656.5" y="-426" font-family="Helvetica,sans-Serif" font-size="10.00">_default</text>
</a>
</g>
</g>
<!-- Node1&#45;&gt;Node2 -->
<g id="edge1_Node000001_Node000002" class="edge">
<title>Node1&#45;&gt;Node2</title>
<g id="a_edge1_Node000001_Node000002"><a xlink:title=" ">
<path fill="none" stroke="#63b8ff" d="M823.16,-250.17C812.64,-289.95 786.71,-367.21 736,-410 730.34,-414.78 723.73,-418.61 716.81,-421.67"/>
<polygon fill="#63b8ff" stroke="#63b8ff" points="826.62,-250.79 825.68,-240.23 819.83,-249.07 826.62,-250.79"/>
</a>
</g>
</g>
<!-- Node3 -->
<g id="Node000003" class="node">
<title>Node3</title>
<g id="a_Node000003"><a xlink:href="namespacem__checker__common.html#a9a28548179ff1dc35c035a76247ed51e" target="_top" xlink:title="Checks constraints on the bubble parameters. Called by s_check_inputs_common for pre&#45;processing and s...">
<polygon fill="white" stroke="#666666" points="736,-401 577,-401 577,-371 736,-371 736,-401"/>
<text text-anchor="start" x="585" y="-389" font-family="Helvetica,sans-Serif" font-size="10.00">m_checker_common::s</text>
<text text-anchor="middle" x="656.5" y="-378" font-family="Helvetica,sans-Serif" font-size="10.00">_check_inputs_bubbles_euler</text>
</a>
</g>
</g>
<!-- Node1&#45;&gt;Node3 -->
<g id="edge2_Node000001_Node000003" class="edge">
<title>Node1&#45;&gt;Node3</title>
<g id="a_edge2_Node000001_Node000003"><a xlink:title=" ">
<path fill="none" stroke="#63b8ff" d="M818.69,-249.42C804.5,-280.14 776.08,-332.43 736,-362 731.3,-365.47 726.09,-368.44 720.65,-370.99"/>
<polygon fill="#63b8ff" stroke="#63b8ff" points="821.9,-250.82 822.8,-240.26 815.51,-247.96 821.9,-250.82"/>
</a>
</g>
</g>
<!-- Node8 -->
<g id="Node000008" class="node">
<title>Node8</title>
<g id="a_Node000008"><a xlink:href="namespacem__checker__common.html#a970fc65314cddafcf0102f416d66f4ce" target="_top" xlink:title=" ">
<polygon fill="white" stroke="#666666" points="720.5,-353 592.5,-353 592.5,-323 720.5,-323 720.5,-353"/>
<text text-anchor="start" x="600.5" y="-341" font-family="Helvetica,sans-Serif" font-size="10.00">m_checker_common::s</text>
<text text-anchor="middle" x="656.5" y="-330" font-family="Helvetica,sans-Serif" font-size="10.00">_check_inputs_mhd</text>
</a>
</g>
</g>
<!-- Node1&#45;&gt;Node8 -->
<g id="edge7_Node000001_Node000008" class="edge">
<title>Node1&#45;&gt;Node8</title>
<g id="a_edge7_Node000001_Node000008"><a xlink:title=" ">
<path fill="none" stroke="#63b8ff" d="M810.55,-247.92C793.25,-268 765.66,-296.62 736,-314 730.22,-317.39 723.92,-320.34 717.48,-322.9"/>
<polygon fill="#63b8ff" stroke="#63b8ff" points="813.32,-250.05 817.09,-240.15 807.97,-245.54 813.32,-250.05"/>
</a>
</g>
</g>
<!-- Node9 -->
<g id="Node000009" class="node">
<title>Node9</title>
<g id="a_Node000009"><a xlink:href="namespacem__checker.html#aee132d8c2196f1f29a8b2c7230bc553c" target="_top" xlink:title="Checks constraints on partial domain parameters.">
<polygon fill="white" stroke="#666666" points="722,-78 591,-78 591,-48 722,-48 722,-78"/>
<text text-anchor="start" x="599" y="-66" font-family="Helvetica,sans-Serif" font-size="10.00">m_checker::s_check</text>
<text text-anchor="middle" x="656.5" y="-55" font-family="Helvetica,sans-Serif" font-size="10.00">_inputs_partial_domain</text>
</a>
</g>
</g>
<!-- Node1&#45;&gt;Node9 -->
<g id="edge9_Node000001_Node000009" class="edge">
<title>Node1&#45;&gt;Node9</title>
<g id="a_edge9_Node000001_Node000009"><a xlink:title=" ">
<path fill="none" stroke="#63b8ff" d="M818.74,-200.4C804.6,-169.46 776.23,-116.78 736,-87 731.42,-83.61 726.35,-80.69 721.06,-78.18"/>
<polygon fill="#63b8ff" stroke="#63b8ff" points="815.58,-201.9 822.83,-209.63 821.98,-199.07 815.58,-201.9"/>
</a>
</g>
</g>
<!-- Node11 -->
<g id="Node000011" class="node">
<title>Node11</title>
<g id="a_Node000011"><a xlink:href="namespacem__checker__common.html#aaf5d0bed53807e600991f52f8d75c1b5" target="_top" xlink:title="Checks constraints on the phase change parameters. Called by s_check_inputs_common for pre&#45;processing...">
<polygon fill="white" stroke="#666666" points="720.5,-304.5 592.5,-304.5 592.5,-263.5 720.5,-263.5 720.5,-304.5"/>
<text text-anchor="start" x="600.5" y="-292.5" font-family="Helvetica,sans-Serif" font-size="10.00">m_checker_common::s</text>
<text text-anchor="start" x="600.5" y="-281.5" font-family="Helvetica,sans-Serif" font-size="10.00">_check_inputs_phase</text>
<text text-anchor="middle" x="656.5" y="-270.5" font-family="Helvetica,sans-Serif" font-size="10.00">_change</text>
</a>
</g>
</g>
<!-- Node1&#45;&gt;Node11 -->
<g id="edge12_Node000001_Node000011" class="edge">
<title>Node1&#45;&gt;Node11</title>
<g id="a_edge12_Node000001_Node000011"><a xlink:title=" ">
<path fill="none" stroke="#63b8ff" d="M775.57,-243.38C757.09,-249.74 736.27,-256.9 717.32,-263.42"/>
<polygon fill="#63b8ff" stroke="#63b8ff" points="776.96,-246.6 785.28,-240.04 774.68,-239.98 776.96,-246.6"/>
</a>
</g>
</g>
<!-- Node12 -->
<g id="Node000012" class="node">
<title>Node12</title>
<g id="a_Node000012"><a xlink:href="namespacem__checker__common.html#a10215566de1fcb267572be90fdf5d31a" target="_top" xlink:title="Checks constraints on the QBMM and polydisperse bubble parameters. Called by s_check_inputs_common fo...">
<polygon fill="white" stroke="#666666" points="729.5,-245.5 583.5,-245.5 583.5,-204.5 729.5,-204.5 729.5,-245.5"/>
<text text-anchor="start" x="591.5" y="-233.5" font-family="Helvetica,sans-Serif" font-size="10.00">m_checker_common::s</text>
<text text-anchor="start" x="591.5" y="-222.5" font-family="Helvetica,sans-Serif" font-size="10.00">_check_inputs_qbmm_and</text>
<text text-anchor="middle" x="656.5" y="-211.5" font-family="Helvetica,sans-Serif" font-size="10.00">_polydisperse</text>
</a>
</g>
</g>
<!-- Node1&#45;&gt;Node12 -->
<g id="edge14_Node000001_Node000012" class="edge">
<title>Node1&#45;&gt;Node12</title>
<g id="a_edge14_Node000001_Node000012"><a xlink:title=" ">
<path fill="none" stroke="#63b8ff" d="M761.89,-225C751.3,-225 740.31,-225 729.61,-225"/>
<polygon fill="#63b8ff" stroke="#63b8ff" points="761.89,-228.5 771.89,-225 761.89,-221.5 761.89,-228.5"/>
</a>
</g>
</g>
<!-- Node13 -->
<g id="Node000013" class="node">
<title>Node13</title>
<g id="a_Node000013"><a xlink:href="namespacem__checker.html#a194095c0cdc765b1f2487f18091bc3de" target="_top" xlink:title="Checks constraints on numerical Schlieren parameters (schlieren_wrt and schlieren_alpha)">
<polygon fill="white" stroke="#666666" points="713.5,-30 599.5,-30 599.5,0 713.5,0 713.5,-30"/>
<text text-anchor="start" x="607.5" y="-18" font-family="Helvetica,sans-Serif" font-size="10.00">m_checker::s_check</text>
<text text-anchor="middle" x="656.5" y="-7" font-family="Helvetica,sans-Serif" font-size="10.00">_inputs_schlieren</text>
</a>
</g>
</g>
<!-- Node1&#45;&gt;Node13 -->
<g id="edge16_Node000001_Node000013" class="edge">
<title>Node1&#45;&gt;Node13</title>
<g id="a_edge16_Node000001_Node000013"><a xlink:title=" ">
<path fill="none" stroke="#63b8ff" d="M823.35,-200.24C812.98,-160.42 787.12,-82.23 736,-39 729.47,-33.48 721.69,-29.23 713.6,-25.95"/>
<polygon fill="#63b8ff" stroke="#63b8ff" points="819.95,-201.09 825.77,-209.95 826.75,-199.4 819.95,-201.09"/>
</a>
</g>
</g>
<!-- Node14 -->
<g id="Node000014" class="node">
<title>Node14</title>
<g id="a_Node000014"><a xlink:href="namespacem__checker__common.html#a20cb17f4b2111c489c7a31856a149b32" target="_top" xlink:title="Checks constraints on the stiffened equation of state fluids parameters. Called by s_check_inputs_com...">
<polygon fill="white" stroke="#666666" points="734.5,-186 578.5,-186 578.5,-156 734.5,-156 734.5,-186"/>
<text text-anchor="start" x="586.5" y="-174" font-family="Helvetica,sans-Serif" font-size="10.00">m_checker_common::s</text>
<text text-anchor="middle" x="656.5" y="-163" font-family="Helvetica,sans-Serif" font-size="10.00">_check_inputs_stiffened_eos</text>
</a>
</g>
</g>
<!-- Node1&#45;&gt;Node14 -->
<g id="edge18_Node000001_Node000014" class="edge">
<title>Node1&#45;&gt;Node14</title>
<g id="a_edge18_Node000001_Node000014"><a xlink:title=" ">
<path fill="none" stroke="#63b8ff" d="M771.56,-206.91C750.05,-200.14 725.86,-192.52 705.31,-186.05"/>
<polygon fill="#63b8ff" stroke="#63b8ff" points="770.64,-210.29 781.23,-209.96 772.74,-203.62 770.64,-210.29"/>
</a>
</g>
</g>
<!-- Node15 -->
<g id="Node000015" class="node">
<title>Node15</title>
<g id="a_Node000015"><a xlink:href="namespacem__checker__common.html#a3abeb8b799cf4729f18180fb72e6db69" target="_top" xlink:title="Checks constraints on the surface tension parameters. Called by s_check_inputs_common for all three s...">
<polygon fill="white" stroke="#666666" points="720.5,-137.5 592.5,-137.5 592.5,-96.5 720.5,-96.5 720.5,-137.5"/>
<text text-anchor="start" x="600.5" y="-125.5" font-family="Helvetica,sans-Serif" font-size="10.00">m_checker_common::s</text>
<text text-anchor="start" x="600.5" y="-114.5" font-family="Helvetica,sans-Serif" font-size="10.00">_check_inputs_surface</text>
<text text-anchor="middle" x="656.5" y="-103.5" font-family="Helvetica,sans-Serif" font-size="10.00">_tension</text>
</a>
</g>
</g>
<!-- Node1&#45;&gt;Node15 -->
<g id="edge20_Node000001_Node000015" class="edge">
<title>Node1&#45;&gt;Node15</title>
<g id="a_edge20_Node000001_Node000015"><a xlink:title=" ">
<path fill="none" stroke="#63b8ff" d="M806.5,-202.39C788.61,-185.4 762.31,-162.47 736,-147 730.21,-143.6 723.97,-140.45 717.63,-137.58"/>
<polygon fill="#63b8ff" stroke="#63b8ff" points="804.47,-205.3 814.09,-209.74 809.34,-200.27 804.47,-205.3"/>
</a>
</g>
</g>
<!-- Node4 -->
<g id="Node000004" class="node">
<title>Node4</title>
<g id="a_Node000004"><a xlink:href="namespacem__checker__common.html#a37b5025d5e6ffafc4cb5f417387c21b8" target="_top" xlink:title="Checks compatibility of parameters in the input file. Used by all three stages.">
<polygon fill="white" stroke="#666666" points="541,-240 407,-240 407,-210 541,-210 541,-240"/>
<text text-anchor="start" x="415" y="-228" font-family="Helvetica,sans-Serif" font-size="10.00">m_checker_common::s</text>
<text text-anchor="middle" x="474" y="-217" font-family="Helvetica,sans-Serif" font-size="10.00">_check_inputs_common</text>
</a>
</g>
</g>
<!-- Node3&#45;&gt;Node4 -->
<g id="edge3_Node000003_Node000004" class="edge">
<title>Node3&#45;&gt;Node4</title>
<g id="a_edge3_Node000003_Node000004"><a xlink:title=" ">
<path fill="none" stroke="#63b8ff" d="M583.69,-366.25C581.38,-364.92 579.14,-363.51 577,-362 530.46,-329.21 496.35,-268.54 482.21,-240.26"/>
<polygon fill="#63b8ff" stroke="#63b8ff" points="582.4,-369.53 592.9,-370.95 585.59,-363.29 582.4,-369.53"/>
</a>
</g>
</g>
<!-- Node5 -->
<g id="Node000005" class="node">
<title>Node5</title>
<g id="a_Node000005"><a xlink:href="namespacem__start__up.html#a045a171a9b44005a0e190f9a99784853" target="_top" xlink:title="Checking that the user inputs make sense, i.e. that the individual choices are compatible with the co...">
<polygon fill="white" stroke="#666666" points="371,-159 255,-159 255,-129 371,-129 371,-159"/>
<text text-anchor="start" x="263" y="-147" font-family="Helvetica,sans-Serif" font-size="10.00">m_start_up::s_check</text>
<text text-anchor="middle" x="313" y="-136" font-family="Helvetica,sans-Serif" font-size="10.00">_input_file</text>
</a>
</g>
</g>
<!-- Node4&#45;&gt;Node5 -->
<g id="edge4_Node000004_Node000005" class="edge">
<title>Node4&#45;&gt;Node5</title>
<g id="a_edge4_Node000004_Node000005"><a xlink:title=" ">
<path fill="none" stroke="#63b8ff" d="M434.38,-205.32C406.44,-191.09 369.26,-172.15 343.65,-159.1"/>
<polygon fill="#63b8ff" stroke="#63b8ff" points="432.97,-208.53 443.47,-209.95 436.14,-202.3 432.97,-208.53"/>
</a>
</g>
</g>
<!-- Node6 -->
<g id="Node000006" class="node">
<title>Node6</title>
<g id="a_Node000006"><a xlink:href="namespacem__start__up.html#a43f2e386d1bd2f0f6212f31a97542b96" target="_top" xlink:title=" ">
<polygon fill="white" stroke="#666666" points="219,-159 89,-159 89,-129 219,-129 219,-159"/>
<text text-anchor="start" x="97" y="-147" font-family="Helvetica,sans-Serif" font-size="10.00">m_start_up::s_initialize</text>
<text text-anchor="middle" x="154" y="-136" font-family="Helvetica,sans-Serif" font-size="10.00">_mpi_domain</text>
</a>
</g>
</g>
<!-- Node5&#45;&gt;Node6 -->
<g id="edge5_Node000005_Node000006" class="edge">
<title>Node5&#45;&gt;Node6</title>
<g id="a_edge5_Node000005_Node000006"><a xlink:title=" ">
<path fill="none" stroke="#63b8ff" d="M244.7,-144C236.26,-144 227.65,-144 219.26,-144"/>
<polygon fill="#63b8ff" stroke="#63b8ff" points="244.88,-147.5 254.88,-144 244.88,-140.5 244.88,-147.5"/>
</a>
</g>
</g>
<!-- Node7 -->
<g id="Node000007" class="node">
<title>Node7</title>
<g id="a_Node000007"><a xlink:href="p__main_8fpp_8f90.html#aeec10ee8e2940c953967da3e374e1579" target="_top" xlink:title="The post&#45;process restructures raw unformatted data, outputted by the simulation, into a formatted dat...">
<polygon fill="white" stroke="#666666" points="53,-153.5 0,-153.5 0,-134.5 53,-134.5 53,-153.5"/>
<text text-anchor="middle" x="26.5" y="-141.5" font-family="Helvetica,sans-Serif" font-size="10.00">p_main</text>
</a>
</g>
</g>
<!-- Node6&#45;&gt;Node7 -->
<g id="edge6_Node000006_Node000007" class="edge">
<title>Node6&#45;&gt;Node7</title>
<g id="a_edge6_Node000006_Node000007"><a xlink:title=" ">
<path fill="none" stroke="#63b8ff" d="M78.74,-144C69.58,-144 60.76,-144 53.09,-144"/>
<polygon fill="#63b8ff" stroke="#63b8ff" points="78.78,-147.5 88.78,-144 78.78,-140.5 78.78,-147.5"/>
</a>
</g>
</g>
<!-- Node8&#45;&gt;Node4 -->
<g id="edge8_Node000008_Node000004" class="edge">
<title>Node8&#45;&gt;Node4</title>
<g id="a_edge8_Node000008_Node000004"><a xlink:title=" ">
<path fill="none" stroke="#63b8ff" d="M587.12,-319.06C583.64,-317.48 580.24,-315.8 577,-314 541.05,-294.03 506.58,-259.77 488.37,-240.09"/>
<polygon fill="#63b8ff" stroke="#63b8ff" points="585.92,-322.35 596.5,-322.95 588.61,-315.88 585.92,-322.35"/>
</a>
</g>
</g>
<!-- Node10 -->
<g id="Node000010" class="node">
<title>Node10</title>
<g id="a_Node000010"><a xlink:href="namespacem__checker.html#a214e05cb46bc7c3e0dbe55fdc433c072" target="_top" xlink:title="Checks compatibility of parameters in the input file. Used by the post_process stage.">
<polygon fill="white" stroke="#666666" points="531,-78 417,-78 417,-48 531,-48 531,-78"/>
<text text-anchor="start" x="425" y="-66" font-family="Helvetica,sans-Serif" font-size="10.00">m_checker::s_check</text>
<text text-anchor="middle" x="474" y="-55" font-family="Helvetica,sans-Serif" font-size="10.00">_inputs</text>
</a>
</g>
</g>
<!-- Node9&#45;&gt;Node10 -->
<g id="edge10_Node000009_Node000010" class="edge">
<title>Node9&#45;&gt;Node10</title>
<g id="a_edge10_Node000009_Node000010"><a xlink:title=" ">
<path fill="none" stroke="#63b8ff" d="M580.64,-63C564.08,-63 546.8,-63 531.14,-63"/>
<polygon fill="#63b8ff" stroke="#63b8ff" points="580.85,-66.5 590.85,-63 580.85,-59.5 580.85,-66.5"/>
</a>
</g>
</g>
<!-- Node10&#45;&gt;Node5 -->
<g id="edge11_Node000010_Node000005" class="edge">
<title>Node10&#45;&gt;Node5</title>
<g id="a_edge11_Node000010_Node000005"><a xlink:title=" ">
<path fill="none" stroke="#63b8ff" d="M434.38,-82.68C406.44,-96.91 369.26,-115.85 343.65,-128.9"/>
<polygon fill="#63b8ff" stroke="#63b8ff" points="436.14,-85.7 443.47,-78.05 432.97,-79.47 436.14,-85.7"/>
</a>
</g>
</g>
<!-- Node11&#45;&gt;Node4 -->
<g id="edge13_Node000011_Node000004" class="edge">
<title>Node11&#45;&gt;Node4</title>
<g id="a_edge13_Node000011_Node000004"><a xlink:title=" ">
<path fill="none" stroke="#63b8ff" d="M582.85,-260.25C562.03,-253.45 539.91,-246.22 521.16,-240.09"/>
<polygon fill="#63b8ff" stroke="#63b8ff" points="582.03,-263.67 592.62,-263.45 584.21,-257.01 582.03,-263.67"/>
</a>
</g>
</g>
<!-- Node12&#45;&gt;Node4 -->
<g id="edge15_Node000012_Node000004" class="edge">
<title>Node12&#45;&gt;Node4</title>
<g id="a_edge15_Node000012_Node000004"><a xlink:title=" ">
<path fill="none" stroke="#63b8ff" d="M573.17,-225C562.44,-225 551.57,-225 541.15,-225"/>
<polygon fill="#63b8ff" stroke="#63b8ff" points="573.38,-228.5 583.38,-225 573.38,-221.5 573.38,-228.5"/>
</a>
</g>
</g>
<!-- Node13&#45;&gt;Node10 -->
<g id="edge17_Node000013_Node000010" class="edge">
<title>Node13&#45;&gt;Node10</title>
<g id="a_edge17_Node000013_Node000010"><a xlink:title=" ">
<path fill="none" stroke="#63b8ff" d="M589.52,-32.55C570.34,-37.65 549.59,-43.16 531.09,-48.08"/>
<polygon fill="#63b8ff" stroke="#63b8ff" points="590.61,-35.88 599.38,-29.92 588.81,-29.11 590.61,-35.88"/>
</a>
</g>
</g>
<!-- Node14&#45;&gt;Node4 -->
<g id="edge19_Node000014_Node000004" class="edge">
<title>Node14&#45;&gt;Node4</title>
<g id="a_edge19_Node000014_Node000004"><a xlink:title=" ">
<path fill="none" stroke="#63b8ff" d="M595.35,-189C572.63,-195.79 547.04,-203.45 525.32,-209.95"/>
<polygon fill="#63b8ff" stroke="#63b8ff" points="596.64,-192.26 605.22,-186.04 594.64,-185.56 596.64,-192.26"/>
</a>
</g>
</g>
<!-- Node15&#45;&gt;Node4 -->
<g id="edge21_Node000015_Node000004" class="edge">
<title>Node15&#45;&gt;Node4</title>
<g id="a_edge21_Node000015_Node000004"><a xlink:title=" ">
<path fill="none" stroke="#63b8ff" d="M586.87,-141.86C583.49,-143.51 580.18,-145.22 577,-147 544.49,-165.14 510.99,-192.81 491.62,-209.85"/>
<polygon fill="#63b8ff" stroke="#63b8ff" points="588.34,-145.04 595.94,-137.66 585.4,-138.69 588.34,-145.04"/>
</a>
</g>
</g>
</g>
</svg>

<g id="navigator" transform="translate(0 0)" fill="#404254">
  <rect fill="#f2f5e9" fill-opacity="0.5" stroke="#606060" stroke-width=".5" x="0" y="0" width="60" height="60"/>
  <use id="zoomplus" xlink:href="#zoomPlus" x="17" y="9" onmousedown="handleZoom(evt,'in')"/>
  <use id="zoomminus" xlink:href="#zoomMin" x="42" y="9" onmousedown="handleZoom(evt,'out')"/>
  <use id="reset" xlink:href="#resetDef" x="30" y="36" onmousedown="handleReset()"/>
   <use id="arrowup" xlink:href="#arrowUp" x="0" y="0" onmousedown="handlePan(0,-1)"/>
  <use id="arrowright" xlink:href="#arrowRight" x="0" y="0" onmousedown="handlePan(1,0)"/>
  <use id="arrowdown" xlink:href="#arrowDown" x="0" y="0" onmousedown="handlePan(0,1)"/>
  <use id="arrowleft" xlink:href="#arrowLeft" x="0" y="0" onmousedown="handlePan(-1,0)"/>
</g>
<svg viewBox="0 0 15 15" width="100%" height="30px" preserveAspectRatio="xMaxYMin meet">
 <g id="arrow_out" transform="scale(0.3 0.3)">
  <a xlink:href="namespacem__helper__basic_af1b06a05daa43f724ac3b0ff2f97db14_icgraph_org.svg" target="_base">
   <rect id="button" ry="5" rx="5" y="6" x="6" height="38" width="38"
        fill="#f2f5e9" fill-opacity="0.5" stroke="#606060" stroke-width="1.0"/>
   <path id="arrow"
     d="M 11.500037,31.436501 C 11.940474,20.09759 22.043105,11.32322 32.158766,21.979434 L 37.068811,17.246167 C 37.068811,17.246167 37.088388,32 37.088388,32 L 22.160133,31.978069 C 22.160133,31.978069 26.997745,27.140456 26.997745,27.140456 C 18.528582,18.264221 13.291696,25.230495 11.500037,31.436501 z"
     style="fill:#404040;"/>
  </a>
 </g>
</svg>

<style type='text/css'>
<![CDATA[
[data-mouse-over-selected='false'] { opacity: 0.7; }
[data-mouse-over-selected='true']  { opacity: 1.0; }
]]>
</style>
<script type="application/ecmascript"><![CDATA[
document.addEventListener('DOMContentLoaded', (event) => {
  highlightEdges();
  highlightAdjacentNodes();
});
]]></script>
</svg>
