<?xml version="1.0" encoding="UTF-8" standalone="no"?>
<!DOCTYPE svg PUBLIC "-//W3C//DTD SVG 1.1//EN"
 "http://www.w3.org/Graphics/SVG/1.1/DTD/svg11.dtd">
<!-- Generated by graphviz version 2.43.0 (0)
 -->
<!-- Title: m_mpi_common::s_mpi_abort Pages: 1 -->
<svg width="1113pt" height="392pt"
 viewBox="0.00 0.00 1113.00 392.46" xmlns="http://www.w3.org/2000/svg" xmlns:xlink="http://www.w3.org/1999/xlink">
<g id="graph0" class="graph" transform="scale(1 1) rotate(0) translate(4 388.46)">
<title>m_mpi_common::s_mpi_abort</title>
<!-- Node1 -->
<g id="Node000001" class="node">
<title>Node1</title>
<g id="a_Node000001"><a xlink:title="The subroutine terminates the MPI execution environment.">
<polygon fill="#999999" stroke="#666666" points="1105,-185.46 971,-185.46 971,-155.46 1105,-155.46 1105,-185.46"/>
<text text-anchor="start" x="979" y="-173.46" font-family="Helvetica,sans-Serif" font-size="10.00">m_mpi_common::s_mpi</text>
<text text-anchor="middle" x="1038" y="-162.46" font-family="Helvetica,sans-Serif" font-size="10.00">_abort</text>
</a>
</g>
</g>
<!-- Node2 -->
<g id="Node000002" class="node">
<title>Node2</title>
<g id="a_Node000002"><a xlink:href="namespacem__start__up.html#a045a171a9b44005a0e190f9a99784853" target="_top" xlink:title="Checking that the user inputs make sense, i.e. that the individual choices are compatible with the co...">
<polygon fill="white" stroke="#666666" points="916,-228.46 800,-228.46 800,-198.46 916,-198.46 916,-228.46"/>
<text text-anchor="start" x="808" y="-216.46" font-family="Helvetica,sans-Serif" font-size="10.00">m_start_up::s_check</text>
<text text-anchor="middle" x="858" y="-205.46" font-family="Helvetica,sans-Serif" font-size="10.00">_input_file</text>
</a>
</g>
</g>
<!-- Node1&#45;&gt;Node2 -->
<g id="edge1_Node000001_Node000002" class="edge">
<title>Node1&#45;&gt;Node2</title>
<g id="a_edge1_Node000001_Node000002"><a xlink:title=" ">
<path fill="none" stroke="#63b8ff" d="M964.78,-187.9C948.59,-191.81 931.63,-195.91 916.15,-199.65"/>
<polygon fill="#63b8ff" stroke="#63b8ff" points="965.85,-191.24 974.74,-185.49 964.2,-184.44 965.85,-191.24"/>
</a>
</g>
</g>
<!-- Node5 -->
<g id="Node000005" class="node">
<title>Node5</title>
<g id="a_Node000005"><a xlink:href="namespacem__mpi__common.html#afe54fe25c12eda7afe195fbf0fa166fc" target="_top" xlink:title="The purpose of this procedure is to optimally decompose the computational domain among the available ...">
<polygon fill="white" stroke="#666666" points="935,-335.96 781,-335.96 781,-294.96 935,-294.96 935,-335.96"/>
<text text-anchor="start" x="789" y="-323.96" font-family="Helvetica,sans-Serif" font-size="10.00">m_mpi_common::s_mpi</text>
<text text-anchor="start" x="789" y="-312.96" font-family="Helvetica,sans-Serif" font-size="10.00">_decompose_computational</text>
<text text-anchor="middle" x="858" y="-301.96" font-family="Helvetica,sans-Serif" font-size="10.00">_domain</text>
</a>
</g>
</g>
<!-- Node1&#45;&gt;Node5 -->
<g id="edge4_Node000001_Node000005" class="edge">
<title>Node1&#45;&gt;Node5</title>
<g id="a_edge4_Node000001_Node000005"><a xlink:title=" ">
<path fill="none" stroke="#63b8ff" d="M1021.33,-193.92C1003.21,-219.49 971.18,-260.13 935,-285.46 930.12,-288.87 924.79,-291.97 919.3,-294.77"/>
<polygon fill="#63b8ff" stroke="#63b8ff" points="1024.32,-195.76 1027.15,-185.55 1018.57,-191.77 1024.32,-195.76"/>
</a>
</g>
</g>
<!-- Node6 -->
<g id="Node000006" class="node">
<title>Node6</title>
<g id="a_Node000006"><a xlink:href="namespacem__mpi__common.html#a4d03f5fc95657b6bec1f89221295b0cc" target="_top" xlink:title=" ">
<polygon fill="white" stroke="#666666" points="934,-276.46 782,-276.46 782,-246.46 934,-246.46 934,-276.46"/>
<text text-anchor="start" x="790" y="-264.46" font-family="Helvetica,sans-Serif" font-size="10.00">m_mpi_common::s_prohibit</text>
<text text-anchor="middle" x="858" y="-253.46" font-family="Helvetica,sans-Serif" font-size="10.00">_abort</text>
</a>
</g>
</g>
<!-- Node1&#45;&gt;Node6 -->
<g id="edge5_Node000001_Node000006" class="edge">
<title>Node1&#45;&gt;Node6</title>
<g id="a_edge5_Node000001_Node000006"><a xlink:title=" ">
<path fill="none" stroke="#63b8ff" d="M1009.39,-191.61C989.54,-206.05 961.67,-224.78 935,-237.46 928.13,-240.72 920.7,-243.69 913.27,-246.34"/>
<polygon fill="#63b8ff" stroke="#63b8ff" points="1011.68,-194.27 1017.64,-185.52 1007.52,-188.64 1011.68,-194.27"/>
</a>
</g>
</g>
<!-- Node7 -->
<g id="Node000007" class="node">
<title>Node7</title>
<g id="a_Node000007"><a xlink:href="namespacem__data__input.html#a888fdc1ceb8dcce14220719df6a6f23f" target="_top" xlink:title="Helper subroutine to read grid data files for a given direction.">
<polygon fill="white" stroke="#666666" points="919,-56.46 797,-56.46 797,-26.46 919,-26.46 919,-56.46"/>
<text text-anchor="start" x="805" y="-44.46" font-family="Helvetica,sans-Serif" font-size="10.00">m_data_input::s_read</text>
<text text-anchor="middle" x="858" y="-33.46" font-family="Helvetica,sans-Serif" font-size="10.00">_grid_data_direction</text>
</a>
</g>
</g>
<!-- Node1&#45;&gt;Node7 -->
<g id="edge6_Node000001_Node000007" class="edge">
<title>Node1&#45;&gt;Node7</title>
<g id="a_edge6_Node000001_Node000007"><a xlink:title=" ">
<path fill="none" stroke="#63b8ff" d="M1020.05,-147.17C1001.61,-123.42 970.06,-87.09 935,-65.46 929.47,-62.04 923.4,-59.07 917.19,-56.5"/>
<polygon fill="#63b8ff" stroke="#63b8ff" points="1017.39,-149.45 1026.23,-155.3 1022.96,-145.22 1017.39,-149.45"/>
</a>
</g>
</g>
<!-- Node8 -->
<g id="Node000008" class="node">
<title>Node8</title>
<g id="a_Node000008"><a xlink:href="namespacem__data__input.html#a94700a0b549ac60847be9f4f0ab94adf" target="_top" xlink:title="This subroutine is called at each time&#45;step that has to be post&#45;processed in order to read the raw da...">
<polygon fill="white" stroke="#666666" points="729,-77.46 607,-77.46 607,-47.46 729,-47.46 729,-77.46"/>
<text text-anchor="start" x="615" y="-65.46" font-family="Helvetica,sans-Serif" font-size="10.00">m_data_input::s_read</text>
<text text-anchor="middle" x="668" y="-54.46" font-family="Helvetica,sans-Serif" font-size="10.00">_serial_data_files</text>
</a>
</g>
</g>
<!-- Node1&#45;&gt;Node8 -->
<g id="edge22_Node000001_Node000008" class="edge">
<title>Node1&#45;&gt;Node8</title>
<g id="a_edge22_Node000001_Node000008"><a xlink:title=" ">
<path fill="none" stroke="#63b8ff" d="M1028.81,-145.3C1015.58,-109.35 985.72,-44.6 935,-17.46 855.92,24.87 746.3,-21.31 696.09,-47.27"/>
<polygon fill="#63b8ff" stroke="#63b8ff" points="1025.62,-146.78 1032.25,-155.05 1032.22,-144.45 1025.62,-146.78"/>
</a>
</g>
</g>
<!-- Node11 -->
<g id="Node000011" class="node">
<title>Node11</title>
<g id="a_Node000011"><a xlink:href="namespacem__data__input.html#ab706af65baa287cc6e78ab873a4e67e9" target="_top" xlink:title="Helper subroutine to read IB data files.">
<polygon fill="white" stroke="#666666" points="919,-104.46 797,-104.46 797,-74.46 919,-74.46 919,-104.46"/>
<text text-anchor="start" x="805" y="-92.46" font-family="Helvetica,sans-Serif" font-size="10.00">m_data_input::s_read</text>
<text text-anchor="middle" x="858" y="-81.46" font-family="Helvetica,sans-Serif" font-size="10.00">_ib_data_files</text>
</a>
</g>
</g>
<!-- Node1&#45;&gt;Node11 -->
<g id="edge12_Node000001_Node000011" class="edge">
<title>Node1&#45;&gt;Node11</title>
<g id="a_edge12_Node000001_Node000011"><a xlink:title=" ">
<path fill="none" stroke="#63b8ff" d="M1000.24,-150.51C981.04,-140.4 957.01,-128.23 935,-118.46 924.03,-113.58 911.97,-108.75 900.74,-104.46"/>
<polygon fill="#63b8ff" stroke="#63b8ff" points="998.77,-153.7 1009.25,-155.29 1002.05,-147.51 998.77,-153.7"/>
</a>
</g>
</g>
<!-- Node12 -->
<g id="Node000012" class="node">
<title>Node12</title>
<g id="a_Node000012"><a xlink:href="namespacem__data__input.html#a5139fe69b24a1dc0e32b632e9bf5d0ee" target="_top" xlink:title="Helper subroutine to read parallel conservative variable data.">
<polygon fill="white" stroke="#666666" points="745,-142.46 591,-142.46 591,-112.46 745,-112.46 745,-142.46"/>
<text text-anchor="start" x="599" y="-130.46" font-family="Helvetica,sans-Serif" font-size="10.00">m_data_input::s_read</text>
<text text-anchor="middle" x="668" y="-119.46" font-family="Helvetica,sans-Serif" font-size="10.00">_parallel_conservative_data</text>
</a>
</g>
</g>
<!-- Node1&#45;&gt;Node12 -->
<g id="edge20_Node000001_Node000012" class="edge">
<title>Node1&#45;&gt;Node12</title>
<g id="a_edge20_Node000001_Node000012"><a xlink:title=" ">
<path fill="none" stroke="#63b8ff" d="M960.77,-159.76C952.08,-158.61 943.35,-157.48 935,-156.46 871.03,-148.58 798.26,-140.72 745.03,-135.18"/>
<polygon fill="#63b8ff" stroke="#63b8ff" points="960.54,-163.26 970.92,-161.11 961.47,-156.32 960.54,-163.26"/>
</a>
</g>
</g>
<!-- Node13 -->
<g id="Node000013" class="node">
<title>Node13</title>
<g id="a_Node000013"><a xlink:href="namespacem__data__input.html#a1e9dfd5c6be77bbfa34abb90c77216b4" target="_top" xlink:title="This subroutine is called at each time&#45;step that has to be post&#45;processed in order to parallel&#45;read t...">
<polygon fill="white" stroke="#666666" points="555,-160.46 433,-160.46 433,-130.46 555,-130.46 555,-160.46"/>
<text text-anchor="start" x="441" y="-148.46" font-family="Helvetica,sans-Serif" font-size="10.00">m_data_input::s_read</text>
<text text-anchor="middle" x="494" y="-137.46" font-family="Helvetica,sans-Serif" font-size="10.00">_parallel_data_files</text>
</a>
</g>
</g>
<!-- Node1&#45;&gt;Node13 -->
<g id="edge21_Node000001_Node000013" class="edge">
<title>Node1&#45;&gt;Node13</title>
<g id="a_edge21_Node000001_Node000013"><a xlink:title=" ">
<path fill="none" stroke="#63b8ff" d="M960.61,-167.66C871.77,-164.31 720.72,-158.27 591,-151.46 579.41,-150.85 567.04,-150.13 555.16,-149.4"/>
<polygon fill="#63b8ff" stroke="#63b8ff" points="960.74,-171.17 970.86,-168.05 961,-164.17 960.74,-171.17"/>
</a>
</g>
</g>
<!-- Node14 -->
<g id="Node000014" class="node">
<title>Node14</title>
<g id="a_Node000014"><a xlink:href="namespacem__start__up.html#a5df8ed5a8e1268f3d48821ee0dd8772a" target="_top" xlink:title="Reads the configuration file post_process.inp, in order to populate parameters in module m_global_par...">
<polygon fill="white" stroke="#666666" points="913,-384.46 803,-384.46 803,-354.46 913,-354.46 913,-384.46"/>
<text text-anchor="start" x="811" y="-372.46" font-family="Helvetica,sans-Serif" font-size="10.00">m_start_up::s_read</text>
<text text-anchor="middle" x="858" y="-361.46" font-family="Helvetica,sans-Serif" font-size="10.00">_input_file</text>
</a>
</g>
</g>
<!-- Node1&#45;&gt;Node14 -->
<g id="edge18_Node000001_Node000014" class="edge">
<title>Node1&#45;&gt;Node14</title>
<g id="a_edge18_Node000001_Node000014"><a xlink:title=" ">
<path fill="none" stroke="#63b8ff" d="M1029.07,-195.34C1015.72,-233.26 985.21,-305.31 935,-345.46 928.52,-350.64 920.9,-354.71 913.03,-357.91"/>
<polygon fill="#63b8ff" stroke="#63b8ff" points="1032.47,-196.2 1032.38,-185.61 1025.85,-193.95 1032.47,-196.2"/>
</a>
</g>
</g>
<!-- Node3 -->
<g id="Node000003" class="node">
<title>Node3</title>
<g id="a_Node000003"><a xlink:href="namespacem__start__up.html#a43f2e386d1bd2f0f6212f31a97542b96" target="_top" xlink:title=" ">
<polygon fill="white" stroke="#666666" points="733,-228.46 603,-228.46 603,-198.46 733,-198.46 733,-228.46"/>
<text text-anchor="start" x="611" y="-216.46" font-family="Helvetica,sans-Serif" font-size="10.00">m_start_up::s_initialize</text>
<text text-anchor="middle" x="668" y="-205.46" font-family="Helvetica,sans-Serif" font-size="10.00">_mpi_domain</text>
</a>
</g>
</g>
<!-- Node2&#45;&gt;Node3 -->
<g id="edge2_Node000002_Node000003" class="edge">
<title>Node2&#45;&gt;Node3</title>
<g id="a_edge2_Node000002_Node000003"><a xlink:title=" ">
<path fill="none" stroke="#63b8ff" d="M789.76,-213.46C771.32,-213.46 751.38,-213.46 733.13,-213.46"/>
<polygon fill="#63b8ff" stroke="#63b8ff" points="789.83,-216.96 799.83,-213.46 789.83,-209.96 789.83,-216.96"/>
</a>
</g>
</g>
<!-- Node4 -->
<g id="Node000004" class="node">
<title>Node4</title>
<g id="a_Node000004"><a xlink:href="p__main_8fpp_8f90.html#aeec10ee8e2940c953967da3e374e1579" target="_top" xlink:title="The post&#45;process restructures raw unformatted data, outputted by the simulation, into a formatted dat...">
<polygon fill="white" stroke="#666666" points="53,-156.96 0,-156.96 0,-137.96 53,-137.96 53,-156.96"/>
<text text-anchor="middle" x="26.5" y="-144.96" font-family="Helvetica,sans-Serif" font-size="10.00">p_main</text>
</a>
</g>
</g>
<!-- Node3&#45;&gt;Node4 -->
<g id="edge3_Node000003_Node000004" class="edge">
<title>Node3&#45;&gt;Node4</title>
<g id="a_edge3_Node000003_Node000004"><a xlink:title=" ">
<path fill="none" stroke="#63b8ff" d="M592.77,-205.79C450.15,-191.08 143.9,-159.47 53.27,-150.11"/>
<polygon fill="#63b8ff" stroke="#63b8ff" points="592.45,-209.28 602.75,-206.82 593.17,-202.32 592.45,-209.28"/>
</a>
</g>
</g>
<!-- Node7&#45;&gt;Node8 -->
<g id="edge7_Node000007_Node000008" class="edge">
<title>Node7&#45;&gt;Node8</title>
<g id="a_edge7_Node000007_Node000008"><a xlink:title=" ">
<path fill="none" stroke="#63b8ff" d="M786.9,-49.29C767.89,-51.41 747.48,-53.69 729.08,-55.74"/>
<polygon fill="#63b8ff" stroke="#63b8ff" points="787.45,-52.75 797,-48.16 786.67,-45.79 787.45,-52.75"/>
</a>
</g>
</g>
<!-- Node9 -->
<g id="Node000009" class="node">
<title>Node9</title>
<g id="a_Node000009"><a xlink:href="namespacem__data__input.html#a5746c07ce2bd024e906a721e6552443f" target="_top" xlink:title="Computation of parameters, allocation procedures, and/or any other tasks needed to properly setup the...">
<polygon fill="white" stroke="#666666" points="397,-120.46 255,-120.46 255,-90.46 397,-90.46 397,-120.46"/>
<text text-anchor="start" x="263" y="-108.46" font-family="Helvetica,sans-Serif" font-size="10.00">m_data_input::s_initialize</text>
<text text-anchor="middle" x="326" y="-97.46" font-family="Helvetica,sans-Serif" font-size="10.00">_data_input_module</text>
</a>
</g>
</g>
<!-- Node8&#45;&gt;Node9 -->
<g id="edge8_Node000008_Node000009" class="edge">
<title>Node8&#45;&gt;Node9</title>
<g id="a_edge8_Node000008_Node000009"><a xlink:title=" ">
<path fill="none" stroke="#63b8ff" d="M596.75,-71.34C538.36,-78.72 455.67,-89.18 397.27,-96.57"/>
<polygon fill="#63b8ff" stroke="#63b8ff" points="597.52,-74.77 607,-70.04 596.64,-67.83 597.52,-74.77"/>
</a>
</g>
</g>
<!-- Node10 -->
<g id="Node000010" class="node">
<title>Node10</title>
<g id="a_Node000010"><a xlink:href="namespacem__start__up.html#aea20fb8945d467b344a487cfe8213d99" target="_top" xlink:title=" ">
<polygon fill="white" stroke="#666666" points="219,-141.46 89,-141.46 89,-111.46 219,-111.46 219,-141.46"/>
<text text-anchor="start" x="97" y="-129.46" font-family="Helvetica,sans-Serif" font-size="10.00">m_start_up::s_initialize</text>
<text text-anchor="middle" x="154" y="-118.46" font-family="Helvetica,sans-Serif" font-size="10.00">_modules</text>
</a>
</g>
</g>
<!-- Node8&#45;&gt;Node10 -->
<g id="edge11_Node000008_Node000010" class="edge">
<title>Node8&#45;&gt;Node10</title>
<g id="a_edge11_Node000008_Node000010"><a xlink:title=" ">
<path fill="none" stroke="#63b8ff" d="M596.6,-57.77C513.67,-54.06 372.33,-53.43 255,-81.46 228.71,-87.74 200.81,-100.89 181.19,-111.37"/>
<polygon fill="#63b8ff" stroke="#63b8ff" points="596.51,-61.27 606.66,-58.25 596.84,-54.28 596.51,-61.27"/>
</a>
</g>
</g>
<!-- Node9&#45;&gt;Node10 -->
<g id="edge9_Node000009_Node000010" class="edge">
<title>Node9&#45;&gt;Node10</title>
<g id="a_edge9_Node000009_Node000010"><a xlink:title=" ">
<path fill="none" stroke="#63b8ff" d="M244.85,-115.36C236.26,-116.42 227.61,-117.49 219.24,-118.52"/>
<polygon fill="#63b8ff" stroke="#63b8ff" points="245.38,-118.82 254.87,-114.12 244.52,-111.87 245.38,-118.82"/>
</a>
</g>
</g>
<!-- Node10&#45;&gt;Node4 -->
<g id="edge10_Node000010_Node000004" class="edge">
<title>Node10&#45;&gt;Node4</title>
<g id="a_edge10_Node000010_Node000004"><a xlink:title=" ">
<path fill="none" stroke="#63b8ff" d="M78.74,-138.88C69.58,-140.41 60.76,-141.89 53.09,-143.17"/>
<polygon fill="#63b8ff" stroke="#63b8ff" points="79.49,-142.3 88.78,-137.2 78.34,-135.4 79.49,-142.3"/>
</a>
</g>
</g>
<!-- Node11&#45;&gt;Node8 -->
<g id="edge17_Node000011_Node000008" class="edge">
<title>Node11&#45;&gt;Node8</title>
<g id="a_edge17_Node000011_Node000008"><a xlink:title=" ">
<path fill="none" stroke="#63b8ff" d="M786.9,-79.39C767.89,-76.66 747.48,-73.73 729.08,-71.08"/>
<polygon fill="#63b8ff" stroke="#63b8ff" points="786.6,-82.88 797,-80.84 787.6,-75.95 786.6,-82.88"/>
</a>
</g>
</g>
<!-- Node11&#45;&gt;Node12 -->
<g id="edge13_Node000011_Node000012" class="edge">
<title>Node11&#45;&gt;Node12</title>
<g id="a_edge13_Node000011_Node000012"><a xlink:title=" ">
<path fill="none" stroke="#63b8ff" d="M786.81,-103.64C772.6,-106.51 757.61,-109.54 743.27,-112.44"/>
<polygon fill="#63b8ff" stroke="#63b8ff" points="787.89,-107 797,-101.58 786.5,-100.13 787.89,-107"/>
</a>
</g>
</g>
<!-- Node12&#45;&gt;Node13 -->
<g id="edge14_Node000012_Node000013" class="edge">
<title>Node12&#45;&gt;Node13</title>
<g id="a_edge14_Node000012_Node000013"><a xlink:title=" ">
<path fill="none" stroke="#63b8ff" d="M580.68,-136.49C572.04,-137.39 563.41,-138.3 555.13,-139.16"/>
<polygon fill="#63b8ff" stroke="#63b8ff" points="581.23,-139.95 590.81,-135.43 580.5,-132.99 581.23,-139.95"/>
</a>
</g>
</g>
<!-- Node13&#45;&gt;Node9 -->
<g id="edge15_Node000013_Node000009" class="edge">
<title>Node13&#45;&gt;Node9</title>
<g id="a_edge15_Node000013_Node000009"><a xlink:title=" ">
<path fill="none" stroke="#63b8ff" d="M422.56,-128.48C411.51,-125.82 400.16,-123.08 389.31,-120.47"/>
<polygon fill="#63b8ff" stroke="#63b8ff" points="422.06,-131.96 432.6,-130.9 423.7,-125.16 422.06,-131.96"/>
</a>
</g>
</g>
<!-- Node13&#45;&gt;Node10 -->
<g id="edge16_Node000013_Node000010" class="edge">
<title>Node13&#45;&gt;Node10</title>
<g id="a_edge16_Node000013_Node000010"><a xlink:title=" ">
<path fill="none" stroke="#63b8ff" d="M422.82,-141.51C362.83,-138.14 277.24,-133.33 219.08,-130.06"/>
<polygon fill="#63b8ff" stroke="#63b8ff" points="422.78,-145.01 432.96,-142.08 423.17,-138.02 422.78,-145.01"/>
</a>
</g>
</g>
<!-- Node14&#45;&gt;Node3 -->
<g id="edge19_Node000014_Node000003" class="edge">
<title>Node14&#45;&gt;Node3</title>
<g id="a_edge19_Node000014_Node000003"><a xlink:title=" ">
<path fill="none" stroke="#63b8ff" d="M793.67,-352.57C789.24,-350.45 784.97,-348.09 781,-345.46 733.19,-313.68 694.38,-255.84 677.75,-228.52"/>
<polygon fill="#63b8ff" stroke="#63b8ff" points="792.36,-355.81 802.93,-356.56 795.14,-349.39 792.36,-355.81"/>
</a>
</g>
</g>
</g>
</svg>
