<?xml version="1.0" encoding="UTF-8" standalone="no"?>
<!DOCTYPE svg PUBLIC "-//W3C//DTD SVG 1.1//EN"
 "http://www.w3.org/Graphics/SVG/1.1/DTD/svg11.dtd">
<!-- Generated by graphviz version 2.43.0 (0)
 -->
<!-- Title: m_model::f_read_line Pages: 1 -->
<svg width="789pt" height="114pt"
 viewBox="0.00 0.00 789.00 113.50" xmlns="http://www.w3.org/2000/svg" xmlns:xlink="http://www.w3.org/1999/xlink">
<g id="graph0" class="graph" transform="scale(1 1) rotate(0) translate(4 109.5)">
<title>m_model::f_read_line</title>
<!-- Node1 -->
<g id="Node000001" class="node">
<title>Node1</title>
<g id="a_Node000001"><a xlink:title=" ">
<polygon fill="#999999" stroke="#666666" points="781,-67.5 659,-67.5 659,-48.5 781,-48.5 781,-67.5"/>
<text text-anchor="middle" x="720" y="-55.5" font-family="Helvetica,sans-Serif" font-size="10.00">m_model::f_read_line</text>
</a>
</g>
</g>
<!-- Node2 -->
<g id="Node000002" class="node">
<title>Node2</title>
<g id="a_Node000002"><a xlink:href="namespacem__model.html#a33ad862ed39fa4f0a0364389cf9a0821" target="_top" xlink:title="This procedure reads an OBJ file.">
<polygon fill="white" stroke="#666666" points="446,-105.5 325,-105.5 325,-86.5 446,-86.5 446,-105.5"/>
<text text-anchor="middle" x="385.5" y="-93.5" font-family="Helvetica,sans-Serif" font-size="10.00">m_model::s_read_obj</text>
</a>
</g>
</g>
<!-- Node1&#45;&gt;Node2 -->
<g id="edge1_Node000001_Node000002" class="edge">
<title>Node1&#45;&gt;Node2</title>
<g id="a_edge1_Node000001_Node000002"><a xlink:title=" ">
<path fill="none" stroke="#63b8ff" d="M648.72,-66.06C640.06,-67.05 631.33,-68.05 623,-69 562.85,-75.88 494.09,-83.73 446.28,-89.18"/>
<polygon fill="#63b8ff" stroke="#63b8ff" points="649.29,-69.51 658.83,-64.9 648.5,-62.56 649.29,-69.51"/>
</a>
</g>
</g>
<!-- Node4 -->
<g id="Node000004" class="node">
<title>Node4</title>
<g id="a_Node000004"><a xlink:href="namespacem__model.html#ad7e72764fdcd2dac89b5e91d0d7db271" target="_top" xlink:title="This procedure reads an ASCII STL file.">
<polygon fill="white" stroke="#666666" points="444.5,-68 326.5,-68 326.5,-38 444.5,-38 444.5,-68"/>
<text text-anchor="start" x="334.5" y="-56" font-family="Helvetica,sans-Serif" font-size="10.00">m_model::s_read_stl</text>
<text text-anchor="middle" x="385.5" y="-45" font-family="Helvetica,sans-Serif" font-size="10.00">_ascii</text>
</a>
</g>
</g>
<!-- Node1&#45;&gt;Node4 -->
<g id="edge3_Node000001_Node000004" class="edge">
<title>Node1&#45;&gt;Node4</title>
<g id="a_edge3_Node000001_Node000004"><a xlink:title=" ">
<path fill="none" stroke="#63b8ff" d="M648.53,-56.94C587.86,-56.03 501.36,-54.73 444.59,-53.87"/>
<polygon fill="#63b8ff" stroke="#63b8ff" points="648.74,-60.44 658.79,-57.09 648.84,-53.44 648.74,-60.44"/>
</a>
</g>
</g>
<!-- Node6 -->
<g id="Node000006" class="node">
<title>Node6</title>
<g id="a_Node000006"><a xlink:href="namespacem__model.html#a532686157e0170dfff866cafe2162e9b" target="_top" xlink:title=" ">
<polygon fill="white" stroke="#666666" points="623,-30 482,-30 482,0 623,0 623,-30"/>
<text text-anchor="start" x="490" y="-18" font-family="Helvetica,sans-Serif" font-size="10.00">m_model::s_skip_ignored</text>
<text text-anchor="middle" x="552.5" y="-7" font-family="Helvetica,sans-Serif" font-size="10.00">_lines</text>
</a>
</g>
</g>
<!-- Node1&#45;&gt;Node6 -->
<g id="edge6_Node000001_Node000006" class="edge">
<title>Node1&#45;&gt;Node6</title>
<g id="a_edge6_Node000001_Node000006"><a xlink:title=" ">
<path fill="none" stroke="#63b8ff" d="M672.37,-45.88C653.39,-40.95 631.25,-35.2 611.26,-30.01"/>
<polygon fill="#63b8ff" stroke="#63b8ff" points="671.71,-49.33 682.27,-48.46 673.47,-42.55 671.71,-49.33"/>
</a>
</g>
</g>
<!-- Node3 -->
<g id="Node000003" class="node">
<title>Node3</title>
<g id="a_Node000003"><a xlink:href="namespacem__model.html#a8df07f3e9d228d00fef27cae7484d81e" target="_top" xlink:title="This procedure reads a mesh from a file.">
<polygon fill="white" stroke="#666666" points="135,-83.5 0,-83.5 0,-64.5 135,-64.5 135,-83.5"/>
<text text-anchor="middle" x="67.5" y="-71.5" font-family="Helvetica,sans-Serif" font-size="10.00">m_model::f_model_read</text>
</a>
</g>
</g>
<!-- Node2&#45;&gt;Node3 -->
<g id="edge2_Node000002_Node000003" class="edge">
<title>Node2&#45;&gt;Node3</title>
<g id="a_edge2_Node000002_Node000003"><a xlink:title=" ">
<path fill="none" stroke="#63b8ff" d="M314.61,-91.13C261.12,-87.41 187.84,-82.31 135.17,-78.64"/>
<polygon fill="#63b8ff" stroke="#63b8ff" points="314.47,-94.63 324.69,-91.84 314.96,-87.65 314.47,-94.63"/>
</a>
</g>
</g>
<!-- Node5 -->
<g id="Node000005" class="node">
<title>Node5</title>
<g id="a_Node000005"><a xlink:href="namespacem__model.html#a6f7ded1a2960fcf521c5892b8b1b850b" target="_top" xlink:title="This procedure reads an STL file.">
<polygon fill="white" stroke="#666666" points="289,-64.5 171,-64.5 171,-45.5 289,-45.5 289,-64.5"/>
<text text-anchor="middle" x="230" y="-52.5" font-family="Helvetica,sans-Serif" font-size="10.00">m_model::s_read_stl</text>
</a>
</g>
</g>
<!-- Node4&#45;&gt;Node5 -->
<g id="edge4_Node000004_Node000005" class="edge">
<title>Node4&#45;&gt;Node5</title>
<g id="a_edge4_Node000004_Node000005"><a xlink:title=" ">
<path fill="none" stroke="#63b8ff" d="M316.32,-53.89C307.24,-54.01 298,-54.13 289.11,-54.24"/>
<polygon fill="#63b8ff" stroke="#63b8ff" points="316.51,-57.39 326.47,-53.76 316.42,-50.39 316.51,-57.39"/>
</a>
</g>
</g>
<!-- Node5&#45;&gt;Node3 -->
<g id="edge5_Node000005_Node000003" class="edge">
<title>Node5&#45;&gt;Node3</title>
<g id="a_edge5_Node000005_Node000003"><a xlink:title=" ">
<path fill="none" stroke="#63b8ff" d="M160.44,-63.12C152.01,-64.11 143.41,-65.13 135.01,-66.13"/>
<polygon fill="#63b8ff" stroke="#63b8ff" points="161.08,-66.56 170.6,-61.91 160.26,-59.61 161.08,-66.56"/>
</a>
</g>
</g>
<!-- Node6&#45;&gt;Node4 -->
<g id="edge7_Node000006_Node000004" class="edge">
<title>Node6&#45;&gt;Node4</title>
<g id="a_edge7_Node000006_Node000004"><a xlink:title=" ">
<path fill="none" stroke="#63b8ff" d="M476.51,-32.27C465.78,-34.74 454.89,-37.25 444.55,-39.63"/>
<polygon fill="#63b8ff" stroke="#63b8ff" points="477.33,-35.67 486.29,-30.02 475.76,-28.85 477.33,-35.67"/>
</a>
</g>
</g>
</g>
</svg>
