<?xml version="1.0" encoding="UTF-8" standalone="no"?>
<!DOCTYPE svg PUBLIC "-//W3C//DTD SVG 1.1//EN"
 "http://www.w3.org/Graphics/SVG/1.1/DTD/svg11.dtd">
<!-- Generated by graphviz version 2.43.0 (0)
 -->
<!-- Title: m_start_up::s_perform_time_step Pages: 1 -->
<!--zoomable 590 -->

<svg id="main" version="1.1" xmlns="http://www.w3.org/2000/svg" xmlns:xlink="http://www.w3.org/1999/xlink" xml:space="preserve" onload="init(evt)">

<style type="text/css"><![CDATA[
.node, .edge {opacity: 0.7;}
.node.selected, .edge.selected {opacity: 1;}
.edge:hover path { stroke: red; }
.edge:hover polygon { stroke: red; fill: red; }
]]></style>

<defs>
  <circle id="rim" cx="0" cy="0" r="7"/>
  <circle id="rim2" cx="0" cy="0" r="3.5"/>
  <g id="zoomPlus">
    <use xlink:href="#rim" fill="#404040"><set attributeName="fill" to="#808080" begin="zoomplus.mouseover" end="zoomplus.mouseout"/></use>
    <path d="M-4,0h8M0,-4v8" fill="none" stroke="white" stroke-width="1.5" pointer-events="none"/>
  </g>
  <g id="zoomMin">
    <use xlink:href="#rim" fill="#404040"><set attributeName="fill" to="#808080" begin="zoomminus.mouseover" end="zoomminus.mouseout"/></use>
    <path d="M-4,0h8" fill="none" stroke="white" stroke-width="1.5" pointer-events="none"/>
  </g>
  <g id="arrowUp" transform="translate(30 24)">
    <use xlink:href="#rim"/>
    <path pointer-events="none" fill="none" stroke="white" stroke-width="1.5" d="M0,-3.0v7 M-2.5,-0.5L0,-3.0L2.5,-0.5"/>
  </g>
  <g id="arrowRight" transform="rotate(90) translate(36 -43)">
    <use xlink:href="#rim"/>
    <path pointer-events="none" fill="none" stroke="white" stroke-width="1.5" d="M0,-3.0v7 M-2.5,-0.5L0,-3.0L2.5,-0.5"/>
  </g>
  <g id="arrowDown" transform="rotate(180) translate(-30 -48)">
    <use xlink:href="#rim"/>
    <path pointer-events="none" fill="none" stroke="white" stroke-width="1.5" d="M0,-3.0v7 M-2.5,-0.5L0,-3.0L2.5,-0.5"/>
  </g>
  <g id="arrowLeft" transform="rotate(270) translate(-36 17)">
    <use xlink:href="#rim"/>
    <path pointer-events="none" fill="none" stroke="white" stroke-width="1.5" d="M0,-3.0v7 M-2.5,-0.5L0,-3.0L2.5,-0.5"/>
  </g>
  <g id="resetDef">
    <use xlink:href="#rim2" fill="#404040"><set attributeName="fill" to="#808080" begin="reset.mouseover" end="reset.mouseout"/></use>
  </g>
</defs>
<script type="application/ecmascript">
var viewWidth = 717;
var viewHeight = 590;
var sectionId = 'dynsection-11';
</script>
<script type="application/ecmascript" xlink:href="svg.min.js"/>
<svg id="graph" class="graph">
<g id="viewport">
<title>m_start_up::s_perform_time_step</title>
<!-- Node1 -->
<g id="Node000001" class="node">
<title>Node1</title>
<g id="a_Node000001"><a xlink:title=" ">
<polygon fill="#999999" stroke="#666666" points="127,-439 0,-439 0,-409 127,-409 127,-439"/>
<text text-anchor="start" x="8" y="-427" font-family="Helvetica,sans-Serif" font-size="10.00">m_start_up::s_perform</text>
<text text-anchor="middle" x="63.5" y="-416" font-family="Helvetica,sans-Serif" font-size="10.00">_time_step</text>
</a>
</g>
</g>
<!-- Node2 -->
<g id="Node000002" class="node">
<title>Node2</title>
<g id="a_Node000002"><a xlink:href="namespacem__chemistry.html#a8fb021e54cf3ca51481377075435c6a9" target="_top" xlink:title=" ">
<polygon fill="white" stroke="#666666" points="304.5,-523 165.5,-523 165.5,-493 304.5,-493 304.5,-523"/>
<text text-anchor="start" x="173.5" y="-511" font-family="Helvetica,sans-Serif" font-size="10.00">m_chemistry::s_compute</text>
<text text-anchor="middle" x="235" y="-500" font-family="Helvetica,sans-Serif" font-size="10.00">_q_t_sf</text>
</a>
</g>
</g>
<!-- Node1&#45;&gt;Node2 -->
<g id="edge1_Node000001_Node000002" class="edge">
<title>Node1&#45;&gt;Node2</title>
<g id="a_edge1_Node000001_Node000002"><a xlink:title=" ">
<path fill="none" stroke="#63b8ff" d="M86.02,-439.03C105.48,-452.15 135.24,-471.05 163,-484 166.85,-485.79 170.87,-487.52 174.95,-489.17"/>
<polygon fill="#63b8ff" stroke="#63b8ff" points="173.97,-492.54 184.56,-492.86 176.48,-486.01 173.97,-492.54"/>
</a>
</g>
</g>
<!-- Node3 -->
<g id="Node000003" class="node">
<title>Node3</title>
<g id="a_Node000003"><a xlink:href="namespacem__variables__conversion.html#a7d567315b057c0da0cb37f89ef298031" target="_top" xlink:title="The following procedure handles the conversion between the conservative variables and the primitive v...">
<polygon fill="white" stroke="#666666" points="304,-474.5 166,-474.5 166,-433.5 304,-433.5 304,-474.5"/>
<text text-anchor="start" x="174" y="-462.5" font-family="Helvetica,sans-Serif" font-size="10.00">m_variables_conversion</text>
<text text-anchor="start" x="174" y="-451.5" font-family="Helvetica,sans-Serif" font-size="10.00">::s_convert_conservative</text>
<text text-anchor="middle" x="235" y="-440.5" font-family="Helvetica,sans-Serif" font-size="10.00">_to_primitive_variables</text>
</a>
</g>
</g>
<!-- Node1&#45;&gt;Node3 -->
<g id="edge2_Node000001_Node000003" class="edge">
<title>Node1&#45;&gt;Node3</title>
<g id="a_edge2_Node000001_Node000003"><a xlink:title=" ">
<path fill="none" stroke="#63b8ff" d="M127.13,-435.09C136.51,-436.75 146.28,-438.47 155.93,-440.18"/>
<polygon fill="#63b8ff" stroke="#63b8ff" points="155.47,-443.66 165.93,-441.95 156.69,-436.76 155.47,-443.66"/>
</a>
</g>
</g>
<!-- Node11 -->
<g id="Node000011" class="node">
<title>Node11</title>
<g id="a_Node000011"><a xlink:href="namespacem__boundary__common.html#aaa280302ca5033a37f9e83f72a7bbd62" target="_top" xlink:title="The purpose of this subroutine is to populate the buffers of the grid variables, which are constitute...">
<polygon fill="white" stroke="#666666" points="307,-415.5 163,-415.5 163,-374.5 307,-374.5 307,-415.5"/>
<text text-anchor="start" x="171" y="-403.5" font-family="Helvetica,sans-Serif" font-size="10.00">m_boundary_common::</text>
<text text-anchor="start" x="171" y="-392.5" font-family="Helvetica,sans-Serif" font-size="10.00">s_populate_grid_variables</text>
<text text-anchor="middle" x="235" y="-381.5" font-family="Helvetica,sans-Serif" font-size="10.00">_buffers</text>
</a>
</g>
</g>
<!-- Node1&#45;&gt;Node11 -->
<g id="edge10_Node000001_Node000011" class="edge">
<title>Node1&#45;&gt;Node11</title>
<g id="a_edge10_Node000001_Node000011"><a xlink:title=" ">
<path fill="none" stroke="#63b8ff" d="M127.13,-413.28C135.47,-411.86 144.12,-410.38 152.71,-408.91"/>
<polygon fill="#63b8ff" stroke="#63b8ff" points="153.49,-412.32 162.76,-407.19 152.31,-405.43 153.49,-412.32"/>
</a>
</g>
</g>
<!-- Node12 -->
<g id="Node000012" class="node">
<title>Node12</title>
<g id="a_Node000012"><a xlink:href="namespacem__boundary__common.html#a759354204f31b7b1ecce6258ffec6a5c" target="_top" xlink:title="The purpose of this procedure is to populate the buffers of the primitive variables,...">
<polygon fill="white" stroke="#666666" points="300.5,-227.5 169.5,-227.5 169.5,-186.5 300.5,-186.5 300.5,-227.5"/>
<text text-anchor="start" x="177.5" y="-215.5" font-family="Helvetica,sans-Serif" font-size="10.00">m_boundary_common::</text>
<text text-anchor="start" x="177.5" y="-204.5" font-family="Helvetica,sans-Serif" font-size="10.00">s_populate_variables</text>
<text text-anchor="middle" x="235" y="-193.5" font-family="Helvetica,sans-Serif" font-size="10.00">_buffers</text>
</a>
</g>
</g>
<!-- Node1&#45;&gt;Node12 -->
<g id="edge11_Node000001_Node000012" class="edge">
<title>Node1&#45;&gt;Node12</title>
<g id="a_edge11_Node000001_Node000012"><a xlink:title=" ">
<path fill="none" stroke="#63b8ff" d="M76.42,-408.74C104.5,-372.79 175.17,-282.31 211.57,-235.72"/>
<polygon fill="#63b8ff" stroke="#63b8ff" points="214.34,-237.86 217.74,-227.82 208.82,-233.55 214.34,-237.86"/>
</a>
</g>
</g>
<!-- Node4 -->
<g id="Node000004" class="node">
<title>Node4</title>
<g id="a_Node000004"><a xlink:href="namespacem__variables__conversion.html#a58c19a9ba2767016cd7c916cd52b8d0e" target="_top" xlink:title="This procedure conditionally calculates the appropriate pressure.">
<polygon fill="white" stroke="#666666" points="498.5,-582 363.5,-582 363.5,-552 498.5,-552 498.5,-582"/>
<text text-anchor="start" x="371.5" y="-570" font-family="Helvetica,sans-Serif" font-size="10.00">m_variables_conversion</text>
<text text-anchor="middle" x="431" y="-559" font-family="Helvetica,sans-Serif" font-size="10.00">::s_compute_pressure</text>
</a>
</g>
</g>
<!-- Node3&#45;&gt;Node4 -->
<g id="edge3_Node000003_Node000004" class="edge">
<title>Node3&#45;&gt;Node4</title>
<g id="a_edge3_Node000003_Node000004"><a xlink:title=" ">
<path fill="none" stroke="#63b8ff" d="M293.68,-474.57C298.42,-477.37 302.95,-480.51 307,-484 330.27,-504.05 318.47,-524.51 343,-543 346.45,-545.6 350.16,-547.92 354.05,-549.99"/>
<polygon fill="#63b8ff" stroke="#63b8ff" points="352.83,-553.28 363.37,-554.37 355.81,-546.95 352.83,-553.28"/>
</a>
</g>
</g>
<!-- Node5 -->
<g id="Node000005" class="node">
<title>Node5</title>
<g id="a_Node000005"><a xlink:href="namespacem__variables__conversion.html#af1bda14464459b0fd9448dd8885741c7" target="_top" xlink:title=" ">
<polygon fill="white" stroke="#666666" points="498.5,-533.5 363.5,-533.5 363.5,-492.5 498.5,-492.5 498.5,-533.5"/>
<text text-anchor="start" x="371.5" y="-521.5" font-family="Helvetica,sans-Serif" font-size="10.00">m_variables_conversion</text>
<text text-anchor="start" x="371.5" y="-510.5" font-family="Helvetica,sans-Serif" font-size="10.00">::s_convert_species_to</text>
<text text-anchor="middle" x="431" y="-499.5" font-family="Helvetica,sans-Serif" font-size="10.00">_mixture_variables_acc</text>
</a>
</g>
</g>
<!-- Node3&#45;&gt;Node5 -->
<g id="edge4_Node000003_Node000005" class="edge">
<title>Node3&#45;&gt;Node5</title>
<g id="a_edge4_Node000003_Node000005"><a xlink:title=" ">
<path fill="none" stroke="#63b8ff" d="M303.58,-474.55C319.76,-479.47 337.15,-484.76 353.69,-489.79"/>
<polygon fill="#63b8ff" stroke="#63b8ff" points="352.73,-493.16 363.32,-492.72 354.77,-486.46 352.73,-493.16"/>
</a>
</g>
</g>
<!-- Node6 -->
<g id="Node000006" class="node">
<title>Node6</title>
<g id="a_Node000006"><a xlink:href="namespacem__variables__conversion.html#a26c6917f419e63e2c721b2e184cc955f" target="_top" xlink:title=" ">
<polygon fill="white" stroke="#666666" points="519,-474.5 343,-474.5 343,-433.5 519,-433.5 519,-474.5"/>
<text text-anchor="start" x="351" y="-462.5" font-family="Helvetica,sans-Serif" font-size="10.00">m_variables_conversion</text>
<text text-anchor="start" x="351" y="-451.5" font-family="Helvetica,sans-Serif" font-size="10.00">::s_convert_species_to</text>
<text text-anchor="middle" x="431" y="-440.5" font-family="Helvetica,sans-Serif" font-size="10.00">_mixture_variables_bubbles_acc</text>
</a>
</g>
</g>
<!-- Node3&#45;&gt;Node6 -->
<g id="edge5_Node000003_Node000006" class="edge">
<title>Node3&#45;&gt;Node6</title>
<g id="a_edge5_Node000003_Node000006"><a xlink:title=" ">
<path fill="none" stroke="#63b8ff" d="M304.12,-454C313.44,-454 323.15,-454 332.86,-454"/>
<polygon fill="#63b8ff" stroke="#63b8ff" points="332.97,-457.5 342.97,-454 332.97,-450.5 332.97,-457.5"/>
</a>
</g>
</g>
<!-- Node7 -->
<g id="Node000007" class="node">
<title>Node7</title>
<g id="a_Node000007"><a xlink:href="namespacem__variables__conversion.html#ad79dc943a9108e838d80bb2b264fba8e" target="_top" xlink:title="Dispatch to the s_convert_mixture_to_mixture_variables and s_convert_species_to_mixture_variables sub...">
<polygon fill="white" stroke="#666666" points="498.5,-415.5 363.5,-415.5 363.5,-374.5 498.5,-374.5 498.5,-415.5"/>
<text text-anchor="start" x="371.5" y="-403.5" font-family="Helvetica,sans-Serif" font-size="10.00">m_variables_conversion</text>
<text text-anchor="start" x="371.5" y="-392.5" font-family="Helvetica,sans-Serif" font-size="10.00">::s_convert_to_mixture</text>
<text text-anchor="middle" x="431" y="-381.5" font-family="Helvetica,sans-Serif" font-size="10.00">_variables</text>
</a>
</g>
</g>
<!-- Node3&#45;&gt;Node7 -->
<g id="edge6_Node000003_Node000007" class="edge">
<title>Node3&#45;&gt;Node7</title>
<g id="a_edge6_Node000003_Node000007"><a xlink:title=" ">
<path fill="none" stroke="#63b8ff" d="M303.58,-433.45C319.76,-428.53 337.15,-423.24 353.69,-418.21"/>
<polygon fill="#63b8ff" stroke="#63b8ff" points="354.77,-421.54 363.32,-415.28 352.73,-414.84 354.77,-421.54"/>
</a>
</g>
</g>
<!-- Node8 -->
<g id="Node000008" class="node">
<title>Node8</title>
<g id="a_Node000008"><a xlink:href="namespacem__variables__conversion.html#a8b30b668d9de48d0bf0d53fa56116847" target="_top" xlink:title="This subroutine is designed for the gamma/pi_inf model and provided a set of either conservative or p...">
<polygon fill="white" stroke="#666666" points="699.5,-474.5 564.5,-474.5 564.5,-433.5 699.5,-433.5 699.5,-474.5"/>
<text text-anchor="start" x="572.5" y="-462.5" font-family="Helvetica,sans-Serif" font-size="10.00">m_variables_conversion</text>
<text text-anchor="start" x="572.5" y="-451.5" font-family="Helvetica,sans-Serif" font-size="10.00">::s_convert_mixture_to</text>
<text text-anchor="middle" x="632" y="-440.5" font-family="Helvetica,sans-Serif" font-size="10.00">_mixture_variables</text>
</a>
</g>
</g>
<!-- Node7&#45;&gt;Node8 -->
<g id="edge7_Node000007_Node000008" class="edge">
<title>Node7&#45;&gt;Node8</title>
<g id="a_edge7_Node000007_Node000008"><a xlink:title=" ">
<path fill="none" stroke="#63b8ff" d="M498.54,-414.73C516.45,-420.04 535.97,-425.82 554.38,-431.28"/>
<polygon fill="#63b8ff" stroke="#63b8ff" points="553.6,-434.7 564.18,-434.19 555.59,-427.99 553.6,-434.7"/>
</a>
</g>
</g>
<!-- Node9 -->
<g id="Node000009" class="node">
<title>Node9</title>
<g id="a_Node000009"><a xlink:href="namespacem__variables__conversion.html#a7f3bffa0ba13432f79f095a78fcf6e5a" target="_top" xlink:title="This subroutine is designed for the volume fraction model and provided a set of either conservative o...">
<polygon fill="white" stroke="#666666" points="699.5,-415.5 564.5,-415.5 564.5,-374.5 699.5,-374.5 699.5,-415.5"/>
<text text-anchor="start" x="572.5" y="-403.5" font-family="Helvetica,sans-Serif" font-size="10.00">m_variables_conversion</text>
<text text-anchor="start" x="572.5" y="-392.5" font-family="Helvetica,sans-Serif" font-size="10.00">::s_convert_species_to</text>
<text text-anchor="middle" x="632" y="-381.5" font-family="Helvetica,sans-Serif" font-size="10.00">_mixture_variables</text>
</a>
</g>
</g>
<!-- Node7&#45;&gt;Node9 -->
<g id="edge8_Node000007_Node000009" class="edge">
<title>Node7&#45;&gt;Node9</title>
<g id="a_edge8_Node000007_Node000009"><a xlink:title=" ">
<path fill="none" stroke="#63b8ff" d="M498.54,-395C516.37,-395 535.79,-395 554.12,-395"/>
<polygon fill="#63b8ff" stroke="#63b8ff" points="554.18,-398.5 564.18,-395 554.18,-391.5 554.18,-398.5"/>
</a>
</g>
</g>
<!-- Node10 -->
<g id="Node000010" class="node">
<title>Node10</title>
<g id="a_Node000010"><a xlink:href="namespacem__variables__conversion.html#a57f893a44db2368e82339b2993a05ff4" target="_top" xlink:title="This procedure is used alongside with the gamma/pi_inf model to transfer the density,...">
<polygon fill="white" stroke="#666666" points="709,-356.5 555,-356.5 555,-315.5 709,-315.5 709,-356.5"/>
<text text-anchor="start" x="563" y="-344.5" font-family="Helvetica,sans-Serif" font-size="10.00">m_variables_conversion</text>
<text text-anchor="start" x="563" y="-333.5" font-family="Helvetica,sans-Serif" font-size="10.00">::s_convert_species_to</text>
<text text-anchor="middle" x="632" y="-322.5" font-family="Helvetica,sans-Serif" font-size="10.00">_mixture_variables_bubbles</text>
</a>
</g>
</g>
<!-- Node7&#45;&gt;Node10 -->
<g id="edge9_Node000007_Node000010" class="edge">
<title>Node7&#45;&gt;Node10</title>
<g id="a_edge9_Node000007_Node000010"><a xlink:title=" ">
<path fill="none" stroke="#63b8ff" d="M498.54,-375.27C515.7,-370.18 534.34,-364.66 552.06,-359.4"/>
<polygon fill="#63b8ff" stroke="#63b8ff" points="553.21,-362.72 561.8,-356.52 551.22,-356 553.21,-362.72"/>
</a>
</g>
</g>
<!-- Node13 -->
<g id="Node000013" class="node">
<title>Node13</title>
<g id="a_Node000013"><a xlink:href="namespacem__boundary__common.html#a2fe3d0adef0faf65f6410f293d32bb42" target="_top" xlink:title=" ">
<polygon fill="white" stroke="#666666" points="496.5,-356 365.5,-356 365.5,-326 496.5,-326 496.5,-356"/>
<text text-anchor="start" x="373.5" y="-344" font-family="Helvetica,sans-Serif" font-size="10.00">m_boundary_common::</text>
<text text-anchor="middle" x="431" y="-333" font-family="Helvetica,sans-Serif" font-size="10.00">s_axis</text>
</a>
</g>
</g>
<!-- Node12&#45;&gt;Node13 -->
<g id="edge12_Node000012_Node000013" class="edge">
<title>Node12&#45;&gt;Node13</title>
<g id="a_edge12_Node000012_Node000013"><a xlink:title=" ">
<path fill="none" stroke="#63b8ff" d="M250.59,-227.66C269.22,-252.52 303.79,-293.8 343,-317 347.08,-319.42 351.42,-321.6 355.89,-323.56"/>
<polygon fill="#63b8ff" stroke="#63b8ff" points="354.63,-326.83 365.21,-327.3 357.24,-320.33 354.63,-326.83"/>
</a>
</g>
</g>
<!-- Node14 -->
<g id="Node000014" class="node">
<title>Node14</title>
<g id="a_Node000014"><a xlink:href="namespacem__boundary__common.html#a868f1a4cb136b1e10ff0266614eae5b8" target="_top" xlink:title=" ">
<polygon fill="white" stroke="#666666" points="496.5,-308 365.5,-308 365.5,-278 496.5,-278 496.5,-308"/>
<text text-anchor="start" x="373.5" y="-296" font-family="Helvetica,sans-Serif" font-size="10.00">m_boundary_common::</text>
<text text-anchor="middle" x="431" y="-285" font-family="Helvetica,sans-Serif" font-size="10.00">s_dirichlet</text>
</a>
</g>
</g>
<!-- Node12&#45;&gt;Node14 -->
<g id="edge13_Node000012_Node000014" class="edge">
<title>Node12&#45;&gt;Node14</title>
<g id="a_edge13_Node000012_Node000014"><a xlink:title=" ">
<path fill="none" stroke="#63b8ff" d="M270.93,-227.53C291.49,-239.12 318.24,-253.37 343,-264 351.69,-267.73 361.02,-271.29 370.24,-274.56"/>
<polygon fill="#63b8ff" stroke="#63b8ff" points="369.18,-277.89 379.77,-277.85 371.47,-271.28 369.18,-277.89"/>
</a>
</g>
</g>
<!-- Node15 -->
<g id="Node000015" class="node">
<title>Node15</title>
<g id="a_Node000015"><a xlink:href="namespacem__boundary__common.html#a8aaafb76d038c4e6c8ae6272efa774ad" target="_top" xlink:title=" ">
<polygon fill="white" stroke="#666666" points="705.5,-281 558.5,-281 558.5,-251 705.5,-251 705.5,-281"/>
<text text-anchor="start" x="566.5" y="-269" font-family="Helvetica,sans-Serif" font-size="10.00">m_boundary_common::</text>
<text text-anchor="middle" x="632" y="-258" font-family="Helvetica,sans-Serif" font-size="10.00">s_ghost_cell_extrapolation</text>
</a>
</g>
</g>
<!-- Node12&#45;&gt;Node15 -->
<g id="edge15_Node000012_Node000015" class="edge">
<title>Node12&#45;&gt;Node15</title>
<g id="a_edge15_Node000012_Node000015"><a xlink:title=" ">
<path fill="none" stroke="#63b8ff" d="M300.58,-222.57C314.52,-225.63 329.21,-228.62 343,-231 411.71,-242.85 490.33,-252.12 548.05,-258.13"/>
<polygon fill="#63b8ff" stroke="#63b8ff" points="547.91,-261.64 558.21,-259.18 548.62,-254.67 547.91,-261.64"/>
</a>
</g>
</g>
<!-- Node16 -->
<g id="Node000016" class="node">
<title>Node16</title>
<g id="a_Node000016"><a xlink:href="namespacem__boundary__common.html#ac94c00d60da5c8365f14f1b035566c21" target="_top" xlink:title=" ">
<polygon fill="white" stroke="#666666" points="496.5,-222 365.5,-222 365.5,-192 496.5,-192 496.5,-222"/>
<text text-anchor="start" x="373.5" y="-210" font-family="Helvetica,sans-Serif" font-size="10.00">m_boundary_common::</text>
<text text-anchor="middle" x="431" y="-199" font-family="Helvetica,sans-Serif" font-size="10.00">s_no_slip_wall</text>
</a>
</g>
</g>
<!-- Node12&#45;&gt;Node16 -->
<g id="edge16_Node000012_Node000016" class="edge">
<title>Node12&#45;&gt;Node16</title>
<g id="a_edge16_Node000012_Node000016"><a xlink:title=" ">
<path fill="none" stroke="#63b8ff" d="M300.6,-207C318.1,-207 337.18,-207 355.19,-207"/>
<polygon fill="#63b8ff" stroke="#63b8ff" points="355.35,-210.5 365.35,-207 355.35,-203.5 355.35,-210.5"/>
</a>
</g>
</g>
<!-- Node17 -->
<g id="Node000017" class="node">
<title>Node17</title>
<g id="a_Node000017"><a xlink:href="namespacem__boundary__common.html#a4d160d849a7ea4ce6a8cac2c478e5b9c" target="_top" xlink:title=" ">
<polygon fill="white" stroke="#666666" points="496.5,-174 365.5,-174 365.5,-144 496.5,-144 496.5,-174"/>
<text text-anchor="start" x="373.5" y="-162" font-family="Helvetica,sans-Serif" font-size="10.00">m_boundary_common::</text>
<text text-anchor="middle" x="431" y="-151" font-family="Helvetica,sans-Serif" font-size="10.00">s_periodic</text>
</a>
</g>
</g>
<!-- Node12&#45;&gt;Node17 -->
<g id="edge17_Node000012_Node000017" class="edge">
<title>Node12&#45;&gt;Node17</title>
<g id="a_edge17_Node000012_Node000017"><a xlink:title=" ">
<path fill="none" stroke="#63b8ff" d="M300.6,-191.02C319.47,-186.35 340.18,-181.22 359.4,-176.47"/>
<polygon fill="#63b8ff" stroke="#63b8ff" points="360.43,-179.82 369.29,-174.02 358.74,-173.02 360.43,-179.82"/>
</a>
</g>
</g>
<!-- Node18 -->
<g id="Node000018" class="node">
<title>Node18</title>
<g id="a_Node000018"><a xlink:href="namespacem__boundary__common.html#ac55853dffb7e074e8f645ff0a63e7e38" target="_top" xlink:title=" ">
<polygon fill="white" stroke="#666666" points="496.5,-126 365.5,-126 365.5,-96 496.5,-96 496.5,-126"/>
<text text-anchor="start" x="373.5" y="-114" font-family="Helvetica,sans-Serif" font-size="10.00">m_boundary_common::</text>
<text text-anchor="middle" x="431" y="-103" font-family="Helvetica,sans-Serif" font-size="10.00">s_qbmm_extrapolation</text>
</a>
</g>
</g>
<!-- Node12&#45;&gt;Node18 -->
<g id="edge18_Node000012_Node000018" class="edge">
<title>Node12&#45;&gt;Node18</title>
<g id="a_edge18_Node000012_Node000018"><a xlink:title=" ">
<path fill="none" stroke="#63b8ff" d="M261.41,-186.43C282.25,-170.44 313.09,-148.74 343,-135 347.31,-133.02 351.82,-131.17 356.42,-129.45"/>
<polygon fill="#63b8ff" stroke="#63b8ff" points="357.68,-132.72 365.95,-126.1 355.36,-126.12 357.68,-132.72"/>
</a>
</g>
</g>
<!-- Node19 -->
<g id="Node000019" class="node">
<title>Node19</title>
<g id="a_Node000019"><a xlink:href="namespacem__boundary__common.html#aafa9626b0837c3fc44bec98866283f1d" target="_top" xlink:title=" ">
<polygon fill="white" stroke="#666666" points="496.5,-78 365.5,-78 365.5,-48 496.5,-48 496.5,-78"/>
<text text-anchor="start" x="373.5" y="-66" font-family="Helvetica,sans-Serif" font-size="10.00">m_boundary_common::</text>
<text text-anchor="middle" x="431" y="-55" font-family="Helvetica,sans-Serif" font-size="10.00">s_slip_wall</text>
</a>
</g>
</g>
<!-- Node12&#45;&gt;Node19 -->
<g id="edge19_Node000012_Node000019" class="edge">
<title>Node12&#45;&gt;Node19</title>
<g id="a_edge19_Node000012_Node000019"><a xlink:title=" ">
<path fill="none" stroke="#63b8ff" d="M248.9,-186.3C266.74,-159.39 301.51,-112.78 343,-87 347.11,-84.45 351.49,-82.16 356.02,-80.11"/>
<polygon fill="#63b8ff" stroke="#63b8ff" points="357.56,-83.27 365.49,-76.24 354.91,-76.79 357.56,-83.27"/>
</a>
</g>
</g>
<!-- Node20 -->
<g id="Node000020" class="node">
<title>Node20</title>
<g id="a_Node000020"><a xlink:href="namespacem__boundary__common.html#a117fa18d768baf2b0edd4e8887a923d5" target="_top" xlink:title=" ">
<polygon fill="white" stroke="#666666" points="496.5,-30 365.5,-30 365.5,0 496.5,0 496.5,-30"/>
<text text-anchor="start" x="373.5" y="-18" font-family="Helvetica,sans-Serif" font-size="10.00">m_boundary_common::</text>
<text text-anchor="middle" x="431" y="-7" font-family="Helvetica,sans-Serif" font-size="10.00">s_symmetry</text>
</a>
</g>
</g>
<!-- Node12&#45;&gt;Node20 -->
<g id="edge20_Node000012_Node000020" class="edge">
<title>Node12&#45;&gt;Node20</title>
<g id="a_edge20_Node000012_Node000020"><a xlink:title=" ">
<path fill="none" stroke="#63b8ff" d="M243.35,-186.48C257.17,-150.9 290.44,-77.84 343,-39 346.97,-36.07 351.27,-33.5 355.77,-31.24"/>
<polygon fill="#63b8ff" stroke="#63b8ff" points="357.52,-34.29 365.24,-27.03 354.68,-27.89 357.52,-34.29"/>
</a>
</g>
</g>
<!-- Node14&#45;&gt;Node15 -->
<g id="edge14_Node000014_Node000015" class="edge">
<title>Node14&#45;&gt;Node15</title>
<g id="a_edge14_Node000014_Node000015"><a xlink:title=" ">
<path fill="none" stroke="#63b8ff" d="M496.61,-284.23C513.12,-281.99 531.09,-279.56 548.37,-277.21"/>
<polygon fill="#63b8ff" stroke="#63b8ff" points="549,-280.66 558.44,-275.84 548.06,-273.72 549,-280.66"/>
</a>
</g>
</g>
</g>
</svg>

<g id="navigator" transform="translate(0 0)" fill="#404254">
  <rect fill="#f2f5e9" fill-opacity="0.5" stroke="#606060" stroke-width=".5" x="0" y="0" width="60" height="60"/>
  <use id="zoomplus" xlink:href="#zoomPlus" x="17" y="9" onmousedown="handleZoom(evt,'in')"/>
  <use id="zoomminus" xlink:href="#zoomMin" x="42" y="9" onmousedown="handleZoom(evt,'out')"/>
  <use id="reset" xlink:href="#resetDef" x="30" y="36" onmousedown="handleReset()"/>
   <use id="arrowup" xlink:href="#arrowUp" x="0" y="0" onmousedown="handlePan(0,-1)"/>
  <use id="arrowright" xlink:href="#arrowRight" x="0" y="0" onmousedown="handlePan(1,0)"/>
  <use id="arrowdown" xlink:href="#arrowDown" x="0" y="0" onmousedown="handlePan(0,1)"/>
  <use id="arrowleft" xlink:href="#arrowLeft" x="0" y="0" onmousedown="handlePan(-1,0)"/>
</g>
<svg viewBox="0 0 15 15" width="100%" height="30px" preserveAspectRatio="xMaxYMin meet">
 <g id="arrow_out" transform="scale(0.3 0.3)">
  <a xlink:href="namespacem__start__up_a8d9327774aa09798e954fe48fb02f0d5_cgraph_org.svg" target="_base">
   <rect id="button" ry="5" rx="5" y="6" x="6" height="38" width="38"
        fill="#f2f5e9" fill-opacity="0.5" stroke="#606060" stroke-width="1.0"/>
   <path id="arrow"
     d="M 11.500037,31.436501 C 11.940474,20.09759 22.043105,11.32322 32.158766,21.979434 L 37.068811,17.246167 C 37.068811,17.246167 37.088388,32 37.088388,32 L 22.160133,31.978069 C 22.160133,31.978069 26.997745,27.140456 26.997745,27.140456 C 18.528582,18.264221 13.291696,25.230495 11.500037,31.436501 z"
     style="fill:#404040;"/>
  </a>
 </g>
</svg>

<style type='text/css'>
<![CDATA[
[data-mouse-over-selected='false'] { opacity: 0.7; }
[data-mouse-over-selected='true']  { opacity: 1.0; }
]]>
</style>
<script type="application/ecmascript"><![CDATA[
document.addEventListener('DOMContentLoaded', (event) => {
  highlightEdges();
  highlightAdjacentNodes();
});
]]></script>
</svg>
