<?xml version="1.0" encoding="UTF-8" standalone="no"?>
<!DOCTYPE svg PUBLIC "-//W3C//DTD SVG 1.1//EN"
 "http://www.w3.org/Graphics/SVG/1.1/DTD/svg11.dtd">
<!-- Generated by graphviz version 2.43.0 (0)
 -->
<!-- Title: m_data_input::s_initialize_data_input_module Pages: 1 -->
<svg width="901pt" height="624pt"
 viewBox="0.00 0.00 901.00 624.00" xmlns="http://www.w3.org/2000/svg" xmlns:xlink="http://www.w3.org/1999/xlink">
<g id="graph0" class="graph" transform="scale(1 1) rotate(0) translate(4 620)">
<title>m_data_input::s_initialize_data_input_module</title>
<!-- Node1 -->
<g id="Node000001" class="node">
<title>Node1</title>
<g id="a_Node000001"><a xlink:title="Computation of parameters, allocation procedures, and/or any other tasks needed to properly setup the...">
<polygon fill="#999999" stroke="#666666" points="142,-422 0,-422 0,-392 142,-392 142,-422"/>
<text text-anchor="start" x="8" y="-410" font-family="Helvetica,sans-Serif" font-size="10.00">m_data_input::s_initialize</text>
<text text-anchor="middle" x="71" y="-399" font-family="Helvetica,sans-Serif" font-size="10.00">_data_input_module</text>
</a>
</g>
</g>
<!-- Node2 -->
<g id="Node000002" class="node">
<title>Node2</title>
<g id="a_Node000002"><a xlink:href="namespacem__data__input.html#a0720f62ee34c602705db6ab4f9b7641e" target="_top" xlink:title="Helper subroutine to allocate field arrays for given dimensionality.">
<polygon fill="white" stroke="#666666" points="317,-465 178,-465 178,-435 317,-435 317,-465"/>
<text text-anchor="start" x="186" y="-453" font-family="Helvetica,sans-Serif" font-size="10.00">m_data_input::s_allocate</text>
<text text-anchor="middle" x="247.5" y="-442" font-family="Helvetica,sans-Serif" font-size="10.00">_field_arrays</text>
</a>
</g>
</g>
<!-- Node1&#45;&gt;Node2 -->
<g id="edge1_Node000001_Node000002" class="edge">
<title>Node1&#45;&gt;Node2</title>
<g id="a_edge1_Node000001_Node000002"><a xlink:title=" ">
<path fill="none" stroke="#63b8ff" d="M133.03,-422.04C146.71,-425.41 161.34,-429.02 175.4,-432.48"/>
<polygon fill="#63b8ff" stroke="#63b8ff" points="174.96,-435.97 185.5,-434.97 176.63,-429.18 174.96,-435.97"/>
</a>
</g>
</g>
<!-- Node3 -->
<g id="Node000003" class="node">
<title>Node3</title>
<g id="a_Node000003"><a xlink:href="namespacem__data__input.html#a1e9dfd5c6be77bbfa34abb90c77216b4" target="_top" xlink:title="This subroutine is called at each time&#45;step that has to be post&#45;processed in order to parallel&#45;read t...">
<polygon fill="white" stroke="#666666" points="308.5,-331 186.5,-331 186.5,-301 308.5,-301 308.5,-331"/>
<text text-anchor="start" x="194.5" y="-319" font-family="Helvetica,sans-Serif" font-size="10.00">m_data_input::s_read</text>
<text text-anchor="middle" x="247.5" y="-308" font-family="Helvetica,sans-Serif" font-size="10.00">_parallel_data_files</text>
</a>
</g>
</g>
<!-- Node1&#45;&gt;Node3 -->
<g id="edge2_Node000001_Node000003" class="edge">
<title>Node1&#45;&gt;Node3</title>
<g id="a_edge2_Node000001_Node000003"><a xlink:title=" ">
<path fill="none" stroke="#63b8ff" d="M100.82,-391.97C130.24,-376.63 176.08,-352.72 208.47,-335.83"/>
<polygon fill="#63b8ff" stroke="#63b8ff" points="210.39,-338.78 217.64,-331.05 207.16,-332.57 210.39,-338.78"/>
</a>
</g>
</g>
<!-- Node15 -->
<g id="Node000015" class="node">
<title>Node15</title>
<g id="a_Node000015"><a xlink:href="namespacem__data__input.html#a94700a0b549ac60847be9f4f0ab94adf" target="_top" xlink:title="This subroutine is called at each time&#45;step that has to be post&#45;processed in order to read the raw da...">
<polygon fill="white" stroke="#666666" points="491,-470 369,-470 369,-440 491,-440 491,-470"/>
<text text-anchor="start" x="377" y="-458" font-family="Helvetica,sans-Serif" font-size="10.00">m_data_input::s_read</text>
<text text-anchor="middle" x="430" y="-447" font-family="Helvetica,sans-Serif" font-size="10.00">_serial_data_files</text>
</a>
</g>
</g>
<!-- Node1&#45;&gt;Node15 -->
<g id="edge17_Node000001_Node000015" class="edge">
<title>Node1&#45;&gt;Node15</title>
<g id="a_edge17_Node000001_Node000015"><a xlink:title=" ">
<path fill="none" stroke="#63b8ff" d="M142.1,-409.16C191.31,-411.47 258.51,-416.24 317,-426 333.9,-428.82 351.97,-432.98 368.56,-437.28"/>
<polygon fill="#63b8ff" stroke="#63b8ff" points="368.11,-440.78 378.67,-439.96 369.9,-434.01 368.11,-440.78"/>
</a>
</g>
</g>
<!-- Node4 -->
<g id="Node000004" class="node">
<title>Node4</title>
<g id="a_Node000004"><a xlink:href="namespacem__boundary__common.html#af8621fd7814593e9a18ba4d1461723d0" target="_top" xlink:title=" ">
<polygon fill="white" stroke="#666666" points="692.5,-422 550.5,-422 550.5,-392 692.5,-392 692.5,-422"/>
<text text-anchor="start" x="558.5" y="-410" font-family="Helvetica,sans-Serif" font-size="10.00">m_boundary_common::</text>
<text text-anchor="middle" x="621.5" y="-399" font-family="Helvetica,sans-Serif" font-size="10.00">s_assign_default_bc_type</text>
</a>
</g>
</g>
<!-- Node3&#45;&gt;Node4 -->
<g id="edge3_Node000003_Node000004" class="edge">
<title>Node3&#45;&gt;Node4</title>
<g id="a_edge3_Node000003_Node000004"><a xlink:title=" ">
<path fill="none" stroke="#63b8ff" d="M308.68,-330.72C374.34,-346.78 479.37,-372.48 549.14,-389.54"/>
<polygon fill="#63b8ff" stroke="#63b8ff" points="548.62,-393.02 559.17,-392 550.29,-386.22 548.62,-393.02"/>
</a>
</g>
</g>
<!-- Node5 -->
<g id="Node000005" class="node">
<title>Node5</title>
<g id="a_Node000005"><a xlink:href="namespacem__mpi__common.html#a04cfc0bdb377a0ce2f9fd478e4bb3807" target="_top" xlink:title="The subroutine terminates the MPI execution environment.">
<polygon fill="white" stroke="#666666" points="881.5,-374 747.5,-374 747.5,-344 881.5,-344 881.5,-374"/>
<text text-anchor="start" x="755.5" y="-362" font-family="Helvetica,sans-Serif" font-size="10.00">m_mpi_common::s_mpi</text>
<text text-anchor="middle" x="814.5" y="-351" font-family="Helvetica,sans-Serif" font-size="10.00">_abort</text>
</a>
</g>
</g>
<!-- Node3&#45;&gt;Node5 -->
<g id="edge4_Node000003_Node000005" class="edge">
<title>Node3&#45;&gt;Node5</title>
<g id="a_edge4_Node000003_Node000005"><a xlink:title=" ">
<path fill="none" stroke="#63b8ff" d="M308.65,-315.36C395.44,-315.16 560.67,-317.46 700,-335 713.59,-336.71 727.96,-339.21 741.75,-341.95"/>
<polygon fill="#63b8ff" stroke="#63b8ff" points="741.17,-345.4 751.67,-343.98 742.58,-338.54 741.17,-345.4"/>
</a>
</g>
</g>
<!-- Node6 -->
<g id="Node000006" class="node">
<title>Node6</title>
<g id="a_Node000006"><a xlink:href="namespacem__boundary__common.html#a81909d1af9c5476df6c091b1e714ca99" target="_top" xlink:title=" ">
<polygon fill="white" stroke="#666666" points="501,-97.5 359,-97.5 359,-56.5 501,-56.5 501,-97.5"/>
<text text-anchor="start" x="367" y="-85.5" font-family="Helvetica,sans-Serif" font-size="10.00">m_boundary_common::</text>
<text text-anchor="start" x="367" y="-74.5" font-family="Helvetica,sans-Serif" font-size="10.00">s_read_parallel_boundary</text>
<text text-anchor="middle" x="430" y="-63.5" font-family="Helvetica,sans-Serif" font-size="10.00">_condition_files</text>
</a>
</g>
</g>
<!-- Node3&#45;&gt;Node6 -->
<g id="edge5_Node000003_Node000006" class="edge">
<title>Node3&#45;&gt;Node6</title>
<g id="a_edge5_Node000003_Node000006"><a xlink:title=" ">
<path fill="none" stroke="#63b8ff" d="M260.07,-300.69C289.7,-261.45 368.7,-156.84 407.24,-105.81"/>
<polygon fill="#63b8ff" stroke="#63b8ff" points="410.06,-107.89 413.29,-97.8 404.47,-103.67 410.06,-107.89"/>
</a>
</g>
</g>
<!-- Node8 -->
<g id="Node000008" class="node">
<title>Node8</title>
<g id="a_Node000008"><a xlink:href="namespacem__data__input.html#a5139fe69b24a1dc0e32b632e9bf5d0ee" target="_top" xlink:title="Helper subroutine to read parallel conservative variable data.">
<polygon fill="white" stroke="#666666" points="507,-229 353,-229 353,-199 507,-199 507,-229"/>
<text text-anchor="start" x="361" y="-217" font-family="Helvetica,sans-Serif" font-size="10.00">m_data_input::s_read</text>
<text text-anchor="middle" x="430" y="-206" font-family="Helvetica,sans-Serif" font-size="10.00">_parallel_conservative_data</text>
</a>
</g>
</g>
<!-- Node3&#45;&gt;Node8 -->
<g id="edge7_Node000003_Node000008" class="edge">
<title>Node3&#45;&gt;Node8</title>
<g id="a_edge7_Node000003_Node000008"><a xlink:title=" ">
<path fill="none" stroke="#63b8ff" d="M275.13,-300.95C306.46,-283.25 358.59,-253.79 393.38,-234.13"/>
<polygon fill="#63b8ff" stroke="#63b8ff" points="395.27,-237.08 402.26,-229.11 391.83,-230.98 395.27,-237.08"/>
</a>
</g>
</g>
<!-- Node7 -->
<g id="Node000007" class="node">
<title>Node7</title>
<g id="a_Node000007"><a xlink:href="namespacem__boundary__common.html#ab5d422a797dcdf7a95587c937dbdf74c" target="_top" xlink:title=" ">
<polygon fill="white" stroke="#666666" points="687,-30 556,-30 556,0 687,0 687,-30"/>
<text text-anchor="start" x="564" y="-18" font-family="Helvetica,sans-Serif" font-size="10.00">m_boundary_common::</text>
<text text-anchor="middle" x="621.5" y="-7" font-family="Helvetica,sans-Serif" font-size="10.00">s_create_mpi_types</text>
</a>
</g>
</g>
<!-- Node6&#45;&gt;Node7 -->
<g id="edge6_Node000006_Node000007" class="edge">
<title>Node6&#45;&gt;Node7</title>
<g id="a_edge6_Node000006_Node000007"><a xlink:title=" ">
<path fill="none" stroke="#63b8ff" d="M493.84,-56.44C516.83,-48.92 542.66,-40.47 564.97,-33.17"/>
<polygon fill="#63b8ff" stroke="#63b8ff" points="566.21,-36.45 574.62,-30.01 564.03,-29.79 566.21,-36.45"/>
</a>
</g>
</g>
<!-- Node8&#45;&gt;Node5 -->
<g id="edge11_Node000008_Node000005" class="edge">
<title>Node8&#45;&gt;Node5</title>
<g id="a_edge11_Node000008_Node000005"><a xlink:title=" ">
<path fill="none" stroke="#63b8ff" d="M465.43,-229.02C487.39,-238.31 516.59,-250.11 543,-259 611.57,-282.08 632.45,-276.08 700,-302 727.02,-312.37 756.17,-327.09 778.16,-338.97"/>
<polygon fill="#63b8ff" stroke="#63b8ff" points="776.67,-342.14 787.12,-343.87 780.02,-336 776.67,-342.14"/>
</a>
</g>
</g>
<!-- Node9 -->
<g id="Node000009" class="node">
<title>Node9</title>
<g id="a_Node000009"><a xlink:href="namespacem__mpi__common.html#a2b579eba6293e56232ba5129614b5a18" target="_top" xlink:title=" ">
<polygon fill="white" stroke="#666666" points="893,-95 736,-95 736,-65 893,-65 893,-95"/>
<text text-anchor="start" x="744" y="-83" font-family="Helvetica,sans-Serif" font-size="10.00">m_mpi_common::s_initialize</text>
<text text-anchor="middle" x="814.5" y="-72" font-family="Helvetica,sans-Serif" font-size="10.00">_mpi_data</text>
</a>
</g>
</g>
<!-- Node8&#45;&gt;Node9 -->
<g id="edge8_Node000008_Node000009" class="edge">
<title>Node8&#45;&gt;Node9</title>
<g id="a_edge8_Node000008_Node000009"><a xlink:title=" ">
<path fill="none" stroke="#63b8ff" d="M440.91,-198.84C462.76,-166 515.31,-90.13 543,-77 606.15,-47.06 687.29,-52.94 744.16,-63.12"/>
<polygon fill="#63b8ff" stroke="#63b8ff" points="743.66,-66.58 754.13,-64.99 744.95,-59.7 743.66,-66.58"/>
</a>
</g>
</g>
<!-- Node10 -->
<g id="Node000010" class="node">
<title>Node10</title>
<g id="a_Node000010"><a xlink:href="namespacem__mpi__common.html#a564644bad898d940dc6caea3297bb424" target="_top" xlink:title=" ">
<polygon fill="white" stroke="#666666" points="700,-250 543,-250 543,-220 700,-220 700,-250"/>
<text text-anchor="start" x="551" y="-238" font-family="Helvetica,sans-Serif" font-size="10.00">m_mpi_common::s_initialize</text>
<text text-anchor="middle" x="621.5" y="-227" font-family="Helvetica,sans-Serif" font-size="10.00">_mpi_data_ds</text>
</a>
</g>
</g>
<!-- Node8&#45;&gt;Node10 -->
<g id="edge9_Node000008_Node000010" class="edge">
<title>Node8&#45;&gt;Node10</title>
<g id="a_edge9_Node000008_Node000010"><a xlink:title=" ">
<path fill="none" stroke="#63b8ff" d="M507.26,-222.45C515.68,-223.38 524.31,-224.34 532.87,-225.29"/>
<polygon fill="#63b8ff" stroke="#63b8ff" points="532.53,-228.77 542.85,-226.4 533.3,-221.82 532.53,-228.77"/>
</a>
</g>
</g>
<!-- Node11 -->
<g id="Node000011" class="node">
<title>Node11</title>
<g id="a_Node000011"><a xlink:href="namespacem__helper.html#a6b74248bdd19bc6b0b43f757a3212275" target="_top" xlink:title=" ">
<polygon fill="white" stroke="#666666" points="684,-201.5 559,-201.5 559,-182.5 684,-182.5 684,-201.5"/>
<text text-anchor="middle" x="621.5" y="-189.5" font-family="Helvetica,sans-Serif" font-size="10.00">m_helper::s_int_to_str</text>
</a>
</g>
</g>
<!-- Node8&#45;&gt;Node11 -->
<g id="edge10_Node000008_Node000011" class="edge">
<title>Node8&#45;&gt;Node11</title>
<g id="a_edge10_Node000008_Node000011"><a xlink:title=" ">
<path fill="none" stroke="#63b8ff" d="M507.26,-205.15C520.94,-203.56 535.17,-201.91 548.72,-200.33"/>
<polygon fill="#63b8ff" stroke="#63b8ff" points="549.41,-203.78 558.94,-199.15 548.6,-196.82 549.41,-203.78"/>
</a>
</g>
</g>
<!-- Node12 -->
<g id="Node000012" class="node">
<title>Node12</title>
<g id="a_Node000012"><a xlink:href="namespacem__mpi__common.html#a1073fc1fcb6f3b9394606d5c9285e9f0" target="_top" xlink:title="Halts all processes until all have reached barrier.">
<polygon fill="white" stroke="#666666" points="688.5,-164 554.5,-164 554.5,-134 688.5,-134 688.5,-164"/>
<text text-anchor="start" x="562.5" y="-152" font-family="Helvetica,sans-Serif" font-size="10.00">m_mpi_common::s_mpi</text>
<text text-anchor="middle" x="621.5" y="-141" font-family="Helvetica,sans-Serif" font-size="10.00">_barrier</text>
</a>
</g>
</g>
<!-- Node8&#45;&gt;Node12 -->
<g id="edge12_Node000008_Node000012" class="edge">
<title>Node8&#45;&gt;Node12</title>
<g id="a_edge12_Node000008_Node000012"><a xlink:title=" ">
<path fill="none" stroke="#63b8ff" d="M472.12,-198.97C493.25,-191.34 519.44,-182 543,-174 549.48,-171.8 556.27,-169.54 563.03,-167.32"/>
<polygon fill="#63b8ff" stroke="#63b8ff" points="564.46,-170.53 572.88,-164.1 562.29,-163.88 564.46,-170.53"/>
</a>
</g>
</g>
<!-- Node13 -->
<g id="Node000013" class="node">
<title>Node13</title>
<g id="a_Node000013"><a xlink:href="namespacem__data__input.html#ab706af65baa287cc6e78ab873a4e67e9" target="_top" xlink:title="Helper subroutine to read IB data files.">
<polygon fill="white" stroke="#666666" points="682.5,-374 560.5,-374 560.5,-344 682.5,-344 682.5,-374"/>
<text text-anchor="start" x="568.5" y="-362" font-family="Helvetica,sans-Serif" font-size="10.00">m_data_input::s_read</text>
<text text-anchor="middle" x="621.5" y="-351" font-family="Helvetica,sans-Serif" font-size="10.00">_ib_data_files</text>
</a>
</g>
</g>
<!-- Node8&#45;&gt;Node13 -->
<g id="edge13_Node000008_Node000013" class="edge">
<title>Node8&#45;&gt;Node13</title>
<g id="a_edge13_Node000008_Node000013"><a xlink:title=" ">
<path fill="none" stroke="#63b8ff" d="M450.92,-229.24C484.85,-255.2 553.91,-308.05 592.61,-337.66"/>
<polygon fill="#63b8ff" stroke="#63b8ff" points="590.78,-340.66 600.85,-343.96 595.03,-335.1 590.78,-340.66"/>
</a>
</g>
</g>
<!-- Node14 -->
<g id="Node000014" class="node">
<title>Node14</title>
<g id="a_Node000014"><a xlink:href="namespacem__data__input.html#a6e65911baddf566b7a796fadcea57495" target="_top" xlink:title="Helper subroutine to setup MPI data I/O parameters.">
<polygon fill="white" stroke="#666666" points="685,-116 558,-116 558,-86 685,-86 685,-116"/>
<text text-anchor="start" x="566" y="-104" font-family="Helvetica,sans-Serif" font-size="10.00">m_data_input::s_setup</text>
<text text-anchor="middle" x="621.5" y="-93" font-family="Helvetica,sans-Serif" font-size="10.00">_mpi_io_params</text>
</a>
</g>
</g>
<!-- Node8&#45;&gt;Node14 -->
<g id="edge15_Node000008_Node000014" class="edge">
<title>Node8&#45;&gt;Node14</title>
<g id="a_edge15_Node000008_Node000014"><a xlink:title=" ">
<path fill="none" stroke="#63b8ff" d="M446.35,-198.67C466.78,-179.04 504.79,-145.18 543,-125 546.47,-123.17 550.11,-121.45 553.83,-119.84"/>
<polygon fill="#63b8ff" stroke="#63b8ff" points="555.25,-123.04 563.22,-116.07 552.64,-116.55 555.25,-123.04"/>
</a>
</g>
</g>
<!-- Node13&#45;&gt;Node5 -->
<g id="edge14_Node000013_Node000005" class="edge">
<title>Node13&#45;&gt;Node5</title>
<g id="a_edge14_Node000013_Node000005"><a xlink:title=" ">
<path fill="none" stroke="#63b8ff" d="M682.67,-359C699.94,-359 718.99,-359 737.1,-359"/>
<polygon fill="#63b8ff" stroke="#63b8ff" points="737.33,-362.5 747.33,-359 737.33,-355.5 737.33,-362.5"/>
</a>
</g>
</g>
<!-- Node14&#45;&gt;Node9 -->
<g id="edge16_Node000014_Node000009" class="edge">
<title>Node14&#45;&gt;Node9</title>
<g id="a_edge16_Node000014_Node000009"><a xlink:title=" ">
<path fill="none" stroke="#63b8ff" d="M685.04,-94.12C698.09,-92.69 712.06,-91.15 725.83,-89.64"/>
<polygon fill="#63b8ff" stroke="#63b8ff" points="726.23,-93.12 735.79,-88.54 725.47,-86.16 726.23,-93.12"/>
</a>
</g>
</g>
<!-- Node15&#45;&gt;Node4 -->
<g id="edge19_Node000015_Node000004" class="edge">
<title>Node15&#45;&gt;Node4</title>
<g id="a_edge19_Node000015_Node000004"><a xlink:title=" ">
<path fill="none" stroke="#63b8ff" d="M490.44,-439.94C509.75,-435.05 531.35,-429.58 551.31,-424.52"/>
<polygon fill="#63b8ff" stroke="#63b8ff" points="552.44,-427.85 561.27,-422 550.72,-421.07 552.44,-427.85"/>
</a>
</g>
</g>
<!-- Node15&#45;&gt;Node5 -->
<g id="edge20_Node000015_Node000005" class="edge">
<title>Node15&#45;&gt;Node5</title>
<g id="a_edge20_Node000015_Node000005"><a xlink:title=" ">
<path fill="none" stroke="#63b8ff" d="M444.75,-470.17C464.27,-490.45 502.19,-525.4 543,-539 609.2,-561.07 638.9,-572.7 700,-539 760.56,-505.59 793.24,-424.79 806.44,-383.77"/>
<polygon fill="#63b8ff" stroke="#63b8ff" points="809.84,-384.61 809.44,-374.02 803.15,-382.55 809.84,-384.61"/>
</a>
</g>
</g>
<!-- Node15&#45;&gt;Node13 -->
<g id="edge23_Node000015_Node000013" class="edge">
<title>Node15&#45;&gt;Node13</title>
<g id="a_edge23_Node000015_Node000013"><a xlink:title=" ">
<path fill="none" stroke="#63b8ff" d="M450.68,-439.99C472.33,-424.05 508.63,-399 543,-383 547.06,-381.11 551.31,-379.32 555.63,-377.63"/>
<polygon fill="#63b8ff" stroke="#63b8ff" points="557.01,-380.85 565.18,-374.1 554.59,-374.28 557.01,-380.85"/>
</a>
</g>
</g>
<!-- Node16 -->
<g id="Node000016" class="node">
<title>Node16</title>
<g id="a_Node000016"><a xlink:href="namespacem__compile__specific.html#a9cf8c029e502931415929734c03f340d" target="_top" xlink:title="Inquires on the existence of a directory.">
<polygon fill="white" stroke="#666666" points="678,-616 565,-616 565,-586 678,-586 678,-616"/>
<text text-anchor="start" x="573" y="-604" font-family="Helvetica,sans-Serif" font-size="10.00">m_compile_specific</text>
<text text-anchor="middle" x="621.5" y="-593" font-family="Helvetica,sans-Serif" font-size="10.00">::my_inquire</text>
</a>
</g>
</g>
<!-- Node15&#45;&gt;Node16 -->
<g id="edge18_Node000015_Node000016" class="edge">
<title>Node15&#45;&gt;Node16</title>
<g id="a_edge18_Node000015_Node000016"><a xlink:title=" ">
<path fill="none" stroke="#63b8ff" d="M441.75,-470C459.99,-494.5 499.33,-543.22 543,-572 548.56,-575.66 554.65,-578.95 560.89,-581.88"/>
<polygon fill="#63b8ff" stroke="#63b8ff" points="559.54,-585.11 570.1,-585.92 562.35,-578.7 559.54,-585.11"/>
</a>
</g>
</g>
<!-- Node17 -->
<g id="Node000017" class="node">
<title>Node17</title>
<g id="a_Node000017"><a xlink:href="namespacem__data__input.html#a888fdc1ceb8dcce14220719df6a6f23f" target="_top" xlink:title="Helper subroutine to read grid data files for a given direction.">
<polygon fill="white" stroke="#666666" points="682.5,-470 560.5,-470 560.5,-440 682.5,-440 682.5,-470"/>
<text text-anchor="start" x="568.5" y="-458" font-family="Helvetica,sans-Serif" font-size="10.00">m_data_input::s_read</text>
<text text-anchor="middle" x="621.5" y="-447" font-family="Helvetica,sans-Serif" font-size="10.00">_grid_data_direction</text>
</a>
</g>
</g>
<!-- Node15&#45;&gt;Node17 -->
<g id="edge21_Node000015_Node000017" class="edge">
<title>Node15&#45;&gt;Node17</title>
<g id="a_edge21_Node000015_Node000017"><a xlink:title=" ">
<path fill="none" stroke="#63b8ff" d="M491.22,-455C510.05,-455 530.98,-455 550.42,-455"/>
<polygon fill="#63b8ff" stroke="#63b8ff" points="550.44,-458.5 560.44,-455 550.44,-451.5 550.44,-458.5"/>
</a>
</g>
</g>
<!-- Node18 -->
<g id="Node000018" class="node">
<title>Node18</title>
<g id="a_Node000018"><a xlink:href="namespacem__boundary__common.html#adfa0ae0acfddcffc6762f126d83ae3d0" target="_top" xlink:title=" ">
<polygon fill="white" stroke="#666666" points="687.5,-529.5 555.5,-529.5 555.5,-488.5 687.5,-488.5 687.5,-529.5"/>
<text text-anchor="start" x="563.5" y="-517.5" font-family="Helvetica,sans-Serif" font-size="10.00">m_boundary_common::</text>
<text text-anchor="start" x="563.5" y="-506.5" font-family="Helvetica,sans-Serif" font-size="10.00">s_read_serial_boundary</text>
<text text-anchor="middle" x="621.5" y="-495.5" font-family="Helvetica,sans-Serif" font-size="10.00">_condition_files</text>
</a>
</g>
</g>
<!-- Node15&#45;&gt;Node18 -->
<g id="edge24_Node000015_Node000018" class="edge">
<title>Node15&#45;&gt;Node18</title>
<g id="a_edge24_Node000015_Node000018"><a xlink:title=" ">
<path fill="none" stroke="#63b8ff" d="M483.79,-470.04C502.88,-475.48 524.83,-481.74 545.47,-487.62"/>
<polygon fill="#63b8ff" stroke="#63b8ff" points="544.59,-491.01 555.16,-490.38 546.51,-484.28 544.59,-491.01"/>
</a>
</g>
</g>
<!-- Node17&#45;&gt;Node5 -->
<g id="edge22_Node000017_Node000005" class="edge">
<title>Node17&#45;&gt;Node5</title>
<g id="a_edge22_Node000017_Node000005"><a xlink:title=" ">
<path fill="none" stroke="#63b8ff" d="M677.8,-439.86C685.38,-437.21 692.97,-434.25 700,-431 730.48,-416.92 762.56,-395.92 784.8,-380.23"/>
<polygon fill="#63b8ff" stroke="#63b8ff" points="787.02,-382.95 793.12,-374.29 782.95,-377.25 787.02,-382.95"/>
</a>
</g>
</g>
</g>
</svg>
