<?xml version="1.0" encoding="UTF-8" standalone="no"?>
<!DOCTYPE svg PUBLIC "-//W3C//DTD SVG 1.1//EN"
 "http://www.w3.org/Graphics/SVG/1.1/DTD/svg11.dtd">
<!-- Generated by graphviz version 2.43.0 (0)
 -->
<!-- Title: m_compile_specific::s_create_directory Pages: 1 -->
<svg width="569pt" height="76pt"
 viewBox="0.00 0.00 569.00 75.50" xmlns="http://www.w3.org/2000/svg" xmlns:xlink="http://www.w3.org/1999/xlink">
<g id="graph0" class="graph" transform="scale(1 1) rotate(0) translate(4 71.5)">
<title>m_compile_specific::s_create_directory</title>
<!-- Node1 -->
<g id="Node000001" class="node">
<title>Node1</title>
<g id="a_Node000001"><a xlink:title="Creates a directory and all its parents if it does not exist.">
<polygon fill="#999999" stroke="#666666" points="561,-45.5 448,-45.5 448,-15.5 561,-15.5 561,-45.5"/>
<text text-anchor="start" x="456" y="-33.5" font-family="Helvetica,sans-Serif" font-size="10.00">m_compile_specific</text>
<text text-anchor="middle" x="504.5" y="-22.5" font-family="Helvetica,sans-Serif" font-size="10.00">::s_create_directory</text>
</a>
</g>
</g>
<!-- Node2 -->
<g id="Node000002" class="node">
<title>Node2</title>
<g id="a_Node000002"><a xlink:href="namespacem__data__output.html#a62496dfe58afb9e18a8a1a58b64e155b" target="_top" xlink:title=" ">
<polygon fill="white" stroke="#666666" points="412,-67.5 263,-67.5 263,-37.5 412,-37.5 412,-67.5"/>
<text text-anchor="start" x="271" y="-55.5" font-family="Helvetica,sans-Serif" font-size="10.00">m_data_output::s_initialize</text>
<text text-anchor="middle" x="337.5" y="-44.5" font-family="Helvetica,sans-Serif" font-size="10.00">_data_output_module</text>
</a>
</g>
</g>
<!-- Node1&#45;&gt;Node2 -->
<g id="edge1_Node000001_Node000002" class="edge">
<title>Node1&#45;&gt;Node2</title>
<g id="a_edge1_Node000001_Node000002"><a xlink:title=" ">
<path fill="none" stroke="#63b8ff" d="M437.58,-39.29C429.22,-40.4 420.62,-41.55 412.15,-42.68"/>
<polygon fill="#63b8ff" stroke="#63b8ff" points="438.19,-42.74 447.64,-37.95 437.26,-35.8 438.19,-42.74"/>
</a>
</g>
</g>
<!-- Node5 -->
<g id="Node000005" class="node">
<title>Node5</title>
<g id="a_Node000005"><a xlink:href="namespacem__start__up.html#a029c0f28f15ce3aab7ada6d95db89688" target="_top" xlink:title=" ">
<polygon fill="white" stroke="#666666" points="227,-19 89,-19 89,0 227,0 227,-19"/>
<text text-anchor="middle" x="158" y="-7" font-family="Helvetica,sans-Serif" font-size="10.00">m_start_up::s_save_data</text>
</a>
</g>
</g>
<!-- Node1&#45;&gt;Node5 -->
<g id="edge4_Node000001_Node000005" class="edge">
<title>Node1&#45;&gt;Node5</title>
<g id="a_edge4_Node000001_Node000005"><a xlink:title=" ">
<path fill="none" stroke="#63b8ff" d="M437.59,-26.48C377.2,-22.8 288.16,-17.37 227.1,-13.65"/>
<polygon fill="#63b8ff" stroke="#63b8ff" points="437.57,-29.99 447.77,-27.1 438,-23 437.57,-29.99"/>
</a>
</g>
</g>
<!-- Node3 -->
<g id="Node000003" class="node">
<title>Node3</title>
<g id="a_Node000003"><a xlink:href="namespacem__start__up.html#aea20fb8945d467b344a487cfe8213d99" target="_top" xlink:title=" ">
<polygon fill="white" stroke="#666666" points="223,-67.5 93,-67.5 93,-37.5 223,-37.5 223,-67.5"/>
<text text-anchor="start" x="101" y="-55.5" font-family="Helvetica,sans-Serif" font-size="10.00">m_start_up::s_initialize</text>
<text text-anchor="middle" x="158" y="-44.5" font-family="Helvetica,sans-Serif" font-size="10.00">_modules</text>
</a>
</g>
</g>
<!-- Node2&#45;&gt;Node3 -->
<g id="edge2_Node000002_Node000003" class="edge">
<title>Node2&#45;&gt;Node3</title>
<g id="a_edge2_Node000002_Node000003"><a xlink:title=" ">
<path fill="none" stroke="#63b8ff" d="M252.53,-52.5C242.66,-52.5 232.71,-52.5 223.17,-52.5"/>
<polygon fill="#63b8ff" stroke="#63b8ff" points="252.77,-56 262.77,-52.5 252.77,-49 252.77,-56"/>
</a>
</g>
</g>
<!-- Node4 -->
<g id="Node000004" class="node">
<title>Node4</title>
<g id="a_Node000004"><a xlink:href="p__main_8fpp_8f90.html#aeec10ee8e2940c953967da3e374e1579" target="_top" xlink:title="The post&#45;process restructures raw unformatted data, outputted by the simulation, into a formatted dat...">
<polygon fill="white" stroke="#666666" points="53,-40 0,-40 0,-21 53,-21 53,-40"/>
<text text-anchor="middle" x="26.5" y="-28" font-family="Helvetica,sans-Serif" font-size="10.00">p_main</text>
</a>
</g>
</g>
<!-- Node3&#45;&gt;Node4 -->
<g id="edge3_Node000003_Node000004" class="edge">
<title>Node3&#45;&gt;Node4</title>
<g id="a_edge3_Node000003_Node000004"><a xlink:title=" ">
<path fill="none" stroke="#63b8ff" d="M82.52,-39.85C72.04,-38.07 61.91,-36.35 53.26,-34.88"/>
<polygon fill="#63b8ff" stroke="#63b8ff" points="82.18,-43.34 92.63,-41.56 83.36,-36.44 82.18,-43.34"/>
</a>
</g>
</g>
<!-- Node5&#45;&gt;Node4 -->
<g id="edge5_Node000005_Node000004" class="edge">
<title>Node5&#45;&gt;Node4</title>
<g id="a_edge5_Node000005_Node000004"><a xlink:title=" ">
<path fill="none" stroke="#63b8ff" d="M88.29,-20.64C75.8,-22.67 63.51,-24.66 53.28,-26.32"/>
<polygon fill="#63b8ff" stroke="#63b8ff" points="89,-24.07 98.31,-19.02 87.88,-17.16 89,-24.07"/>
</a>
</g>
</g>
</g>
</svg>
