<?xml version="1.0" encoding="UTF-8" standalone="no"?>
<!DOCTYPE svg PUBLIC "-//W3C//DTD SVG 1.1//EN"
 "http://www.w3.org/Graphics/SVG/1.1/DTD/svg11.dtd">
<!-- Generated by graphviz version 2.43.0 (0)
 -->
<!-- Title: m_data_input::s_read_parallel_data_files Pages: 1 -->
<svg width="706pt" height="430pt"
 viewBox="0.00 0.00 706.00 430.00" xmlns="http://www.w3.org/2000/svg" xmlns:xlink="http://www.w3.org/1999/xlink">
<g id="graph0" class="graph" transform="scale(1 1) rotate(0) translate(4 426)">
<title>m_data_input::s_read_parallel_data_files</title>
<!-- Node1 -->
<g id="Node000001" class="node">
<title>Node1</title>
<g id="a_Node000001"><a xlink:title="This subroutine is called at each time&#45;step that has to be post&#45;processed in order to parallel&#45;read t...">
<polygon fill="#999999" stroke="#666666" points="122,-354 0,-354 0,-324 122,-324 122,-354"/>
<text text-anchor="start" x="8" y="-342" font-family="Helvetica,sans-Serif" font-size="10.00">m_data_input::s_read</text>
<text text-anchor="middle" x="61" y="-331" font-family="Helvetica,sans-Serif" font-size="10.00">_parallel_data_files</text>
</a>
</g>
</g>
<!-- Node2 -->
<g id="Node000002" class="node">
<title>Node2</title>
<g id="a_Node000002"><a xlink:href="namespacem__boundary__common.html#af8621fd7814593e9a18ba4d1461723d0" target="_top" xlink:title=" ">
<polygon fill="white" stroke="#666666" points="306,-422 164,-422 164,-392 306,-392 306,-422"/>
<text text-anchor="start" x="172" y="-410" font-family="Helvetica,sans-Serif" font-size="10.00">m_boundary_common::</text>
<text text-anchor="middle" x="235" y="-399" font-family="Helvetica,sans-Serif" font-size="10.00">s_assign_default_bc_type</text>
</a>
</g>
</g>
<!-- Node1&#45;&gt;Node2 -->
<g id="edge1_Node000001_Node000002" class="edge">
<title>Node1&#45;&gt;Node2</title>
<g id="a_edge1_Node000001_Node000002"><a xlink:title=" ">
<path fill="none" stroke="#63b8ff" d="M98.85,-354.19C116.68,-361.48 138.42,-370.29 158,-378 166.59,-381.38 175.74,-384.93 184.62,-388.33"/>
<polygon fill="#63b8ff" stroke="#63b8ff" points="183.51,-391.66 194.1,-391.96 186.01,-385.12 183.51,-391.66"/>
</a>
</g>
</g>
<!-- Node3 -->
<g id="Node000003" class="node">
<title>Node3</title>
<g id="a_Node000003"><a xlink:href="namespacem__mpi__common.html#a04cfc0bdb377a0ce2f9fd478e4bb3807" target="_top" xlink:title="The subroutine terminates the MPI execution environment.">
<polygon fill="white" stroke="#666666" points="686.5,-288 552.5,-288 552.5,-258 686.5,-258 686.5,-288"/>
<text text-anchor="start" x="560.5" y="-276" font-family="Helvetica,sans-Serif" font-size="10.00">m_mpi_common::s_mpi</text>
<text text-anchor="middle" x="619.5" y="-265" font-family="Helvetica,sans-Serif" font-size="10.00">_abort</text>
</a>
</g>
</g>
<!-- Node1&#45;&gt;Node3 -->
<g id="edge2_Node000001_Node000003" class="edge">
<title>Node1&#45;&gt;Node3</title>
<g id="a_edge2_Node000001_Node000003"><a xlink:title=" ">
<path fill="none" stroke="#63b8ff" d="M122.24,-350.72C208.88,-365.17 372.78,-383.4 505,-345 538.78,-335.19 572.13,-311.97 593.85,-294.53"/>
<polygon fill="#63b8ff" stroke="#63b8ff" points="596.08,-297.23 601.58,-288.17 591.63,-291.82 596.08,-297.23"/>
</a>
</g>
</g>
<!-- Node4 -->
<g id="Node000004" class="node">
<title>Node4</title>
<g id="a_Node000004"><a xlink:href="namespacem__boundary__common.html#a81909d1af9c5476df6c091b1e714ca99" target="_top" xlink:title=" ">
<polygon fill="white" stroke="#666666" points="306,-335.5 164,-335.5 164,-294.5 306,-294.5 306,-335.5"/>
<text text-anchor="start" x="172" y="-323.5" font-family="Helvetica,sans-Serif" font-size="10.00">m_boundary_common::</text>
<text text-anchor="start" x="172" y="-312.5" font-family="Helvetica,sans-Serif" font-size="10.00">s_read_parallel_boundary</text>
<text text-anchor="middle" x="235" y="-301.5" font-family="Helvetica,sans-Serif" font-size="10.00">_condition_files</text>
</a>
</g>
</g>
<!-- Node1&#45;&gt;Node4 -->
<g id="edge3_Node000001_Node000004" class="edge">
<title>Node1&#45;&gt;Node4</title>
<g id="a_edge3_Node000001_Node000004"><a xlink:title=" ">
<path fill="none" stroke="#63b8ff" d="M122.16,-330.61C132.36,-329.18 143.1,-327.68 153.72,-326.2"/>
<polygon fill="#63b8ff" stroke="#63b8ff" points="154.43,-329.64 163.85,-324.79 153.46,-322.7 154.43,-329.64"/>
</a>
</g>
</g>
<!-- Node6 -->
<g id="Node000006" class="node">
<title>Node6</title>
<g id="a_Node000006"><a xlink:href="namespacem__data__input.html#a5139fe69b24a1dc0e32b632e9bf5d0ee" target="_top" xlink:title="Helper subroutine to read parallel conservative variable data.">
<polygon fill="white" stroke="#666666" points="312,-181 158,-181 158,-151 312,-151 312,-181"/>
<text text-anchor="start" x="166" y="-169" font-family="Helvetica,sans-Serif" font-size="10.00">m_data_input::s_read</text>
<text text-anchor="middle" x="235" y="-158" font-family="Helvetica,sans-Serif" font-size="10.00">_parallel_conservative_data</text>
</a>
</g>
</g>
<!-- Node1&#45;&gt;Node6 -->
<g id="edge5_Node000001_Node000006" class="edge">
<title>Node1&#45;&gt;Node6</title>
<g id="a_edge5_Node000001_Node000006"><a xlink:title=" ">
<path fill="none" stroke="#63b8ff" d="M76.96,-323.95C107.33,-293.4 176.33,-224.01 211.89,-188.24"/>
<polygon fill="#63b8ff" stroke="#63b8ff" points="214.38,-190.7 218.95,-181.14 209.42,-185.76 214.38,-190.7"/>
</a>
</g>
</g>
<!-- Node5 -->
<g id="Node000005" class="node">
<title>Node5</title>
<g id="a_Node000005"><a xlink:href="namespacem__boundary__common.html#ab5d422a797dcdf7a95587c937dbdf74c" target="_top" xlink:title=" ">
<polygon fill="white" stroke="#666666" points="492,-336 361,-336 361,-306 492,-306 492,-336"/>
<text text-anchor="start" x="369" y="-324" font-family="Helvetica,sans-Serif" font-size="10.00">m_boundary_common::</text>
<text text-anchor="middle" x="426.5" y="-313" font-family="Helvetica,sans-Serif" font-size="10.00">s_create_mpi_types</text>
</a>
</g>
</g>
<!-- Node4&#45;&gt;Node5 -->
<g id="edge4_Node000004_Node000005" class="edge">
<title>Node4&#45;&gt;Node5</title>
<g id="a_edge4_Node000004_Node000005"><a xlink:title=" ">
<path fill="none" stroke="#63b8ff" d="M306.02,-317.22C320.59,-317.68 335.99,-318.17 350.71,-318.63"/>
<polygon fill="#63b8ff" stroke="#63b8ff" points="350.68,-322.13 360.78,-318.95 350.9,-315.14 350.68,-322.13"/>
</a>
</g>
</g>
<!-- Node6&#45;&gt;Node3 -->
<g id="edge9_Node000006_Node000003" class="edge">
<title>Node6&#45;&gt;Node3</title>
<g id="a_edge9_Node000006_Node000003"><a xlink:title=" ">
<path fill="none" stroke="#63b8ff" d="M269.81,-181.2C291.77,-190.67 321.2,-202.6 348,-211 383.69,-222.19 475.61,-242.61 542.41,-256.95"/>
<polygon fill="#63b8ff" stroke="#63b8ff" points="541.97,-260.44 552.49,-259.11 543.44,-253.6 541.97,-260.44"/>
</a>
</g>
</g>
<!-- Node7 -->
<g id="Node000007" class="node">
<title>Node7</title>
<g id="a_Node000007"><a xlink:href="namespacem__mpi__common.html#a2b579eba6293e56232ba5129614b5a18" target="_top" xlink:title=" ">
<polygon fill="white" stroke="#666666" points="698,-181 541,-181 541,-151 698,-151 698,-181"/>
<text text-anchor="start" x="549" y="-169" font-family="Helvetica,sans-Serif" font-size="10.00">m_mpi_common::s_initialize</text>
<text text-anchor="middle" x="619.5" y="-158" font-family="Helvetica,sans-Serif" font-size="10.00">_mpi_data</text>
</a>
</g>
</g>
<!-- Node6&#45;&gt;Node7 -->
<g id="edge6_Node000006_Node000007" class="edge">
<title>Node6&#45;&gt;Node7</title>
<g id="a_edge6_Node000006_Node000007"><a xlink:title=" ">
<path fill="none" stroke="#63b8ff" d="M312.21,-163.68C324.18,-163.4 336.43,-163.15 348,-163 417.77,-162.07 435.23,-162.08 505,-163 513.36,-163.11 522.06,-163.27 530.77,-163.45"/>
<polygon fill="#63b8ff" stroke="#63b8ff" points="530.89,-166.95 540.97,-163.68 531.05,-159.96 530.89,-166.95"/>
</a>
</g>
</g>
<!-- Node8 -->
<g id="Node000008" class="node">
<title>Node8</title>
<g id="a_Node000008"><a xlink:href="namespacem__mpi__common.html#a564644bad898d940dc6caea3297bb424" target="_top" xlink:title=" ">
<polygon fill="white" stroke="#666666" points="505,-116 348,-116 348,-86 505,-86 505,-116"/>
<text text-anchor="start" x="356" y="-104" font-family="Helvetica,sans-Serif" font-size="10.00">m_mpi_common::s_initialize</text>
<text text-anchor="middle" x="426.5" y="-93" font-family="Helvetica,sans-Serif" font-size="10.00">_mpi_data_ds</text>
</a>
</g>
</g>
<!-- Node6&#45;&gt;Node8 -->
<g id="edge7_Node000006_Node000008" class="edge">
<title>Node6&#45;&gt;Node8</title>
<g id="a_edge7_Node000006_Node000008"><a xlink:title=" ">
<path fill="none" stroke="#63b8ff" d="M279.95,-150.92C307.36,-141.52 342.82,-129.36 371.87,-119.39"/>
<polygon fill="#63b8ff" stroke="#63b8ff" points="373.14,-122.66 381.46,-116.11 370.86,-116.04 373.14,-122.66"/>
</a>
</g>
</g>
<!-- Node9 -->
<g id="Node000009" class="node">
<title>Node9</title>
<g id="a_Node000009"><a xlink:href="namespacem__helper.html#afd343d70a36c65cb7be86a183aa594ac" target="_top" xlink:title=" ">
<polygon fill="white" stroke="#666666" points="489,-67.5 364,-67.5 364,-48.5 489,-48.5 489,-67.5"/>
<text text-anchor="middle" x="426.5" y="-55.5" font-family="Helvetica,sans-Serif" font-size="10.00">m_helper::s_int_to_str</text>
</a>
</g>
</g>
<!-- Node6&#45;&gt;Node9 -->
<g id="edge8_Node000006_Node000009" class="edge">
<title>Node6&#45;&gt;Node9</title>
<g id="a_edge8_Node000006_Node000009"><a xlink:title=" ">
<path fill="none" stroke="#63b8ff" d="M250.48,-151C270.53,-131.1 308.75,-96.25 348,-77 352.9,-74.6 358.12,-72.49 363.46,-70.63"/>
<polygon fill="#63b8ff" stroke="#63b8ff" points="364.66,-73.92 373.13,-67.56 362.54,-67.25 364.66,-73.92"/>
</a>
</g>
</g>
<!-- Node10 -->
<g id="Node000010" class="node">
<title>Node10</title>
<g id="a_Node000010"><a xlink:href="namespacem__mpi__common.html#a1073fc1fcb6f3b9394606d5c9285e9f0" target="_top" xlink:title="Halts all processes until all have reached barrier.">
<polygon fill="white" stroke="#666666" points="493.5,-30 359.5,-30 359.5,0 493.5,0 493.5,-30"/>
<text text-anchor="start" x="367.5" y="-18" font-family="Helvetica,sans-Serif" font-size="10.00">m_mpi_common::s_mpi</text>
<text text-anchor="middle" x="426.5" y="-7" font-family="Helvetica,sans-Serif" font-size="10.00">_barrier</text>
</a>
</g>
</g>
<!-- Node6&#45;&gt;Node10 -->
<g id="edge10_Node000006_Node000010" class="edge">
<title>Node6&#45;&gt;Node10</title>
<g id="a_edge10_Node000006_Node000010"><a xlink:title=" ">
<path fill="none" stroke="#63b8ff" d="M245.41,-150.66C262.53,-124.02 301.35,-69.18 348,-39 350.58,-37.33 353.28,-35.77 356.06,-34.32"/>
<polygon fill="#63b8ff" stroke="#63b8ff" points="357.63,-37.45 365.19,-30.02 354.65,-31.12 357.63,-37.45"/>
</a>
</g>
</g>
<!-- Node11 -->
<g id="Node000011" class="node">
<title>Node11</title>
<g id="a_Node000011"><a xlink:href="namespacem__data__input.html#af83b04522a4d96faabec6f8142f90e80" target="_top" xlink:title="Helper subroutine to read IB data files.">
<polygon fill="white" stroke="#666666" points="487.5,-288 365.5,-288 365.5,-258 487.5,-258 487.5,-288"/>
<text text-anchor="start" x="373.5" y="-276" font-family="Helvetica,sans-Serif" font-size="10.00">m_data_input::s_read</text>
<text text-anchor="middle" x="426.5" y="-265" font-family="Helvetica,sans-Serif" font-size="10.00">_ib_data_files</text>
</a>
</g>
</g>
<!-- Node6&#45;&gt;Node11 -->
<g id="edge11_Node000006_Node000011" class="edge">
<title>Node6&#45;&gt;Node11</title>
<g id="a_edge11_Node000006_Node000011"><a xlink:title=" ">
<path fill="none" stroke="#63b8ff" d="M254.49,-181.06C275.97,-198.02 312.96,-225.61 348,-244 354.98,-247.66 362.52,-251.08 370.07,-254.2"/>
<polygon fill="#63b8ff" stroke="#63b8ff" points="369.01,-257.55 379.59,-257.99 371.59,-251.04 369.01,-257.55"/>
</a>
</g>
</g>
<!-- Node12 -->
<g id="Node000012" class="node">
<title>Node12</title>
<g id="a_Node000012"><a xlink:href="namespacem__data__input.html#a6e65911baddf566b7a796fadcea57495" target="_top" xlink:title="Helper subroutine to setup MPI data I/O parameters.">
<polygon fill="white" stroke="#666666" points="490,-202 363,-202 363,-172 490,-172 490,-202"/>
<text text-anchor="start" x="371" y="-190" font-family="Helvetica,sans-Serif" font-size="10.00">m_data_input::s_setup</text>
<text text-anchor="middle" x="426.5" y="-179" font-family="Helvetica,sans-Serif" font-size="10.00">_mpi_io_params</text>
</a>
</g>
</g>
<!-- Node6&#45;&gt;Node12 -->
<g id="edge13_Node000006_Node000012" class="edge">
<title>Node6&#45;&gt;Node12</title>
<g id="a_edge13_Node000006_Node000012"><a xlink:title=" ">
<path fill="none" stroke="#63b8ff" d="M312.26,-174.45C325.62,-175.93 339.49,-177.47 352.75,-178.94"/>
<polygon fill="#63b8ff" stroke="#63b8ff" points="352.42,-182.42 362.75,-180.05 353.2,-175.47 352.42,-182.42"/>
</a>
</g>
</g>
<!-- Node11&#45;&gt;Node3 -->
<g id="edge12_Node000011_Node000003" class="edge">
<title>Node11&#45;&gt;Node3</title>
<g id="a_edge12_Node000011_Node000003"><a xlink:title=" ">
<path fill="none" stroke="#63b8ff" d="M487.67,-273C504.94,-273 523.99,-273 542.1,-273"/>
<polygon fill="#63b8ff" stroke="#63b8ff" points="542.33,-276.5 552.33,-273 542.33,-269.5 542.33,-276.5"/>
</a>
</g>
</g>
<!-- Node12&#45;&gt;Node7 -->
<g id="edge14_Node000012_Node000007" class="edge">
<title>Node12&#45;&gt;Node7</title>
<g id="a_edge14_Node000012_Node000007"><a xlink:title=" ">
<path fill="none" stroke="#63b8ff" d="M490.04,-180.12C503.09,-178.69 517.06,-177.15 530.83,-175.64"/>
<polygon fill="#63b8ff" stroke="#63b8ff" points="531.23,-179.12 540.79,-174.54 530.47,-172.16 531.23,-179.12"/>
</a>
</g>
</g>
</g>
</svg>
