<?xml version="1.0" encoding="UTF-8" standalone="no"?>
<!DOCTYPE svg PUBLIC "-//W3C//DTD SVG 1.1//EN"
 "http://www.w3.org/Graphics/SVG/1.1/DTD/svg11.dtd">
<!-- Generated by graphviz version 2.43.0 (0)
 -->
<!-- Title: m_checker::s_check_inputs Pages: 1 -->
<svg width="642pt" height="566pt"
 viewBox="0.00 0.00 642.00 566.00" xmlns="http://www.w3.org/2000/svg" xmlns:xlink="http://www.w3.org/1999/xlink">
<g id="graph0" class="graph" transform="scale(1 1) rotate(0) translate(4 562)">
<title>m_checker::s_check_inputs</title>
<!-- Node1 -->
<g id="Node000001" class="node">
<title>Node1</title>
<g id="a_Node000001"><a xlink:title="Checks compatibility of parameters in the input file. Used by the post_process stage.">
<polygon fill="#999999" stroke="#666666" points="114,-294 0,-294 0,-264 114,-264 114,-294"/>
<text text-anchor="start" x="8" y="-282" font-family="Helvetica,sans-Serif" font-size="10.00">m_checker::s_check</text>
<text text-anchor="middle" x="57" y="-271" font-family="Helvetica,sans-Serif" font-size="10.00">_inputs</text>
</a>
</g>
</g>
<!-- Node2 -->
<g id="Node000002" class="node">
<title>Node2</title>
<g id="a_Node000002"><a xlink:href="namespacem__checker.html#a0531712c1bf0daffc26c953ebd8c0c7a" target="_top" xlink:title="Checks constraints on flux limiter parameters.">
<polygon fill="white" stroke="#666666" points="279.5,-558 165.5,-558 165.5,-528 279.5,-528 279.5,-558"/>
<text text-anchor="start" x="173.5" y="-546" font-family="Helvetica,sans-Serif" font-size="10.00">m_checker::s_check</text>
<text text-anchor="middle" x="222.5" y="-535" font-family="Helvetica,sans-Serif" font-size="10.00">_inputs_flux_limiter</text>
</a>
</g>
</g>
<!-- Node1&#45;&gt;Node2 -->
<g id="edge1_Node000001_Node000002" class="edge">
<title>Node1&#45;&gt;Node2</title>
<g id="a_edge1_Node000001_Node000002"><a xlink:title=" ">
<path fill="none" stroke="#63b8ff" d="M59.39,-294.07C64.05,-335.91 82.84,-454.61 150,-519 151.94,-520.86 154.04,-522.58 156.24,-524.17"/>
<polygon fill="#63b8ff" stroke="#63b8ff" points="154.87,-527.43 165.23,-529.65 158.51,-521.45 154.87,-527.43"/>
</a>
</g>
</g>
<!-- Node3 -->
<g id="Node000003" class="node">
<title>Node3</title>
<g id="a_Node000003"><a xlink:href="namespacem__checker.html#ade18ea5bd7c80eeb11e2dcce9ab98359" target="_top" xlink:title="Checks constraints on liutex parameters.">
<polygon fill="white" stroke="#666666" points="279.5,-510 165.5,-510 165.5,-480 279.5,-480 279.5,-510"/>
<text text-anchor="start" x="173.5" y="-498" font-family="Helvetica,sans-Serif" font-size="10.00">m_checker::s_check</text>
<text text-anchor="middle" x="222.5" y="-487" font-family="Helvetica,sans-Serif" font-size="10.00">_inputs_liutex</text>
</a>
</g>
</g>
<!-- Node1&#45;&gt;Node3 -->
<g id="edge2_Node000001_Node000003" class="edge">
<title>Node1&#45;&gt;Node3</title>
<g id="a_edge2_Node000001_Node000003"><a xlink:title=" ">
<path fill="none" stroke="#63b8ff" d="M61.03,-294.16C69,-330.14 93.92,-421.43 150,-471 151.97,-472.75 154.08,-474.36 156.28,-475.87"/>
<polygon fill="#63b8ff" stroke="#63b8ff" points="154.81,-479.06 165.21,-481.1 158.35,-473.02 154.81,-479.06"/>
</a>
</g>
</g>
<!-- Node4 -->
<g id="Node000004" class="node">
<title>Node4</title>
<g id="a_Node000004"><a xlink:href="namespacem__checker.html#a22df562df045f1d95074d1d3446dd697" target="_top" xlink:title="Checks constraints on the absence of flow variables.">
<polygon fill="white" stroke="#666666" points="295,-462 150,-462 150,-432 295,-432 295,-462"/>
<text text-anchor="start" x="158" y="-450" font-family="Helvetica,sans-Serif" font-size="10.00">m_checker::s_check</text>
<text text-anchor="middle" x="222.5" y="-439" font-family="Helvetica,sans-Serif" font-size="10.00">_inputs_no_flow_variables</text>
</a>
</g>
</g>
<!-- Node1&#45;&gt;Node4 -->
<g id="edge3_Node000001_Node000004" class="edge">
<title>Node1&#45;&gt;Node4</title>
<g id="a_edge3_Node000001_Node000004"><a xlink:title=" ">
<path fill="none" stroke="#63b8ff" d="M63.59,-294.01C75.2,-323.14 104.64,-387.57 150,-423 151.76,-424.38 153.6,-425.67 155.51,-426.9"/>
<polygon fill="#63b8ff" stroke="#63b8ff" points="153.8,-429.95 164.23,-431.82 157.24,-423.86 153.8,-429.95"/>
</a>
</g>
</g>
<!-- Node5 -->
<g id="Node000005" class="node">
<title>Node5</title>
<g id="a_Node000005"><a xlink:href="namespacem__checker.html#aabc567e8c7924a4bfcd77e73eb125c0d" target="_top" xlink:title="Checks constraints on output format parameters.">
<polygon fill="white" stroke="#666666" points="286,-414 159,-414 159,-384 286,-384 286,-414"/>
<text text-anchor="start" x="167" y="-402" font-family="Helvetica,sans-Serif" font-size="10.00">m_checker::s_check</text>
<text text-anchor="middle" x="222.5" y="-391" font-family="Helvetica,sans-Serif" font-size="10.00">_inputs_output_format</text>
</a>
</g>
</g>
<!-- Node1&#45;&gt;Node5 -->
<g id="edge4_Node000001_Node000005" class="edge">
<title>Node1&#45;&gt;Node5</title>
<g id="a_edge4_Node000001_Node000005"><a xlink:title=" ">
<path fill="none" stroke="#63b8ff" d="M68.75,-294.18C84.38,-315.18 115.3,-352.99 150,-375 152.57,-376.63 155.26,-378.16 158.04,-379.6"/>
<polygon fill="#63b8ff" stroke="#63b8ff" points="156.57,-382.78 167.11,-383.88 159.56,-376.45 156.57,-382.78"/>
</a>
</g>
</g>
<!-- Node6 -->
<g id="Node000006" class="node">
<title>Node6</title>
<g id="a_Node000006"><a xlink:href="namespacem__checker.html#ab1f225ac445817418d0a6bad521441e4" target="_top" xlink:title="Checks constraints on partial density parameters.">
<polygon fill="white" stroke="#666666" points="287.5,-78 157.5,-78 157.5,-48 287.5,-48 287.5,-78"/>
<text text-anchor="start" x="165.5" y="-66" font-family="Helvetica,sans-Serif" font-size="10.00">m_checker::s_check</text>
<text text-anchor="middle" x="222.5" y="-55" font-family="Helvetica,sans-Serif" font-size="10.00">_inputs_partial_density</text>
</a>
</g>
</g>
<!-- Node1&#45;&gt;Node6 -->
<g id="edge5_Node000001_Node000006" class="edge">
<title>Node1&#45;&gt;Node6</title>
<g id="a_edge5_Node000001_Node000006"><a xlink:title=" ">
<path fill="none" stroke="#63b8ff" d="M61.03,-263.84C69,-227.86 93.92,-136.57 150,-87 151.35,-85.81 152.76,-84.67 154.22,-83.6"/>
<polygon fill="#63b8ff" stroke="#63b8ff" points="156.48,-86.31 163.07,-78.02 152.75,-80.39 156.48,-86.31"/>
</a>
</g>
</g>
<!-- Node8 -->
<g id="Node000008" class="node">
<title>Node8</title>
<g id="a_Node000008"><a xlink:href="namespacem__checker.html#aee132d8c2196f1f29a8b2c7230bc553c" target="_top" xlink:title="Checks constraints on partial domain parameters.">
<polygon fill="white" stroke="#666666" points="288,-366 157,-366 157,-336 288,-336 288,-366"/>
<text text-anchor="start" x="165" y="-354" font-family="Helvetica,sans-Serif" font-size="10.00">m_checker::s_check</text>
<text text-anchor="middle" x="222.5" y="-343" font-family="Helvetica,sans-Serif" font-size="10.00">_inputs_partial_domain</text>
</a>
</g>
</g>
<!-- Node1&#45;&gt;Node8 -->
<g id="edge7_Node000001_Node000008" class="edge">
<title>Node1&#45;&gt;Node8</title>
<g id="a_edge7_Node000001_Node000008"><a xlink:title=" ">
<path fill="none" stroke="#63b8ff" d="M84.43,-294.21C102.54,-304.27 127.29,-317.33 150,-327 154.36,-328.86 158.92,-330.67 163.54,-332.41"/>
<polygon fill="#63b8ff" stroke="#63b8ff" points="162.44,-335.74 173.04,-335.88 164.85,-329.16 162.44,-335.74"/>
</a>
</g>
</g>
<!-- Node11 -->
<g id="Node000011" class="node">
<title>Node11</title>
<g id="a_Node000011"><a xlink:href="namespacem__checker.html#a1358cc82f1b95bc365e93528bf8dcc8f" target="_top" xlink:title="Checks constraints on Q&#45;criterion parameters.">
<polygon fill="white" stroke="#666666" points="279.5,-270 165.5,-270 165.5,-240 279.5,-240 279.5,-270"/>
<text text-anchor="start" x="173.5" y="-258" font-family="Helvetica,sans-Serif" font-size="10.00">m_checker::s_check</text>
<text text-anchor="middle" x="222.5" y="-247" font-family="Helvetica,sans-Serif" font-size="10.00">_inputs_qm</text>
</a>
</g>
</g>
<!-- Node1&#45;&gt;Node11 -->
<g id="edge10_Node000001_Node000011" class="edge">
<title>Node1&#45;&gt;Node11</title>
<g id="a_edge10_Node000001_Node000011"><a xlink:title=" ">
<path fill="none" stroke="#63b8ff" d="M114.27,-270.74C127.44,-268.81 141.6,-266.73 155.17,-264.74"/>
<polygon fill="#63b8ff" stroke="#63b8ff" points="156.02,-268.15 165.41,-263.23 155,-261.22 156.02,-268.15"/>
</a>
</g>
</g>
<!-- Node12 -->
<g id="Node000012" class="node">
<title>Node12</title>
<g id="a_Node000012"><a xlink:href="namespacem__checker.html#a194095c0cdc765b1f2487f18091bc3de" target="_top" xlink:title="Checks constraints on numerical Schlieren parameters (schlieren_wrt and schlieren_alpha)">
<polygon fill="white" stroke="#666666" points="279.5,-318 165.5,-318 165.5,-288 279.5,-288 279.5,-318"/>
<text text-anchor="start" x="173.5" y="-306" font-family="Helvetica,sans-Serif" font-size="10.00">m_checker::s_check</text>
<text text-anchor="middle" x="222.5" y="-295" font-family="Helvetica,sans-Serif" font-size="10.00">_inputs_schlieren</text>
</a>
</g>
</g>
<!-- Node1&#45;&gt;Node12 -->
<g id="edge11_Node000001_Node000012" class="edge">
<title>Node1&#45;&gt;Node12</title>
<g id="a_edge11_Node000001_Node000012"><a xlink:title=" ">
<path fill="none" stroke="#63b8ff" d="M114.27,-287.26C127.44,-289.19 141.6,-291.27 155.17,-293.26"/>
<polygon fill="#63b8ff" stroke="#63b8ff" points="155,-296.78 165.41,-294.77 156.02,-289.85 155,-296.78"/>
</a>
</g>
</g>
<!-- Node13 -->
<g id="Node000013" class="node">
<title>Node13</title>
<g id="a_Node000013"><a xlink:href="namespacem__checker.html#a0834d5c1945b29030bbb670841bcf1e5" target="_top" xlink:title="Checks constraints on surface tension parameters (cf_wrt and sigma)">
<polygon fill="white" stroke="#666666" points="289.5,-174 155.5,-174 155.5,-144 289.5,-144 289.5,-174"/>
<text text-anchor="start" x="163.5" y="-162" font-family="Helvetica,sans-Serif" font-size="10.00">m_checker::s_check</text>
<text text-anchor="middle" x="222.5" y="-151" font-family="Helvetica,sans-Serif" font-size="10.00">_inputs_surface_tension</text>
</a>
</g>
</g>
<!-- Node1&#45;&gt;Node13 -->
<g id="edge14_Node000001_Node000013" class="edge">
<title>Node1&#45;&gt;Node13</title>
<g id="a_edge14_Node000001_Node000013"><a xlink:title=" ">
<path fill="none" stroke="#63b8ff" d="M68.75,-263.82C84.38,-242.82 115.3,-205.01 150,-183 152.57,-181.37 155.26,-179.84 158.04,-178.4"/>
<polygon fill="#63b8ff" stroke="#63b8ff" points="159.56,-181.55 167.11,-174.12 156.57,-175.22 159.56,-181.55"/>
</a>
</g>
</g>
<!-- Node14 -->
<g id="Node000014" class="node">
<title>Node14</title>
<g id="a_Node000014"><a xlink:href="namespacem__checker.html#a056ba74efccfdde8a0cc72ef757630e5" target="_top" xlink:title="Checks constraints on velocity parameters.">
<polygon fill="white" stroke="#666666" points="279.5,-126 165.5,-126 165.5,-96 279.5,-96 279.5,-126"/>
<text text-anchor="start" x="173.5" y="-114" font-family="Helvetica,sans-Serif" font-size="10.00">m_checker::s_check</text>
<text text-anchor="middle" x="222.5" y="-103" font-family="Helvetica,sans-Serif" font-size="10.00">_inputs_velocity</text>
</a>
</g>
</g>
<!-- Node1&#45;&gt;Node14 -->
<g id="edge15_Node000001_Node000014" class="edge">
<title>Node1&#45;&gt;Node14</title>
<g id="a_edge15_Node000001_Node000014"><a xlink:title=" ">
<path fill="none" stroke="#63b8ff" d="M63.59,-263.99C75.2,-234.86 104.64,-170.43 150,-135 152.03,-133.41 154.17,-131.93 156.4,-130.54"/>
<polygon fill="#63b8ff" stroke="#63b8ff" points="158.23,-133.52 165.32,-125.64 154.86,-127.39 158.23,-133.52"/>
</a>
</g>
</g>
<!-- Node15 -->
<g id="Node000015" class="node">
<title>Node15</title>
<g id="a_Node000015"><a xlink:href="namespacem__checker.html#a3e07afe0382fd5d7cf389d5ea158cf4b" target="_top" xlink:title="Checks constraints on volume fraction parameters.">
<polygon fill="white" stroke="#666666" points="291,-222 154,-222 154,-192 291,-192 291,-222"/>
<text text-anchor="start" x="162" y="-210" font-family="Helvetica,sans-Serif" font-size="10.00">m_checker::s_check</text>
<text text-anchor="middle" x="222.5" y="-199" font-family="Helvetica,sans-Serif" font-size="10.00">_inputs_volume_fraction</text>
</a>
</g>
</g>
<!-- Node1&#45;&gt;Node15 -->
<g id="edge16_Node000001_Node000015" class="edge">
<title>Node1&#45;&gt;Node15</title>
<g id="a_edge16_Node000001_Node000015"><a xlink:title=" ">
<path fill="none" stroke="#63b8ff" d="M84.43,-263.79C102.54,-253.73 127.29,-240.67 150,-231 154.36,-229.14 158.92,-227.33 163.54,-225.59"/>
<polygon fill="#63b8ff" stroke="#63b8ff" points="164.85,-228.84 173.04,-222.12 162.44,-222.26 164.85,-228.84"/>
</a>
</g>
</g>
<!-- Node16 -->
<g id="Node000016" class="node">
<title>Node16</title>
<g id="a_Node000016"><a xlink:href="namespacem__checker.html#af06311be6bbd9062fd8ed36792bc6802" target="_top" xlink:title="Checks constraints on vorticity parameters.">
<polygon fill="white" stroke="#666666" points="279.5,-30 165.5,-30 165.5,0 279.5,0 279.5,-30"/>
<text text-anchor="start" x="173.5" y="-18" font-family="Helvetica,sans-Serif" font-size="10.00">m_checker::s_check</text>
<text text-anchor="middle" x="222.5" y="-7" font-family="Helvetica,sans-Serif" font-size="10.00">_inputs_vorticity</text>
</a>
</g>
</g>
<!-- Node1&#45;&gt;Node16 -->
<g id="edge18_Node000001_Node000016" class="edge">
<title>Node1&#45;&gt;Node16</title>
<g id="a_edge18_Node000001_Node000016"><a xlink:title=" ">
<path fill="none" stroke="#63b8ff" d="M59.39,-263.93C64.05,-222.09 82.84,-103.39 150,-39 151.94,-37.14 154.04,-35.42 156.24,-33.83"/>
<polygon fill="#63b8ff" stroke="#63b8ff" points="158.51,-36.55 165.23,-28.35 154.87,-30.57 158.51,-36.55"/>
</a>
</g>
</g>
<!-- Node7 -->
<g id="Node000007" class="node">
<title>Node7</title>
<g id="a_Node000007"><a xlink:href="namespacem__helper.html#afd343d70a36c65cb7be86a183aa594ac" target="_top" xlink:title=" ">
<polygon fill="white" stroke="#666666" points="456,-216.5 331,-216.5 331,-197.5 456,-197.5 456,-216.5"/>
<text text-anchor="middle" x="393.5" y="-204.5" font-family="Helvetica,sans-Serif" font-size="10.00">m_helper::s_int_to_str</text>
</a>
</g>
</g>
<!-- Node6&#45;&gt;Node7 -->
<g id="edge6_Node000006_Node000007" class="edge">
<title>Node6&#45;&gt;Node7</title>
<g id="a_edge6_Node000006_Node000007"><a xlink:title=" ">
<path fill="none" stroke="#63b8ff" d="M278.91,-78.03C284.57,-80.6 290.05,-83.57 295,-87 334.51,-114.39 366.47,-162.2 382.09,-188.44"/>
<polygon fill="#63b8ff" stroke="#63b8ff" points="379.22,-190.46 387.26,-197.36 385.27,-186.95 379.22,-190.46"/>
</a>
</g>
</g>
<!-- Node9 -->
<g id="Node000009" class="node">
<title>Node9</title>
<g id="a_Node000009"><a xlink:href="namespacem__helper__basic.html#af1b06a05daa43f724ac3b0ff2f97db14" target="_top" xlink:title="Checks if a real(wp) variable is of default value.">
<polygon fill="white" stroke="#666666" points="451.5,-342 335.5,-342 335.5,-312 451.5,-312 451.5,-342"/>
<text text-anchor="start" x="343.5" y="-330" font-family="Helvetica,sans-Serif" font-size="10.00">m_helper_basic::f_is</text>
<text text-anchor="middle" x="393.5" y="-319" font-family="Helvetica,sans-Serif" font-size="10.00">_default</text>
</a>
</g>
</g>
<!-- Node8&#45;&gt;Node9 -->
<g id="edge8_Node000008_Node000009" class="edge">
<title>Node8&#45;&gt;Node9</title>
<g id="a_edge8_Node000008_Node000009"><a xlink:title=" ">
<path fill="none" stroke="#63b8ff" d="M288.36,-341.79C300.43,-340.08 313.07,-338.28 325.21,-336.56"/>
<polygon fill="#63b8ff" stroke="#63b8ff" points="325.86,-340 335.27,-335.13 324.88,-333.07 325.86,-340"/>
</a>
</g>
</g>
<!-- Node10 -->
<g id="Node000010" class="node">
<title>Node10</title>
<g id="a_Node000010"><a xlink:href="namespacem__helper__basic.html#a3f0eae73a833f30924d4b2665a13a429" target="_top" xlink:title="This procedure checks if two floating point numbers of wp are within tolerance.">
<polygon fill="white" stroke="#666666" points="634,-342 492,-342 492,-312 634,-312 634,-342"/>
<text text-anchor="start" x="500" y="-330" font-family="Helvetica,sans-Serif" font-size="10.00">m_helper_basic::f_approx</text>
<text text-anchor="middle" x="563" y="-319" font-family="Helvetica,sans-Serif" font-size="10.00">_equal</text>
</a>
</g>
</g>
<!-- Node9&#45;&gt;Node10 -->
<g id="edge9_Node000009_Node000010" class="edge">
<title>Node9&#45;&gt;Node10</title>
<g id="a_edge9_Node000009_Node000010"><a xlink:title=" ">
<path fill="none" stroke="#63b8ff" d="M451.68,-327C461.34,-327 471.54,-327 481.66,-327"/>
<polygon fill="#63b8ff" stroke="#63b8ff" points="481.75,-330.5 491.75,-327 481.75,-323.5 481.75,-330.5"/>
</a>
</g>
</g>
<!-- Node12&#45;&gt;Node7 -->
<g id="edge13_Node000012_Node000007" class="edge">
<title>Node12&#45;&gt;Node7</title>
<g id="a_edge13_Node000012_Node000007"><a xlink:title=" ">
<path fill="none" stroke="#63b8ff" d="M274.7,-288C281.67,-285.33 288.61,-282.33 295,-279 324.78,-263.5 355.32,-239.35 374.09,-223.35"/>
<polygon fill="#63b8ff" stroke="#63b8ff" points="376.58,-225.83 381.85,-216.64 372,-220.54 376.58,-225.83"/>
</a>
</g>
</g>
<!-- Node12&#45;&gt;Node9 -->
<g id="edge12_Node000012_Node000009" class="edge">
<title>Node12&#45;&gt;Node9</title>
<g id="a_edge12_Node000012_Node000009"><a xlink:title=" ">
<path fill="none" stroke="#63b8ff" d="M279.77,-310.99C294.29,-313.05 310.05,-315.29 325.07,-317.42"/>
<polygon fill="#63b8ff" stroke="#63b8ff" points="324.92,-320.94 335.32,-318.88 325.91,-314.01 324.92,-320.94"/>
</a>
</g>
</g>
<!-- Node15&#45;&gt;Node7 -->
<g id="edge17_Node000015_Node000007" class="edge">
<title>Node15&#45;&gt;Node7</title>
<g id="a_edge17_Node000015_Node000007"><a xlink:title=" ">
<path fill="none" stroke="#63b8ff" d="M291.26,-207C300.94,-207 310.93,-207 320.68,-207"/>
<polygon fill="#63b8ff" stroke="#63b8ff" points="320.74,-210.5 330.74,-207 320.74,-203.5 320.74,-210.5"/>
</a>
</g>
</g>
</g>
</svg>
