<?xml version="1.0" encoding="UTF-8" standalone="no"?>
<!DOCTYPE svg PUBLIC "-//W3C//DTD SVG 1.1//EN"
 "http://www.w3.org/Graphics/SVG/1.1/DTD/svg11.dtd">
<!-- Generated by graphviz version 2.43.0 (0)
 -->
<!-- Title: m_model::s_read_stl_ascii Pages: 1 -->
<svg width="461pt" height="59pt"
 viewBox="0.00 0.00 461.00 59.00" xmlns="http://www.w3.org/2000/svg" xmlns:xlink="http://www.w3.org/1999/xlink">
<g id="graph0" class="graph" transform="scale(1 1) rotate(0) translate(4 55)">
<title>m_model::s_read_stl_ascii</title>
<!-- Node1 -->
<g id="Node000001" class="node">
<title>Node1</title>
<g id="a_Node000001"><a xlink:title="This procedure reads an ASCII STL file.">
<polygon fill="#999999" stroke="#666666" points="118,-51 0,-51 0,-21 118,-21 118,-51"/>
<text text-anchor="start" x="8" y="-39" font-family="Helvetica,sans-Serif" font-size="10.00">m_model::s_read_stl</text>
<text text-anchor="middle" x="59" y="-28" font-family="Helvetica,sans-Serif" font-size="10.00">_ascii</text>
</a>
</g>
</g>
<!-- Node2 -->
<g id="Node000002" class="node">
<title>Node2</title>
<g id="a_Node000002"><a xlink:href="namespacem__model.html#a263c93e249409db2235bbc8e0458e4dc" target="_top" xlink:title=" ">
<polygon fill="white" stroke="#666666" points="453,-45.5 331,-45.5 331,-26.5 453,-26.5 453,-45.5"/>
<text text-anchor="middle" x="392" y="-33.5" font-family="Helvetica,sans-Serif" font-size="10.00">m_model::f_read_line</text>
</a>
</g>
</g>
<!-- Node1&#45;&gt;Node2 -->
<g id="edge1_Node000001_Node000002" class="edge">
<title>Node1&#45;&gt;Node2</title>
<g id="a_edge1_Node000001_Node000002"><a xlink:title=" ">
<path fill="none" stroke="#63b8ff" d="M118.16,-38.15C130.02,-38.5 142.41,-38.82 154,-39 216.66,-40 232.34,-39.98 295,-39 303.33,-38.87 312.06,-38.68 320.73,-38.45"/>
<polygon fill="#63b8ff" stroke="#63b8ff" points="320.94,-41.94 330.83,-38.17 320.74,-34.95 320.94,-41.94"/>
</a>
</g>
</g>
<!-- Node3 -->
<g id="Node000003" class="node">
<title>Node3</title>
<g id="a_Node000003"><a xlink:href="namespacem__model.html#a532686157e0170dfff866cafe2162e9b" target="_top" xlink:title=" ">
<polygon fill="white" stroke="#666666" points="295,-30 154,-30 154,0 295,0 295,-30"/>
<text text-anchor="start" x="162" y="-18" font-family="Helvetica,sans-Serif" font-size="10.00">m_model::s_skip_ignored</text>
<text text-anchor="middle" x="224.5" y="-7" font-family="Helvetica,sans-Serif" font-size="10.00">_lines</text>
</a>
</g>
</g>
<!-- Node1&#45;&gt;Node3 -->
<g id="edge2_Node000001_Node000003" class="edge">
<title>Node1&#45;&gt;Node3</title>
<g id="a_edge2_Node000001_Node000003"><a xlink:title=" ">
<path fill="none" stroke="#63b8ff" d="M118.1,-28.54C126.42,-27.47 135.09,-26.36 143.73,-25.25"/>
<polygon fill="#63b8ff" stroke="#63b8ff" points="144.36,-28.69 153.83,-23.95 143.47,-21.75 144.36,-28.69"/>
</a>
</g>
</g>
<!-- Node3&#45;&gt;Node2 -->
<g id="edge3_Node000003_Node000002" class="edge">
<title>Node3&#45;&gt;Node2</title>
<g id="a_edge3_Node000003_Node000002"><a xlink:title=" ">
<path fill="none" stroke="#63b8ff" d="M295.21,-23.85C303.62,-24.91 312.22,-26 320.65,-27.07"/>
<polygon fill="#63b8ff" stroke="#63b8ff" points="320.45,-30.58 330.81,-28.36 321.33,-23.63 320.45,-30.58"/>
</a>
</g>
</g>
</g>
</svg>
