<?xml version="1.0" encoding="UTF-8" standalone="no"?>
<!DOCTYPE svg PUBLIC "-//W3C//DTD SVG 1.1//EN"
 "http://www.w3.org/Graphics/SVG/1.1/DTD/svg11.dtd">
<!-- Generated by graphviz version 2.43.0 (0)
 -->
<!-- Title: m_data_input::s_read_serial_data_files Pages: 1 -->
<svg width="478pt" height="280pt"
 viewBox="0.00 0.00 478.00 279.50" xmlns="http://www.w3.org/2000/svg" xmlns:xlink="http://www.w3.org/1999/xlink">
<g id="graph0" class="graph" transform="scale(1 1) rotate(0) translate(4 275.5)">
<title>m_data_input::s_read_serial_data_files</title>
<!-- Node1 -->
<g id="Node000001" class="node">
<title>Node1</title>
<g id="a_Node000001"><a xlink:title="This subroutine is called at each time&#45;step that has to be post&#45;processed in order to read the raw da...">
<polygon fill="#999999" stroke="#666666" points="122,-158.5 0,-158.5 0,-128.5 122,-128.5 122,-158.5"/>
<text text-anchor="start" x="8" y="-146.5" font-family="Helvetica,sans-Serif" font-size="10.00">m_data_input::s_read</text>
<text text-anchor="middle" x="61" y="-135.5" font-family="Helvetica,sans-Serif" font-size="10.00">_serial_data_files</text>
</a>
</g>
</g>
<!-- Node2 -->
<g id="Node000002" class="node">
<title>Node2</title>
<g id="a_Node000002"><a xlink:href="namespacem__compile__specific.html#a9cf8c029e502931415929734c03f340d" target="_top" xlink:title="Inquires on the existence of a directory.">
<polygon fill="white" stroke="#666666" points="285.5,-271.5 172.5,-271.5 172.5,-241.5 285.5,-241.5 285.5,-271.5"/>
<text text-anchor="start" x="180.5" y="-259.5" font-family="Helvetica,sans-Serif" font-size="10.00">m_compile_specific</text>
<text text-anchor="middle" x="229" y="-248.5" font-family="Helvetica,sans-Serif" font-size="10.00">::my_inquire</text>
</a>
</g>
</g>
<!-- Node1&#45;&gt;Node2 -->
<g id="edge1_Node000001_Node000002" class="edge">
<title>Node1&#45;&gt;Node2</title>
<g id="a_edge1_Node000001_Node000002"><a xlink:title=" ">
<path fill="none" stroke="#63b8ff" d="M74.79,-158.8C91.91,-178.38 124.06,-212.2 158,-232.5 160.81,-234.18 163.76,-235.77 166.78,-237.26"/>
<polygon fill="#63b8ff" stroke="#63b8ff" points="165.49,-240.51 176.05,-241.45 168.38,-234.14 165.49,-240.51"/>
</a>
</g>
</g>
<!-- Node3 -->
<g id="Node000003" class="node">
<title>Node3</title>
<g id="a_Node000003"><a xlink:href="namespacem__boundary__common.html#af8621fd7814593e9a18ba4d1461723d0" target="_top" xlink:title=" ">
<polygon fill="white" stroke="#666666" points="300,-223.5 158,-223.5 158,-193.5 300,-193.5 300,-223.5"/>
<text text-anchor="start" x="166" y="-211.5" font-family="Helvetica,sans-Serif" font-size="10.00">m_boundary_common::</text>
<text text-anchor="middle" x="229" y="-200.5" font-family="Helvetica,sans-Serif" font-size="10.00">s_assign_default_bc_type</text>
</a>
</g>
</g>
<!-- Node1&#45;&gt;Node3 -->
<g id="edge2_Node000001_Node000003" class="edge">
<title>Node1&#45;&gt;Node3</title>
<g id="a_edge2_Node000001_Node000003"><a xlink:title=" ">
<path fill="none" stroke="#63b8ff" d="M100.5,-158.58C124.2,-167.85 154.76,-179.82 180.02,-189.71"/>
<polygon fill="#63b8ff" stroke="#63b8ff" points="178.83,-193.01 189.42,-193.39 181.39,-186.49 178.83,-193.01"/>
</a>
</g>
</g>
<!-- Node4 -->
<g id="Node000004" class="node">
<title>Node4</title>
<g id="a_Node000004"><a xlink:href="namespacem__mpi__common.html#a04cfc0bdb377a0ce2f9fd478e4bb3807" target="_top" xlink:title="The subroutine terminates the MPI execution environment.">
<polygon fill="white" stroke="#666666" points="470,-137.5 336,-137.5 336,-107.5 470,-107.5 470,-137.5"/>
<text text-anchor="start" x="344" y="-125.5" font-family="Helvetica,sans-Serif" font-size="10.00">m_mpi_common::s_mpi</text>
<text text-anchor="middle" x="403" y="-114.5" font-family="Helvetica,sans-Serif" font-size="10.00">_abort</text>
</a>
</g>
</g>
<!-- Node1&#45;&gt;Node4 -->
<g id="edge3_Node000001_Node000004" class="edge">
<title>Node1&#45;&gt;Node4</title>
<g id="a_edge3_Node000001_Node000004"><a xlink:title=" ">
<path fill="none" stroke="#63b8ff" d="M122.37,-148.51C170.61,-151.49 239.87,-153.48 300,-146.5 312.55,-145.04 325.79,-142.61 338.43,-139.84"/>
<polygon fill="#63b8ff" stroke="#63b8ff" points="339.45,-143.2 348.42,-137.56 337.89,-136.37 339.45,-143.2"/>
</a>
</g>
</g>
<!-- Node5 -->
<g id="Node000005" class="node">
<title>Node5</title>
<g id="a_Node000005"><a xlink:href="namespacem__data__input.html#a888fdc1ceb8dcce14220719df6a6f23f" target="_top" xlink:title="Helper subroutine to read grid data files for a given direction.">
<polygon fill="white" stroke="#666666" points="290,-137.5 168,-137.5 168,-107.5 290,-107.5 290,-137.5"/>
<text text-anchor="start" x="176" y="-125.5" font-family="Helvetica,sans-Serif" font-size="10.00">m_data_input::s_read</text>
<text text-anchor="middle" x="229" y="-114.5" font-family="Helvetica,sans-Serif" font-size="10.00">_grid_data_direction</text>
</a>
</g>
</g>
<!-- Node1&#45;&gt;Node5 -->
<g id="edge4_Node000001_Node000005" class="edge">
<title>Node1&#45;&gt;Node5</title>
<g id="a_edge4_Node000001_Node000005"><a xlink:title=" ">
<path fill="none" stroke="#63b8ff" d="M122.4,-135.86C133.87,-134.41 145.97,-132.88 157.71,-131.39"/>
<polygon fill="#63b8ff" stroke="#63b8ff" points="158.44,-134.83 167.92,-130.1 157.56,-127.88 158.44,-134.83"/>
</a>
</g>
</g>
<!-- Node6 -->
<g id="Node000006" class="node">
<title>Node6</title>
<g id="a_Node000006"><a xlink:href="namespacem__data__input.html#af83b04522a4d96faabec6f8142f90e80" target="_top" xlink:title="Helper subroutine to read IB data files.">
<polygon fill="white" stroke="#666666" points="290,-89.5 168,-89.5 168,-59.5 290,-59.5 290,-89.5"/>
<text text-anchor="start" x="176" y="-77.5" font-family="Helvetica,sans-Serif" font-size="10.00">m_data_input::s_read</text>
<text text-anchor="middle" x="229" y="-66.5" font-family="Helvetica,sans-Serif" font-size="10.00">_ib_data_files</text>
</a>
</g>
</g>
<!-- Node1&#45;&gt;Node6 -->
<g id="edge6_Node000001_Node000006" class="edge">
<title>Node1&#45;&gt;Node6</title>
<g id="a_edge6_Node000001_Node000006"><a xlink:title=" ">
<path fill="none" stroke="#63b8ff" d="M91.9,-128.47C110.66,-119.29 135.48,-107.61 158,-98.5 162.64,-96.62 167.5,-94.76 172.39,-92.95"/>
<polygon fill="#63b8ff" stroke="#63b8ff" points="173.59,-96.24 181.8,-89.55 171.21,-89.66 173.59,-96.24"/>
</a>
</g>
</g>
<!-- Node7 -->
<g id="Node000007" class="node">
<title>Node7</title>
<g id="a_Node000007"><a xlink:href="namespacem__boundary__common.html#adfa0ae0acfddcffc6762f126d83ae3d0" target="_top" xlink:title=" ">
<polygon fill="white" stroke="#666666" points="295,-41 163,-41 163,0 295,0 295,-41"/>
<text text-anchor="start" x="171" y="-29" font-family="Helvetica,sans-Serif" font-size="10.00">m_boundary_common::</text>
<text text-anchor="start" x="171" y="-18" font-family="Helvetica,sans-Serif" font-size="10.00">s_read_serial_boundary</text>
<text text-anchor="middle" x="229" y="-7" font-family="Helvetica,sans-Serif" font-size="10.00">_condition_files</text>
</a>
</g>
</g>
<!-- Node1&#45;&gt;Node7 -->
<g id="edge8_Node000001_Node000007" class="edge">
<title>Node1&#45;&gt;Node7</title>
<g id="a_edge8_Node000001_Node000007"><a xlink:title=" ">
<path fill="none" stroke="#63b8ff" d="M74.6,-128.22C91.75,-108.2 124.19,-73 158,-50.5 160.37,-48.92 162.84,-47.39 165.38,-45.92"/>
<polygon fill="#63b8ff" stroke="#63b8ff" points="167.07,-48.99 174.19,-41.14 163.73,-42.83 167.07,-48.99"/>
</a>
</g>
</g>
<!-- Node5&#45;&gt;Node4 -->
<g id="edge5_Node000005_Node000004" class="edge">
<title>Node5&#45;&gt;Node4</title>
<g id="a_edge5_Node000005_Node000004"><a xlink:title=" ">
<path fill="none" stroke="#63b8ff" d="M290.16,-122.5C301.55,-122.5 313.6,-122.5 325.42,-122.5"/>
<polygon fill="#63b8ff" stroke="#63b8ff" points="325.72,-126 335.72,-122.5 325.72,-119 325.72,-126"/>
</a>
</g>
</g>
<!-- Node6&#45;&gt;Node4 -->
<g id="edge7_Node000006_Node000004" class="edge">
<title>Node6&#45;&gt;Node4</title>
<g id="a_edge7_Node000006_Node000004"><a xlink:title=" ">
<path fill="none" stroke="#63b8ff" d="M283.95,-89.56C301.24,-94.38 320.55,-99.77 338.46,-104.77"/>
<polygon fill="#63b8ff" stroke="#63b8ff" points="337.67,-108.18 348.24,-107.5 339.55,-101.44 337.67,-108.18"/>
</a>
</g>
</g>
</g>
</svg>
