<?xml version="1.0" encoding="UTF-8" standalone="no"?>
<!DOCTYPE svg PUBLIC "-//W3C//DTD SVG 1.1//EN"
 "http://www.w3.org/Graphics/SVG/1.1/DTD/svg11.dtd">
<!-- Generated by graphviz version 2.43.0 (0)
 -->
<!-- Title: m_model::s_read_stl Pages: 1 -->
<svg width="615pt" height="86pt"
 viewBox="0.00 0.00 615.00 86.00" xmlns="http://www.w3.org/2000/svg" xmlns:xlink="http://www.w3.org/1999/xlink">
<g id="graph0" class="graph" transform="scale(1 1) rotate(0) translate(4 82)">
<title>m_model::s_read_stl</title>
<!-- Node1 -->
<g id="Node000001" class="node">
<title>Node1</title>
<g id="a_Node000001"><a xlink:title="This procedure reads an STL file.">
<polygon fill="#999999" stroke="#666666" points="118,-48.5 0,-48.5 0,-29.5 118,-29.5 118,-48.5"/>
<text text-anchor="middle" x="59" y="-36.5" font-family="Helvetica,sans-Serif" font-size="10.00">m_model::s_read_stl</text>
</a>
</g>
</g>
<!-- Node2 -->
<g id="Node000002" class="node">
<title>Node2</title>
<g id="a_Node000002"><a xlink:href="namespacem__model.html#ad7e72764fdcd2dac89b5e91d0d7db271" target="_top" xlink:title="This procedure reads an ASCII STL file.">
<polygon fill="white" stroke="#666666" points="272,-78 154,-78 154,-48 272,-48 272,-78"/>
<text text-anchor="start" x="162" y="-66" font-family="Helvetica,sans-Serif" font-size="10.00">m_model::s_read_stl</text>
<text text-anchor="middle" x="213" y="-55" font-family="Helvetica,sans-Serif" font-size="10.00">_ascii</text>
</a>
</g>
</g>
<!-- Node1&#45;&gt;Node2 -->
<g id="edge1_Node000001_Node000002" class="edge">
<title>Node1&#45;&gt;Node2</title>
<g id="a_edge1_Node000001_Node000002"><a xlink:title=" ">
<path fill="none" stroke="#63b8ff" d="M118.33,-48.21C126.7,-49.53 135.36,-50.9 143.9,-52.25"/>
<polygon fill="#63b8ff" stroke="#63b8ff" points="143.4,-55.71 153.82,-53.81 144.49,-48.8 143.4,-55.71"/>
</a>
</g>
</g>
<!-- Node5 -->
<g id="Node000005" class="node">
<title>Node5</title>
<g id="a_Node000005"><a xlink:href="namespacem__model.html#ad948a8c9877b39e33d69ab80319ab235" target="_top" xlink:title="This procedure reads a binary STL file.">
<polygon fill="white" stroke="#666666" points="272,-30 154,-30 154,0 272,0 272,-30"/>
<text text-anchor="start" x="162" y="-18" font-family="Helvetica,sans-Serif" font-size="10.00">m_model::s_read_stl</text>
<text text-anchor="middle" x="213" y="-7" font-family="Helvetica,sans-Serif" font-size="10.00">_binary</text>
</a>
</g>
</g>
<!-- Node1&#45;&gt;Node5 -->
<g id="edge5_Node000001_Node000005" class="edge">
<title>Node1&#45;&gt;Node5</title>
<g id="a_edge5_Node000001_Node000005"><a xlink:title=" ">
<path fill="none" stroke="#63b8ff" d="M118.33,-29.79C126.7,-28.47 135.36,-27.1 143.9,-25.75"/>
<polygon fill="#63b8ff" stroke="#63b8ff" points="144.49,-29.2 153.82,-24.19 143.4,-22.29 144.49,-29.2"/>
</a>
</g>
</g>
<!-- Node3 -->
<g id="Node000003" class="node">
<title>Node3</title>
<g id="a_Node000003"><a xlink:href="namespacem__model.html#a263c93e249409db2235bbc8e0458e4dc" target="_top" xlink:title=" ">
<polygon fill="white" stroke="#666666" points="607,-71.5 485,-71.5 485,-52.5 607,-52.5 607,-71.5"/>
<text text-anchor="middle" x="546" y="-59.5" font-family="Helvetica,sans-Serif" font-size="10.00">m_model::f_read_line</text>
</a>
</g>
</g>
<!-- Node2&#45;&gt;Node3 -->
<g id="edge2_Node000002_Node000003" class="edge">
<title>Node2&#45;&gt;Node3</title>
<g id="a_edge2_Node000002_Node000003"><a xlink:title=" ">
<path fill="none" stroke="#63b8ff" d="M272.16,-64.43C284.02,-64.67 296.41,-64.88 308,-65 370.66,-65.67 386.34,-65.98 449,-65 457.33,-64.87 466.06,-64.68 474.73,-64.45"/>
<polygon fill="#63b8ff" stroke="#63b8ff" points="474.94,-67.94 484.83,-64.17 474.74,-60.95 474.94,-67.94"/>
</a>
</g>
</g>
<!-- Node4 -->
<g id="Node000004" class="node">
<title>Node4</title>
<g id="a_Node000004"><a xlink:href="namespacem__model.html#a532686157e0170dfff866cafe2162e9b" target="_top" xlink:title=" ">
<polygon fill="white" stroke="#666666" points="449,-56 308,-56 308,-26 449,-26 449,-56"/>
<text text-anchor="start" x="316" y="-44" font-family="Helvetica,sans-Serif" font-size="10.00">m_model::s_skip_ignored</text>
<text text-anchor="middle" x="378.5" y="-33" font-family="Helvetica,sans-Serif" font-size="10.00">_lines</text>
</a>
</g>
</g>
<!-- Node2&#45;&gt;Node4 -->
<g id="edge3_Node000002_Node000004" class="edge">
<title>Node2&#45;&gt;Node4</title>
<g id="a_edge3_Node000002_Node000004"><a xlink:title=" ">
<path fill="none" stroke="#63b8ff" d="M272.1,-55.18C280.42,-54.06 289.09,-52.9 297.73,-51.73"/>
<polygon fill="#63b8ff" stroke="#63b8ff" points="298.39,-55.18 307.83,-50.37 297.45,-48.24 298.39,-55.18"/>
</a>
</g>
</g>
<!-- Node4&#45;&gt;Node3 -->
<g id="edge4_Node000004_Node000003" class="edge">
<title>Node4&#45;&gt;Node3</title>
<g id="a_edge4_Node000004_Node000003"><a xlink:title=" ">
<path fill="none" stroke="#63b8ff" d="M449.21,-49.85C457.62,-50.91 466.22,-52 474.65,-53.07"/>
<polygon fill="#63b8ff" stroke="#63b8ff" points="474.45,-56.58 484.81,-54.36 475.33,-49.63 474.45,-56.58"/>
</a>
</g>
</g>
</g>
</svg>
