<?xml version="1.0" encoding="UTF-8" standalone="no"?>
<!DOCTYPE svg PUBLIC "-//W3C//DTD SVG 1.1//EN"
 "http://www.w3.org/Graphics/SVG/1.1/DTD/svg11.dtd">
<!-- Generated by graphviz version 2.43.0 (0)
 -->
<!-- Title: m_helper_basic::f_approx_equal Pages: 1 -->
<svg width="1124pt" height="581pt"
 viewBox="0.00 0.00 1124.00 581.00" xmlns="http://www.w3.org/2000/svg" xmlns:xlink="http://www.w3.org/1999/xlink">
<g id="graph0" class="graph" transform="scale(1 1) rotate(0) translate(4 577)">
<title>m_helper_basic::f_approx_equal</title>
<!-- Node1 -->
<g id="Node000001" class="node">
<title>Node1</title>
<g id="a_Node000001"><a xlink:title="This procedure checks if two floating point numbers of wp are within tolerance.">
<polygon fill="#999999" stroke="#666666" points="1116,-169 974,-169 974,-139 1116,-139 1116,-169"/>
<text text-anchor="start" x="982" y="-157" font-family="Helvetica,sans-Serif" font-size="10.00">m_helper_basic::f_approx</text>
<text text-anchor="middle" x="1045" y="-146" font-family="Helvetica,sans-Serif" font-size="10.00">_equal</text>
</a>
</g>
</g>
<!-- Node2 -->
<g id="Node000002" class="node">
<title>Node2</title>
<g id="a_Node000002"><a xlink:href="namespacem__helper__basic.html#a388ce5b49cbc696a303c4b90bc391dce" target="_top" xlink:title="This procedure checks if the point numbers of wp belongs to another array are within tolerance.">
<polygon fill="white" stroke="#666666" points="937,-369 795,-369 795,-339 937,-339 937,-369"/>
<text text-anchor="start" x="803" y="-357" font-family="Helvetica,sans-Serif" font-size="10.00">m_helper_basic::f_approx</text>
<text text-anchor="middle" x="866" y="-346" font-family="Helvetica,sans-Serif" font-size="10.00">_in_array</text>
</a>
</g>
</g>
<!-- Node1&#45;&gt;Node2 -->
<g id="edge1_Node000001_Node000002" class="edge">
<title>Node1&#45;&gt;Node2</title>
<g id="a_edge1_Node000001_Node000002"><a xlink:title=" ">
<path fill="none" stroke="#63b8ff" d="M1035.42,-178.91C1021.11,-216.88 988.81,-289.13 938,-330 933.74,-333.42 928.97,-336.37 923.97,-338.91"/>
<polygon fill="#63b8ff" stroke="#63b8ff" points="1038.84,-179.76 1038.98,-169.16 1032.26,-177.35 1038.84,-179.76"/>
</a>
</g>
</g>
<!-- Node3 -->
<g id="Node000003" class="node">
<title>Node3</title>
<g id="a_Node000003"><a xlink:href="namespacem__helper__basic.html#af1b06a05daa43f724ac3b0ff2f97db14" target="_top" xlink:title="Checks if a real(wp) variable is of default value.">
<polygon fill="white" stroke="#666666" points="924,-321 808,-321 808,-291 924,-291 924,-321"/>
<text text-anchor="start" x="816" y="-309" font-family="Helvetica,sans-Serif" font-size="10.00">m_helper_basic::f_is</text>
<text text-anchor="middle" x="866" y="-298" font-family="Helvetica,sans-Serif" font-size="10.00">_default</text>
</a>
</g>
</g>
<!-- Node1&#45;&gt;Node3 -->
<g id="edge2_Node000001_Node000003" class="edge">
<title>Node1&#45;&gt;Node3</title>
<g id="a_edge2_Node000001_Node000003"><a xlink:title=" ">
<path fill="none" stroke="#63b8ff" d="M1018.66,-175.76C982.24,-207.04 916.04,-263.89 884.55,-290.93"/>
<polygon fill="#63b8ff" stroke="#63b8ff" points="1021.08,-178.3 1026.38,-169.13 1016.51,-172.99 1021.08,-178.3"/>
</a>
</g>
</g>
<!-- Node17 -->
<g id="Node000017" class="node">
<title>Node17</title>
<g id="a_Node000017"><a xlink:href="namespacem__checker__common.html#a3abeb8b799cf4729f18180fb72e6db69" target="_top" xlink:title="Checks constraints on the surface tension parameters. Called by s_check_inputs_common for all three s...">
<polygon fill="white" stroke="#666666" points="742.5,-165.5 614.5,-165.5 614.5,-124.5 742.5,-124.5 742.5,-165.5"/>
<text text-anchor="start" x="622.5" y="-153.5" font-family="Helvetica,sans-Serif" font-size="10.00">m_checker_common::s</text>
<text text-anchor="start" x="622.5" y="-142.5" font-family="Helvetica,sans-Serif" font-size="10.00">_check_inputs_surface</text>
<text text-anchor="middle" x="678.5" y="-131.5" font-family="Helvetica,sans-Serif" font-size="10.00">_tension</text>
</a>
</g>
</g>
<!-- Node1&#45;&gt;Node17 -->
<g id="edge27_Node000001_Node000017" class="edge">
<title>Node1&#45;&gt;Node17</title>
<g id="a_edge27_Node000001_Node000017"><a xlink:title=" ">
<path fill="none" stroke="#63b8ff" d="M978.3,-171.26C965.05,-174.06 951.15,-176.53 938,-178 874.4,-185.11 857.37,-186.95 794,-178 775.77,-175.43 756.38,-170.65 738.83,-165.52"/>
<polygon fill="#63b8ff" stroke="#63b8ff" points="979.27,-174.63 988.28,-169.06 977.77,-167.79 979.27,-174.63"/>
</a>
</g>
</g>
<!-- Node18 -->
<g id="Node000018" class="node">
<title>Node18</title>
<g id="a_Node000018"><a xlink:href="namespacem__helper__basic.html#a2c677da1905f9b1c52e69ae431bfb70d" target="_top" xlink:title="Checks if a real(wp) variable is an integer.">
<polygon fill="white" stroke="#666666" points="924,-169 808,-169 808,-139 924,-139 924,-169"/>
<text text-anchor="start" x="816" y="-157" font-family="Helvetica,sans-Serif" font-size="10.00">m_helper_basic::f_is</text>
<text text-anchor="middle" x="866" y="-146" font-family="Helvetica,sans-Serif" font-size="10.00">_integer</text>
</a>
</g>
</g>
<!-- Node1&#45;&gt;Node18 -->
<g id="edge24_Node000001_Node000018" class="edge">
<title>Node1&#45;&gt;Node18</title>
<g id="a_edge24_Node000001_Node000018"><a xlink:title=" ">
<path fill="none" stroke="#63b8ff" d="M963.64,-154C950.28,-154 936.68,-154 924.05,-154"/>
<polygon fill="#63b8ff" stroke="#63b8ff" points="963.79,-157.5 973.79,-154 963.79,-150.5 963.79,-157.5"/>
</a>
</g>
</g>
<!-- Node19 -->
<g id="Node000019" class="node">
<title>Node19</title>
<g id="a_Node000019"><a xlink:href="namespacem__checker__common.html#ac720d2624a3a195282a578f567830432" target="_top" xlink:title="Checks constraints on the inputs for moving boundaries. Called by s_check_inputs_common for all three...">
<polygon fill="white" stroke="#666666" points="938,-121 794,-121 794,-91 938,-91 938,-121"/>
<text text-anchor="start" x="802" y="-109" font-family="Helvetica,sans-Serif" font-size="10.00">m_checker_common::s</text>
<text text-anchor="middle" x="866" y="-98" font-family="Helvetica,sans-Serif" font-size="10.00">_check_inputs_moving_bc</text>
</a>
</g>
</g>
<!-- Node1&#45;&gt;Node19 -->
<g id="edge25_Node000001_Node000019" class="edge">
<title>Node1&#45;&gt;Node19</title>
<g id="a_edge25_Node000001_Node000019"><a xlink:title=" ">
<path fill="none" stroke="#63b8ff" d="M978.66,-136.28C960.15,-131.26 940.18,-125.85 922.32,-121"/>
<polygon fill="#63b8ff" stroke="#63b8ff" points="977.91,-139.7 988.48,-138.94 979.75,-132.95 977.91,-139.7"/>
</a>
</g>
</g>
<!-- Node20 -->
<g id="Node000020" class="node">
<title>Node20</title>
<g id="a_Node000020"><a xlink:href="namespacem__derived__variables.html#ac85e77b0312f21389eb166960446f6ec" target="_top" xlink:title="This subroutine derives the flux_limiter at cell boundary i+1/2. This is an approximation because the...">
<polygon fill="white" stroke="#666666" points="928.5,-73 803.5,-73 803.5,-43 928.5,-43 928.5,-73"/>
<text text-anchor="start" x="811.5" y="-61" font-family="Helvetica,sans-Serif" font-size="10.00">m_derived_variables</text>
<text text-anchor="middle" x="866" y="-50" font-family="Helvetica,sans-Serif" font-size="10.00">::s_derive_flux_limiter</text>
</a>
</g>
</g>
<!-- Node1&#45;&gt;Node20 -->
<g id="edge28_Node000001_Node000020" class="edge">
<title>Node1&#45;&gt;Node20</title>
<g id="a_edge28_Node000001_Node000020"><a xlink:title=" ">
<path fill="none" stroke="#63b8ff" d="M1017.04,-132.66C996.33,-117.04 966.54,-96.19 938,-82 931.48,-78.76 924.41,-75.78 917.35,-73.12"/>
<polygon fill="#63b8ff" stroke="#63b8ff" points="1014.98,-135.5 1025.05,-138.79 1019.23,-129.93 1014.98,-135.5"/>
</a>
</g>
</g>
<!-- Node22 -->
<g id="Node000022" class="node">
<title>Node22</title>
<g id="a_Node000022"><a xlink:href="namespacem__phase__change.html#a1c6df16af0868f7d4004d427cc7cead9" target="_top" xlink:title="This auxiliary subroutine finds the Saturation temperature for a given saturation pressure through a ...">
<polygon fill="white" stroke="#666666" points="934.5,-24.5 797.5,-24.5 797.5,-5.5 934.5,-5.5 934.5,-24.5"/>
<text text-anchor="middle" x="866" y="-12.5" font-family="Helvetica,sans-Serif" font-size="10.00">m_phase_change::s_tsat</text>
</a>
</g>
</g>
<!-- Node1&#45;&gt;Node22 -->
<g id="edge31_Node000001_Node000022" class="edge">
<title>Node1&#45;&gt;Node22</title>
<g id="a_edge31_Node000001_Node000022"><a xlink:title=" ">
<path fill="none" stroke="#63b8ff" d="M1029.4,-130.37C1011.31,-103.06 977.92,-58.72 938,-34 931.71,-30.1 924.62,-27 917.43,-24.52"/>
<polygon fill="#63b8ff" stroke="#63b8ff" points="1026.57,-132.43 1034.94,-138.92 1032.45,-128.62 1026.57,-132.43"/>
</a>
</g>
</g>
<!-- Node4 -->
<g id="Node000004" class="node">
<title>Node4</title>
<g id="a_Node000004"><a xlink:href="namespacem__helper__basic.html#a2a51671bfbfddf6ecabbc9593be49e1d" target="_top" xlink:title="Checks if ALL elements of a real(wp) array are of default value.">
<polygon fill="white" stroke="#666666" points="738.5,-369 618.5,-369 618.5,-339 738.5,-339 738.5,-369"/>
<text text-anchor="start" x="626.5" y="-357" font-family="Helvetica,sans-Serif" font-size="10.00">m_helper_basic::f_all</text>
<text text-anchor="middle" x="678.5" y="-346" font-family="Helvetica,sans-Serif" font-size="10.00">_default</text>
</a>
</g>
</g>
<!-- Node3&#45;&gt;Node4 -->
<g id="edge3_Node000003_Node000004" class="edge">
<title>Node3&#45;&gt;Node4</title>
<g id="a_edge3_Node000003_Node000004"><a xlink:title=" ">
<path fill="none" stroke="#63b8ff" d="M798,-323.34C778.28,-328.44 756.88,-333.98 737.76,-338.92"/>
<polygon fill="#63b8ff" stroke="#63b8ff" points="799.03,-326.69 807.83,-320.79 797.27,-319.91 799.03,-326.69"/>
</a>
</g>
</g>
<!-- Node5 -->
<g id="Node000005" class="node">
<title>Node5</title>
<g id="a_Node000005"><a xlink:href="namespacem__checker__common.html#a9a28548179ff1dc35c035a76247ed51e" target="_top" xlink:title="Checks constraints on the bubble parameters. Called by s_check_inputs_common for pre&#45;processing and s...">
<polygon fill="white" stroke="#666666" points="758,-321 599,-321 599,-291 758,-291 758,-321"/>
<text text-anchor="start" x="607" y="-309" font-family="Helvetica,sans-Serif" font-size="10.00">m_checker_common::s</text>
<text text-anchor="middle" x="678.5" y="-298" font-family="Helvetica,sans-Serif" font-size="10.00">_check_inputs_bubbles_euler</text>
</a>
</g>
</g>
<!-- Node3&#45;&gt;Node5 -->
<g id="edge4_Node000003_Node000005" class="edge">
<title>Node3&#45;&gt;Node5</title>
<g id="a_edge4_Node000003_Node000005"><a xlink:title=" ">
<path fill="none" stroke="#63b8ff" d="M797.74,-306C784.94,-306 771.43,-306 758.31,-306"/>
<polygon fill="#63b8ff" stroke="#63b8ff" points="797.83,-309.5 807.83,-306 797.83,-302.5 797.83,-309.5"/>
</a>
</g>
</g>
<!-- Node10 -->
<g id="Node000010" class="node">
<title>Node10</title>
<g id="a_Node000010"><a xlink:href="namespacem__checker__common.html#a970fc65314cddafcf0102f416d66f4ce" target="_top" xlink:title=" ">
<polygon fill="white" stroke="#666666" points="742.5,-273 614.5,-273 614.5,-243 742.5,-243 742.5,-273"/>
<text text-anchor="start" x="622.5" y="-261" font-family="Helvetica,sans-Serif" font-size="10.00">m_checker_common::s</text>
<text text-anchor="middle" x="678.5" y="-250" font-family="Helvetica,sans-Serif" font-size="10.00">_check_inputs_mhd</text>
</a>
</g>
</g>
<!-- Node3&#45;&gt;Node10 -->
<g id="edge9_Node000003_Node000010" class="edge">
<title>Node3&#45;&gt;Node10</title>
<g id="a_edge9_Node000003_Node000010"><a xlink:title=" ">
<path fill="none" stroke="#63b8ff" d="M798,-288.66C778.28,-283.56 756.88,-278.02 737.76,-273.08"/>
<polygon fill="#63b8ff" stroke="#63b8ff" points="797.27,-292.09 807.83,-291.21 799.03,-285.31 797.27,-292.09"/>
</a>
</g>
</g>
<!-- Node11 -->
<g id="Node000011" class="node">
<title>Node11</title>
<g id="a_Node000011"><a xlink:href="namespacem__checker.html#aee132d8c2196f1f29a8b2c7230bc553c" target="_top" xlink:title="Checks constraints on partial domain parameters.">
<polygon fill="white" stroke="#666666" points="744,-573 613,-573 613,-543 744,-543 744,-573"/>
<text text-anchor="start" x="621" y="-561" font-family="Helvetica,sans-Serif" font-size="10.00">m_checker::s_check</text>
<text text-anchor="middle" x="678.5" y="-550" font-family="Helvetica,sans-Serif" font-size="10.00">_inputs_partial_domain</text>
</a>
</g>
</g>
<!-- Node3&#45;&gt;Node11 -->
<g id="edge11_Node000003_Node000011" class="edge">
<title>Node3&#45;&gt;Node11</title>
<g id="a_edge11_Node000003_Node000011"><a xlink:title=" ">
<path fill="none" stroke="#63b8ff" d="M799.59,-324.52C797.58,-326.19 795.71,-328.01 794,-330 734,-399.84 819.01,-465.05 758,-534 754.03,-538.48 749.26,-542.14 744.04,-545.12"/>
<polygon fill="#63b8ff" stroke="#63b8ff" points="801.67,-327.34 807.93,-318.79 797.7,-321.57 801.67,-327.34"/>
</a>
</g>
</g>
<!-- Node13 -->
<g id="Node000013" class="node">
<title>Node13</title>
<g id="a_Node000013"><a xlink:href="namespacem__checker__common.html#aaf5d0bed53807e600991f52f8d75c1b5" target="_top" xlink:title="Checks constraints on the phase change parameters. Called by s_check_inputs_common for pre&#45;processing...">
<polygon fill="white" stroke="#666666" points="742.5,-224.5 614.5,-224.5 614.5,-183.5 742.5,-183.5 742.5,-224.5"/>
<text text-anchor="start" x="622.5" y="-212.5" font-family="Helvetica,sans-Serif" font-size="10.00">m_checker_common::s</text>
<text text-anchor="start" x="622.5" y="-201.5" font-family="Helvetica,sans-Serif" font-size="10.00">_check_inputs_phase</text>
<text text-anchor="middle" x="678.5" y="-190.5" font-family="Helvetica,sans-Serif" font-size="10.00">_change</text>
</a>
</g>
</g>
<!-- Node3&#45;&gt;Node13 -->
<g id="edge14_Node000003_Node000013" class="edge">
<title>Node3&#45;&gt;Node13</title>
<g id="a_edge14_Node000003_Node000013"><a xlink:title=" ">
<path fill="none" stroke="#63b8ff" d="M837.2,-284.72C816.22,-269.31 786.3,-248.68 758,-234 751.65,-230.71 744.86,-227.58 738.03,-224.66"/>
<polygon fill="#63b8ff" stroke="#63b8ff" points="835.22,-287.61 845.34,-290.76 839.4,-281.99 835.22,-287.61"/>
</a>
</g>
</g>
<!-- Node14 -->
<g id="Node000014" class="node">
<title>Node14</title>
<g id="a_Node000014"><a xlink:href="namespacem__checker__common.html#a10215566de1fcb267572be90fdf5d31a" target="_top" xlink:title="Checks constraints on the QBMM and polydisperse bubble parameters. Called by s_check_inputs_common fo...">
<polygon fill="white" stroke="#666666" points="751.5,-476.5 605.5,-476.5 605.5,-435.5 751.5,-435.5 751.5,-476.5"/>
<text text-anchor="start" x="613.5" y="-464.5" font-family="Helvetica,sans-Serif" font-size="10.00">m_checker_common::s</text>
<text text-anchor="start" x="613.5" y="-453.5" font-family="Helvetica,sans-Serif" font-size="10.00">_check_inputs_qbmm_and</text>
<text text-anchor="middle" x="678.5" y="-442.5" font-family="Helvetica,sans-Serif" font-size="10.00">_polydisperse</text>
</a>
</g>
</g>
<!-- Node3&#45;&gt;Node14 -->
<g id="edge16_Node000003_Node000014" class="edge">
<title>Node3&#45;&gt;Node14</title>
<g id="a_edge16_Node000003_Node000014"><a xlink:title=" ">
<path fill="none" stroke="#63b8ff" d="M799.2,-325.56C797.37,-326.94 795.63,-328.42 794,-330 761.25,-361.69 790.12,-393.68 758,-426 754.5,-429.52 750.55,-432.63 746.33,-435.39"/>
<polygon fill="#63b8ff" stroke="#63b8ff" points="801.16,-328.46 807.69,-320.12 797.38,-322.57 801.16,-328.46"/>
</a>
</g>
</g>
<!-- Node15 -->
<g id="Node000015" class="node">
<title>Node15</title>
<g id="a_Node000015"><a xlink:href="namespacem__checker.html#a194095c0cdc765b1f2487f18091bc3de" target="_top" xlink:title="Checks constraints on numerical Schlieren parameters (schlieren_wrt and schlieren_alpha)">
<polygon fill="white" stroke="#666666" points="735.5,-525 621.5,-525 621.5,-495 735.5,-495 735.5,-525"/>
<text text-anchor="start" x="629.5" y="-513" font-family="Helvetica,sans-Serif" font-size="10.00">m_checker::s_check</text>
<text text-anchor="middle" x="678.5" y="-502" font-family="Helvetica,sans-Serif" font-size="10.00">_inputs_schlieren</text>
</a>
</g>
</g>
<!-- Node3&#45;&gt;Node15 -->
<g id="edge18_Node000003_Node000015" class="edge">
<title>Node3&#45;&gt;Node15</title>
<g id="a_edge18_Node000003_Node000015"><a xlink:title=" ">
<path fill="none" stroke="#63b8ff" d="M799.16,-325.09C797.33,-326.6 795.6,-328.24 794,-330 746.24,-382.75 806.53,-433.96 758,-486 751.88,-492.57 744.01,-497.35 735.64,-500.84"/>
<polygon fill="#63b8ff" stroke="#63b8ff" points="801.53,-327.71 807.82,-319.19 797.59,-321.93 801.53,-327.71"/>
</a>
</g>
</g>
<!-- Node16 -->
<g id="Node000016" class="node">
<title>Node16</title>
<g id="a_Node000016"><a xlink:href="namespacem__checker__common.html#a20cb17f4b2111c489c7a31856a149b32" target="_top" xlink:title="Checks constraints on the stiffened equation of state fluids parameters. Called by s_check_inputs_com...">
<polygon fill="white" stroke="#666666" points="756.5,-417 600.5,-417 600.5,-387 756.5,-387 756.5,-417"/>
<text text-anchor="start" x="608.5" y="-405" font-family="Helvetica,sans-Serif" font-size="10.00">m_checker_common::s</text>
<text text-anchor="middle" x="678.5" y="-394" font-family="Helvetica,sans-Serif" font-size="10.00">_check_inputs_stiffened_eos</text>
</a>
</g>
</g>
<!-- Node3&#45;&gt;Node16 -->
<g id="edge20_Node000003_Node000016" class="edge">
<title>Node3&#45;&gt;Node16</title>
<g id="a_edge20_Node000003_Node000016"><a xlink:title=" ">
<path fill="none" stroke="#63b8ff" d="M800.5,-325.76C798.25,-327.08 796.07,-328.5 794,-330 772.4,-345.64 779.83,-362.68 758,-378 753.1,-381.44 747.7,-384.4 742.08,-386.93"/>
<polygon fill="#63b8ff" stroke="#63b8ff" points="802.25,-328.79 809.48,-321.04 799,-322.59 802.25,-328.79"/>
</a>
</g>
</g>
<!-- Node3&#45;&gt;Node17 -->
<g id="edge22_Node000003_Node000017" class="edge">
<title>Node3&#45;&gt;Node17</title>
<g id="a_edge22_Node000003_Node000017"><a xlink:title=" ">
<path fill="none" stroke="#63b8ff" d="M847.94,-282.27C823.58,-248.9 779.42,-190.47 758,-175 753.15,-171.5 747.84,-168.35 742.34,-165.53"/>
<polygon fill="#63b8ff" stroke="#63b8ff" points="845.26,-284.53 853.97,-290.56 850.92,-280.41 845.26,-284.53"/>
</a>
</g>
</g>
<!-- Node6 -->
<g id="Node000006" class="node">
<title>Node6</title>
<g id="a_Node000006"><a xlink:href="namespacem__checker__common.html#a37b5025d5e6ffafc4cb5f417387c21b8" target="_top" xlink:title="Checks compatibility of parameters in the input file. Used by all three stages.">
<polygon fill="white" stroke="#666666" points="563,-273 429,-273 429,-243 563,-243 563,-273"/>
<text text-anchor="start" x="437" y="-261" font-family="Helvetica,sans-Serif" font-size="10.00">m_checker_common::s</text>
<text text-anchor="middle" x="496" y="-250" font-family="Helvetica,sans-Serif" font-size="10.00">_check_inputs_common</text>
</a>
</g>
</g>
<!-- Node5&#45;&gt;Node6 -->
<g id="edge5_Node000005_Node000006" class="edge">
<title>Node5&#45;&gt;Node6</title>
<g id="a_edge5_Node000005_Node000006"><a xlink:title=" ">
<path fill="none" stroke="#63b8ff" d="M611.13,-288.35C592.18,-283.31 571.71,-277.87 553.42,-273"/>
<polygon fill="#63b8ff" stroke="#63b8ff" points="610.32,-291.76 620.88,-290.94 612.12,-284.99 610.32,-291.76"/>
</a>
</g>
</g>
<!-- Node7 -->
<g id="Node000007" class="node">
<title>Node7</title>
<g id="a_Node000007"><a xlink:href="namespacem__start__up.html#a045a171a9b44005a0e190f9a99784853" target="_top" xlink:title="Checking that the user inputs make sense, i.e. that the individual choices are compatible with the co...">
<polygon fill="white" stroke="#666666" points="382,-273 266,-273 266,-243 382,-243 382,-273"/>
<text text-anchor="start" x="274" y="-261" font-family="Helvetica,sans-Serif" font-size="10.00">m_start_up::s_check</text>
<text text-anchor="middle" x="324" y="-250" font-family="Helvetica,sans-Serif" font-size="10.00">_input_file</text>
</a>
</g>
</g>
<!-- Node6&#45;&gt;Node7 -->
<g id="edge6_Node000006_Node000007" class="edge">
<title>Node6&#45;&gt;Node7</title>
<g id="a_edge6_Node000006_Node000007"><a xlink:title=" ">
<path fill="none" stroke="#63b8ff" d="M418.59,-258C406.36,-258 393.89,-258 382.2,-258"/>
<polygon fill="#63b8ff" stroke="#63b8ff" points="418.79,-261.5 428.79,-258 418.79,-254.5 418.79,-261.5"/>
</a>
</g>
</g>
<!-- Node8 -->
<g id="Node000008" class="node">
<title>Node8</title>
<g id="a_Node000008"><a xlink:href="namespacem__start__up.html#a43f2e386d1bd2f0f6212f31a97542b96" target="_top" xlink:title=" ">
<polygon fill="white" stroke="#666666" points="219,-253 89,-253 89,-223 219,-223 219,-253"/>
<text text-anchor="start" x="97" y="-241" font-family="Helvetica,sans-Serif" font-size="10.00">m_start_up::s_initialize</text>
<text text-anchor="middle" x="154" y="-230" font-family="Helvetica,sans-Serif" font-size="10.00">_mpi_domain</text>
</a>
</g>
</g>
<!-- Node7&#45;&gt;Node8 -->
<g id="edge7_Node000007_Node000008" class="edge">
<title>Node7&#45;&gt;Node8</title>
<g id="a_edge7_Node000007_Node000008"><a xlink:title=" ">
<path fill="none" stroke="#63b8ff" d="M255.64,-249.98C243.55,-248.54 230.99,-247.05 219.01,-245.62"/>
<polygon fill="#63b8ff" stroke="#63b8ff" points="255.31,-253.47 265.65,-251.17 256.14,-246.52 255.31,-253.47"/>
</a>
</g>
</g>
<!-- Node9 -->
<g id="Node000009" class="node">
<title>Node9</title>
<g id="a_Node000009"><a xlink:href="p__main_8fpp_8f90.html#aeec10ee8e2940c953967da3e374e1579" target="_top" xlink:title="The post&#45;process restructures raw unformatted data, outputted by the simulation, into a formatted dat...">
<polygon fill="white" stroke="#666666" points="53,-186.5 0,-186.5 0,-167.5 53,-167.5 53,-186.5"/>
<text text-anchor="middle" x="26.5" y="-174.5" font-family="Helvetica,sans-Serif" font-size="10.00">p_main</text>
</a>
</g>
</g>
<!-- Node8&#45;&gt;Node9 -->
<g id="edge8_Node000008_Node000009" class="edge">
<title>Node8&#45;&gt;Node9</title>
<g id="a_edge8_Node000008_Node000009"><a xlink:title=" ">
<path fill="none" stroke="#63b8ff" d="M112.88,-218.5C90.95,-207.84 64.76,-195.11 47.22,-186.58"/>
<polygon fill="#63b8ff" stroke="#63b8ff" points="111.45,-221.7 121.98,-222.92 114.51,-215.4 111.45,-221.7"/>
</a>
</g>
</g>
<!-- Node10&#45;&gt;Node6 -->
<g id="edge10_Node000010_Node000006" class="edge">
<title>Node10&#45;&gt;Node6</title>
<g id="a_edge10_Node000010_Node000006"><a xlink:title=" ">
<path fill="none" stroke="#63b8ff" d="M604.13,-258C590.57,-258 576.49,-258 563.16,-258"/>
<polygon fill="#63b8ff" stroke="#63b8ff" points="604.37,-261.5 614.37,-258 604.37,-254.5 604.37,-261.5"/>
</a>
</g>
</g>
<!-- Node12 -->
<g id="Node000012" class="node">
<title>Node12</title>
<g id="a_Node000012"><a xlink:href="namespacem__checker.html#a214e05cb46bc7c3e0dbe55fdc433c072" target="_top" xlink:title="Checks compatibility of parameters in the input file. Used by the post_process stage.">
<polygon fill="white" stroke="#666666" points="553,-525 439,-525 439,-495 553,-495 553,-525"/>
<text text-anchor="start" x="447" y="-513" font-family="Helvetica,sans-Serif" font-size="10.00">m_checker::s_check</text>
<text text-anchor="middle" x="496" y="-502" font-family="Helvetica,sans-Serif" font-size="10.00">_inputs</text>
</a>
</g>
</g>
<!-- Node11&#45;&gt;Node12 -->
<g id="edge12_Node000011_Node000012" class="edge">
<title>Node11&#45;&gt;Node12</title>
<g id="a_edge12_Node000011_Node000012"><a xlink:title=" ">
<path fill="none" stroke="#63b8ff" d="M611.08,-540.34C592.04,-535.27 571.47,-529.8 553.11,-524.92"/>
<polygon fill="#63b8ff" stroke="#63b8ff" points="610.32,-543.76 620.88,-542.94 612.12,-536.99 610.32,-543.76"/>
</a>
</g>
</g>
<!-- Node12&#45;&gt;Node7 -->
<g id="edge13_Node000012_Node000007" class="edge">
<title>Node12&#45;&gt;Node7</title>
<g id="a_edge13_Node000012_Node000007"><a xlink:title=" ">
<path fill="none" stroke="#63b8ff" d="M479.2,-486.58C444.81,-435.6 363.94,-315.72 335.29,-273.25"/>
<polygon fill="#63b8ff" stroke="#63b8ff" points="476.38,-488.66 484.87,-494.99 482.18,-484.74 476.38,-488.66"/>
</a>
</g>
</g>
<!-- Node13&#45;&gt;Node6 -->
<g id="edge15_Node000013_Node000006" class="edge">
<title>Node13&#45;&gt;Node6</title>
<g id="a_edge15_Node000013_Node000006"><a xlink:title=" ">
<path fill="none" stroke="#63b8ff" d="M604.72,-225.77C585.45,-231.54 565.09,-237.63 547.31,-242.95"/>
<polygon fill="#63b8ff" stroke="#63b8ff" points="605.79,-229.11 614.37,-222.89 603.79,-222.4 605.79,-229.11"/>
</a>
</g>
</g>
<!-- Node14&#45;&gt;Node6 -->
<g id="edge17_Node000014_Node000006" class="edge">
<title>Node14&#45;&gt;Node6</title>
<g id="a_edge17_Node000014_Node000006"><a xlink:title=" ">
<path fill="none" stroke="#63b8ff" d="M603.84,-429.73C602.17,-428.54 600.55,-427.3 599,-426 547.11,-382.73 514.47,-305.89 502.34,-273.3"/>
<polygon fill="#63b8ff" stroke="#63b8ff" points="602.23,-432.86 612.55,-435.29 606,-426.96 602.23,-432.86"/>
</a>
</g>
</g>
<!-- Node15&#45;&gt;Node12 -->
<g id="edge19_Node000015_Node000012" class="edge">
<title>Node15&#45;&gt;Node12</title>
<g id="a_edge19_Node000015_Node000012"><a xlink:title=" ">
<path fill="none" stroke="#63b8ff" d="M611.25,-510C592.15,-510 571.51,-510 553.09,-510"/>
<polygon fill="#63b8ff" stroke="#63b8ff" points="611.38,-513.5 621.38,-510 611.38,-506.5 611.38,-513.5"/>
</a>
</g>
</g>
<!-- Node16&#45;&gt;Node6 -->
<g id="edge21_Node000016_Node000006" class="edge">
<title>Node16&#45;&gt;Node6</title>
<g id="a_edge21_Node000016_Node000006"><a xlink:title=" ">
<path fill="none" stroke="#63b8ff" d="M606.68,-382.54C604.03,-381.12 601.46,-379.61 599,-378 556.27,-349.91 521.54,-298.83 505.92,-273.33"/>
<polygon fill="#63b8ff" stroke="#63b8ff" points="605.41,-385.81 615.94,-386.97 608.43,-379.5 605.41,-385.81"/>
</a>
</g>
</g>
<!-- Node17&#45;&gt;Node6 -->
<g id="edge23_Node000017_Node000006" class="edge">
<title>Node17&#45;&gt;Node6</title>
<g id="a_edge23_Node000017_Node000006"><a xlink:title=" ">
<path fill="none" stroke="#63b8ff" d="M608.3,-170C605.11,-171.6 602,-173.27 599,-175 565.4,-194.42 531.44,-224.65 512.42,-242.77"/>
<polygon fill="#63b8ff" stroke="#63b8ff" points="609.89,-173.12 617.42,-165.66 606.89,-166.79 609.89,-173.12"/>
</a>
</g>
</g>
<!-- Node19&#45;&gt;Node6 -->
<g id="edge26_Node000019_Node000006" class="edge">
<title>Node19&#45;&gt;Node6</title>
<g id="a_edge26_Node000019_Node000006"><a xlink:title=" ">
<path fill="none" stroke="#63b8ff" d="M783.83,-91.24C728.5,-85.28 655.35,-85.75 599,-116 546.58,-144.14 514.64,-212.43 502.54,-242.89"/>
<polygon fill="#63b8ff" stroke="#63b8ff" points="783.61,-94.73 793.95,-92.42 784.42,-87.78 783.61,-94.73"/>
</a>
</g>
</g>
<!-- Node21 -->
<g id="Node000021" class="node">
<title>Node21</title>
<g id="a_Node000021"><a xlink:href="namespacem__start__up.html#a029c0f28f15ce3aab7ada6d95db89688" target="_top" xlink:title=" ">
<polygon fill="white" stroke="#666666" points="393,-87.5 255,-87.5 255,-68.5 393,-68.5 393,-87.5"/>
<text text-anchor="middle" x="324" y="-75.5" font-family="Helvetica,sans-Serif" font-size="10.00">m_start_up::s_save_data</text>
</a>
</g>
</g>
<!-- Node20&#45;&gt;Node21 -->
<g id="edge29_Node000020_Node000021" class="edge">
<title>Node20&#45;&gt;Node21</title>
<g id="a_edge29_Node000020_Node000021"><a xlink:title=" ">
<path fill="none" stroke="#63b8ff" d="M793.17,-60.66C688.53,-64.54 495.52,-71.68 393.06,-75.48"/>
<polygon fill="#63b8ff" stroke="#63b8ff" points="793.45,-64.15 803.32,-60.28 793.2,-57.16 793.45,-64.15"/>
</a>
</g>
</g>
<!-- Node21&#45;&gt;Node9 -->
<g id="edge30_Node000021_Node000009" class="edge">
<title>Node21&#45;&gt;Node9</title>
<g id="a_edge30_Node000021_Node000009"><a xlink:title=" ">
<path fill="none" stroke="#63b8ff" d="M284.73,-90.82C223.52,-111.33 105.2,-150.97 53.14,-168.41"/>
<polygon fill="#63b8ff" stroke="#63b8ff" points="286.03,-94.08 294.4,-87.58 283.8,-87.44 286.03,-94.08"/>
</a>
</g>
</g>
<!-- Node23 -->
<g id="Node000023" class="node">
<title>Node23</title>
<g id="a_Node000023"><a xlink:href="namespacem__phase__change.html#a19a8a866830bfc285d631672287a851f" target="_top" xlink:title="This subroutine is created to activate either the pT&#45; (N fluids) or the pTg&#45;equilibrium (2 fluids for...">
<polygon fill="white" stroke="#666666" points="754.5,-30 602.5,-30 602.5,0 754.5,0 754.5,-30"/>
<text text-anchor="start" x="610.5" y="-18" font-family="Helvetica,sans-Serif" font-size="10.00">m_phase_change::s_infinite</text>
<text text-anchor="middle" x="678.5" y="-7" font-family="Helvetica,sans-Serif" font-size="10.00">_relaxation_k</text>
</a>
</g>
</g>
<!-- Node22&#45;&gt;Node23 -->
<g id="edge32_Node000022_Node000023" class="edge">
<title>Node22&#45;&gt;Node23</title>
<g id="a_edge32_Node000022_Node000023"><a xlink:title=" ">
<path fill="none" stroke="#63b8ff" d="M787.04,-15C776.3,-15 765.28,-15 754.59,-15"/>
<polygon fill="#63b8ff" stroke="#63b8ff" points="787.24,-18.5 797.24,-15 787.24,-11.5 787.24,-18.5"/>
</a>
</g>
</g>
</g>
</svg>
