<?xml version="1.0" encoding="UTF-8" standalone="no"?>
<!DOCTYPE svg PUBLIC "-//W3C//DTD SVG 1.1//EN"
 "http://www.w3.org/Graphics/SVG/1.1/DTD/svg11.dtd">
<!-- Generated by graphviz version 2.43.0 (0)
 -->
<!-- Title: m_mpi_common::s_initialize_mpi_data Pages: 1 -->
<svg width="1109pt" height="81pt"
 viewBox="0.00 0.00 1109.00 81.00" xmlns="http://www.w3.org/2000/svg" xmlns:xlink="http://www.w3.org/1999/xlink">
<g id="graph0" class="graph" transform="scale(1 1) rotate(0) translate(4 77)">
<title>m_mpi_common::s_initialize_mpi_data</title>
<!-- Node1 -->
<g id="Node000001" class="node">
<title>Node1</title>
<g id="a_Node000001"><a xlink:title=" ">
<polygon fill="#999999" stroke="#666666" points="1101,-51 944,-51 944,-21 1101,-21 1101,-51"/>
<text text-anchor="start" x="952" y="-39" font-family="Helvetica,sans-Serif" font-size="10.00">m_mpi_common::s_initialize</text>
<text text-anchor="middle" x="1022.5" y="-28" font-family="Helvetica,sans-Serif" font-size="10.00">_mpi_data</text>
</a>
</g>
</g>
<!-- Node2 -->
<g id="Node000002" class="node">
<title>Node2</title>
<g id="a_Node000002"><a xlink:href="namespacem__data__input.html#a5139fe69b24a1dc0e32b632e9bf5d0ee" target="_top" xlink:title="Helper subroutine to read parallel conservative variable data.">
<polygon fill="white" stroke="#666666" points="745,-51 591,-51 591,-21 745,-21 745,-51"/>
<text text-anchor="start" x="599" y="-39" font-family="Helvetica,sans-Serif" font-size="10.00">m_data_input::s_read</text>
<text text-anchor="middle" x="668" y="-28" font-family="Helvetica,sans-Serif" font-size="10.00">_parallel_conservative_data</text>
</a>
</g>
</g>
<!-- Node1&#45;&gt;Node2 -->
<g id="edge1_Node000001_Node000002" class="edge">
<title>Node1&#45;&gt;Node2</title>
<g id="a_edge1_Node000001_Node000002"><a xlink:title=" ">
<path fill="none" stroke="#63b8ff" d="M933.77,-38.55C925.06,-38.73 916.36,-38.89 908,-39 851.56,-39.75 837.44,-39.76 781,-39 769.43,-38.85 757.18,-38.6 745.21,-38.32"/>
<polygon fill="#63b8ff" stroke="#63b8ff" points="934.05,-42.04 943.97,-38.32 933.89,-35.05 934.05,-42.04"/>
</a>
</g>
</g>
<!-- Node7 -->
<g id="Node000007" class="node">
<title>Node7</title>
<g id="a_Node000007"><a xlink:href="namespacem__data__input.html#a6e65911baddf566b7a796fadcea57495" target="_top" xlink:title="Helper subroutine to setup MPI data I/O parameters.">
<polygon fill="white" stroke="#666666" points="908,-30 781,-30 781,0 908,0 908,-30"/>
<text text-anchor="start" x="789" y="-18" font-family="Helvetica,sans-Serif" font-size="10.00">m_data_input::s_setup</text>
<text text-anchor="middle" x="844.5" y="-7" font-family="Helvetica,sans-Serif" font-size="10.00">_mpi_io_params</text>
</a>
</g>
</g>
<!-- Node1&#45;&gt;Node7 -->
<g id="edge7_Node000001_Node000007" class="edge">
<title>Node1&#45;&gt;Node7</title>
<g id="a_edge7_Node000001_Node000007"><a xlink:title=" ">
<path fill="none" stroke="#63b8ff" d="M933.65,-25.52C924.99,-24.48 916.33,-23.45 908.01,-22.46"/>
<polygon fill="#63b8ff" stroke="#63b8ff" points="933.45,-29.02 943.79,-26.73 934.28,-22.07 933.45,-29.02"/>
</a>
</g>
</g>
<!-- Node3 -->
<g id="Node000003" class="node">
<title>Node3</title>
<g id="a_Node000003"><a xlink:href="namespacem__data__input.html#a1e9dfd5c6be77bbfa34abb90c77216b4" target="_top" xlink:title="This subroutine is called at each time&#45;step that has to be post&#45;processed in order to parallel&#45;read t...">
<polygon fill="white" stroke="#666666" points="555,-51 433,-51 433,-21 555,-21 555,-51"/>
<text text-anchor="start" x="441" y="-39" font-family="Helvetica,sans-Serif" font-size="10.00">m_data_input::s_read</text>
<text text-anchor="middle" x="494" y="-28" font-family="Helvetica,sans-Serif" font-size="10.00">_parallel_data_files</text>
</a>
</g>
</g>
<!-- Node2&#45;&gt;Node3 -->
<g id="edge2_Node000002_Node000003" class="edge">
<title>Node2&#45;&gt;Node3</title>
<g id="a_edge2_Node000002_Node000003"><a xlink:title=" ">
<path fill="none" stroke="#63b8ff" d="M580.68,-36C572.04,-36 563.41,-36 555.13,-36"/>
<polygon fill="#63b8ff" stroke="#63b8ff" points="580.81,-39.5 590.81,-36 580.81,-32.5 580.81,-39.5"/>
</a>
</g>
</g>
<!-- Node4 -->
<g id="Node000004" class="node">
<title>Node4</title>
<g id="a_Node000004"><a xlink:href="namespacem__data__input.html#a5746c07ce2bd024e906a721e6552443f" target="_top" xlink:title="Computation of parameters, allocation procedures, and/or any other tasks needed to properly setup the...">
<polygon fill="white" stroke="#666666" points="397,-73 255,-73 255,-43 397,-43 397,-73"/>
<text text-anchor="start" x="263" y="-61" font-family="Helvetica,sans-Serif" font-size="10.00">m_data_input::s_initialize</text>
<text text-anchor="middle" x="326" y="-50" font-family="Helvetica,sans-Serif" font-size="10.00">_data_input_module</text>
</a>
</g>
</g>
<!-- Node3&#45;&gt;Node4 -->
<g id="edge3_Node000003_Node000004" class="edge">
<title>Node3&#45;&gt;Node4</title>
<g id="a_edge3_Node000003_Node000004"><a xlink:title=" ">
<path fill="none" stroke="#63b8ff" d="M422.5,-45.34C414.13,-46.45 405.58,-47.59 397.21,-48.69"/>
<polygon fill="#63b8ff" stroke="#63b8ff" points="423.15,-48.79 432.6,-44 422.23,-41.85 423.15,-48.79"/>
</a>
</g>
</g>
<!-- Node5 -->
<g id="Node000005" class="node">
<title>Node5</title>
<g id="a_Node000005"><a xlink:href="namespacem__start__up.html#aea20fb8945d467b344a487cfe8213d99" target="_top" xlink:title=" ">
<polygon fill="white" stroke="#666666" points="219,-51 89,-51 89,-21 219,-21 219,-51"/>
<text text-anchor="start" x="97" y="-39" font-family="Helvetica,sans-Serif" font-size="10.00">m_start_up::s_initialize</text>
<text text-anchor="middle" x="154" y="-28" font-family="Helvetica,sans-Serif" font-size="10.00">_modules</text>
</a>
</g>
</g>
<!-- Node3&#45;&gt;Node5 -->
<g id="edge6_Node000003_Node000005" class="edge">
<title>Node3&#45;&gt;Node5</title>
<g id="a_edge6_Node000003_Node000005"><a xlink:title=" ">
<path fill="none" stroke="#63b8ff" d="M422.72,-34.37C414.06,-34.22 405.33,-34.09 397,-34 333.89,-33.34 318.11,-33.37 255,-34 243.37,-34.12 230.97,-34.31 219.01,-34.53"/>
<polygon fill="#63b8ff" stroke="#63b8ff" points="422.77,-37.87 432.83,-34.55 422.9,-30.87 422.77,-37.87"/>
</a>
</g>
</g>
<!-- Node4&#45;&gt;Node5 -->
<g id="edge4_Node000004_Node000005" class="edge">
<title>Node4&#45;&gt;Node5</title>
<g id="a_edge4_Node000004_Node000005"><a xlink:title=" ">
<path fill="none" stroke="#63b8ff" d="M244.85,-47.63C236.26,-46.52 227.61,-45.4 219.24,-44.31"/>
<polygon fill="#63b8ff" stroke="#63b8ff" points="244.51,-51.11 254.87,-48.92 245.4,-44.17 244.51,-51.11"/>
</a>
</g>
</g>
<!-- Node6 -->
<g id="Node000006" class="node">
<title>Node6</title>
<g id="a_Node000006"><a xlink:href="p__main_8fpp_8f90.html#aeec10ee8e2940c953967da3e374e1579" target="_top" xlink:title="The post&#45;process restructures raw unformatted data, outputted by the simulation, into a formatted dat...">
<polygon fill="white" stroke="#666666" points="53,-45.5 0,-45.5 0,-26.5 53,-26.5 53,-45.5"/>
<text text-anchor="middle" x="26.5" y="-33.5" font-family="Helvetica,sans-Serif" font-size="10.00">p_main</text>
</a>
</g>
</g>
<!-- Node5&#45;&gt;Node6 -->
<g id="edge5_Node000005_Node000006" class="edge">
<title>Node5&#45;&gt;Node6</title>
<g id="a_edge5_Node000005_Node000006"><a xlink:title=" ">
<path fill="none" stroke="#63b8ff" d="M78.74,-36C69.58,-36 60.76,-36 53.09,-36"/>
<polygon fill="#63b8ff" stroke="#63b8ff" points="78.78,-39.5 88.78,-36 78.78,-32.5 78.78,-39.5"/>
</a>
</g>
</g>
<!-- Node7&#45;&gt;Node2 -->
<g id="edge8_Node000007_Node000002" class="edge">
<title>Node7&#45;&gt;Node2</title>
<g id="a_edge8_Node000007_Node000002"><a xlink:title=" ">
<path fill="none" stroke="#63b8ff" d="M771.04,-23.72C762.47,-24.75 753.71,-25.81 745.09,-26.84"/>
<polygon fill="#63b8ff" stroke="#63b8ff" points="771.48,-27.19 780.99,-22.52 770.65,-20.24 771.48,-27.19"/>
</a>
</g>
</g>
</g>
</svg>
