<?xml version="1.0" encoding="UTF-8" standalone="no"?>
<!DOCTYPE svg PUBLIC "-//W3C//DTD SVG 1.1//EN"
 "http://www.w3.org/Graphics/SVG/1.1/DTD/svg11.dtd">
<!-- Generated by graphviz version 2.43.0 (0)
 -->
<!-- Title: m_start_up::s_save_data Pages: 1 -->
<svg width="581pt" height="1297pt"
 viewBox="0.00 0.00 581.00 1297.00" xmlns="http://www.w3.org/2000/svg" xmlns:xlink="http://www.w3.org/1999/xlink">
<g id="graph0" class="graph" transform="scale(1 1) rotate(0) translate(4 1293)">
<title>m_start_up::s_save_data</title>
<!-- Node1 -->
<g id="Node000001" class="node">
<title>Node1</title>
<g id="a_Node000001"><a xlink:title=" ">
<polygon fill="#999999" stroke="#666666" points="138,-683.5 0,-683.5 0,-664.5 138,-664.5 138,-683.5"/>
<text text-anchor="middle" x="69" y="-671.5" font-family="Helvetica,sans-Serif" font-size="10.00">m_start_up::s_save_data</text>
</a>
</g>
</g>
<!-- Node2 -->
<g id="Node000002" class="node">
<title>Node2</title>
<g id="a_Node000002"><a xlink:href="namespacem__data__output.html#a6f03e6b2d7c7f4a6a21adebf719c33f8" target="_top" xlink:title=" ">
<polygon fill="white" stroke="#666666" points="330,-1289 198,-1289 198,-1259 330,-1259 330,-1289"/>
<text text-anchor="start" x="206" y="-1277" font-family="Helvetica,sans-Serif" font-size="10.00">m_data_output::s_close</text>
<text text-anchor="middle" x="264" y="-1266" font-family="Helvetica,sans-Serif" font-size="10.00">_energy_data_file</text>
</a>
</g>
</g>
<!-- Node1&#45;&gt;Node2 -->
<g id="edge1_Node000001_Node000002" class="edge">
<title>Node1&#45;&gt;Node2</title>
<g id="a_edge1_Node000001_Node000002"><a xlink:title=" ">
<path fill="none" stroke="#63b8ff" d="M70.37,-683.65C73.2,-751.95 93.4,-1162.26 174,-1250 178.16,-1254.53 183.08,-1258.24 188.43,-1261.28"/>
<polygon fill="#63b8ff" stroke="#63b8ff" points="187.27,-1264.6 197.8,-1265.77 190.3,-1258.29 187.27,-1264.6"/>
</a>
</g>
</g>
<!-- Node3 -->
<g id="Node000003" class="node">
<title>Node3</title>
<g id="a_Node000003"><a xlink:href="namespacem__data__output.html#a72ce8acc00510d108b27c805b97ea073" target="_top" xlink:title=" ">
<polygon fill="white" stroke="#666666" points="334.5,-1241 193.5,-1241 193.5,-1211 334.5,-1211 334.5,-1241"/>
<text text-anchor="start" x="201.5" y="-1229" font-family="Helvetica,sans-Serif" font-size="10.00">m_data_output::s_close</text>
<text text-anchor="middle" x="264" y="-1218" font-family="Helvetica,sans-Serif" font-size="10.00">_formatted_database_file</text>
</a>
</g>
</g>
<!-- Node1&#45;&gt;Node3 -->
<g id="edge2_Node000001_Node000003" class="edge">
<title>Node1&#45;&gt;Node3</title>
<g id="a_edge2_Node000001_Node000003"><a xlink:title=" ">
<path fill="none" stroke="#63b8ff" d="M70.54,-683.67C74.4,-748.72 99.57,-1122.26 174,-1202 177.16,-1205.38 180.73,-1208.31 184.6,-1210.83"/>
<polygon fill="#63b8ff" stroke="#63b8ff" points="183.02,-1213.96 193.46,-1215.75 186.42,-1207.84 183.02,-1213.96"/>
</a>
</g>
</g>
<!-- Node4 -->
<g id="Node000004" class="node">
<title>Node4</title>
<g id="a_Node000004"><a xlink:href="namespacem__data__output.html#a853ee3a948f471a121cc7b0ebd825061" target="_top" xlink:title=" ">
<polygon fill="white" stroke="#666666" points="330,-1193 198,-1193 198,-1163 330,-1163 330,-1193"/>
<text text-anchor="start" x="206" y="-1181" font-family="Helvetica,sans-Serif" font-size="10.00">m_data_output::s_close</text>
<text text-anchor="middle" x="264" y="-1170" font-family="Helvetica,sans-Serif" font-size="10.00">_intf_data_file</text>
</a>
</g>
</g>
<!-- Node1&#45;&gt;Node4 -->
<g id="edge3_Node000001_Node000004" class="edge">
<title>Node1&#45;&gt;Node4</title>
<g id="a_edge3_Node000001_Node000004"><a xlink:title=" ">
<path fill="none" stroke="#63b8ff" d="M70.74,-683.58C75.68,-744.89 105.68,-1082.18 174,-1154 178.17,-1158.38 183.05,-1161.99 188.33,-1164.97"/>
<polygon fill="#63b8ff" stroke="#63b8ff" points="187.03,-1168.23 197.56,-1169.39 190.06,-1161.91 187.03,-1168.23"/>
</a>
</g>
</g>
<!-- Node5 -->
<g id="Node000005" class="node">
<title>Node5</title>
<g id="a_Node000005"><a xlink:href="namespacem__finite__differences.html#a830833416c226c73bf244dae71884211" target="_top" xlink:title="The purpose of this subroutine is to compute the finite&#45; difference coefficients for the centered sch...">
<polygon fill="white" stroke="#666666" points="344,-1144.5 184,-1144.5 184,-1103.5 344,-1103.5 344,-1144.5"/>
<text text-anchor="start" x="192" y="-1132.5" font-family="Helvetica,sans-Serif" font-size="10.00">m_finite_differences</text>
<text text-anchor="start" x="192" y="-1121.5" font-family="Helvetica,sans-Serif" font-size="10.00">::s_compute_finite_difference</text>
<text text-anchor="middle" x="264" y="-1110.5" font-family="Helvetica,sans-Serif" font-size="10.00">_coefficients</text>
</a>
</g>
</g>
<!-- Node1&#45;&gt;Node5 -->
<g id="edge4_Node000001_Node000005" class="edge">
<title>Node1&#45;&gt;Node5</title>
<g id="a_edge4_Node000001_Node000005"><a xlink:title=" ">
<path fill="none" stroke="#63b8ff" d="M71.14,-683.78C78,-740.82 115.36,-1030.31 174,-1094 174.9,-1094.98 175.83,-1095.92 176.8,-1096.84"/>
<polygon fill="#63b8ff" stroke="#63b8ff" points="174.75,-1099.69 184.72,-1103.27 179.16,-1094.25 174.75,-1099.69"/>
</a>
</g>
</g>
<!-- Node6 -->
<g id="Node000006" class="node">
<title>Node6</title>
<g id="a_Node000006"><a xlink:href="namespacem__variables__conversion.html#a812d29cc47e80e7173d8f4f877d7b6f6" target="_top" xlink:title=" ">
<polygon fill="white" stroke="#666666" points="344,-1085 184,-1085 184,-1055 344,-1055 344,-1085"/>
<text text-anchor="start" x="192" y="-1073" font-family="Helvetica,sans-Serif" font-size="10.00">m_variables_conversion</text>
<text text-anchor="middle" x="264" y="-1062" font-family="Helvetica,sans-Serif" font-size="10.00">::s_compute_speed_of_sound</text>
</a>
</g>
</g>
<!-- Node1&#45;&gt;Node6 -->
<g id="edge5_Node000001_Node000006" class="edge">
<title>Node1&#45;&gt;Node6</title>
<g id="a_edge5_Node000001_Node000006"><a xlink:title=" ">
<path fill="none" stroke="#63b8ff" d="M69.51,-683.73C67.71,-731.08 66.34,-939.33 174,-1046 174.96,-1046.95 175.95,-1047.86 176.97,-1048.74"/>
<polygon fill="#63b8ff" stroke="#63b8ff" points="175.2,-1051.78 185.35,-1054.81 179.31,-1046.11 175.2,-1051.78"/>
</a>
</g>
</g>
<!-- Node7 -->
<g id="Node000007" class="node">
<title>Node7</title>
<g id="a_Node000007"><a xlink:href="namespacem__compile__specific.html#aa1b4e12a20e09147a215c3b5018484b0" target="_top" xlink:title="Creates a directory and all its parents if it does not exist.">
<polygon fill="white" stroke="#666666" points="320.5,-1037 207.5,-1037 207.5,-1007 320.5,-1007 320.5,-1037"/>
<text text-anchor="start" x="215.5" y="-1025" font-family="Helvetica,sans-Serif" font-size="10.00">m_compile_specific</text>
<text text-anchor="middle" x="264" y="-1014" font-family="Helvetica,sans-Serif" font-size="10.00">::s_create_directory</text>
</a>
</g>
</g>
<!-- Node1&#45;&gt;Node7 -->
<g id="edge6_Node000001_Node000007" class="edge">
<title>Node1&#45;&gt;Node7</title>
<g id="a_edge6_Node000001_Node000007"><a xlink:title=" ">
<path fill="none" stroke="#63b8ff" d="M69.98,-683.64C70.44,-727.1 78.25,-906.66 174,-998 180.72,-1004.41 188.96,-1009.14 197.7,-1012.64"/>
<polygon fill="#63b8ff" stroke="#63b8ff" points="196.72,-1016 207.32,-1015.96 199.01,-1009.39 196.72,-1016"/>
</a>
</g>
</g>
<!-- Node8 -->
<g id="Node000008" class="node">
<title>Node8</title>
<g id="a_Node000008"><a xlink:href="namespacem__data__output.html#a9d394c66fd26b99dd4c0765df5b6a5c4" target="_top" xlink:title=" ">
<polygon fill="white" stroke="#666666" points="332.5,-989 195.5,-989 195.5,-959 332.5,-959 332.5,-989"/>
<text text-anchor="start" x="203.5" y="-977" font-family="Helvetica,sans-Serif" font-size="10.00">m_data_output::s_define</text>
<text text-anchor="middle" x="264" y="-966" font-family="Helvetica,sans-Serif" font-size="10.00">_output_region</text>
</a>
</g>
</g>
<!-- Node1&#45;&gt;Node8 -->
<g id="edge7_Node000001_Node000008" class="edge">
<title>Node1&#45;&gt;Node8</title>
<g id="a_edge7_Node000001_Node000008"><a xlink:title=" ">
<path fill="none" stroke="#63b8ff" d="M70.58,-683.53C73.5,-722.83 90.01,-873.78 174,-950 177.66,-953.32 181.73,-956.19 186.06,-958.67"/>
<polygon fill="#63b8ff" stroke="#63b8ff" points="184.75,-961.92 195.26,-963.22 187.85,-955.65 184.75,-961.92"/>
</a>
</g>
</g>
<!-- Node9 -->
<g id="Node000009" class="node">
<title>Node9</title>
<g id="a_Node000009"><a xlink:href="namespacem__compile__specific.html#a0adef25da3c26cee8c65b6d625615c82" target="_top" xlink:title=" ">
<polygon fill="white" stroke="#666666" points="320.5,-941 207.5,-941 207.5,-911 320.5,-911 320.5,-941"/>
<text text-anchor="start" x="215.5" y="-929" font-family="Helvetica,sans-Serif" font-size="10.00">m_compile_specific</text>
<text text-anchor="middle" x="264" y="-918" font-family="Helvetica,sans-Serif" font-size="10.00">::s_delete_file</text>
</a>
</g>
</g>
<!-- Node1&#45;&gt;Node9 -->
<g id="edge8_Node000001_Node000009" class="edge">
<title>Node1&#45;&gt;Node9</title>
<g id="a_edge8_Node000001_Node000009"><a xlink:title=" ">
<path fill="none" stroke="#63b8ff" d="M71.41,-683.53C77.1,-718.46 101.65,-840.67 174,-902 180.83,-907.79 188.92,-912.19 197.41,-915.54"/>
<polygon fill="#63b8ff" stroke="#63b8ff" points="196.5,-918.93 207.1,-918.89 198.79,-912.32 196.5,-918.93"/>
</a>
</g>
</g>
<!-- Node10 -->
<g id="Node000010" class="node">
<title>Node10</title>
<g id="a_Node000010"><a xlink:href="namespacem__derived__variables.html#ac85e77b0312f21389eb166960446f6ec" target="_top" xlink:title="This subroutine derives the flux_limiter at cell boundary i+1/2. This is an approximation because the...">
<polygon fill="white" stroke="#666666" points="326.5,-893 201.5,-893 201.5,-863 326.5,-863 326.5,-893"/>
<text text-anchor="start" x="209.5" y="-881" font-family="Helvetica,sans-Serif" font-size="10.00">m_derived_variables</text>
<text text-anchor="middle" x="264" y="-870" font-family="Helvetica,sans-Serif" font-size="10.00">::s_derive_flux_limiter</text>
</a>
</g>
</g>
<!-- Node1&#45;&gt;Node10 -->
<g id="edge9_Node000001_Node000010" class="edge">
<title>Node1&#45;&gt;Node10</title>
<g id="a_edge9_Node000001_Node000010"><a xlink:title=" ">
<path fill="none" stroke="#63b8ff" d="M72.66,-683.56C81.53,-713.66 113.04,-807.16 174,-854 179.37,-858.13 185.4,-861.55 191.72,-864.38"/>
<polygon fill="#63b8ff" stroke="#63b8ff" points="190.56,-867.68 201.15,-868.12 193.15,-861.18 190.56,-867.68"/>
</a>
</g>
</g>
<!-- Node12 -->
<g id="Node000012" class="node">
<title>Node12</title>
<g id="a_Node000012"><a xlink:href="namespacem__derived__variables.html#a4787078e769104be57579c411e7d6e2a" target="_top" xlink:title="This subroutine admits as inputs the specific heat ratio function and the liquid stiffness function,...">
<polygon fill="white" stroke="#666666" points="335.5,-845 192.5,-845 192.5,-815 335.5,-815 335.5,-845"/>
<text text-anchor="start" x="200.5" y="-833" font-family="Helvetica,sans-Serif" font-size="10.00">m_derived_variables</text>
<text text-anchor="middle" x="264" y="-822" font-family="Helvetica,sans-Serif" font-size="10.00">::s_derive_liquid_stiffness</text>
</a>
</g>
</g>
<!-- Node1&#45;&gt;Node12 -->
<g id="edge11_Node000001_Node000012" class="edge">
<title>Node1&#45;&gt;Node12</title>
<g id="a_edge11_Node000001_Node000012"><a xlink:title=" ">
<path fill="none" stroke="#63b8ff" d="M74.8,-683.71C87.42,-708.23 124.09,-773.05 174,-806 176.89,-807.91 179.93,-809.67 183.07,-811.29"/>
<polygon fill="#63b8ff" stroke="#63b8ff" points="181.61,-814.47 192.16,-815.49 184.55,-808.11 181.61,-814.47"/>
</a>
</g>
</g>
<!-- Node13 -->
<g id="Node000013" class="node">
<title>Node13</title>
<g id="a_Node000013"><a xlink:href="namespacem__derived__variables.html#a3b62ebc7a990612b539c29a6b07667aa" target="_top" xlink:title="This subroutine gets as inputs the primitive variables. From those inputs, it proceeds to calculate t...">
<polygon fill="white" stroke="#666666" points="323.5,-797 204.5,-797 204.5,-767 323.5,-767 323.5,-797"/>
<text text-anchor="start" x="212.5" y="-785" font-family="Helvetica,sans-Serif" font-size="10.00">m_derived_variables</text>
<text text-anchor="middle" x="264" y="-774" font-family="Helvetica,sans-Serif" font-size="10.00">::s_derive_liutex</text>
</a>
</g>
</g>
<!-- Node1&#45;&gt;Node13 -->
<g id="edge12_Node000001_Node000013" class="edge">
<title>Node1&#45;&gt;Node13</title>
<g id="a_edge12_Node000001_Node000013"><a xlink:title=" ">
<path fill="none" stroke="#63b8ff" d="M79.07,-683.6C96.05,-701.02 134.51,-737.87 174,-758 180.47,-761.3 187.44,-764.18 194.54,-766.69"/>
<polygon fill="#63b8ff" stroke="#63b8ff" points="193.65,-770.09 204.25,-769.89 195.84,-763.44 193.65,-770.09"/>
</a>
</g>
</g>
<!-- Node14 -->
<g id="Node000014" class="node">
<title>Node14</title>
<g id="a_Node000014"><a xlink:href="namespacem__derived__variables.html#ac3dc133ba9fba88ec6fbfa312760d018" target="_top" xlink:title="This subroutine gets as inputs the conservative variables and density. From those inputs,...">
<polygon fill="white" stroke="#666666" points="323.5,-748.5 204.5,-748.5 204.5,-707.5 323.5,-707.5 323.5,-748.5"/>
<text text-anchor="start" x="212.5" y="-736.5" font-family="Helvetica,sans-Serif" font-size="10.00">m_derived_variables</text>
<text text-anchor="start" x="212.5" y="-725.5" font-family="Helvetica,sans-Serif" font-size="10.00">::s_derive_numerical</text>
<text text-anchor="middle" x="264" y="-714.5" font-family="Helvetica,sans-Serif" font-size="10.00">_schlieren_function</text>
</a>
</g>
</g>
<!-- Node1&#45;&gt;Node14 -->
<g id="edge13_Node000001_Node000014" class="edge">
<title>Node1&#45;&gt;Node14</title>
<g id="a_edge13_Node000001_Node000014"><a xlink:title=" ">
<path fill="none" stroke="#63b8ff" d="M104.06,-683.53C129.06,-690.52 163.85,-700.26 194.52,-708.84"/>
<polygon fill="#63b8ff" stroke="#63b8ff" points="193.73,-712.25 204.31,-711.58 195.62,-705.51 193.73,-712.25"/>
</a>
</g>
</g>
<!-- Node15 -->
<g id="Node000015" class="node">
<title>Node15</title>
<g id="a_Node000015"><a xlink:href="namespacem__derived__variables.html#ae0ac63f6066331314e3ff19a123deaa1" target="_top" xlink:title="This subroutine gets as inputs the primitive variables. From those inputs, it proceeds to calculate t...">
<polygon fill="white" stroke="#666666" points="323.5,-689 204.5,-689 204.5,-659 323.5,-659 323.5,-689"/>
<text text-anchor="start" x="212.5" y="-677" font-family="Helvetica,sans-Serif" font-size="10.00">m_derived_variables</text>
<text text-anchor="middle" x="264" y="-666" font-family="Helvetica,sans-Serif" font-size="10.00">::s_derive_qm</text>
</a>
</g>
</g>
<!-- Node1&#45;&gt;Node15 -->
<g id="edge14_Node000001_Node000015" class="edge">
<title>Node1&#45;&gt;Node15</title>
<g id="a_edge14_Node000001_Node000015"><a xlink:title=" ">
<path fill="none" stroke="#63b8ff" d="M138.04,-674C156.18,-674 175.79,-674 193.98,-674"/>
<polygon fill="#63b8ff" stroke="#63b8ff" points="194.21,-677.5 204.21,-674 194.21,-670.5 194.21,-677.5"/>
</a>
</g>
</g>
<!-- Node16 -->
<g id="Node000016" class="node">
<title>Node16</title>
<g id="a_Node000016"><a xlink:href="namespacem__derived__variables.html#a40c4c0bb139b56e00ea765579d13bfd6" target="_top" xlink:title="This subroutine receives as input the specific heat ratio function, gamma_sf, and derives from it the...">
<polygon fill="white" stroke="#666666" points="323.5,-640.5 204.5,-640.5 204.5,-599.5 323.5,-599.5 323.5,-640.5"/>
<text text-anchor="start" x="212.5" y="-628.5" font-family="Helvetica,sans-Serif" font-size="10.00">m_derived_variables</text>
<text text-anchor="start" x="212.5" y="-617.5" font-family="Helvetica,sans-Serif" font-size="10.00">::s_derive_specific</text>
<text text-anchor="middle" x="264" y="-606.5" font-family="Helvetica,sans-Serif" font-size="10.00">_heat_ratio</text>
</a>
</g>
</g>
<!-- Node1&#45;&gt;Node16 -->
<g id="edge15_Node000001_Node000016" class="edge">
<title>Node1&#45;&gt;Node16</title>
<g id="a_edge15_Node000001_Node000016"><a xlink:title=" ">
<path fill="none" stroke="#63b8ff" d="M104.06,-664.47C129.06,-657.48 163.85,-647.74 194.52,-639.16"/>
<polygon fill="#63b8ff" stroke="#63b8ff" points="195.62,-642.49 204.31,-636.42 193.73,-635.75 195.62,-642.49"/>
</a>
</g>
</g>
<!-- Node17 -->
<g id="Node000017" class="node">
<title>Node17</title>
<g id="a_Node000017"><a xlink:href="namespacem__derived__variables.html#aa038ec37a8a0c8fe8d7185b9ef6d54a9" target="_top" xlink:title="This subroutine receives as inputs the indicator of the component of the vorticity that should be out...">
<polygon fill="white" stroke="#666666" points="323.5,-581.5 204.5,-581.5 204.5,-540.5 323.5,-540.5 323.5,-581.5"/>
<text text-anchor="start" x="212.5" y="-569.5" font-family="Helvetica,sans-Serif" font-size="10.00">m_derived_variables</text>
<text text-anchor="start" x="212.5" y="-558.5" font-family="Helvetica,sans-Serif" font-size="10.00">::s_derive_vorticity</text>
<text text-anchor="middle" x="264" y="-547.5" font-family="Helvetica,sans-Serif" font-size="10.00">_component</text>
</a>
</g>
</g>
<!-- Node1&#45;&gt;Node17 -->
<g id="edge16_Node000001_Node000017" class="edge">
<title>Node1&#45;&gt;Node17</title>
<g id="a_edge16_Node000001_Node000017"><a xlink:title=" ">
<path fill="none" stroke="#63b8ff" d="M79.49,-664.49C96.84,-647.56 135.47,-612.02 174,-591 180.5,-587.46 187.48,-584.23 194.59,-581.31"/>
<polygon fill="#63b8ff" stroke="#63b8ff" points="196.26,-584.42 204.31,-577.53 193.72,-577.89 196.26,-584.42"/>
</a>
</g>
</g>
<!-- Node18 -->
<g id="Node000018" class="node">
<title>Node18</title>
<g id="a_Node000018"><a xlink:href="namespacem__start__up.html#a236e81379b1a1a1d2bc5b8015d79ec9b" target="_top" xlink:title=" ">
<polygon fill="white" stroke="#666666" points="336.5,-522.5 191.5,-522.5 191.5,-503.5 336.5,-503.5 336.5,-522.5"/>
<text text-anchor="middle" x="264" y="-510.5" font-family="Helvetica,sans-Serif" font-size="10.00">m_start_up::s_mpi_fft_fwd</text>
</a>
</g>
</g>
<!-- Node1&#45;&gt;Node18 -->
<g id="edge17_Node000001_Node000018" class="edge">
<title>Node1&#45;&gt;Node18</title>
<g id="a_edge17_Node000001_Node000018"><a xlink:title=" ">
<path fill="none" stroke="#63b8ff" d="M74.14,-664.16C85.68,-638 120.9,-566.37 174,-532 177.17,-529.95 180.53,-528.11 184,-526.47"/>
<polygon fill="#63b8ff" stroke="#63b8ff" points="185.54,-529.62 193.45,-522.57 182.87,-523.15 185.54,-529.62"/>
</a>
</g>
</g>
<!-- Node21 -->
<g id="Node000021" class="node">
<title>Node21</title>
<g id="a_Node000021"><a xlink:href="namespacem__data__output.html#a39d0a9b6b516d8b9fd81f5b811bbf509" target="_top" xlink:title=" ">
<polygon fill="white" stroke="#666666" points="329.5,-485 198.5,-485 198.5,-455 329.5,-455 329.5,-485"/>
<text text-anchor="start" x="206.5" y="-473" font-family="Helvetica,sans-Serif" font-size="10.00">m_data_output::s_open</text>
<text text-anchor="middle" x="264" y="-462" font-family="Helvetica,sans-Serif" font-size="10.00">_energy_data_file</text>
</a>
</g>
</g>
<!-- Node1&#45;&gt;Node21 -->
<g id="edge20_Node000001_Node000021" class="edge">
<title>Node1&#45;&gt;Node21</title>
<g id="a_edge20_Node000001_Node000021"><a xlink:title=" ">
<path fill="none" stroke="#63b8ff" d="M72.82,-664.09C81.97,-633.8 113.77,-541.67 174,-495 178.63,-491.41 183.75,-488.34 189.13,-485.7"/>
<polygon fill="#63b8ff" stroke="#63b8ff" points="190.61,-488.88 198.38,-481.68 187.82,-482.46 190.61,-488.88"/>
</a>
</g>
</g>
<!-- Node22 -->
<g id="Node000022" class="node">
<title>Node22</title>
<g id="a_Node000022"><a xlink:href="namespacem__data__output.html#a85116323b58eb2fe6292647b9682d06d" target="_top" xlink:title=" ">
<polygon fill="white" stroke="#666666" points="334.5,-437 193.5,-437 193.5,-407 334.5,-407 334.5,-437"/>
<text text-anchor="start" x="201.5" y="-425" font-family="Helvetica,sans-Serif" font-size="10.00">m_data_output::s_open</text>
<text text-anchor="middle" x="264" y="-414" font-family="Helvetica,sans-Serif" font-size="10.00">_formatted_database_file</text>
</a>
</g>
</g>
<!-- Node1&#45;&gt;Node22 -->
<g id="edge21_Node000001_Node000022" class="edge">
<title>Node1&#45;&gt;Node22</title>
<g id="a_edge21_Node000001_Node000022"><a xlink:title=" ">
<path fill="none" stroke="#63b8ff" d="M71.41,-664.47C77.1,-629.54 101.65,-507.33 174,-446 177.23,-443.26 180.74,-440.84 184.44,-438.69"/>
<polygon fill="#63b8ff" stroke="#63b8ff" points="186.04,-441.8 193.37,-434.15 182.87,-435.56 186.04,-441.8"/>
</a>
</g>
</g>
<!-- Node23 -->
<g id="Node000023" class="node">
<title>Node23</title>
<g id="a_Node000023"><a xlink:href="namespacem__data__output.html#a3a7e2018fb2d4b7848d9065cf1e00043" target="_top" xlink:title=" ">
<polygon fill="white" stroke="#666666" points="329.5,-389 198.5,-389 198.5,-359 329.5,-359 329.5,-389"/>
<text text-anchor="start" x="206.5" y="-377" font-family="Helvetica,sans-Serif" font-size="10.00">m_data_output::s_open</text>
<text text-anchor="middle" x="264" y="-366" font-family="Helvetica,sans-Serif" font-size="10.00">_intf_data_file</text>
</a>
</g>
</g>
<!-- Node1&#45;&gt;Node23 -->
<g id="edge22_Node000001_Node000023" class="edge">
<title>Node1&#45;&gt;Node23</title>
<g id="a_edge22_Node000001_Node000023"><a xlink:title=" ">
<path fill="none" stroke="#63b8ff" d="M70.58,-664.47C73.5,-625.17 90.01,-474.22 174,-398 178.48,-393.94 183.58,-390.55 189.01,-387.73"/>
<polygon fill="#63b8ff" stroke="#63b8ff" points="190.74,-390.79 198.42,-383.49 187.87,-384.4 190.74,-390.79"/>
</a>
</g>
</g>
<!-- Node24 -->
<g id="Node000024" class="node">
<title>Node24</title>
<g id="a_Node000024"><a xlink:href="namespacem__data__output.html#a46f36ecca7ea4f45bba6abddb3b01e7b" target="_top" xlink:title=" ">
<polygon fill="white" stroke="#666666" points="329.5,-341 198.5,-341 198.5,-311 329.5,-311 329.5,-341"/>
<text text-anchor="start" x="206.5" y="-329" font-family="Helvetica,sans-Serif" font-size="10.00">m_data_output::s_write</text>
<text text-anchor="middle" x="264" y="-318" font-family="Helvetica,sans-Serif" font-size="10.00">_energy_data_file</text>
</a>
</g>
</g>
<!-- Node1&#45;&gt;Node24 -->
<g id="edge23_Node000001_Node000024" class="edge">
<title>Node1&#45;&gt;Node24</title>
<g id="a_edge23_Node000001_Node000024"><a xlink:title=" ">
<path fill="none" stroke="#63b8ff" d="M69.98,-664.36C70.44,-620.9 78.25,-441.34 174,-350 178.38,-345.83 183.4,-342.36 188.79,-339.49"/>
<polygon fill="#63b8ff" stroke="#63b8ff" points="190.52,-342.54 198.14,-335.19 187.59,-336.18 190.52,-342.54"/>
</a>
</g>
</g>
<!-- Node25 -->
<g id="Node000025" class="node">
<title>Node25</title>
<g id="a_Node000025"><a xlink:href="namespacem__data__output.html#a00a1df7dd9a54fe10ae510fc59f56c7f" target="_top" xlink:title=" ">
<polygon fill="white" stroke="#666666" points="354,-293 174,-293 174,-263 354,-263 354,-293"/>
<text text-anchor="start" x="182" y="-281" font-family="Helvetica,sans-Serif" font-size="10.00">m_data_output::s_write</text>
<text text-anchor="middle" x="264" y="-270" font-family="Helvetica,sans-Serif" font-size="10.00">_grid_to_formatted_database_file</text>
</a>
</g>
</g>
<!-- Node1&#45;&gt;Node25 -->
<g id="edge24_Node000001_Node000025" class="edge">
<title>Node1&#45;&gt;Node25</title>
<g id="a_edge24_Node000001_Node000025"><a xlink:title=" ">
<path fill="none" stroke="#63b8ff" d="M69.51,-664.27C67.71,-616.92 66.34,-408.67 174,-302 174.96,-301.05 175.95,-300.14 176.97,-299.26"/>
<polygon fill="#63b8ff" stroke="#63b8ff" points="179.31,-301.89 185.35,-293.19 175.2,-296.22 179.31,-301.89"/>
</a>
</g>
</g>
<!-- Node28 -->
<g id="Node000028" class="node">
<title>Node28</title>
<g id="a_Node000028"><a xlink:href="namespacem__data__output.html#a4ff7f31077c26f589e452791649af471" target="_top" xlink:title=" ">
<polygon fill="white" stroke="#666666" points="329.5,-245 198.5,-245 198.5,-215 329.5,-215 329.5,-245"/>
<text text-anchor="start" x="206.5" y="-233" font-family="Helvetica,sans-Serif" font-size="10.00">m_data_output::s_write</text>
<text text-anchor="middle" x="264" y="-222" font-family="Helvetica,sans-Serif" font-size="10.00">_intf_data_file</text>
</a>
</g>
</g>
<!-- Node1&#45;&gt;Node28 -->
<g id="edge27_Node000001_Node000028" class="edge">
<title>Node1&#45;&gt;Node28</title>
<g id="a_edge27_Node000001_Node000028"><a xlink:title=" ">
<path fill="none" stroke="#63b8ff" d="M71.09,-664.17C77.62,-606.82 113.42,-315.85 174,-254 178.3,-249.61 183.32,-245.99 188.74,-243.02"/>
<polygon fill="#63b8ff" stroke="#63b8ff" points="190.61,-246.01 198.19,-238.6 187.65,-239.67 190.61,-246.01"/>
</a>
</g>
</g>
<!-- Node29 -->
<g id="Node000029" class="node">
<title>Node29</title>
<g id="a_Node000029"><a xlink:href="namespacem__data__output.html#a8740dbd203f9e9c054ceac628fcb53c2" target="_top" xlink:title="Subroutine that writes the post processed results in the folder &#39;lag_bubbles_data&#39;.">
<polygon fill="white" stroke="#666666" points="343,-197 185,-197 185,-167 343,-167 343,-197"/>
<text text-anchor="start" x="193" y="-185" font-family="Helvetica,sans-Serif" font-size="10.00">m_data_output::s_write</text>
<text text-anchor="middle" x="264" y="-174" font-family="Helvetica,sans-Serif" font-size="10.00">_lag_bubbles_results_to_text</text>
</a>
</g>
</g>
<!-- Node1&#45;&gt;Node29 -->
<g id="edge28_Node000001_Node000029" class="edge">
<title>Node1&#45;&gt;Node29</title>
<g id="a_edge28_Node000001_Node000029"><a xlink:title=" ">
<path fill="none" stroke="#63b8ff" d="M70.81,-664.27C76.07,-603.45 107.27,-275.78 174,-206 174.8,-205.16 175.63,-204.35 176.48,-203.57"/>
<polygon fill="#63b8ff" stroke="#63b8ff" points="178.93,-206.1 184.73,-197.23 174.67,-200.55 178.93,-206.1"/>
</a>
</g>
</g>
<!-- Node30 -->
<g id="Node000030" class="node">
<title>Node30</title>
<g id="a_Node000030"><a xlink:href="namespacem__data__output.html#a4b51c66195d7d2c5d6b8b504783621f9" target="_top" xlink:title=" ">
<polygon fill="white" stroke="#666666" points="338.5,-148.5 189.5,-148.5 189.5,-107.5 338.5,-107.5 338.5,-148.5"/>
<text text-anchor="start" x="197.5" y="-136.5" font-family="Helvetica,sans-Serif" font-size="10.00">m_data_output::s_write</text>
<text text-anchor="start" x="197.5" y="-125.5" font-family="Helvetica,sans-Serif" font-size="10.00">_lag_bubbles_to_formatted</text>
<text text-anchor="middle" x="264" y="-114.5" font-family="Helvetica,sans-Serif" font-size="10.00">_database_file</text>
</a>
</g>
</g>
<!-- Node1&#45;&gt;Node30 -->
<g id="edge29_Node000001_Node000030" class="edge">
<title>Node1&#45;&gt;Node30</title>
<g id="a_edge29_Node000001_Node000030"><a xlink:title=" ">
<path fill="none" stroke="#63b8ff" d="M70.66,-664.19C75.2,-599.8 103.62,-237.88 174,-158 176.21,-155.49 178.64,-153.19 181.23,-151.09"/>
<polygon fill="#63b8ff" stroke="#63b8ff" points="183.28,-153.92 189.47,-145.32 179.27,-148.19 183.28,-153.92"/>
</a>
</g>
</g>
<!-- Node32 -->
<g id="Node000032" class="node">
<title>Node32</title>
<g id="a_Node000032"><a xlink:href="namespacem__data__output.html#a342bb45ac15ca3a5da40fc6e2c8434bd" target="_top" xlink:title=" ">
<polygon fill="white" stroke="#666666" points="329.5,-89.5 198.5,-89.5 198.5,-48.5 329.5,-48.5 329.5,-89.5"/>
<text text-anchor="start" x="206.5" y="-77.5" font-family="Helvetica,sans-Serif" font-size="10.00">m_data_output::s_write</text>
<text text-anchor="start" x="206.5" y="-66.5" font-family="Helvetica,sans-Serif" font-size="10.00">_variable_to_formatted</text>
<text text-anchor="middle" x="264" y="-55.5" font-family="Helvetica,sans-Serif" font-size="10.00">_database_file</text>
</a>
</g>
</g>
<!-- Node1&#45;&gt;Node32 -->
<g id="edge31_Node000001_Node000032" class="edge">
<title>Node1&#45;&gt;Node32</title>
<g id="a_edge31_Node000001_Node000032"><a xlink:title=" ">
<path fill="none" stroke="#63b8ff" d="M70.43,-664.42C73.68,-596.59 96.26,-189.02 174,-99 178.27,-94.06 183.37,-89.93 188.96,-86.48"/>
<polygon fill="#63b8ff" stroke="#63b8ff" points="190.91,-89.41 198.07,-81.6 187.6,-83.24 190.91,-89.41"/>
</a>
</g>
</g>
<!-- Node11 -->
<g id="Node000011" class="node">
<title>Node11</title>
<g id="a_Node000011"><a xlink:href="namespacem__helper__basic.html#a3f0eae73a833f30924d4b2665a13a429" target="_top" xlink:title="This procedure checks if two floating point numbers of wp are within tolerance.">
<polygon fill="white" stroke="#666666" points="552.5,-893 410.5,-893 410.5,-863 552.5,-863 552.5,-893"/>
<text text-anchor="start" x="418.5" y="-881" font-family="Helvetica,sans-Serif" font-size="10.00">m_helper_basic::f_approx</text>
<text text-anchor="middle" x="481.5" y="-870" font-family="Helvetica,sans-Serif" font-size="10.00">_equal</text>
</a>
</g>
</g>
<!-- Node10&#45;&gt;Node11 -->
<g id="edge10_Node000010_Node000011" class="edge">
<title>Node10&#45;&gt;Node11</title>
<g id="a_edge10_Node000010_Node000011"><a xlink:title=" ">
<path fill="none" stroke="#63b8ff" d="M326.75,-878C349.61,-878 375.86,-878 400.13,-878"/>
<polygon fill="#63b8ff" stroke="#63b8ff" points="400.39,-881.5 410.39,-878 400.39,-874.5 400.39,-881.5"/>
</a>
</g>
</g>
<!-- Node19 -->
<g id="Node000019" class="node">
<title>Node19</title>
<g id="a_Node000019"><a xlink:href="namespacem__start__up.html#ad77380e95bac4295091e2d5ddbdfe5c6" target="_top" xlink:title=" ">
<polygon fill="white" stroke="#666666" points="573,-540.5 390,-540.5 390,-521.5 573,-521.5 573,-540.5"/>
<text text-anchor="middle" x="481.5" y="-528.5" font-family="Helvetica,sans-Serif" font-size="10.00">m_start_up::s_mpi_transpose_x2y</text>
</a>
</g>
</g>
<!-- Node18&#45;&gt;Node19 -->
<g id="edge18_Node000018_Node000019" class="edge">
<title>Node18&#45;&gt;Node19</title>
<g id="a_edge18_Node000018_Node000019"><a xlink:title=" ">
<path fill="none" stroke="#63b8ff" d="M336.76,-518.99C350.59,-520.15 365.31,-521.38 379.86,-522.59"/>
<polygon fill="#63b8ff" stroke="#63b8ff" points="379.63,-526.09 389.89,-523.43 380.21,-519.11 379.63,-526.09"/>
</a>
</g>
</g>
<!-- Node20 -->
<g id="Node000020" class="node">
<title>Node20</title>
<g id="a_Node000020"><a xlink:href="namespacem__start__up.html#ae3d696cd8b47129a54f6ce8c2592d6af" target="_top" xlink:title=" ">
<polygon fill="white" stroke="#666666" points="572.5,-503.5 390.5,-503.5 390.5,-484.5 572.5,-484.5 572.5,-503.5"/>
<text text-anchor="middle" x="481.5" y="-491.5" font-family="Helvetica,sans-Serif" font-size="10.00">m_start_up::s_mpi_transpose_y2z</text>
</a>
</g>
</g>
<!-- Node18&#45;&gt;Node20 -->
<g id="edge19_Node000018_Node000020" class="edge">
<title>Node18&#45;&gt;Node20</title>
<g id="a_edge19_Node000018_Node000020"><a xlink:title=" ">
<path fill="none" stroke="#63b8ff" d="M336.76,-506.67C350.69,-505.45 365.52,-504.14 380.17,-502.85"/>
<polygon fill="#63b8ff" stroke="#63b8ff" points="380.62,-506.32 390.27,-501.96 380,-499.35 380.62,-506.32"/>
</a>
</g>
</g>
<!-- Node26 -->
<g id="Node000026" class="node">
<title>Node26</title>
<g id="a_Node000026"><a xlink:href="namespacem__mpi__proxy.html#a299d031910ff031e09a70e325fc69813" target="_top" xlink:title="This subroutine collects the sub&#45;domain cell&#45;boundary or cell&#45;center locations data from all of the p...">
<polygon fill="white" stroke="#666666" points="541.5,-325.5 421.5,-325.5 421.5,-284.5 541.5,-284.5 541.5,-325.5"/>
<text text-anchor="start" x="429.5" y="-313.5" font-family="Helvetica,sans-Serif" font-size="10.00">m_mpi_proxy::s_mpi</text>
<text text-anchor="start" x="429.5" y="-302.5" font-family="Helvetica,sans-Serif" font-size="10.00">_defragment_1d_grid</text>
<text text-anchor="middle" x="481.5" y="-291.5" font-family="Helvetica,sans-Serif" font-size="10.00">_variable</text>
</a>
</g>
</g>
<!-- Node25&#45;&gt;Node26 -->
<g id="edge25_Node000025_Node000026" class="edge">
<title>Node25&#45;&gt;Node26</title>
<g id="a_edge25_Node000025_Node000026"><a xlink:title=" ">
<path fill="none" stroke="#63b8ff" d="M354.21,-289.18C373.36,-291.58 393.31,-294.08 411.55,-296.36"/>
<polygon fill="#63b8ff" stroke="#63b8ff" points="411.14,-299.84 421.5,-297.61 412.01,-292.89 411.14,-299.84"/>
</a>
</g>
</g>
<!-- Node27 -->
<g id="Node000027" class="node">
<title>Node27</title>
<g id="a_Node000027"><a xlink:href="namespacem__mpi__proxy.html#a2c7826d6e0b57eda2cb47f817bddc243" target="_top" xlink:title="This subroutine gathers the Silo database metadata for the spatial extents in order to boost the perf...">
<polygon fill="white" stroke="#666666" points="548.5,-266 414.5,-266 414.5,-236 548.5,-236 548.5,-266"/>
<text text-anchor="start" x="422.5" y="-254" font-family="Helvetica,sans-Serif" font-size="10.00">m_mpi_proxy::s_mpi</text>
<text text-anchor="middle" x="481.5" y="-243" font-family="Helvetica,sans-Serif" font-size="10.00">_gather_spatial_extents</text>
</a>
</g>
</g>
<!-- Node25&#45;&gt;Node27 -->
<g id="edge26_Node000025_Node000027" class="edge">
<title>Node25&#45;&gt;Node27</title>
<g id="a_edge26_Node000025_Node000027"><a xlink:title=" ">
<path fill="none" stroke="#63b8ff" d="M354.21,-266.82C370.89,-264.73 388.19,-262.57 404.43,-260.53"/>
<polygon fill="#63b8ff" stroke="#63b8ff" points="404.91,-264 414.39,-259.28 404.04,-257.05 404.91,-264"/>
</a>
</g>
</g>
<!-- Node31 -->
<g id="Node000031" class="node">
<title>Node31</title>
<g id="a_Node000031"><a xlink:href="namespacem__data__output.html#ade07913434048799e610ebd64584658d" target="_top" xlink:title=" ">
<polygon fill="white" stroke="#666666" points="557,-148.5 406,-148.5 406,-107.5 557,-107.5 557,-148.5"/>
<text text-anchor="start" x="414" y="-136.5" font-family="Helvetica,sans-Serif" font-size="10.00">m_data_output::s_write</text>
<text text-anchor="start" x="414" y="-125.5" font-family="Helvetica,sans-Serif" font-size="10.00">_lag_variable_to_formatted</text>
<text text-anchor="middle" x="481.5" y="-114.5" font-family="Helvetica,sans-Serif" font-size="10.00">_database_file</text>
</a>
</g>
</g>
<!-- Node30&#45;&gt;Node31 -->
<g id="edge30_Node000030_Node000031" class="edge">
<title>Node30&#45;&gt;Node31</title>
<g id="a_edge30_Node000030_Node000031"><a xlink:title=" ">
<path fill="none" stroke="#63b8ff" d="M338.56,-128C356.96,-128 376.84,-128 395.73,-128"/>
<polygon fill="#63b8ff" stroke="#63b8ff" points="395.81,-131.5 405.81,-128 395.81,-124.5 395.81,-131.5"/>
</a>
</g>
</g>
<!-- Node33 -->
<g id="Node000033" class="node">
<title>Node33</title>
<g id="a_Node000033"><a xlink:href="namespacem__mpi__proxy.html#a2a79b3fb576611da5ac91eb46e50b9c8" target="_top" xlink:title="This subroutine gathers the sub&#45;domain flow variable data from all of the processors and puts it back...">
<polygon fill="white" stroke="#666666" points="542.5,-89.5 420.5,-89.5 420.5,-48.5 542.5,-48.5 542.5,-89.5"/>
<text text-anchor="start" x="428.5" y="-77.5" font-family="Helvetica,sans-Serif" font-size="10.00">m_mpi_proxy::s_mpi</text>
<text text-anchor="start" x="428.5" y="-66.5" font-family="Helvetica,sans-Serif" font-size="10.00">_defragment_1d_flow</text>
<text text-anchor="middle" x="481.5" y="-55.5" font-family="Helvetica,sans-Serif" font-size="10.00">_variable</text>
</a>
</g>
</g>
<!-- Node32&#45;&gt;Node33 -->
<g id="edge32_Node000032_Node000033" class="edge">
<title>Node32&#45;&gt;Node33</title>
<g id="a_edge32_Node000032_Node000033"><a xlink:title=" ">
<path fill="none" stroke="#63b8ff" d="M329.66,-69C355.05,-69 384.26,-69 410.18,-69"/>
<polygon fill="#63b8ff" stroke="#63b8ff" points="410.31,-72.5 420.31,-69 410.31,-65.5 410.31,-72.5"/>
</a>
</g>
</g>
<!-- Node34 -->
<g id="Node000034" class="node">
<title>Node34</title>
<g id="a_Node000034"><a xlink:href="namespacem__mpi__proxy.html#aa8376d4fe1d9829af56e78cecfb50d13" target="_top" xlink:title="This subroutine gathers the Silo database metadata for the flow variable&#39;s extents as to boost perfor...">
<polygon fill="white" stroke="#666666" points="542.5,-30 420.5,-30 420.5,0 542.5,0 542.5,-30"/>
<text text-anchor="start" x="428.5" y="-18" font-family="Helvetica,sans-Serif" font-size="10.00">m_mpi_proxy::s_mpi</text>
<text text-anchor="middle" x="481.5" y="-7" font-family="Helvetica,sans-Serif" font-size="10.00">_gather_data_extents</text>
</a>
</g>
</g>
<!-- Node32&#45;&gt;Node34 -->
<g id="edge33_Node000032_Node000034" class="edge">
<title>Node32&#45;&gt;Node34</title>
<g id="a_edge33_Node000032_Node000034"><a xlink:title=" ">
<path fill="none" stroke="#63b8ff" d="M329.66,-52.8C355.16,-46.41 384.52,-39.05 410.52,-32.53"/>
<polygon fill="#63b8ff" stroke="#63b8ff" points="411.46,-35.91 420.31,-30.08 409.76,-29.12 411.46,-35.91"/>
</a>
</g>
</g>
</g>
</svg>
