<?xml version="1.0" encoding="UTF-8" standalone="no"?>
<!DOCTYPE svg PUBLIC "-//W3C//DTD SVG 1.1//EN"
 "http://www.w3.org/Graphics/SVG/1.1/DTD/svg11.dtd">
<!-- Generated by graphviz version 2.43.0 (0)
 -->
<!-- Title: MFC_features Pages: 1 -->
<svg width="702pt" height="980pt"
 viewBox="0.00 0.00 702.00 980.00" xmlns="http://www.w3.org/2000/svg" xmlns:xlink="http://www.w3.org/1999/xlink">
<g id="graph0" class="graph" transform="scale(1 1) rotate(0) translate(4 976)">
<title>MFC_features</title>
<polygon fill="white" stroke="transparent" points="-4,4 -4,-976 698,-976 698,4 -4,4"/>
<!-- Bootstrap -->
<g id="node1" class="node">
<title>Bootstrap</title>
<polygon fill="none" stroke="black" stroke-width="2" points="465,-972 401,-972 401,-936 465,-936 465,-972"/>
<text text-anchor="middle" x="433" y="-951.5" font-family="Open Sans" font-size="10.00">Bootstrap</text>
</g>
<!-- ALox -->
<g id="node2" class="node">
<title>ALox</title>
<polygon fill="none" stroke="chocolate" stroke-width="2" points="433,-828 379,-828 379,-824 375,-824 375,-820 379,-820 379,-800 375,-800 375,-796 379,-796 379,-792 433,-792 433,-828"/>
<polyline fill="none" stroke="chocolate" stroke-width="2" points="379,-824 383,-824 383,-820 379,-820 "/>
<polyline fill="none" stroke="chocolate" stroke-width="2" points="379,-800 383,-800 383,-796 379,-796 "/>
<text text-anchor="middle" x="406" y="-807.5" font-family="Open Sans" font-size="10.00">ALox</text>
</g>
<!-- Bootstrap&#45;&gt;ALox -->
<g id="edge1" class="edge">
<title>Bootstrap&#45;&gt;ALox</title>
<path fill="none" stroke="#b0b0b0" stroke-width="2" stroke-dasharray="1,5" d="M429.74,-935.87C425.14,-911.67 416.69,-867.21 411.21,-838.39"/>
<polygon fill="#b0b0b0" stroke="#b0b0b0" stroke-width="2" points="414.57,-837.36 409.27,-828.19 407.7,-838.67 414.57,-837.36"/>
</g>
<!-- CLI -->
<g id="node4" class="node">
<title>CLI</title>
<polygon fill="none" stroke="chocolate" stroke-width="2" points="361,-828 307,-828 307,-824 303,-824 303,-820 307,-820 307,-800 303,-800 303,-796 307,-796 307,-792 361,-792 361,-828"/>
<polyline fill="none" stroke="chocolate" stroke-width="2" points="307,-824 311,-824 311,-820 307,-820 "/>
<polyline fill="none" stroke="chocolate" stroke-width="2" points="307,-800 311,-800 311,-796 307,-796 "/>
<text text-anchor="middle" x="334" y="-807.5" font-family="Open Sans" font-size="10.00">CLI</text>
</g>
<!-- Bootstrap&#45;&gt;CLI -->
<g id="edge2" class="edge">
<title>Bootstrap&#45;&gt;CLI</title>
<path fill="none" stroke="#b0b0b0" stroke-width="2" stroke-dasharray="1,5" d="M421.06,-935.87C403.81,-911.14 371.82,-865.24 351.79,-836.51"/>
<polygon fill="#b0b0b0" stroke="#b0b0b0" stroke-width="2" points="354.57,-834.39 345.98,-828.19 348.83,-838.39 354.57,-834.39"/>
</g>
<!-- Expressions -->
<g id="node5" class="node">
<title>Expressions</title>
<polygon fill="none" stroke="chocolate" stroke-width="2" points="564.5,-828 489.5,-828 489.5,-824 485.5,-824 485.5,-820 489.5,-820 489.5,-800 485.5,-800 485.5,-796 489.5,-796 489.5,-792 564.5,-792 564.5,-828"/>
<polyline fill="none" stroke="chocolate" stroke-width="2" points="489.5,-824 493.5,-824 493.5,-820 489.5,-820 "/>
<polyline fill="none" stroke="chocolate" stroke-width="2" points="489.5,-800 493.5,-800 493.5,-796 489.5,-796 "/>
<text text-anchor="middle" x="527" y="-807.5" font-family="Open Sans" font-size="10.00">Expressions</text>
</g>
<!-- Bootstrap&#45;&gt;Expressions -->
<g id="edge3" class="edge">
<title>Bootstrap&#45;&gt;Expressions</title>
<path fill="none" stroke="#b0b0b0" stroke-width="2" stroke-dasharray="1,5" d="M460.02,-935.87C472.76,-926.6 487.28,-914.15 497,-900 509.8,-881.38 517.53,-856.84 521.93,-838.24"/>
<polygon fill="#b0b0b0" stroke="#b0b0b0" stroke-width="2" points="525.38,-838.85 524.1,-828.34 518.54,-837.36 525.38,-838.85"/>
</g>
<!-- Files -->
<g id="node6" class="node">
<title>Files</title>
<polygon fill="none" stroke="chocolate" stroke-width="2" points="488,-900 434,-900 434,-896 430,-896 430,-892 434,-892 434,-872 430,-872 430,-868 434,-868 434,-864 488,-864 488,-900"/>
<polyline fill="none" stroke="chocolate" stroke-width="2" points="434,-896 438,-896 438,-892 434,-892 "/>
<polyline fill="none" stroke="chocolate" stroke-width="2" points="434,-872 438,-872 438,-868 434,-868 "/>
<text text-anchor="middle" x="461" y="-879.5" font-family="Open Sans" font-size="10.00">Files</text>
</g>
<!-- Bootstrap&#45;&gt;Files -->
<g id="edge4" class="edge">
<title>Bootstrap&#45;&gt;Files</title>
<path fill="none" stroke="#b0b0b0" stroke-width="2" stroke-dasharray="1,5" d="M439.92,-935.7C443.07,-927.81 446.88,-918.3 450.38,-909.55"/>
<polygon fill="#b0b0b0" stroke="#b0b0b0" stroke-width="2" points="453.69,-910.69 454.16,-900.1 447.19,-908.09 453.69,-910.69"/>
</g>
<!-- Camp -->
<g id="node3" class="node">
<title>Camp</title>
<polygon fill="none" stroke="#8b4513" stroke-width="2" points="460,-756 406,-756 406,-752 402,-752 402,-748 406,-748 406,-728 402,-728 402,-724 406,-724 406,-720 460,-720 460,-756"/>
<polyline fill="none" stroke="#8b4513" stroke-width="2" points="406,-752 410,-752 410,-748 406,-748 "/>
<polyline fill="none" stroke="#8b4513" stroke-width="2" points="406,-728 410,-728 410,-724 406,-724 "/>
<text text-anchor="middle" x="433" y="-735.5" font-family="Open Sans" font-size="10.00">Camp</text>
</g>
<!-- ALox&#45;&gt;Camp -->
<g id="edge10" class="edge">
<title>ALox&#45;&gt;Camp</title>
<path fill="none" stroke="midnightblue" d="M412.67,-791.7C415.71,-783.81 419.38,-774.3 422.76,-765.55"/>
<polygon fill="midnightblue" stroke="midnightblue" points="426.07,-766.69 426.4,-756.1 419.54,-764.17 426.07,-766.69"/>
</g>
<!-- Format -->
<g id="node7" class="node">
<title>Format</title>
<polygon fill="none" stroke="#104e8b" points="314,-612 260,-612 260,-576 314,-576 314,-612"/>
<text text-anchor="middle" x="287" y="-591.5" font-family="Open Sans" font-size="10.00">Format</text>
</g>
<!-- Camp&#45;&gt;Format -->
<g id="edge14" class="edge">
<title>Camp&#45;&gt;Format</title>
<path fill="none" stroke="#262626" d="M415.39,-719.87C389.63,-694.82 341.55,-648.05 312.09,-619.41"/>
<polygon fill="#262626" stroke="#262626" points="314.28,-616.65 304.67,-612.19 309.4,-621.67 314.28,-616.65"/>
</g>
<!-- Variables -->
<g id="node11" class="node">
<title>Variables</title>
<polygon fill="none" stroke="#104e8b" points="516,-684 454,-684 454,-648 516,-648 516,-684"/>
<text text-anchor="middle" x="485" y="-663.5" font-family="Open Sans" font-size="10.00">Variables</text>
</g>
<!-- Camp&#45;&gt;Variables -->
<g id="edge15" class="edge">
<title>Camp&#45;&gt;Variables</title>
<path fill="none" stroke="#262626" d="M445.85,-719.7C452.03,-711.39 459.54,-701.28 466.32,-692.14"/>
<polygon fill="#262626" stroke="#262626" points="469.14,-694.22 472.29,-684.1 463.52,-690.04 469.14,-694.22"/>
</g>
<!-- CLI&#45;&gt;Camp -->
<g id="edge8" class="edge">
<title>CLI&#45;&gt;Camp</title>
<path fill="none" stroke="midnightblue" d="M358.22,-791.88C370.92,-782.89 386.66,-771.76 400.42,-762.03"/>
<polygon fill="midnightblue" stroke="midnightblue" points="402.54,-764.82 408.69,-756.19 398.5,-759.11 402.54,-764.82"/>
</g>
<!-- Expressions&#45;&gt;Camp -->
<g id="edge9" class="edge">
<title>Expressions&#45;&gt;Camp</title>
<path fill="none" stroke="midnightblue" d="M503.76,-791.7C491.81,-782.8 477.08,-771.82 464.15,-762.2"/>
<polygon fill="midnightblue" stroke="midnightblue" points="466.08,-759.27 455.97,-756.1 461.9,-764.88 466.08,-759.27"/>
</g>
<!-- Files&#45;&gt;ALox -->
<g id="edge5" class="edge">
<title>Files&#45;&gt;ALox</title>
<path fill="none" stroke="#b0b0b0" stroke-width="2" stroke-dasharray="1,5" d="M447.4,-863.7C440.88,-855.39 432.93,-845.28 425.75,-836.14"/>
<polygon fill="#b0b0b0" stroke="#b0b0b0" stroke-width="2" points="428.37,-833.81 419.44,-828.1 422.87,-838.13 428.37,-833.81"/>
</g>
<!-- Files&#45;&gt;Camp -->
<g id="edge7" class="edge">
<title>Files&#45;&gt;Camp</title>
<path fill="none" stroke="midnightblue" d="M457.62,-863.87C452.83,-839.56 444.01,-794.82 438.33,-766.01"/>
<polygon fill="midnightblue" stroke="midnightblue" points="441.76,-765.32 436.39,-756.19 434.89,-766.68 441.76,-765.32"/>
</g>
<!-- Files&#45;&gt;Expressions -->
<g id="edge6" class="edge">
<title>Files&#45;&gt;Expressions</title>
<path fill="none" stroke="#b0b0b0" stroke-width="2" stroke-dasharray="1,5" d="M477.31,-863.7C485.31,-855.22 495.07,-844.86 503.82,-835.58"/>
<polygon fill="#b0b0b0" stroke="#b0b0b0" stroke-width="2" points="506.56,-837.78 510.87,-828.1 501.47,-832.98 506.56,-837.78"/>
</g>
<!-- Exceptions -->
<g id="node8" class="node">
<title>Exceptions</title>
<polygon fill="none" stroke="#104e8b" points="288,-540 218,-540 218,-504 288,-504 288,-540"/>
<text text-anchor="middle" x="253" y="-519.5" font-family="Open Sans" font-size="10.00">Exceptions</text>
</g>
<!-- Format&#45;&gt;Exceptions -->
<g id="edge16" class="edge">
<title>Format&#45;&gt;Exceptions</title>
<path fill="none" stroke="#262626" d="M278.6,-575.7C274.73,-567.73 270.05,-558.1 265.76,-549.26"/>
<polygon fill="#262626" stroke="#262626" points="268.83,-547.57 261.31,-540.1 262.53,-550.63 268.83,-547.57"/>
</g>
<!-- Resources -->
<g id="node9" class="node">
<title>Resources</title>
<polygon fill="none" stroke="#104e8b" points="128.5,-468 61.5,-468 61.5,-432 128.5,-432 128.5,-468"/>
<text text-anchor="middle" x="95" y="-447.5" font-family="Open Sans" font-size="10.00">Resources</text>
</g>
<!-- Exceptions&#45;&gt;Resources -->
<g id="edge17" class="edge">
<title>Exceptions&#45;&gt;Resources</title>
<path fill="none" stroke="#262626" d="M217.93,-505.46C194.31,-495 163.01,-481.13 137.9,-470.01"/>
<polygon fill="#262626" stroke="#262626" points="139.17,-466.74 128.61,-465.89 136.34,-473.14 139.17,-466.74"/>
</g>
<!-- Boxing -->
<g id="node14" class="node">
<title>Boxing</title>
<polygon fill="none" stroke="#104e8b" points="405,-324 351,-324 351,-288 405,-288 405,-324"/>
<text text-anchor="middle" x="378" y="-303.5" font-family="Open Sans" font-size="10.00">Boxing</text>
</g>
<!-- Exceptions&#45;&gt;Boxing -->
<g id="edge18" class="edge">
<title>Exceptions&#45;&gt;Boxing</title>
<path fill="none" stroke="#262626" d="M263.02,-503.85C284.87,-466.44 336.92,-377.32 362.82,-332.98"/>
<polygon fill="#262626" stroke="#262626" points="365.91,-334.63 367.93,-324.23 359.87,-331.1 365.91,-334.63"/>
</g>
<!-- EnumRecords -->
<g id="node15" class="node">
<title>EnumRecords</title>
<polygon fill="none" stroke="#104e8b" points="305.5,-396 222.5,-396 222.5,-360 305.5,-360 305.5,-396"/>
<text text-anchor="middle" x="264" y="-375.5" font-family="Open Sans" font-size="10.00">EnumRecords</text>
</g>
<!-- Exceptions&#45;&gt;EnumRecords -->
<g id="edge19" class="edge">
<title>Exceptions&#45;&gt;EnumRecords</title>
<path fill="none" stroke="#262626" d="M254.33,-503.87C256.2,-479.67 259.65,-435.21 261.88,-406.39"/>
<polygon fill="#262626" stroke="#262626" points="265.39,-406.43 262.67,-396.19 258.41,-405.89 265.39,-406.43"/>
</g>
<!-- Monomem -->
<g id="node12" class="node">
<title>Monomem</title>
<polygon fill="none" stroke="#104e8b" points="502.5,-36 433.5,-36 433.5,0 502.5,0 502.5,-36"/>
<text text-anchor="middle" x="468" y="-15.5" font-family="Open Sans" font-size="10.00">Monomem</text>
</g>
<!-- Resources&#45;&gt;Monomem -->
<g id="edge22" class="edge">
<title>Resources&#45;&gt;Monomem</title>
<path fill="none" stroke="#262626" d="M73.44,-431.78C45.41,-407.28 0,-359.5 0,-307 0,-307 0,-307 0,-161 0,-108.11 32.34,-96.9 79,-72 137.86,-40.6 334.15,-26.23 423.28,-21.21"/>
<polygon fill="#262626" stroke="#262626" points="423.56,-24.7 433.35,-20.65 423.17,-17.71 423.56,-24.7"/>
</g>
<!-- Containers -->
<g id="node13" class="node">
<title>Containers</title>
<polygon fill="none" stroke="#104e8b" points="399.5,-180 330.5,-180 330.5,-144 399.5,-144 399.5,-180"/>
<text text-anchor="middle" x="365" y="-159.5" font-family="Open Sans" font-size="10.00">Containers</text>
</g>
<!-- Resources&#45;&gt;Containers -->
<g id="edge23" class="edge">
<title>Resources&#45;&gt;Containers</title>
<path fill="none" stroke="#262626" d="M103.87,-431.71C125.97,-389.99 187.29,-282.37 264,-216 280.78,-201.48 302.23,-189.52 321.03,-180.65"/>
<polygon fill="#262626" stroke="#262626" points="322.66,-183.76 330.31,-176.43 319.76,-177.39 322.66,-183.76"/>
</g>
<!-- Resources&#45;&gt;EnumRecords -->
<g id="edge45" class="edge">
<title>Resources&#45;&gt;EnumRecords</title>
<path fill="none" stroke="#b0b0b0" stroke-width="2" stroke-dasharray="1,5" d="M128.79,-435C153.01,-424.97 186.03,-411.29 213.38,-399.97"/>
<polygon fill="#b0b0b0" stroke="#b0b0b0" stroke-width="2" points="214.9,-403.13 222.8,-396.07 212.22,-396.66 214.9,-403.13"/>
</g>
<!-- Strings -->
<g id="node16" class="node">
<title>Strings</title>
<polygon fill="none" stroke="#104e8b" points="453,-108 399,-108 399,-72 453,-72 453,-108"/>
<text text-anchor="middle" x="426" y="-87.5" font-family="Open Sans" font-size="10.00">Strings</text>
</g>
<!-- Resources&#45;&gt;Strings -->
<g id="edge24" class="edge">
<title>Resources&#45;&gt;Strings</title>
<path fill="none" stroke="#262626" d="M91.16,-431.61C85.6,-404.94 76,-352.27 76,-307 76,-307 76,-307 76,-233 76,-166.06 298.62,-115.57 388.76,-97.87"/>
<polygon fill="#262626" stroke="#262626" points="389.67,-101.26 398.83,-95.93 388.34,-94.39 389.67,-101.26"/>
</g>
<!-- System -->
<g id="node10" class="node">
<title>System</title>
<polygon fill="none" stroke="#104e8b" points="417,-612 363,-612 363,-576 417,-576 417,-612"/>
<text text-anchor="middle" x="390" y="-591.5" font-family="Open Sans" font-size="10.00">System</text>
</g>
<!-- System&#45;&gt;Exceptions -->
<g id="edge48" class="edge">
<title>System&#45;&gt;Exceptions</title>
<path fill="none" stroke="#b0b0b0" stroke-width="2" stroke-dasharray="1,5" d="M362.93,-579.17C343.69,-569.34 317.46,-555.94 295.45,-544.69"/>
<polygon fill="#b0b0b0" stroke="#b0b0b0" stroke-width="2" points="296.81,-541.45 286.31,-540.02 293.62,-547.69 296.81,-541.45"/>
</g>
<!-- System&#45;&gt;Monomem -->
<g id="edge49" class="edge">
<title>System&#45;&gt;Monomem</title>
<path fill="none" stroke="#b0b0b0" stroke-width="2" stroke-dasharray="1,5" d="M417.46,-580.02C485.43,-545.78 656,-446.01 656,-307 656,-307 656,-307 656,-161 656,-89.42 568.15,-49.35 512.56,-31.16"/>
<polygon fill="#b0b0b0" stroke="#b0b0b0" stroke-width="2" points="513.51,-27.79 502.92,-28.11 511.4,-34.46 513.51,-27.79"/>
</g>
<!-- System&#45;&gt;Boxing -->
<g id="edge20" class="edge">
<title>System&#45;&gt;Boxing</title>
<path fill="none" stroke="#262626" d="M389.29,-575.97C387.28,-528.29 381.62,-393.18 379.16,-334.63"/>
<polygon fill="#262626" stroke="#262626" points="382.64,-334.15 378.73,-324.31 375.65,-334.44 382.64,-334.15"/>
</g>
<!-- System&#45;&gt;EnumRecords -->
<g id="edge21" class="edge">
<title>System&#45;&gt;EnumRecords</title>
<path fill="none" stroke="#262626" d="M379.9,-575.85C357.88,-538.44 305.4,-449.32 279.3,-404.98"/>
<polygon fill="#262626" stroke="#262626" points="282.24,-403.07 274.15,-396.23 276.2,-406.63 282.24,-403.07"/>
</g>
<!-- Variables&#45;&gt;System -->
<g id="edge11" class="edge">
<title>Variables&#45;&gt;System</title>
<path fill="none" stroke="#262626" d="M461.52,-647.7C449.44,-638.8 434.55,-627.82 421.48,-618.2"/>
<polygon fill="#262626" stroke="#262626" points="423.34,-615.22 413.21,-612.1 419.19,-620.85 423.34,-615.22"/>
</g>
<!-- Variables&#45;&gt;Monomem -->
<g id="edge12" class="edge">
<title>Variables&#45;&gt;Monomem</title>
<path fill="none" stroke="#262626" d="M516.29,-658.92C574.59,-645.57 694,-607.88 694,-523 694,-523 694,-523 694,-161 694,-76.33 578.86,-40.18 512.95,-26.43"/>
<polygon fill="#262626" stroke="#262626" points="513.31,-22.93 502.82,-24.41 511.94,-29.8 513.31,-22.93"/>
</g>
<!-- Variables&#45;&gt;Containers -->
<g id="edge13" class="edge">
<title>Variables&#45;&gt;Containers</title>
<path fill="none" stroke="#262626" d="M506.56,-647.78C534.59,-623.28 580,-575.5 580,-523 580,-523 580,-523 580,-305 580,-224.07 472.61,-186.6 409.62,-171.59"/>
<polygon fill="#262626" stroke="#262626" points="410.07,-168.1 399.54,-169.29 408.51,-174.93 410.07,-168.1"/>
</g>
<!-- Containers&#45;&gt;Monomem -->
<g id="edge43" class="edge">
<title>Containers&#45;&gt;Monomem</title>
<path fill="none" stroke="#b0b0b0" stroke-width="2" stroke-dasharray="1,5" d="M366.33,-143.75C368.54,-124.63 374.44,-93.62 390,-72 399.01,-59.48 411.96,-48.99 424.73,-40.74"/>
<polygon fill="#b0b0b0" stroke="#b0b0b0" stroke-width="2" points="426.78,-43.59 433.49,-35.39 423.13,-37.62 426.78,-43.59"/>
</g>
<!-- Containers&#45;&gt;Strings -->
<g id="edge38" class="edge">
<title>Containers&#45;&gt;Strings</title>
<path fill="none" stroke="#b0b0b0" stroke-width="2" stroke-dasharray="1,5" d="M380.08,-143.7C387.39,-135.3 396.31,-125.07 404.34,-115.86"/>
<polygon fill="#b0b0b0" stroke="#b0b0b0" stroke-width="2" points="407.16,-117.94 411.09,-108.1 401.89,-113.34 407.16,-117.94"/>
</g>
<!-- Boxing&#45;&gt;Monomem -->
<g id="edge35" class="edge">
<title>Boxing&#45;&gt;Monomem</title>
<path fill="none" stroke="#b0b0b0" stroke-width="2" stroke-dasharray="1,5" d="M397.62,-287.91C407.79,-278.21 419.78,-265.36 428,-252 463.65,-194.04 468.27,-175.03 480,-108 483.61,-87.4 480.14,-63.95 476.02,-46.29"/>
<polygon fill="#b0b0b0" stroke="#b0b0b0" stroke-width="2" points="479.29,-44.95 473.43,-36.12 472.51,-46.68 479.29,-44.95"/>
</g>
<!-- Boxing&#45;&gt;Containers -->
<g id="edge36" class="edge">
<title>Boxing&#45;&gt;Containers</title>
<path fill="none" stroke="#b0b0b0" stroke-width="2" stroke-dasharray="1,5" d="M352.62,-287.95C341.29,-278.79 329.12,-266.4 323,-252 316.74,-237.28 317.74,-231.11 323,-216 326.53,-205.86 332.91,-196.19 339.64,-187.96"/>
<polygon fill="#b0b0b0" stroke="#b0b0b0" stroke-width="2" points="342.44,-190.07 346.4,-180.24 337.17,-185.46 342.44,-190.07"/>
</g>
<!-- Boxing&#45;&gt;Strings -->
<g id="edge37" class="edge">
<title>Boxing&#45;&gt;Strings</title>
<path fill="none" stroke="#b0b0b0" stroke-width="2" stroke-dasharray="1,5" d="M390.62,-287.75C397.24,-277.8 404.81,-264.76 409,-252 423.81,-206.89 426.48,-151.22 426.58,-118.56"/>
<polygon fill="#b0b0b0" stroke="#b0b0b0" stroke-width="2" points="430.08,-118.4 426.53,-108.42 423.08,-118.43 430.08,-118.4"/>
</g>
<!-- Singletons -->
<g id="node19" class="node">
<title>Singletons</title>
<polygon fill="none" stroke="#104e8b" points="400,-252 332,-252 332,-216 400,-216 400,-252"/>
<text text-anchor="middle" x="366" y="-231.5" font-family="Open Sans" font-size="10.00">Singletons</text>
</g>
<!-- Boxing&#45;&gt;Singletons -->
<g id="edge30" class="edge">
<title>Boxing&#45;&gt;Singletons</title>
<path fill="none" stroke="#262626" d="M375.03,-287.7C373.71,-279.98 372.12,-270.71 370.65,-262.11"/>
<polygon fill="#262626" stroke="#262626" points="374.07,-261.37 368.93,-252.1 367.17,-262.55 374.07,-261.37"/>
</g>
<!-- EnumRecords&#45;&gt;Monomem -->
<g id="edge40" class="edge">
<title>EnumRecords&#45;&gt;Monomem</title>
<path fill="none" stroke="#b0b0b0" stroke-width="2" stroke-dasharray="1,5" d="M247.94,-359.69C226.18,-334.36 190,-284.76 190,-235 190,-235 190,-235 190,-161 190,-57.53 344.63,-29.41 423.25,-21.8"/>
<polygon fill="#b0b0b0" stroke="#b0b0b0" stroke-width="2" points="423.71,-25.28 433.35,-20.9 423.08,-18.3 423.71,-25.28"/>
</g>
<!-- EnumRecords&#45;&gt;Containers -->
<g id="edge41" class="edge">
<title>EnumRecords&#45;&gt;Containers</title>
<path fill="none" stroke="#b0b0b0" stroke-width="2" stroke-dasharray="1,5" d="M266.79,-359.99C272.35,-329.45 286.76,-264.02 315,-216 320.99,-205.81 329.26,-196.01 337.36,-187.66"/>
<polygon fill="#b0b0b0" stroke="#b0b0b0" stroke-width="2" points="340.02,-189.95 344.67,-180.43 335.1,-184.97 340.02,-189.95"/>
</g>
<!-- EnumRecords&#45;&gt;Boxing -->
<g id="edge42" class="edge">
<title>EnumRecords&#45;&gt;Boxing</title>
<path fill="none" stroke="#b0b0b0" stroke-width="2" stroke-dasharray="1,5" d="M291.89,-359.88C307.02,-350.59 325.88,-339 342.1,-329.04"/>
<polygon fill="#b0b0b0" stroke="#b0b0b0" stroke-width="2" points="344.1,-331.92 350.79,-323.71 340.44,-325.96 344.1,-331.92"/>
</g>
<!-- EnumRecords&#45;&gt;Strings -->
<g id="edge31" class="edge">
<title>EnumRecords&#45;&gt;Strings</title>
<path fill="none" stroke="#262626" d="M263.08,-359.89C261.76,-317.65 264.28,-207.25 321,-144 339.17,-123.74 366.88,-110.21 389.27,-101.89"/>
<polygon fill="#262626" stroke="#262626" points="390.54,-105.16 398.82,-98.54 388.22,-98.55 390.54,-105.16"/>
</g>
<!-- EnumRecords&#45;&gt;Singletons -->
<g id="edge32" class="edge">
<title>EnumRecords&#45;&gt;Singletons</title>
<path fill="none" stroke="#262626" d="M276.3,-359.87C294.07,-335.14 327.04,-289.24 347.67,-260.51"/>
<polygon fill="#262626" stroke="#262626" points="350.66,-262.35 353.65,-252.19 344.98,-258.27 350.66,-262.35"/>
</g>
<!-- Strings&#45;&gt;Monomem -->
<g id="edge39" class="edge">
<title>Strings&#45;&gt;Monomem</title>
<path fill="none" stroke="#b0b0b0" stroke-width="2" stroke-dasharray="1,5" d="M436.38,-71.7C441.26,-63.56 447.19,-53.69 452.58,-44.7"/>
<polygon fill="#b0b0b0" stroke="#b0b0b0" stroke-width="2" points="455.59,-46.48 457.74,-36.1 449.59,-42.88 455.59,-46.48"/>
</g>
<!-- ThreadModel -->
<g id="node17" class="node">
<title>ThreadModel</title>
<polygon fill="none" stroke="#104e8b" stroke-width="2" points="506,-468 426,-468 426,-432 506,-432 506,-468"/>
<text text-anchor="middle" x="466" y="-447.5" font-family="Open Sans" font-size="10.00">ThreadModel</text>
</g>
<!-- ThreadModel&#45;&gt;Monomem -->
<g id="edge27" class="edge">
<title>ThreadModel&#45;&gt;Monomem</title>
<path fill="none" stroke="#262626" d="M506.33,-432.28C551.36,-410.62 618,-368.21 618,-307 618,-307 618,-307 618,-161 618,-102.08 556.21,-60.29 511.94,-37.92"/>
<polygon fill="#262626" stroke="#262626" points="513.31,-34.7 502.79,-33.44 510.23,-40.98 513.31,-34.7"/>
</g>
<!-- ThreadModel&#45;&gt;Containers -->
<g id="edge28" class="edge">
<title>ThreadModel&#45;&gt;Containers</title>
<path fill="none" stroke="#262626" d="M464.45,-431.71C460.31,-391.76 446.64,-290.76 409,-216 403.95,-205.96 396.67,-196.15 389.49,-187.76"/>
<polygon fill="#262626" stroke="#262626" points="391.99,-185.3 382.71,-180.18 386.77,-189.96 391.99,-185.3"/>
</g>
<!-- ThreadModel&#45;&gt;Boxing -->
<g id="edge29" class="edge">
<title>ThreadModel&#45;&gt;Boxing</title>
<path fill="none" stroke="#262626" d="M455.39,-431.87C440.12,-407.24 411.86,-361.64 394.04,-332.88"/>
<polygon fill="#262626" stroke="#262626" points="396.9,-330.85 388.65,-324.19 390.95,-334.53 396.9,-330.85"/>
</g>
<!-- ThreadModel&#45;&gt;EnumRecords -->
<g id="edge46" class="edge">
<title>ThreadModel&#45;&gt;EnumRecords</title>
<path fill="none" stroke="#b0b0b0" stroke-width="2" stroke-dasharray="1,5" d="M425.61,-435C393.96,-424.04 349.72,-408.7 315.52,-396.85"/>
<polygon fill="#b0b0b0" stroke="#b0b0b0" stroke-width="2" points="316.31,-393.42 305.71,-393.45 314.01,-400.04 316.31,-393.42"/>
</g>
<!-- ThreadModel&#45;&gt;Strings -->
<g id="edge47" class="edge">
<title>ThreadModel&#45;&gt;Strings</title>
<path fill="none" stroke="#b0b0b0" stroke-width="2" stroke-dasharray="1,5" d="M468.6,-431.93C470.99,-414.01 473.9,-385.02 472,-360 464.65,-263.16 457.92,-239.25 439,-144 437.31,-135.51 435.17,-126.32 433.12,-118.02"/>
<polygon fill="#b0b0b0" stroke="#b0b0b0" stroke-width="2" points="436.45,-116.93 430.6,-108.1 429.67,-118.65 436.45,-116.93"/>
</g>
<!-- BitBuffer -->
<g id="node18" class="node">
<title>BitBuffer</title>
<polygon fill="none" stroke="#104e8b" stroke-width="2" points="205.5,-468 146.5,-468 146.5,-432 205.5,-432 205.5,-468"/>
<text text-anchor="middle" x="176" y="-447.5" font-family="Open Sans" font-size="10.00">BitBuffer</text>
</g>
<!-- BitBuffer&#45;&gt;Monomem -->
<g id="edge25" class="edge">
<title>BitBuffer&#45;&gt;Monomem</title>
<path fill="none" stroke="#262626" d="M146.4,-435.07C105.85,-413.69 38,-368.71 38,-307 38,-307 38,-307 38,-161 38,-80.55 312.79,-37.98 423.04,-24.14"/>
<polygon fill="#262626" stroke="#262626" points="423.68,-27.59 433.18,-22.89 422.82,-20.64 423.68,-27.59"/>
</g>
<!-- BitBuffer&#45;&gt;Containers -->
<g id="edge26" class="edge">
<title>BitBuffer&#45;&gt;Containers</title>
<path fill="none" stroke="#262626" d="M181.37,-431.76C194.83,-390.62 233.39,-284.97 294,-216 303.89,-204.75 316.52,-194.39 328.39,-185.87"/>
<polygon fill="#262626" stroke="#262626" points="330.62,-188.58 336.84,-180.01 326.63,-182.83 330.62,-188.58"/>
</g>
<!-- BitBuffer&#45;&gt;EnumRecords -->
<g id="edge44" class="edge">
<title>BitBuffer&#45;&gt;EnumRecords</title>
<path fill="none" stroke="#b0b0b0" stroke-width="2" stroke-dasharray="1,5" d="M197.75,-431.7C208.84,-422.88 222.47,-412.03 234.49,-402.47"/>
<polygon fill="#b0b0b0" stroke="#b0b0b0" stroke-width="2" points="236.85,-405.07 242.5,-396.1 232.49,-399.59 236.85,-405.07"/>
</g>
<!-- Singletons&#45;&gt;Monomem -->
<g id="edge33" class="edge">
<title>Singletons&#45;&gt;Monomem</title>
<path fill="none" stroke="#b0b0b0" stroke-width="2" stroke-dasharray="1,5" d="M384.94,-215.71C407.92,-193.38 445.62,-152.12 462,-108 469.31,-88.31 470.56,-64.5 470.12,-46.47"/>
<polygon fill="#b0b0b0" stroke="#b0b0b0" stroke-width="2" points="473.61,-46.17 469.68,-36.33 466.61,-46.48 473.61,-46.17"/>
</g>
<!-- Singletons&#45;&gt;Containers -->
<g id="edge34" class="edge">
<title>Singletons&#45;&gt;Containers</title>
<path fill="none" stroke="#b0b0b0" stroke-width="2" stroke-dasharray="1,5" d="M365.75,-215.7C365.64,-207.98 365.51,-198.71 365.39,-190.11"/>
<polygon fill="#b0b0b0" stroke="#b0b0b0" stroke-width="2" points="368.89,-190.05 365.24,-180.1 361.89,-190.15 368.89,-190.05"/>
</g>
</g>
</svg>
